<svg width="91" height="91" viewBox="0 0 91 91" fill="none" xmlns="http://www.w3.org/2000/svg">
<g clip-path="url(#clip0)">
<path d="M29.2326 89.8507L26.21 84.6011C25.9562 84.1602 25.4376 83.9454 24.9464 84.0776L19.0972 85.6524C18.1985 85.8943 17.4132 84.9999 17.7694 84.1401L31.558 55.3379L45.0296 60.9181L31.2409 89.7204C30.8848 90.5801 29.6969 90.6571 29.2326 89.8507Z" fill="#E1E6E9"/>
<path d="M60.8261 89.8505L63.8487 84.6009C64.1025 84.16 64.6211 83.9452 65.1123 84.0774L70.9615 85.6522C71.8602 85.8941 72.6455 84.9997 72.2893 84.1399L58.5009 55.3379L45.0293 60.9181L58.818 89.7202C59.1741 90.5799 60.3618 90.6569 60.8261 89.8505Z" fill="#E1E6E9"/>
<path d="M78.0322 37.2C74.3499 33.165 73.5052 27.2904 75.9016 22.3816C76.5843 20.9832 75.82 19.3097 74.3161 18.9099C69.0369 17.5064 65.1503 13.0209 64.5122 7.59566C64.3304 6.05028 62.7827 5.05552 61.3014 5.53214C56.1013 7.20552 50.4068 5.53349 46.9369 1.3144C45.9485 0.112649 44.1087 0.112649 43.1202 1.3144C39.6505 5.53349 33.9558 7.20552 28.7558 5.53214C27.2746 5.05552 25.7267 6.05009 25.5449 7.59566C24.9068 13.0209 21.0202 17.5064 15.741 18.9099C14.2372 19.3097 13.4728 20.9834 14.1555 22.3816C16.5519 27.2906 15.7072 33.165 12.0249 37.2C10.9759 38.3495 11.2379 40.1706 12.568 40.9778C17.238 43.812 19.7034 49.2106 18.7872 54.5958C18.5262 56.1299 19.731 57.5204 21.2866 57.4804C26.7474 57.3399 31.7402 60.5485 33.8808 65.5742C34.4906 67.0058 36.2561 67.5241 37.543 66.6495C42.0609 63.5789 47.9958 63.5789 52.5138 66.6495C53.8009 67.5241 55.5661 67.0058 56.1759 65.5742C58.3167 60.5485 63.3093 57.3397 68.7703 57.4804C70.3259 57.5204 71.5307 56.1299 71.2697 54.5958C70.3534 49.2106 72.819 43.812 77.4887 40.9778C78.8192 40.1706 79.081 38.3495 78.0322 37.2Z" fill="#FCD462"/>
<path d="M52.2446 58.9576C49.9579 58.0741 47.5197 57.6169 45.0289 57.6169C42.538 57.6169 40.0997 58.0743 37.8132 58.9576C34.8826 54.9436 30.5576 52.1586 25.6793 51.1569C25.3939 46.1758 23.2612 41.5056 19.6855 38.0272C22.1359 33.6842 22.8664 28.6049 21.7389 23.7469C26.1505 21.4165 29.5127 17.5351 31.1897 12.8355C31.7357 12.8805 32.2846 12.9034 32.8344 12.903C37.3036 12.903 41.5655 11.4329 45.0291 8.77344C48.4927 11.4335 52.7552 12.9035 57.2238 12.903C57.7736 12.903 58.3225 12.8805 58.8685 12.8355C60.5455 17.5353 63.9077 21.4167 68.3193 23.7469C67.1921 28.6054 67.9223 33.6842 70.3727 38.0272C66.7968 41.5056 64.6641 46.1762 64.3789 51.1569C59.4996 52.1586 55.1747 54.9436 52.2446 58.9576Z" fill="#27A2DB"/>
<path d="M59.9654 24.2783C58.9048 22.9257 56.9475 22.6895 55.5939 23.7514L38.1822 37.4161L34.693 34.0857C33.4484 32.8978 31.4781 32.9445 30.2907 34.1885C29.1038 35.4327 29.1495 37.4034 30.3936 38.5907L35.8332 43.7827C36.4317 44.3539 37.2066 44.6437 37.9834 44.6437C38.6599 44.6437 39.3385 44.4242 39.9051 43.9793L59.4381 28.6498C60.7909 27.5882 61.0271 25.631 59.9654 24.2783Z" fill="#EBF0F3"/>
</g>
<defs>
<clipPath id="clip0">
<rect width="90" height="90" fill="white" transform="translate(0.0292969 0.413086)"/>
</clipPath>
</defs>
</svg>
