<svg width="91" height="91" viewBox="0 0 91 91" fill="none" xmlns="http://www.w3.org/2000/svg">
<g clip-path="url(#clip0)">
<path d="M20.5489 17.71H17.7363V20.5225H20.5489V17.71Z" fill="#183651"/>
<path d="M20.5489 27.835H17.7363V30.6475H20.5489V27.835Z" fill="#183651"/>
<path d="M20.5489 37.8193H17.7363V40.6319H20.5489V37.8193Z" fill="#183651"/>
<path d="M72.2989 17.71H69.4863V20.5225H72.2989V17.71Z" fill="#183651"/>
<path d="M72.2989 27.835H69.4863V30.6475H72.2989V27.835Z" fill="#183651"/>
<path d="M72.2989 37.8193H69.4863V40.6319H72.2989V37.8193Z" fill="#183651"/>
<path d="M71.7362 48.3662H18.2988C16.0488 48.3662 14.3613 50.1943 14.3613 52.3036V84.9287C14.3613 87.1787 16.1895 88.8661 18.2988 88.8661H71.8769C74.1269 88.8661 75.8144 87.038 75.8144 84.9287V52.3036C75.8144 50.1943 73.9862 48.3662 71.7362 48.3662Z" fill="white"/>
<path d="M71.7363 90.4131H18.2988C15.3456 90.4131 12.9551 88.0224 12.9551 85.0694V52.3037C12.9551 49.3504 15.3457 46.96 18.2988 46.96H71.877C74.8302 46.96 77.2206 49.3506 77.2206 52.3037V84.9287C77.2206 88.0224 74.6895 90.4131 71.7363 90.4131ZM18.2988 49.7725C16.8925 49.7725 15.7676 50.8976 15.7676 52.3037V84.9287C15.7676 86.335 16.8927 87.4599 18.2988 87.4599H71.877C73.2832 87.4599 74.4081 86.3348 74.4081 84.9287V52.3037C74.4081 50.8974 73.283 49.7725 71.877 49.7725H18.2988Z" fill="#183651"/>
<path d="M70.0488 53.9912H19.8457V83.3819H70.0488V53.9912Z" fill="#4FBF9F"/>
<path d="M71.7363 70.3037H18.2988C15.3456 70.3037 12.9551 67.913 12.9551 64.96C12.9551 64.1162 13.5176 63.5537 14.3613 63.5537C15.2051 63.5537 15.7676 64.1162 15.7676 64.96C15.7676 66.3662 16.8927 67.4911 18.2988 67.4911H71.877C73.2832 67.4911 74.4081 66.3661 74.4081 64.96C74.4081 64.1162 74.9707 63.5537 75.8144 63.5537C76.6581 63.5537 77.2206 64.1162 77.2206 64.96C77.2206 67.7725 74.6895 70.3037 71.7363 70.3037Z" fill="#183651"/>
<path d="M61.4707 49.7724H28.5645C27.7207 49.7724 27.1582 49.2099 27.1582 48.3662V37.5381C27.1582 36.6944 27.7207 36.1318 28.5645 36.1318H61.33C62.1738 36.1318 62.7363 36.6944 62.7363 37.5381V48.3662C62.8768 49.2099 62.1738 49.7724 61.4707 49.7724ZM29.9706 46.9599H59.9236V38.9444H29.9706V46.9599Z" fill="#183651"/>
<path d="M41.6426 61.3037V72.5536C41.6426 74.5224 43.1895 75.9287 45.0176 75.9287C46.9865 75.9287 48.3927 74.3818 48.3927 72.5536V61.3037H41.6426Z" fill="white"/>
<path d="M45.0177 77.4756C42.3458 77.4756 40.2363 75.3663 40.2363 72.6943V61.4444C40.2363 60.6006 40.7989 60.0381 41.6426 60.0381H48.5332C49.377 60.0381 49.9395 60.6006 49.9395 61.4444V72.6943C49.7988 75.2256 47.6895 77.4756 45.0177 77.4756ZM43.0489 62.7101V72.5538C43.0489 73.6789 43.8926 74.5226 45.0177 74.5226C46.1427 74.5226 46.9865 73.6789 46.9865 72.5538V62.7101H43.0489Z" fill="#183651"/>
<path d="M51.0646 62.71H38.9707C38.127 62.71 37.5645 62.1474 37.5645 61.3037C37.5645 60.46 38.127 59.8975 38.9707 59.8975H51.0646C51.9083 59.8975 52.4708 60.46 52.4708 61.3037C52.4708 62.1474 51.9083 62.71 51.0646 62.71Z" fill="#183651"/>
<path d="M59.6427 16.0225L54.7208 11.8037H34.8926C33.627 15.0381 32.9238 20.8037 32.9238 24.3194V39.507C32.9238 41.0539 34.0489 42.4602 35.5957 42.6007C37.2831 42.7413 38.8301 41.4756 38.8301 39.6475C38.8301 41.1944 40.0956 42.6007 41.7833 42.6007H41.924C43.4709 42.6007 44.8772 41.3351 44.8772 39.6475C44.8772 41.1944 46.1427 42.6007 47.8304 42.6007H47.971C49.518 42.6007 50.9243 41.3351 50.9243 39.6475V39.7881C50.9243 41.3351 52.1898 42.7413 53.8775 42.7413H54.0181C55.5651 42.7413 56.9714 41.4758 56.9714 39.7881V29.2412C56.9714 30.9287 58.3776 32.335 60.0651 32.1945C61.612 32.0538 62.8776 30.6475 62.8776 29.1007V25.8664C62.7364 23.335 61.6113 17.5693 59.6427 16.0225Z" fill="#FBBD5E"/>
<path d="M53.8775 44.0068H53.7368C52.6117 44.0068 51.4868 43.5849 50.7836 42.8817C50.0805 43.5847 48.9555 44.0068 47.9711 44.0068H47.8304C46.7053 44.0068 45.7211 43.5849 44.8772 42.8817C44.1741 43.5847 43.049 44.0068 41.924 44.0068H41.7833C40.6582 44.0068 39.674 43.5849 38.8301 42.8817C37.9864 43.7254 36.7208 44.1473 35.455 44.0068C33.3457 43.7256 31.5176 41.8974 31.5176 39.5068V24.3192C31.5176 20.5223 32.2206 14.6161 33.4864 11.2412C33.7676 10.6786 34.1894 10.3975 34.752 10.3975H54.5802C54.8613 10.3975 55.2832 10.5381 55.4239 10.6786L60.3457 14.8974C62.8769 17.0067 63.8613 23.4755 63.8613 25.8662V29.1006C63.8613 31.4912 62.0332 33.4599 59.6425 33.6005H59.3613C58.7988 33.6005 58.2362 33.4599 57.8144 33.3194V39.6475C58.0963 42.0379 56.1275 44.0068 53.8775 44.0068ZM52.19 39.6473C52.19 40.491 52.8931 41.1942 53.737 41.1942H53.8777C54.7214 41.1942 55.4246 40.4912 55.4246 39.6473V29.2411C55.4246 28.3974 55.9871 27.8348 56.8309 27.8348C57.6746 27.8348 58.2371 28.3974 58.2371 29.2411C58.2371 30.0848 58.9402 30.788 59.7841 30.788C60.628 30.788 61.331 29.9443 61.331 29.1006V25.8662C61.331 23.335 60.2059 18.2725 58.7998 17.0067L54.1588 13.2098H35.8776C34.8932 16.163 34.3306 21.0849 34.3306 24.3192V39.5068C34.3306 40.3505 34.8932 41.0537 35.7369 41.1942C36.5806 41.3349 37.4243 40.6317 37.4243 39.6473C37.4243 38.8036 37.9869 38.241 38.8306 38.241C39.6743 38.241 40.2369 38.8036 40.2369 39.6473C40.2369 40.491 40.9399 41.1942 41.7838 41.1942H41.9245C42.7682 41.1942 43.4714 40.4912 43.4714 39.6473C43.4714 38.8036 44.034 38.241 44.8777 38.241C45.7214 38.241 46.284 38.8036 46.284 39.6473C46.284 40.491 46.987 41.1942 47.8309 41.1942H47.9716C48.8153 41.1942 49.5185 40.4912 49.5185 39.6473C49.5185 38.8036 50.0811 38.241 50.9248 38.241C51.7685 38.241 52.19 38.8036 52.19 39.6473Z" fill="#183651"/>
<path d="M58.6581 1.81934H32.3613V11.8037H58.6581V1.81934Z" fill="white"/>
<path d="M58.6583 13.21H32.3613C31.5176 13.21 30.9551 12.6474 30.9551 11.8037V1.81935C30.9551 0.975627 31.5176 0.413086 32.3613 0.413086H58.6581C59.5019 0.413086 60.0644 0.975627 60.0644 1.81935V11.8037C60.0646 12.5069 59.3614 13.21 58.6583 13.21ZM33.7676 10.3974H57.252V3.22561H33.7676V10.3974Z" fill="#183651"/>
<path d="M50.7832 41.0538C49.9395 41.0538 49.377 40.4913 49.377 39.6475V32.1943C49.377 31.3506 49.9395 30.7881 50.7832 30.7881C51.6269 30.7881 52.1895 31.3506 52.1895 32.1943V39.6475C52.1895 40.4913 51.4863 41.0538 50.7832 41.0538Z" fill="#183651"/>
<path d="M44.7363 41.0538C43.8926 41.0538 43.3301 40.4913 43.3301 39.6475V32.1943C43.3301 31.3506 43.8926 30.7881 44.7363 30.7881C45.5801 30.7881 46.1426 31.3506 46.1426 32.1943V39.6475C46.1426 40.3507 45.5801 41.0538 44.7363 41.0538Z" fill="#183651"/>
<path d="M38.8301 41.0538C37.9864 41.0538 37.4238 40.4913 37.4238 39.6475V32.1943C37.4238 31.3506 37.9864 30.7881 38.8301 30.7881C39.6738 30.7881 40.2364 31.3506 40.2364 32.1943V39.6475C40.2364 40.3507 39.5333 41.0538 38.8301 41.0538Z" fill="#183651"/>
<path d="M56.6895 30.6474C55.8457 30.6474 55.2832 30.0849 55.2832 29.2411V24.8818C55.2832 24.0381 55.8457 23.4756 56.6895 23.4756C57.5332 23.4756 58.0957 24.0381 58.0957 24.8818V29.2411C58.0957 29.9442 57.5332 30.6474 56.6895 30.6474Z" fill="#183651"/>
</g>
<defs>
<clipPath id="clip0">
<rect width="90" height="90" fill="white" transform="translate(0.0175781 0.413086)"/>
</clipPath>
</defs>
</svg>
