<svg width="91" height="91" viewBox="0 0 91 91" fill="none" xmlns="http://www.w3.org/2000/svg">
<g clip-path="url(#clip0)">
<path d="M66.0996 22.9131H64.5513C60.7924 22.9131 58.9109 18.3695 61.5687 15.7117L62.6627 14.6176C63.761 13.5193 63.761 11.739 62.6627 10.6407L58.6859 6.66387C58.136 6.11402 57.4174 5.8398 56.6974 5.8398H51.0724C50.3524 5.8398 49.6324 6.11402 49.084 6.66387L47.9899 7.75793C47.9337 7.81418 47.8718 7.85637 47.8141 7.9098C46.9746 7.1659 46.4121 6.08871 46.4121 4.77246V3.22559C46.4121 1.67168 45.1535 0.413086 43.5996 0.413086H32.3496C30.7957 0.413086 29.5371 1.67168 29.5371 3.22559V4.77246C29.5371 6.0873 28.9746 7.1659 28.1365 7.90699C28.0788 7.85496 28.017 7.81137 27.9607 7.75512L26.8652 6.66246C26.3154 6.11262 25.5968 5.8384 24.8768 5.8384H19.2518C18.5318 5.8384 17.8118 6.11262 17.2634 6.66246L13.2865 10.6393C12.1882 11.7376 12.1882 13.5179 13.2865 14.6162L14.3805 15.7103C17.0384 18.3695 15.1554 22.9131 11.3979 22.9131H9.84961C8.2957 22.9131 7.03711 24.1717 7.03711 25.7256V31.3506C7.03711 32.9045 8.2957 34.1631 9.84961 34.1631H11.3979C15.1568 34.1631 17.0384 38.7067 14.3805 41.3645L13.2865 42.4586C12.1882 43.5568 12.1882 45.3372 13.2865 46.4354L17.2634 50.4123C17.8132 50.9622 18.5318 51.2364 19.2518 51.2364H24.8768C25.5968 51.2364 26.3168 50.9622 26.8652 50.4123L27.9593 49.3182C28.0155 49.262 28.0774 49.2198 28.1351 49.1664C28.9746 49.9103 29.5371 50.9875 29.5371 52.3023V53.8506C29.5371 55.4045 30.7957 56.6631 32.3496 56.6631H43.5996C45.1535 56.6631 46.4121 55.4045 46.4121 53.8506V52.3023C46.4121 50.9875 46.9746 49.9089 47.8127 49.1678C47.8704 49.2198 47.9323 49.2634 47.9885 49.3196L49.0826 50.4137C49.6324 50.9636 50.351 51.2378 51.071 51.2378H56.696C57.416 51.2378 58.136 50.9636 58.6845 50.4137L62.6613 46.4368C63.7596 45.3386 63.7596 43.5582 62.6613 42.46L61.5673 41.3659C58.9109 38.7067 60.7938 34.1631 64.5513 34.1631H66.0996C67.6535 34.1631 68.9121 32.9045 68.9121 31.3506V25.7256C68.9121 24.1717 67.6535 22.9131 66.0996 22.9131ZM26.7246 28.5381C26.7246 21.7346 31.5565 16.0604 37.9746 14.7582C44.3927 16.0618 49.2246 21.7346 49.2246 28.5381C49.2246 35.3415 44.3927 41.0157 37.9746 42.3179C31.5565 41.0157 26.7246 35.3415 26.7246 28.5381Z" fill="#5C76B2"/>
<path d="M60.4746 22.9131H58.9263C55.1674 22.9131 53.2859 18.3695 55.9437 15.7117L57.0377 14.6176C58.136 13.5193 58.136 11.739 57.0377 10.6407L53.0609 6.66387C51.9626 5.56559 50.1823 5.56559 49.084 6.66387L47.9899 7.75793C45.3307 10.4143 40.7871 8.53137 40.7871 4.77246V3.22559C40.7871 1.67168 39.5285 0.413086 37.9746 0.413086H32.3496C30.7957 0.413086 29.5371 1.67168 29.5371 3.22559V4.77246C29.5371 8.53137 24.9935 10.4129 22.3357 7.75512L21.2402 6.66246C20.142 5.56418 18.3616 5.56418 17.2634 6.66246L13.2865 10.6393C12.1882 11.7376 12.1882 13.5179 13.2865 14.6162L14.3805 15.7103C17.0384 18.3695 15.1554 22.9131 11.3979 22.9131H9.84961C8.2957 22.9131 7.03711 24.1717 7.03711 25.7256V31.3506C7.03711 32.9045 8.2957 34.1631 9.84961 34.1631H11.3979C15.1568 34.1631 17.0384 38.7067 14.3805 41.3645L13.2865 42.4586C12.1882 43.5568 12.1882 45.3372 13.2865 46.4354L17.2634 50.4123C18.3616 51.5106 20.142 51.5106 21.2402 50.4123L22.3343 49.3182C24.9921 46.6604 29.5357 48.5434 29.5357 52.3009V53.8506C29.5357 55.4045 30.7943 56.6631 32.3482 56.6631H37.9732C39.5271 56.6631 40.7857 55.4045 40.7857 53.8506V52.3023C40.7857 48.5434 45.3293 46.6618 47.9871 49.3196L49.0812 50.4137C50.1795 51.512 51.9598 51.512 53.058 50.4137L57.0349 46.4368C58.1332 45.3386 58.1332 43.5582 57.0349 42.46L55.9409 41.3659C53.2859 38.7067 55.1688 34.1631 58.9263 34.1631H60.4746C62.0285 34.1631 63.2871 32.9045 63.2871 31.3506V25.7256C63.2871 24.1717 62.0285 22.9131 60.4746 22.9131ZM35.1621 42.6006C27.3954 42.6006 21.0996 36.3048 21.0996 28.5381C21.0996 20.7714 27.3954 14.4756 35.1621 14.4756C42.9288 14.4756 49.2246 20.7714 49.2246 28.5381C49.2246 36.3048 42.9288 42.6006 35.1621 42.6006Z" fill="#6FA4D8"/>
<path d="M70.3184 67.21H69.836C67.3301 67.21 66.0757 64.1809 67.8476 62.409L68.1893 62.0673C68.7391 61.5175 68.7391 60.6273 68.1893 60.0789L66.2009 58.0904C65.9266 57.8162 65.5666 57.6784 65.2066 57.6784H59.5816C59.5071 57.6784 59.4312 57.6882 59.358 57.6995C59.1738 57.3311 59.0684 56.9092 59.0684 56.4423V55.96C59.0684 55.1837 58.4384 54.5537 57.6621 54.5537H49.2246C48.4484 54.5537 47.8184 55.1837 47.8184 55.96V56.4423C47.8184 56.9092 47.7129 57.3311 47.5301 57.6995C47.4555 57.6882 47.381 57.6784 47.3065 57.6784H41.6815C41.3215 57.6784 40.9615 57.8162 40.6873 58.0904L38.6988 60.0789C38.149 60.6287 38.149 61.5189 38.6988 62.0673L39.0405 62.409C40.8124 64.1809 39.558 67.21 37.0521 67.21H36.5684C35.7921 67.21 35.1621 67.84 35.1621 68.6162V71.4287C35.1621 72.205 35.7921 72.835 36.5684 72.835H37.0507C39.5566 72.835 40.811 75.864 39.0391 77.6359L38.6974 77.9776C38.1476 78.5275 38.1476 79.4176 38.6974 79.9661L40.6859 81.9545C40.9601 82.2287 41.3201 82.3665 41.6801 82.3665H47.3051C47.3796 82.3665 47.4555 82.3567 47.5287 82.3454C47.7129 82.7139 47.8184 83.1357 47.8184 83.6026V84.085C47.8184 84.8612 48.4484 85.4912 49.2246 85.4912H57.6621C58.4384 85.4912 59.0684 84.8612 59.0684 84.085V83.6026C59.0684 83.1357 59.1738 82.7139 59.3566 82.3454C59.4312 82.3567 59.5057 82.3665 59.5802 82.3665H65.2052C65.5652 82.3665 65.9252 82.2287 66.1995 81.9545L68.1879 79.9661C68.7377 79.4162 68.7377 78.5261 68.1879 77.9776L67.8462 77.6359C66.0743 75.864 67.3287 72.835 69.8346 72.835H70.3184C71.0946 72.835 71.7246 72.205 71.7246 71.4287V68.6162C71.7246 67.84 71.0946 67.21 70.3184 67.21ZM53.4434 77.2211C50.5648 76.0946 48.5215 73.3004 48.5215 70.0225C48.5215 66.7445 50.5648 63.9489 53.4434 62.8239C56.322 63.9503 58.3652 66.7445 58.3652 70.0225C58.3652 73.3004 56.322 76.0961 53.4434 77.2211Z" fill="#F68820"/>
<path d="M64.6934 67.21H64.211C61.7051 67.21 60.4507 64.1809 62.2226 62.409L62.5643 62.0673C63.1141 61.5175 63.1141 60.6273 62.5643 60.0789L60.5759 58.0904C60.026 57.5406 59.1359 57.5406 58.5874 58.0904L58.2457 58.4321C56.4724 60.2026 53.4434 58.9482 53.4434 56.4423V55.96C53.4434 55.1837 52.8134 54.5537 52.0371 54.5537H49.2246C48.4484 54.5537 47.8184 55.1837 47.8184 55.96V56.4423C47.8184 58.9482 44.7893 60.2026 43.0174 58.4307L42.6757 58.089C42.1259 57.5392 41.2357 57.5392 40.6873 58.089L38.6988 60.0775C38.149 60.6273 38.149 61.5175 38.6988 62.0659L39.0405 62.4076C40.8124 64.1795 39.558 67.2086 37.0521 67.2086H36.5684C35.7921 67.2086 35.1621 67.8386 35.1621 68.6148V71.4273C35.1621 72.2036 35.7921 72.8336 36.5684 72.8336H37.0507C39.5566 72.8336 40.811 75.8626 39.0391 77.6345L38.6974 77.9762C38.1476 78.5261 38.1476 79.4162 38.6974 79.9646L40.6859 81.9531C41.2357 82.5029 42.1259 82.5029 42.6743 81.9531L43.016 81.6114C44.7879 79.8395 47.817 81.0939 47.817 83.5998V84.085C47.817 84.8612 48.447 85.4912 49.2232 85.4912H52.0357C52.812 85.4912 53.442 84.8612 53.442 84.085V83.6026C53.442 81.0967 56.471 79.8423 58.2429 81.6142L58.5846 81.9559C59.1345 82.5057 60.0246 82.5057 60.573 81.9559L62.5615 79.9675C63.1113 79.4176 63.1113 78.5275 62.5615 77.979L62.2198 77.6373C60.4479 75.8654 61.7023 72.8364 64.2082 72.8364H64.6934C65.4696 72.8364 66.0996 72.2064 66.0996 71.4301V68.6176C66.0996 67.84 65.4696 67.21 64.6934 67.21ZM50.6309 77.7568C46.3587 77.7568 42.8965 74.2946 42.8965 70.0225C42.8965 65.7503 46.3587 62.2881 50.6309 62.2881C54.903 62.2881 58.3652 65.7503 58.3652 70.0225C58.3652 74.2946 54.903 77.7568 50.6309 77.7568Z" fill="#FBBE18"/>
<path d="M23.9121 28.5381H18.2871C8.96789 28.5381 1.41211 36.0939 1.41211 45.4131C1.41211 54.7323 8.96789 62.2881 18.2871 62.2881H23.9121C33.2313 62.2881 40.7871 54.7323 40.7871 45.4131C40.7871 36.0939 33.2313 28.5381 23.9121 28.5381Z" fill="#353744"/>
<path d="M18.2871 87.6006H23.9121V65.1006H18.2871C17.5109 65.1006 16.8809 65.7306 16.8809 66.5068V86.1943C16.8809 86.9706 17.5109 87.6006 18.2871 87.6006Z" fill="#55525B"/>
<path d="M21.0996 87.6006H23.9121C24.6884 87.6006 25.3184 86.9706 25.3184 86.1943V66.5068C25.3184 65.7306 24.6884 65.1006 23.9121 65.1006H21.0996V87.6006Z" fill="#353744"/>
<path d="M18.2871 62.2881C27.6069 62.2881 35.1621 54.7329 35.1621 45.4131C35.1621 36.0933 27.6069 28.5381 18.2871 28.5381C8.9673 28.5381 1.41211 36.0933 1.41211 45.4131C1.41211 54.7329 8.9673 62.2881 18.2871 62.2881Z" fill="#55525B"/>
<path d="M18.2871 56.6631C24.5003 56.6631 29.5371 51.6263 29.5371 45.4131C29.5371 39.1999 24.5003 34.1631 18.2871 34.1631C12.0739 34.1631 7.03711 39.1999 7.03711 45.4131C7.03711 51.6263 12.0739 56.6631 18.2871 56.6631Z" fill="#DBDEE3"/>
<path d="M18.2871 62.2881H23.9121V65.1006H18.2871V62.2881Z" fill="#DBDEE3"/>
<path d="M21.0996 62.2881H23.9121V65.1006H21.0996V62.2881Z" fill="#B3B4B6"/>
<path d="M18.2871 62.2881H21.0996V63.6943H18.2871V62.2881Z" fill="#B3B4B6"/>
<path d="M21.0996 90.4131C19.5457 90.4131 18.2871 89.1545 18.2871 87.6006H23.9121C23.9121 89.1545 22.6535 90.4131 21.0996 90.4131Z" fill="#DBDEE3"/>
<path d="M21.0996 90.4131V87.6006H23.9121C23.9121 89.1545 22.6535 90.4131 21.0996 90.4131Z" fill="#B3B4B6"/>
<path d="M87.1934 45.4134H87.0921C84.9265 45.4134 83.5737 43.0691 84.6565 41.1946L84.7071 41.1074C85.0952 40.4352 84.8646 39.5746 84.1924 39.1865L81.7568 37.7802C81.5346 37.6523 81.2941 37.5974 81.0551 37.5974V37.5918H78.2426V37.5974C77.756 37.5974 77.2835 37.8435 77.0234 38.2949L76.9727 38.3821C76.7098 38.8377 76.3512 39.1795 75.9434 39.4129C75.5355 39.178 75.177 38.8363 74.914 38.3821L74.8634 38.2949C74.6032 37.8435 74.1307 37.5974 73.6441 37.5974V37.5918H70.8316V37.5974C70.5926 37.5974 70.3507 37.6523 70.1299 37.7802L67.6943 39.1865C67.0221 39.5746 66.7915 40.4352 67.1796 41.1074L67.2302 41.1946C68.313 43.0691 66.9602 45.4134 64.7946 45.4134H64.6934C63.9171 45.4134 63.2871 46.0434 63.2871 46.8196V49.6321C63.2871 50.4084 63.9171 51.0384 64.6934 51.0384H64.7946C66.9602 51.0384 68.313 53.3826 67.2302 55.2571L67.1796 55.3443C66.7915 56.0165 67.0221 56.8771 67.6943 57.2652L70.1299 58.6715C70.3521 58.7995 70.5926 58.8543 70.8316 58.8543V58.8599H73.6441V58.8543C74.1307 58.8543 74.6032 58.6082 74.8634 58.1568L74.914 58.0696C75.177 57.614 75.5355 57.2723 75.9434 57.0388C76.3512 57.2737 76.7098 57.6154 76.9727 58.0696L77.0234 58.1568C77.2835 58.6082 77.756 58.8543 78.2426 58.8543V58.8599H81.0551V58.8543C81.2941 58.8543 81.536 58.7995 81.7568 58.6715L84.1924 57.2652C84.8646 56.8771 85.0952 56.0165 84.7071 55.3443L84.6565 55.2571C83.5737 53.3826 84.9265 51.0384 87.0921 51.0384H87.1934C87.9696 51.0384 88.5996 50.4084 88.5996 49.6321V46.8196C88.5996 46.0434 87.9696 45.4134 87.1934 45.4134ZM73.1309 48.2259C73.1309 46.3893 74.3065 44.8326 75.9434 44.2518C77.5802 44.8312 78.7559 46.3893 78.7559 48.2259C78.7559 50.0624 77.5802 51.6191 75.9434 52.1999C74.3065 51.6191 73.1309 50.0624 73.1309 48.2259Z" fill="#5C76B2"/>
<path d="M84.3809 45.4134H84.2796C82.114 45.4134 80.7612 43.0692 81.844 41.1946L81.8946 41.1074C82.2827 40.4353 82.0521 39.5746 81.3799 39.1865L78.9443 37.7803C78.2721 37.3921 77.4115 37.6228 77.0234 38.295L76.9727 38.3821C75.8899 40.2567 73.1843 40.2567 72.1015 38.3821L72.0509 38.295C71.6627 37.6228 70.8021 37.3921 70.1299 37.7803L67.6943 39.1865C67.0221 39.5746 66.7915 40.4353 67.1796 41.1074L67.2302 41.1946C68.313 43.0692 66.9602 45.4134 64.7946 45.4134H64.6934C63.9171 45.4134 63.2871 46.0434 63.2871 46.8196V49.6321C63.2871 50.4084 63.9171 51.0384 64.6934 51.0384H64.7946C66.9602 51.0384 68.313 53.3826 67.2302 55.2571L67.1796 55.3443C66.7915 56.0165 67.0221 56.8771 67.6943 57.2653L70.1299 58.6715C70.8021 59.0596 71.6627 58.829 72.0509 58.1568L72.1015 58.0696C73.1843 56.1951 75.8899 56.1951 76.9727 58.0696L77.0234 58.1568C77.4115 58.829 78.2721 59.0596 78.9443 58.6715L81.3799 57.2653C82.0521 56.8771 82.2827 56.0165 81.8946 55.3443L81.844 55.2571C80.7612 53.3826 82.114 51.0384 84.2796 51.0384H84.3809C85.1571 51.0384 85.7871 50.4084 85.7871 49.6321V46.8196C85.7871 46.0434 85.1571 45.4134 84.3809 45.4134ZM74.5371 52.4446C72.207 52.4446 70.3184 50.556 70.3184 48.2259C70.3184 45.8957 72.207 44.0071 74.5371 44.0071C76.8673 44.0071 78.7559 45.8957 78.7559 48.2259C78.7559 50.556 76.8673 52.4446 74.5371 52.4446Z" fill="#6FA4D8"/>
<path d="M29.5371 45.4131C29.5371 39.2003 24.4999 34.1631 18.2871 34.1631C16.2354 34.1631 14.3187 34.7214 12.6621 35.6804V36.9756C12.6621 38.5295 13.9207 39.7881 15.4746 39.7881H17.0229C20.7818 39.7881 22.6634 44.3317 20.0055 46.9895L18.9115 48.0836C17.8132 49.1818 17.8132 50.9621 18.9115 52.0604L22.6395 55.7884C26.6909 54.0882 29.5371 50.0832 29.5371 45.4131Z" fill="#6FA4D8"/>
<path d="M14.0684 44.0068C15.6217 44.0068 16.8809 42.7476 16.8809 41.1943C16.8809 39.641 15.6217 38.3818 14.0684 38.3818C12.5151 38.3818 11.2559 39.641 11.2559 41.1943C11.2559 42.7476 12.5151 44.0068 14.0684 44.0068Z" fill="white"/>
</g>
<defs>
<clipPath id="clip0">
<rect width="90" height="90" fill="white" transform="translate(0.00585938 0.413086)"/>
</clipPath>
</defs>
</svg>
