<svg width="91" height="91" viewBox="0 0 91 91" fill="none" xmlns="http://www.w3.org/2000/svg">
<g clip-path="url(#clip0)">
<path d="M75.2152 33.6392L45.0323 7.40625L14.5513 33.8735L13.5879 36.4279V89.0956H76.4768V36.4279L75.2152 33.6392Z" fill="#90D8F9"/>
<path d="M20.7318 43.6287C20.7318 40.1828 22.2576 37.021 24.7206 34.8824L50.6953 12.3281L45.0325 7.40625L14.5513 33.8735L13.5879 36.4281V89.0956H20.7318V43.6287Z" fill="#75CEF9"/>
<path d="M53.2152 62.0881C52.9501 61.9855 52.6978 61.8879 52.4605 61.7958C50.9048 64.1833 48.2155 65.7678 45.1596 65.7678C41.7668 65.7678 39.0996 64.1225 37.5845 61.7705L27.2375 65.8117C25.1945 66.6525 22.459 69.2979 22.459 73.2233V78.8202H30.4843V89.0963H48.2468H54.0577L56.6214 87.2075V64.2393L53.2152 62.0881Z" fill="#DD636E"/>
<path d="M26.5596 71.0297C26.5596 68.5632 27.6751 66.5834 28.8475 65.1826L27.2375 65.8113C25.1945 66.6521 22.459 69.2974 22.459 73.2229V78.8198H26.5596C26.5596 75.612 26.5596 72.6899 26.5596 71.0297Z" fill="#DA4A54"/>
<path d="M75.9028 6.07422H68.393L67.6426 6.66183V20.5415L67.9978 21.6647L75.8589 28.6914L76.4765 28.2624V6.66183L75.9028 6.07422Z" fill="#FFE07D"/>
<path d="M72.0596 6.07422H68.393L67.6426 6.66183V20.5415L67.9978 21.6647L72.0596 25.2952V6.07422Z" fill="#FFC250"/>
<path d="M78.1434 1.79004H65.9763C65.3908 1.79004 64.916 2.26469 64.916 2.85037V5.60255C64.916 6.18805 65.3907 6.66288 65.9763 6.66288H78.1434C78.7289 6.66288 79.2037 6.18822 79.2037 5.60255V2.85019C79.2037 2.26469 78.7291 1.79004 78.1434 1.79004Z" fill="#FFF0AF"/>
<path d="M71.24 5.60157V2.84939C71.24 2.26389 71.7147 1.78906 72.3002 1.78906H65.9762C65.3907 1.78906 64.916 2.26372 64.916 2.84939V5.60157C64.916 6.18707 65.3907 6.6619 65.9762 6.6619H72.3002C71.7149 6.6619 71.24 6.18707 71.24 5.60157Z" fill="#FFE07D"/>
<path d="M83.8041 34.6665L47.0563 2.54945C45.8976 1.5369 44.1688 1.5369 43.0101 2.54945L6.26212 34.6665C4.98379 35.7838 4.85309 37.726 5.97051 39.0043C7.08793 40.2828 9.03011 40.4131 10.3083 39.2961L44.5469 9.37202C44.8253 9.12854 45.2409 9.12854 45.5196 9.37202L79.7582 39.2959C81.0367 40.413 82.9785 40.2828 84.0959 39.0041C85.2132 37.726 85.0826 35.7838 83.8041 34.6665Z" fill="#DD636E"/>
<path d="M8.89713 36.4222L45.645 4.30515C46.3853 3.65816 47.3581 3.42663 48.2667 3.60652L47.0561 2.54847C45.8974 1.53593 44.1685 1.53593 43.01 2.54847L6.26212 34.6656C4.98379 35.7828 4.85309 37.725 5.97051 39.0033C6.54424 39.6596 7.33527 40.0111 8.14229 40.0487C7.56979 38.8377 7.83838 37.3476 8.89713 36.4222Z" fill="#DA4A54"/>
<path d="M22.459 78.6436H30.66V89.0952H22.459V78.6436Z" fill="#FFCEBE"/>
<path d="M26.5596 78.6436H22.459V89.0952H26.5596C26.5596 86.1284 26.5596 82.1984 26.5596 78.6436Z" fill="#FFB1A0"/>
<path d="M49.9186 60.2078L49.9175 57.056C48.5276 57.8903 46.9025 58.3712 45.1669 58.3712C43.2518 58.3712 41.555 57.8766 40.1422 57.04V60.2026C40.1422 60.5666 39.9672 60.7811 39.7657 60.9177L37.4941 61.805C38.9926 64.232 41.6989 65.9429 45.159 65.9429C48.275 65.9429 51.0128 64.2977 52.5532 61.8314C51.426 61.3948 50.6276 61.0855 50.4832 61.0296C50.1445 60.8986 49.9194 60.5727 49.9186 60.2078Z" fill="#FFCEBE"/>
<path d="M45.0329 58.3691C43.1728 58.3465 41.5218 57.8569 40.1422 57.04V60.2026C40.1422 60.5666 39.9672 60.7811 39.7657 60.9177L37.4941 61.805C38.9741 64.2023 41.6334 65.8998 45.0331 65.9409V58.3691H45.0329Z" fill="#FFB1A0"/>
<path d="M79.2612 60.6934H55.8646C54.0884 60.6934 52.6484 62.1333 52.6484 63.9095V80.7846C52.6484 82.561 54.0884 84.0007 55.8646 84.0007L56.3717 84.5725H78.7447L79.2613 84.0007C81.0375 84.0007 82.4774 82.5608 82.4774 80.7846V63.9095C82.4773 62.1333 81.0375 60.6934 79.2612 60.6934Z" fill="#D3EFFB"/>
<path d="M61.5637 80.7846V63.9095C61.5637 62.1333 63.0037 60.6934 64.7799 60.6934H55.8646C54.0884 60.6934 52.6484 62.1333 52.6484 63.9095V80.7846C52.6484 82.561 54.0884 84.0007 55.8646 84.0007L56.3717 84.5725H65.287L64.7799 84.0007C63.0037 84.0009 61.5637 82.561 61.5637 80.7846Z" fill="#B1E4F9"/>
<path d="M83.5485 84.001H51.5765C50.8547 84.001 50.2695 84.7374 50.2695 85.6459C50.2695 88.279 51.9656 90.4135 54.0576 90.4135H81.0673C83.1594 90.4135 84.8554 88.279 84.8554 85.6459C84.8554 84.7374 84.2703 84.001 83.5485 84.001Z" fill="#E4F6FF"/>
<path d="M59.1848 85.6459C59.1848 84.7374 59.77 84.001 60.4918 84.001H51.5765C50.8547 84.001 50.2695 84.7374 50.2695 85.6459C50.2695 88.279 51.9656 90.4135 54.0576 90.4135H62.9729C60.8809 90.4135 59.1848 88.279 59.1848 85.6459Z" fill="#D3EFFB"/>
<path d="M51.3512 40.2314C51.3512 40.061 51.1232 40.0025 51.0429 40.1527C50.007 42.0903 47.9653 43.4092 45.6145 43.4092H35.6387V49.4627C35.6387 54.3023 39.4308 58.7227 45.1667 58.7227C50.2726 58.7227 54.4268 54.5686 54.4268 49.4627V43.4039C52.7264 43.3491 51.3512 41.9447 51.3512 40.2314Z" fill="#FFDECF"/>
<path d="M41.3017 49.4627V43.6627H41.2634V43.4092H35.6387V49.4627C35.6387 54.3023 39.4308 58.7226 45.1667 58.7226C46.1213 58.7226 47.0425 58.5772 47.9097 58.3077C43.8429 57.1021 41.3017 53.4236 41.3017 49.4627Z" fill="#FFCEBE"/>
<path d="M53.3065 32.2913C52.4741 32.3552 51.7101 31.8317 51.5499 31.0124C51.28 29.6324 50.5967 28.2627 47.9276 28.2627H38.6673C35.2687 28.2627 32.5137 31.0179 32.5137 34.4163V41.1699C32.5137 42.6008 33.6738 43.761 35.1048 43.761H45.6148C47.9655 43.761 50.0072 42.4422 51.0432 40.5044C51.1235 40.3542 51.3515 40.4129 51.3515 40.5831C51.3515 42.3308 52.7815 43.7608 54.5292 43.7608C55.4453 43.7608 56.1949 43.0112 56.1949 42.0951V35.0475C56.1949 33.3873 54.7463 32.1804 53.3065 32.2913Z" fill="#B06C6C"/>
<path d="M37.7252 41.1691V34.4155C37.7252 31.0169 40.4804 28.2617 43.879 28.2617H38.6675C35.2688 28.2617 32.5137 31.0169 32.5137 34.4155V41.1691C32.5137 42.6 33.6738 43.7601 35.1048 43.7601H40.3163C38.8853 43.7601 37.7252 42.6 37.7252 41.1691Z" fill="#9D5E5E"/>
<path d="M11.1835 40.2284L12.2793 39.2707V87.7196H9.81996C9.09217 87.7196 8.50246 88.3095 8.50246 89.0371C8.50246 89.7647 9.09217 90.3546 9.81996 90.3546H63.5554C64.2832 90.3546 64.8729 89.7647 64.8729 89.0371C64.8729 88.3095 64.2832 87.7196 63.5554 87.7196C61.5893 87.7196 56.2783 87.7196 54.0656 87.7196C52.7074 87.7196 51.6007 86.6174 51.5951 85.2595C83.7664 85.2595 83.1098 85.2492 83.5461 85.249C83.5461 86.6113 82.4379 87.7196 81.0757 87.7196H69.7039C68.9761 87.7196 68.3864 88.3095 68.3864 89.0371C68.3864 89.7647 68.9761 90.3546 69.7039 90.3546H81.0757C83.8908 90.3546 86.1811 88.0642 86.1811 85.249C86.1811 83.9122 85.1714 82.6245 83.3843 82.6245C83.6521 82.0466 83.8026 81.4036 83.8026 80.7259V63.8508C83.8026 61.351 81.7689 59.3172 79.269 59.3172H77.8032V52.3073C77.8032 51.5797 77.2135 50.9898 76.4857 50.9898C75.7579 50.9898 75.1682 51.5797 75.1682 52.3073V59.3172H55.8722C54.7133 59.3172 53.6551 59.7547 52.8528 60.4727L51.2444 59.8498L51.2441 58.0597C53.968 56.1442 55.7529 52.9798 55.7529 49.4042V44.758C56.7931 44.2914 57.5205 43.2482 57.5205 42.0364V34.9888C57.5205 33.8405 57.0543 32.7763 56.2076 31.9925C55.3814 31.2274 54.2915 30.8364 53.2137 30.9188C53.0563 30.9307 52.882 30.8599 52.8511 30.7006C52.356 28.1696 50.7023 26.8863 47.9359 26.8863H38.6756C34.556 26.8863 31.2045 30.2379 31.2045 34.3575V41.111C31.2045 42.998 32.5487 44.5769 34.3299 44.9407V49.4042C34.3299 52.681 35.9424 56.0273 38.8332 58.055V59.8122L26.7661 64.5252C26.7587 64.5282 26.7513 64.5311 26.7439 64.5341C24.0495 65.6431 21.1495 68.8167 21.1495 73.1641V87.7196H14.9143V36.9677L45.0413 10.6373L75.1682 36.9677V46.1588C75.1682 46.8864 75.7579 47.4763 76.4857 47.4763C77.2135 47.4763 77.8032 46.8864 77.8032 46.1588V39.2707L78.8992 40.2286C80.7228 41.8219 83.5027 41.635 85.0957 39.8118C86.6932 37.9845 86.5072 35.2126 84.6792 33.6151L77.803 27.6055V7.92076H78.1521C79.4631 7.92076 80.5298 6.8541 80.5298 5.54292V2.79092C80.5299 1.47974 79.4633 0.413086 78.1523 0.413086H65.985C64.674 0.413086 63.6074 1.47974 63.6074 2.79092V5.5431C63.6074 6.8541 64.674 7.92093 65.985 7.92093H66.3341V17.5819L47.9313 1.49801C46.2838 0.0582379 43.7988 0.0580624 42.1512 1.49801L5.40316 33.6151C3.57552 35.2123 3.38878 37.9839 4.98665 39.8119C6.58118 41.6364 9.3613 41.821 11.1835 40.2284ZM53.9736 63.8508C53.9736 62.814 54.8177 61.9522 55.8724 61.9522H79.2692C80.316 61.9522 81.1678 62.804 81.1678 63.8508V80.7259C81.1678 81.7727 80.316 82.6245 79.2692 82.6245H55.872C54.8252 82.6245 53.9734 81.7729 53.9734 80.7259V63.8508H53.9736ZM35.1129 42.3846C34.4106 42.3846 33.8393 41.8133 33.8393 41.111V34.3575C33.8393 31.6908 36.0088 29.5213 38.6754 29.5213H47.9357C49.7881 29.5213 50.0782 30.2518 50.2651 31.2063C50.5486 32.6565 51.9032 33.6623 53.4158 33.5461C53.7573 33.5187 54.132 33.6616 54.4173 33.9258C54.5921 34.0878 54.8855 34.4413 54.8855 34.989V42.0366C54.8855 42.8097 52.8462 42.2788 52.6865 40.7084C52.6661 40.5013 52.7095 40.2044 52.4962 39.8139C51.9323 38.7809 50.4422 38.7906 49.8893 39.8246C49.0424 41.4084 47.405 42.3848 45.6229 42.3848C43.8091 42.3846 36.2431 42.3846 35.1129 42.3846ZM36.9648 49.4042V45.0196H45.6229C47.5322 45.0196 49.3804 44.2839 50.7659 42.9681C51.3161 43.8143 52.1431 44.4645 53.1177 44.7896V49.4042C53.1177 53.8017 49.5327 57.3467 45.1751 57.3467C40.2696 57.3467 36.9648 53.537 36.9648 49.4042ZM50.0153 62.1997C50.0608 62.2172 50.387 62.3436 50.4325 62.3611C47.3551 65.4985 42.3458 65.1238 39.6209 62.3334L40.2534 62.0864C40.7335 61.8989 41.468 61.2368 41.468 60.144V59.3865C43.617 60.115 46.2207 60.2292 48.6089 59.4076L48.6092 60.1467V60.153C48.6119 61.0672 49.1645 61.8707 50.0153 62.1997ZM23.7843 73.1641C23.7843 69.8238 26.1437 67.6357 27.7363 66.9752L37.0163 63.3508C40.4244 67.7299 46.994 68.4868 51.3386 65.0811V80.7261C51.3386 81.3818 51.4858 82.041 51.7554 82.6247C49.9621 82.6247 48.96 83.9232 48.96 85.2492C48.96 86.1366 49.2014 87.0113 49.5986 87.7197H31.9853C31.9853 86.2868 31.9853 74.7414 31.9853 73.1135C31.9853 72.3859 31.3956 71.796 30.6678 71.796C29.94 71.796 29.3503 72.3859 29.3503 73.1135V77.2681H23.7843V73.1641ZM23.7843 79.9029H29.3503V87.7196H23.7843V79.9029ZM66.2424 5.28575V3.0481H77.8949V5.28575C76.5087 5.28575 67.5847 5.28575 66.2424 5.28575ZM75.1682 7.92076V25.3025L68.9693 19.8848V7.92076H75.1682ZM7.13717 35.5991L43.885 3.48217C44.5441 2.90616 45.538 2.90616 46.1972 3.48217C47.8344 4.91298 81.3496 34.2046 82.945 35.5993C83.6761 36.2385 83.7506 37.3468 83.1115 38.0779C82.4744 38.8069 81.3621 38.8821 80.6329 38.2446C79.1913 36.9847 47.8402 9.58433 46.3946 8.32075C45.6239 7.64707 44.46 7.64549 43.6879 8.32075L9.44948 38.2444C8.72011 38.8821 7.60813 38.8069 6.97064 38.0777C6.33279 37.3477 6.40481 36.2394 7.13717 35.5991Z" fill="black"/>
<path d="M66.63 73.6057H68.5123C69.2401 73.6057 69.8298 73.0158 69.8298 72.2882C69.8298 71.5606 69.2401 70.9707 68.5123 70.9707H66.63C65.9022 70.9707 65.3125 71.5606 65.3125 72.2882C65.3125 73.0158 65.9024 73.6057 66.63 73.6057Z" fill="black"/>
</g>
<defs>
<clipPath id="clip0">
<rect width="90" height="90" fill="white" transform="translate(0.0410156 0.413086)"/>
</clipPath>
</defs>
</svg>
