<svg width="630" height="469" viewBox="0 0 630 469" fill="none" xmlns="http://www.w3.org/2000/svg">
<rect width="630" height="469" rx="20" fill="url(#paint0_linear)"/>
<mask id="path-2-inside-1" fill="white">
<ellipse cx="102.219" cy="238.368" rx="5.52773" ry="7.68033"/>
</mask>
<path d="M95.7469 238.368C95.7469 238.256 95.7618 237.659 96.3882 236.789C97.0015 235.936 98.905 234.048 102.219 234.048V258.048C108.586 258.048 113.253 254.441 115.868 250.809C118.495 247.158 119.747 242.722 119.747 238.368H95.7469ZM102.219 234.048C105.533 234.048 107.437 235.936 108.05 236.789C108.677 237.659 108.691 238.256 108.691 238.368H84.6914C84.6914 242.722 85.9437 247.158 88.5708 250.809C91.1848 254.441 95.8521 258.048 102.219 258.048V234.048ZM108.691 238.368C108.691 238.48 108.677 239.077 108.05 239.947C107.437 240.799 105.533 242.688 102.219 242.688V218.688C95.8521 218.688 91.1848 222.295 88.5708 225.927C85.9437 229.577 84.6914 234.014 84.6914 238.368H108.691ZM102.219 242.688C98.905 242.688 97.0015 240.799 96.3882 239.947C95.7618 239.077 95.7469 238.48 95.7469 238.368H119.747C119.747 234.014 118.495 229.577 115.868 225.927C113.253 222.295 108.586 218.688 102.219 218.688V242.688Z" fill="#3F788E" mask="url(#path-2-inside-1)"/>
<circle r="2.86689" transform="matrix(-1 0 0 1 79.5472 139.433)" fill="white" fill-opacity="0.2"/>
<circle r="2.86689" transform="matrix(-1 0 0 1 79.5472 160.902)" fill="white" fill-opacity="0.2"/>
<circle r="2.86689" transform="matrix(-1 0 0 1 79.5472 182.367)" fill="white" fill-opacity="0.2"/>
<circle r="2.86689" transform="matrix(-1 0 0 1 79.5472 203.836)" fill="white" fill-opacity="0.2"/>
<circle r="2.86689" transform="matrix(-1 0 0 1 79.5472 150.168)" fill="white" fill-opacity="0.2"/>
<circle r="2.86689" transform="matrix(-1 0 0 1 79.5472 171.636)" fill="white" fill-opacity="0.2"/>
<circle r="2.86689" transform="matrix(-1 0 0 1 79.5472 193.101)" fill="white" fill-opacity="0.2"/>
<circle r="2.86689" transform="matrix(-1 0 0 1 79.5472 214.57)" fill="white" fill-opacity="0.2"/>
<circle r="2.86689" transform="matrix(-1 0 0 1 36.6097 139.433)" fill="white" fill-opacity="0.2"/>
<circle r="2.86689" transform="matrix(-1 0 0 1 36.6097 160.902)" fill="white" fill-opacity="0.2"/>
<circle r="2.86689" transform="matrix(-1 0 0 1 36.6097 182.367)" fill="white" fill-opacity="0.2"/>
<circle r="2.86689" transform="matrix(-1 0 0 1 36.6097 203.836)" fill="white" fill-opacity="0.2"/>
<circle r="2.86689" transform="matrix(-1 0 0 1 36.6097 150.168)" fill="white" fill-opacity="0.2"/>
<circle r="2.86689" transform="matrix(-1 0 0 1 36.6097 171.633)" fill="white" fill-opacity="0.2"/>
<circle r="2.86689" transform="matrix(-1 0 0 1 36.6097 193.101)" fill="white" fill-opacity="0.2"/>
<circle r="2.86689" transform="matrix(-1 0 0 1 36.6097 214.57)" fill="white" fill-opacity="0.2"/>
<circle r="2.86689" transform="matrix(-1 0 0 1 101.016 139.433)" fill="white" fill-opacity="0.2"/>
<circle r="2.86689" transform="matrix(-1 0 0 1 101.016 160.902)" fill="white" fill-opacity="0.2"/>
<circle r="2.86689" transform="matrix(-1 0 0 1 101.016 182.367)" fill="white" fill-opacity="0.2"/>
<circle r="2.86689" transform="matrix(-1 0 0 1 101.016 203.836)" fill="white" fill-opacity="0.2"/>
<circle r="2.86689" transform="matrix(-1 0 0 1 101.016 150.168)" fill="white" fill-opacity="0.2"/>
<circle r="2.86689" transform="matrix(-1 0 0 1 101.016 171.633)" fill="white" fill-opacity="0.2"/>
<circle r="2.86689" transform="matrix(-1 0 0 1 101.016 193.101)" fill="white" fill-opacity="0.2"/>
<circle r="2.86689" transform="matrix(-1 0 0 1 101.016 214.57)" fill="white" fill-opacity="0.2"/>
<circle r="2.86689" transform="matrix(-1 0 0 1 58.0784 139.433)" fill="white" fill-opacity="0.2"/>
<circle r="2.86689" transform="matrix(-1 0 0 1 58.0784 160.902)" fill="white" fill-opacity="0.2"/>
<circle r="2.86689" transform="matrix(-1 0 0 1 58.0784 182.367)" fill="white" fill-opacity="0.2"/>
<circle r="2.86689" transform="matrix(-1 0 0 1 58.0784 203.836)" fill="white" fill-opacity="0.2"/>
<circle r="2.86689" transform="matrix(-1 0 0 1 58.0784 150.168)" fill="white" fill-opacity="0.2"/>
<circle r="2.86689" transform="matrix(-1 0 0 1 58.0784 171.636)" fill="white" fill-opacity="0.2"/>
<circle r="2.86689" transform="matrix(-1 0 0 1 58.0784 193.101)" fill="white" fill-opacity="0.2"/>
<circle r="2.86689" transform="matrix(-1 0 0 1 58.0784 214.57)" fill="white" fill-opacity="0.2"/>
<circle r="2.86689" transform="matrix(-1 0 0 1 15.1448 139.433)" fill="white" fill-opacity="0.2"/>
<circle r="2.86689" transform="matrix(-1 0 0 1 15.1448 160.902)" fill="white" fill-opacity="0.2"/>
<circle r="2.86689" transform="matrix(-1 0 0 1 15.1448 182.367)" fill="white" fill-opacity="0.2"/>
<circle r="2.86689" transform="matrix(-1 0 0 1 15.1448 203.836)" fill="white" fill-opacity="0.2"/>
<circle r="2.86689" transform="matrix(-1 0 0 1 15.1448 150.168)" fill="white" fill-opacity="0.2"/>
<circle r="2.86689" transform="matrix(-1 0 0 1 15.1448 171.633)" fill="white" fill-opacity="0.2"/>
<circle r="2.86689" transform="matrix(-1 0 0 1 15.1448 193.101)" fill="white" fill-opacity="0.2"/>
<circle r="2.86689" transform="matrix(-1 0 0 1 15.1448 214.57)" fill="white" fill-opacity="0.2"/>
<circle r="2.86689" transform="matrix(-1 0 0 1 154.684 214.57)" fill="white" fill-opacity="0.2"/>
<circle r="2.86689" transform="matrix(-1 0 0 1 68.8128 139.433)" fill="white" fill-opacity="0.2"/>
<circle r="2.86689" transform="matrix(-1 0 0 1 68.8128 160.902)" fill="white" fill-opacity="0.2"/>
<circle r="2.86689" transform="matrix(-1 0 0 1 68.8128 182.367)" fill="white" fill-opacity="0.2"/>
<circle r="2.86689" transform="matrix(-1 0 0 1 68.8128 203.836)" fill="white" fill-opacity="0.2"/>
<circle r="2.86689" transform="matrix(-1 0 0 1 68.8128 150.168)" fill="white" fill-opacity="0.2"/>
<circle r="2.86689" transform="matrix(-1 0 0 1 68.8128 171.636)" fill="white" fill-opacity="0.2"/>
<circle r="2.86689" transform="matrix(-1 0 0 1 68.8128 193.101)" fill="white" fill-opacity="0.2"/>
<circle r="2.86689" transform="matrix(-1 0 0 1 68.8128 214.57)" fill="white" fill-opacity="0.2"/>
<circle r="2.86689" transform="matrix(-1 0 0 1 25.8792 139.433)" fill="white" fill-opacity="0.2"/>
<circle r="2.86689" transform="matrix(-1 0 0 1 25.8792 160.902)" fill="white" fill-opacity="0.2"/>
<circle r="2.86689" transform="matrix(-1 0 0 1 25.8792 182.367)" fill="white" fill-opacity="0.2"/>
<circle r="2.86689" transform="matrix(-1 0 0 1 25.8792 203.836)" fill="white" fill-opacity="0.2"/>
<circle r="2.86689" transform="matrix(-1 0 0 1 25.8792 150.168)" fill="white" fill-opacity="0.2"/>
<circle r="2.86689" transform="matrix(-1 0 0 1 25.8792 171.633)" fill="white" fill-opacity="0.2"/>
<circle r="2.86689" transform="matrix(-1 0 0 1 25.8792 193.101)" fill="white" fill-opacity="0.2"/>
<circle r="2.86689" transform="matrix(-1 0 0 1 25.8792 214.57)" fill="white" fill-opacity="0.2"/>
<circle r="2.86689" transform="matrix(-1 0 0 1 90.2815 139.433)" fill="white" fill-opacity="0.2"/>
<circle r="2.86689" transform="matrix(-1 0 0 1 90.2815 160.902)" fill="white" fill-opacity="0.2"/>
<circle r="2.86689" transform="matrix(-1 0 0 1 90.2815 182.367)" fill="white" fill-opacity="0.2"/>
<circle r="2.86689" transform="matrix(-1 0 0 1 90.2815 203.836)" fill="white" fill-opacity="0.2"/>
<circle r="2.86689" transform="matrix(-1 0 0 1 90.2815 150.168)" fill="white" fill-opacity="0.2"/>
<circle r="2.86689" transform="matrix(-1 0 0 1 90.2815 171.636)" fill="white" fill-opacity="0.2"/>
<circle r="2.86689" transform="matrix(-1 0 0 1 90.2815 193.101)" fill="white" fill-opacity="0.2"/>
<circle r="2.86689" transform="matrix(-1 0 0 1 90.2815 214.57)" fill="white" fill-opacity="0.2"/>
<circle r="2.86689" transform="matrix(-1 0 0 1 47.344 139.433)" fill="white" fill-opacity="0.2"/>
<circle r="2.86689" transform="matrix(-1 0 0 1 47.344 160.902)" fill="white" fill-opacity="0.2"/>
<circle r="2.86689" transform="matrix(-1 0 0 1 47.344 182.367)" fill="white" fill-opacity="0.2"/>
<circle r="2.86689" transform="matrix(-1 0 0 1 47.344 203.836)" fill="white" fill-opacity="0.2"/>
<circle r="2.86689" transform="matrix(-1 0 0 1 47.344 150.168)" fill="white" fill-opacity="0.2"/>
<circle r="2.86689" transform="matrix(-1 0 0 1 47.344 171.636)" fill="white" fill-opacity="0.2"/>
<circle r="2.86689" transform="matrix(-1 0 0 1 47.344 193.101)" fill="white" fill-opacity="0.2"/>
<circle r="2.86689" transform="matrix(-1 0 0 1 47.344 214.57)" fill="white" fill-opacity="0.2"/>
<circle r="2.86689" transform="matrix(-1 0 0 1 4.41045 139.433)" fill="white" fill-opacity="0.2"/>
<circle r="2.86689" transform="matrix(-1 0 0 1 4.41045 160.902)" fill="white" fill-opacity="0.2"/>
<circle r="2.86689" transform="matrix(-1 0 0 1 4.41045 182.367)" fill="white" fill-opacity="0.2"/>
<circle r="2.86689" transform="matrix(-1 0 0 1 4.41045 203.836)" fill="white" fill-opacity="0.2"/>
<circle r="2.86689" transform="matrix(-1 0 0 1 4.41045 150.168)" fill="white" fill-opacity="0.2"/>
<circle r="2.86689" transform="matrix(-1 0 0 1 4.41045 171.636)" fill="white" fill-opacity="0.2"/>
<circle r="2.86689" transform="matrix(-1 0 0 1 4.41045 193.101)" fill="white" fill-opacity="0.2"/>
<circle r="2.86689" transform="matrix(-1 0 0 1 4.41045 214.57)" fill="white" fill-opacity="0.2"/>
<circle cx="538.867" cy="193.867" r="2.86689" fill="white" fill-opacity="0.2"/>
<circle cx="538.867" cy="215.336" r="2.86689" fill="white" fill-opacity="0.2"/>
<circle cx="538.867" cy="236.8" r="2.86689" fill="white" fill-opacity="0.2"/>
<circle cx="538.867" cy="258.269" r="2.86689" fill="white" fill-opacity="0.2"/>
<circle cx="538.867" cy="204.601" r="2.86689" fill="white" fill-opacity="0.2"/>
<circle cx="538.867" cy="226.07" r="2.86689" fill="white" fill-opacity="0.2"/>
<circle cx="538.867" cy="247.535" r="2.86689" fill="white" fill-opacity="0.2"/>
<circle cx="538.867" cy="269.004" r="2.86689" fill="white" fill-opacity="0.2"/>
<circle cx="624.738" cy="193.867" r="2.86689" fill="white" fill-opacity="0.2"/>
<circle cx="624.738" cy="215.336" r="2.86689" fill="white" fill-opacity="0.2"/>
<circle cx="624.738" cy="236.8" r="2.86689" fill="white" fill-opacity="0.2"/>
<circle cx="624.738" cy="258.269" r="2.86689" fill="white" fill-opacity="0.2"/>
<circle cx="624.738" cy="204.601" r="2.86689" fill="white" fill-opacity="0.2"/>
<circle cx="624.738" cy="226.07" r="2.86689" fill="white" fill-opacity="0.2"/>
<circle cx="624.738" cy="247.535" r="2.86689" fill="white" fill-opacity="0.2"/>
<circle cx="624.738" cy="269.004" r="2.86689" fill="white" fill-opacity="0.2"/>
<circle cx="581.804" cy="193.867" r="2.86689" fill="white" fill-opacity="0.2"/>
<circle cx="581.804" cy="215.336" r="2.86689" fill="white" fill-opacity="0.2"/>
<circle cx="581.804" cy="236.8" r="2.86689" fill="white" fill-opacity="0.2"/>
<circle cx="581.804" cy="258.269" r="2.86689" fill="white" fill-opacity="0.2"/>
<circle cx="581.804" cy="204.601" r="2.86689" fill="white" fill-opacity="0.2"/>
<circle cx="581.804" cy="226.07" r="2.86689" fill="white" fill-opacity="0.2"/>
<circle cx="581.804" cy="247.535" r="2.86689" fill="white" fill-opacity="0.2"/>
<circle cx="581.804" cy="269.004" r="2.86689" fill="white" fill-opacity="0.2"/>
<circle cx="560.336" cy="193.867" r="2.86689" fill="white" fill-opacity="0.2"/>
<circle cx="560.336" cy="215.336" r="2.86689" fill="white" fill-opacity="0.2"/>
<circle cx="560.336" cy="236.8" r="2.86689" fill="white" fill-opacity="0.2"/>
<circle cx="560.336" cy="258.269" r="2.86689" fill="white" fill-opacity="0.2"/>
<circle cx="560.336" cy="204.601" r="2.86689" fill="white" fill-opacity="0.2"/>
<circle cx="560.336" cy="226.07" r="2.86689" fill="white" fill-opacity="0.2"/>
<circle cx="560.336" cy="247.535" r="2.86689" fill="white" fill-opacity="0.2"/>
<circle cx="560.336" cy="269.004" r="2.86689" fill="white" fill-opacity="0.2"/>
<circle cx="603.269" cy="193.867" r="2.86689" fill="white" fill-opacity="0.2"/>
<circle cx="603.269" cy="215.336" r="2.86689" fill="white" fill-opacity="0.2"/>
<circle cx="603.269" cy="236.8" r="2.86689" fill="white" fill-opacity="0.2"/>
<circle cx="603.269" cy="258.269" r="2.86689" fill="white" fill-opacity="0.2"/>
<circle cx="603.269" cy="204.601" r="2.86689" fill="white" fill-opacity="0.2"/>
<circle cx="603.269" cy="226.07" r="2.86689" fill="white" fill-opacity="0.2"/>
<circle cx="603.269" cy="247.535" r="2.86689" fill="white" fill-opacity="0.2"/>
<circle cx="603.269" cy="269.004" r="2.86689" fill="white" fill-opacity="0.2"/>
<circle cx="549.601" cy="193.867" r="2.86689" fill="white" fill-opacity="0.2"/>
<circle cx="549.601" cy="215.336" r="2.86689" fill="white" fill-opacity="0.2"/>
<circle cx="549.601" cy="236.8" r="2.86689" fill="white" fill-opacity="0.2"/>
<circle cx="549.601" cy="258.269" r="2.86689" fill="white" fill-opacity="0.2"/>
<circle cx="549.601" cy="204.601" r="2.86689" fill="white" fill-opacity="0.2"/>
<circle cx="549.601" cy="226.07" r="2.86689" fill="white" fill-opacity="0.2"/>
<circle cx="549.601" cy="247.535" r="2.86689" fill="white" fill-opacity="0.2"/>
<circle cx="549.601" cy="269.004" r="2.86689" fill="white" fill-opacity="0.2"/>
<circle cx="592.535" cy="193.867" r="2.86689" fill="white" fill-opacity="0.2"/>
<circle cx="592.535" cy="215.336" r="2.86689" fill="white" fill-opacity="0.2"/>
<circle cx="592.535" cy="236.8" r="2.86689" fill="white" fill-opacity="0.2"/>
<circle cx="592.535" cy="258.269" r="2.86689" fill="white" fill-opacity="0.2"/>
<circle cx="592.535" cy="204.601" r="2.86689" fill="white" fill-opacity="0.2"/>
<circle cx="592.535" cy="226.07" r="2.86689" fill="white" fill-opacity="0.2"/>
<circle cx="592.535" cy="247.535" r="2.86689" fill="white" fill-opacity="0.2"/>
<circle cx="592.535" cy="269.004" r="2.86689" fill="white" fill-opacity="0.2"/>
<circle cx="571.07" cy="193.867" r="2.86689" fill="white" fill-opacity="0.2"/>
<circle cx="571.07" cy="215.336" r="2.86689" fill="white" fill-opacity="0.2"/>
<circle cx="571.07" cy="236.8" r="2.86689" fill="white" fill-opacity="0.2"/>
<circle cx="571.07" cy="258.269" r="2.86689" fill="white" fill-opacity="0.2"/>
<circle cx="571.07" cy="204.601" r="2.86689" fill="white" fill-opacity="0.2"/>
<circle cx="571.07" cy="226.07" r="2.86689" fill="white" fill-opacity="0.2"/>
<circle cx="571.07" cy="247.535" r="2.86689" fill="white" fill-opacity="0.2"/>
<circle cx="571.07" cy="269.004" r="2.86689" fill="white" fill-opacity="0.2"/>
<circle cx="614.004" cy="193.867" r="2.86689" fill="white" fill-opacity="0.2"/>
<circle cx="614.004" cy="215.336" r="2.86689" fill="white" fill-opacity="0.2"/>
<circle cx="614.004" cy="236.8" r="2.86689" fill="white" fill-opacity="0.2"/>
<circle cx="614.004" cy="258.269" r="2.86689" fill="white" fill-opacity="0.2"/>
<circle cx="614.004" cy="204.601" r="2.86689" fill="white" fill-opacity="0.2"/>
<circle cx="614.004" cy="226.07" r="2.86689" fill="white" fill-opacity="0.2"/>
<circle cx="614.004" cy="247.535" r="2.86689" fill="white" fill-opacity="0.2"/>
<circle cx="614.004" cy="269.004" r="2.86689" fill="white" fill-opacity="0.2"/>
<path d="M393.612 133H509V379H256L393.612 133Z" fill="white" fill-opacity="0.2"/>
<path d="M508 385H514V379V138C514 131.925 509.075 127 503 127H127C120.925 127 116 131.925 116 138V379V385H122H508Z" stroke="black" stroke-width="12"/>
<rect x="80" y="384" width="470" height="14" rx="2" fill="white"/>
<line x1="149" y1="157.5" x2="482" y2="157.5" stroke="white"/>
<rect x="55" y="53" width="26" height="26" stroke="white" stroke-opacity="0.15" stroke-width="4"/>
<rect x="503" y="30" width="61" height="61" stroke="white" stroke-opacity="0.15" stroke-width="10"/>
<rect x="444" y="415" width="26" height="26" stroke="white" stroke-opacity="0.15" stroke-width="4"/>
<g clip-path="url(#clip0)">
<path d="M121.345 334.059H117.703V346.531C117.703 347.961 116.554 349.119 115.137 349.119H84.8881C83.4708 349.119 82.3222 347.96 82.3222 346.531V335.528H78.6792V346.531C78.6792 347.961 77.5303 349.119 76.1132 349.119H45.8652C44.4479 349.119 43.2992 347.96 43.2992 346.531V333.324H39.6562V348.379C39.6562 350.817 41.6158 352.793 44.033 352.793H76.1132C77.5306 352.793 78.6792 353.951 78.6792 355.38V389.525H82.3219V355.38C82.3219 353.951 83.4708 352.793 84.8879 352.793H116.968C119.386 352.793 121.345 350.817 121.345 348.379V334.059H121.345V334.059Z" fill="#8792F8"/>
<path d="M124.499 381.354V415C121.065 415 121.077 415 117.6 415C113.946 415 111.787 416.594 107.943 415C99.7583 419.276 90.3561 415 80.501 415C63.0663 415 55.5028 415 36.5 415V367.419C36.5 363.919 39.3123 361.086 42.7803 361.086H65.2955C67.8818 361.086 70.2012 362.685 71.146 365.115L72.7246 369.182C73.9436 372.327 76.9503 374.396 80.2992 374.396H117.6C121.41 374.396 124.499 377.511 124.499 381.354Z" fill="#FFD15C"/>
<path d="M58.649 303.177V337.438H26.043V295H50.5423L58.649 303.177Z" fill="#E8DBC4"/>
<path d="M96.8052 303.177V337.438H64.1992V295H88.6986L96.8052 303.177Z" fill="#E8DBC4"/>
<path d="M134.958 303.177V337.438H102.352V295H126.851L134.958 303.177Z" fill="#E8DBC4"/>
<path d="M126.852 303.177V295L134.958 303.177H126.852Z" fill="#F9EED7"/>
<path d="M50.543 303.177V295L58.6496 303.177H50.543Z" fill="#F9EED7"/>
<path d="M88.6992 303.177V295L96.8059 303.177H88.6992Z" fill="#F9EED7"/>
</g>
<circle cx="568" cy="166" r="11.5" stroke="#3F788E" stroke-width="5"/>
<circle cx="245.5" cy="24.5" r="2.5" stroke="#3F788E" stroke-width="2"/>
<circle cx="206" cy="429" r="11.5" stroke="#3F788E" stroke-width="5"/>
<g clip-path="url(#clip1)">
<path d="M128.89 403.318L128.89 396.894L125.666 396.894C125.06 396.894 124.569 397.385 124.569 397.991L124.569 402.221C124.569 402.827 125.06 403.318 125.666 403.318L128.89 403.318Z" fill="#D15241"/>
<path d="M179.812 400.274L179.812 399.934C179.812 399.631 179.566 399.385 179.263 399.385L176.189 399.385L176.189 400.823L179.263 400.823C179.566 400.823 179.812 400.577 179.812 400.274Z" fill="#3A556A"/>
<path d="M169.672 395.312L176.725 399.342L176.725 400.869L169.672 404.899" fill="#27A2DB"/>
<path d="M130.218 404.901L169.669 404.901L169.669 395.314L130.218 395.314C128.894 395.314 127.821 396.171 127.821 397.231L127.821 402.984C127.821 404.044 128.894 404.901 130.218 404.901Z" fill="#E56353"/>
<path d="M132.192 406.526L132.192 395.312L133.989 395.312L133.989 406.526C133.989 407.022 134.393 407.425 134.888 407.425L148.221 407.425C148.717 407.425 149.119 407.827 149.119 408.324C149.119 408.82 148.717 409.222 148.221 409.222L134.888 409.222C133.401 409.222 132.192 408.013 132.192 406.526Z" fill="#F6C358"/>
<path d="M156.871 404.898L155.672 404.898L155.672 395.311L156.871 395.311L156.871 404.898Z" fill="#E1E6E9"/>
<path d="M159.892 404.898H158.693V395.311H159.892V404.898Z" fill="#E1E6E9"/>
<path d="M162.919 404.898L161.721 404.898L161.721 395.311L162.919 395.311L162.919 404.898Z" fill="#E1E6E9"/>
</g>
<path d="M588.068 306.442V370.51C588.068 372.617 586.361 374.324 584.254 374.324H497.814C495.707 374.324 494 372.617 494 370.51V306.442C494 304.336 495.707 302.629 497.814 302.629H584.254C586.361 302.629 588.068 304.336 588.068 306.442Z" fill="#3493F8"/>
<path d="M576.627 330.595H513.068C510.962 330.595 509.254 328.888 509.254 326.782V319.154C509.254 317.048 510.962 315.341 513.068 315.341H576.627C578.733 315.341 580.441 317.048 580.441 319.154V326.782C580.441 328.888 578.733 330.595 576.627 330.595ZM501.627 370.51V306.442C501.627 304.336 503.335 302.629 505.441 302.629H497.814C495.707 302.629 494 304.336 494 306.442V370.51C494 372.617 495.707 374.324 497.814 374.324H505.441C503.335 374.324 501.627 372.617 501.627 370.51Z" fill="#1380E2"/>
<path d="M602.191 332.97V374.673C596.012 385.809 586.661 394.941 575.359 400.851H534.817C532.711 400.851 531.004 399.144 531.004 397.038V332.97C531.004 330.864 532.711 329.156 534.817 329.156H598.377C600.483 329.156 602.191 330.864 602.191 332.97V332.97Z" fill="#E9F3FE"/>
<path d="M536.091 332.97V400.851H511.939C509.832 400.851 508.125 399.144 508.125 397.038V332.97C508.125 330.863 509.832 329.156 511.939 329.156H532.278C534.384 329.156 536.091 330.864 536.091 332.97V332.97Z" fill="#A7D0FC"/>
<path d="M536.092 332.97V400.851H518.931C516.825 400.851 515.117 399.144 515.117 397.038V332.97C515.117 330.863 516.825 329.156 518.931 329.156H532.278C534.384 329.156 536.092 330.864 536.092 332.97V332.97Z" fill="#C8E2FD"/>
<path d="M594.566 345.427V372.856H547.532C545.426 372.856 543.719 371.149 543.719 369.042V345.427C543.719 343.32 545.426 341.613 547.532 341.613H590.753C592.859 341.613 594.566 343.321 594.566 345.427V345.427Z" fill="#C8E2FD"/>
<path d="M602.193 325.087V334.494H508.125V325.087C508.125 322.981 509.832 321.273 511.939 321.273H598.379C600.486 321.273 602.193 322.981 602.193 325.087Z" fill="#86BEFB"/>
<path d="M518.93 321.273C516.824 321.273 515.117 322.981 515.117 325.087V334.494H508.125V325.087C508.125 322.981 509.832 321.273 511.939 321.273H518.93Z" fill="#76B6FA"/>
<path d="M515.88 327.883C515.88 328.936 515.026 329.79 513.973 329.79C512.92 329.79 512.066 328.936 512.066 327.883C512.066 326.83 512.92 325.977 513.973 325.977C515.026 325.977 515.88 326.83 515.88 327.883ZM521.537 326.04C520.484 326.04 519.63 326.894 519.63 327.947C519.63 329 520.484 329.854 521.537 329.854C522.59 329.854 523.444 329 523.444 327.947C523.444 326.894 522.59 326.04 521.537 326.04ZM529.1 326.104C528.047 326.104 527.194 326.957 527.194 328.01C527.194 329.064 528.047 329.917 529.1 329.917C530.153 329.917 531.007 329.064 531.007 328.01C531.007 326.957 530.153 326.104 529.1 326.104Z" fill="#3493F8"/>
<path d="M588.068 298.814V308.22H494V298.814C494 296.707 495.707 295 497.814 295H584.254C586.361 295 588.068 296.707 588.068 298.814Z" fill="#86BEFB"/>
<path d="M505.441 295C503.335 295 501.627 296.707 501.627 298.814V308.22H494V298.814C494 296.707 495.707 295 497.814 295H505.441Z" fill="#76B6FA"/>
<path d="M501.755 301.61C501.755 302.663 500.901 303.517 499.848 303.517C498.795 303.517 497.941 302.663 497.941 301.61C497.941 300.557 498.795 299.703 499.848 299.703C500.901 299.703 501.755 300.557 501.755 301.61ZM507.412 299.767C506.359 299.767 505.505 300.62 505.505 301.673C505.505 302.727 506.359 303.58 507.412 303.58C508.465 303.58 509.319 302.727 509.319 301.673C509.319 300.62 508.465 299.767 507.412 299.767ZM514.975 299.83C513.922 299.83 513.069 300.684 513.069 301.737C513.069 302.79 513.922 303.644 514.975 303.644C516.028 303.644 516.882 302.79 516.882 301.737C516.882 300.684 516.028 299.83 514.975 299.83Z" fill="#3493F8"/>
<path d="M529.594 343.942C529.594 344.995 528.74 345.849 527.687 345.849H513.704C512.651 345.849 511.797 344.995 511.797 343.942C511.797 342.889 512.651 342.035 513.704 342.035H527.687C528.74 342.035 529.594 342.889 529.594 343.942Z" fill="#76B6FA"/>
<path d="M527.687 369.449H513.704C512.651 369.449 511.797 368.595 511.797 367.542C511.797 366.489 512.651 365.635 513.704 365.635H527.687C528.74 365.635 529.594 366.489 529.594 367.542C529.594 368.595 528.74 369.449 527.687 369.449ZM529.594 382.796C529.594 381.743 528.74 380.889 527.687 380.889H513.704C512.651 380.889 511.797 381.743 511.797 382.796C511.797 383.849 512.651 384.703 513.704 384.703H527.687C528.74 384.703 529.594 383.849 529.594 382.796ZM524.509 375.169C524.509 374.116 523.655 373.262 522.602 373.262H513.704C512.651 373.262 511.797 374.116 511.797 375.169C511.797 376.222 512.651 377.076 513.704 377.076H522.602C523.655 377.076 524.509 376.222 524.509 375.169ZM524.509 390.423C524.509 389.37 523.655 388.516 522.602 388.516H513.704C512.651 388.516 511.797 389.37 511.797 390.423C511.797 391.476 512.651 392.33 513.704 392.33H522.602C523.655 392.33 524.509 391.476 524.509 390.423ZM524.509 351.567C524.509 350.514 523.655 349.66 522.602 349.66H513.704C512.651 349.66 511.797 350.514 511.797 351.567C511.797 352.62 512.651 353.474 513.704 353.474H522.602C523.655 353.474 524.509 352.62 524.509 351.567Z" fill="#86BEFB"/>
<path d="M576.11 385.255H549.297C548.244 385.255 547.39 384.401 547.39 383.348C547.39 382.295 548.244 381.441 549.297 381.441H576.11C577.163 381.441 578.016 382.295 578.016 383.348C578.016 384.401 577.163 385.255 576.11 385.255V385.255ZM557.56 347.754C557.56 346.701 556.706 345.848 555.653 345.848H549.297C548.244 345.848 547.39 346.701 547.39 347.754C547.39 348.807 548.244 349.661 549.297 349.661H555.653C556.706 349.661 557.56 348.807 557.56 347.754ZM551.204 354.11C551.204 353.057 550.35 352.204 549.297 352.204C548.244 352.204 547.39 353.057 547.39 354.11C547.39 355.163 548.244 356.017 549.297 356.017C550.35 356.017 551.204 355.163 551.204 354.11ZM578.016 390.424C578.016 389.371 577.163 388.517 576.11 388.517H549.297C548.244 388.517 547.39 389.371 547.39 390.424C547.39 391.477 548.244 392.331 549.297 392.331H576.11C577.163 392.331 578.016 391.477 578.016 390.424ZM582.717 353.76L578.246 350.168C576.813 349.017 575.031 348.39 573.193 348.39C571.305 348.39 569.477 349.052 568.027 350.26L557.261 359.231C555.812 360.44 553.984 361.102 552.096 361.102H543.719V369.043C543.719 371.149 545.426 372.856 547.532 372.856H594.566V354.528L589.082 355.431C586.819 355.804 584.504 355.196 582.717 353.76Z" fill="#A7D0FC"/>
<path d="M607.33 389.273C607.04 391.369 606.493 393.383 605.723 395.282L606.258 395.591C607.936 396.56 608.511 398.705 607.542 400.383C606.573 402.062 604.428 402.636 602.749 401.668L602.21 401.356C600.93 402.995 599.452 404.473 597.813 405.753L598.125 406.292C599.094 407.97 598.519 410.116 596.841 411.085C595.162 412.054 593.017 411.479 592.048 409.801L591.739 409.266C589.84 410.036 587.826 410.582 585.73 410.872V411.493C585.73 413.431 584.16 415.002 582.222 415.002C580.284 415.002 578.713 413.431 578.713 411.493V410.872C576.618 410.582 574.604 410.036 572.705 409.266L572.396 409.801C571.427 411.479 569.282 412.054 567.603 411.085C565.925 410.116 565.35 407.97 566.319 406.292L566.631 405.753C564.992 404.473 563.514 402.995 562.234 401.356L561.695 401.668C560.016 402.636 557.871 402.061 556.902 400.383C555.933 398.705 556.508 396.559 558.186 395.591L558.72 395.282C557.951 393.383 557.404 391.369 557.114 389.273H556.493C554.555 389.273 552.984 387.702 552.984 385.765C552.984 383.827 554.555 382.256 556.493 382.256H557.113C557.404 380.16 557.95 378.146 558.72 376.247L558.186 375.939C556.508 374.97 555.933 372.824 556.901 371.146C557.87 369.468 560.016 368.893 561.694 369.862L562.233 370.173C563.514 368.534 564.991 367.057 566.63 365.777L566.319 365.237C565.35 363.559 565.925 361.413 567.603 360.445C569.281 359.476 571.427 360.051 572.395 361.729L572.704 362.263C574.603 361.493 576.617 360.947 578.713 360.657V360.036C578.713 358.098 580.284 356.527 582.221 356.527C584.159 356.527 585.73 358.098 585.73 360.036V360.656C587.826 360.947 589.839 361.493 591.739 362.263L592.048 361.728C593.016 360.05 595.162 359.475 596.84 360.444C598.518 361.413 599.093 363.559 598.124 365.237L597.813 365.776C599.452 367.056 600.929 368.534 602.21 370.173L602.749 369.861C604.427 368.892 606.573 369.468 607.542 371.146C608.51 372.824 607.935 374.97 606.257 375.938L605.723 376.247C606.493 378.146 607.039 380.16 607.329 382.256H607.95C609.888 382.256 611.459 383.826 611.459 385.764C611.459 387.702 609.888 389.273 607.95 389.273H607.33V389.273Z" fill="#9BCF1B"/>
<path d="M599.611 385.763C599.611 395.368 591.825 403.154 582.22 403.154C572.615 403.154 564.828 395.368 564.828 385.763C564.828 376.158 572.615 368.371 582.22 368.371C591.825 368.371 599.611 376.158 599.611 385.763Z" fill="#71892E"/>
<path d="M582.22 366.465C571.579 366.465 562.922 375.122 562.922 385.763C562.922 396.404 571.579 405.062 582.22 405.062C592.861 405.062 601.519 396.404 601.519 385.763C601.519 375.122 592.861 366.465 582.22 366.465ZM582.22 401.248C573.682 401.248 566.735 394.302 566.735 385.763C566.735 377.225 573.682 370.278 582.22 370.278C590.759 370.278 597.705 377.225 597.705 385.763C597.705 394.302 590.759 401.248 582.22 401.248Z" fill="#7FA32F"/>
<path d="M580.308 379.61L573.939 385.98L580.308 392.349C581.053 393.093 581.053 394.301 580.308 395.045C579.563 395.79 578.356 395.79 577.612 395.045L569.894 387.328C569.537 386.97 569.336 386.485 569.336 385.98C569.336 385.474 569.537 384.989 569.894 384.631L577.612 376.914C577.984 376.542 578.472 376.355 578.96 376.355C579.448 376.355 579.936 376.542 580.309 376.914C581.053 377.658 581.053 378.866 580.308 379.61ZM594.546 384.631L586.828 376.914C586.083 376.169 584.876 376.169 584.132 376.914C583.387 377.659 583.387 378.866 584.132 379.61L590.501 385.98L584.132 392.349C583.387 393.094 583.387 394.301 584.132 395.046C584.504 395.418 584.992 395.604 585.48 395.604C585.968 395.604 586.456 395.418 586.829 395.046L594.546 387.328C594.903 386.971 595.104 386.486 595.104 385.98C595.104 385.474 594.903 384.989 594.546 384.631Z" fill="#F2FBDC"/>
<circle cx="459.5" cy="148.5" r="2.5" fill="white"/>
<circle cx="469.5" cy="148.5" r="2.5" fill="white"/>
<circle cx="479.5" cy="148.5" r="2.5" fill="white"/>
<path d="M279.935 288.833H293.482V302.567C293.494 312.043 301.069 319.722 310.417 319.733H330.739C340.087 319.722 347.662 312.043 347.673 302.567V288.833H361.221C370.569 288.822 378.145 281.143 378.156 271.667V251.067C378.145 241.59 370.569 233.911 361.221 233.9H347.673V220.167C347.662 210.69 340.087 203.011 330.739 203H310.417C301.069 203.011 293.494 210.69 293.482 220.167V233.9H279.935C270.587 233.911 263.011 241.59 263 251.067V271.667C263.011 281.143 270.587 288.822 279.935 288.833ZM361.221 240.767C366.833 240.767 371.382 245.378 371.382 251.067V271.667C371.382 277.355 366.833 281.967 361.221 281.967H320.578C318.707 281.967 317.191 283.504 317.191 285.4C317.191 287.296 318.707 288.833 320.578 288.833H340.9V302.567C340.9 308.255 336.35 312.867 330.739 312.867H310.417C304.805 312.867 300.256 308.255 300.256 302.567V275.1C300.256 269.411 304.805 264.8 310.417 264.8H330.739C340.087 264.789 347.662 257.11 347.673 247.633V240.767H361.221ZM269.774 251.067C269.774 245.378 274.323 240.767 279.935 240.767H320.578C322.448 240.767 323.965 239.23 323.965 237.333C323.965 235.437 322.448 233.9 320.578 233.9H300.256V220.167C300.256 214.478 304.805 209.867 310.417 209.867H330.739C336.35 209.867 340.9 214.478 340.9 220.167V247.633C340.9 253.322 336.35 257.933 330.739 257.933H310.417C301.069 257.945 293.494 265.624 293.482 275.1V281.967H279.935C274.323 281.967 269.774 277.355 269.774 271.667V251.067Z" fill="white"/>
<path d="M313.805 227.035C315.675 227.035 317.192 225.497 317.192 223.601C317.192 221.705 315.675 220.168 313.805 220.168C311.934 220.168 310.418 221.705 310.418 223.601C310.418 225.497 311.934 227.035 313.805 227.035Z" fill="white"/>
<path d="M327.352 302.566C329.222 302.566 330.739 301.029 330.739 299.133C330.739 297.236 329.222 295.699 327.352 295.699C325.481 295.699 323.965 297.236 323.965 299.133C323.965 301.029 325.481 302.566 327.352 302.566Z" fill="white"/>
<g opacity="0.8">
<path d="M172.826 194.587C172.117 194.587 171.543 195.15 171.543 195.843C171.543 196.535 170.969 197.099 170.261 197.099H163.848C163.14 197.099 162.565 196.535 162.565 195.843V180.769C162.565 180.075 163.14 179.512 163.848 179.512H170.261C170.969 179.512 171.543 180.076 171.543 180.769C171.543 181.462 172.117 182.025 172.826 182.025C173.535 182.025 174.109 181.462 174.109 180.769C174.109 178.691 172.382 177 170.261 177H163.848C161.726 177 160 178.691 160 180.769V195.843C160 197.921 161.726 199.612 163.848 199.612H170.261C172.382 199.612 174.109 197.921 174.109 195.843C174.109 195.15 173.535 194.587 172.826 194.587Z" fill="white" fill-opacity="0.8"/>
</g>
<g opacity="0.8">
<path d="M186.935 187.05H184.37V184.537C184.37 183.844 183.797 183.281 183.087 183.281C182.378 183.281 181.805 183.844 181.805 184.537V187.05H179.24C178.53 187.05 177.957 187.613 177.957 188.306C177.957 188.999 178.53 189.562 179.24 189.562H181.805V192.075C181.805 192.768 182.378 193.331 183.087 193.331C183.797 193.331 184.37 192.768 184.37 192.075V189.562H186.935C187.645 189.562 188.218 188.999 188.218 188.306C188.218 187.613 187.645 187.05 186.935 187.05Z" fill="white" fill-opacity="0.8"/>
</g>
<g opacity="0.8">
<path d="M202.326 187.05H199.761V184.537C199.761 183.844 199.187 183.281 198.478 183.281C197.769 183.281 197.195 183.844 197.195 184.537V187.05H194.63C193.921 187.05 193.348 187.613 193.348 188.306C193.348 188.999 193.921 189.562 194.63 189.562H197.195V192.075C197.195 192.768 197.769 193.331 198.478 193.331C199.187 193.331 199.761 192.768 199.761 192.075V189.562H202.326C203.035 189.562 203.609 188.999 203.609 188.306C203.609 187.613 203.035 187.05 202.326 187.05Z" fill="white" fill-opacity="0.8"/>
</g>
<path d="M396.62 351.74C396.153 353.767 395.093 354.78 393.44 354.78C391.093 354.78 389.92 353.107 389.92 349.76C389.92 346.533 391.113 344.92 393.5 344.92C394.287 344.92 394.94 345.133 395.46 345.56C396.007 345.987 396.36 346.573 396.52 347.32L399.38 346.62C399.06 345.487 398.573 344.613 397.92 344C396.813 342.96 395.387 342.44 393.64 342.44C391.493 342.44 389.813 343.167 388.6 344.62C387.493 345.993 386.94 347.773 386.94 349.96C386.94 352.053 387.493 353.767 388.6 355.1C389.773 356.527 391.4 357.24 393.48 357.24C396.573 357.24 398.553 355.7 399.42 352.62L396.62 351.74ZM403.034 353.44L402.274 357.24H404.474L405.254 353.44H407.414L406.654 357.24H408.834L409.614 353.44H412.414V351.28H410.054L410.634 348.4H412.414V346.24H411.074L411.854 342.44H409.594L408.834 346.24H406.674L407.454 342.44H405.274L404.494 346.24H401.714V348.4H404.054L403.474 351.28H401.714V353.44H403.034ZM406.254 348.4H408.414L407.834 351.28H405.674L406.254 348.4Z" fill="white" fill-opacity="0.8"/>
<path fill-rule="evenodd" clip-rule="evenodd" d="M406.708 240.078C405.765 240.078 405 239.328 405 238.405V221.673C405 220.75 405.765 220 406.708 220H411.833C415.602 220 418.667 223.002 418.667 226.693C418.667 230.384 415.602 233.385 411.833 233.385H408.417V238.405C408.417 239.328 407.651 240.078 406.708 240.078ZM408.417 230.039H411.833C413.716 230.039 415.25 228.54 415.25 226.693C415.25 224.845 413.716 223.346 411.833 223.346H408.417V230.039ZM440.876 240.078C439.933 240.078 439.168 239.328 439.168 238.405V221.673C439.168 220.75 439.933 220 440.876 220H446.001C449.77 220 452.835 223.002 452.835 226.693C452.835 230.384 449.77 233.385 446.001 233.385H442.585V238.405C442.585 239.328 441.819 240.078 440.876 240.078ZM442.585 230.039H446.001C447.884 230.039 449.418 228.54 449.418 226.693C449.418 224.845 447.884 223.346 446.001 223.346H442.585V230.039ZM432.336 238.405C432.336 239.328 433.101 240.078 434.044 240.078C434.987 240.078 435.753 239.328 435.753 238.405V221.673C435.753 220.75 434.987 220 434.044 220C433.101 220 432.336 220.75 432.336 221.673V230.039H425.503V221.673C425.503 220.75 424.737 220 423.794 220C422.851 220 422.086 220.75 422.086 221.673V238.405C422.086 239.328 422.851 240.078 423.794 240.078C424.737 240.078 425.503 239.328 425.503 238.405V233.385H432.336V238.405Z" fill="white" fill-opacity="0.8"/>
<path d="M212.616 318L209.184 309.408H207.348L204 318H205.836L206.544 316.044H209.988L210.732 318H212.616ZM209.424 314.604H207.084L208.248 311.412L209.424 314.604ZM214.196 318H215.936V314.412H216.284C216.676 314.412 216.968 314.444 217.16 314.508C217.4 314.588 217.672 314.828 217.976 315.228C217.992 315.244 218.052 315.328 218.156 315.48C218.26 315.632 218.404 315.848 218.588 316.128L219.848 318H221.924L220.868 316.32C220.684 316.032 220.524 315.792 220.388 315.6C220.26 315.4 220.152 315.244 220.064 315.132C219.904 314.948 219.732 314.78 219.548 314.628C219.364 314.476 219.168 314.336 218.96 314.208C220.472 313.992 221.228 313.196 221.228 311.82C221.228 311.316 221.1 310.864 220.844 310.464C220.564 310.008 220.124 309.7 219.524 309.54C219.148 309.452 218.588 309.408 217.844 309.408H214.196V318ZM215.936 313.044V310.86H217.292C218.012 310.86 218.432 310.872 218.552 310.896C219.144 310.992 219.44 311.336 219.44 311.928C219.44 312.192 219.38 312.408 219.26 312.576C219.092 312.824 218.776 312.972 218.312 313.02C218.264 313.028 218.148 313.036 217.964 313.044C217.788 313.044 217.54 313.044 217.22 313.044H215.936ZM222.628 318.144H223.84L225.988 309.264H224.752L222.628 318.144ZM229.7 318H231.56L234.632 309.408H232.796L230.684 315.768L228.512 309.408H226.64L229.7 318ZM236.18 318H237.92V314.412H238.268C238.66 314.412 238.952 314.444 239.144 314.508C239.384 314.588 239.656 314.828 239.96 315.228C239.976 315.244 240.036 315.328 240.14 315.48C240.244 315.632 240.388 315.848 240.572 316.128L241.832 318H243.908L242.852 316.32C242.668 316.032 242.508 315.792 242.372 315.6C242.244 315.4 242.136 315.244 242.048 315.132C241.888 314.948 241.716 314.78 241.532 314.628C241.348 314.476 241.152 314.336 240.944 314.208C242.456 313.992 243.212 313.196 243.212 311.82C243.212 311.316 243.084 310.864 242.828 310.464C242.548 310.008 242.108 309.7 241.508 309.54C241.132 309.452 240.572 309.408 239.828 309.408H236.18V318ZM237.92 313.044V310.86H239.276C239.996 310.86 240.416 310.872 240.536 310.896C241.128 310.992 241.424 311.336 241.424 311.928C241.424 312.192 241.364 312.408 241.244 312.576C241.076 312.824 240.76 312.972 240.296 313.02C240.248 313.028 240.132 313.036 239.948 313.044C239.772 313.044 239.524 313.044 239.204 313.044H237.92Z" fill="white" fill-opacity="0.8"/>
<path d="M33.0244 314.033H34.3037V314.795C34.4697 314.535 34.6943 314.323 34.9775 314.16C35.2607 313.997 35.5749 313.916 35.9199 313.916C36.5221 313.916 37.0332 314.152 37.4531 314.624C37.873 315.096 38.083 315.754 38.083 316.597C38.083 317.463 37.8714 318.136 37.4482 318.618C37.0251 319.097 36.5124 319.336 35.9102 319.336C35.6237 319.336 35.3633 319.279 35.1289 319.165C34.8978 319.051 34.6536 318.856 34.3965 318.579V321.191H33.0244V314.033ZM34.3818 316.538C34.3818 317.121 34.4974 317.552 34.7285 317.832C34.9596 318.109 35.2412 318.247 35.5732 318.247C35.8923 318.247 36.1576 318.12 36.3691 317.866C36.5807 317.609 36.6865 317.189 36.6865 316.606C36.6865 316.063 36.5775 315.659 36.3594 315.396C36.1413 315.132 35.8711 315 35.5488 315C35.2135 315 34.9352 315.13 34.7139 315.391C34.4925 315.648 34.3818 316.03 34.3818 316.538ZM41.0939 312.061V314.692C41.5367 314.175 42.0656 313.916 42.6809 313.916C42.9966 313.916 43.2814 313.975 43.5354 314.092C43.7893 314.209 43.9797 314.359 44.1066 314.541C44.2368 314.723 44.3247 314.925 44.3703 315.146C44.4191 315.368 44.4436 315.711 44.4436 316.177V319.219H43.0715V316.479C43.0715 315.936 43.0454 315.591 42.9934 315.444C42.9413 315.298 42.8485 315.182 42.715 315.098C42.5848 315.01 42.4204 314.966 42.2219 314.966C41.994 314.966 41.7906 315.021 41.6115 315.132C41.4325 315.243 41.3007 315.41 41.216 315.635C41.1346 315.856 41.0939 316.185 41.0939 316.621V319.219H39.7219V312.061H41.0939ZM46.351 314.033H47.6303V314.795C47.7963 314.535 48.0209 314.323 48.3041 314.16C48.5873 313.997 48.9014 313.916 49.2465 313.916C49.8487 313.916 50.3598 314.152 50.7797 314.624C51.1996 315.096 51.4096 315.754 51.4096 316.597C51.4096 317.463 51.198 318.136 50.7748 318.618C50.3516 319.097 49.8389 319.336 49.2367 319.336C48.9503 319.336 48.6898 319.279 48.4555 319.165C48.2243 319.051 47.9802 318.856 47.723 318.579V321.191H46.351V314.033ZM47.7084 316.538C47.7084 317.121 47.824 317.552 48.0551 317.832C48.2862 318.109 48.5678 318.247 48.8998 318.247C49.2188 318.247 49.4841 318.12 49.6957 317.866C49.9073 317.609 50.0131 317.189 50.0131 316.606C50.0131 316.063 49.904 315.659 49.6859 315.396C49.4678 315.132 49.1977 315 48.8754 315C48.5401 315 48.2618 315.13 48.0404 315.391C47.8191 315.648 47.7084 316.03 47.7084 316.538Z" fill="#FF525D"/>
<path d="M75.8076 316.587L77.209 317.031C76.9941 317.812 76.6361 318.394 76.1348 318.774C75.6367 319.152 75.0036 319.341 74.2354 319.341C73.2848 319.341 72.5036 319.017 71.8916 318.369C71.2796 317.718 70.9736 316.829 70.9736 315.703C70.9736 314.512 71.2812 313.587 71.8965 312.93C72.5117 312.269 73.3206 311.938 74.3232 311.938C75.1989 311.938 75.9102 312.197 76.457 312.715C76.7826 313.021 77.0267 313.46 77.1895 314.033L75.7588 314.375C75.6742 314.004 75.4967 313.711 75.2266 313.496C74.9596 313.281 74.6341 313.174 74.25 313.174C73.7194 313.174 73.2881 313.364 72.9561 313.745C72.6273 314.126 72.4629 314.743 72.4629 315.596C72.4629 316.501 72.6257 317.145 72.9512 317.529C73.2767 317.913 73.6999 318.105 74.2207 318.105C74.6048 318.105 74.9352 317.983 75.2119 317.739C75.4886 317.495 75.6872 317.111 75.8076 316.587ZM80.5666 318.188V316.328H78.6916V315.044H80.5666V313.184H81.8166V315.044H83.6965V316.328H81.8166V318.188H80.5666ZM86.9564 318.188V316.328H85.0814V315.044H86.9564V313.184H88.2064V315.044H90.0863V316.328H88.2064V318.188H86.9564Z" fill="#FF525D"/>
<path d="M116.962 316.587L118.363 317.031C118.148 317.812 117.79 318.394 117.289 318.774C116.791 319.152 116.158 319.341 115.39 319.341C114.439 319.341 113.658 319.017 113.046 318.369C112.434 317.718 112.128 316.829 112.128 315.703C112.128 314.512 112.436 313.587 113.051 312.93C113.666 312.269 114.475 311.938 115.478 311.938C116.353 311.938 117.064 312.197 117.611 312.715C117.937 313.021 118.181 313.46 118.344 314.033L116.913 314.375C116.828 314.004 116.651 313.711 116.381 313.496C116.114 313.281 115.788 313.174 115.404 313.174C114.874 313.174 114.442 313.364 114.11 313.745C113.782 314.126 113.617 314.743 113.617 315.596C113.617 316.501 113.78 317.145 114.105 317.529C114.431 317.913 114.854 318.105 115.375 318.105C115.759 318.105 116.09 317.983 116.366 317.739C116.643 317.495 116.841 317.111 116.962 316.587ZM120.183 317.437H119.519V316.362H120.398L120.691 314.922H119.519V313.843H120.91L121.296 311.938H122.39L122.004 313.843H123.083L123.459 311.938H124.592L124.201 313.843H124.875V314.922H123.982L123.689 316.362H124.875V317.437H123.469L123.083 319.341H121.994L122.37 317.437H121.286L120.901 319.341H119.797L120.183 317.437ZM121.789 314.922L121.501 316.362H122.585L122.868 314.922H121.789Z" fill="#FF525D"/>
<defs>
<linearGradient id="paint0_linear" x1="630" y1="234.5" x2="-1.59763e-05" y2="234.5" gradientUnits="userSpaceOnUse">
<stop stop-color="#311E7B"/>
<stop offset="1" stop-color="#582A9D"/>
</linearGradient>
<clipPath id="clip0">
<rect width="119" height="120" fill="white" transform="translate(21 295)"/>
</clipPath>
<clipPath id="clip1">
<rect width="41.1614" height="41.1614" fill="white" transform="matrix(-0.707107 0.707107 0.707107 0.707107 151.105 371)"/>
</clipPath>
</defs>
</svg>
