<svg width="24" height="25" viewBox="0 0 24 25" fill="none" xmlns="http://www.w3.org/2000/svg">
<g id="Iconly/Light/Calling">
<g id="Calling">
<path id="Stroke 1" fill-rule="evenodd" clip-rule="evenodd" d="M2.98995 5.10008C3.30627 4.57531 5.05018 2.67033 6.2929 2.72784C6.66469 2.75967 6.99334 2.98355 7.26037 3.24439H7.2614C7.87351 3.84412 9.62974 6.10751 9.72834 6.58401C9.97175 7.75267 8.57806 8.42635 9.00428 9.60425C10.0909 12.263 11.9632 14.1351 14.6232 15.2206C15.8002 15.6478 16.4739 14.2553 17.6427 14.4976C18.1192 14.5972 20.3839 16.3523 20.9826 16.9654V16.9654C21.2425 17.2314 21.4684 17.561 21.4992 17.9328C21.5454 19.2421 19.5222 21.0095 19.1278 21.2354C18.1973 21.9019 16.9833 21.8896 15.5034 21.2015C11.3737 19.4834 4.77391 13.0086 3.02384 8.72313C2.35421 7.25152 2.30902 6.02946 2.98995 5.10008Z" stroke="white" stroke-width="1.5" stroke-linecap="round" stroke-linejoin="round"/>
<path id="Path" d="M14.5654 2.97656C18.2674 3.38756 21.1904 6.30756 21.6064 10.0086" stroke="white" stroke-width="1.5" stroke-linecap="round" stroke-linejoin="round"/>
<path id="Path_2" d="M14.5654 6.51953C16.3354 6.86453 17.7184 8.24753 18.0634 10.0175" stroke="white" stroke-width="1.5" stroke-linecap="round" stroke-linejoin="round"/>
</g>
</g>
</svg>
