<svg width="515" height="351" viewBox="0 0 515 351" fill="none" xmlns="http://www.w3.org/2000/svg">
<path d="M151.918 340.446C151.918 340.446 127.542 313.235 56.8047 321.393C56.8047 321.393 75.8441 342.475 96.2594 345.199L151.918 340.446Z" fill="url(#paint0_linear)"/>
<path d="M193.53 315.274C193.53 315.274 150.671 271.052 62.8945 256.766C62.8945 256.766 90.1056 317.914 149.628 340.414H231.929L193.53 315.274Z" fill="url(#paint1_linear)"/>
<path d="M84.0112 271.727C84.0112 271.727 156.792 312.766 191.827 341.214Z" fill="url(#paint2_linear)"/>
<path d="M191.819 342.325C191.587 342.325 191.361 342.247 191.179 342.103C156.617 314.016 84.2389 273.116 83.5163 272.699C83.3995 272.633 83.2968 272.545 83.214 272.44C83.1312 272.334 83.07 272.214 83.0339 272.085C82.9978 271.956 82.9874 271.821 83.0034 271.688C83.0194 271.555 83.0615 271.426 83.1272 271.309C83.1929 271.192 83.2809 271.09 83.3863 271.007C83.4917 270.924 83.6124 270.863 83.7414 270.827C83.8705 270.791 84.0054 270.78 84.1385 270.796C84.2715 270.812 84.4001 270.854 84.5169 270.92C85.2396 271.337 157.77 312.334 192.472 340.518C192.637 340.651 192.757 340.832 192.815 341.035C192.872 341.239 192.864 341.456 192.792 341.656C192.72 341.855 192.588 342.027 192.413 342.147C192.238 342.267 192.031 342.329 191.819 342.325V342.325Z" fill="#9AB6F4"/>
<path d="M250.765 340.447C250.765 340.447 188.755 228.892 109.137 201C109.137 201 132.262 302.354 223.415 343.157L250.765 340.447Z" fill="url(#paint3_linear)"/>
<path d="M231.953 339.974C231.953 339.974 171.082 260.175 130.266 226.168Z" fill="url(#paint4_linear)"/>
<path d="M231.959 340.928C231.803 340.928 231.648 340.892 231.508 340.822C231.368 340.752 231.247 340.65 231.153 340.524C230.542 339.732 169.879 260.434 129.619 226.885C129.41 226.712 129.28 226.463 129.255 226.194C129.23 225.924 129.313 225.655 129.487 225.447C129.66 225.239 129.909 225.108 130.178 225.083C130.448 225.058 130.717 225.142 130.925 225.315C171.353 259.016 232.168 338.495 232.779 339.274C232.892 339.426 232.96 339.607 232.977 339.796C232.993 339.985 232.957 340.175 232.872 340.345C232.787 340.515 232.657 340.658 232.496 340.758C232.335 340.859 232.149 340.912 231.959 340.914V340.928Z" fill="#9AB6F4"/>
<path d="M157.484 175.824C157.484 175.824 174.481 279.221 260.881 340.411H288.078C288.078 340.411 247.275 215.279 157.484 175.824Z" fill="url(#paint5_linear)"/>
<path d="M177.875 201C177.875 201 224.807 258.132 272.377 340.447Z" fill="url(#paint6_linear)"/>
<path d="M272.436 341.457C272.256 341.458 272.078 341.411 271.922 341.32C271.765 341.23 271.636 341.1 271.547 340.942C224.518 259.657 177.559 202.205 177.044 201.635C176.907 201.422 176.852 201.166 176.891 200.916C176.931 200.666 177.061 200.439 177.257 200.278C177.454 200.118 177.702 200.036 177.955 200.048C178.208 200.06 178.448 200.165 178.629 200.342C179.101 200.912 226.158 258.489 273.27 339.928C273.337 340.044 273.381 340.172 273.398 340.304C273.415 340.437 273.407 340.572 273.372 340.701C273.337 340.83 273.277 340.951 273.195 341.057C273.113 341.163 273.011 341.251 272.895 341.318C272.756 341.403 272.598 341.45 272.436 341.457V341.457Z" fill="#9AB6F4"/>
<path d="M409.953 340.459C409.953 340.459 434.343 313.248 505.067 321.475C505.067 321.475 486.027 342.558 465.612 345.282L409.953 340.459Z" fill="url(#paint7_linear)"/>
<path d="M368.34 315.287C368.34 315.287 411.2 271.079 498.976 256.793C498.976 256.793 471.765 317.942 412.242 340.441H329.914L368.34 315.287Z" fill="url(#paint8_linear)"/>
<path d="M477.855 271.758C477.855 271.758 405.074 312.797 370.039 341.245Z" fill="url(#paint9_linear)"/>
<path d="M370.041 342.323C370.28 342.321 370.51 342.238 370.694 342.086C405.257 314.014 477.635 273.1 478.358 272.683C478.476 272.619 478.581 272.532 478.665 272.427C478.75 272.322 478.812 272.201 478.848 272.071C478.885 271.941 478.894 271.805 478.877 271.672C478.859 271.538 478.815 271.409 478.747 271.293C478.68 271.177 478.592 271.075 478.486 270.993C478.38 270.911 478.259 270.851 478.13 270.816C478.001 270.781 477.866 270.772 477.733 270.79C477.601 270.807 477.473 270.851 477.357 270.918C476.634 271.321 404.104 312.318 369.402 340.502C369.206 340.672 369.081 340.909 369.053 341.167C369.025 341.425 369.095 341.684 369.249 341.892C369.34 342.018 369.459 342.123 369.596 342.197C369.733 342.272 369.885 342.315 370.041 342.323Z" fill="#9AB6F4"/>
<path d="M311.078 340.458C311.078 340.458 373.102 228.904 452.679 201.012C452.679 201.012 429.553 302.365 338.4 343.182L311.078 340.458Z" fill="url(#paint10_linear)"/>
<path d="M329.914 339.982C329.914 339.982 390.785 260.183 431.601 226.176Z" fill="url(#paint11_linear)"/>
<path d="M329.896 341.009C330.055 341.009 330.211 340.973 330.354 340.903C330.496 340.834 330.62 340.732 330.716 340.606C331.328 339.8 391.99 260.501 432.251 226.967C432.443 226.793 432.562 226.554 432.585 226.296C432.608 226.039 432.534 225.782 432.376 225.577C432.204 225.382 431.964 225.261 431.706 225.238C431.447 225.214 431.19 225.291 430.986 225.452C390.545 259.139 329.744 338.619 329.132 339.411C328.983 339.624 328.919 339.886 328.955 340.144C328.992 340.402 329.124 340.637 329.327 340.8C329.491 340.926 329.69 340.999 329.896 341.009V341.009Z" fill="#9AB6F4"/>
<path d="M404.39 175.844C404.39 175.844 387.379 279.241 300.993 340.445H273.782C273.782 340.445 314.598 215.299 404.39 175.844Z" fill="url(#paint12_linear)"/>
<path d="M383.991 201.012C383.991 201.012 337.045 258.158 289.488 340.458Z" fill="url(#paint13_linear)"/>
<path d="M289.436 341.471C289.615 341.472 289.791 341.427 289.947 341.339C290.103 341.251 290.233 341.124 290.325 340.971C337.354 259.671 384.313 202.233 384.827 201.663C384.912 201.56 384.976 201.441 385.015 201.313C385.054 201.186 385.067 201.052 385.054 200.919C385.041 200.786 385.002 200.657 384.94 200.539C384.877 200.421 384.791 200.317 384.688 200.232C384.585 200.147 384.466 200.083 384.339 200.044C384.211 200.005 384.077 199.992 383.944 200.005C383.811 200.018 383.682 200.057 383.564 200.119C383.446 200.182 383.342 200.268 383.257 200.371C382.784 200.94 335.728 258.504 288.616 339.942C288.483 340.175 288.446 340.451 288.514 340.711C288.581 340.97 288.747 341.193 288.977 341.332C289.119 341.41 289.275 341.457 289.436 341.471V341.471Z" fill="#9AB6F4"/>
<path d="M426.169 248.609H423.445V296.222H426.169V248.609Z" fill="#F8FBFF"/>
<path d="M429.564 246.562H426.84V294.175H429.564V246.562Z" fill="#E7EEF7"/>
<path d="M432.286 248.609H429.562V296.222H432.286V248.609Z" fill="#F8FBFF"/>
<path d="M435.685 248.609H432.961V296.222H435.685V248.609Z" fill="#E7EEF7"/>
<path d="M438.411 247.247H435.687V294.859H438.411V247.247Z" fill="#F8FBFF"/>
<path d="M445.887 275.137H443.164V322.749H445.887V275.137Z" fill="#F8FBFF"/>
<path d="M332.289 238.487C332.289 238.487 396.912 233.636 400.984 251.981C405.056 270.325 384.668 317.299 388.059 345.163H326.841C326.841 345.163 316.64 267.81 332.289 238.487Z" fill="#5577E0"/>
<path d="M326.84 238.485C326.84 238.485 391.463 233.635 395.548 252.008C399.634 270.38 379.219 317.325 382.624 345.19H321.475C321.475 345.19 311.205 267.809 326.84 238.485Z" fill="url(#paint14_linear)"/>
<path d="M423.445 340.439V262.211H442.485V300.985L456.771 317.3V340.439H423.445Z" fill="#5577E0"/>
<path d="M445.894 318.664H428.203V330.227H445.894V318.664Z" fill="#E2EBFC"/>
<path d="M114.28 314.585C113.647 314.585 113.039 314.334 112.59 313.885C112.142 313.437 111.89 312.829 111.89 312.195V306.08C111.89 305.767 111.952 305.457 112.072 305.167C112.193 304.878 112.369 304.616 112.591 304.395C112.813 304.174 113.077 303.999 113.367 303.881C113.657 303.762 113.967 303.702 114.28 303.704V303.704C114.911 303.704 115.515 303.954 115.961 304.4C116.407 304.845 116.657 305.45 116.657 306.08V312.195C116.657 312.827 116.407 313.432 115.962 313.88C115.516 314.328 114.912 314.582 114.28 314.585Z" fill="#5577E0"/>
<path d="M138.086 314.585C137.452 314.585 136.844 314.333 136.395 313.885C135.947 313.436 135.695 312.828 135.695 312.194V306.08C135.695 305.766 135.757 305.456 135.878 305.167C135.998 304.878 136.174 304.615 136.396 304.394C136.618 304.173 136.882 303.999 137.172 303.88C137.462 303.761 137.772 303.701 138.086 303.703V303.703C138.716 303.703 139.32 303.954 139.766 304.399C140.212 304.845 140.462 305.449 140.462 306.08V312.194C140.462 312.826 140.212 313.432 139.767 313.88C139.322 314.328 138.717 314.581 138.086 314.585Z" fill="#5577E0"/>
<path d="M107.824 309.82H138.398C147.932 309.82 149.28 318.659 157.452 320.021C165.624 321.383 167.653 328.526 169.348 340.256H124.14L107.824 309.82Z" fill="url(#paint15_linear)"/>
<path d="M97.6221 341.804C97.6221 341.804 101.694 309.84 107.823 309.84C113.382 309.84 115.981 320.722 126.862 322.084C137.744 323.446 140.76 340.429 140.76 340.429L97.6221 341.804Z" fill="#5577E0"/>
<path d="M146.889 317.71C151.948 321.295 154.588 326.257 152.782 328.828C150.975 331.399 145.43 330.509 140.371 326.938C135.313 323.366 132.672 318.377 134.465 315.82C136.258 313.263 141.831 314.124 146.889 317.71Z" fill="#E2EBFC"/>
<path d="M38.3349 69.5249C38.0354 69.5244 37.7473 69.4101 37.5288 69.2052C35.8195 67.5097 34.8883 66.4257 34.8466 66.4257C34.7485 66.3119 34.6739 66.1798 34.6271 66.037C34.5802 65.8942 34.5621 65.7435 34.5737 65.5937C34.5854 65.4438 34.6265 65.2978 34.6948 65.1639C34.7631 65.03 34.8572 64.911 34.9717 64.8137C35.2032 64.619 35.5018 64.523 35.8034 64.5464C36.1049 64.5698 36.3852 64.7107 36.5838 64.9387C36.5838 64.9387 37.501 66.0088 39.1409 67.6348C39.3004 67.7942 39.409 67.9973 39.453 68.2184C39.4971 68.4395 39.4744 68.6688 39.3882 68.877C39.3019 69.0853 39.1557 69.2633 38.9682 69.3885C38.7807 69.5138 38.5603 69.5806 38.3349 69.5805V69.5249Z" fill="#5577E0"/>
<path d="M210.51 260.517C210.35 260.518 210.192 260.484 210.046 260.42C209.9 260.355 209.769 260.261 209.662 260.142C207.98 258.243 206.398 256.258 204.923 254.194C204.832 254.072 204.765 253.933 204.728 253.785C204.69 253.637 204.682 253.483 204.704 253.332C204.726 253.181 204.778 253.036 204.856 252.905C204.934 252.774 205.037 252.659 205.159 252.568C205.281 252.477 205.42 252.411 205.568 252.373C205.716 252.336 205.87 252.328 206.021 252.349C206.172 252.371 206.317 252.423 206.448 252.501C206.579 252.579 206.694 252.682 206.785 252.804C208.213 254.805 209.744 256.73 211.371 258.572C211.471 258.684 211.548 258.815 211.597 258.956C211.646 259.098 211.667 259.248 211.658 259.398C211.648 259.548 211.61 259.694 211.544 259.829C211.478 259.964 211.387 260.085 211.274 260.184C211.071 260.389 210.798 260.508 210.51 260.517V260.517ZM199.183 242.979C198.948 242.984 198.718 242.918 198.521 242.789C198.325 242.66 198.173 242.474 198.085 242.256C197.062 239.935 196.166 237.56 195.403 235.141C195.327 234.858 195.363 234.557 195.503 234.299C195.643 234.042 195.877 233.849 196.156 233.759C196.435 233.67 196.737 233.691 197.001 233.819C197.264 233.947 197.469 234.171 197.571 234.446C198.315 236.785 199.187 239.082 200.184 241.325C200.306 241.604 200.313 241.919 200.204 242.203C200.094 242.486 199.877 242.715 199.6 242.84C199.472 242.914 199.33 242.961 199.183 242.979V242.979ZM193.624 222.814C193.346 222.813 193.076 222.711 192.867 222.527C192.657 222.343 192.522 222.089 192.485 221.813C192.179 219.367 191.984 216.81 191.887 214.253C191.906 213.968 192.03 213.701 192.235 213.502C192.44 213.304 192.711 213.188 192.996 213.178C193.281 213.167 193.56 213.263 193.779 213.446C193.997 213.629 194.14 213.887 194.18 214.17C194.264 216.671 194.458 219.145 194.764 221.535C194.796 221.836 194.709 222.138 194.522 222.377C194.336 222.615 194.063 222.772 193.763 222.814H193.624ZM193.555 201.954H193.444C193.142 201.922 192.866 201.773 192.673 201.539C192.481 201.305 192.388 201.005 192.415 200.703C192.652 198.257 192.985 195.742 193.402 193.198C193.426 193.051 193.478 192.909 193.557 192.781C193.635 192.654 193.738 192.543 193.859 192.455C193.981 192.367 194.118 192.304 194.264 192.27C194.409 192.235 194.56 192.23 194.708 192.253C195.008 192.304 195.275 192.472 195.452 192.719C195.629 192.966 195.702 193.273 195.653 193.574C195.25 196.061 194.931 198.535 194.694 200.925C194.664 201.207 194.531 201.467 194.321 201.657C194.11 201.846 193.838 201.952 193.555 201.954V201.954ZM197.321 181.344C197.229 181.358 197.135 181.358 197.043 181.344C196.898 181.307 196.761 181.241 196.642 181.151C196.522 181.061 196.421 180.948 196.345 180.819C196.269 180.69 196.219 180.547 196.198 180.399C196.177 180.25 196.186 180.099 196.223 179.954C196.835 177.578 197.516 175.132 198.266 172.686C198.355 172.396 198.554 172.154 198.821 172.012C199.089 171.87 199.401 171.84 199.691 171.928C199.98 172.017 200.222 172.217 200.364 172.484C200.506 172.751 200.536 173.064 200.448 173.353C199.711 175.771 199.058 178.175 198.433 180.524C198.349 180.749 198.197 180.943 197.997 181.077C197.798 181.212 197.561 181.281 197.321 181.274V181.344ZM203.714 161.359C203.577 161.356 203.441 161.333 203.311 161.29C203.029 161.181 202.801 160.965 202.676 160.69C202.551 160.414 202.54 160.101 202.644 159.817C203.505 157.524 204.436 155.161 205.423 152.868C205.48 152.729 205.563 152.603 205.668 152.497C205.774 152.39 205.899 152.306 206.037 152.247C206.175 152.189 206.323 152.159 206.473 152.158C206.623 152.157 206.772 152.186 206.91 152.243C207.049 152.299 207.175 152.383 207.282 152.488C207.388 152.593 207.473 152.719 207.531 152.857C207.589 152.995 207.619 153.143 207.62 153.293C207.621 153.443 207.592 153.591 207.536 153.73C206.577 156.065 205.659 158.413 204.756 160.678C204.658 160.869 204.509 161.028 204.324 161.136C204.139 161.244 203.928 161.298 203.714 161.29V161.359ZM211.885 142.028C211.717 142.026 211.551 141.988 211.399 141.917C211.263 141.854 211.141 141.765 211.039 141.655C210.937 141.545 210.859 141.416 210.807 141.275C210.755 141.134 210.732 140.985 210.738 140.835C210.744 140.685 210.78 140.538 210.843 140.402C211.872 138.179 212.97 135.899 214.081 133.62C214.214 133.347 214.45 133.139 214.736 133.04C215.023 132.941 215.337 132.959 215.61 133.092C215.883 133.225 216.092 133.46 216.191 133.747C216.29 134.034 216.271 134.348 216.138 134.621C215.026 136.886 213.942 139.165 212.914 141.361C212.814 141.546 212.665 141.699 212.484 141.805C212.302 141.91 212.095 141.963 211.885 141.959V142.028ZM221.238 123.253C221.055 123.253 220.874 123.21 220.71 123.128C220.44 122.986 220.236 122.742 220.145 122.45C220.054 122.158 220.082 121.842 220.224 121.571C221.364 119.431 222.559 117.207 223.796 114.97C223.862 114.83 223.956 114.705 224.072 114.603C224.188 114.501 224.324 114.423 224.471 114.375C224.618 114.327 224.774 114.31 224.928 114.324C225.082 114.338 225.232 114.383 225.368 114.457C225.504 114.53 225.623 114.631 225.719 114.752C225.815 114.874 225.885 115.014 225.926 115.163C225.966 115.313 225.975 115.469 225.953 115.622C225.931 115.775 225.878 115.922 225.797 116.054C224.574 118.291 223.379 120.501 222.253 122.641C222.146 122.812 221.996 122.953 221.818 123.048C221.64 123.143 221.44 123.19 221.238 123.183V123.253ZM231.439 104.811C231.243 104.816 231.049 104.763 230.883 104.658C230.751 104.586 230.635 104.488 230.541 104.37C230.448 104.252 230.379 104.116 230.339 103.971C230.299 103.826 230.288 103.674 230.308 103.525C230.327 103.375 230.376 103.231 230.452 103.102C231.722 100.896 232.972 98.7331 234.205 96.6114C234.278 96.4791 234.377 96.3628 234.496 96.2691C234.615 96.1755 234.751 96.1064 234.897 96.066C235.043 96.0256 235.195 96.0146 235.345 96.0338C235.495 96.0529 235.64 96.1017 235.771 96.1774C235.902 96.253 236.017 96.354 236.108 96.4745C236.2 96.5949 236.267 96.7324 236.305 96.8789C236.342 97.0254 236.351 97.1779 236.329 97.3277C236.307 97.4774 236.256 97.6213 236.178 97.751C234.941 99.8773 233.704 102.031 232.44 104.241C232.337 104.415 232.191 104.56 232.016 104.66C231.84 104.76 231.641 104.812 231.439 104.811V104.811ZM74.6626 88.9957H74.5236C71.9799 88.7061 69.465 88.204 67.0051 87.4947C66.7196 87.4106 66.4783 87.2181 66.3329 86.9584C66.1874 86.6987 66.1494 86.3924 66.2268 86.105C66.2669 85.9626 66.3347 85.8295 66.4262 85.7133C66.5178 85.5971 66.6314 85.5001 66.7604 85.4278C66.8895 85.3556 67.0315 85.3094 67.1784 85.2921C67.3253 85.2747 67.4742 85.2865 67.6166 85.3268C69.9588 85.9911 72.3531 86.456 74.7737 86.7165C74.9234 86.7247 75.07 86.7623 75.2051 86.8272C75.3402 86.892 75.4612 86.9829 75.5612 87.0945C75.6612 87.2061 75.7383 87.3364 75.788 87.4778C75.8377 87.6192 75.859 87.769 75.8508 87.9186C75.8426 88.0683 75.805 88.2148 75.7401 88.35C75.6753 88.4851 75.5844 88.6061 75.4728 88.7061C75.3612 88.8061 75.2309 88.8832 75.0895 88.9329C74.9481 88.9825 74.7983 89.0039 74.6487 88.9957H74.6626ZM88.0458 88.1479C87.7627 88.1553 87.4871 88.0569 87.2726 87.8722C87.058 87.6874 86.92 87.4294 86.8853 87.1484C86.8506 86.8673 86.9218 86.5835 87.0849 86.3521C87.2481 86.1207 87.4915 85.9583 87.7678 85.8966C90.122 85.3119 92.4159 84.5069 94.6192 83.4923C94.8938 83.3651 95.2077 83.3523 95.4918 83.4565C95.6325 83.5081 95.7616 83.587 95.8718 83.6885C95.982 83.79 96.0711 83.9122 96.1341 84.0482C96.197 84.1842 96.2326 84.3312 96.2387 84.4809C96.2448 84.6306 96.2214 84.7801 96.1698 84.9207C96.1182 85.0614 96.0394 85.1905 95.9379 85.3007C95.8364 85.4109 95.7141 85.5 95.5781 85.563C93.2449 86.6511 90.8104 87.5076 88.3098 88.1201C88.2238 88.143 88.1347 88.1524 88.0458 88.1479V88.1479ZM241.904 86.6053C241.707 86.605 241.513 86.5535 241.342 86.4559C241.17 86.3583 241.027 86.2179 240.926 86.0485C240.826 85.879 240.77 85.6863 240.766 85.4891C240.762 85.292 240.809 85.0972 240.903 84.9237C242.098 82.7279 243.182 80.4905 244.127 78.2808C244.247 78.0025 244.473 77.7832 244.754 77.6711C245.036 77.559 245.35 77.5634 245.628 77.6832C245.907 77.803 246.126 78.0284 246.238 78.3099C246.35 78.5914 246.346 78.9058 246.226 79.1841C245.253 81.4633 244.141 83.7564 242.918 86.0077C242.82 86.1903 242.673 86.3424 242.494 86.4477C242.315 86.553 242.111 86.6075 241.904 86.6053V86.6053ZM54.9422 82.2415C54.7463 82.2431 54.5538 82.1902 54.3863 82.0887C52.1819 80.8377 50.0435 79.4739 47.9796 78.0028C47.7322 77.8267 47.5642 77.56 47.5122 77.2608C47.4601 76.9616 47.5282 76.654 47.7016 76.4046C47.7887 76.2817 47.8993 76.1773 48.027 76.0974C48.1547 76.0175 48.297 75.9638 48.4457 75.9392C48.5943 75.9146 48.7463 75.9198 48.8929 75.9544C49.0395 75.9889 49.1778 76.0522 49.2998 76.1406C51.2989 77.57 53.3725 78.8921 55.512 80.1013C55.7363 80.2235 55.9131 80.4174 56.014 80.6521C56.1149 80.8868 56.134 81.1486 56.0683 81.3954C56.0026 81.6422 55.8558 81.8599 55.6516 82.0133C55.4474 82.1667 55.1975 82.2471 54.9422 82.2415V82.2415ZM106.363 78.2669C106.199 78.2693 106.037 78.2357 105.888 78.1685C105.739 78.1012 105.607 78.0019 105.501 77.8777C105.402 77.7648 105.326 77.6334 105.278 77.4911C105.23 77.3488 105.211 77.1984 105.221 77.0486C105.232 76.8988 105.272 76.7525 105.339 76.6181C105.406 76.4838 105.499 76.364 105.612 76.2656C106.098 75.8487 106.585 75.4179 107.071 74.9593C108.461 73.7363 109.74 72.4717 111.06 71.207C111.166 71.1011 111.291 71.0171 111.43 70.9598C111.568 70.9025 111.716 70.873 111.866 70.873C112.016 70.873 112.164 70.9025 112.302 70.9598C112.44 71.0171 112.566 71.1011 112.672 71.207C112.78 71.3119 112.865 71.4372 112.923 71.5757C112.982 71.7141 113.012 71.8628 113.012 72.013C113.012 72.1633 112.982 72.312 112.923 72.4504C112.865 72.5889 112.78 72.7142 112.672 72.8191C111.282 74.0838 109.99 75.3623 108.642 76.5992C108.141 77.0717 107.641 77.5164 107.141 77.9889C106.926 78.1769 106.648 78.2762 106.363 78.2669V78.2669ZM249.325 67.149H249.075C248.775 67.0794 248.515 66.8943 248.351 66.6341C248.187 66.3739 248.133 66.0595 248.199 65.7592C248.729 63.3612 249.119 60.9343 249.367 58.4909C249.408 58.199 249.561 57.9346 249.794 57.7532C250.026 57.5718 250.32 57.4876 250.613 57.5182C250.906 57.5488 251.176 57.6918 251.366 57.9172C251.556 58.1427 251.652 58.433 251.632 58.7271C251.382 61.2546 250.983 63.7652 250.437 66.2456C250.381 66.4995 250.24 66.7268 250.038 66.8908C249.836 67.0548 249.585 67.1457 249.325 67.149V67.149ZM121.344 63.7163C121.049 63.7123 120.767 63.5983 120.552 63.3967C120.444 63.2906 120.358 63.1641 120.299 63.0245C120.241 62.8849 120.211 62.735 120.211 62.5837C120.211 62.4323 120.241 62.2824 120.299 62.1428C120.358 62.0033 120.444 61.8767 120.552 61.7707C122.219 60.0335 123.901 58.2546 125.666 56.3368C125.767 56.2264 125.889 56.137 126.025 56.0737C126.161 56.0105 126.308 55.9746 126.458 55.9682C126.607 55.9617 126.757 55.9848 126.898 56.0361C127.038 56.0874 127.168 56.166 127.278 56.2673C127.389 56.3686 127.478 56.4906 127.541 56.6264C127.604 56.7623 127.64 56.9092 127.647 57.0589C127.653 57.2086 127.63 57.3581 127.579 57.4989C127.527 57.6397 127.449 57.769 127.348 57.8794C125.569 59.8111 123.887 61.6039 122.206 63.355C122.091 63.4638 121.956 63.5482 121.808 63.6031C121.659 63.6581 121.502 63.6824 121.344 63.6746V63.7163ZM135.547 48.2068C135.265 48.2049 134.994 48.1013 134.783 47.915C134.67 47.8158 134.577 47.6949 134.512 47.5594C134.446 47.424 134.408 47.2768 134.4 47.1265C134.393 46.9762 134.415 46.8259 134.466 46.6844C134.518 46.5429 134.597 46.4132 134.699 46.3029L135.839 45.0104L139.675 40.7161C139.878 40.488 140.163 40.3496 140.467 40.3314C140.772 40.3132 141.072 40.4165 141.301 40.6188C141.524 40.8256 141.657 41.1112 141.673 41.4149C141.688 41.7186 141.585 42.0163 141.384 42.2448L137.548 46.5391L136.395 47.8177C136.291 47.9415 136.162 48.0408 136.015 48.1081C135.868 48.1754 135.708 48.2091 135.547 48.2068ZM250.367 46.2612C250.089 46.2574 249.822 46.1545 249.613 45.9711C249.404 45.7877 249.267 45.5357 249.228 45.2605C248.928 42.8368 248.464 40.4363 247.838 38.0756C247.762 37.7845 247.804 37.4749 247.955 37.2145C248.106 36.9541 248.353 36.7641 248.644 36.6859C248.788 36.6461 248.939 36.6355 249.087 36.6546C249.236 36.6737 249.379 36.7223 249.508 36.7973C249.637 36.8723 249.751 36.9724 249.841 37.0917C249.931 37.2109 249.997 37.347 250.034 37.4919C250.679 39.9296 251.152 42.4094 251.451 44.9131C251.471 45.0619 251.461 45.2131 251.422 45.3579C251.383 45.5028 251.315 45.6386 251.224 45.7574C251.132 45.8762 251.018 45.9757 250.887 46.0502C250.757 46.1247 250.614 46.1728 250.465 46.1917L250.367 46.2612ZM149.681 32.7251C149.534 32.7267 149.389 32.6992 149.253 32.6444C149.117 32.5895 148.993 32.5083 148.889 32.4055C148.678 32.19 148.56 31.9007 148.56 31.5994C148.56 31.2982 148.678 31.0088 148.889 30.7934C150.765 28.8616 152.516 27.1244 154.253 25.4984C154.362 25.3953 154.489 25.3146 154.629 25.2609C154.769 25.2072 154.918 25.1815 155.068 25.1854C155.217 25.1893 155.365 25.2226 155.502 25.2835C155.638 25.3443 155.762 25.4315 155.865 25.5401C155.968 25.6487 156.049 25.7766 156.103 25.9163C156.156 26.0561 156.182 26.2051 156.178 26.3548C156.174 26.5045 156.141 26.652 156.08 26.7888C156.019 26.9256 155.932 27.0491 155.823 27.1522C154.114 28.7643 152.377 30.4737 150.528 32.3777C150.416 32.4988 150.278 32.593 150.124 32.6531C149.97 32.7133 149.804 32.7379 149.639 32.7251H149.681ZM243.808 26.4713C243.608 26.4698 243.412 26.4166 243.239 26.3167C243.066 26.2168 242.922 26.0738 242.821 25.9015C241.616 23.7745 240.255 21.7399 238.749 19.8144C238.658 19.6958 238.591 19.5603 238.552 19.4158C238.513 19.2713 238.503 19.1206 238.522 18.9721C238.542 18.8237 238.59 18.6806 238.665 18.5509C238.739 18.4212 238.839 18.3075 238.958 18.2162C239.076 18.1249 239.212 18.058 239.356 18.0191C239.501 17.9801 239.651 17.9701 239.8 17.9894C239.948 18.0088 240.091 18.0572 240.221 18.1319C240.351 18.2065 240.465 18.306 240.556 18.4247C242.127 20.4348 243.548 22.5576 244.808 24.7758C244.955 25.04 244.991 25.351 244.911 25.642C244.83 25.933 244.639 26.1809 244.378 26.3323C244.192 26.4386 243.979 26.487 243.766 26.4713H243.808ZM165.301 18.7721C165.123 18.7738 164.947 18.733 164.788 18.6533C164.628 18.5736 164.49 18.4571 164.384 18.3135C164.294 18.1932 164.229 18.0563 164.193 17.9108C164.156 17.7652 164.148 17.6138 164.17 17.4653C164.192 17.3168 164.243 17.1741 164.32 17.0454C164.398 16.9167 164.5 16.8045 164.62 16.7153C166.649 15.2005 168.79 13.7552 170.86 12.4349C170.986 12.3531 171.126 12.2971 171.274 12.2702C171.421 12.2434 171.572 12.2462 171.719 12.2786C171.865 12.3109 172.003 12.3722 172.125 12.4587C172.248 12.5452 172.352 12.6552 172.431 12.7823C172.593 13.039 172.648 13.3493 172.583 13.6459C172.517 13.9425 172.338 14.2014 172.083 14.3666C170.027 15.6591 167.914 17.0627 165.982 18.5359C165.776 18.695 165.521 18.7784 165.26 18.7721H165.301ZM230.049 10.8784C229.804 10.8794 229.566 10.8014 229.368 10.656C227.404 9.22034 225.327 7.94684 223.156 6.84814C223.022 6.78161 222.902 6.68927 222.804 6.57641C222.705 6.46354 222.63 6.33238 222.582 6.1904C222.534 6.04841 222.515 5.89841 222.525 5.74896C222.536 5.59951 222.575 5.45353 222.642 5.31942C222.779 5.04737 223.018 4.84061 223.307 4.74427C223.596 4.64794 223.912 4.66985 224.185 4.80522C226.467 5.96039 228.651 7.29894 230.716 8.80768C230.915 8.94769 231.063 9.14745 231.14 9.37781C231.217 9.60818 231.219 9.85709 231.144 10.0883C231.07 10.3194 230.923 10.5208 230.726 10.6629C230.529 10.8051 230.292 10.8805 230.049 10.8784V10.8784ZM183.354 8.16839C183.09 8.18452 182.828 8.10804 182.614 7.95211C182.4 7.79618 182.247 7.57054 182.181 7.31396C182.115 7.05739 182.141 6.78591 182.253 6.54619C182.366 6.30647 182.559 6.11347 182.798 6.0004C185.036 4.98589 187.398 4.02697 189.747 3.13753C190.031 3.03249 190.345 3.04449 190.62 3.17089C190.895 3.2973 191.108 3.52775 191.213 3.81156C191.318 4.09537 191.306 4.40928 191.18 4.68424C191.053 4.9592 190.823 5.17268 190.539 5.27773C188.177 6.15326 185.87 7.09828 183.688 8.0572C183.561 8.1185 183.425 8.15619 183.285 8.16839H183.354ZM210.885 2.90128H210.593C208.188 2.54019 205.754 2.41452 203.325 2.52605C203.022 2.53895 202.727 2.43126 202.505 2.22666C202.282 2.02207 202.149 1.73733 202.136 1.43509C202.124 1.13286 202.231 0.837883 202.436 0.615047C202.64 0.392211 202.925 0.259773 203.227 0.246873C205.796 0.133021 208.369 0.263313 210.913 0.635999C211.194 0.679996 211.449 0.827885 211.627 1.05051C211.805 1.27313 211.893 1.55434 211.874 1.83866C211.855 2.12299 211.73 2.3898 211.523 2.5865C211.317 2.7832 211.045 2.89551 210.76 2.90128H210.885Z" fill="#5577E0"/>
<path d="M223.452 272.195C223.214 272.192 222.981 272.12 222.784 271.986C221.742 271.222 220.714 270.43 219.713 269.638C219.572 269.556 219.45 269.445 219.356 269.312C219.261 269.18 219.196 269.028 219.165 268.868C219.134 268.708 219.138 268.543 219.176 268.385C219.214 268.227 219.286 268.078 219.386 267.95C219.486 267.821 219.613 267.716 219.758 267.641C219.902 267.565 220.061 267.522 220.224 267.513C220.386 267.505 220.549 267.531 220.701 267.591C220.852 267.65 220.99 267.742 221.103 267.859C222.062 268.623 223.076 269.387 224.091 270.138C224.284 270.28 224.428 270.481 224.501 270.71C224.573 270.939 224.572 271.185 224.496 271.413C224.421 271.641 224.275 271.84 224.08 271.98C223.885 272.121 223.65 272.196 223.41 272.195H223.452Z" fill="#5577E0"/>
<path d="M316.061 299.735C315.759 299.735 315.469 299.615 315.256 299.402C315.042 299.188 314.922 298.898 314.922 298.596C314.922 298.294 315.042 298.004 315.256 297.79C315.469 297.576 315.759 297.456 316.061 297.456C318.528 297.324 320.975 296.956 323.372 296.358C323.519 296.323 323.673 296.318 323.823 296.342C323.973 296.367 324.116 296.42 324.245 296.5C324.375 296.58 324.487 296.685 324.575 296.809C324.664 296.932 324.727 297.072 324.761 297.22C324.828 297.518 324.775 297.831 324.614 298.091C324.453 298.351 324.197 298.537 323.9 298.61C321.344 299.24 318.733 299.622 316.103 299.749L316.061 299.735ZM336.546 294.093C336.288 294.092 336.038 294.003 335.837 293.842C335.636 293.68 335.495 293.455 335.439 293.203C335.382 292.951 335.413 292.688 335.526 292.455C335.639 292.223 335.827 292.036 336.06 291.925C338.328 290.865 340.536 289.682 342.675 288.381C342.936 288.231 343.246 288.187 343.539 288.26C343.831 288.332 344.085 288.515 344.245 288.77C344.399 289.031 344.445 289.341 344.372 289.635C344.3 289.929 344.114 290.182 343.856 290.341C341.646 291.675 339.368 292.895 337.033 293.996C336.879 294.063 336.713 294.096 336.546 294.093V294.093ZM354.335 282.447C354.17 282.445 354.007 282.41 353.857 282.343C353.706 282.276 353.571 282.179 353.459 282.058C353.361 281.944 353.287 281.812 353.24 281.669C353.193 281.526 353.175 281.376 353.186 281.226C353.198 281.076 353.239 280.93 353.308 280.796C353.376 280.662 353.47 280.543 353.584 280.446C355.447 278.834 357.281 277.097 359.046 275.276C359.258 275.059 359.548 274.934 359.851 274.93C360.155 274.926 360.448 275.043 360.665 275.255C360.883 275.467 361.007 275.757 361.011 276.06C361.015 276.364 360.898 276.657 360.686 276.874C358.879 278.736 356.989 280.515 355.127 282.169C355.021 282.267 354.896 282.342 354.76 282.39C354.624 282.438 354.479 282.457 354.335 282.447V282.447ZM368.677 266.743C368.436 266.746 368.201 266.668 368.01 266.521C367.888 266.432 367.785 266.321 367.706 266.193C367.628 266.065 367.575 265.922 367.552 265.774C367.529 265.625 367.535 265.473 367.571 265.327C367.606 265.181 367.671 265.044 367.76 264.922C369.15 262.949 370.637 260.85 371.929 258.696C372.091 258.44 372.348 258.259 372.644 258.193C372.94 258.126 373.25 258.18 373.506 258.342C373.762 258.504 373.944 258.762 374.01 259.057C374.077 259.353 374.023 259.663 373.861 259.919C372.471 262.115 371.081 264.255 369.539 266.284C369.437 266.419 369.308 266.53 369.159 266.609C369.01 266.689 368.845 266.734 368.677 266.743V266.743ZM379.642 248.496C379.465 248.492 379.291 248.454 379.128 248.385C378.859 248.247 378.655 248.011 378.559 247.725C378.463 247.439 378.483 247.127 378.614 246.856C379.698 244.632 380.754 242.325 381.754 239.991C381.872 239.71 382.097 239.489 382.378 239.374C382.66 239.259 382.975 239.261 383.255 239.379C383.535 239.497 383.757 239.721 383.872 240.003C383.987 240.284 383.985 240.6 383.867 240.88C382.838 243.27 381.768 245.605 380.657 247.829C380.569 248.025 380.427 248.192 380.247 248.311C380.067 248.429 379.857 248.493 379.642 248.496V248.496ZM387.619 228.748C387.504 228.766 387.387 228.766 387.272 228.748C386.994 228.655 386.762 228.459 386.625 228.2C386.488 227.941 386.456 227.64 386.535 227.358C387.313 224.954 388.022 222.508 388.648 220.103C388.729 219.814 388.919 219.567 389.178 219.415C389.437 219.262 389.745 219.215 390.037 219.283C390.182 219.32 390.318 219.386 390.437 219.476C390.557 219.567 390.657 219.68 390.732 219.809C390.807 219.939 390.855 220.082 390.875 220.23C390.894 220.378 390.883 220.529 390.843 220.673C390.204 223.133 389.454 225.607 388.703 228.053C388.612 228.263 388.46 228.442 388.267 228.565C388.074 228.689 387.848 228.753 387.619 228.748V228.748ZM392.553 208.013H392.372C392.224 207.989 392.083 207.936 391.955 207.858C391.827 207.779 391.717 207.677 391.629 207.555C391.541 207.434 391.478 207.296 391.443 207.151C391.409 207.005 391.403 206.854 391.427 206.706C391.802 204.246 392.122 201.717 392.372 199.216C392.402 198.913 392.55 198.635 392.784 198.442C393.019 198.249 393.321 198.158 393.623 198.187C393.925 198.217 394.203 198.365 394.396 198.6C394.589 198.834 394.681 199.136 394.651 199.438C394.401 201.995 394.068 204.552 393.678 207.068C393.632 207.333 393.494 207.573 393.288 207.746C393.082 207.919 392.822 208.013 392.553 208.013V208.013ZM394.193 186.777C393.887 186.777 393.593 186.656 393.377 186.44C393.161 186.223 393.039 185.93 393.039 185.624V185.36C393.039 182.969 393.039 180.524 392.872 178.064C392.859 177.761 392.967 177.466 393.172 177.244C393.376 177.021 393.661 176.888 393.963 176.875C394.266 176.863 394.561 176.97 394.783 177.175C395.006 177.379 395.139 177.664 395.152 177.966C395.277 180.44 395.332 182.942 395.332 185.36V185.624C395.332 185.927 395.213 186.219 394.999 186.435C394.786 186.651 394.496 186.774 394.193 186.777V186.777ZM392.803 165.5C392.523 165.503 392.253 165.402 392.043 165.217C391.832 165.033 391.697 164.777 391.663 164.5C391.371 162.082 391.01 159.566 390.593 156.995C390.57 156.847 390.575 156.696 390.61 156.551C390.644 156.405 390.707 156.268 390.795 156.146C390.883 156.025 390.994 155.922 391.121 155.844C391.249 155.765 391.39 155.713 391.538 155.689C391.686 155.665 391.837 155.671 391.983 155.705C392.128 155.74 392.266 155.803 392.387 155.891C392.508 155.979 392.611 156.089 392.69 156.217C392.768 156.344 392.821 156.486 392.845 156.634C393.262 159.233 393.637 161.776 393.929 164.208C393.95 164.357 393.941 164.509 393.903 164.655C393.865 164.8 393.797 164.937 393.705 165.056C393.613 165.175 393.499 165.275 393.367 165.349C393.236 165.423 393.092 165.47 392.942 165.487L392.803 165.5ZM389.217 144.474C388.955 144.474 388.7 144.384 388.496 144.22C388.291 144.056 388.149 143.827 388.092 143.57C387.577 141.055 387.049 138.567 386.507 136.135C386.441 135.84 386.494 135.531 386.656 135.276C386.818 135.02 387.074 134.84 387.369 134.773C387.664 134.707 387.973 134.76 388.228 134.922C388.484 135.084 388.665 135.34 388.731 135.635C389.278 138.099 389.815 140.587 390.343 143.098C390.409 143.4 390.353 143.716 390.186 143.977C390.019 144.237 389.756 144.421 389.454 144.488L389.217 144.474ZM384.659 123.628C384.397 123.625 384.144 123.535 383.94 123.371C383.736 123.207 383.593 122.979 383.533 122.724C382.936 119.945 382.422 117.457 382.005 115.234C381.973 115.085 381.97 114.932 381.998 114.783C382.026 114.633 382.084 114.491 382.168 114.365C382.251 114.238 382.359 114.129 382.486 114.045C382.612 113.961 382.754 113.902 382.903 113.874C383.052 113.845 383.205 113.846 383.354 113.878C383.503 113.909 383.643 113.97 383.768 114.056C383.893 114.143 383.999 114.254 384.08 114.382C384.162 114.51 384.217 114.653 384.242 114.803C384.673 116.999 385.173 119.431 385.771 122.238C385.808 122.387 385.814 122.542 385.79 122.693C385.765 122.844 385.711 122.989 385.629 123.119C385.547 123.249 385.44 123.361 385.314 123.448C385.188 123.536 385.045 123.597 384.895 123.628H384.659ZM381.032 102.615C380.749 102.613 380.476 102.507 380.266 102.318C380.056 102.128 379.923 101.868 379.892 101.586C379.628 98.9597 379.475 96.5555 379.434 94.2068V93.8872C379.432 93.7375 379.459 93.589 379.515 93.45C379.571 93.311 379.653 93.1844 379.758 93.0773C379.862 92.9701 379.987 92.8847 380.124 92.8257C380.262 92.7668 380.41 92.7355 380.559 92.7337C380.711 92.7281 380.861 92.753 381.003 92.8071C381.144 92.8612 381.273 92.9432 381.382 93.0483C381.491 93.1534 381.578 93.2794 381.637 93.4187C381.696 93.5581 381.727 93.708 381.727 93.8594V94.1512C381.727 96.4443 381.921 98.7929 382.185 101.35C382.203 101.501 382.19 101.654 382.147 101.8C382.104 101.945 382.033 102.081 381.937 102.199C381.841 102.317 381.723 102.414 381.589 102.486C381.455 102.557 381.308 102.601 381.157 102.615H381.032ZM381.768 81.3934H381.518C381.37 81.3591 381.23 81.2958 381.107 81.2073C380.983 81.1188 380.879 81.0067 380.799 80.8776C380.718 80.7485 380.665 80.6048 380.64 80.4548C380.616 80.3048 380.622 80.1515 380.657 80.0037C381.207 77.4265 382.09 74.9319 383.283 72.5825C383.352 72.4492 383.446 72.3308 383.56 72.2339C383.674 72.137 383.806 72.0635 383.949 72.0177C384.091 71.9719 384.242 71.9546 384.391 71.9669C384.54 71.9791 384.686 72.0206 384.819 72.0891C384.952 72.1575 385.07 72.2515 385.167 72.3658C385.264 72.48 385.338 72.6122 385.384 72.7548C385.429 72.8974 385.447 73.0476 385.434 73.1969C385.422 73.3461 385.381 73.4915 385.312 73.6248C384.208 75.8275 383.39 78.1628 382.88 80.5735C382.815 80.8145 382.673 81.0272 382.474 81.1781C382.275 81.3291 382.032 81.4097 381.782 81.4073L381.768 81.3934ZM422.071 71.6652C421.886 71.6667 421.703 71.6187 421.543 71.5262C419.208 70.2755 416.929 69.1915 414.775 68.2882C414.636 68.2307 414.51 68.1464 414.404 68.0402C414.298 67.934 414.213 67.808 414.156 67.6693C414.099 67.5305 414.069 67.3818 414.069 67.2317C414.069 67.0816 414.099 66.9329 414.156 66.7942C414.214 66.6555 414.298 66.5295 414.404 66.4233C414.51 66.3172 414.636 66.233 414.775 66.1756C414.914 66.1181 415.063 66.0886 415.213 66.0886C415.363 66.0887 415.511 66.1183 415.65 66.1758C417.888 67.1069 420.222 68.2326 422.599 69.5111C422.829 69.6285 423.012 69.8202 423.118 70.0551C423.225 70.2899 423.248 70.5539 423.185 70.804C423.123 71.054 422.977 71.2754 422.772 71.4318C422.567 71.5882 422.315 71.6705 422.057 71.6652H422.071ZM394.457 65.6338C394.18 65.6373 393.911 65.5399 393.701 65.3599C393.491 65.1799 393.353 64.9295 393.314 64.6554C393.275 64.3814 393.337 64.1025 393.488 63.8708C393.64 63.639 393.87 63.4704 394.137 63.3963C396.716 62.675 399.404 62.4208 402.072 62.6458C402.376 62.6672 402.659 62.8078 402.859 63.0369C403.06 63.2659 403.162 63.565 403.143 63.8688C403.114 64.1686 402.971 64.4459 402.743 64.6427C402.515 64.8395 402.22 64.9406 401.92 64.925C399.518 64.7207 397.099 64.9466 394.776 65.5921C394.656 65.6048 394.534 65.6001 394.415 65.5782L394.457 65.6338Z" fill="#5577E0"/>
<path d="M254.756 222.076C254.756 222.076 244.542 217.99 236.37 229.552C228.198 241.115 225.488 258.806 219.373 267.645C213.259 276.484 214.607 317.301 214.607 317.301C214.607 317.301 225.488 315.911 231.617 303.695C234.727 297.137 238.609 290.974 243.18 285.337L249.976 243.839L254.756 222.076Z" fill="url(#paint16_linear)"/>
<path d="M234.347 195.545C234.347 195.545 233.735 192.363 237.738 190.792C241.74 189.222 235.028 180.578 235.028 180.578C235.028 180.578 218.24 181.828 225.3 197.88C232.36 213.931 234.347 195.545 234.347 195.545Z" fill="url(#paint17_linear)"/>
<path d="M249.979 222.076C249.979 222.076 251.368 223.466 247.269 244.52C243.169 265.575 235.706 276.485 245.226 287.38C254.745 298.276 262.222 318.663 258.831 343.15H349.289C349.289 343.15 346.579 318.663 339.089 306.42L324.121 221.409C319.716 216.35 311.933 214.572 304.401 214.613C304.401 214.599 283.999 230.915 249.979 222.076Z" fill="url(#paint18_linear)"/>
<path d="M272.438 147.259C272.438 147.259 273.118 134.335 283.319 133.654C293.52 132.973 304.402 152.707 299.635 163.589C294.868 174.471 283.319 166.98 283.319 166.98L272.438 147.259Z" fill="url(#paint19_linear)"/>
<path d="M267.675 148.613C268.972 147.388 270.661 146.664 272.442 146.57C273.123 146.57 281.962 149.975 286.715 160.857C291.468 171.738 284.686 171.057 284.686 171.057L267.675 148.613Z" fill="#F9ECDC"/>
<path d="M237.246 191.411C237.246 191.411 223.057 167.299 236.37 153.388C245.195 144.174 258.787 142.882 269.724 147.829C273.691 149.605 277.215 152.239 280.041 155.541C282.867 158.843 284.925 162.731 286.067 166.924C290.82 184.616 284.025 194.135 283.288 207.06L237.246 191.411Z" fill="url(#paint20_linear)"/>
<path d="M278.548 190.113C278.548 190.113 282.633 208.472 289.429 211.877C294.122 213.995 299.256 214.949 304.397 214.656C304.397 214.656 287.386 235.002 273.128 235.002C258.869 235.002 254.074 222.077 254.074 222.077C254.074 222.077 261.551 222.758 265.637 219.298C269.723 215.837 265.637 212.502 265.637 212.502L278.548 190.113Z" fill="url(#paint21_linear)"/>
<path d="M236.371 190.112C236.371 190.112 253.382 215.961 262.901 216.642C272.421 217.323 278.55 203.037 278.55 190.112C278.55 190.112 283.997 181.94 279.939 176.506C275.881 171.073 273.144 179.897 275.173 186.707C275.173 186.707 269.058 185.317 265.653 177.187C265.653 177.187 251.366 180.578 241.166 173.102C241.166 173.102 243.862 186.026 236.371 190.112Z" fill="url(#paint22_linear)"/>
<path d="M233.66 210.512C233.66 210.512 245.222 226.842 252.699 226.161C260.176 225.48 265.624 220.713 262.219 215.279C258.814 209.845 251.323 204.439 248.961 206.454C247.487 207.878 246.633 209.826 246.584 211.874C246.584 211.874 239.775 208.469 238.413 205.746C237.051 203.022 233.66 210.512 233.66 210.512Z" fill="url(#paint23_linear)"/>
<path d="M226.853 223.439C226.853 223.439 223.462 248.607 224.073 271.051C224.685 293.495 222.683 314.592 214.553 317.983C206.423 321.374 202.31 314.592 198.238 309.825C194.166 305.058 195.458 292.147 199.628 272.413C203.797 252.679 214.595 226.843 217.319 217.31C217.319 217.31 218.709 203.718 224.796 198.27C230.883 192.823 233.648 193.504 235.691 195.491C237.734 197.478 242.487 204.33 241.806 206.373C241.125 208.415 238.401 205.692 237.039 207.762C235.677 209.833 231.619 224.801 226.853 223.439Z" fill="url(#paint24_linear)"/>
<path d="M339.089 306.428C337.297 311.598 326.665 316.92 313.226 321.715C286.001 331.443 247.269 339.073 247.269 339.073C243.864 341.852 226.173 339.754 224.811 338.392C223.449 337.03 211.886 341.171 208.496 338.392C205.105 335.612 215.972 328.872 222.782 328.872H244.545C262.765 323.897 285.765 310.806 300.983 301.425C310.711 295.366 317.326 290.779 317.326 290.779C320.731 269.002 312.559 264.93 307.125 240.443C303.387 223.641 312.559 212.551 322.774 220.028C332.988 227.505 346.302 285.693 339.089 306.428Z" fill="url(#paint25_linear)"/>
<path d="M339.095 306.428C337.302 311.598 326.671 316.921 313.232 321.716C306.964 317.102 302.92 307.234 300.988 301.425C310.716 295.366 317.332 290.78 317.332 290.78C320.736 269.003 312.565 264.931 307.131 240.444C303.393 223.642 312.565 212.551 322.779 220.028C332.994 227.505 346.308 285.693 339.095 306.428Z" fill="url(#paint26_linear)"/>
<path d="M515.001 340.445H0.769531V350.646H515.001V340.445Z" fill="#E2EBFC"/>
<path d="M343.282 80.6321C345.073 69.6012 337.582 59.2074 326.551 57.4168C315.52 55.6263 305.126 63.117 303.336 74.1479C301.545 85.1788 309.036 95.5726 320.067 97.3632C331.098 99.1538 341.492 91.663 343.282 80.6321Z" fill="#E2EBFC"/>
<path d="M327.987 71.7068C327.987 71.7068 324.874 72.8741 324.096 70.5394C323.317 68.2046 327.209 62.3677 329.154 62.7568C331.1 63.146 333.824 68.4687 333.824 70.9285C333.824 73.708 329.543 86.5075 324.096 90.0096C318.648 93.5118 312.019 91.9553 312.797 88.4531C313.575 84.951 316.313 80.6706 317.48 81.0597C318.648 81.4488 321.761 85.3401 321.761 85.3401C321.761 85.3401 328.723 78.7249 327.987 71.7068Z" fill="#9AB6F4"/>
<path d="M478.542 128.55V159.124C478.542 159.935 478.22 160.712 477.647 161.286C477.073 161.859 476.296 162.181 475.485 162.181H424.468C423.657 162.181 422.879 161.859 422.306 161.286C421.732 160.712 421.41 159.935 421.41 159.124V128.55C421.41 127.739 421.732 126.961 422.306 126.388C422.879 125.814 423.657 125.492 424.468 125.492H475.485C475.886 125.492 476.284 125.571 476.655 125.725C477.026 125.879 477.363 126.104 477.647 126.388C477.931 126.672 478.156 127.009 478.31 127.38C478.463 127.751 478.542 128.148 478.542 128.55V128.55Z" fill="#9AB6F4"/>
<path d="M478.233 127.21L449.966 146.569L421.754 127.113C422.012 126.617 422.401 126.202 422.879 125.912C423.357 125.623 423.905 125.471 424.464 125.473H475.481C476.057 125.472 476.622 125.635 477.109 125.943C477.596 126.25 477.986 126.69 478.233 127.21V127.21Z" fill="#E2EBFC"/>
<path d="M107.818 128.55V159.124C107.814 159.937 107.489 160.714 106.914 161.287C106.338 161.86 105.559 162.182 104.747 162.182H53.7432C52.9311 162.182 52.1519 161.86 51.5763 161.287C51.0008 160.714 50.6755 159.937 50.6719 159.124V128.55C50.6719 128.147 50.7514 127.749 50.9059 127.377C51.0605 127.005 51.2869 126.667 51.5723 126.383C51.8577 126.099 52.1963 125.874 52.5689 125.721C52.9414 125.569 53.3406 125.491 53.7432 125.493H104.747C105.327 125.482 105.897 125.639 106.39 125.945C106.883 126.251 107.278 126.692 107.526 127.216C107.73 127.631 107.83 128.088 107.818 128.55V128.55Z" fill="#9AB6F4"/>
<path d="M107.502 127.21L79.2491 146.569L51.0234 127.112C51.289 126.608 51.6895 126.187 52.1804 125.898C52.6713 125.608 53.2331 125.461 53.8029 125.472H104.806C105.374 125.479 105.928 125.646 106.404 125.953C106.881 126.26 107.262 126.696 107.502 127.21V127.21Z" fill="#E2EBFC"/>
<path d="M30.2867 56.9496L23.0461 52.9193C22.9278 52.8549 22.7924 52.8287 22.6586 52.8442C22.5248 52.8597 22.399 52.9163 22.2986 53.0061C22.1981 53.0959 22.1279 53.2145 22.0975 53.3458C22.0672 53.477 22.0781 53.6145 22.1289 53.7393L25.367 61.6608C25.4155 61.7829 25.4269 61.9166 25.3997 62.0452C25.3725 62.1738 25.3079 62.2915 25.2141 62.3835L16.0279 71.0415C15.9484 71.1174 15.8511 71.172 15.7449 71.2003C15.6387 71.2286 15.5271 71.2296 15.4204 71.2033C15.3137 71.1769 15.2154 71.1241 15.1345 71.0497C15.0537 70.9753 14.9929 70.8816 14.9579 70.7775L0.824178 27.6955C0.787355 27.5722 0.787792 27.4408 0.825408 27.3177C0.863023 27.1947 0.936131 27.0854 1.0356 27.0038C1.13507 26.9221 1.25644 26.8717 1.38448 26.8588C1.51252 26.8459 1.64155 26.871 1.75532 26.9312L39.6535 47.5132C39.7432 47.5625 39.82 47.6322 39.8778 47.7166C39.9356 47.801 39.9728 47.8979 39.9863 47.9993C39.9998 48.1007 39.9893 48.2039 39.9557 48.3005C39.922 48.3971 39.8661 48.4845 39.7925 48.5555L31.0232 56.894C30.9204 56.9765 30.795 57.026 30.6635 57.0359C30.5321 57.0458 30.4007 57.0157 30.2867 56.9496V56.9496Z" fill="#E2EBFC"/>
<path d="M434.176 79.0468L441.833 82.2293C441.956 82.2773 442.091 82.2867 442.22 82.2564C442.349 82.2261 442.465 82.1575 442.554 82.0596C442.643 81.9618 442.7 81.8392 442.717 81.7082C442.735 81.5772 442.713 81.4439 442.653 81.326L438.484 73.8075C438.423 73.6936 438.397 73.5642 438.409 73.4356C438.421 73.307 438.472 73.1849 438.553 73.0848L446.683 63.3566C446.755 63.2747 446.846 63.2119 446.948 63.1739C447.049 63.136 447.159 63.124 447.267 63.1392C447.374 63.1544 447.477 63.1962 447.564 63.2609C447.651 63.3255 447.721 63.411 447.767 63.5095L466.682 104.674C466.74 104.79 466.762 104.922 466.743 105.052C466.724 105.181 466.666 105.302 466.577 105.397C466.487 105.493 466.371 105.558 466.243 105.585C466.115 105.613 465.982 105.6 465.862 105.549L425.865 89.4143C425.771 89.376 425.686 89.3162 425.619 89.2397C425.552 89.1631 425.504 89.0719 425.478 88.9733C425.452 88.8748 425.45 88.7716 425.472 88.672C425.493 88.5724 425.537 88.4791 425.601 88.3997L433.384 79.158C433.486 79.0563 433.618 78.9905 433.761 78.9705C433.904 78.9504 434.049 78.9772 434.176 79.0468V79.0468Z" fill="#E2EBFC"/>
<defs>
<linearGradient id="paint0_linear" x1="58.4307" y1="316.932" x2="148.541" y2="349.73" gradientUnits="userSpaceOnUse">
<stop stop-color="#E7EFFC"/>
<stop offset="1" stop-color="#9CB5F6"/>
</linearGradient>
<linearGradient id="paint1_linear" x1="57600.4" y1="29379.8" x2="73344.7" y2="40959.8" gradientUnits="userSpaceOnUse">
<stop stop-color="#E7EFFC"/>
<stop offset="1" stop-color="#9CB5F6"/>
</linearGradient>
<linearGradient id="paint2_linear" x1="38619.6" y1="24857.6" x2="46448.1" y2="29279.9" gradientUnits="userSpaceOnUse">
<stop stop-color="#E7EFFC"/>
<stop offset="1" stop-color="#9CB5F6"/>
</linearGradient>
<linearGradient id="paint3_linear" x1="52143.4" y1="46438.8" x2="69468.3" y2="52720.5" gradientUnits="userSpaceOnUse">
<stop stop-color="#E7EFFC"/>
<stop offset="1" stop-color="#9CB5F6"/>
</linearGradient>
<linearGradient id="paint4_linear" x1="39312.4" y1="38443.3" x2="48782.2" y2="41523.4" gradientUnits="userSpaceOnUse">
<stop stop-color="#E7EFFC"/>
<stop offset="1" stop-color="#9CB5F6"/>
</linearGradient>
<linearGradient id="paint5_linear" x1="52277.5" y1="52107.9" x2="68801.9" y2="56880.3" gradientUnits="userSpaceOnUse">
<stop stop-color="#E7EFFC"/>
<stop offset="1" stop-color="#9CB5F6"/>
</linearGradient>
<linearGradient id="paint6_linear" x1="39521.1" y1="45755.4" x2="48834.6" y2="48052.5" gradientUnits="userSpaceOnUse">
<stop stop-color="#E7EFFC"/>
<stop offset="1" stop-color="#9CB5F6"/>
</linearGradient>
<linearGradient id="paint7_linear" x1="409.953" y1="332.552" x2="505.067" y2="332.552" gradientUnits="userSpaceOnUse">
<stop stop-color="#9CB5F6"/>
<stop offset="1" stop-color="#E7EFFC"/>
</linearGradient>
<linearGradient id="paint8_linear" x1="91261.5" y1="30667.2" x2="111825" y2="30667.2" gradientUnits="userSpaceOnUse">
<stop stop-color="#9CB5F6"/>
<stop offset="1" stop-color="#E7EFFC"/>
</linearGradient>
<linearGradient id="paint9_linear" x1="61472.6" y1="25928.4" x2="69837" y2="25928.4" gradientUnits="userSpaceOnUse">
<stop stop-color="#9CB5F6"/>
<stop offset="1" stop-color="#E7EFFC"/>
</linearGradient>
<linearGradient id="paint10_linear" x1="74553.7" y1="49174.4" x2="88981.4" y2="49174.4" gradientUnits="userSpaceOnUse">
<stop stop-color="#9CB5F6"/>
<stop offset="1" stop-color="#E7EFFC"/>
</linearGradient>
<linearGradient id="paint11_linear" x1="55023.5" y1="40329.1" x2="62463.9" y2="40329.1" gradientUnits="userSpaceOnUse">
<stop stop-color="#9CB5F6"/>
<stop offset="1" stop-color="#E7EFFC"/>
</linearGradient>
<linearGradient id="paint12_linear" x1="65247.2" y1="55224.9" x2="77521.8" y2="55224.9" gradientUnits="userSpaceOnUse">
<stop stop-color="#9CB5F6"/>
<stop offset="1" stop-color="#E7EFFC"/>
</linearGradient>
<linearGradient id="paint13_linear" x1="48365.7" y1="48099.5" x2="54795.6" y2="48099.5" gradientUnits="userSpaceOnUse">
<stop stop-color="#9CB5F6"/>
<stop offset="1" stop-color="#E7EFFC"/>
</linearGradient>
<linearGradient id="paint14_linear" x1="330.3" y1="321.23" x2="382.86" y2="257.997" gradientUnits="userSpaceOnUse">
<stop stop-color="#5E79F6"/>
<stop offset="1" stop-color="#98C0FC"/>
</linearGradient>
<linearGradient id="paint15_linear" x1="23366.9" y1="11953.5" x2="26091.8" y2="11953.5" gradientUnits="userSpaceOnUse">
<stop stop-color="#5E79F6"/>
<stop offset="1" stop-color="#98C0FC"/>
</linearGradient>
<linearGradient id="paint16_linear" x1="19536.4" y1="34353.6" x2="17830.5" y2="33453.9" gradientUnits="userSpaceOnUse">
<stop stop-color="#FA775E"/>
<stop offset="1" stop-color="#FFC484"/>
</linearGradient>
<linearGradient id="paint17_linear" x1="223.549" y1="192.515" x2="239.016" y2="192.515" gradientUnits="userSpaceOnUse">
<stop stop-color="#EA425E"/>
<stop offset="1" stop-color="#FF866D"/>
</linearGradient>
<linearGradient id="paint18_linear" x1="59599.3" y1="52804.6" x2="51808.5" y2="42288.8" gradientUnits="userSpaceOnUse">
<stop stop-color="#FA775E"/>
<stop offset="1" stop-color="#FFC484"/>
</linearGradient>
<linearGradient id="paint19_linear" x1="272.438" y1="151.568" x2="300.788" y2="151.568" gradientUnits="userSpaceOnUse">
<stop stop-color="#4944A8"/>
<stop offset="1" stop-color="#302B92"/>
</linearGradient>
<linearGradient id="paint20_linear" x1="26851.3" y1="17238.1" x2="29193.4" y2="17238.1" gradientUnits="userSpaceOnUse">
<stop stop-color="#4944A8"/>
<stop offset="1" stop-color="#302B92"/>
</linearGradient>
<linearGradient id="paint21_linear" x1="278.812" y1="214.072" x2="281.299" y2="239.519" gradientUnits="userSpaceOnUse">
<stop stop-color="#F9C795"/>
<stop offset="1" stop-color="#FEE3C2"/>
</linearGradient>
<linearGradient id="paint22_linear" x1="23372.1" y1="13701" x2="22181.3" y2="12386.8" gradientUnits="userSpaceOnUse">
<stop stop-color="#F9C795"/>
<stop offset="1" stop-color="#FEE3C2"/>
</linearGradient>
<linearGradient id="paint23_linear" x1="14102.4" y1="6596.25" x2="14732.8" y2="6596.25" gradientUnits="userSpaceOnUse">
<stop stop-color="#EA425E"/>
<stop offset="1" stop-color="#FF866D"/>
</linearGradient>
<linearGradient id="paint24_linear" x1="21865.9" y1="42256.4" x2="20694" y2="42105.3" gradientUnits="userSpaceOnUse">
<stop stop-color="#F9C795"/>
<stop offset="1" stop-color="#FEE3C2"/>
</linearGradient>
<linearGradient id="paint25_linear" x1="68235" y1="47397.8" x2="67407.8" y2="45706" gradientUnits="userSpaceOnUse">
<stop stop-color="#F9C795"/>
<stop offset="1" stop-color="#FEE3C2"/>
</linearGradient>
<linearGradient id="paint26_linear" x1="22429.3" y1="36435.8" x2="21266.8" y2="36335.3" gradientUnits="userSpaceOnUse">
<stop stop-color="#FA775E"/>
<stop offset="1" stop-color="#FFC484"/>
</linearGradient>
</defs>
</svg>
