<svg width="160" height="198" viewBox="0 0 160 198" fill="none" xmlns="http://www.w3.org/2000/svg">
<path d="M102.749 196.998L97.5024 193.846V140.414L102.749 143.566V196.998Z" fill="#7389D9"/>
<path d="M11.3816 142.043L6.13477 138.91V85.4595L11.3816 88.6114V142.043Z" fill="#7389D9"/>
<path d="M11.3828 142.041L70.4951 111.182L42.4866 71.3779L11.3828 88.6096V142.041Z" fill="#879ADE"/>
<path d="M156.936 164.293L102.75 197.001V143.57L156.936 110.843V164.293Z" fill="#879ADE"/>
<path d="M102.636 143.813L4.49316 84.9835V81.6995L158.672 106.858V110.123L102.636 143.813Z" fill="#99AFF0"/>
<path d="M103.032 140.622L4.88867 81.7924L60.9246 48.1029L159.068 106.932L103.032 140.622Z" fill="#99AFF0"/>
<path d="M47.7903 82.6788L80.0454 101.458C80.3039 101.585 80.588 101.651 80.8759 101.651C81.1637 101.651 81.4478 101.585 81.7063 101.458L94.6536 95.3807C95.0877 95.1354 95.5218 89.7186 94.9556 91.4739L59.8883 76.7902C59.6298 76.6635 59.3458 76.5977 59.0579 76.5977C58.77 76.5977 58.486 76.6635 58.2275 76.7902L47.6582 80.9046C47.243 81.0745 47.2996 82.3957 47.7903 82.6788Z" fill="#7389D9"/>
<path d="M47.7903 81.7943L80.0454 100.555C80.3039 100.681 80.588 100.747 80.8759 100.747C81.1637 100.747 81.4478 100.681 81.7063 100.555C81.7063 100.555 96.39 91.8162 95.1443 91.0046L62.6817 72.7349C62.1909 72.4329 58.6616 74.509 58.2275 74.7544L47.6582 80.9072C47.243 81.0771 47.2996 81.5111 47.7903 81.7943Z" fill="#A2BFEF"/>
<path d="M60.0006 76.7956L58.1133 75.6821L59.1136 75.1158L61.0009 76.2105L60.0006 76.7956Z" fill="#879ADE"/>
<path d="M62.36 78.152L60.4727 77.0574L61.4541 76.4723L63.3603 77.567L62.36 78.152Z" fill="#879ADE"/>
<path d="M58.0192 77.9471L56.1318 76.8525L57.7738 75.8899L59.6612 76.9846L58.0192 77.9471Z" fill="#879ADE"/>
<path d="M60.3786 79.2996L58.4912 78.2049L60.1143 77.2612L62.0206 78.3559L60.3786 79.2996Z" fill="#879ADE"/>
<path d="M90.1978 94.7571L88.5747 95.7008L84.3281 93.2284V92.832L90.1978 94.3419V94.7571Z" fill="#879ADE"/>
<path d="M58.9063 78.7773L57.2642 79.721L54.2256 77.9469L55.8676 77.0032L58.9063 78.7773Z" fill="#879ADE"/>
<path d="M55.8666 81.1362L52.3184 79.0601L53.9415 78.1165L57.5086 80.1737L55.8666 81.1362Z" fill="#879ADE"/>
<path d="M75.874 92.7585L73.9678 91.6639L75.6098 90.7013L77.4971 91.8148L75.874 92.7585Z" fill="#879ADE"/>
<path d="M86.3853 96.9647L84.7433 97.9272L81.3271 95.9266V95.5303L86.3853 96.5683V96.9647Z" fill="#879ADE"/>
<path d="M54.6411 82.6457L50.3945 80.1733L52.0366 79.2296L56.2831 81.6832L54.6411 82.6457Z" fill="#879ADE"/>
<path d="M57 84L55.0938 82.9053L56.7357 81.9427L58.6231 83.0563L57 84Z" fill="#879ADE"/>
<path d="M75.7799 94.9482L73.8926 93.8347L75.5346 92.891L77.4219 93.9857L75.7799 94.9482Z" fill="#879ADE"/>
<path d="M82.8384 99.042L78.7617 96.6639V96.2676L84.4804 97.6831V98.0794L82.8384 99.042Z" fill="#879ADE"/>
<path d="M57.4333 86.473L55.5459 85.3784L57.169 84.4347L59.0753 85.5294L57.4333 86.473Z" fill="#879ADE"/>
<path d="M75.5147 95.0974L73.8727 96.0411L57.8867 86.7552V86.3589L75.5147 94.701V95.0974Z" fill="#879ADE"/>
<path d="M76.2311 97.4236L74.3438 96.3289V95.9137L77.0993 96.5177V96.914L76.2311 97.4236Z" fill="#879ADE"/>
<path d="M78.5719 98.7834L76.6846 97.6887V97.2924L80.2139 97.4433V97.8397L78.5719 98.7834Z" fill="#879ADE"/>
<path d="M80.9316 100.159L79.0254 99.0453V98.6489L81.7998 99.2529V99.6492L80.9316 100.159Z" fill="#879ADE"/>
<path d="M59.2834 75.2411H58.1133V75.6752H59.2834V75.2411Z" fill="#879ADE"/>
<path d="M61.0011 75.8088H60.2461V76.1486H61.0011V75.8088Z" fill="#879ADE"/>
<path d="M63.3602 77.1727H62.0957V77.5313H63.3602V77.1727Z" fill="#879ADE"/>
<path d="M61.7561 76.6566H60.4727V77.053H61.7561V76.6566Z" fill="#879ADE"/>
<path d="M60.1332 77.8141H58.4912V78.2293H60.1332V77.8141Z" fill="#879ADE"/>
<path d="M62.0022 77.9469H60.832V78.3621H62.0022V77.9469Z" fill="#879ADE"/>
<path d="M57.509 76.3986H56.1689V76.7949H57.509V76.3986Z" fill="#879ADE"/>
<path d="M59.6608 76.5682H57.8867V76.9835H59.6608V76.5682Z" fill="#879ADE"/>
<path d="M55.6977 77.5487H54.2256V77.9451H55.6977V77.5487Z" fill="#879ADE"/>
<path d="M58.8872 78.3597H55.7354V78.775H58.8872V78.3597Z" fill="#879ADE"/>
<path d="M53.5074 78.662H52.3184V79.0395H53.5074V78.662Z" fill="#879ADE"/>
<path d="M57.5089 79.7753H54.9043V80.1905H57.5089V79.7753Z" fill="#879ADE"/>
<path d="M56.2634 81.3014H52.7529V81.6977H56.2634V81.3014Z" fill="#879ADE"/>
<path d="M51.3948 79.7753H50.3945V80.1905H51.3948V79.7753Z" fill="#879ADE"/>
<path d="M58.6406 82.6653H56.5645V83.0616H58.6406V82.6653Z" fill="#879ADE"/>
<path d="M56.3771 82.4957H55.0938V82.911H56.3771V82.4957Z" fill="#879ADE"/>
<path d="M60.0006 76.3974L58.1133 75.2839L59.1136 74.7177L61.0009 75.8123L60.0006 76.3974Z" fill="url(#paint0_linear)"/>
<path d="M62.36 77.754L60.4727 76.6593L61.4541 76.0742L63.3603 77.1689L62.36 77.754Z" fill="url(#paint1_linear)"/>
<path d="M90.5578 94.5516L88.6704 93.4569V93.0605L91.5392 93.5701V93.9665L90.5578 94.5516Z" fill="#879ADE"/>
<path d="M90.5578 94.1578L88.6704 93.0631L89.6518 92.478L91.5392 93.5727L90.5578 94.1578Z" fill="url(#paint2_linear)"/>
<path d="M58.0192 77.5491L56.1318 76.4355L57.7738 75.4918L59.6612 76.5865L58.0192 77.5491Z" fill="url(#paint3_linear)"/>
<path d="M60.3786 78.9056L58.4912 77.8109L60.1143 76.8484L62.0206 77.9619L60.3786 78.9056Z" fill="url(#paint4_linear)"/>
<path d="M83.875 92.9665L81.9688 91.8718V91.4755L85.4981 91.6265V92.0228L83.875 92.9665Z" fill="#879ADE"/>
<path d="M83.875 92.5742L81.9688 91.4795L83.6107 90.517L85.4981 91.6305L83.875 92.5742Z" fill="url(#paint5_linear)"/>
<path d="M81.5172 91.6067L79.6299 90.512V90.0968L83.1592 90.2478V90.6441L81.5172 91.6067Z" fill="#879ADE"/>
<path d="M81.5172 91.2103L79.6299 90.0968L81.2719 89.1531L83.1592 90.2478L81.5172 91.2103Z" fill="url(#paint6_linear)"/>
<path d="M79.1764 90.2501L77.2891 89.1366V88.7402L80.8185 88.8912V89.2876L79.1764 90.2501Z" fill="#879ADE"/>
<path d="M79.1764 89.8349L77.2891 88.7402L78.9122 87.7965L80.8185 88.8912L79.1764 89.8349Z" fill="url(#paint7_linear)"/>
<path d="M76.8171 88.8747L74.9297 87.78V87.3837L78.4591 87.5158V87.931L76.8171 88.8747Z" fill="#879ADE"/>
<path d="M76.8171 88.4751L74.9297 87.3804L76.5717 86.4178L78.4591 87.5125L76.8171 88.4751Z" fill="url(#paint8_linear)"/>
<path d="M74.4762 87.5149L72.5889 86.4014V86.005L76.1182 86.156V86.5523L74.4762 87.5149Z" fill="#879ADE"/>
<path d="M74.4762 87.0996L72.5889 86.005L74.212 85.0613L76.1182 86.156L74.4762 87.0996Z" fill="url(#paint9_linear)"/>
<path d="M72.1169 86.1321L70.2295 85.0375V84.6411L73.7589 84.7921V85.1884L72.1169 86.1321Z" fill="#879ADE"/>
<path d="M72.1169 85.7398L70.2295 84.6452L71.8715 83.6826L73.7589 84.7962L72.1169 85.7398Z" fill="url(#paint10_linear)"/>
<path d="M69.7773 84.7723L67.8711 83.6777V83.2625L71.4005 83.4134V83.8098L69.7773 84.7723Z" fill="#879ADE"/>
<path d="M69.7773 84.3759L67.8711 83.2624L69.5131 82.3187L71.4005 83.4134L69.7773 84.3759Z" fill="url(#paint11_linear)"/>
<path d="M67.4176 83.3969L65.5303 82.3022V81.9059L69.0596 82.0569V82.4532L67.4176 83.3969Z" fill="#879ADE"/>
<path d="M67.4176 83.0005L65.5303 81.9058L67.1723 80.9622L69.0596 82.0568L67.4176 83.0005Z" fill="url(#paint12_linear)"/>
<path d="M65.0788 82.0403L63.1914 80.9457V80.5493L66.7019 80.7003V81.0967L65.0788 82.0403Z" fill="#879ADE"/>
<path d="M65.0788 81.6407L63.1914 80.546L64.8145 79.5835L66.7019 80.697L65.0788 81.6407Z" fill="url(#paint13_linear)"/>
<path d="M62.7194 80.6805L60.832 79.567V79.1707L64.3614 79.3216V79.718L62.7194 80.6805Z" fill="#879ADE"/>
<path d="M62.7194 80.2654L60.832 79.1707L62.4741 78.2271L64.3614 79.3217L62.7194 80.2654Z" fill="url(#paint14_linear)"/>
<path d="M90.1978 94.3419L88.5747 95.3044L84.3281 92.832L85.9701 91.8883L90.1978 94.3419Z" fill="url(#paint15_linear)"/>
<path d="M58.9063 78.3602L57.2642 79.3228L54.2256 77.5487L55.8676 76.605L58.9063 78.3602Z" fill="url(#paint16_linear)"/>
<path d="M86.6501 96.4185L84.7627 95.3239V95.7202L86.6501 96.8149L88.2921 95.8523V95.456L86.6501 96.4185Z" fill="#879ADE"/>
<path d="M88.386 95.3864L86.4986 94.2917L84.8755 95.2354L86.7629 96.349L88.386 95.3864Z" fill="url(#paint17_linear)"/>
<path d="M55.8666 80.7381L52.3184 78.6619L53.9415 77.7183L57.5086 79.7755L55.8666 80.7381Z" fill="url(#paint18_linear)"/>
<path d="M78.3835 93.835L76.4961 92.7214V93.1367L78.3835 94.2313L80.0255 93.2688V92.8724L78.3835 93.835Z" fill="#879ADE"/>
<path d="M80.0255 92.8724L78.1381 91.7777L76.4961 92.7214L78.3835 93.8349L80.0255 92.8724Z" fill="url(#paint19_linear)"/>
<path d="M75.8346 92.3826L73.9473 91.269V91.6654L75.8346 92.7789L77.4766 91.8164V91.42L75.8346 92.3826Z" fill="#879ADE"/>
<path d="M77.4766 91.42L75.5893 90.3253L73.9473 91.269L75.8346 92.3826L77.4766 91.42Z" fill="url(#paint20_linear)"/>
<path d="M73.2878 90.9302L71.4004 89.8167V90.213L73.2878 91.3265L74.9298 90.364V89.9676L73.2878 90.9302Z" fill="#879ADE"/>
<path d="M74.9298 89.9676L73.0424 88.8729L71.4004 89.8166L73.2878 90.9301L74.9298 89.9676Z" fill="url(#paint21_linear)"/>
<path d="M70.7585 89.4589L68.8711 88.3643V88.7606L70.7585 89.8742L72.4005 88.9116V88.5153L70.7585 89.4589Z" fill="#879ADE"/>
<path d="M72.4005 88.5152L70.4942 87.4205L68.8711 88.3642L70.7585 89.4589L72.4005 88.5152Z" fill="url(#paint22_linear)"/>
<path d="M68.2096 88.0065L66.3223 86.9119V87.3082L68.2096 88.4029L69.8516 87.4592V87.0628L68.2096 88.0065Z" fill="#879ADE"/>
<path d="M69.8516 87.0596L67.9643 85.946L66.3223 86.9086L68.2096 88.0033L69.8516 87.0596Z" fill="url(#paint23_linear)"/>
<path d="M65.6628 86.5541L63.7754 85.4595V85.8558L65.6628 86.9505L67.3048 86.0068V85.6105L65.6628 86.5541Z" fill="#879ADE"/>
<path d="M67.3048 85.6072L65.4174 84.4937L63.7754 85.4562L65.6628 86.5509L67.3048 85.6072Z" fill="url(#paint24_linear)"/>
<path d="M63.1149 85.0943L61.2275 83.9996V84.396L63.1149 85.4906L64.7569 84.547V84.1506L63.1149 85.0943Z" fill="#879ADE"/>
<path d="M64.7569 84.1548L62.8695 83.0413L61.2275 84.0038L63.1149 85.0985L64.7569 84.1548Z" fill="url(#paint25_linear)"/>
<path d="M60.5661 83.6419L58.6787 82.5472V82.9436L60.5661 84.0383L62.2081 83.0946V82.6794L60.5661 83.6419Z" fill="#879ADE"/>
<path d="M62.2081 82.6835L60.3207 81.5889L58.6787 82.5514L60.5661 83.6461L62.2081 82.6835Z" fill="url(#paint26_linear)"/>
<path d="M58.0381 82.1937L56.1318 81.0802V81.4954L58.0381 82.5901L59.6612 81.6464V81.2312L58.0381 82.1937Z" fill="#879ADE"/>
<path d="M59.6612 81.2312L57.7738 80.1365L56.1318 81.0802L58.0381 82.1937L59.6612 81.2312Z" fill="url(#paint27_linear)"/>
<path d="M80.9131 95.2906L79.0068 94.1959V94.5923L80.9131 95.7058L82.5551 94.7433V94.3469L80.9131 95.2906Z" fill="#879ADE"/>
<path d="M82.5551 94.3469L80.6488 93.2522L79.0068 94.1959L80.9131 95.2905L82.5551 94.3469Z" fill="url(#paint28_linear)"/>
<path d="M86.3853 96.5684L84.7433 97.531L81.3271 95.5304L82.9692 94.5867L86.3853 96.5684Z" fill="url(#paint29_linear)"/>
<path d="M54.6411 82.2477L50.3945 79.7752L52.0366 78.8315L56.2831 81.2851L54.6411 82.2477Z" fill="url(#paint30_linear)"/>
<path d="M57 83.6092L55.0938 82.5146L56.7357 81.552L58.6231 82.6655L57 83.6092Z" fill="url(#paint31_linear)"/>
<path d="M78.1383 95.914L76.251 94.8004V95.2156L78.1383 96.3103L79.7803 95.3478V94.9514L78.1383 95.914Z" fill="#879ADE"/>
<path d="M79.7803 94.9514L77.893 93.8567L76.251 94.8004L78.1383 95.9139L79.7803 94.9514Z" fill="url(#paint32_linear)"/>
<path d="M75.7799 94.5312L73.8926 93.4365V93.8329L75.7799 94.9275L77.4219 93.9839V93.5875L75.7799 94.5312Z" fill="#879ADE"/>
<path d="M77.4219 93.5875L75.5346 92.4928L73.8926 93.4365L75.7799 94.5312L77.4219 93.5875Z" fill="url(#paint33_linear)"/>
<path d="M73.4391 93.1746L71.5518 92.08V92.4763L73.4391 93.571L75.0811 92.6084V92.2121L73.4391 93.1746Z" fill="#879ADE"/>
<path d="M75.0811 92.2163L73.1749 91.1216L71.5518 92.0841L73.4391 93.1788L75.0811 92.2163Z" fill="url(#paint34_linear)"/>
<path d="M71.0986 91.796L69.1924 90.7013V91.0977L71.0986 92.1923L72.7217 91.2486V90.8523L71.0986 91.796Z" fill="#879ADE"/>
<path d="M72.7217 90.8522L70.8344 89.7576L69.1924 90.7013L71.0986 91.7959L72.7217 90.8522Z" fill="url(#paint35_linear)"/>
<path d="M68.7389 90.4394L66.8516 89.3447V89.7411L68.7389 90.8357L70.381 89.8732V89.4768L68.7389 90.4394Z" fill="#879ADE"/>
<path d="M70.381 89.4736L68.4936 88.3789L66.8516 89.3415L68.7389 90.4361L70.381 89.4736Z" fill="url(#paint36_linear)"/>
<path d="M66.3796 89.0607L64.4922 87.9661V88.3624L66.3796 89.4571L68.0216 88.5134V88.1171L66.3796 89.0607Z" fill="#879ADE"/>
<path d="M68.0216 88.1138L66.1342 87.0002L64.4922 87.9628L66.3796 89.0575L68.0216 88.1138Z" fill="url(#paint37_linear)"/>
<path d="M64.0387 87.701L62.1514 86.5874V87.0026L64.0387 88.0973L65.6807 87.1536V86.7384L64.0387 87.701Z" fill="#879ADE"/>
<path d="M65.6807 86.7385L63.7934 85.6438L62.1514 86.5875L64.0387 87.701L65.6807 86.7385Z" fill="url(#paint38_linear)"/>
<path d="M61.6794 86.3256L59.792 85.231V85.6273L61.6794 86.722L63.3214 85.7783V85.3819L61.6794 86.3256Z" fill="#879ADE"/>
<path d="M63.3214 85.3819L61.434 84.2872L59.792 85.2309L61.6794 86.3256L63.3214 85.3819Z" fill="url(#paint39_linear)"/>
<path d="M59.3405 84.9616L57.4531 83.8669V84.2633L59.3405 85.358L60.9825 84.4143V83.9991L59.3405 84.9616Z" fill="#879ADE"/>
<path d="M60.9825 84.0032L59.0951 82.9086L57.4531 83.8711L59.3405 84.9658L60.9825 84.0032Z" fill="url(#paint40_linear)"/>
<path d="M82.8384 98.6456L78.7617 96.2675L80.4037 95.3239L84.4804 97.6831L82.8384 98.6456Z" fill="url(#paint41_linear)"/>
<path d="M50.3756 81.9831L48.4883 80.8884V81.3037L50.3756 82.3794L52.0176 81.4358V81.0394L50.3756 81.9831Z" fill="#879ADE"/>
<path d="M50.1303 79.9227L48.4883 80.8853L50.3756 81.98L52.0176 81.0363L50.1303 79.9227Z" fill="url(#paint42_linear)"/>
<path d="M52.735 83.3585L50.8477 82.245V82.6413L52.735 83.7549L54.377 82.7923V82.396L52.735 83.3585Z" fill="#879ADE"/>
<path d="M52.5255 81.3014L50.9023 82.2451L52.7897 83.3586L54.4317 82.3961L52.5255 81.3014Z" fill="url(#paint43_linear)"/>
<path d="M55.0739 84.7183L53.1865 83.6237V84.0578L55.0739 85.1713L56.7159 84.2276V83.8313L55.0739 84.7183Z" fill="#879ADE"/>
<path d="M54.8285 82.6653L53.1865 83.6278L55.0739 84.7225L56.7159 83.7788L54.8285 82.6653Z" fill="url(#paint44_linear)"/>
<path d="M57.3776 86.0822L55.4902 84.9875V85.365L57.3776 86.4786L59.0196 85.5349V85.1385L57.3776 86.0822Z" fill="#879ADE"/>
<path d="M57.1322 84.0587L55.4902 85.0213L57.3776 86.1159L59.0196 85.1723L57.1322 84.0587Z" fill="url(#paint45_linear)"/>
<path d="M75.5147 94.7052L73.8727 95.6489L57.8867 86.3631L59.5287 85.4005L75.5147 94.7052Z" fill="url(#paint46_linear)"/>
<path d="M76.2311 97.024L74.3438 95.9104L75.1931 95.4197L77.0993 96.5144L76.2311 97.024Z" fill="url(#paint47_linear)"/>
<path d="M78.5719 98.3838L76.6846 97.2891L78.3266 96.3265L80.2139 97.4401L78.5719 98.3838Z" fill="url(#paint48_linear)"/>
<path d="M80.9316 99.7444L79.0254 98.6497L79.8936 98.1401L81.7998 99.2537L80.9316 99.7444Z" fill="url(#paint49_linear)"/>
<path d="M84.1769 94.985L82.2896 93.8715V94.2678L84.1769 95.3814L85.8189 94.4188V94.0225L84.1769 94.985Z" fill="#879ADE"/>
<path d="M85.8201 94.0225L83.9327 92.9279L82.3096 93.8715L84.1969 94.9851L85.8201 94.0225Z" fill="url(#paint50_linear)"/>
<path d="M81.7052 93.5358L79.8179 92.4412V92.8375L81.7052 93.9322L83.3472 92.9885V92.5921L81.7052 93.5358Z" fill="#879ADE"/>
<path d="M83.3481 92.5922L81.4607 91.4976L79.8564 92.4224L81.7438 93.5359L83.3481 92.5922Z" fill="url(#paint51_linear)"/>
<path d="M79.2324 92.0982L77.3262 91.0035V91.3999L79.2324 92.4946L80.8555 91.5509V91.1545L79.2324 92.0982Z" fill="#879ADE"/>
<path d="M80.8367 91.1587L78.9493 90.0452L77.3262 90.9888L79.2135 92.1024L80.8367 91.1587Z" fill="url(#paint52_linear)"/>
<path d="M76.7419 90.668L74.8545 89.5734V89.9697L76.7419 91.0644L78.3839 90.1018V89.7055L76.7419 90.668Z" fill="#879ADE"/>
<path d="M78.3835 89.7243L76.4962 88.6296L74.873 89.5733L76.7604 90.6869L78.3835 89.7243Z" fill="url(#paint53_linear)"/>
<path d="M74.2682 89.2271L72.3809 88.1135V88.5099L74.2682 89.6234L75.9102 88.6609V88.2645L74.2682 89.2271Z" fill="#879ADE"/>
<path d="M75.9119 88.2646L74.0245 87.1699L72.4014 88.1136L74.2887 89.2271L75.9119 88.2646Z" fill="url(#paint54_linear)"/>
<path d="M71.7965 87.7779L69.9092 86.6832V87.0796L71.7965 88.1931L73.4385 87.2306V86.8342L71.7965 87.7779Z" fill="#879ADE"/>
<path d="M73.4399 86.8343L71.5525 85.7396L69.9482 86.6833L71.8356 87.778L73.4399 86.8343Z" fill="url(#paint55_linear)"/>
<path d="M69.3232 86.3403L67.417 85.2456V85.642L69.3232 86.7366L70.9464 85.7929V85.3966L69.3232 86.3403Z" fill="#879ADE"/>
<path d="M70.948 85.4008L69.0606 84.2872L67.4375 85.2309L69.3249 86.3445L70.948 85.4008Z" fill="url(#paint56_linear)"/>
<path d="M66.8327 84.9101L64.9453 83.8154V84.2118L66.8327 85.3065L68.4747 84.3628V83.9475L66.8327 84.9101Z" fill="#879ADE"/>
<path d="M68.4744 83.9443L66.587 82.8496L64.9639 83.7933L66.8512 84.9068L68.4744 83.9443Z" fill="url(#paint57_linear)"/>
<path d="M64.359 83.4766L62.4717 82.363V82.7594L64.359 83.8729L66.001 82.9104V82.514L64.359 83.4766Z" fill="#879ADE"/>
<path d="M66.0027 82.514L64.1153 81.4193L62.4922 82.363L64.3796 83.4765L66.0027 82.514Z" fill="url(#paint58_linear)"/>
<path d="M61.8874 82.02L60 80.9253V81.3216L61.8874 82.4163L63.5294 81.4726V81.0763L61.8874 82.02Z" fill="#879ADE"/>
<path d="M63.5307 81.0764L61.6433 79.9817L60.0391 80.9254L61.9264 82.02L63.5307 81.0764Z" fill="url(#paint59_linear)"/>
<path d="M59.415 80.5823L57.5088 79.4877V79.884L59.415 80.9787L61.0382 80.035V79.6387L59.415 80.5823Z" fill="#879ADE"/>
<path d="M61.0398 79.6428L59.1524 78.5293L57.5293 79.473L59.4167 80.5865L61.0398 79.6428Z" fill="url(#paint60_linear)"/>
<path d="M88.1984 93.1729L86.311 92.0782V91.6819L89.1987 92.2103V92.6067L88.1984 93.1729Z" fill="#879ADE"/>
<path d="M88.1984 92.7791L86.311 91.6844L87.3113 91.0994L89.1987 92.2129L88.1984 92.7791Z" fill="url(#paint61_linear)"/>
<path d="M85.8576 91.8131L83.9702 90.7184V90.3032L86.839 90.8317V91.228L85.8576 91.8131Z" fill="#879ADE"/>
<path d="M85.8576 91.4227L83.9702 90.3091L84.9516 89.7429L86.839 90.8376L85.8576 91.4227Z" fill="url(#paint62_linear)"/>
<path d="M83.4987 90.4377L81.6113 89.343V88.9467L84.499 89.4751V89.8715L83.4987 90.4377Z" fill="#879ADE"/>
<path d="M83.4987 90.044L81.6113 88.9493L82.6116 88.3643L84.499 89.4778L83.4987 90.044Z" fill="url(#paint63_linear)"/>
<path d="M81.1579 89.0779L79.2705 87.9832V87.568L82.1393 88.0965V88.4928L81.1579 89.0779Z" fill="#879ADE"/>
<path d="M81.1579 88.68L79.2705 87.5665L80.2519 87.0002L82.1393 88.0949L81.1579 88.68Z" fill="url(#paint64_linear)"/>
<path d="M78.7985 87.7024L76.9111 86.6078V86.2114L79.7988 86.7399V87.1362L78.7985 87.7024Z" fill="#879ADE"/>
<path d="M78.7985 87.3013L76.9111 86.2067L77.9114 85.6216L79.7988 86.7351L78.7985 87.3013Z" fill="url(#paint65_linear)"/>
<path d="M76.4577 86.3427L74.5703 85.248V84.8328L77.458 85.3612V85.7576L76.4577 86.3427Z" fill="#879ADE"/>
<path d="M76.4577 85.9449L74.5703 84.8313L75.5518 84.2651L77.458 85.3598L76.4577 85.9449Z" fill="url(#paint66_linear)"/>
<path d="M74.0983 84.9672L72.2109 83.8725V83.4762L75.0986 84.0047V84.401L74.0983 84.9672Z" fill="#879ADE"/>
<path d="M74.0983 84.5662L72.2109 83.4716L73.2113 82.8865L75.0986 84L74.0983 84.5662Z" fill="url(#paint67_linear)"/>
<path d="M71.7594 83.6033L69.8721 82.5086V82.1123L72.7597 82.6219V83.0182L71.7594 83.6033Z" fill="#879ADE"/>
<path d="M71.7594 83.2097L69.8721 82.115L70.8535 81.5299L72.7597 82.6246L71.7594 83.2097Z" fill="url(#paint68_linear)"/>
<path d="M69.4001 82.232L67.5127 81.1373V80.741L70.4004 81.2694V81.6658L69.4001 82.232Z" fill="#879ADE"/>
<path d="M69.4001 81.8342L67.5127 80.7396L68.513 80.1733L70.4004 81.268L69.4001 81.8342Z" fill="url(#paint69_linear)"/>
<path d="M67.0592 80.8681L65.1719 79.7734V79.3771L68.0407 79.8867V80.283L67.0592 80.8681Z" fill="#879ADE"/>
<path d="M67.0592 80.4744L65.1719 79.3798L66.1533 78.7947L68.0407 79.8894L67.0592 80.4744Z" fill="url(#paint70_linear)"/>
<path d="M64.7008 79.4894L62.8135 78.3948V77.9984L65.7011 78.5269V78.9232L64.7008 79.4894Z" fill="#879ADE"/>
<path d="M64.7008 79.0958L62.8135 78.0011L63.8138 77.416L65.7011 78.5296L64.7008 79.0958Z" fill="url(#paint71_linear)"/>
<path d="M33.7673 132.831C33.476 132.983 33.1522 133.063 32.8236 133.063C32.4949 133.063 32.1712 132.983 31.8799 132.831C31.7621 132.793 31.6595 132.719 31.5867 132.619C31.5138 132.519 31.4746 132.398 31.4746 132.274C31.4746 132.151 31.5138 132.03 31.5867 131.93C31.6595 131.83 31.7621 131.756 31.8799 131.718C32.1712 131.566 32.4949 131.486 32.8236 131.486C33.1522 131.486 33.476 131.566 33.7673 131.718C33.885 131.756 33.9877 131.83 34.0605 131.93C34.1333 132.03 34.1726 132.151 34.1726 132.274C34.1726 132.398 34.1333 132.519 34.0605 132.619C33.9877 132.719 33.885 132.793 33.7673 132.831Z" fill="#838BB6"/>
<path d="M53.753 156.721C53.5976 157.192 53.351 157.628 53.0272 158.003C52.7033 158.379 52.3086 158.687 51.8656 158.91C51.0294 159.339 50.1204 159.608 49.1855 159.703C47.3772 159.864 45.5582 159.864 43.7499 159.703C43.7499 159.703 43.6367 159.703 43.6178 159.571C43.519 158.305 43.6145 157.032 43.9009 155.796L44.0142 155.173C44.184 154.211 44.335 153.475 44.335 153.475C44.335 153.475 46.5055 152.569 48.4495 151.927C50.0726 151.38 51.5447 151.021 51.5447 151.493C51.5389 152.105 51.6477 152.713 51.8656 153.286L52.3374 153.607L52.7527 153.89L53.8473 154.626C53.9747 155.322 53.9425 156.039 53.753 156.721Z" fill="#FFC69C"/>
<path d="M60.246 158.078C59.2645 160.192 52.9796 160.531 52.2058 160.531C51.1746 160.819 50.1941 161.265 49.2992 161.852V162.796C48.164 163.739 46.891 164.503 45.5245 165.061C44.9505 165.222 44.3432 165.222 43.7693 165.061C42.7005 164.749 41.7691 164.083 41.127 163.174C41.205 162.739 41.3122 162.31 41.4478 161.89C41.6743 161.211 41.8819 160.531 41.8819 160.531L43.0709 160.267L48.582 159.078L50.7903 158.606C50.7903 158.606 51.7906 158.04 53.1306 157.36C55.0332 156.214 57.122 155.409 59.3023 154.982C59.624 155.028 59.9152 155.197 60.1139 155.454C60.1705 155.624 61.0764 156.285 60.246 158.078Z" fill="#44B8AC"/>
<path d="M69.5138 167.384C69.5138 167.384 68.2304 173.574 68.9288 173.574C69.6271 173.574 74.5908 174.084 77.0256 172.706C78.9948 171.193 80.6006 169.258 81.7251 167.044H77.0256L69.5138 167.384Z" fill="#FFC69C"/>
<path d="M53.753 156.721C53.5976 157.192 53.351 157.628 53.0272 158.003C52.7033 158.379 52.3086 158.687 51.8656 158.91C51.0294 159.339 50.1204 159.608 49.1855 159.703C47.3772 159.864 45.5582 159.864 43.7499 159.703C43.7499 159.703 43.6367 159.703 43.6178 159.571C43.519 158.305 43.6145 157.032 43.9009 155.796L44.0142 155.173C44.184 154.211 44.335 153.475 44.335 153.475C44.335 153.475 46.5055 152.569 48.4495 151.927C50.0726 151.38 51.5447 151.021 51.5447 151.493C51.5389 152.105 51.6477 152.713 51.8656 153.286L52.3374 153.607L52.7527 153.89L53.8473 154.626C53.9747 155.322 53.9425 156.039 53.753 156.721Z" fill="#FFC69C"/>
<path d="M69.5138 167.384C69.5138 167.384 68.2304 173.574 68.9288 173.574C69.6271 173.574 74.5908 174.084 77.0256 172.706C78.9948 171.193 80.6006 169.258 81.7251 167.044H77.0256L69.5138 167.384Z" fill="#FFC69C"/>
<path d="M83.3654 172.861C82.6671 174.296 77.5901 175.824 77.5901 175.824C77.5901 175.824 74.9477 176.692 74.5514 176.787L71.1164 178.014C70.4404 178.104 69.7525 178.029 69.1117 177.795C68.4708 177.562 67.8959 177.177 67.436 176.674L66.9453 175.239V175.069C67.7769 174.66 68.6998 174.471 69.6254 174.522C70.6053 174.368 71.5584 174.075 72.4564 173.654L73.3057 173.276C75.2124 172.475 77.023 171.462 78.7036 170.257C78.9296 170.074 79.1325 169.865 79.3076 169.634C80.2324 168.162 87.5742 164.123 83.3654 172.861Z" fill="#44B8AC"/>
<path d="M83.1772 171.367C82.1769 172.952 75.6277 175.746 72.004 176.425L71.1924 176.614C70.4263 176.797 69.6246 176.765 68.8754 176.522C68.1263 176.279 67.4586 175.834 66.9458 175.236C66.9308 175.13 66.9308 175.022 66.9458 174.915C66.9458 173.858 67.4365 169.687 68.8332 169.952C68.9471 169.98 69.0514 170.039 69.1352 170.121C69.5504 170.537 69.4937 171.461 71.6265 171.348C72.3059 171.348 73.0231 171.348 73.7403 171.197C75.6277 170.952 79.7799 169.555 80.4782 168.102C80.9312 167.177 78.4399 167.573 77.9869 167.385H77.7604C79.6843 166.989 81.6685 166.989 83.5924 167.385C84.7626 167.894 84.2718 169.593 83.1772 171.367Z" fill="#120A30"/>
<path d="M76.0804 167.254C76.0804 167.254 73.7779 152.74 75.7407 146.379C77.6281 140.491 77.8923 130.11 75.4576 128.751C73.0229 127.392 64.9072 138.188 64.9072 138.188L68.4932 169.047C68.4932 169.047 73.7778 171.141 76.0804 167.254Z" fill="#2A3463"/>
<path d="M51.8666 151.327C51.8666 151.327 54.7543 135.417 56.2264 128.924C57.6986 122.432 53.7917 121.375 51.5457 120.412C49.2998 119.449 40.6934 122.299 40.6934 122.299L44.2794 153.158C44.2794 153.158 49.564 155.196 51.8666 151.327Z" fill="#879ADE"/>
<path d="M60.3781 156.42C59.7364 158.157 56.811 159.081 53.6591 159.44C51.9759 159.756 50.3989 160.489 49.0727 161.573L48.884 161.705C48.1389 162.252 47.3014 162.661 46.4115 162.913C46.0918 162.95 45.7688 162.95 45.449 162.913C44.7893 162.911 44.1398 162.75 43.5551 162.445C42.9704 162.14 42.4677 161.698 42.0895 161.157C41.9622 160.934 41.9093 160.677 41.9385 160.421C42.2757 158.865 42.835 157.365 43.5994 155.967C43.7693 155.816 43.8825 155.778 43.9957 155.816C44.109 155.854 44.4298 156.439 44.4298 156.439C45.9025 157.051 47.5151 157.247 49.0916 157.005C49.8973 156.935 50.6659 156.635 51.3052 156.139C51.9445 155.644 52.4275 154.975 52.6965 154.212L52.8475 153.91C53.1872 153.382 53.4892 153.91 54.263 153.91C55.7581 153.651 57.2784 153.569 58.7927 153.665C59.2298 153.759 59.6416 153.945 60.0006 154.212C60.3277 154.467 60.5478 154.834 60.6177 155.243C60.6875 155.651 60.6021 156.071 60.3781 156.42Z" fill="#120A30"/>
<path d="M14.5725 186.731C14.8676 186.87 15.1898 186.943 15.5162 186.943C15.8425 186.943 16.1648 186.87 16.4599 186.731C16.5755 186.688 16.6751 186.611 16.7455 186.509C16.8159 186.408 16.8537 186.288 16.8537 186.165C16.8537 186.041 16.8159 185.921 16.7455 185.82C16.6751 185.719 16.5755 185.641 16.4599 185.598C16.1648 185.459 15.8425 185.387 15.5162 185.387C15.1898 185.387 14.8676 185.459 14.5725 185.598C14.4569 185.641 14.3572 185.719 14.2869 185.82C14.2165 185.921 14.1787 186.041 14.1787 186.165C14.1787 186.288 14.2165 186.408 14.2869 186.509C14.3572 186.611 14.4569 186.688 14.5725 186.731Z" fill="#838BB6"/>
<path d="M28.1029 111.707L24.0639 128.241C24.0639 128.241 22.6484 129.543 22.1765 129.505C22.0633 129.505 22.0444 129.354 22.1765 129.128C22.554 127.92 23.5166 127.24 23.7619 125.731C23.9507 124.598 26.0834 116.294 27.2347 112.028C27.5744 110.688 26.8572 109.896 25.8192 110.481L24.2338 111.349C19.05 114.062 14.0103 117.042 9.13483 120.276C7.68156 121.843 4.49193 125.806 4.49193 125.806C4.49193 125.806 3.92572 126.202 3.85023 125.957C3.77473 125.712 3.85023 125.58 4.17108 125.051C5.42834 123.346 6.78982 121.719 8.24777 120.182L8.3799 120.068C8.47087 119.964 8.57204 119.869 8.68188 119.785L8.83287 119.653L8.98384 119.521L9.22921 119.332L9.51233 119.144L24.4225 110.481L26.0456 109.537L26.4797 109.329C26.6739 109.303 26.8707 109.303 27.0648 109.329C28.2161 109.292 28.9144 110.198 28.1029 111.707Z" fill="#99AFF0"/>
<path d="M27.2175 112.03C26.0662 116.39 23.9335 124.6 23.7447 125.732C23.4994 127.299 22.5368 127.921 22.1594 129.129C22.1594 129.356 22.1594 129.45 22.1594 129.488C21.763 129.488 19.0263 128.657 19.366 127.6C19.7058 126.544 20.7061 125.713 20.9514 124.203C21.1213 123.146 22.9898 115.918 24.1788 111.407L25.7642 110.539C26.84 109.897 27.5572 110.69 27.2175 112.03Z" fill="#99AFF0"/>
<path d="M27.0655 109.334C26.8721 109.298 26.6738 109.298 26.4804 109.334L26.0463 109.542L24.4232 110.485L9.53188 119.073L9.32426 119.205L9.06003 119.394L8.85242 119.582L8.70143 119.715C8.59159 119.799 8.49042 119.893 8.39945 119.998L8.26734 120.111C6.80939 121.648 5.44789 123.275 4.19063 124.98C3.90752 125.509 3.83203 125.754 3.86978 125.886L1.28409 124.357C1.07648 124.357 0.944343 124.244 1.43506 123.395C2.96596 121.214 4.75991 119.23 6.77631 117.487L23.2719 108.051C23.4676 107.962 23.6799 107.916 23.8947 107.916C24.1095 107.916 24.3219 107.962 24.5176 108.051L25.4424 108.522L27.0655 109.334Z" fill="#A2BFEF"/>
<path d="M68.6451 142.113L55.1882 146.341L46.8649 152.569L38.1641 155.494L36.2768 153.475L35.1632 152.286L36.4844 141.452L36.9185 137.998L34.6914 129.637L33.6533 123.183C34.5483 123.031 35.4682 123.149 36.2956 123.522L68.6451 142.113Z" fill="#7389D9"/>
<path d="M51.187 87.6797C51.187 87.6797 48.9222 88.8876 48.0351 88.4347L46.2799 87.5287C46.0982 87.5054 45.9142 87.5054 45.7325 87.5287C43.5432 87.9817 35.2765 89.6992 34.1064 89.6992C32.9362 89.6992 32.219 89.9634 31.4829 89.1896C31.373 89.0849 31.272 88.9713 31.181 88.8499C30.4689 87.7209 29.5384 86.7456 28.4443 85.9811C27.0476 85.1318 32.1246 84.8109 32.1246 84.8109C32.1246 84.8109 35.1633 84.6788 36.1825 84.9619C38.4517 85.3806 40.7822 85.3357 43.0336 84.8298C43.983 84.4753 45.0285 84.4753 45.9779 84.8298L51.3758 81.6402L53.8293 80.8663C53.8293 80.8663 55.4902 81.3382 56.7548 81.6402C58.0193 81.9421 59.0385 85.8867 58.2458 85.698C57.4531 85.5092 56.8303 83.452 56.8303 83.452L51.187 87.6797Z" fill="#FFC69C"/>
<path d="M57.3972 87.233C56.624 87.0865 55.8301 87.0865 55.0568 87.233C54.0565 87.5161 51.9238 88.7052 51.0179 88.5542L48.168 88.1578C49.0937 87.0852 50.1035 86.088 51.1877 85.1758C51.6973 85.0059 53.5092 85.7231 54.3774 85.7231C55.2935 85.6292 56.2163 85.8204 57.0197 86.2705C57.166 86.3799 57.2788 86.528 57.3455 86.698C57.4122 86.8681 57.4301 87.0534 57.3972 87.233Z" fill="#FFC69C"/>
<path d="M16.1948 122.507L20.7622 124.394L24.0651 122.186C24.0651 122.186 32.6338 116.845 35.2195 121.148C37.1068 124.375 58.4152 108.314 56.7732 124.111C56.4901 126.867 59.4532 132.85 47.0344 132.85C43.2596 132.85 17.8368 144.815 15.3455 137.455C13.8761 132.526 14.1765 127.238 16.1948 122.507Z" fill="#2A3463"/>
<path d="M20.1208 134.543C20.6033 131.518 21.6672 128.614 23.2538 125.994L44.7509 129.353C44.7509 129.353 76.0057 121.671 75.4584 130.523C75.4584 131.486 77.3457 134.43 77.3457 135.525C76.7606 136.336 75.7415 134.864 75.4584 135.846C75.3656 135.929 75.2774 136.017 75.1941 136.11C74.3637 136.903 74.0995 137.091 74.4203 136.676C73.4389 137.148 72.4197 137.563 71.4383 138.073C70.038 138.761 68.7262 139.617 67.5314 140.621C67.6447 139.752 32.9738 145.735 29.4444 145.056C25.915 144.376 19.4791 139.809 20.1208 134.543Z" fill="#2A3463"/>
<path d="M35.0303 86.6842C34.6717 86.4766 28.0471 93.3277 22.5171 89.8739L22.0264 81.5694C22.3472 81.5694 23.9137 81.5694 24.0836 77.606C24.0836 76.2093 25.065 75.7186 26.2352 75.8318C27.1833 75.9023 28.1138 76.1254 28.9908 76.4924C30.3962 77.0463 31.7534 77.7155 33.0486 78.493C33.0486 78.493 33.0486 79.2291 32.9542 80.135C32.8089 81.224 32.932 82.332 33.3128 83.3624C33.8018 83.9358 34.2141 84.5702 34.5396 85.2498C34.936 86.0991 35.2002 86.7786 35.0303 86.6842Z" fill="#FFC69C"/>
<path d="M44.977 101.684C40.6927 109.233 38.5222 116.613 40.2963 120.067C41.767 123.815 42.8485 127.705 43.5237 131.674C43.3914 132.495 43.0563 133.271 42.5488 133.93C42.0412 134.589 41.3774 135.111 40.6172 135.449C40.6172 135.449 33.6717 137.015 33.2187 137.034C25.8202 137.393 15.251 129.485 15.251 129.485C15.251 129.485 15.251 122.313 18.6482 119.048C21.1584 116.594 19.3843 106.157 16.7609 101.363C14.1374 96.5692 15.704 83.0556 16.7609 80.9229C19.4976 75.4118 24.3103 79.2432 24.3103 79.2432C24.3103 79.2432 21.7058 81.1305 25.7636 83.5652C32.3317 87.5098 32.9545 82.9047 32.9545 82.9047C32.9545 82.9047 41.1834 88.5667 42.1271 89.4916C42.904 90.5911 43.2834 91.9224 43.2029 93.2663C43.2029 93.908 45.0902 94.6818 45.0902 95.3801C44.977 97.3808 45.7319 100.344 44.977 101.684Z" fill="#F7991D"/>
<path d="M38.1264 71.1135C38.7492 74.0767 38.2774 76.7756 37.4847 77.5495C36.692 78.3233 38.0509 80.9845 34.7102 80.4182L32.955 80.1351C31.6932 80.0636 30.4626 79.7157 29.3501 79.116C29.0227 78.9285 28.7075 78.7205 28.4064 78.4931C27.5519 77.7216 26.82 76.8242 26.236 75.8319C23.688 71.9062 20.5739 65.0551 22.0271 62.6204C23.1407 60.8463 27.8402 61.1105 31.7659 61.6578C34.8612 62.1297 37.428 62.7714 37.428 62.7714L37.7111 62.6204C38.4424 64.1285 38.6162 65.8469 38.2019 67.4709C37.5602 70.2453 37.428 68.1315 38.1264 71.1135Z" fill="#FFC69C"/>
<path d="M37.4277 59.3165C34.5401 57.6934 30.973 52.5786 25.3486 55.8249C11.4198 63.8274 21.5739 75.68 21.5739 75.68C21.5739 75.68 13.3072 78.3601 19.1958 84.2487C24.1784 89.1936 23.7254 77.4164 24.235 77.9637C29.7839 84.0222 32.5961 75.5479 32.5961 75.5479C32.5961 75.5479 30.7087 70.2066 31.3127 70.0934C31.9166 69.9802 32.2752 71.6033 34.4834 71.7732C34.4834 71.7732 35.9556 66.2243 37.9939 65.073C40.0323 63.9217 40.2965 60.9397 37.4277 59.3165Z" fill="#FB3300"/>
<path d="M21.5742 74.9788C20.4417 75.243 21.0457 76.5453 22.0649 76.3188C22.8009 76.149 23.2161 76.9605 23.1784 77.5834C23.1407 78.2062 24.9337 78.5082 25.0658 77.5834C25.0618 77.1617 24.9604 76.7466 24.7695 76.3706C24.5787 75.9946 24.3035 75.6678 23.9655 75.4156C23.6275 75.1635 23.2358 74.9929 22.821 74.9171C22.4062 74.8413 21.9795 74.8624 21.5742 74.9788Z" fill="#120A30"/>
<path d="M34.5392 58.996C35.4706 58.7305 36.4625 58.7706 37.3695 59.1103C38.2764 59.4499 39.0506 60.0714 39.5785 60.8833C44.8065 68.0553 34.709 81.097 34.709 81.097C34.709 81.097 34.709 75.3028 34.5392 71.6602C34.4071 69.7162 34.5392 58.996 34.5392 58.996Z" fill="#FB3300"/>
<path d="M33.2761 69.8655C33.2761 69.8655 32.7099 68.0914 31.8794 68.5066C31.4091 68.7605 31.0261 69.1501 30.7804 69.6248C30.5346 70.0995 30.4375 70.6371 30.5017 71.1678C30.5017 72.5078 31.049 74.2064 31.9549 74.3197C32.8609 74.4329 33.144 74.5839 33.8423 73.9611C34.0148 73.7613 34.14 73.5252 34.2087 73.2703C34.2773 73.0154 34.2875 72.7483 34.2386 72.4889L33.2761 69.8655Z" fill="#FFA15C"/>
<path d="M33.6535 70.0378C33.6535 70.0378 33.0873 68.2825 32.2569 68.6789C31.7847 68.9308 31.4003 69.3201 31.1542 69.7953C30.9082 70.2705 30.8123 70.8092 30.8791 71.3401C30.8791 72.6801 31.4076 74.3976 32.3324 74.492C33.2572 74.5863 33.5214 74.7562 34.2197 74.1334C34.3922 73.9336 34.5175 73.6975 34.5861 73.4426C34.6547 73.1877 34.6649 72.9206 34.6161 72.6612L33.6535 70.0378Z" fill="#FFC69C"/>
<path d="M32.8604 70.3405L32.2942 71.4163C32.1432 71.756 31.9545 72.3034 32.1244 72.5865C32.2122 72.7636 32.3132 72.9339 32.4263 73.0961C32.4812 72.4592 32.5885 71.8279 32.7472 71.2087C32.9578 70.7803 32.9983 70.288 32.8604 69.8309C32.6717 69.4157 32.5584 68.8872 32.1244 69.3025C31.8742 69.51 31.6721 69.7694 31.532 70.0626C31.3919 70.3559 31.3171 70.6761 31.3128 71.0011C31.2449 71.7618 31.4095 72.5252 31.7846 73.1904C32.0142 73.4691 32.2964 73.7 32.6151 73.8699C32.337 73.7042 32.0984 73.4799 31.9159 73.2127C31.7333 72.9454 31.6113 72.6415 31.5581 72.3222C31.5581 71.3597 31.5581 69.8687 31.9167 69.6611C32.2753 69.4534 32.2942 69.3968 32.2753 69.7554C32.2565 70.114 31.9734 70.6236 32.2753 70.4915C32.5773 70.3594 32.6528 69.8498 32.7849 70.0763C32.917 70.3028 32.8604 70.3405 32.8604 70.3405Z" fill="#FFA15C"/>
<path d="M32.8597 71.9417C32.8597 71.9417 33.0862 71.1868 33.256 71.2245C33.4259 71.2623 33.4448 71.2245 33.5203 71.5454C33.5957 71.8662 33.5203 71.9228 33.86 71.8851C34.1997 71.8473 34.313 71.6586 34.0487 71.9795C33.7845 72.3003 33.7845 71.9795 33.3882 72.1304C32.9918 72.2814 33.0673 72.6778 32.8219 72.6589C32.5766 72.64 32.8219 72.1493 32.8219 71.9983L32.8597 71.9417Z" fill="#FFA15C"/>
<path d="M57.8873 101.634C57.8873 101.634 60.7561 94.0841 60.8127 93.0649C60.8693 92.0458 60.9826 89.5356 60.9826 89.5356C60.4452 88.7608 59.9778 87.9397 59.5859 87.082V86.6479L58.5479 85.3834L57.6797 84.2321C57.7887 84.0207 57.9764 83.8606 58.2024 83.7864C58.4284 83.7123 58.6745 83.73 58.8876 83.8357C59.6861 84.3367 60.3891 84.9758 60.9637 85.7231L61.7187 83.3261L63.606 80.5328L64.7573 79.155L65.6633 78.7209C65.7924 78.8517 65.8647 79.028 65.8647 79.2117C65.8647 79.3954 65.7924 79.5717 65.6633 79.7024L65.2103 80.212L64.3987 81.4199L64.1345 82.9298L65.3424 81.2878L66.0596 80.8726C66.2584 80.7717 66.4784 80.72 66.7013 80.7216C67.0221 80.7216 67.3241 81.25 67.0221 81.5331C66.8342 81.7298 66.6324 81.9128 66.4182 82.0805L65.9086 83.5526L67.1543 82.2692L69.0416 82.7599C69.0416 82.7599 69.1549 83.5526 69.287 83.5526C69.4191 83.5526 68.8718 83.8546 68.7774 83.8357C68.6063 83.755 68.4422 83.6603 68.2867 83.5526L67.5129 84.7605L68.985 84.1377C68.985 84.1377 69.7777 84.9304 69.9287 84.9304C70.0797 84.9304 70.2307 85.5155 69.7589 85.4589C69.5109 85.4499 69.2672 85.3922 69.0416 85.289L68.098 86.478C67.5088 87.7725 66.8471 89.0327 66.1162 90.2528C65.9523 90.3841 65.8064 90.5364 65.6821 90.7057C65.4736 94.7862 65.0261 98.8511 64.3421 102.879C63.5871 105.276 63.6815 106.484 62.7945 106.541C61.9074 106.597 57.1135 104.276 57.8873 101.634Z" fill="#F4B082"/>
<path d="M38.8056 94.6276C38.8056 94.6276 40.7874 89.3052 42.5804 90.0413C44.3734 90.7774 55.9052 99.7046 58.4909 99.7424C61.0766 99.7801 64.3983 104.272 63.5302 105.404C62.662 106.537 62.662 107.292 59.3024 107.896C55.9429 108.5 36.1633 104.97 38.8056 94.6276Z" fill="#F7991D"/>
<path d="M56.3004 189.884C56.3109 190.073 56.281 190.261 56.2126 190.437C56.1443 190.613 56.039 190.772 55.904 190.903C55.7139 191.047 55.4819 191.125 55.2435 191.125C55.005 191.125 54.773 191.047 54.5829 190.903C54.0833 190.58 53.6672 190.143 53.3687 189.628C53.0702 189.113 52.8978 188.535 52.8654 187.94C52.8624 187.695 52.9073 187.451 52.9975 187.223C53.1012 187.007 53.2834 186.838 53.5071 186.751C53.6898 186.708 53.8795 186.702 54.0645 186.734C54.2495 186.767 54.4259 186.837 54.5829 186.94L55.0736 187.317C55.6247 187.828 56.0232 188.481 56.2249 189.205C56.2424 189.368 56.2424 189.532 56.2249 189.696C56.2669 189.75 56.293 189.816 56.3004 189.884Z" fill="#A2BFEF"/>
<path d="M56.4333 189.056C56.4388 189.298 56.3871 189.537 56.2823 189.755C56.2998 189.592 56.2998 189.427 56.2823 189.264C56.0806 188.541 55.682 187.887 55.131 187.377L54.6403 186.999C54.4833 186.896 54.3069 186.826 54.1219 186.794C53.9369 186.761 53.7472 186.767 53.5645 186.81C53.3408 186.897 53.1586 187.066 53.0549 187.282V187.169C53.0225 186.929 53.0695 186.684 53.1888 186.473C53.308 186.262 53.4929 186.095 53.7155 185.999C53.8835 185.953 54.0593 185.942 54.2316 185.968C54.4039 185.994 54.5689 186.056 54.7158 186.15C54.9184 186.268 55.1082 186.407 55.282 186.565C55.8238 187.08 56.2153 187.732 56.4144 188.452C56.4467 188.652 56.4531 188.855 56.4333 189.056Z" fill="white"/>
<path d="M58.5856 187.864C58.5906 188.111 58.5389 188.356 58.4346 188.581C58.3798 188.706 58.2956 188.816 58.1892 188.902L57.9439 189.034L56.3019 189.996C56.3132 189.934 56.3132 189.87 56.3019 189.807C56.4066 189.59 56.4584 189.351 56.4529 189.109C56.4806 188.902 56.4806 188.693 56.4529 188.486C56.2538 187.766 55.8623 187.114 55.3204 186.599C55.1646 186.455 54.9938 186.329 54.8109 186.221C54.6588 186.116 54.4855 186.044 54.3031 186.011C54.1206 185.979 53.9333 185.986 53.7539 186.033L55.6413 184.957C55.8373 184.81 56.0757 184.73 56.3207 184.73C56.5657 184.73 56.8042 184.81 57.0002 184.957C57.4679 185.289 57.8538 185.723 58.1285 186.227C58.4033 186.731 58.5596 187.29 58.5856 187.864Z" fill="white"/>
<path d="M58.434 188.641C58.4497 188.831 58.4241 189.022 58.359 189.201C58.2938 189.38 58.1906 189.543 58.0565 189.679L57.8112 189.811L55.9238 190.905C56.0544 190.782 56.1573 190.633 56.2256 190.467C56.294 190.301 56.3262 190.122 56.3202 189.943L57.9622 188.98L58.2075 188.848C58.3139 188.763 58.3981 188.652 58.4529 188.527L58.434 188.641Z" fill="#99AFF0"/>
<path d="M15.2895 166.199C15.3041 166.391 15.2761 166.583 15.2076 166.762C15.1391 166.942 15.0317 167.104 14.8932 167.237C14.7006 167.375 14.4696 167.45 14.2326 167.45C13.9956 167.45 13.7645 167.375 13.572 167.237C13.0699 166.912 12.6523 166.472 12.3537 165.953C12.0551 165.435 11.8839 164.853 11.8545 164.255C11.8539 164.016 11.8988 163.779 11.9866 163.557C12.0366 163.445 12.1095 163.346 12.2005 163.264C12.2916 163.183 12.3988 163.122 12.5151 163.085C12.6948 163.042 12.8814 163.036 13.0633 163.069C13.2452 163.101 13.4184 163.171 13.572 163.274C13.755 163.381 13.9258 163.507 14.0816 163.651C14.6198 164.169 15.0106 164.82 15.214 165.538C15.2232 165.708 15.2232 165.878 15.214 166.048L15.2895 166.199Z" fill="#A2BFEF"/>
<path d="M15.4219 165.389C15.4225 165.628 15.3777 165.865 15.2898 166.087C15.2989 165.917 15.2989 165.747 15.2898 165.577C15.0864 164.859 14.6956 164.208 14.1574 163.69C14.0016 163.546 13.8307 163.42 13.6478 163.313C13.4941 163.21 13.3209 163.14 13.139 163.108C12.9572 163.075 12.7705 163.081 12.5909 163.124C12.4745 163.161 12.3674 163.222 12.2763 163.303C12.1852 163.385 12.1124 163.484 12.0624 163.596V163.331C12.0289 163.088 12.0751 162.841 12.1943 162.627C12.3134 162.412 12.4989 162.242 12.723 162.142C12.8955 162.1 13.0748 162.093 13.2501 162.122C13.4254 162.151 13.5928 162.216 13.7421 162.312C13.9383 162.424 14.1218 162.557 14.2895 162.709C14.8336 163.221 15.2255 163.875 15.4219 164.596C15.4626 164.859 15.4626 165.126 15.4219 165.389Z" fill="white"/>
<path d="M17.5732 164.143C17.5787 164.385 17.527 164.624 17.4222 164.842C17.3674 164.967 17.2832 165.077 17.1768 165.162L16.9315 165.313L15.2895 166.276V166.087C15.3773 165.865 15.4222 165.628 15.4216 165.389C15.4482 165.176 15.4482 164.96 15.4216 164.747C15.2252 164.026 14.8333 163.373 14.2892 162.86C14.1321 162.718 13.9614 162.591 13.7796 162.482C13.6255 162.381 13.4523 162.312 13.2706 162.279C13.0888 162.247 12.9024 162.252 12.7227 162.294L14.61 161.218C14.8043 161.075 15.039 160.998 15.28 160.998C15.521 160.998 15.7557 161.075 15.95 161.218C16.4272 161.548 16.8219 161.983 17.1034 162.491C17.3849 162.998 17.5457 163.564 17.5732 164.143Z" fill="white"/>
<path d="M17.4223 164.971C17.4405 165.159 17.416 165.348 17.3506 165.524C17.2852 165.701 17.1807 165.86 17.0448 165.991L16.7995 166.142L14.9121 167.236C15.0437 167.114 15.1472 166.965 15.2157 166.798C15.2841 166.632 15.3157 166.453 15.3084 166.274L16.9504 165.311L17.1958 165.16C17.3022 165.075 17.3864 164.964 17.4412 164.839L17.4223 164.971Z" fill="#99AFF0"/>
<path d="M15.2897 189.884C15.3055 190.073 15.278 190.263 15.2093 190.439C15.1406 190.616 15.0325 190.774 14.8933 190.903C14.7031 191.047 14.4712 191.125 14.2327 191.125C13.9943 191.125 13.7623 191.047 13.5721 190.903C13.0725 190.579 12.6565 190.142 12.358 189.627C12.0595 189.112 11.887 188.534 11.8546 187.94C11.8516 187.694 11.8965 187.451 11.9868 187.223C12.0395 187.113 12.1133 187.015 12.204 186.934C12.2947 186.853 12.4004 186.791 12.5152 186.751C12.6949 186.708 12.8815 186.702 13.0634 186.735C13.2453 186.767 13.4185 186.837 13.5721 186.939L14.0817 187.317C14.6214 187.833 15.0125 188.485 15.2141 189.204C15.2141 189.374 15.2141 189.544 15.2141 189.695L15.2897 189.884Z" fill="#A2BFEF"/>
<path d="M15.4212 189.057C15.4218 189.296 15.377 189.533 15.2891 189.755C15.2891 189.604 15.2891 189.434 15.2891 189.265C15.0874 188.545 14.6963 187.894 14.1567 187.377L13.6471 187C13.4934 186.897 13.3202 186.827 13.1384 186.795C12.9565 186.762 12.7698 186.768 12.5902 186.811C12.4754 186.851 12.3696 186.913 12.279 186.994C12.1883 187.075 12.1145 187.173 12.0617 187.283V187.17C12.0294 186.929 12.0764 186.685 12.1956 186.474C12.3148 186.262 12.4998 186.096 12.7223 185.999C12.8934 185.953 13.0723 185.942 13.2477 185.968C13.4231 185.994 13.5912 186.056 13.7415 186.15C13.9383 186.269 14.1219 186.408 14.2888 186.566C14.8369 187.075 15.2295 187.73 15.4212 188.453C15.4473 188.654 15.4473 188.857 15.4212 189.057Z" fill="white"/>
<path d="M17.5732 187.864C17.5782 188.111 17.5265 188.356 17.4222 188.581C17.3674 188.706 17.2832 188.816 17.1768 188.902L16.9315 189.034L15.2895 189.996V189.751C15.3773 189.529 15.4222 189.292 15.4216 189.053C15.4493 188.846 15.4493 188.637 15.4216 188.43C15.2299 187.706 14.8373 187.052 14.2892 186.543C14.1369 186.395 13.9655 186.268 13.7796 186.165C13.6275 186.059 13.4542 185.987 13.2718 185.955C13.0893 185.922 12.902 185.93 12.7227 185.976L14.61 184.901C14.8018 184.752 15.0375 184.672 15.28 184.672C15.5226 184.672 15.7582 184.752 15.95 184.901C16.4322 185.234 16.8299 185.676 17.1116 186.19C17.3934 186.705 17.5514 187.278 17.5732 187.864Z" fill="white"/>
<path d="M17.4223 188.641C17.438 188.831 17.4124 189.022 17.3472 189.201C17.2821 189.38 17.1789 189.543 17.0448 189.679L16.7995 189.811L14.9121 190.905C15.0458 190.785 15.1507 190.636 15.2193 190.469C15.2879 190.302 15.3183 190.123 15.3084 189.943L16.9504 188.98L17.1958 188.848C17.3022 188.763 17.3864 188.652 17.4412 188.527L17.4223 188.641Z" fill="#99AFF0"/>
<path d="M56.3003 166.2C56.3111 166.391 56.2813 166.582 56.213 166.761C56.1447 166.94 56.0394 167.102 55.9039 167.238C55.7114 167.376 55.4804 167.45 55.2433 167.45C55.0063 167.45 54.7753 167.376 54.5828 167.238C54.0806 166.912 53.663 166.472 53.3644 165.954C53.0658 165.435 52.8947 164.853 52.8652 164.256C52.8647 164.016 52.9095 163.78 52.9974 163.557C53.0462 163.448 53.1165 163.35 53.2041 163.269C53.2916 163.188 53.3947 163.126 53.507 163.085C53.6897 163.042 53.8794 163.036 54.0644 163.069C54.2494 163.101 54.4258 163.171 54.5828 163.274C54.7627 163.377 54.9278 163.504 55.0735 163.652C55.623 164.163 56.0213 164.816 56.2248 165.539C56.2433 165.708 56.2433 165.879 56.2248 166.049C56.267 166.088 56.2937 166.142 56.3003 166.2Z" fill="#A2BFEF"/>
<path d="M56.434 165.388C56.4374 165.629 56.3858 165.868 56.283 166.086C56.3015 165.917 56.3015 165.746 56.283 165.577C56.0795 164.854 55.6812 164.201 55.1317 163.69C54.986 163.542 54.8209 163.415 54.6409 163.312C54.484 163.209 54.3076 163.139 54.1226 163.107C53.9376 163.074 53.7479 163.08 53.5652 163.123C53.4528 163.164 53.3498 163.226 53.2622 163.307C53.1747 163.388 53.1044 163.486 53.0556 163.595V163.331C53.022 163.088 53.0683 162.841 53.1874 162.626C53.3066 162.412 53.4921 162.242 53.7161 162.142C53.8856 162.1 54.0619 162.093 54.2341 162.122C54.4062 162.151 54.5705 162.216 54.7164 162.312C54.9185 162.424 55.1082 162.557 55.2827 162.708C55.8209 163.226 56.2117 163.877 56.4151 164.595C56.4621 164.857 56.4685 165.125 56.434 165.388Z" fill="white"/>
<path d="M58.5856 164.138C58.5911 164.38 58.5394 164.619 58.4346 164.837C58.3798 164.962 58.2956 165.072 58.1892 165.157L57.9439 165.308L56.3019 166.271C56.3163 166.209 56.3163 166.144 56.3019 166.082C56.4047 165.864 56.4563 165.625 56.4529 165.384C56.4795 165.171 56.4795 164.955 56.4529 164.742C56.2495 164.024 55.8586 163.372 55.3204 162.855C55.1598 162.717 54.9895 162.591 54.8109 162.477C54.6567 162.376 54.4835 162.307 54.3018 162.274C54.1201 162.242 53.9337 162.247 53.7539 162.289L55.6413 161.213C55.8385 161.069 56.0764 160.991 56.3207 160.991C56.565 160.991 56.803 161.069 57.0002 161.213C57.4704 161.547 57.8578 161.984 58.1326 162.491C58.4074 162.999 58.5624 163.562 58.5856 164.138Z" fill="white"/>
<path d="M58.434 164.966C58.4522 165.154 58.4277 165.343 58.3623 165.519C58.2969 165.696 58.1924 165.855 58.0565 165.986L57.8112 166.137L55.9238 167.231C56.0525 167.107 56.1542 166.957 56.2224 166.791C56.2906 166.626 56.3238 166.448 56.3202 166.269L57.9622 165.306L58.1887 165.212C58.2951 165.126 58.3792 165.016 58.434 164.891V164.966Z" fill="#99AFF0"/>
<path d="M57.3204 160.423C57.1127 160.423 56.4899 159.838 56.2257 159.781C49.8653 158.46 42.5234 160.196 35.1627 164.424C26.8482 169.468 19.6544 176.161 14.0242 184.09C13.4957 184.807 13.3447 185.638 13.6656 185.978C13.9864 186.317 14.6093 186.449 14.7603 186.619C14.9113 186.789 15.7417 186.619 16.2324 185.978C21.5699 178.455 28.3833 172.097 36.2574 167.293C43.2406 163.273 50.205 161.631 56.2257 162.895C56.5423 162.89 56.8495 162.787 57.106 162.601C57.3625 162.416 57.5559 162.156 57.6601 161.857C57.9998 161.196 57.8488 160.536 57.3204 160.423Z" fill="#A2BFEF"/>
<path d="M57.3204 184.789C51.7068 176.898 44.539 170.237 36.2574 165.217C28.8778 160.933 21.4981 159.178 15.1188 160.518C14.8546 160.518 14.2129 161.103 14.0242 161.16C13.4957 161.16 13.3447 161.933 13.6656 162.613C13.9864 163.292 14.647 163.764 15.1188 163.67C21.1584 162.386 28.1606 164.066 35.1627 168.105C43.0085 172.903 49.796 179.248 55.1121 186.752C55.6029 187.413 56.2446 187.715 56.5654 187.394C56.8863 187.073 57.4525 186.979 57.6601 186.752C57.8677 186.526 57.8488 185.488 57.3204 184.789Z" fill="#A2BFEF"/>
<path d="M35.9739 166.461C35.6508 166.619 35.2957 166.702 34.9359 166.702C34.576 166.702 34.221 166.619 33.8978 166.461C33.4826 166.216 33.3694 165.857 33.577 165.555V140.68L36.3325 142.265V165.706C36.4835 165.914 36.3514 166.235 35.9739 166.461Z" fill="#99AFF0"/>
<path d="M36.5411 141.451L35.22 152.285L36.3335 153.474V155.493L5.34297 137.733V137.544C5.18547 137.49 5.03372 137.421 4.88999 137.337C-0.0549058 134.487 3.90858 127.9 3.90858 122.691C3.90858 117.482 0.586806 108.46 0.473564 106.554C0.360322 104.647 0.983149 103.175 1.26625 103.326L33.3515 121.917L33.5969 123.181L34.7859 129.636L36.6733 139.583L36.5411 141.451Z" fill="#A2BFEF"/>
<path d="M33.3128 121.923C33.3128 121.923 38.7107 136.286 38.5219 139.438C38.3332 142.59 34.8793 151.838 38.2766 153.801C41.6738 155.763 57.1502 144.911 59.6227 143.477C62.0951 142.042 68.7387 140.816 68.7387 142.722C68.7387 144.628 65.4358 142.59 62.869 144.062C60.3021 145.534 41.8626 158.783 36.9366 155.933C32.0105 153.083 35.9551 146.496 35.9551 141.287C35.9551 136.078 32.6333 127.038 32.5201 125.132C32.4069 123.225 33.0486 121.81 33.3128 121.923Z" fill="#99AFF0"/>
<path d="M63.0405 131.884L59.0015 148.417C59.0015 148.417 57.586 149.72 57.1141 149.682C57.0009 149.682 56.982 149.512 57.1141 149.304C57.4916 148.096 58.473 147.417 58.7184 145.907C58.8883 144.775 61.021 136.47 62.1723 132.205C62.512 130.865 61.8137 130.072 60.7567 130.638L59.1714 131.525C53.9867 134.237 48.9469 137.217 44.0724 140.453C42.6003 142.019 39.4106 145.983 39.4106 145.983C39.4106 145.983 38.8444 146.36 38.7689 146.115C38.6934 145.869 38.7689 145.756 39.1087 145.228C40.3517 143.516 41.7073 141.89 43.1665 140.358L43.2986 140.245L43.6006 139.943L43.7516 139.83L43.9026 139.698L44.1479 139.509L44.431 139.32L59.3224 130.733L60.9455 129.789C61.0889 129.704 61.2407 129.635 61.3984 129.581C61.5855 129.546 61.7776 129.546 61.9647 129.581C62.8895 129.525 63.3802 130.487 63.0405 131.884Z" fill="#99AFF0"/>
<path d="M62.1529 132.202C61.0016 136.562 58.8688 144.772 58.699 145.904C58.4536 147.452 57.4722 148.093 57.0947 149.301C57.0947 149.509 57.0947 149.622 57.0947 149.66C56.7172 149.566 53.9617 148.83 54.3014 147.773C54.6411 146.716 55.6603 145.885 55.9056 144.375C56.0566 143.3 57.944 136.09 59.1142 131.579L60.6996 130.692C61.7942 130.069 62.4926 130.862 62.1529 132.202Z" fill="#A2BFEF"/>
<path d="M61.9632 129.507C61.7762 129.471 61.5841 129.471 61.397 129.507C61.2393 129.561 61.0875 129.63 60.9441 129.715L59.3209 130.658L44.4296 139.246L44.222 139.378L43.9766 139.567L43.7502 139.756L43.5992 139.869L43.2972 140.171L43.1651 140.284C41.7059 141.815 40.3503 143.442 39.1072 145.153C38.8053 145.682 38.7298 145.927 38.7675 146.04C38.8053 146.154 36.2007 144.531 36.2007 144.531C36.2007 144.531 35.8421 144.417 36.3517 143.568C37.874 141.386 39.6618 139.401 41.6741 137.661L58.1885 128.224C58.3839 128.134 58.5963 128.087 58.8113 128.087C59.0264 128.087 59.2388 128.134 59.4342 128.224L60.359 128.714L61.9632 129.507Z" fill="#A2BFEF"/>
<path d="M78.9488 77.4375L114.092 97.7267C114.092 97.7267 122.037 91.7249 126.775 90.366L89.4048 68.8123C84.8841 70.655 80.6361 73.106 76.7783 76.0975L78.9488 77.4375Z" fill="#A2BFEF"/>
<g opacity="0.31">
<path opacity="0.31" d="M78.9492 77.416C81.9501 79.0014 84.951 80.549 87.9142 82.1911L92.3495 84.6446L96.766 87.1548C99.7103 88.8157 102.655 90.4955 105.561 92.2318L109.94 94.7987C111.393 95.648 112.827 96.535 114.281 97.4032C114.281 97.4032 114.111 97.4032 114.281 97.1201L114.62 96.8559L114.885 96.6672L115.998 95.9311C116.734 95.4026 117.489 94.9685 118.263 94.4967L119.395 93.8172C119.773 93.5907 120.188 93.402 120.566 93.1755L122.925 91.9487L120.66 93.3265C120.283 93.553 119.886 93.7606 119.509 94.006L118.414 94.7232C117.659 95.2139 116.923 95.6857 116.206 96.2142L114.073 97.7241L78.9492 77.4726V77.416Z" fill="white"/>
</g>
<path d="M126.286 90.3634C121.923 92.2356 117.84 94.6997 114.15 97.6863V100.291L126.89 92.9491C126.89 92.0809 126.89 91.0617 126.89 90.1558L126.286 90.3634Z" fill="#7389D9"/>
<path d="M78.9491 77.4355L76.7031 76.1332C76.7031 77.0014 76.7031 77.8696 76.7031 78.7189L114.111 100.329V97.7246L78.9491 77.4355Z" fill="#879ADE"/>
<path d="M99.2388 67.0724V82.3978C99.2647 82.6235 99.3476 82.839 99.4796 83.0238C99.6117 83.2087 99.7886 83.357 99.9937 83.4547C100.558 83.743 101.182 83.8933 101.815 83.8933C102.448 83.8933 103.072 83.743 103.636 83.4547C103.84 83.3575 104.015 83.2089 104.144 83.0236C104.273 82.8383 104.352 82.6227 104.372 82.3978V67.0724H99.2388Z" fill="#879ADE"/>
<path d="M137.477 104.497L133.74 103.478V53.1604L137.477 54.1796V104.497Z" fill="#A2BFEF"/>
<path d="M46.997 3.07153C93.0864 8.73363 124.058 26.5504 133.816 53.1622C134.174 58.8243 135.061 103.97 133.816 103.706C124.681 78.5851 90.5951 58.8998 46.997 53.6152C46.544 52.898 47.4688 3.78873 46.997 3.07153Z" fill="#879ADE"/>
<path d="M131.984 94.5901C119.018 73.0364 87.914 56.6163 49.2607 51.5204C49.2607 47.4248 49.2607 37.0254 49.374 28.3813C49.4872 15.5283 49.5438 9.1113 49.4872 5.73291C93.0476 11.5649 122.075 28.4945 131.399 53.5965C131.795 58.9755 132.116 81.9448 131.984 94.5901Z" fill="#2A3463"/>
<path d="M130.513 75.7572C121.341 51.0516 92.5205 34.2351 49.3564 28.573L49.6207 26.6857C93.4831 32.5554 122.85 49.7682 132.287 75.1532L130.513 75.7572Z" fill="#838BB6"/>
<path d="M45.6182 1.01453C91.6888 6.67663 127.794 27.4377 137.476 54.0495L133.702 53.2568C124.567 28.136 90.4809 8.45075 46.8827 3.16612L45.6182 1.01453Z" fill="#A2BFEF"/>
<path d="M46.996 53.614L45.6182 51.4624V0.918701L46.996 3.0703V53.614Z" fill="#99AFF0"/>
<path d="M118.885 72.3932C118.337 72.3881 117.808 72.1874 117.394 71.827C114.922 69.8264 114.431 62.6544 113.959 51.9342C113.733 46.7062 113.431 39.6097 112.487 38.515C111.072 38.8359 109.637 42.2897 108.373 45.3095C107.362 48.3203 105.822 51.1263 103.824 53.5951C102.125 55.2748 100.767 55.2182 99.9172 54.8785C97.2183 53.7649 96.4634 48.4614 96.4256 45.4416C96.4256 44.4791 96.4256 43.4033 96.4256 42.3086C96.5577 39.3643 96.7087 35.684 95.5763 34.4572C95.4511 34.3241 95.2985 34.2198 95.1291 34.1514C94.9596 34.0829 94.7774 34.0521 94.5949 34.0608C93.5379 34.0608 92.33 39.4587 91.6883 42.3652C90.3106 48.5558 89.0083 54.3878 85.4412 54.3878C81.874 54.3878 81.6664 47.9141 81.6664 40.4212C81.6664 35.7217 81.5532 28.6063 79.7791 28.0967C79.7297 28.0703 79.6746 28.0565 79.6186 28.0565C79.5626 28.0565 79.5075 28.0703 79.4582 28.0967C77.8728 28.9649 76.2119 34.7214 74.853 39.4209C72.7958 46.5552 71.0783 52.6325 67.8132 52.2739C64.548 51.9153 63.6987 44.2337 62.6795 31.8715C62.0944 24.8882 61.5093 17.6596 60.1693 15.6024C60.0183 15.3759 59.924 15.3381 59.924 15.3381C58.4896 15.6401 55.1867 24.775 52.7897 35.2121L50.9023 34.778C52.5255 28.6252 56.3002 14.2246 59.8107 13.5263C60.2309 13.4626 60.6605 13.5343 61.0371 13.7311C61.4138 13.928 61.718 14.2396 61.9057 14.6209C63.4911 17.0745 64.0573 23.869 64.7179 31.7582C65.2841 38.6471 66.2466 50.1789 68.2095 50.4432C69.8138 50.7263 71.9842 43.3278 73.1921 38.9302C75.2116 32.0036 76.5894 27.606 78.7032 26.568C78.9727 26.4144 79.2704 26.3168 79.5786 26.2812C79.8867 26.2455 80.1988 26.2724 80.4963 26.3604C83.4972 27.2852 83.5538 33.4002 83.6293 40.4779C83.6293 45.2907 83.7425 52.557 85.5166 52.5759C87.5739 52.5759 88.9328 46.4797 89.9142 42.0444C91.141 36.5333 92.1413 32.1735 94.7081 32.2489C95.1432 32.2464 95.574 32.334 95.9735 32.5062C96.3731 32.6783 96.7326 32.9313 97.0296 33.2493C98.7093 35.1366 98.5583 38.9114 98.3885 42.4596C98.3885 43.5354 98.3885 44.5735 98.3885 45.4983C98.3885 49.273 99.4643 52.6136 100.71 53.0477C101.295 53.2931 102.031 52.708 102.597 52.1984C104.408 49.8855 105.812 47.2816 106.75 44.498C108.467 40.3646 109.958 36.7786 112.544 36.5333C112.766 36.5122 112.99 36.5383 113.201 36.6099C113.413 36.6814 113.607 36.7968 113.771 36.9485C115.299 38.2885 115.658 43.1957 115.96 51.7832C116.281 58.8986 116.715 68.7695 118.697 70.2794C118.923 70.4681 119.017 70.4304 119.093 70.4115C121.471 69.5244 124.566 57.4453 126.001 49.1598L127.888 49.4806C127.284 52.9911 124.019 70.5814 119.772 72.129C119.499 72.2804 119.197 72.3706 118.885 72.3932Z" fill="#ED573A"/>
<path d="M107.751 124.39C106.236 125.157 104.561 125.557 102.862 125.557C101.164 125.557 99.4893 125.157 97.9742 124.39C95.2563 122.823 95.2375 120.294 97.9742 118.727C99.4926 117.96 101.17 117.559 102.872 117.559C104.573 117.559 106.251 117.96 107.77 118.727C110.431 120.294 110.45 122.823 107.751 124.39Z" fill="#99AFF0"/>
<path d="M99.8439 109.9C98.384 110.089 97.052 110.83 96.1218 111.971C95.1915 113.112 94.7337 114.566 94.8424 116.034C94.8424 120.413 98.9191 124.301 100.731 124.508C101.814 124.747 102.942 124.674 103.985 124.296C105.027 123.919 105.941 123.253 106.62 122.376C108.507 120.488 110.13 114.354 107.129 111.806C105.374 110.353 103.921 109.485 99.8439 109.9Z" fill="#FC704D"/>
<path d="M99.5597 110.652C100.334 109.236 94.8413 111.539 94.8413 115.37C94.8413 119.202 98.4084 122.618 100.013 122.806C100.962 123.019 101.952 122.953 102.866 122.619C103.779 122.284 104.577 121.694 105.165 120.919C106.788 119.202 108.26 113.879 105.618 111.652C104.108 110.482 97.2194 114.993 99.5597 110.652Z" fill="#FC5226"/>
<path d="M97.4076 113.392C96.9614 113.449 96.5553 113.678 96.2765 114.031C95.9977 114.384 95.8685 114.832 95.9166 115.28C95.9376 115.822 96.1142 116.347 96.4254 116.793C96.7366 117.238 97.1693 117.584 97.6718 117.79C97.9905 117.862 98.3232 117.842 98.6307 117.731C98.9383 117.621 99.208 117.425 99.4082 117.167C99.9555 116.582 100.465 114.77 99.5592 114.015C99.2784 113.744 98.9356 113.545 98.5606 113.437C98.1856 113.328 97.7898 113.313 97.4076 113.392Z" fill="#FC704D"/>
<path d="M100.993 111.279C100.993 111.279 100.201 108.844 100.635 108.014L101.05 107.164L101.805 107.617C101.805 107.617 101.107 108.051 100.993 108.448C100.946 109.391 100.946 110.336 100.993 111.279Z" fill="#120A30"/>
<defs>
<linearGradient id="paint0_linear" x1="58.1133" y1="75.5481" x2="61.0009" y2="75.5481" gradientUnits="userSpaceOnUse">
<stop stop-color="#838BB6"/>
<stop offset="1" stop-color="#A2BFEF"/>
</linearGradient>
<linearGradient id="paint1_linear" x1="448.055" y1="175.549" x2="452.474" y2="175.549" gradientUnits="userSpaceOnUse">
<stop stop-color="#838BB6"/>
<stop offset="1" stop-color="#A2BFEF"/>
</linearGradient>
<linearGradient id="paint2_linear" x1="516.581" y1="206.533" x2="520.971" y2="206.533" gradientUnits="userSpaceOnUse">
<stop stop-color="#838BB6"/>
<stop offset="1" stop-color="#A2BFEF"/>
</linearGradient>
<linearGradient id="paint3_linear" x1="521.761" y1="196.868" x2="528.361" y2="196.868" gradientUnits="userSpaceOnUse">
<stop stop-color="#838BB6"/>
<stop offset="1" stop-color="#A2BFEF"/>
</linearGradient>
<linearGradient id="paint4_linear" x1="528.497" y1="199.727" x2="535.097" y2="199.727" gradientUnits="userSpaceOnUse">
<stop stop-color="#838BB6"/>
<stop offset="1" stop-color="#A2BFEF"/>
</linearGradient>
<linearGradient id="paint5_linear" x1="595.915" y1="228.29" x2="602.515" y2="228.29" gradientUnits="userSpaceOnUse">
<stop stop-color="#838BB6"/>
<stop offset="1" stop-color="#A2BFEF"/>
</linearGradient>
<linearGradient id="paint6_linear" x1="589.2" y1="225.424" x2="595.764" y2="225.424" gradientUnits="userSpaceOnUse">
<stop stop-color="#838BB6"/>
<stop offset="1" stop-color="#A2BFEF"/>
</linearGradient>
<linearGradient id="paint7_linear" x1="582.451" y1="221.349" x2="589.051" y2="221.349" gradientUnits="userSpaceOnUse">
<stop stop-color="#838BB6"/>
<stop offset="1" stop-color="#A2BFEF"/>
</linearGradient>
<linearGradient id="paint8_linear" x1="575.715" y1="219.726" x2="582.28" y2="219.726" gradientUnits="userSpaceOnUse">
<stop stop-color="#838BB6"/>
<stop offset="1" stop-color="#A2BFEF"/>
</linearGradient>
<linearGradient id="paint9_linear" x1="568.959" y1="215.659" x2="575.559" y2="215.659" gradientUnits="userSpaceOnUse">
<stop stop-color="#838BB6"/>
<stop offset="1" stop-color="#A2BFEF"/>
</linearGradient>
<linearGradient id="paint10_linear" x1="562.223" y1="214.008" x2="568.823" y2="214.008" gradientUnits="userSpaceOnUse">
<stop stop-color="#838BB6"/>
<stop offset="1" stop-color="#A2BFEF"/>
</linearGradient>
<linearGradient id="paint11_linear" x1="555.453" y1="211.142" x2="562.053" y2="211.142" gradientUnits="userSpaceOnUse">
<stop stop-color="#838BB6"/>
<stop offset="1" stop-color="#A2BFEF"/>
</linearGradient>
<linearGradient id="paint12_linear" x1="548.736" y1="207.136" x2="555.336" y2="207.136" gradientUnits="userSpaceOnUse">
<stop stop-color="#838BB6"/>
<stop offset="1" stop-color="#A2BFEF"/>
</linearGradient>
<linearGradient id="paint13_linear" x1="539.426" y1="205.445" x2="545.991" y2="205.445" gradientUnits="userSpaceOnUse">
<stop stop-color="#838BB6"/>
<stop offset="1" stop-color="#A2BFEF"/>
</linearGradient>
<linearGradient id="paint14_linear" x1="535.253" y1="201.446" x2="541.853" y2="201.446" gradientUnits="userSpaceOnUse">
<stop stop-color="#838BB6"/>
<stop offset="1" stop-color="#A2BFEF"/>
</linearGradient>
<linearGradient id="paint15_linear" x1="946.354" y1="324.356" x2="964.667" y2="324.356" gradientUnits="userSpaceOnUse">
<stop stop-color="#838BB6"/>
<stop offset="1" stop-color="#A2BFEF"/>
</linearGradient>
<linearGradient id="paint16_linear" x1="666.975" y1="239.049" x2="678.583" y2="239.049" gradientUnits="userSpaceOnUse">
<stop stop-color="#838BB6"/>
<stop offset="1" stop-color="#A2BFEF"/>
</linearGradient>
<linearGradient id="paint17_linear" x1="601.306" y1="236.241" x2="607.835" y2="236.241" gradientUnits="userSpaceOnUse">
<stop stop-color="#838BB6"/>
<stop offset="1" stop-color="#A2BFEF"/>
</linearGradient>
<linearGradient id="paint18_linear" x1="726.533" y1="260.234" x2="740.806" y2="260.234" gradientUnits="userSpaceOnUse">
<stop stop-color="#838BB6"/>
<stop offset="1" stop-color="#A2BFEF"/>
</linearGradient>
<linearGradient id="paint19_linear" x1="580.176" y1="230.909" x2="586.776" y2="230.909" gradientUnits="userSpaceOnUse">
<stop stop-color="#838BB6"/>
<stop offset="1" stop-color="#A2BFEF"/>
</linearGradient>
<linearGradient id="paint20_linear" x1="572.894" y1="227.872" x2="579.494" y2="227.872" gradientUnits="userSpaceOnUse">
<stop stop-color="#838BB6"/>
<stop offset="1" stop-color="#A2BFEF"/>
</linearGradient>
<linearGradient id="paint21_linear" x1="565.582" y1="224.835" x2="572.182" y2="224.835" gradientUnits="userSpaceOnUse">
<stop stop-color="#838BB6"/>
<stop offset="1" stop-color="#A2BFEF"/>
</linearGradient>
<linearGradient id="paint22_linear" x1="558.288" y1="220.566" x2="564.888" y2="220.566" gradientUnits="userSpaceOnUse">
<stop stop-color="#838BB6"/>
<stop offset="1" stop-color="#A2BFEF"/>
</linearGradient>
<linearGradient id="paint23_linear" x1="550.975" y1="218.74" x2="557.575" y2="218.74" gradientUnits="userSpaceOnUse">
<stop stop-color="#838BB6"/>
<stop offset="1" stop-color="#A2BFEF"/>
</linearGradient>
<linearGradient id="paint24_linear" x1="543.663" y1="215.704" x2="550.263" y2="215.704" gradientUnits="userSpaceOnUse">
<stop stop-color="#838BB6"/>
<stop offset="1" stop-color="#A2BFEF"/>
</linearGradient>
<linearGradient id="paint25_linear" x1="536.386" y1="212.667" x2="542.986" y2="212.667" gradientUnits="userSpaceOnUse">
<stop stop-color="#838BB6"/>
<stop offset="1" stop-color="#A2BFEF"/>
</linearGradient>
<linearGradient id="paint26_linear" x1="529.076" y1="209.631" x2="535.676" y2="209.631" gradientUnits="userSpaceOnUse">
<stop stop-color="#838BB6"/>
<stop offset="1" stop-color="#A2BFEF"/>
</linearGradient>
<linearGradient id="paint27_linear" x1="521.761" y1="206.574" x2="528.361" y2="206.574" gradientUnits="userSpaceOnUse">
<stop stop-color="#838BB6"/>
<stop offset="1" stop-color="#A2BFEF"/>
</linearGradient>
<linearGradient id="paint28_linear" x1="590.133" y1="232.695" x2="596.769" y2="232.695" gradientUnits="userSpaceOnUse">
<stop stop-color="#838BB6"/>
<stop offset="1" stop-color="#A2BFEF"/>
</linearGradient>
<linearGradient id="paint29_linear" x1="816.126" y1="298.802" x2="829.681" y2="298.802" gradientUnits="userSpaceOnUse">
<stop stop-color="#838BB6"/>
<stop offset="1" stop-color="#A2BFEF"/>
</linearGradient>
<linearGradient id="paint30_linear" x1="809.377" y1="287.66" x2="827.69" y2="287.66" gradientUnits="userSpaceOnUse">
<stop stop-color="#838BB6"/>
<stop offset="1" stop-color="#A2BFEF"/>
</linearGradient>
<linearGradient id="paint31_linear" x1="518.782" y1="209.553" x2="525.382" y2="209.553" gradientUnits="userSpaceOnUse">
<stop stop-color="#838BB6"/>
<stop offset="1" stop-color="#A2BFEF"/>
</linearGradient>
<linearGradient id="paint32_linear" x1="579.468" y1="235.25" x2="586.068" y2="235.25" gradientUnits="userSpaceOnUse">
<stop stop-color="#838BB6"/>
<stop offset="1" stop-color="#A2BFEF"/>
</linearGradient>
<linearGradient id="paint33_linear" x1="572.733" y1="231.122" x2="579.333" y2="231.122" gradientUnits="userSpaceOnUse">
<stop stop-color="#838BB6"/>
<stop offset="1" stop-color="#A2BFEF"/>
</linearGradient>
<linearGradient id="paint34_linear" x1="565.981" y1="229.532" x2="572.581" y2="229.532" gradientUnits="userSpaceOnUse">
<stop stop-color="#838BB6"/>
<stop offset="1" stop-color="#A2BFEF"/>
</linearGradient>
<linearGradient id="paint35_linear" x1="559.245" y1="225.431" x2="565.845" y2="225.431" gradientUnits="userSpaceOnUse">
<stop stop-color="#838BB6"/>
<stop offset="1" stop-color="#A2BFEF"/>
</linearGradient>
<linearGradient id="paint36_linear" x1="552.496" y1="223.806" x2="559.096" y2="223.806" gradientUnits="userSpaceOnUse">
<stop stop-color="#838BB6"/>
<stop offset="1" stop-color="#A2BFEF"/>
</linearGradient>
<linearGradient id="paint37_linear" x1="545.76" y1="220.947" x2="552.36" y2="220.947" gradientUnits="userSpaceOnUse">
<stop stop-color="#838BB6"/>
<stop offset="1" stop-color="#A2BFEF"/>
</linearGradient>
<linearGradient id="paint38_linear" x1="539.004" y1="218.088" x2="545.604" y2="218.088" gradientUnits="userSpaceOnUse">
<stop stop-color="#838BB6"/>
<stop offset="1" stop-color="#A2BFEF"/>
</linearGradient>
<linearGradient id="paint39_linear" x1="532.268" y1="214.049" x2="538.868" y2="214.049" gradientUnits="userSpaceOnUse">
<stop stop-color="#838BB6"/>
<stop offset="1" stop-color="#A2BFEF"/>
</linearGradient>
<linearGradient id="paint40_linear" x1="525.518" y1="212.37" x2="532.118" y2="212.37" gradientUnits="userSpaceOnUse">
<stop stop-color="#838BB6"/>
<stop offset="1" stop-color="#A2BFEF"/>
</linearGradient>
<linearGradient id="paint41_linear" x1="901.8" y1="327.349" x2="919.07" y2="327.349" gradientUnits="userSpaceOnUse">
<stop stop-color="#838BB6"/>
<stop offset="1" stop-color="#A2BFEF"/>
</linearGradient>
<linearGradient id="paint42_linear" x1="499.824" y1="206.154" x2="506.423" y2="206.154" gradientUnits="userSpaceOnUse">
<stop stop-color="#838BB6"/>
<stop offset="1" stop-color="#A2BFEF"/>
</linearGradient>
<linearGradient id="paint43_linear" x1="506.614" y1="209.014" x2="513.214" y2="209.014" gradientUnits="userSpaceOnUse">
<stop stop-color="#838BB6"/>
<stop offset="1" stop-color="#A2BFEF"/>
</linearGradient>
<linearGradient id="paint44_linear" x1="513.31" y1="211.88" x2="519.91" y2="211.88" gradientUnits="userSpaceOnUse">
<stop stop-color="#838BB6"/>
<stop offset="1" stop-color="#A2BFEF"/>
</linearGradient>
<linearGradient id="paint45_linear" x1="519.919" y1="214.754" x2="526.519" y2="214.754" gradientUnits="userSpaceOnUse">
<stop stop-color="#838BB6"/>
<stop offset="1" stop-color="#A2BFEF"/>
</linearGradient>
<linearGradient id="paint46_linear" x1="2399.94" y1="766.202" x2="2564.59" y2="766.202" gradientUnits="userSpaceOnUse">
<stop stop-color="#838BB6"/>
<stop offset="1" stop-color="#A2BFEF"/>
</linearGradient>
<linearGradient id="paint47_linear" x1="464.449" y1="206.82" x2="468.473" y2="206.82" gradientUnits="userSpaceOnUse">
<stop stop-color="#838BB6"/>
<stop offset="1" stop-color="#A2BFEF"/>
</linearGradient>
<linearGradient id="paint48_linear" x1="580.749" y1="240.435" x2="587.349" y2="240.435" gradientUnits="userSpaceOnUse">
<stop stop-color="#838BB6"/>
<stop offset="1" stop-color="#A2BFEF"/>
</linearGradient>
<linearGradient id="paint49_linear" x1="478.71" y1="211.866" x2="482.761" y2="211.866" gradientUnits="userSpaceOnUse">
<stop stop-color="#838BB6"/>
<stop offset="1" stop-color="#A2BFEF"/>
</linearGradient>
<linearGradient id="paint50_linear" x1="594.106" y1="233.314" x2="600.635" y2="233.314" gradientUnits="userSpaceOnUse">
<stop stop-color="#838BB6"/>
<stop offset="1" stop-color="#A2BFEF"/>
</linearGradient>
<linearGradient id="paint51_linear" x1="584.328" y1="229.045" x2="590.823" y2="229.045" gradientUnits="userSpaceOnUse">
<stop stop-color="#838BB6"/>
<stop offset="1" stop-color="#A2BFEF"/>
</linearGradient>
<linearGradient id="paint52_linear" x1="579.925" y1="227.304" x2="586.454" y2="227.304" gradientUnits="userSpaceOnUse">
<stop stop-color="#838BB6"/>
<stop offset="1" stop-color="#A2BFEF"/>
</linearGradient>
<linearGradient id="paint53_linear" x1="572.873" y1="224.304" x2="579.402" y2="224.304" gradientUnits="userSpaceOnUse">
<stop stop-color="#838BB6"/>
<stop offset="1" stop-color="#A2BFEF"/>
</linearGradient>
<linearGradient id="paint54_linear" x1="565.767" y1="221.28" x2="572.297" y2="221.28" gradientUnits="userSpaceOnUse">
<stop stop-color="#838BB6"/>
<stop offset="1" stop-color="#A2BFEF"/>
</linearGradient>
<linearGradient id="paint55_linear" x1="556.089" y1="217.071" x2="562.584" y2="217.071" gradientUnits="userSpaceOnUse">
<stop stop-color="#838BB6"/>
<stop offset="1" stop-color="#A2BFEF"/>
</linearGradient>
<linearGradient id="paint56_linear" x1="551.606" y1="215.271" x2="558.136" y2="215.271" gradientUnits="userSpaceOnUse">
<stop stop-color="#838BB6"/>
<stop offset="1" stop-color="#A2BFEF"/>
</linearGradient>
<linearGradient id="paint57_linear" x1="544.534" y1="212.249" x2="551.063" y2="212.249" gradientUnits="userSpaceOnUse">
<stop stop-color="#838BB6"/>
<stop offset="1" stop-color="#A2BFEF"/>
</linearGradient>
<linearGradient id="paint58_linear" x1="537.428" y1="209.256" x2="543.958" y2="209.256" gradientUnits="userSpaceOnUse">
<stop stop-color="#838BB6"/>
<stop offset="1" stop-color="#A2BFEF"/>
</linearGradient>
<linearGradient id="paint59_linear" x1="527.849" y1="205.096" x2="534.343" y2="205.096" gradientUnits="userSpaceOnUse">
<stop stop-color="#838BB6"/>
<stop offset="1" stop-color="#A2BFEF"/>
</linearGradient>
<linearGradient id="paint60_linear" x1="523.268" y1="203.239" x2="529.797" y2="203.239" gradientUnits="userSpaceOnUse">
<stop stop-color="#838BB6"/>
<stop offset="1" stop-color="#A2BFEF"/>
</linearGradient>
<linearGradient id="paint61_linear" x1="513.455" y1="203.945" x2="517.844" y2="203.945" gradientUnits="userSpaceOnUse">
<stop stop-color="#838BB6"/>
<stop offset="1" stop-color="#A2BFEF"/>
</linearGradient>
<linearGradient id="paint62_linear" x1="504.734" y1="201.363" x2="509.123" y2="201.363" gradientUnits="userSpaceOnUse">
<stop stop-color="#838BB6"/>
<stop offset="1" stop-color="#A2BFEF"/>
</linearGradient>
<linearGradient id="paint63_linear" x1="501.565" y1="198.775" x2="505.954" y2="198.775" gradientUnits="userSpaceOnUse">
<stop stop-color="#838BB6"/>
<stop offset="1" stop-color="#A2BFEF"/>
</linearGradient>
<linearGradient id="paint64_linear" x1="492.895" y1="196.184" x2="497.284" y2="196.184" gradientUnits="userSpaceOnUse">
<stop stop-color="#838BB6"/>
<stop offset="1" stop-color="#A2BFEF"/>
</linearGradient>
<linearGradient id="paint65_linear" x1="489.674" y1="193.596" x2="494.064" y2="193.596" gradientUnits="userSpaceOnUse">
<stop stop-color="#838BB6"/>
<stop offset="1" stop-color="#A2BFEF"/>
</linearGradient>
<linearGradient id="paint66_linear" x1="483.728" y1="191.014" x2="488.146" y2="191.014" gradientUnits="userSpaceOnUse">
<stop stop-color="#838BB6"/>
<stop offset="1" stop-color="#A2BFEF"/>
</linearGradient>
<linearGradient id="paint67_linear" x1="477.788" y1="188.425" x2="482.206" y2="188.425" gradientUnits="userSpaceOnUse">
<stop stop-color="#838BB6"/>
<stop offset="1" stop-color="#A2BFEF"/>
</linearGradient>
<linearGradient id="paint68_linear" x1="471.835" y1="185.843" x2="476.254" y2="185.843" gradientUnits="userSpaceOnUse">
<stop stop-color="#838BB6"/>
<stop offset="1" stop-color="#A2BFEF"/>
</linearGradient>
<linearGradient id="paint69_linear" x1="465.895" y1="182.118" x2="470.314" y2="182.118" gradientUnits="userSpaceOnUse">
<stop stop-color="#838BB6"/>
<stop offset="1" stop-color="#A2BFEF"/>
</linearGradient>
<linearGradient id="paint70_linear" x1="457.366" y1="180.672" x2="461.755" y2="180.672" gradientUnits="userSpaceOnUse">
<stop stop-color="#838BB6"/>
<stop offset="1" stop-color="#A2BFEF"/>
</linearGradient>
<linearGradient id="paint71_linear" x1="454.006" y1="178.084" x2="458.424" y2="178.084" gradientUnits="userSpaceOnUse">
<stop stop-color="#838BB6"/>
<stop offset="1" stop-color="#A2BFEF"/>
</linearGradient>
</defs>
</svg>
