<svg width="196" height="211" viewBox="0 0 196 211" fill="none" xmlns="http://www.w3.org/2000/svg">
<path d="M125.775 210.941L119.228 207.021V140.543L125.775 144.464V210.941Z" fill="#7389D9"/>
<path d="M12.0133 144.948L5.46582 141.028V72.1931L12.0133 76.0894V144.948Z" fill="#7389D9"/>
<path d="M12.0127 144.946L85.5999 104.179L50.744 54.6815L12.0127 76.0872V144.946Z" fill="#879ADE"/>
<path d="M193.226 170.247L125.777 210.941V144.464L193.226 103.769V170.247Z" fill="#879ADE"/>
<path d="M125.633 144.777L2.50586 72.7436V68.679L195.392 98.7912V102.88L125.633 144.777Z" fill="#99AFF0"/>
<path d="M125.633 140.712L2.50586 68.6788L73.1803 25.6029L195.392 98.791L125.633 140.712Z" fill="#99AFF0"/>
<path d="M125.633 140.712L2.50586 68.6788L73.1803 25.6029L195.392 98.791L125.633 140.712Z" fill="#99AFF0"/>
<path d="M53.3455 77.5753L89.453 98.5239C89.737 98.6658 90.0502 98.7396 90.3677 98.7396C90.6853 98.7396 90.9984 98.6658 91.2825 98.5239L105.725 91.5972C106.207 91.3326 106.688 85.2717 106.038 87.2439L66.8738 70.9612C66.5872 70.8135 66.2694 70.7365 65.947 70.7365C65.6246 70.7365 65.3068 70.8135 65.0202 70.9612L53.201 75.5309C52.7196 75.7474 52.7918 77.2145 53.3455 77.5753Z" fill="#7389D9"/>
<path d="M53.3455 76.5423L89.453 97.491C89.7353 97.6385 90.0492 97.7155 90.3677 97.7155C90.6863 97.7155 91.0001 97.6385 91.2825 97.491C91.2825 97.491 107.699 87.7261 106.327 86.8122L70.0031 66.3446C69.4494 66.0078 65.5017 68.3408 65.0202 68.6054L53.201 75.46C52.7196 75.7486 52.7918 76.2296 53.3455 76.5423Z" fill="#A2BFEF"/>
<path d="M66.9923 70.9353L64.874 69.7087L66.0054 69.0834L68.0996 70.31L66.9923 70.9353Z" fill="#879ADE"/>
<path d="M69.6177 72.4828L67.5234 71.2562L68.6307 70.6068L70.725 71.8334L69.6177 72.4828Z" fill="#879ADE"/>
<path d="M64.7775 72.2321L62.6592 71.0055L64.4886 69.9473L66.6069 71.1739L64.7775 72.2321Z" fill="#879ADE"/>
<path d="M67.4005 73.7796L65.2822 72.553L67.1117 71.4707L69.23 72.6973L67.4005 73.7796Z" fill="#879ADE"/>
<path d="M100.741 91.0207L98.9111 92.0789L94.1689 89.3131V88.8801L100.741 90.5637V91.0207Z" fill="#879ADE"/>
<path d="M65.7646 73.1523L63.9351 74.2346L60.541 72.2624L62.3705 71.1801L65.7646 73.1523Z" fill="#879ADE"/>
<path d="M62.3712 75.7959L58.3994 73.487L60.2289 72.4287L64.2007 74.7376L62.3712 75.7959Z" fill="#879ADE"/>
<path d="M84.7085 88.7856L82.6143 87.559L84.4437 86.5007L86.562 87.7274L84.7085 88.7856Z" fill="#879ADE"/>
<path d="M96.4801 93.5002L94.6507 94.5585L90.8232 92.3457L92.6527 91.2634L96.4801 93.5002Z" fill="#879ADE"/>
<path d="M60.998 77.4773L56.2559 74.7355L58.0853 73.6772L62.8274 76.4191L60.998 77.4773Z" fill="#879ADE"/>
<path d="M63.6232 79.0168L61.5049 77.7902L63.3343 76.7319L65.4526 77.9585L63.6232 79.0168Z" fill="#879ADE"/>
<path d="M84.6369 91.2121L82.5186 89.9855L84.348 88.9272L86.4663 90.1539L84.6369 91.2121Z" fill="#879ADE"/>
<path d="M92.5105 95.8071L87.9609 93.1614V92.7045L94.3399 94.2919V94.7248L92.5105 95.8071Z" fill="#879ADE"/>
<path d="M64.1291 81.7889L62.0107 80.5623L63.8402 79.504L65.9585 80.7306L64.1291 81.7889Z" fill="#879ADE"/>
<path d="M84.3244 91.4086L82.495 92.4669L64.6338 82.0767V81.6438L84.3244 90.9517V91.4086Z" fill="#879ADE"/>
<path d="M85.1187 93.9752L83.0244 92.7486V92.3157L86.1056 92.9651V93.422L85.1187 93.9752Z" fill="#879ADE"/>
<path d="M87.7423 95.5227L85.624 94.2961V93.8391L89.5718 94.0075V94.4644L87.7423 95.5227Z" fill="#879ADE"/>
<path d="M90.3677 97.0299L88.2734 95.8033V95.3704L91.3546 96.0197V96.4767L90.3677 97.0299Z" fill="#879ADE"/>
<path d="M66.1739 69.2327H64.874V69.7137H66.1739V69.2327Z" fill="#879ADE"/>
<path d="M68.0993 69.853H67.2568V70.2138H68.0993V69.853Z" fill="#879ADE"/>
<path d="M70.7484 71.396H69.3281V71.8049H70.7484V71.396Z" fill="#879ADE"/>
<path d="M68.9677 70.7953H67.5234V71.2523H68.9677V70.7953Z" fill="#879ADE"/>
<path d="M67.1117 72.0911H65.2822V72.548H67.1117V72.0911Z" fill="#879ADE"/>
<path d="M69.2566 72.2402H67.9326V72.6972H69.2566V72.2402Z" fill="#879ADE"/>
<path d="M64.2014 70.5009H62.709V70.9578H64.2014V70.5009Z" fill="#879ADE"/>
<path d="M66.6077 70.7168H64.6338V71.1738H66.6077V70.7168Z" fill="#879ADE"/>
<path d="M62.202 71.8083H60.541V72.2413H62.202V71.8083Z" fill="#879ADE"/>
<path d="M65.7661 72.7192H62.2275V73.1762H65.7661V72.7192Z" fill="#879ADE"/>
<path d="M59.7234 73.0569H58.3994V73.4898H59.7234V73.0569Z" fill="#879ADE"/>
<path d="M64.2017 74.278H61.2891V74.7349H64.2017V74.278Z" fill="#879ADE"/>
<path d="M62.829 75.9899H58.9053V76.4228H62.829V75.9899Z" fill="#879ADE"/>
<path d="M57.3872 74.278H56.2559V74.7349H57.3872V74.278Z" fill="#879ADE"/>
<path d="M65.4515 77.5291H63.1406V77.962H65.4515V77.5291Z" fill="#879ADE"/>
<path d="M62.9251 77.3328H61.5049V77.7897H62.9251V77.3328Z" fill="#879ADE"/>
<path d="M66.9923 70.5078L64.874 69.2812L66.0054 68.6318L68.0996 69.8585L66.9923 70.5078Z" fill="url(#paint0_linear)"/>
<path d="M69.6177 72.0509L67.5234 70.8003L68.6307 70.1749L70.725 71.4015L69.6177 72.0509Z" fill="url(#paint1_linear)"/>
<path d="M101.127 90.7831L99.0332 89.5565V89.1235L102.259 89.7008V90.1577L101.127 90.7831Z" fill="#879ADE"/>
<path d="M101.127 90.3517L99.0332 89.1251L100.14 88.4757L102.259 89.7023L101.127 90.3517Z" fill="url(#paint2_linear)"/>
<path d="M64.7775 71.8046L62.6592 70.578L64.4886 69.4957L66.6069 70.7223L64.7775 71.8046Z" fill="url(#paint3_linear)"/>
<path d="M67.4005 73.3236L65.2822 72.097L67.1117 71.0387L69.23 72.2653L67.4005 73.3236Z" fill="url(#paint4_linear)"/>
<path d="M93.6642 89.0206L91.5459 87.794V87.337L95.4937 87.5054V87.9624L93.6642 89.0206Z" fill="#879ADE"/>
<path d="M93.6642 88.5937L91.5459 87.3431L93.3754 86.2848L95.4937 87.5114L93.6642 88.5937Z" fill="url(#paint5_linear)"/>
<path d="M91.0402 87.509L88.9219 86.2824V85.8254L92.8696 85.9938V86.4267L91.0402 87.509Z" fill="#879ADE"/>
<path d="M91.0402 87.0501L88.9219 85.8235L90.7513 84.7653L92.8696 85.9919L91.0402 87.0501Z" fill="url(#paint6_linear)"/>
<path d="M88.4171 85.9733L86.2988 84.7466V84.3137L90.2466 84.458V84.915L88.4171 85.9733Z" fill="#879ADE"/>
<path d="M88.4171 85.5429L86.2988 84.3163L88.1283 83.234L90.2466 84.4606L88.4171 85.5429Z" fill="url(#paint7_linear)"/>
<path d="M85.7941 84.4543L83.6758 83.2277V82.7708L87.6235 82.9391V83.372L85.7941 84.4543Z" fill="#879ADE"/>
<path d="M85.7941 83.9954L83.6758 82.7688L85.5052 81.7106L87.6235 82.9372L85.7941 83.9954Z" fill="url(#paint8_linear)"/>
<path d="M83.1701 82.9186L81.0518 81.692V81.259L84.9995 81.4033V81.8603L83.1701 82.9186Z" fill="#879ADE"/>
<path d="M83.1701 82.4804L81.0518 81.2538L82.8812 80.1715L84.9995 81.3981L83.1701 82.4804Z" fill="url(#paint9_linear)"/>
<path d="M80.547 81.4036L78.4287 80.177V79.72L82.3765 79.8883V80.3453L80.547 81.4036Z" fill="#879ADE"/>
<path d="M80.547 80.9408L78.4287 79.7141L80.2582 78.6559L82.3765 79.8825L80.547 80.9408Z" fill="url(#paint10_linear)"/>
<path d="M77.921 79.8639L75.8027 78.6373V78.2043L79.7505 78.3727V78.8056L77.921 79.8639Z" fill="#879ADE"/>
<path d="M77.921 79.4256L75.8027 78.199L77.6322 77.1167L79.7505 78.3674L77.921 79.4256Z" fill="url(#paint11_linear)"/>
<path d="M75.2739 78.3489L73.1797 77.1223V76.6653L77.1274 76.8336V77.2906L75.2739 78.3489Z" fill="#879ADE"/>
<path d="M75.2739 77.89L73.1797 76.6634L75.0091 75.6051L77.1274 76.8317L75.2739 77.89Z" fill="url(#paint12_linear)"/>
<path d="M72.6499 76.8254L70.5557 75.5748V75.1418L74.4794 75.3102V75.7431L72.6499 76.8254Z" fill="#879ADE"/>
<path d="M72.6499 76.3744L70.5557 75.1477L72.3851 74.0895L74.4794 75.3161L72.6499 76.3744Z" fill="url(#paint13_linear)"/>
<path d="M70.0269 75.2941L67.9326 74.0675V73.6105L71.8563 73.7788V74.2358L70.0269 75.2941Z" fill="#879ADE"/>
<path d="M70.0269 74.8593L67.9326 73.6087L69.7621 72.5504L71.8563 73.777L70.0269 74.8593Z" fill="url(#paint14_linear)"/>
<path d="M100.741 90.5697L98.9111 91.628L94.1689 88.8861L95.9984 87.8279L100.741 90.5697Z" fill="url(#paint15_linear)"/>
<path d="M65.7646 72.7204L63.9351 73.7786L60.541 71.8064L62.3705 70.7482L65.7646 72.7204Z" fill="url(#paint16_linear)"/>
<path d="M96.7951 92.8787L94.6768 91.6521V92.085L96.7951 93.3357L98.6004 92.2534V91.8205L96.7951 92.8787Z" fill="#879ADE"/>
<path d="M98.6239 91.8147L96.5056 90.5881L94.7002 91.6223L96.7944 92.873L98.6239 91.8147Z" fill="url(#paint17_linear)"/>
<path d="M62.3712 75.3684L58.3994 73.0595L60.2289 71.9772L64.2007 74.2861L62.3712 75.3684Z" fill="url(#paint18_linear)"/>
<path d="M87.549 89.985L85.4307 88.7584V89.1913L87.549 90.418L89.3784 89.3597V88.9268L87.549 89.985Z" fill="#879ADE"/>
<path d="M89.3784 88.9255L87.2601 87.6748L85.4307 88.7571L87.549 89.9837L89.3784 88.9255Z" fill="url(#paint19_linear)"/>
<path d="M84.686 88.3477L82.5918 87.1211V87.5781L84.686 88.8047L86.5155 87.7464V87.2895L84.686 88.3477Z" fill="#879ADE"/>
<path d="M86.5155 87.2955L84.4213 86.0688L82.5918 87.1271L84.686 88.3537L86.5155 87.2955Z" fill="url(#paint20_linear)"/>
<path d="M81.8462 86.7419L79.752 85.5153V85.9482L81.8462 87.1748L83.6757 86.1165V85.6596L81.8462 86.7419Z" fill="#879ADE"/>
<path d="M83.6757 85.6622L81.5573 84.4355L79.752 85.5179L81.8462 86.7445L83.6757 85.6622Z" fill="url(#paint21_linear)"/>
<path d="M79.0041 85.1085L76.8857 83.8818V84.3148L79.0041 85.5654L80.8335 84.4831V84.0502L79.0041 85.1085Z" fill="#879ADE"/>
<path d="M80.8335 84.0445L78.7152 82.8179L76.8857 83.8761L79.0041 85.1027L80.8335 84.0445Z" fill="url(#paint22_linear)"/>
<path d="M76.1652 83.4712L74.0469 82.2446V82.7016L76.1652 83.9282L77.9946 82.87V82.413L76.1652 83.4712Z" fill="#879ADE"/>
<path d="M77.9946 82.4111L75.8763 81.1844L74.0469 82.2427L76.1652 83.4693L77.9946 82.4111Z" fill="url(#paint23_linear)"/>
<path d="M73.3253 81.8575L71.207 80.6309V81.0638L73.3253 82.3145L75.1548 81.2321V80.7992L73.3253 81.8575Z" fill="#879ADE"/>
<path d="M75.1548 80.7934L73.0365 79.5668L71.207 80.625L73.3253 81.8516L75.1548 80.7934Z" fill="url(#paint24_linear)"/>
<path d="M70.4826 80.2201L68.3643 78.9935V79.4505L70.4826 80.6771L72.312 79.6189V79.1619L70.4826 80.2201Z" fill="#879ADE"/>
<path d="M72.312 79.1601L70.1937 77.9335L68.3643 78.9917L70.4826 80.2183L72.312 79.1601Z" fill="url(#paint25_linear)"/>
<path d="M67.6437 78.6143L65.5254 77.3877V77.8206L67.6437 79.0472L69.4731 77.989V77.5561L67.6437 78.6143Z" fill="#879ADE"/>
<path d="M69.4731 77.5541L67.3548 76.3275L65.5254 77.3858L67.6437 78.6124L69.4731 77.5541Z" fill="url(#paint26_linear)"/>
<path d="M64.8039 76.9731L62.6855 75.7465V76.2034L64.8039 77.43L66.6333 76.3477V75.9148L64.8039 76.9731Z" fill="#879ADE"/>
<path d="M66.6333 75.9208L64.515 74.6942L62.6855 75.7525L64.8039 76.9791L66.6333 75.9208Z" fill="url(#paint27_linear)"/>
<path d="M90.3664 91.6185L88.248 90.3918V90.8248L90.3664 92.0514L92.1958 90.9931V90.5602L90.3664 91.6185Z" fill="#879ADE"/>
<path d="M92.1958 90.5661L90.0775 89.3395L88.248 90.3977L90.3664 91.6244L92.1958 90.5661Z" fill="url(#paint28_linear)"/>
<path d="M96.4801 93.0443L94.6507 94.1266L90.8232 91.8898L92.6527 90.8315L96.4801 93.0443Z" fill="url(#paint29_linear)"/>
<path d="M60.998 77.0499L56.2559 74.284L58.0853 73.2257L62.8274 75.9916L60.998 77.0499Z" fill="url(#paint30_linear)"/>
<path d="M63.6232 78.5653L61.5049 77.3387L63.3343 76.2804L65.4526 77.507L63.6232 78.5653Z" fill="url(#paint31_linear)"/>
<path d="M87.2609 92.2938L85.1426 91.0671V91.5241L87.2609 92.7507L89.0904 91.6925V91.2355L87.2609 92.2938Z" fill="#879ADE"/>
<path d="M89.0904 91.2415L86.972 90.0149L85.1426 91.0732L87.2609 92.2998L89.0904 91.2415Z" fill="url(#paint32_linear)"/>
<path d="M84.6369 90.782L82.5186 89.5554V89.9883L84.6369 91.215L86.4663 90.1567V89.7238L84.6369 90.782Z" fill="#879ADE"/>
<path d="M86.4663 89.7264L84.348 88.4757L82.5186 89.558L84.6369 90.7846L86.4663 89.7264Z" fill="url(#paint33_linear)"/>
<path d="M82.0138 89.243L79.8955 88.0164V88.4733L82.0138 89.6999L83.8433 88.6176V88.1847L82.0138 89.243Z" fill="#879ADE"/>
<path d="M83.8433 88.1789L81.725 86.9523L79.8955 88.0105L82.0138 89.2371L83.8433 88.1789Z" fill="url(#paint34_linear)"/>
<path d="M79.3908 87.7274L77.2725 86.5007V86.9337L79.3908 88.1603L81.2202 87.102V86.645L79.3908 87.7274Z" fill="#879ADE"/>
<path d="M81.2202 86.6476L79.1019 85.421L77.2725 86.5033L79.3908 87.73L81.2202 86.6476Z" fill="url(#paint35_linear)"/>
<path d="M76.7667 86.1883L74.6484 84.9617V85.4186L76.7667 86.6453L78.5962 85.563V85.13L76.7667 86.1883Z" fill="#879ADE"/>
<path d="M78.5962 85.1242L76.4779 83.8976L74.6484 84.9558L76.7667 86.1825L78.5962 85.1242Z" fill="url(#paint36_linear)"/>
<path d="M74.1437 84.6766L72.0254 83.45V83.8829L74.1437 85.1095L75.9731 84.0512V83.5943L74.1437 84.6766Z" fill="#879ADE"/>
<path d="M75.9731 83.585L73.8548 82.3584L72.0254 83.4407L74.1437 84.6673L75.9731 83.585Z" fill="url(#paint37_linear)"/>
<path d="M71.4956 83.1335L69.4014 81.9069V82.3398L71.4956 83.5905L73.3491 82.5081V82.0752L71.4956 83.1335Z" fill="#879ADE"/>
<path d="M73.3491 82.0734L71.2308 80.8468L69.4014 81.9051L71.4956 83.1317L73.3491 82.0734Z" fill="url(#paint38_linear)"/>
<path d="M68.8706 81.6185L66.7764 80.3678V80.8248L68.8706 82.0514L70.7001 80.9931V80.5362L68.8706 81.6185Z" fill="#879ADE"/>
<path d="M70.7001 80.5303L68.6058 79.3037L66.7764 80.362L68.8706 81.6126L70.7001 80.5303Z" fill="url(#paint39_linear)"/>
<path d="M66.2456 80.0827L64.1514 78.8561V79.3131L66.2456 80.5397L68.0751 79.4574V79.0244L66.2456 80.0827Z" fill="#879ADE"/>
<path d="M68.0751 79.0187L65.9567 77.7921L64.1514 78.8504L66.2456 80.077L68.0751 79.0187Z" fill="url(#paint40_linear)"/>
<path d="M92.5105 95.356L87.9609 92.7104L89.7904 91.6521L94.3399 94.2977L92.5105 95.356Z" fill="url(#paint41_linear)"/>
<path d="M56.2319 76.7571L54.1377 75.5305V75.9875L56.2319 77.2141L58.0614 76.1318V75.6989L56.2319 76.7571Z" fill="#879ADE"/>
<path d="M55.9671 74.4783L54.1377 75.5365L56.2319 76.7631L58.0614 75.7049L55.9671 74.4783Z" fill="url(#paint42_linear)"/>
<path d="M58.8576 78.2767L56.8115 77.05V77.5792L58.9058 78.8298L60.7352 77.7716V77.3146L58.8576 78.2767Z" fill="#879ADE"/>
<path d="M58.5931 75.9899L56.7637 77.0481L58.8579 78.2747L60.6874 77.2165L58.5931 75.9899Z" fill="url(#paint43_linear)"/>
<path d="M61.481 79.8196L59.3867 78.593V79.0259L61.481 80.2526L63.3104 79.1943V78.7614L61.481 79.8196Z" fill="#879ADE"/>
<path d="M61.2162 77.5762L59.3867 78.6344L61.481 79.861L63.3104 78.8028L61.2162 77.5762Z" fill="url(#paint44_linear)"/>
<path d="M64.0317 81.3314L61.9375 80.1047V80.5377L64.0317 81.7883L65.8612 80.706V80.2731L64.0317 81.3314Z" fill="#879ADE"/>
<path d="M63.7904 79.0406L61.9609 80.0989L64.0552 81.3255L65.8846 80.2673L63.7904 79.0406Z" fill="url(#paint45_linear)"/>
<path d="M84.3244 90.9464L82.495 92.0047L64.6338 81.6386L66.4632 80.5563L84.3244 90.9464Z" fill="url(#paint46_linear)"/>
<path d="M85.1187 93.5463L83.0244 92.3197L83.9873 91.7424L86.1056 92.9691L85.1187 93.5463Z" fill="url(#paint47_linear)"/>
<path d="M87.7423 95.0639L85.624 93.8373L87.4775 92.7791L89.5718 94.0057L87.7423 95.0639Z" fill="url(#paint48_linear)"/>
<path d="M90.3677 96.601L88.2734 95.3744L89.2363 94.7971L91.3546 96.0237L90.3677 96.601Z" fill="url(#paint49_linear)"/>
<path d="M94.0015 91.261L91.9072 90.0344V90.4914L94.0015 91.718L95.855 90.6598V90.2028L94.0015 91.261Z" fill="#879ADE"/>
<path d="M95.8544 90.201L93.736 88.9744L91.9307 90.0326L94.0249 91.2592L95.8544 90.201Z" fill="url(#paint50_linear)"/>
<path d="M91.257 89.6552L89.1387 88.4286V88.8856L91.257 90.1122L93.0624 89.0539V88.597L91.257 89.6552Z" fill="#879ADE"/>
<path d="M93.0877 88.5911L90.9694 87.3645L89.1641 88.4228L91.2583 89.6494L93.0877 88.5911Z" fill="url(#paint51_linear)"/>
<path d="M88.4894 88.0375L86.3711 86.8109V87.2679L88.4894 88.4945L90.3188 87.4362V86.9793L88.4894 88.0375Z" fill="#879ADE"/>
<path d="M90.3188 86.9775L88.1042 85.7509L86.2988 86.8091L88.3931 88.0598L90.3188 86.9775Z" fill="url(#paint52_linear)"/>
<path d="M85.6958 86.4513L83.6016 85.2247V85.6577L85.6958 86.8843L87.5493 85.826V85.369L85.6958 86.4513Z" fill="#879ADE"/>
<path d="M87.5487 85.3956L85.4304 84.1449L83.625 85.2032L85.6952 86.4538L87.5487 85.3956Z" fill="url(#paint53_linear)"/>
<path d="M82.9533 84.8454L80.835 83.6188V84.0517L82.9533 85.2783L84.7586 84.2201V83.7871L82.9533 84.8454Z" fill="#879ADE"/>
<path d="M84.7584 83.7814L82.6641 82.5548L80.8828 83.589L82.953 84.8397L84.7584 83.7814Z" fill="url(#paint54_linear)"/>
<path d="M80.1597 83.2277L78.0654 82.0011V82.4581L80.1597 83.6847L82.0132 82.6024V82.1695L80.1597 83.2277Z" fill="#879ADE"/>
<path d="M82.0135 82.1677L79.8952 80.941L78.0898 81.9993L80.16 83.2259L82.0135 82.1677Z" fill="url(#paint55_linear)"/>
<path d="M77.3921 81.6219L75.2979 80.3953V80.8522L77.3921 82.0789L79.2215 81.0206V80.5636L77.3921 81.6219Z" fill="#879ADE"/>
<path d="M79.2229 80.5618L77.1286 79.3352L75.3232 80.3935L77.3934 81.6201L79.2229 80.5618Z" fill="url(#paint56_linear)"/>
<path d="M74.6245 80.0283L72.5303 78.7776V79.2346L74.6245 80.4612L76.454 79.4029V78.9459L74.6245 80.0283Z" fill="#879ADE"/>
<path d="M76.454 78.9441L74.3597 77.7175L72.5303 78.7758L74.6245 80.0024L76.454 78.9441Z" fill="url(#paint57_linear)"/>
<path d="M71.856 78.418L69.7617 77.1914V77.6243L71.856 78.8509L73.7095 77.7927V77.3357L71.856 78.418Z" fill="#879ADE"/>
<path d="M73.662 77.3382L71.5677 76.1116L69.7383 77.1698L71.8325 78.4205L73.662 77.3382Z" fill="url(#paint58_linear)"/>
<path d="M69.0884 76.8121L66.9941 75.5854V76.0184L69.0884 77.245L70.9178 76.1867V75.7538L69.0884 76.8121Z" fill="#879ADE"/>
<path d="M70.9172 75.7481L68.847 74.5215L67.0176 75.5557L69.1118 76.8064L70.9172 75.7481Z" fill="url(#paint59_linear)"/>
<path d="M66.3198 75.1944L64.2256 73.9678V74.4247L66.3198 75.6514L68.1733 74.5691V74.1361L66.3198 75.1944Z" fill="#879ADE"/>
<path d="M68.1493 74.1343L66.055 72.9077L64.2256 73.9419L66.4402 75.1685L68.1493 74.1343Z" fill="url(#paint60_linear)"/>
<path d="M98.504 89.2642L96.3857 88.0375V87.5806L99.6113 88.1578V88.6148L98.504 89.2642Z" fill="#879ADE"/>
<path d="M98.504 88.8086L96.3857 87.582L97.5171 86.9326L99.6113 88.1592L98.504 88.8086Z" fill="url(#paint61_linear)"/>
<path d="M95.8804 87.7284L93.7861 86.5018V86.0688L96.9877 86.6461V87.079L95.8804 87.7284Z" fill="#879ADE"/>
<path d="M95.8804 87.297L93.7861 86.0704L94.8694 85.421L96.9877 86.6476L95.8804 87.297Z" fill="url(#paint62_linear)"/>
<path d="M93.254 86.2134L91.1357 84.9868V84.5298L94.3613 85.107V85.564L93.254 86.2134Z" fill="#879ADE"/>
<path d="M93.254 85.7578L91.1357 84.5312L92.243 83.8818L94.3613 85.1085L93.254 85.7578Z" fill="url(#paint63_linear)"/>
<path d="M90.631 84.6776L88.5127 83.451V83.0181L91.7383 83.5953V84.0282L90.631 84.6776Z" fill="#879ADE"/>
<path d="M90.631 84.2344L88.5127 83.0078L89.62 82.3584L91.7383 83.585L90.631 84.2344Z" fill="url(#paint64_linear)"/>
<path d="M88.008 83.1586L85.8896 81.932V81.475L89.1152 82.0522V82.5092L88.008 83.1586Z" fill="#879ADE"/>
<path d="M88.008 82.7032L85.8896 81.4765L86.9969 80.8271L89.1152 82.0538L88.008 82.7032Z" fill="url(#paint65_linear)"/>
<path d="M85.3839 81.6151L83.2656 80.3885V79.9556L86.4912 80.5328V80.9657L85.3839 81.6151Z" fill="#879ADE"/>
<path d="M85.3839 81.1797L83.2656 79.9531L84.3729 79.3037L86.4912 80.5303L85.3839 81.1797Z" fill="url(#paint66_linear)"/>
<path d="M82.7609 80.1039L80.6426 78.8532V78.4203L83.8682 78.9975V79.4545L82.7609 80.1039Z" fill="#879ADE"/>
<path d="M82.7609 79.6406L80.6426 78.414L81.7499 77.7646L83.8682 78.9913L82.7609 79.6406Z" fill="url(#paint67_linear)"/>
<path d="M80.1349 78.5603L78.0166 77.3337V76.9008L81.2422 77.478V77.9109L80.1349 78.5603Z" fill="#879ADE"/>
<path d="M80.1349 78.1289L78.0166 76.9023L79.1239 76.2529L81.2422 77.4795L80.1349 78.1289Z" fill="url(#paint68_linear)"/>
<path d="M77.5119 77.0414L75.3936 75.8148V75.3578L78.6192 75.935V76.392L77.5119 77.0414Z" fill="#879ADE"/>
<path d="M77.5119 76.5858L75.3936 75.3592L76.5009 74.7098L78.6192 75.9365L77.5119 76.5858Z" fill="url(#paint69_linear)"/>
<path d="M74.8878 75.5056L72.7695 74.279V73.8461L75.9951 74.4233V74.8562L74.8878 75.5056Z" fill="#879ADE"/>
<path d="M74.8878 75.0502L72.7695 73.8476L73.8768 73.1982L75.9951 74.4249L74.8878 75.0502Z" fill="url(#paint70_linear)"/>
<path d="M72.2407 73.9906L70.1465 72.7399V72.307L73.3721 72.8842V73.3412L72.2407 73.9906Z" fill="#879ADE"/>
<path d="M72.2407 73.5351L70.1465 72.3084L71.2538 71.6591L73.3721 72.8857L72.2407 73.5351Z" fill="url(#paint71_linear)"/>
<path d="M54.5254 72.7204L79.2229 58.458L64.3226 49.8717L39.625 64.1101L54.5254 72.7204Z" fill="#E7EBFA"/>
<path d="M85.9366 57.7088L113.282 73.6067C116.303 71.2573 119.622 69.3164 123.151 67.8344L94.0729 50.9985C90.5524 52.4536 87.2416 54.3705 84.2275 56.6987L85.9366 57.7569V57.7088Z" fill="#A2BFEF"/>
<g opacity="0.31">
<path opacity="0.31" d="M85.9372 57.6907C88.3443 58.9413 90.6071 60.0958 92.918 61.4427L96.3602 63.3668L99.8025 65.339C102.21 66.6378 104.376 67.9606 106.639 69.3074L110.057 71.3037L113.427 73.3721L112.994 73.6126L113.475 73.1316L113.74 72.9392L113.957 72.7949L114.823 72.1936L116.58 71.0872L117.471 70.5581C117.76 70.3657 118.073 70.2214 118.386 70.053L120.215 69.091L118.458 70.1733L117.567 70.7024L116.701 71.2556C116.123 71.6404 115.545 72.0252 114.992 72.4341L113.331 73.6126L85.9131 57.7388L85.9372 57.6907Z" fill="#99AFF0"/>
</g>
<path d="M123.153 67.9565C119.621 69.4236 116.301 71.3569 113.283 73.7048V75.7251L123.201 69.9769V67.9565H123.153Z" fill="#7389D9"/>
<path d="M85.9379 57.7099L84.1807 56.6997V58.72L113.283 75.5559V73.5116L85.9379 57.7099Z" fill="#879ADE"/>
<path d="M101.68 49.5027V61.5283C101.694 61.7037 101.755 61.8721 101.857 62.0159C101.959 62.1597 102.097 62.2737 102.257 62.3461C102.697 62.5718 103.184 62.6896 103.678 62.6896C104.172 62.6896 104.659 62.5718 105.098 62.3461C105.258 62.2737 105.397 62.1597 105.498 62.0159C105.6 61.8721 105.661 61.7037 105.676 61.5283V49.5027H101.68Z" fill="#99AFF0"/>
<path d="M113.162 61.7727L111.309 60.6904V60.2334L113.162 61.3157V61.7727Z" fill="#A2BFEF"/>
<path d="M115.521 63.143L113.668 62.0607V61.6038L115.521 62.6861V63.143Z" fill="#A2BFEF"/>
<path d="M117.906 64.5172L116.053 63.4349V62.9779L117.906 64.0602V64.5172Z" fill="#A2BFEF"/>
<path d="M124.716 30.3118L74.5027 1.1376C74.2736 0.991636 74.0032 0.924101 73.7324 0.945186C73.2324 1.18375 72.7498 1.457 72.2881 1.76293L73.1065 3.27816V36.3246C73.1378 36.806 73.2801 37.2735 73.5223 37.6908C73.7645 38.108 74.1001 38.4636 74.5027 38.7297L124.09 67.5913L124.355 68.7939L125.438 68.1204C125.824 68.1204 126.088 67.7115 126.088 67.1343V32.741C126.069 32.2563 125.935 31.7832 125.696 31.3608C125.457 30.9383 125.122 30.5788 124.716 30.3118Z" fill="#A2BFEF"/>
<path d="M123.538 68.5992L73.3485 39.425C72.9459 39.1588 72.6104 38.8032 72.3682 38.386C72.1259 37.9687 71.9836 37.5012 71.9524 37.0198V2.6265C71.933 2.46562 71.9536 2.30246 72.0124 2.15144C72.0712 2.00042 72.1663 1.8662 72.2894 1.76065C72.4454 1.65415 72.63 1.59717 72.8189 1.59717C73.0079 1.59717 73.1925 1.65415 73.3485 1.76065L123.538 30.983C123.941 31.2491 124.276 31.6047 124.518 32.0219C124.761 32.4392 124.903 32.9068 124.934 33.3881V67.7814C124.934 68.6713 124.212 69.0321 123.538 68.5992Z" fill="#A2BFEF"/>
<path d="M124.357 33.0827V66.1532C124.357 66.6343 123.971 66.8267 123.538 66.5621L73.3487 37.3879C73.1075 37.241 72.9066 37.0368 72.7637 36.7933C72.6209 36.5499 72.5407 36.2749 72.5302 35.9929V3.01862C72.5171 2.90808 72.5376 2.79614 72.5892 2.69745C72.6407 2.59876 72.7208 2.5179 72.8191 2.46544C72.9003 2.42123 72.9914 2.39807 73.0839 2.39807C73.1764 2.39807 73.2674 2.42123 73.3487 2.46544L123.538 31.6637C123.777 31.8189 123.976 32.0284 124.118 32.2751C124.26 32.5217 124.342 32.7984 124.357 33.0827Z" fill="#A2BFEF"/>
<path d="M124.357 33.06V66.1305C124.275 66.1747 124.184 66.1978 124.092 66.1978C123.999 66.1978 123.908 66.1747 123.827 66.1305L73.6616 36.8841C73.4285 36.7249 73.2356 36.5139 73.0978 36.2677C72.96 36.0215 72.881 35.7468 72.8672 35.4651V2.41862C72.944 2.37429 73.0312 2.35095 73.1199 2.35095C73.2087 2.35095 73.2959 2.37429 73.3727 2.41862L123.538 31.665C123.775 31.8164 123.973 32.0218 124.115 32.2642C124.257 32.5067 124.34 32.7794 124.357 33.06Z" fill="#2A3463"/>
<path d="M92.2928 17.3273L74.3594 6.98524V5.20544L92.2928 15.5234V17.3273Z" fill="#A2BFEF"/>
<path d="M106.64 25.5986L98.1182 20.6921V18.9124L106.64 23.8188V25.5986Z" fill="#A2BFEF"/>
<path d="M82.7123 18.8949L74.3594 14.0606V12.2808L82.7123 17.091V18.8949Z" fill="#A2BFEF"/>
<path d="M87.8637 21.8463L84.2529 19.7538V17.974L87.8637 20.0665V21.8463Z" fill="#A2BFEF"/>
<path d="M92.3876 24.4465L89.0176 22.5224V20.7185L92.3876 22.6667V24.4465Z" fill="#A2BFEF"/>
<path d="M84.2528 23.7229L74.3594 17.9987V16.2189L84.2528 21.919V23.7229Z" fill="#A2BFEF"/>
<path d="M88.9214 26.4258L85.5273 24.4536V22.6738L88.9214 24.622V26.4258Z" fill="#FB3300"/>
<path d="M88.8505 30.3146L74.3594 21.9688V20.1649L88.8505 28.5348V30.3146Z" fill="#FB3300"/>
<path d="M93.1112 32.768L88.2969 30.0021V28.1982L93.1112 30.9882V32.768Z" fill="#A2BFEF"/>
<path d="M98.2857 35.7573L94.3379 33.4965V31.6926L98.2857 33.9775V35.7573Z" fill="#A2BFEF"/>
<path d="M83.9399 31.4224L74.3594 25.9147V24.1108L83.9399 29.6426V31.4224Z" fill="#A2BFEF"/>
<path d="M88.5856 34.1166L85.2637 32.1925V30.4127L88.5856 32.3128V34.1166Z" fill="#A2BFEF"/>
<path d="M84.6621 35.8014L74.3594 29.8607V28.0569L84.6621 33.9976V35.8014Z" fill="#A2BFEF"/>
<path d="M88.3197 37.9153L85.5273 36.2798V34.5L88.3197 36.1114V37.9153Z" fill="#A2BFEF"/>
<path d="M94.2903 41.3549L89.5 38.589V36.7852L94.2903 39.551V41.3549Z" fill="#FB3300"/>
<path d="M84.1806 39.4587L74.3594 33.8067V32.0028L84.1806 37.6789V39.4587Z" fill="#A2BFEF"/>
<path d="M89.1382 42.3158L84.709 39.7664V37.9866L89.1382 40.536V42.3158Z" fill="#FB3300"/>
<path d="M98.5996 23.8689L74.3594 9.8711V8.09131L98.5996 22.0651V23.8689Z" fill="#A2BFEF"/>
<path d="M114.006 32.7488L100.839 25.1486V23.3688L114.006 30.9449V32.7488Z" fill="#A2BFEF"/>
<path d="M120.264 65.8875L118.41 64.8293V64.3483L120.264 65.4306V65.8875Z" fill="#A2BFEF"/>
<path d="M118.122 64.6389L116.269 63.5566V63.0996L118.122 64.1579V64.6389Z" fill="#A2BFEF"/>
<path d="M122.742 67.1632C122.742 67.6201 122.43 67.8125 122.02 67.572C121.815 67.438 121.644 67.2567 121.522 67.0434C121.401 66.83 121.332 66.5907 121.322 66.3454C121.322 65.8884 121.635 65.696 122.02 65.9365C122.232 66.0663 122.409 66.246 122.535 66.4599C122.66 66.6738 122.732 66.9153 122.742 67.1632Z" fill="#99AFF0"/>
<path d="M122.335 68.1525C122.143 68.1456 121.957 68.0783 121.805 67.9601C121.522 67.7887 121.285 67.5494 121.117 67.2639C120.949 66.9784 120.855 66.6556 120.843 66.3246C120.832 66.1546 120.869 65.9851 120.95 65.8351C121.03 65.685 121.151 65.5605 121.299 65.4755C121.446 65.3904 121.615 65.3483 121.785 65.3539C121.956 65.3594 122.121 65.4124 122.263 65.5068C122.539 65.6841 122.769 65.9253 122.932 66.21C123.096 66.4946 123.188 66.8144 123.202 67.1423C123.219 67.2669 123.209 67.3936 123.174 67.5142C123.138 67.6347 123.077 67.7464 122.995 67.8418C122.914 67.9373 122.812 68.0143 122.699 68.0678C122.585 68.1214 122.461 68.1502 122.335 68.1525ZM121.805 66.3246C121.815 66.4959 121.863 66.663 121.946 66.813C122.03 66.963 122.146 67.0921 122.287 67.1904C122.276 67.0221 122.229 66.8581 122.15 66.7089C122.072 66.5597 121.962 66.4288 121.83 66.3246H121.805Z" fill="#A2BFEF"/>
<path opacity="0.06" d="M124.357 32.9181V65.7962C124.274 65.8349 124.183 65.8549 124.092 65.8549C124 65.8549 123.91 65.8349 123.827 65.7962L73.6616 36.5258C73.4317 36.369 73.2406 36.1618 73.1029 35.9201C72.9653 35.6783 72.8847 35.4084 72.8672 35.1308V33.2789C79.6273 30.4051 86.874 28.846 94.2188 28.6851C113.982 28.6851 121.805 32.3409 124.357 32.9181Z" fill="url(#paint72_linear)"/>
<path d="M143.831 91.2401L171.176 107.138C174.197 104.789 177.516 102.848 181.045 101.366L151.967 84.5298C148.451 85.98 145.148 87.8973 142.146 90.2299C142.686 90.6159 143.248 90.9693 143.831 91.2882V91.2401Z" fill="#A2BFEF"/>
<g opacity="0.31">
<path opacity="0.31" d="M143.829 91.2178C146.236 92.4684 148.499 93.6229 150.81 94.9698L154.252 96.8939L157.694 98.8661C160.101 100.165 162.268 101.488 164.53 102.835L167.949 104.831L171.319 106.899L170.909 107.14C171.058 106.968 171.219 106.807 171.391 106.659L171.656 106.466L171.872 106.322L172.715 105.721L174.472 104.614L175.363 104.085L176.277 103.58L178.107 102.618L176.35 103.7L175.459 104.23L174.592 104.783C174.015 105.168 173.437 105.552 172.883 105.961L171.222 107.14L143.805 91.2659L143.829 91.2178Z" fill="#99AFF0"/>
</g>
<path d="M181.044 101.366C177.515 102.838 174.196 104.771 171.175 107.114V109.135C174.497 107.226 177.803 105.31 181.092 103.386V101.366H181.044Z" fill="#7389D9"/>
<path d="M143.83 91.241L142.073 90.2308V92.2511L171.176 109.087V107.043L143.83 91.241Z" fill="#879ADE"/>
<path d="M159.573 83.0338V95.0595C159.59 95.2375 159.655 95.4076 159.761 95.5516C159.867 95.6957 160.01 95.8082 160.175 95.8772C160.61 96.1028 161.093 96.2205 161.583 96.2205C162.073 96.2205 162.556 96.1028 162.991 95.8772C163.152 95.8048 163.29 95.6908 163.392 95.547C163.493 95.4032 163.555 95.2349 163.569 95.0595V83.0338H159.573Z" fill="#99AFF0"/>
<path d="M171.056 95.3038L169.202 94.2215V93.7645L171.056 94.8468V95.3038Z" fill="#A2BFEF"/>
<path d="M173.438 96.6742L171.561 95.5919V95.1349L173.438 96.2172V96.6742Z" fill="#A2BFEF"/>
<path d="M175.798 98.0483L173.944 96.966V96.509L175.798 97.5913V98.0483Z" fill="#A2BFEF"/>
<path d="M182.611 63.8424L132.397 34.6682C132.176 34.5241 131.914 34.4565 131.651 34.4758C131.144 34.7061 130.653 34.9713 130.183 35.2695L131.001 36.8087V69.8552C131.032 70.3365 131.175 70.8041 131.417 71.2214C131.659 71.6386 131.995 71.9942 132.397 72.2603L181.985 101.122L182.25 102.324L183.333 101.651C183.742 101.651 184.007 101.242 184.007 100.665V66.2716C183.983 65.7852 183.844 65.3114 183.601 64.8891C183.359 64.4668 183.019 64.1081 182.611 63.8424Z" fill="#A2BFEF"/>
<path d="M181.43 102.133L131.241 72.9584C130.838 72.6923 130.503 72.3367 130.261 71.9194C130.018 71.5022 129.876 71.0346 129.845 70.5533V36.1599C129.833 35.996 129.857 35.8315 129.915 35.6778C129.973 35.5241 130.064 35.385 130.182 35.27C130.341 35.1722 130.524 35.1204 130.711 35.1204C130.898 35.1204 131.082 35.1722 131.241 35.27L181.43 64.4442C181.833 64.7104 182.169 65.066 182.411 65.4832C182.653 65.9004 182.795 66.368 182.827 66.8494V101.315C182.827 102.205 182.201 102.566 181.43 102.133Z" fill="#A2BFEF"/>
<path d="M182.247 66.6031V99.6736C182.247 100.155 181.886 100.347 181.429 100.083L131.239 70.9083C130.998 70.7614 130.797 70.5572 130.654 70.3137C130.512 70.0703 130.431 69.7953 130.421 69.5133V36.4909C130.408 36.3804 130.428 36.2684 130.48 36.1697C130.531 36.0711 130.611 35.9902 130.71 35.9377C130.791 35.8935 130.882 35.8704 130.975 35.8704C131.067 35.8704 131.158 35.8935 131.239 35.9377L181.429 65.1119C181.677 65.2741 181.882 65.495 182.025 65.7551C182.168 66.0152 182.244 66.3065 182.247 66.6031Z" fill="#A2BFEF"/>
<path d="M182.249 66.5791V99.6496C182.168 99.6938 182.077 99.7169 181.984 99.7169C181.892 99.7169 181.801 99.6938 181.719 99.6496L131.434 70.3551C131.195 70.1999 130.996 69.9904 130.854 69.7438C130.712 69.4971 130.63 69.2204 130.615 68.9361V35.9377C130.696 35.8935 130.787 35.8704 130.88 35.8704C130.973 35.8704 131.064 35.8935 131.145 35.9377L181.334 65.1119C181.599 65.2587 181.822 65.4704 181.982 65.7271C182.142 65.9838 182.234 66.277 182.249 66.5791Z" fill="#2A3463"/>
<path d="M145.202 72.7631C145.107 72.7875 145.008 72.7875 144.913 72.7631L134.899 66.9908C134.803 66.9393 134.724 66.8629 134.668 66.7697C134.612 66.6766 134.583 66.5701 134.583 66.4617C134.583 66.3532 134.612 66.2467 134.668 66.1536C134.724 66.0604 134.803 65.9841 134.899 65.9325L144.841 60.2083C144.93 60.1503 145.035 60.1195 145.141 60.1195C145.248 60.1195 145.353 60.1503 145.442 60.2083L155.504 65.7882C155.59 65.8427 155.661 65.9172 155.711 66.0052C155.761 66.0931 155.79 66.192 155.793 66.2933C155.794 66.3987 155.767 66.5024 155.717 66.5949C155.666 66.6874 155.593 66.7657 155.504 66.8224L145.563 72.5707C145.463 72.6672 145.338 72.7338 145.202 72.7631ZM136.391 66.2693L145.202 71.3441L153.94 66.2933L145.153 61.2185L136.391 66.2693Z" fill="#D3E2F7"/>
<path d="M145.202 64.643C145.109 64.6781 145.006 64.6781 144.913 64.643L134.899 58.8707C134.804 58.8249 134.724 58.7531 134.669 58.6637C134.613 58.5742 134.585 58.4708 134.586 58.3656C134.588 58.2579 134.618 58.1527 134.673 58.06C134.728 57.9673 134.806 57.8903 134.899 57.8365L144.841 52.1123C144.93 52.0543 145.035 52.0234 145.141 52.0234C145.248 52.0234 145.353 52.0543 145.442 52.1123L155.504 57.7884C155.593 57.8395 155.666 57.9132 155.717 58.0019C155.768 58.0906 155.794 58.1912 155.793 58.2934C155.791 58.3984 155.764 58.5014 155.714 58.5935C155.664 58.6857 155.592 58.7643 155.504 58.8226L145.563 64.5468C145.458 64.6216 145.33 64.6558 145.202 64.643ZM136.391 58.3416L145.202 63.4164L153.94 58.3416L145.153 53.2186L136.391 58.3416Z" fill="#D3E2F7"/>
<path d="M145.202 72.7669C145.107 72.7914 145.007 72.7914 144.913 72.7669L134.899 66.9946C134.806 66.9408 134.728 66.8638 134.673 66.7711C134.618 66.6784 134.588 66.5732 134.586 66.4655V58.3362C134.588 58.2285 134.618 58.1232 134.673 58.0305C134.728 57.9378 134.806 57.8609 134.899 57.807C134.992 57.7605 135.095 57.7362 135.2 57.7362C135.304 57.7362 135.407 57.7605 135.501 57.807L145.49 63.5793C145.584 63.6332 145.662 63.7101 145.716 63.8028C145.771 63.8955 145.801 64.0008 145.803 64.1085V72.0454C145.802 72.1504 145.774 72.2533 145.724 72.3455C145.674 72.4376 145.602 72.5162 145.514 72.5745C145.428 72.6637 145.32 72.7299 145.202 72.7669ZM135.79 66.0566L144.6 71.1314V64.373L135.765 59.2982L135.79 66.0566Z" fill="#D3E2F7"/>
<path d="M155.143 66.9003H154.854L144.84 61.128C144.748 61.0749 144.672 60.9974 144.621 60.9041C144.57 60.8107 144.546 60.7051 144.552 60.5988V52.5898C144.55 52.4845 144.579 52.3811 144.634 52.2917C144.69 52.2022 144.77 52.1304 144.864 52.0847C144.954 52.0267 145.059 51.9958 145.165 51.9958C145.272 51.9958 145.377 52.0267 145.466 52.0847L155.504 57.7848C155.599 57.8306 155.679 57.9024 155.734 57.9918C155.79 58.0813 155.818 58.1847 155.817 58.2899V66.299C155.82 66.4048 155.794 66.5094 155.744 66.6023C155.693 66.6952 155.619 66.7731 155.528 66.8281C155.41 66.8897 155.276 66.9149 155.143 66.9003ZM145.731 60.19L154.541 65.2648V58.6507L145.707 53.5278L145.731 60.19Z" fill="#D3E2F7"/>
<path d="M145.25 72.7606C145.147 72.7851 145.04 72.7851 144.937 72.7606C144.843 72.7098 144.765 72.6327 144.714 72.5388C144.663 72.4449 144.64 72.3381 144.648 72.2315V64.03C144.65 63.925 144.677 63.8221 144.727 63.7299C144.778 63.6378 144.85 63.5592 144.937 63.5009L154.951 57.7285C155.044 57.682 155.147 57.6577 155.252 57.6577C155.356 57.6577 155.459 57.682 155.553 57.7285C155.646 57.7824 155.724 57.8593 155.779 57.952C155.833 58.0447 155.863 58.15 155.866 58.2577V66.2667C155.864 66.3717 155.837 66.4747 155.786 66.5668C155.736 66.659 155.664 66.7376 155.577 66.7959L145.563 72.5682C145.479 72.6611 145.371 72.7279 145.25 72.7606ZM145.876 64.3667V71.0049L154.662 65.93V59.2919L145.876 64.3667Z" fill="#D3E2F7"/>
<path d="M165.327 84.0021C165.224 84.0266 165.117 84.0266 165.014 84.0021L155 78.2298C154.911 78.173 154.838 78.0948 154.787 78.0023C154.737 77.9098 154.711 77.806 154.711 77.7006C154.71 77.5984 154.736 77.4978 154.787 77.4091C154.838 77.3203 154.911 77.2466 155 77.1955L164.941 71.4473C165.035 71.4007 165.138 71.3765 165.242 71.3765C165.347 71.3765 165.45 71.4007 165.543 71.4473L175.557 77.2196C175.65 77.2734 175.728 77.3504 175.783 77.4431C175.838 77.5358 175.868 77.6411 175.87 77.7487C175.871 77.8539 175.843 77.9573 175.787 78.0468C175.732 78.1363 175.652 78.2081 175.557 78.2538L165.615 84.0021C165.52 84.0237 165.422 84.0237 165.327 84.0021ZM156.516 77.5804L165.327 82.6552L174.065 77.5804L165.254 72.5055L156.516 77.5804Z" fill="#D3E2F7"/>
<path d="M165.326 83.995C165.224 84.0195 165.116 84.0195 165.013 83.995L155 78.2227C154.859 78.1343 154.756 77.9973 154.711 77.8379C154.676 77.7624 154.658 77.6803 154.658 77.5973C154.658 77.5143 154.676 77.4323 154.711 77.3568L164.652 63.5995C164.722 63.4904 164.827 63.4091 164.95 63.3696C165.073 63.33 165.206 63.3348 165.326 63.383C165.447 63.4237 165.551 63.5015 165.625 63.6052C165.698 63.7089 165.737 63.8332 165.736 63.9603V83.4659C165.733 83.5735 165.703 83.6788 165.649 83.7715C165.594 83.8642 165.516 83.9412 165.423 83.995C165.391 83.9974 165.358 83.9974 165.326 83.995ZM156.179 77.5733L164.701 82.3835V65.7641L156.179 77.5733Z" fill="#D3E2F7"/>
<path d="M175.267 78.271C175.166 78.3058 175.055 78.3058 174.954 78.271L164.94 72.4987C164.852 72.4476 164.778 72.3739 164.728 72.2851C164.677 72.1964 164.65 72.0958 164.651 71.9936V63.8883C164.65 63.7612 164.689 63.6369 164.762 63.5332C164.836 63.4295 164.94 63.3517 165.061 63.3111C165.181 63.2673 165.313 63.2649 165.435 63.3041C165.557 63.3432 165.662 63.4219 165.735 63.5275L175.773 77.3089C175.831 77.4002 175.865 77.5051 175.871 77.6135C175.877 77.7218 175.855 77.8299 175.806 77.9269C175.757 78.024 175.684 78.1067 175.594 78.167C175.504 78.2274 175.399 78.2632 175.291 78.271H175.267ZM165.855 71.5366L173.077 75.7215L165.855 65.7403V71.5366Z" fill="#D3E2F7"/>
<path d="M178.155 99.4187L176.302 98.3604V97.8794L178.155 98.9617V99.4187Z" fill="#A2BFEF"/>
<path d="M176.038 98.1666L174.185 97.0843V96.6033L176.038 97.6856V98.1666Z" fill="#A2BFEF"/>
<path d="M180.634 100.694C180.634 101.151 180.321 101.344 179.912 101.103C179.706 100.969 179.535 100.788 179.414 100.574C179.293 100.361 179.224 100.122 179.214 99.8766C179.214 99.4196 179.527 99.2272 179.912 99.4677C180.124 99.5974 180.3 99.7771 180.426 99.991C180.552 100.205 180.623 100.446 180.634 100.694Z" fill="#99AFF0"/>
<path d="M180.251 101.627C180.053 101.631 179.859 101.572 179.697 101.459C179.421 101.281 179.191 101.04 179.028 100.756C178.864 100.471 178.772 100.151 178.758 99.8232C178.741 99.6538 178.774 99.4832 178.851 99.3315C178.928 99.1798 179.047 99.0535 179.194 98.9674C179.341 98.8813 179.51 98.8392 179.68 98.8459C179.85 98.8527 180.015 98.908 180.154 99.0055C180.431 99.1828 180.66 99.424 180.824 99.7086C180.987 99.9933 181.08 100.313 181.093 100.641C181.107 100.762 181.095 100.884 181.059 101C181.023 101.116 180.964 101.224 180.885 101.316C180.806 101.408 180.709 101.484 180.6 101.537C180.491 101.591 180.372 101.621 180.251 101.627ZM179.673 99.7992C179.686 99.9697 179.735 100.136 179.818 100.285C179.901 100.435 180.016 100.564 180.154 100.665C180.15 100.495 180.106 100.329 180.027 100.179C179.948 100.029 179.835 99.8987 179.697 99.7992H179.673Z" fill="#A2BFEF"/>
<path opacity="0.06" d="M182.249 66.4414V99.2233C182.166 99.262 182.076 99.282 181.984 99.282C181.893 99.282 181.802 99.262 181.719 99.2233L131.434 70.0491C131.197 69.8977 130.999 69.6923 130.857 69.4498C130.714 69.2074 130.632 68.9347 130.615 68.6541V66.8022C137.383 63.9254 144.638 62.3662 151.991 62.2084C171.874 62.2084 179.577 65.8642 182.249 66.4414Z" fill="url(#paint73_linear)"/>
<path d="M33.7253 100.208L28.911 120.122C28.911 120.122 27.2019 121.686 26.6964 121.638C26.552 121.638 26.5279 121.445 26.6964 121.181C27.1297 119.737 28.3092 118.968 28.598 117.092C28.8147 115.721 31.3904 105.86 32.7624 100.593C33.1957 98.9812 32.3292 98.0432 31.0774 98.7407L29.1517 99.7749C22.9412 103.238 12.3015 109.227 11.0257 110.526C9.26848 112.402 5.41702 117.188 5.41702 117.188C5.41702 117.188 4.74301 117.645 4.64672 117.356C4.55044 117.068 4.64672 116.899 5.05594 116.274C6.53812 114.228 8.14599 112.276 9.87028 110.43L10.0388 110.261L10.3999 109.925L10.5924 109.78L10.7609 109.636C10.8475 109.545 10.9444 109.464 11.0498 109.395L11.4109 109.179L29.3443 98.8369L31.2941 97.7065C31.4558 97.5971 31.6348 97.5158 31.8237 97.466C32.0464 97.3815 32.2835 97.3406 32.5217 97.3458C33.8938 97.3217 34.7363 98.404 33.7253 100.208Z" fill="#A2BFEF"/>
<path d="M32.74 100.6C31.3679 105.867 28.7922 115.728 28.5756 117.099C28.2867 118.975 27.1072 119.745 26.6739 121.188C26.6739 121.452 26.6739 121.572 26.6739 121.621C26.2165 121.621 22.8946 120.61 23.3279 119.215C23.7612 117.82 24.9407 117.003 25.2296 115.127C25.4462 113.852 27.6368 105.169 29.1051 99.7339L31.0309 98.6997C32.2345 98.0503 33.101 98.9883 32.74 100.6Z" fill="#879ADE"/>
<path d="M32.4996 97.3409C32.2613 97.3358 32.0243 97.3766 31.8015 97.4612C31.6126 97.511 31.4336 97.5923 31.2719 97.7017L29.3221 98.8321L11.3887 109.174L11.0757 109.318L10.7628 109.559L10.5221 109.775L10.3295 109.92L9.96845 110.256L9.79995 110.425C8.07566 112.272 6.46779 114.223 4.98561 116.269C4.62454 116.895 4.52825 117.207 4.57639 117.352L1.44707 115.524C1.15821 115.524 1.01378 115.379 1.61557 114.369C3.44815 111.706 5.60733 109.282 8.04272 107.154L27.9259 95.7776C28.1599 95.6697 28.4145 95.6139 28.6722 95.6139C28.9298 95.6139 29.1844 95.6697 29.4184 95.7776L30.5257 96.3548L32.4996 97.3409Z" fill="#A2BFEF"/>
<path d="M43.909 135.996L43.6683 150.475L42.3203 149.056L43.909 135.996Z" fill="#99AFF0"/>
<path d="M69.9764 193.022C69.8923 193.096 69.7941 193.153 69.6875 193.189L69.9764 193.022Z" fill="#085956"/>
<path d="M67.6921 194.27C67.7162 194.499 67.6876 194.731 67.6083 194.948C67.5291 195.165 67.4013 195.361 67.2348 195.521C67.0056 195.692 66.7269 195.785 66.4404 195.785C66.1539 195.785 65.8752 195.692 65.646 195.521C65.0404 195.131 64.5367 194.603 64.1766 193.979C63.8166 193.356 63.6106 192.656 63.5759 191.937C63.5634 191.647 63.6212 191.358 63.7444 191.095C63.7979 190.965 63.8796 190.847 63.9836 190.752C64.0876 190.656 64.2114 190.584 64.3462 190.542C64.5656 190.481 64.7955 190.469 65.02 190.507C65.2445 190.544 65.4582 190.63 65.646 190.758C65.8634 190.887 66.0653 191.041 66.2478 191.215C66.9236 191.871 67.3993 192.705 67.6199 193.621C67.6436 193.828 67.6436 194.038 67.6199 194.246L67.6921 194.27Z" fill="#99AFF0"/>
<path d="M67.8601 193.284C67.8718 193.582 67.8141 193.878 67.6916 194.15C67.7152 193.942 67.7152 193.732 67.6916 193.525C67.471 192.609 66.9952 191.775 66.3195 191.119C66.1369 190.945 65.935 190.791 65.7177 190.663C65.5284 190.537 65.3157 190.451 65.0923 190.41C64.869 190.368 64.6395 190.372 64.4178 190.422C64.2843 190.474 64.1624 190.551 64.0591 190.65C63.9558 190.749 63.8732 190.868 63.816 190.999V190.855C63.7738 190.567 63.826 190.273 63.9648 190.017C64.1037 189.762 64.3217 189.558 64.5863 189.436C64.7933 189.383 65.0089 189.372 65.2201 189.405C65.4312 189.438 65.6334 189.514 65.814 189.628C66.0568 189.771 66.2829 189.94 66.488 190.133C67.1637 190.789 67.6395 191.623 67.8601 192.539C67.8827 192.787 67.8827 193.036 67.8601 193.284Z" fill="#A2BFEF"/>
<path d="M70.4575 191.795C70.4552 192.092 70.3981 192.385 70.289 192.661C70.2042 192.804 70.0988 192.934 69.976 193.046L69.6872 193.214L67.6892 194.369V194.152C67.8117 193.88 67.8694 193.584 67.8577 193.286C67.8803 193.038 67.8803 192.789 67.8577 192.541C67.6371 191.626 67.1614 190.792 66.4856 190.136C66.3031 189.961 66.1012 189.808 65.8839 189.679C65.6965 189.549 65.4838 189.461 65.2597 189.419C65.0357 189.378 64.8054 189.384 64.584 189.438L66.8227 188.139C67.0608 187.967 67.3472 187.875 67.6411 187.875C67.935 187.875 68.2214 187.967 68.4595 188.139C69.0587 188.547 69.5523 189.091 69.8996 189.727C70.247 190.362 70.4382 191.071 70.4575 191.795Z" fill="#A2BFEF"/>
<path d="M70.2917 192.801C70.3057 193.028 70.2698 193.256 70.1867 193.468C70.1035 193.679 69.9751 193.871 69.8103 194.028L69.5214 194.196L67.1143 195.519C67.2731 195.374 67.3968 195.194 67.476 194.994C67.5553 194.794 67.5879 194.579 67.5716 194.364L69.5696 193.21L69.8584 193.042C69.9812 192.93 70.0866 192.8 70.1714 192.657L70.2917 192.801Z" fill="#879ADE"/>
<path d="M20.7029 164.548C20.6254 164.631 20.5249 164.689 20.4141 164.715L20.7029 164.548Z" fill="#085956"/>
<path d="M18.2961 165.793C18.3117 166.02 18.2766 166.248 18.1934 166.46C18.1101 166.672 17.9808 166.863 17.8147 167.019C17.5855 167.191 17.3068 167.284 17.0203 167.284C16.7339 167.284 16.4551 167.191 16.2259 167.019C15.6236 166.632 15.1218 166.107 14.7619 165.488C14.402 164.87 14.1943 164.174 14.1558 163.46C14.1441 163.162 14.2018 162.865 14.3243 162.594C14.4488 162.341 14.6635 162.144 14.9261 162.041C15.1461 161.986 15.3749 161.977 15.5984 162.015C15.822 162.052 16.0355 162.134 16.2259 162.257C16.442 162.388 16.6437 162.541 16.8277 162.714C17.5045 163.369 17.9805 164.203 18.1998 165.119C18.2233 165.319 18.2233 165.521 18.1998 165.72C18.1998 165.72 18.2961 165.745 18.2961 165.793Z" fill="#99AFF0"/>
<path d="M18.4656 164.814C18.478 165.104 18.4202 165.393 18.2971 165.656C18.3206 165.456 18.3206 165.254 18.2971 165.054C18.0777 164.139 17.6018 163.304 16.925 162.649C16.741 162.476 16.5393 162.323 16.3232 162.192C16.137 162.07 15.9276 161.988 15.708 161.95C15.4884 161.913 15.2635 161.922 15.0474 161.976C14.9116 162.022 14.7864 162.095 14.6789 162.19C14.5715 162.284 14.484 162.4 14.4215 162.529V162.385C14.3808 162.1 14.4339 161.81 14.5729 161.558C14.7119 161.306 14.9292 161.107 15.1918 160.99C15.3981 160.93 15.6149 160.916 15.827 160.95C16.0392 160.983 16.2414 161.062 16.4195 161.182C16.6665 161.309 16.8936 161.471 17.0935 161.663C17.7239 162.366 18.1413 163.233 18.2971 164.164C18.3707 164.376 18.427 164.593 18.4656 164.814Z" fill="#A2BFEF"/>
<path d="M21.0625 163.32C21.0652 163.609 21.0078 163.896 20.894 164.162C20.8159 164.309 20.7096 164.44 20.5811 164.546L20.2922 164.715L18.2943 165.869C18.3069 165.798 18.3069 165.724 18.2943 165.653C18.4174 165.39 18.4752 165.101 18.4628 164.811C18.4242 164.59 18.3678 164.373 18.2943 164.162C18.0737 163.246 17.5979 162.412 16.9222 161.756C16.7396 161.582 16.5377 161.428 16.3204 161.299C16.1318 161.173 15.9182 161.088 15.694 161.05C15.4697 161.013 15.2401 161.024 15.0205 161.083L17.2833 159.784C17.5145 159.607 17.798 159.51 18.0897 159.51C18.3813 159.51 18.6648 159.607 18.8961 159.784C19.5092 160.163 20.0248 160.68 20.4011 161.294C20.7775 161.908 21.004 162.602 21.0625 163.32Z" fill="#A2BFEF"/>
<path d="M20.895 164.308C20.916 164.535 20.8834 164.765 20.7998 164.978C20.7162 165.191 20.584 165.381 20.4136 165.534L20.1247 165.702L17.8379 167.025C17.9982 166.881 18.1229 166.702 18.2022 166.502C18.2816 166.301 18.3134 166.085 18.2952 165.871L20.2932 164.716L20.5821 164.548C20.7106 164.441 20.8169 164.311 20.895 164.163V164.308Z" fill="#879ADE"/>
<path d="M20.7029 193.022C20.6189 193.096 20.5206 193.153 20.4141 193.189L20.7029 193.022Z" fill="#085956"/>
<path d="M18.2963 194.27C18.3122 194.501 18.2773 194.733 18.1941 194.949C18.111 195.165 17.9815 195.36 17.8149 195.521C17.5857 195.692 17.307 195.785 17.0205 195.785C16.734 195.785 16.4553 195.692 16.2261 195.521C15.6205 195.131 15.1168 194.603 14.7567 193.979C14.3966 193.356 14.1907 192.656 14.156 191.937C14.1435 191.647 14.2013 191.358 14.3245 191.095C14.378 190.965 14.4597 190.847 14.5637 190.752C14.6677 190.656 14.7915 190.584 14.9262 190.542C15.1456 190.481 15.3756 190.469 15.6001 190.507C15.8246 190.544 16.0383 190.63 16.2261 190.758C16.4476 190.881 16.6502 191.035 16.8279 191.215C17.5037 191.871 17.9794 192.705 18.2 193.621C18.2237 193.828 18.2237 194.038 18.2 194.246C18.2317 194.255 18.2638 194.264 18.2963 194.27Z" fill="#99AFF0"/>
<path d="M18.4643 193.284C18.4759 193.582 18.4183 193.878 18.2958 194.15C18.3194 193.942 18.3194 193.732 18.2958 193.525C18.0752 192.609 17.5994 191.775 16.9237 191.119C16.746 190.939 16.5433 190.785 16.3219 190.663C16.1369 190.538 15.9283 190.452 15.7089 190.41C15.4895 190.369 15.2639 190.373 15.0461 190.422C14.9075 190.47 14.7802 190.546 14.6725 190.645C14.5648 190.744 14.4789 190.865 14.4202 190.999V190.855C14.3855 190.568 14.441 190.277 14.579 190.023C14.7171 189.769 14.9307 189.563 15.1905 189.436C15.3974 189.383 15.6131 189.372 15.8243 189.405C16.0354 189.438 16.2375 189.514 16.4182 189.628C16.661 189.771 16.887 189.94 17.0922 190.133C17.7679 190.789 18.2437 191.623 18.4643 192.539C18.4868 192.787 18.4868 193.036 18.4643 193.284Z" fill="#A2BFEF"/>
<path d="M21.0637 191.796C21.0614 192.093 21.0043 192.387 20.8952 192.662C20.8459 192.79 20.7812 192.911 20.7026 193.023L20.4138 193.191L18.4158 194.346C18.4284 194.274 18.4284 194.201 18.4158 194.129C18.5383 193.858 18.596 193.561 18.5843 193.264C18.6069 193.016 18.6069 192.766 18.5843 192.518C18.3637 191.603 17.888 190.769 17.2122 190.113C17.0297 189.938 16.8278 189.785 16.6104 189.656C16.4231 189.526 16.2103 189.438 15.9863 189.396C15.7622 189.355 15.5319 189.361 15.3105 189.415L17.5733 188.117C17.8077 187.946 18.09 187.855 18.3797 187.855C18.6694 187.855 18.9517 187.946 19.1861 188.117C19.7662 188.54 20.2385 189.093 20.5647 189.732C20.8909 190.372 21.0619 191.079 21.0637 191.796Z" fill="#A2BFEF"/>
<path d="M20.895 192.806C20.9141 193.033 20.8807 193.262 20.7972 193.475C20.7137 193.688 20.5825 193.878 20.4136 194.032L20.1247 194.201L17.8379 195.523C17.9967 195.378 18.1204 195.199 18.1996 194.999C18.2789 194.799 18.3116 194.583 18.2952 194.369L20.2932 193.214L20.7024 193.022C20.8252 192.91 20.9306 192.78 21.0154 192.637L20.895 192.806Z" fill="#879ADE"/>
<path d="M69.9764 164.548C69.8988 164.631 69.7983 164.689 69.6875 164.715L69.9764 164.548Z" fill="#085956"/>
<path d="M67.692 165.793C67.716 166.018 67.6871 166.247 67.6078 166.46C67.5284 166.673 67.4007 166.864 67.2346 167.019C67.0054 167.191 66.7267 167.284 66.4402 167.284C66.1538 167.284 65.875 167.191 65.6459 167.019C65.0435 166.632 64.5417 166.107 64.1818 165.488C63.8219 164.87 63.6142 164.174 63.5757 163.46C63.564 163.162 63.6217 162.865 63.7442 162.594C63.8688 162.341 64.0834 162.144 64.346 162.041C64.566 161.986 64.7948 161.977 65.0183 162.015C65.2419 162.052 65.4554 162.134 65.6459 162.257C66.1477 162.575 66.5809 162.989 66.9198 163.477C67.2588 163.964 67.4968 164.514 67.6197 165.095C67.6433 165.295 67.6433 165.497 67.6197 165.696L67.692 165.793Z" fill="#99AFF0"/>
<path d="M67.8595 164.805C67.8719 165.095 67.8141 165.384 67.691 165.647C67.7145 165.447 67.7145 165.246 67.691 165.046C67.568 164.465 67.3301 163.915 66.9911 163.427C66.6521 162.94 66.2189 162.525 65.7171 162.208C65.5267 162.085 65.3131 162.002 65.0896 161.965C64.866 161.928 64.6372 161.937 64.4172 161.991C64.1546 162.094 63.94 162.292 63.8154 162.544V162.4C63.8154 161.655 64.1043 161.149 64.5857 161.005C64.792 160.946 65.0088 160.932 65.2209 160.965C65.433 160.998 65.6353 161.078 65.8134 161.198C66.0482 161.35 66.2591 161.537 66.4392 161.751C67.115 162.407 67.5907 163.241 67.8113 164.156C67.8443 164.371 67.8604 164.588 67.8595 164.805Z" fill="#A2BFEF"/>
<path d="M70.4597 163.317C70.4624 163.606 70.405 163.892 70.2912 164.158C70.2131 164.306 70.1068 164.437 69.9783 164.543L69.6894 164.712L67.6915 165.866V165.65C67.8146 165.387 67.8724 165.098 67.86 164.808C67.8838 164.552 67.8838 164.294 67.86 164.038C67.6053 163.161 67.114 162.37 66.4398 161.753C66.2572 161.579 66.0553 161.425 65.838 161.296C65.6494 161.169 65.4358 161.084 65.2115 161.047C64.9873 161.01 64.7576 161.021 64.5381 161.08L66.7768 159.781C67.0134 159.605 67.3004 159.51 67.5952 159.51C67.89 159.51 68.177 159.605 68.4136 159.781C69.0045 160.173 69.4966 160.696 69.8515 161.309C70.2065 161.923 70.4146 162.61 70.4597 163.317Z" fill="#A2BFEF"/>
<path d="M70.2917 164.308C70.3073 164.535 70.2722 164.763 70.189 164.975C70.1057 165.187 69.9764 165.378 69.8103 165.534L69.5214 165.702L67.1143 167.025C67.2745 166.881 67.3992 166.702 67.4786 166.502C67.5579 166.301 67.5898 166.085 67.5716 165.871L69.5696 164.716L69.8584 164.548C70.0305 164.455 70.1788 164.323 70.2917 164.163V164.308Z" fill="#879ADE"/>
<path d="M68.8467 158.842C68.606 158.842 67.8357 158.121 67.5228 158.073C59.868 156.461 51.0096 158.554 42.1512 163.653C32.1321 169.749 23.4656 177.827 16.6834 187.391C16.0575 188.233 15.889 189.243 16.2501 189.628C16.6112 190.013 17.4055 190.205 17.5981 190.398C17.7907 190.59 18.7536 190.398 19.3553 189.628C25.762 180.572 33.9535 172.919 43.427 167.14C51.8281 162.33 60.2772 160.333 67.4987 161.849C68.0765 161.849 68.8467 161.44 69.2319 160.622C69.617 159.804 69.5689 158.963 68.8467 158.842Z" fill="#99AFF0"/>
<path d="M68.8471 188.216C62.1242 178.669 53.524 170.591 43.5719 164.477C34.6894 159.354 25.7829 157.262 18.104 158.849C17.7911 158.849 17.0208 159.546 16.7801 159.594C16.1542 159.739 15.9857 160.532 16.3468 161.35C16.7079 162.168 17.5263 162.745 18.104 162.625C25.3255 161.11 33.8228 163.106 42.1757 167.988C51.6459 173.741 59.8378 181.37 66.2474 190.404C66.8251 191.198 67.5954 191.559 67.9806 191.174C68.3657 190.789 69.0397 190.669 69.3045 190.404C69.5693 190.14 69.5693 189.009 68.8471 188.216Z" fill="#99AFF0"/>
<path d="M43.2096 166.081C42.8369 166.271 42.4244 166.37 42.006 166.37C41.5876 166.37 41.1751 166.271 40.8024 166.081C40.2969 165.792 40.1525 165.359 40.4173 164.999V134.983L43.7392 136.907V165.095C43.8355 165.431 43.691 165.816 43.2096 166.081Z" fill="#879ADE"/>
<path d="M40.3704 79.6903C42.0733 80.029 43.8123 80.1502 45.5458 80.0511C47.5232 79.5721 49.5355 79.2504 51.5637 79.089C52.0675 79.1373 52.5759 79.08 53.0562 78.9207L60.2777 75.5535L65.8623 73.4129C67.1732 73.5754 68.4992 73.5754 69.8101 73.4129C70.8692 73.0762 71.7117 72.8597 71.3025 73.7015C71.027 74.1353 70.6516 74.497 70.2077 74.7564C69.7639 75.0158 69.2644 75.1654 68.7509 75.1927C68.242 75.2122 67.7425 75.335 67.2826 75.5535L71.4951 75.7699C71.4951 75.7699 71.8562 77.4295 70.6526 77.4295C69.449 77.4295 66.2475 77.67 66.2475 77.67C65.1864 78.2079 64.2257 78.9238 63.407 79.7865C62.6519 80.6191 62.0123 81.5494 61.5054 82.5524C61.7876 82.9567 62.1943 83.2578 62.6637 83.4097C63.133 83.5617 63.6392 83.5562 64.1051 83.3942C66.0549 83.0094 66.8733 84.2119 66.8733 84.8373C66.8733 85.4626 65.4531 86.3766 64.6347 86.2323C63.8162 86.0879 63.0459 85.6069 62.8052 85.6069C61.7438 85.8499 60.6411 85.8499 59.5796 85.6069C57.1724 85.1981 54.7653 84.1157 53.7061 84.1157C52.651 84.1465 51.5983 84.2349 50.5527 84.3803C50.5527 84.3803 36.9041 86.1841 34.2081 86.0158C31.512 85.8474 27.7568 85.7993 28.6716 80.6764C29.5863 75.5535 40.3704 79.6903 40.3704 79.6903Z" fill="#FFC69C"/>
<path fill-rule="evenodd" clip-rule="evenodd" d="M49.5898 116.207L51.323 149.878C51.3022 150.012 51.3235 150.148 51.3839 150.269C51.4442 150.39 51.5408 150.488 51.66 150.552C52.7914 151.201 56.4743 150.095 60.037 148.147C61.4813 147.305 62.7571 122.821 63.5755 122.051C63.9214 118.647 64.0741 115.226 64.0329 111.805L49.5898 116.207Z" fill="#2A3463"/>
<path d="M35.1449 73.58L37.7446 67.3266C37.7446 67.3266 33.8209 61.5303 35.1449 56.7681C36.4688 52.006 39.6463 49.5527 46.9641 49.5527C54.2819 49.5527 55.8947 54.363 56.2076 55.3731C56.8562 57.082 57.0632 58.9267 56.8094 60.7366C56.2076 62.1797 55.1966 62.4442 55.2447 63.3341C55.2929 64.224 56.1595 63.8873 55.2447 65.5949C54.33 67.3026 54.0411 70.7419 51.7303 71.5597C49.4194 72.3774 48.1195 71.5597 47.8307 73.4116C47.397 75.5788 47.1075 77.7722 46.9641 79.9776C66.4381 99.8199 24.77 82.3827 35.1449 73.58Z" fill="#FFC69C"/>
<path d="M34.9763 109.033H32.4006V109.779C32.3973 109.903 32.4325 110.025 32.5015 110.128C32.5704 110.232 32.6697 110.311 32.7858 110.356C33.0698 110.498 33.383 110.572 33.7005 110.572C34.018 110.572 34.3312 110.498 34.6152 110.356C34.7288 110.31 34.8251 110.23 34.89 110.126C34.9549 110.022 34.9851 109.901 34.9763 109.779V109.033Z" fill="#879ADE"/>
<path d="M34.6181 109.565C34.3341 109.707 34.0209 109.781 33.7034 109.781C33.3859 109.781 33.0727 109.707 32.7887 109.565C32.6752 109.53 32.5758 109.46 32.5052 109.365C32.4346 109.27 32.3965 109.154 32.3965 109.036C32.3965 108.917 32.4346 108.802 32.5052 108.707C32.5758 108.611 32.6752 108.541 32.7887 108.507C33.0727 108.365 33.3859 108.291 33.7034 108.291C34.0209 108.291 34.3341 108.365 34.6181 108.507C34.7316 108.541 34.831 108.611 34.9016 108.707C34.9722 108.802 35.0103 108.917 35.0103 109.036C35.0103 109.154 34.9722 109.27 34.9016 109.365C34.831 109.46 34.7316 109.53 34.6181 109.565Z" fill="#99AFF0"/>
<path d="M43.7871 123.894H41.2114V124.616C41.2065 124.743 41.2408 124.869 41.3097 124.977C41.3785 125.084 41.4786 125.168 41.5965 125.217C41.8763 125.359 42.1856 125.433 42.4992 125.433C42.8129 125.433 43.1221 125.359 43.4019 125.217C43.5198 125.168 43.62 125.084 43.6888 124.977C43.7576 124.869 43.7919 124.743 43.7871 124.616V123.894Z" fill="#879ADE"/>
<path d="M43.4016 124.426C43.1218 124.568 42.8126 124.641 42.499 124.641C42.1853 124.641 41.8761 124.568 41.5963 124.426C41.4828 124.391 41.3834 124.321 41.3128 124.226C41.2422 124.131 41.2041 124.015 41.2041 123.897C41.2041 123.778 41.2422 123.663 41.3128 123.568C41.3834 123.472 41.4828 123.402 41.5963 123.368C41.8761 123.226 42.1853 123.152 42.499 123.152C42.8126 123.152 43.1218 123.226 43.4016 123.368C43.5151 123.402 43.6145 123.472 43.6851 123.568C43.7557 123.663 43.7938 123.778 43.7938 123.897C43.7938 124.015 43.7557 124.131 43.6851 124.226C43.6145 124.321 43.5151 124.391 43.4016 124.426Z" fill="#99AFF0"/>
<path fill-rule="evenodd" clip-rule="evenodd" d="M68.2924 108.505C62.2745 106.437 51.9959 111.825 44.2207 115.721C44.8762 122.293 45.8644 128.827 47.1815 135.299C53.0309 133.278 57.7971 127.025 64.8261 122.022L71.4699 118.631C71.9754 111.8 71.4699 109.588 68.2924 108.505Z" fill="#2A3463"/>
<path fill-rule="evenodd" clip-rule="evenodd" d="M54.4042 143.305L49.5898 146.961C49.5898 151.386 49.5898 153.575 51.3471 154.705C53.1043 155.836 56.9558 154.994 59.0741 154.008L59.6518 152.3C61.6979 152.012 61.2405 152.637 63.4551 151.386C67.1622 149.342 72.6024 146.167 73.3245 142.487C73.5171 141.549 72.795 139.866 71.8562 140.082L63.1181 143.113L54.4042 143.305Z" fill="#120A30"/>
<path fill-rule="evenodd" clip-rule="evenodd" d="M75.0819 158.485L70.1231 161.948C70.0028 166.374 69.9065 168.538 71.5674 169.765C73.2284 170.991 77.1521 170.27 79.3185 169.38L79.9685 167.696C81.7684 167.831 83.5604 167.347 85.0476 166.326C88.6343 164.474 92.9912 161.852 93.7856 158.605C94.0022 157.667 93.3523 155.959 92.4135 156.2L86.2512 158.918L75.0819 158.485Z" fill="#085956"/>
<path fill-rule="evenodd" clip-rule="evenodd" d="M82.3977 116.587C81.7959 119.594 74.4781 125.751 73.7559 128.613C73.7559 128.613 70.2896 163.03 70.4581 163.199C71.3728 164.137 80.2794 165.748 81.5552 158.557C85.2863 157.571 90.3172 123.394 90.3172 123.394C92.4837 116.323 84.3234 110.214 82.3977 116.587Z" fill="#2A3463"/>
<path d="M82.5915 136.795L66.4394 141.798L56.5219 149.398L46.0266 152.934L43.6195 150.529L42.3677 149.062L43.9565 136.002L44.462 131.865L41.79 121.787L40.3457 114.043C41.4274 113.85 42.5423 113.984 43.5472 114.428L82.5915 136.795Z" fill="#99AFF0"/>
<path fill-rule="evenodd" clip-rule="evenodd" d="M36.5668 116.783L24.1218 116.302C22.6293 123.06 23.4718 131.069 26.5289 134.34C31.0303 139.15 39.7443 145.428 48.4342 143.431C54.9576 141.94 66.0787 135.302 73.6613 129.987L90.1023 122.771C93.1835 116.59 94.9166 112.742 86.1786 110.89C79.9681 109.543 63.5271 116.229 55.6798 120.078L36.5668 116.783Z" fill="#2A3463"/>
<path d="M52.5013 135.516C51.0548 135.936 49.5186 135.936 48.0721 135.516C41.5005 134.338 24.0004 128.542 24.2893 117.237C24.4337 112.427 27.7556 111.754 23.2301 99.5839C14.468 76.0377 26.9612 69.64 29.3443 69.64C31.6554 69.936 33.9056 70.5935 36.0122 71.5882C35.5958 72.1417 35.3001 72.7763 35.1443 73.451C34.9885 74.1257 34.976 74.8256 35.1075 75.5055C35.2391 76.1853 35.5118 76.8301 35.9081 77.3982C36.3044 77.9662 36.8155 78.445 37.4083 78.8035C44.6298 83.1809 44.6298 80.9922 47.2055 80.7036C50.07 80.3428 54.427 84.624 56.8342 87.1012C61.5041 91.9115 54.74 106.342 56.6657 110.215C58.2582 114.382 59.4197 118.702 60.132 123.106C60.5898 125.748 60.0673 128.466 58.6625 130.751C57.2577 133.036 55.0671 134.73 52.5013 135.516Z" fill="#44B8AC"/>
<path d="M52.5029 135.514C51.0563 135.933 49.5202 135.933 48.0737 135.514C45.835 131.425 46.4127 122.815 44.1981 115.503C40.9244 104.728 44.1981 90.0329 49.1328 88.686C49.5956 88.5637 50.0762 88.523 50.5531 88.5658C52.0214 89.7202 53.2491 90.6823 53.6102 90.9709C54.4647 92.2462 54.8711 93.769 54.7656 95.3001C54.7656 95.9736 54.7656 96.7192 54.7656 97.5128C54.5165 101.775 55.1559 106.042 56.6432 110.044C58.2357 114.211 59.3972 118.531 60.1095 122.935C60.6135 125.6 60.1161 128.356 58.7126 130.677C57.3091 132.998 55.098 134.72 52.5029 135.514Z" fill="#24B289"/>
<path d="M62.0337 108.385C62.0337 108.385 67.1851 101.651 67.7868 100.352C68.3886 99.053 72.9863 92.2705 72.9863 92.2705L71.2532 90.8996C71.2532 90.8996 70.9402 89.5768 70.4107 89.2641C69.8811 88.9514 68.2442 87.9413 69.0867 87.364C69.5653 87.0806 70.1332 86.9876 70.6774 87.1035C71.2215 87.2194 71.7021 87.5356 72.0235 87.9894C72.7697 88.9274 73.203 89.4325 73.203 89.4325L74.9843 85.1754V80.9664C74.9843 80.9664 74.9843 79.0664 75.6583 78.9702C76.3323 78.8739 77.3192 78.9701 76.8378 80.0525C76.3564 81.1348 76.9582 81.6398 76.9582 81.6398L77.4396 85.4159L78.4506 81.8082C78.8908 81.1213 79.2694 80.397 79.582 79.6436C79.6588 79.5128 79.7763 79.4106 79.9165 79.3524C80.0568 79.2943 80.2122 79.2835 80.3591 79.3216C80.5061 79.3596 80.6366 79.4445 80.731 79.5634C80.8253 79.6823 80.8783 79.8286 80.8818 79.9803C80.8818 80.774 80.8818 82.8905 80.8818 82.8905L79.919 85.945L81.9169 82.674L84.0834 80.7499C84.0834 80.7499 85.5277 80.6297 85.0222 81.6398C84.5791 82.4182 84.0718 83.1584 83.5056 83.8526L81.9169 87.3881L84.5167 86.7147H87.1646C87.1646 86.7147 87.1645 88.1577 86.3461 88.2299C85.8507 88.2537 85.3589 88.3262 84.8778 88.4464L82.9761 89.3844C82.7398 90.8825 82.1452 92.3016 81.2429 93.5212C80.4881 94.1474 79.683 94.7105 78.8358 95.2048C78.8358 95.2048 68.7016 118.462 65.3075 120.459C61.9133 122.455 60.1561 112.113 62.0337 108.385Z" fill="#FFC69C"/>
<path d="M60.6367 105.207C61.2061 104.36 62.02 103.706 62.9703 103.332C63.9205 102.958 64.9621 102.882 65.9566 103.114C67.7294 103.791 69.2624 104.977 70.3631 106.521C71.4638 108.066 72.083 109.901 72.143 111.797C71.6616 114.779 68.0267 120.96 64.2716 120.696C60.5164 120.431 56.5927 109.704 60.6367 105.207Z" fill="#24B289"/>
<path d="M46.6276 94.8007C46.6276 101.198 54.9082 125.923 63.6462 121.522C72.3843 117.12 64.898 107.428 63.6462 104.06C62.3945 100.693 61.552 86.8157 55.4619 86.3827C49.3717 85.9498 46.5794 88.4271 46.6276 94.8007Z" fill="#44B8AC"/>
<path d="M50.7212 65.963C50.5768 65.963 51.2026 64.4959 49.999 65.0491C48.7955 65.6023 48.0733 66.2998 48.0733 67.4542C48.0733 68.6087 47.8326 70.9657 48.5307 70.4847C49.1273 69.9142 49.6237 69.2475 49.999 68.5125H49.1325C48.6751 68.5125 49.0121 66.6124 49.3972 66.42C49.8157 66.2082 50.2611 66.0544 50.7212 65.963Z" fill="#FFC69C"/>
<path opacity="0.25" d="M44.1004 69.853C44.1004 69.853 45.304 67.0149 50.8887 64.5136C53.6088 63.287 60.06 56.8894 54.4513 52.1994C52.7753 50.7123 50.6659 49.8018 48.4333 49.6018C44.7504 49.0486 36.2531 51.4297 35.7716 58.8375C35.1458 69.0593 42.0062 74.2063 44.1004 69.853Z" fill="#120A30"/>
<path d="M43.908 136L42.3674 149.06L43.7154 150.479V152.884L6.25983 131.551V131.31L5.70618 131.07C-0.215451 127.63 4.52667 119.765 4.52667 113.44C4.52667 107.115 0.554841 96.3155 0.410411 94.0066C0.265981 91.6976 1.03627 89.9419 1.37328 90.1343L39.9602 112.502L40.225 114.041L41.6693 121.786L43.8839 133.811L43.908 136Z" fill="#A2BFEF"/>
<path d="M39.9602 112.495C39.9602 112.495 46.4596 129.788 46.2188 133.564C45.9781 137.34 41.8378 148.5 45.93 150.857C50.0222 153.214 68.6777 140.106 71.7108 138.422C74.7438 136.739 82.7115 135.223 82.7115 137.532C82.7115 139.841 78.7156 137.364 75.49 139.144C72.2644 140.924 50.2147 156.845 44.1968 153.43C38.1789 150.015 43.0173 142.126 43.0173 135.801C43.0173 129.475 39.0214 118.676 38.877 116.367C38.7325 114.058 39.6954 112.302 39.9602 112.495Z" fill="#A2BFEF"/>
<path d="M75.8269 124.495L71.0126 144.385C71.0126 144.385 69.3035 145.948 68.798 145.9C68.2924 145.852 68.6294 145.708 68.798 145.443C69.2312 144 70.4108 143.231 70.7237 141.355C70.9163 140.008 73.4919 130.123 74.864 124.88C75.2973 123.268 74.4307 122.306 73.179 123.004L71.2533 124.062C65.0313 127.32 58.9887 130.908 53.1514 134.813C51.37 136.689 47.5186 141.451 47.5186 141.451C47.5186 141.451 46.8446 141.932 46.7483 141.619C46.652 141.307 46.7483 141.162 47.1575 140.561C48.6326 138.502 50.2408 136.542 51.9718 134.692L52.1163 134.548L52.4773 134.187L52.6699 134.043L52.8384 133.899L53.1514 133.658L53.4884 133.442L71.4218 123.1L73.3716 121.969C73.5407 121.874 73.7179 121.793 73.9011 121.729C74.1317 121.685 74.3686 121.685 74.5992 121.729C75.6343 121.657 76.2361 122.811 75.8269 124.495Z" fill="#99AFF0"/>
<path d="M74.743 124.881C73.3709 130.124 70.7952 140.009 70.6027 141.356C70.2897 143.232 69.1102 144.002 68.6769 145.445C68.6769 145.709 68.6769 145.854 68.6769 145.878C68.2196 145.878 64.9218 144.892 65.331 143.473C65.7402 142.054 66.9438 141.26 67.2567 139.384C67.4493 138.109 69.6639 129.403 71.1082 123.991L73.0339 122.933C74.3097 122.307 75.1763 123.269 74.743 124.881Z" fill="#A2BFEF"/>
<path d="M74.5743 121.612C74.3437 121.568 74.1068 121.568 73.8762 121.612C73.6929 121.676 73.5157 121.757 73.3466 121.852L71.3968 122.983L53.4634 133.325L53.1986 133.493L52.9097 133.71L52.6449 133.926L52.4524 134.07L52.0913 134.431L51.9469 134.575C50.2158 136.425 48.6076 138.385 47.1325 140.444C46.7714 141.045 46.6992 141.358 46.7233 141.502C46.7474 141.647 43.6421 139.674 43.6421 139.674C43.6421 139.674 43.2088 139.554 43.8106 138.52C45.6496 135.861 47.8081 133.438 50.2378 131.304L70.121 119.832C70.3565 119.73 70.6105 119.677 70.8672 119.677C71.1239 119.677 71.3779 119.73 71.6134 119.832L72.7207 120.409L74.5743 121.612Z" fill="#A2BFEF"/>
<path d="M42.5113 71.7076C42.5113 71.7076 42.3187 61.3656 47.9034 58.8883C50.6235 57.6617 59.2652 57.3731 56.6655 48.5222C56.3285 47.2956 53.7528 42.5334 42.8724 46.5981C40.4507 47.214 38.2934 48.5963 36.7228 50.5383C35.1522 52.4804 34.2526 54.878 34.1584 57.3731C33.5085 67.5708 34.6399 71.0823 42.5113 71.7076Z" fill="#120A30"/>
<path d="M126.137 123.902L152.808 109.711V107.859V106.561L106.903 110.794V113.944L126.137 123.902Z" fill="#F7991D"/>
<path d="M126.137 120.751L152.808 106.561L133.575 96.6033L106.903 110.794L126.137 120.751Z" fill="#F6B735"/>
<path d="M139.834 109.705L145.804 106.603L134.803 100.903L128.833 103.981L139.834 109.705Z" fill="#FAD445"/>
<path d="M126.427 121.539V123.222L107.627 113.698V111.822L126.427 121.539Z" fill="white"/>
<path d="M126.426 121.538L152.808 107.613V109.08L126.426 123.222V121.538Z" fill="#D3E2F7"/>
<defs>
<linearGradient id="paint0_linear" x1="64.874" y1="69.5698" x2="68.0996" y2="69.5698" gradientUnits="userSpaceOnUse">
<stop stop-color="#D3E2F7"/>
<stop offset="1" stop-color="#A2BFEF"/>
</linearGradient>
<linearGradient id="paint1_linear" x1="75.3992" y1="166.433" x2="79.6893" y2="166.433" gradientUnits="userSpaceOnUse">
<stop stop-color="#D3E2F7"/>
<stop offset="1" stop-color="#A2BFEF"/>
</linearGradient>
<linearGradient id="paint2_linear" x1="149.191" y1="199.01" x2="153.514" y2="199.01" gradientUnits="userSpaceOnUse">
<stop stop-color="#D3E2F7"/>
<stop offset="1" stop-color="#A2BFEF"/>
</linearGradient>
<linearGradient id="paint3_linear" x1="64.4357" y1="187.528" x2="70.91" y2="187.528" gradientUnits="userSpaceOnUse">
<stop stop-color="#D3E2F7"/>
<stop offset="1" stop-color="#A2BFEF"/>
</linearGradient>
<linearGradient id="paint4_linear" x1="71.3618" y1="189.281" x2="77.8361" y2="189.281" gradientUnits="userSpaceOnUse">
<stop stop-color="#D3E2F7"/>
<stop offset="1" stop-color="#A2BFEF"/>
</linearGradient>
<linearGradient id="paint5_linear" x1="140.695" y1="220.434" x2="147.17" y2="220.434" gradientUnits="userSpaceOnUse">
<stop stop-color="#D3E2F7"/>
<stop offset="1" stop-color="#A2BFEF"/>
</linearGradient>
<linearGradient id="paint6_linear" x1="133.769" y1="216.054" x2="140.243" y2="216.054" gradientUnits="userSpaceOnUse">
<stop stop-color="#D3E2F7"/>
<stop offset="1" stop-color="#A2BFEF"/>
</linearGradient>
<linearGradient id="paint7_linear" x1="126.842" y1="214.451" x2="133.277" y2="214.451" gradientUnits="userSpaceOnUse">
<stop stop-color="#D3E2F7"/>
<stop offset="1" stop-color="#A2BFEF"/>
</linearGradient>
<linearGradient id="paint8_linear" x1="119.916" y1="210.097" x2="126.351" y2="210.097" gradientUnits="userSpaceOnUse">
<stop stop-color="#D3E2F7"/>
<stop offset="1" stop-color="#A2BFEF"/>
</linearGradient>
<linearGradient id="paint9_linear" x1="112.95" y1="208.455" x2="119.424" y2="208.455" gradientUnits="userSpaceOnUse">
<stop stop-color="#D3E2F7"/>
<stop offset="1" stop-color="#A2BFEF"/>
</linearGradient>
<linearGradient id="paint10_linear" x1="106.024" y1="204.164" x2="112.498" y2="204.164" gradientUnits="userSpaceOnUse">
<stop stop-color="#D3E2F7"/>
<stop offset="1" stop-color="#A2BFEF"/>
</linearGradient>
<linearGradient id="paint11_linear" x1="99.0945" y1="202.468" x2="105.569" y2="202.468" gradientUnits="userSpaceOnUse">
<stop stop-color="#D3E2F7"/>
<stop offset="1" stop-color="#A2BFEF"/>
</linearGradient>
<linearGradient id="paint12_linear" x1="92.1684" y1="198.211" x2="98.6427" y2="198.211" gradientUnits="userSpaceOnUse">
<stop stop-color="#D3E2F7"/>
<stop offset="1" stop-color="#A2BFEF"/>
</linearGradient>
<linearGradient id="paint13_linear" x1="85.1518" y1="195.233" x2="91.5866" y2="195.233" gradientUnits="userSpaceOnUse">
<stop stop-color="#D3E2F7"/>
<stop offset="1" stop-color="#A2BFEF"/>
</linearGradient>
<linearGradient id="paint14_linear" x1="78.2519" y1="193.515" x2="84.6868" y2="193.515" gradientUnits="userSpaceOnUse">
<stop stop-color="#D3E2F7"/>
<stop offset="1" stop-color="#A2BFEF"/>
</linearGradient>
<linearGradient id="paint15_linear" x1="183.148" y1="312.224" x2="201.089" y2="312.224" gradientUnits="userSpaceOnUse">
<stop stop-color="#D3E2F7"/>
<stop offset="1" stop-color="#A2BFEF"/>
</linearGradient>
<linearGradient id="paint16_linear" x1="58.2426" y1="227.696" x2="69.5778" y2="227.696" gradientUnits="userSpaceOnUse">
<stop stop-color="#D3E2F7"/>
<stop offset="1" stop-color="#A2BFEF"/>
</linearGradient>
<linearGradient id="paint17_linear" x1="148.651" y1="227.406" x2="155.047" y2="227.406" gradientUnits="userSpaceOnUse">
<stop stop-color="#D3E2F7"/>
<stop offset="1" stop-color="#A2BFEF"/>
</linearGradient>
<linearGradient id="paint18_linear" x1="50.6837" y1="249.61" x2="64.6648" y2="249.61" gradientUnits="userSpaceOnUse">
<stop stop-color="#D3E2F7"/>
<stop offset="1" stop-color="#A2BFEF"/>
</linearGradient>
<linearGradient id="paint19_linear" x1="124.513" y1="223.162" x2="130.988" y2="223.162" gradientUnits="userSpaceOnUse">
<stop stop-color="#D3E2F7"/>
<stop offset="1" stop-color="#A2BFEF"/>
</linearGradient>
<linearGradient id="paint20_linear" x1="116.806" y1="218.614" x2="123.241" y2="218.614" gradientUnits="userSpaceOnUse">
<stop stop-color="#D3E2F7"/>
<stop offset="1" stop-color="#A2BFEF"/>
</linearGradient>
<linearGradient id="paint21_linear" x1="109.337" y1="216.807" x2="115.771" y2="216.807" gradientUnits="userSpaceOnUse">
<stop stop-color="#D3E2F7"/>
<stop offset="1" stop-color="#A2BFEF"/>
</linearGradient>
<linearGradient id="paint22_linear" x1="101.994" y1="212.256" x2="108.468" y2="212.256" gradientUnits="userSpaceOnUse">
<stop stop-color="#D3E2F7"/>
<stop offset="1" stop-color="#A2BFEF"/>
</linearGradient>
<linearGradient id="paint23_linear" x1="94.4963" y1="209.092" x2="100.971" y2="209.092" gradientUnits="userSpaceOnUse">
<stop stop-color="#D3E2F7"/>
<stop offset="1" stop-color="#A2BFEF"/>
</linearGradient>
<linearGradient id="paint24_linear" x1="86.9981" y1="205.92" x2="93.4329" y2="205.92" gradientUnits="userSpaceOnUse">
<stop stop-color="#D3E2F7"/>
<stop offset="1" stop-color="#A2BFEF"/>
</linearGradient>
<linearGradient id="paint25_linear" x1="79.4969" y1="202.756" x2="85.9318" y2="202.756" gradientUnits="userSpaceOnUse">
<stop stop-color="#D3E2F7"/>
<stop offset="1" stop-color="#A2BFEF"/>
</linearGradient>
<linearGradient id="paint26_linear" x1="71.9602" y1="199.596" x2="78.4346" y2="199.596" gradientUnits="userSpaceOnUse">
<stop stop-color="#D3E2F7"/>
<stop offset="1" stop-color="#A2BFEF"/>
</linearGradient>
<linearGradient id="paint27_linear" x1="64.462" y1="196.432" x2="70.9364" y2="196.432" gradientUnits="userSpaceOnUse">
<stop stop-color="#D3E2F7"/>
<stop offset="1" stop-color="#A2BFEF"/>
</linearGradient>
<linearGradient id="paint28_linear" x1="131.95" y1="224.97" x2="138.424" y2="224.97" gradientUnits="userSpaceOnUse">
<stop stop-color="#D3E2F7"/>
<stop offset="1" stop-color="#A2BFEF"/>
</linearGradient>
<linearGradient id="paint29_linear" x1="159.498" y1="289.16" x2="172.791" y2="289.16" gradientUnits="userSpaceOnUse">
<stop stop-color="#D3E2F7"/>
<stop offset="1" stop-color="#A2BFEF"/>
</linearGradient>
<linearGradient id="paint30_linear" x1="41.7327" y1="275.829" x2="59.6731" y2="275.829" gradientUnits="userSpaceOnUse">
<stop stop-color="#D3E2F7"/>
<stop offset="1" stop-color="#A2BFEF"/>
</linearGradient>
<linearGradient id="paint31_linear" x1="61.3865" y1="199.526" x2="67.8608" y2="199.526" gradientUnits="userSpaceOnUse">
<stop stop-color="#D3E2F7"/>
<stop offset="1" stop-color="#A2BFEF"/>
</linearGradient>
<linearGradient id="paint32_linear" x1="123.791" y1="226.308" x2="130.266" y2="226.308" gradientUnits="userSpaceOnUse">
<stop stop-color="#D3E2F7"/>
<stop offset="1" stop-color="#A2BFEF"/>
</linearGradient>
<linearGradient id="paint33_linear" x1="116.864" y1="224.726" x2="123.299" y2="224.726" gradientUnits="userSpaceOnUse">
<stop stop-color="#D3E2F7"/>
<stop offset="1" stop-color="#A2BFEF"/>
</linearGradient>
<linearGradient id="paint34_linear" x1="109.938" y1="220.343" x2="116.373" y2="220.343" gradientUnits="userSpaceOnUse">
<stop stop-color="#D3E2F7"/>
<stop offset="1" stop-color="#A2BFEF"/>
</linearGradient>
<linearGradient id="paint35_linear" x1="102.972" y1="218.739" x2="109.447" y2="218.739" gradientUnits="userSpaceOnUse">
<stop stop-color="#D3E2F7"/>
<stop offset="1" stop-color="#A2BFEF"/>
</linearGradient>
<linearGradient id="paint36_linear" x1="96.0453" y1="214.387" x2="102.52" y2="214.387" gradientUnits="userSpaceOnUse">
<stop stop-color="#D3E2F7"/>
<stop offset="1" stop-color="#A2BFEF"/>
</linearGradient>
<linearGradient id="paint37_linear" x1="89.1192" y1="212.743" x2="95.5935" y2="212.743" gradientUnits="userSpaceOnUse">
<stop stop-color="#D3E2F7"/>
<stop offset="1" stop-color="#A2BFEF"/>
</linearGradient>
<linearGradient id="paint38_linear" x1="82.1921" y1="208.411" x2="88.6664" y2="208.411" gradientUnits="userSpaceOnUse">
<stop stop-color="#D3E2F7"/>
<stop offset="1" stop-color="#A2BFEF"/>
</linearGradient>
<linearGradient id="paint39_linear" x1="75.2123" y1="206.756" x2="81.6471" y2="206.756" gradientUnits="userSpaceOnUse">
<stop stop-color="#D3E2F7"/>
<stop offset="1" stop-color="#A2BFEF"/>
</linearGradient>
<linearGradient id="paint40_linear" x1="68.3105" y1="202.455" x2="74.7453" y2="202.455" gradientUnits="userSpaceOnUse">
<stop stop-color="#D3E2F7"/>
<stop offset="1" stop-color="#A2BFEF"/>
</linearGradient>
<linearGradient id="paint41_linear" x1="157.875" y1="316.183" x2="174.779" y2="316.183" gradientUnits="userSpaceOnUse">
<stop stop-color="#D3E2F7"/>
<stop offset="1" stop-color="#A2BFEF"/>
</linearGradient>
<linearGradient id="paint42_linear" x1="41.9743" y1="195.988" x2="48.4091" y2="195.988" gradientUnits="userSpaceOnUse">
<stop stop-color="#D3E2F7"/>
<stop offset="1" stop-color="#A2BFEF"/>
</linearGradient>
<linearGradient id="paint43_linear" x1="48.8771" y1="198.962" x2="55.3119" y2="198.962" gradientUnits="userSpaceOnUse">
<stop stop-color="#D3E2F7"/>
<stop offset="1" stop-color="#A2BFEF"/>
</linearGradient>
<linearGradient id="paint44_linear" x1="55.7769" y1="201.988" x2="62.2118" y2="201.988" gradientUnits="userSpaceOnUse">
<stop stop-color="#D3E2F7"/>
<stop offset="1" stop-color="#A2BFEF"/>
</linearGradient>
<linearGradient id="paint45_linear" x1="62.5495" y1="204.891" x2="68.9843" y2="204.891" gradientUnits="userSpaceOnUse">
<stop stop-color="#D3E2F7"/>
<stop offset="1" stop-color="#A2BFEF"/>
</linearGradient>
<linearGradient id="paint46_linear" x1="89.444" y1="740.213" x2="250.71" y2="740.213" gradientUnits="userSpaceOnUse">
<stop stop-color="#D3E2F7"/>
<stop offset="1" stop-color="#A2BFEF"/>
</linearGradient>
<linearGradient id="paint47_linear" x1="110.447" y1="200.46" x2="114.391" y2="200.46" gradientUnits="userSpaceOnUse">
<stop stop-color="#D3E2F7"/>
<stop offset="1" stop-color="#A2BFEF"/>
</linearGradient>
<linearGradient id="paint48_linear" x1="125.062" y1="231.699" x2="131.536" y2="231.699" gradientUnits="userSpaceOnUse">
<stop stop-color="#D3E2F7"/>
<stop offset="1" stop-color="#A2BFEF"/>
</linearGradient>
<linearGradient id="paint49_linear" x1="122.413" y1="205.788" x2="126.357" y2="205.788" gradientUnits="userSpaceOnUse">
<stop stop-color="#D3E2F7"/>
<stop offset="1" stop-color="#A2BFEF"/>
</linearGradient>
<linearGradient id="paint50_linear" x1="141.369" y1="224.261" x2="147.765" y2="224.261" gradientUnits="userSpaceOnUse">
<stop stop-color="#D3E2F7"/>
<stop offset="1" stop-color="#A2BFEF"/>
</linearGradient>
<linearGradient id="paint51_linear" x1="134.09" y1="221.144" x2="140.486" y2="221.144" gradientUnits="userSpaceOnUse">
<stop stop-color="#D3E2F7"/>
<stop offset="1" stop-color="#A2BFEF"/>
</linearGradient>
<linearGradient id="paint52_linear" x1="127.704" y1="219.391" x2="134.257" y2="219.391" gradientUnits="userSpaceOnUse">
<stop stop-color="#D3E2F7"/>
<stop offset="1" stop-color="#A2BFEF"/>
</linearGradient>
<linearGradient id="paint53_linear" x1="119.527" y1="216.238" x2="125.922" y2="216.238" gradientUnits="userSpaceOnUse">
<stop stop-color="#D3E2F7"/>
<stop offset="1" stop-color="#A2BFEF"/>
</linearGradient>
<linearGradient id="paint54_linear" x1="111.887" y1="211.742" x2="118.204" y2="211.742" gradientUnits="userSpaceOnUse">
<stop stop-color="#D3E2F7"/>
<stop offset="1" stop-color="#A2BFEF"/>
</linearGradient>
<linearGradient id="paint55_linear" x1="104.967" y1="208.596" x2="111.363" y2="208.596" gradientUnits="userSpaceOnUse">
<stop stop-color="#D3E2F7"/>
<stop offset="1" stop-color="#A2BFEF"/>
</linearGradient>
<linearGradient id="paint56_linear" x1="97.551" y1="205.483" x2="103.907" y2="205.483" gradientUnits="userSpaceOnUse">
<stop stop-color="#D3E2F7"/>
<stop offset="1" stop-color="#A2BFEF"/>
</linearGradient>
<linearGradient id="paint57_linear" x1="90.3831" y1="202.334" x2="96.7787" y2="202.334" gradientUnits="userSpaceOnUse">
<stop stop-color="#D3E2F7"/>
<stop offset="1" stop-color="#A2BFEF"/>
</linearGradient>
<linearGradient id="paint58_linear" x1="83.0788" y1="200.493" x2="89.4744" y2="200.493" gradientUnits="userSpaceOnUse">
<stop stop-color="#D3E2F7"/>
<stop offset="1" stop-color="#A2BFEF"/>
</linearGradient>
<linearGradient id="paint59_linear" x1="75.7917" y1="196.077" x2="82.1481" y2="196.077" gradientUnits="userSpaceOnUse">
<stop stop-color="#D3E2F7"/>
<stop offset="1" stop-color="#A2BFEF"/>
</linearGradient>
<linearGradient id="paint60_linear" x1="68.5416" y1="191.668" x2="74.9372" y2="191.668" gradientUnits="userSpaceOnUse">
<stop stop-color="#D3E2F7"/>
<stop offset="1" stop-color="#A2BFEF"/>
</linearGradient>
<linearGradient id="paint61_linear" x1="143.028" y1="196.266" x2="147.35" y2="196.266" gradientUnits="userSpaceOnUse">
<stop stop-color="#D3E2F7"/>
<stop offset="1" stop-color="#A2BFEF"/>
</linearGradient>
<linearGradient id="paint62_linear" x1="136.591" y1="193.573" x2="140.881" y2="193.573" gradientUnits="userSpaceOnUse">
<stop stop-color="#D3E2F7"/>
<stop offset="1" stop-color="#A2BFEF"/>
</linearGradient>
<linearGradient id="paint63_linear" x1="130.746" y1="190.833" x2="135.068" y2="190.833" gradientUnits="userSpaceOnUse">
<stop stop-color="#D3E2F7"/>
<stop offset="1" stop-color="#A2BFEF"/>
</linearGradient>
<linearGradient id="paint64_linear" x1="124.607" y1="188.127" x2="128.93" y2="188.127" gradientUnits="userSpaceOnUse">
<stop stop-color="#D3E2F7"/>
<stop offset="1" stop-color="#A2BFEF"/>
</linearGradient>
<linearGradient id="paint65_linear" x1="118.468" y1="185.396" x2="122.79" y2="185.396" gradientUnits="userSpaceOnUse">
<stop stop-color="#D3E2F7"/>
<stop offset="1" stop-color="#A2BFEF"/>
</linearGradient>
<linearGradient id="paint66_linear" x1="112.328" y1="182.69" x2="116.651" y2="182.69" gradientUnits="userSpaceOnUse">
<stop stop-color="#D3E2F7"/>
<stop offset="1" stop-color="#A2BFEF"/>
</linearGradient>
<linearGradient id="paint67_linear" x1="106.189" y1="179.95" x2="110.479" y2="179.95" gradientUnits="userSpaceOnUse">
<stop stop-color="#D3E2F7"/>
<stop offset="1" stop-color="#A2BFEF"/>
</linearGradient>
<linearGradient id="paint68_linear" x1="100.015" y1="177.257" x2="104.338" y2="177.257" gradientUnits="userSpaceOnUse">
<stop stop-color="#D3E2F7"/>
<stop offset="1" stop-color="#A2BFEF"/>
</linearGradient>
<linearGradient id="paint69_linear" x1="93.8762" y1="174.513" x2="98.1985" y2="174.513" gradientUnits="userSpaceOnUse">
<stop stop-color="#D3E2F7"/>
<stop offset="1" stop-color="#A2BFEF"/>
</linearGradient>
<linearGradient id="paint70_linear" x1="87.7363" y1="170.555" x2="92.0587" y2="170.555" gradientUnits="userSpaceOnUse">
<stop stop-color="#D3E2F7"/>
<stop offset="1" stop-color="#A2BFEF"/>
</linearGradient>
<linearGradient id="paint71_linear" x1="81.5974" y1="169.08" x2="85.9197" y2="169.08" gradientUnits="userSpaceOnUse">
<stop stop-color="#D3E2F7"/>
<stop offset="1" stop-color="#A2BFEF"/>
</linearGradient>
<linearGradient id="paint72_linear" x1="98.0702" y1="30.4889" x2="100.786" y2="50.2116" gradientUnits="userSpaceOnUse">
<stop stop-color="white"/>
<stop offset="0.2" stop-color="#C7D5F1"/>
<stop offset="0.39" stop-color="#98B2E6"/>
<stop offset="0.56" stop-color="#7496DD"/>
<stop offset="0.73" stop-color="#5A83D6"/>
<stop offset="0.88" stop-color="#4A77D2"/>
<stop offset="1" stop-color="#4573D1"/>
</linearGradient>
<linearGradient id="paint73_linear" x1="2155.69" y1="1855.09" x2="2185.77" y2="2161.81" gradientUnits="userSpaceOnUse">
<stop stop-color="white"/>
<stop offset="0.2" stop-color="#C7D5F1"/>
<stop offset="0.39" stop-color="#98B2E6"/>
<stop offset="0.56" stop-color="#7496DD"/>
<stop offset="0.73" stop-color="#5A83D6"/>
<stop offset="0.88" stop-color="#4A77D2"/>
<stop offset="1" stop-color="#4573D1"/>
</linearGradient>
</defs>
</svg>
