<svg width="156" height="210" viewBox="0 0 156 210" fill="none" xmlns="http://www.w3.org/2000/svg">
<path d="M69.9004 152.051L69.6832 152.168L69.9004 152.051Z" fill="#085956"/>
<path d="M68.2464 152.953C68.2578 153.118 68.2322 153.283 68.1715 153.436C68.1108 153.589 68.0165 153.727 67.8956 153.839C67.7299 153.965 67.5274 154.033 67.3193 154.033C67.1111 154.033 66.9087 153.965 66.7429 153.839C66.3113 153.552 65.9523 153.169 65.6943 152.719C65.4362 152.27 65.2862 151.767 65.2562 151.249C65.2462 151.042 65.2863 150.836 65.3731 150.648C65.4137 150.55 65.475 150.462 65.5529 150.39C65.6307 150.318 65.7233 150.263 65.8241 150.23C65.9805 150.193 66.143 150.188 66.3012 150.217C66.4594 150.245 66.6099 150.307 66.7429 150.397C66.9022 150.489 67.0483 150.601 67.1772 150.732C67.6699 151.176 68.0188 151.758 68.1795 152.402C68.195 152.546 68.195 152.692 68.1795 152.836C68.2095 152.87 68.2323 152.91 68.2464 152.953Z" fill="#99AFF0"/>
<path d="M68.3641 152.236C68.3689 152.445 68.3231 152.651 68.2305 152.838C68.2459 152.693 68.2459 152.548 68.2305 152.403C68.0697 151.759 67.7208 151.178 67.2282 150.733C67.0992 150.602 66.9531 150.49 66.7939 150.399C66.6608 150.308 66.5104 150.247 66.3521 150.218C66.1939 150.189 66.0314 150.194 65.8751 150.232C65.7742 150.265 65.6817 150.319 65.6038 150.391C65.5259 150.463 65.4646 150.551 65.424 150.649V150.532C65.3923 150.324 65.4309 150.11 65.5337 149.926C65.6365 149.741 65.7977 149.596 65.992 149.513C66.1407 149.472 66.2964 149.463 66.4489 149.486C66.6014 149.509 66.7473 149.564 66.8774 149.647C67.0472 149.752 67.2092 149.869 67.3618 149.998C67.8353 150.455 68.1759 151.033 68.3474 151.668C68.3703 151.857 68.3759 152.047 68.3641 152.236Z" fill="#99AFF0"/>
<path d="M70.236 151.149C70.2409 151.363 70.195 151.575 70.1023 151.767C70.0553 151.875 69.9871 151.971 69.9019 152.051L69.6847 152.168L68.2481 153.004C68.2581 152.948 68.2581 152.892 68.2481 152.837C68.3407 152.65 68.3865 152.443 68.3817 152.235C68.398 152.052 68.398 151.867 68.3817 151.684C68.2102 151.048 67.8696 150.471 67.3961 150.013C67.2568 149.893 67.1057 149.786 66.9451 149.696C66.814 149.602 66.6635 149.538 66.5046 149.509C66.3457 149.48 66.1822 149.487 66.0263 149.529L67.6968 148.594C67.8651 148.466 68.0704 148.397 68.2815 148.397C68.4925 148.397 68.6979 148.466 68.8662 148.594C69.2718 148.889 69.6057 149.273 69.8428 149.715C70.08 150.158 70.2143 150.648 70.236 151.149Z" fill="#99AFF0"/>
<path d="M70.1174 151.865C70.129 152.031 70.1035 152.199 70.0429 152.355C69.9822 152.511 69.8879 152.651 69.7666 152.767L69.5662 152.884L67.8957 153.836C68.0127 153.731 68.1048 153.602 68.1655 153.458C68.2262 153.313 68.2539 153.157 68.2465 153L69.6831 152.165L69.9002 152.048C69.9855 151.968 70.0537 151.871 70.1007 151.764C70.1007 151.764 70.1174 151.831 70.1174 151.865Z" fill="#99AFF0"/>
<path d="M34.1523 131.405C34.0863 131.459 34.0132 131.504 33.9352 131.539L34.1523 131.405Z" fill="#085956"/>
<path d="M32.4992 132.302C32.5106 132.468 32.4868 132.634 32.4292 132.789C32.3716 132.945 32.2815 133.086 32.165 133.204C31.9946 133.327 31.7901 133.393 31.5804 133.393C31.3706 133.393 31.1661 133.327 30.9957 133.204C30.564 132.918 30.205 132.534 29.947 132.085C29.6889 131.636 29.539 131.132 29.509 130.615C29.4995 130.403 29.5395 130.191 29.6259 129.997C29.6675 129.901 29.7294 129.816 29.8072 129.747C29.8851 129.678 29.9772 129.626 30.0769 129.596C30.2315 129.55 30.3944 129.54 30.5535 129.566C30.7126 129.592 30.8638 129.654 30.9957 129.746C31.1538 129.847 31.3046 129.959 31.4467 130.081C31.9236 130.535 32.2648 131.114 32.4323 131.751C32.4404 131.896 32.4404 132.041 32.4323 132.185L32.4992 132.302Z" fill="#99AFF0"/>
<path d="M32.6162 131.587C32.6167 131.798 32.5771 132.008 32.4993 132.205C32.5073 132.06 32.5073 131.915 32.4993 131.771C32.3318 131.133 31.9906 130.555 31.5137 130.1C31.3716 129.978 31.2208 129.866 31.0626 129.766C30.9296 129.676 30.7792 129.614 30.621 129.585C30.4627 129.556 30.3002 129.561 30.1439 129.599C30.0445 129.635 29.9533 129.69 29.8758 129.762C29.7983 129.834 29.7361 129.92 29.6928 130.017V129.916C29.6629 129.705 29.7021 129.491 29.8045 129.304C29.9069 129.117 30.067 128.969 30.2608 128.881C30.4108 128.843 30.5669 128.837 30.7192 128.863C30.8716 128.889 31.017 128.946 31.1462 129.031C31.3234 129.124 31.4865 129.243 31.6306 129.382C32.1075 129.837 32.4487 130.415 32.6162 131.052C32.6397 131.23 32.6397 131.409 32.6162 131.587Z" fill="#99AFF0"/>
<path d="M34.487 130.52C34.4918 130.728 34.4459 130.935 34.3533 131.121C34.3107 131.231 34.2419 131.328 34.1528 131.405L33.9357 131.539L32.4991 132.357V132.207C32.5768 132.01 32.6165 131.8 32.616 131.589C32.6394 131.412 32.6394 131.232 32.616 131.054C32.4485 130.417 32.1073 129.839 31.6304 129.384C31.4956 129.253 31.344 129.141 31.1794 129.05C31.0464 128.959 30.8959 128.898 30.7376 128.869C30.5794 128.84 30.417 128.845 30.2606 128.883L31.9311 127.947C32.0994 127.82 32.3047 127.751 32.5157 127.751C32.7268 127.751 32.9321 127.82 33.1004 127.947C33.5113 128.243 33.8497 128.628 34.0899 129.074C34.3301 129.52 34.4659 130.014 34.487 130.52Z" fill="#99AFF0"/>
<path d="M34.3699 131.235C34.3825 131.4 34.3575 131.565 34.2967 131.718C34.2359 131.872 34.141 132.009 34.0191 132.12L33.8186 132.254L32.1481 133.206C32.2606 133.096 32.3486 132.963 32.4062 132.816C32.4638 132.669 32.4897 132.512 32.4822 132.354L33.9188 131.536L34.136 131.402C34.225 131.325 34.2938 131.228 34.3364 131.118C34.3546 131.155 34.366 131.194 34.3699 131.235Z" fill="#99AFF0"/>
<path d="M34.1523 152.051L33.9352 152.168L34.1523 152.051Z" fill="#085956"/>
<path d="M32.4997 152.953C32.5099 153.116 32.4853 153.279 32.4277 153.432C32.3701 153.584 32.2808 153.723 32.1656 153.839C31.9973 153.966 31.792 154.035 31.5809 154.035C31.3699 154.035 31.1646 153.966 30.9962 153.839C30.5646 153.552 30.2056 153.169 29.9476 152.719C29.6895 152.27 29.5396 151.767 29.5095 151.249C29.4995 151.042 29.5396 150.836 29.6265 150.648C29.6671 150.55 29.7284 150.462 29.8062 150.39C29.8841 150.318 29.9766 150.263 30.0775 150.23C30.2338 150.193 30.3963 150.188 30.5546 150.217C30.7128 150.245 30.8632 150.307 30.9962 150.397C31.1582 150.492 31.3094 150.604 31.4473 150.732C31.9263 151.185 32.2679 151.764 32.4329 152.402C32.4329 152.552 32.4329 152.703 32.4329 152.836L32.4997 152.953Z" fill="#99AFF0"/>
<path d="M32.6162 152.236C32.618 152.442 32.5782 152.647 32.4993 152.838C32.4993 152.704 32.4993 152.554 32.4993 152.403C32.3343 151.765 31.9927 151.186 31.5137 150.733C31.3758 150.606 31.2246 150.494 31.0626 150.399C30.9296 150.308 30.7792 150.247 30.621 150.218C30.4627 150.189 30.3002 150.194 30.1439 150.232C30.043 150.265 29.9505 150.319 29.8726 150.391C29.7948 150.463 29.7334 150.551 29.6928 150.649V150.532C29.6611 150.324 29.6997 150.11 29.8025 149.926C29.9053 149.741 30.0666 149.596 30.2608 149.513C30.4096 149.472 30.5652 149.463 30.7177 149.486C30.8702 149.509 31.0162 149.564 31.1462 149.647C31.3161 149.752 31.478 149.869 31.6306 149.998C32.1041 150.455 32.4447 151.033 32.6162 151.668C32.6423 151.857 32.6423 152.048 32.6162 152.236Z" fill="#99AFF0"/>
<path d="M34.4869 151.149C34.4918 151.363 34.446 151.575 34.3533 151.767C34.3063 151.875 34.2381 151.971 34.1528 152.051L33.9357 152.168L32.4991 153.004V152.837C32.578 152.646 32.6177 152.441 32.616 152.235C32.6405 152.052 32.6405 151.867 32.616 151.684C32.4445 151.048 32.1039 150.471 31.6304 150.013C31.491 149.893 31.3399 149.786 31.1794 149.696C31.0483 149.602 30.8978 149.538 30.7389 149.509C30.5799 149.48 30.4165 149.487 30.2606 149.529L31.9311 148.594C32.0994 148.466 32.3047 148.397 32.5157 148.397C32.7268 148.397 32.9321 148.466 33.1004 148.594C33.5092 148.888 33.8462 149.27 34.0863 149.713C34.3264 150.155 34.4634 150.646 34.4869 151.149Z" fill="#99AFF0"/>
<path d="M34.3703 151.865C34.3819 152.031 34.3564 152.199 34.2958 152.355C34.2352 152.511 34.1408 152.651 34.0195 152.767L33.819 152.884L32.1486 153.836C32.2598 153.728 32.3471 153.598 32.4047 153.454C32.4622 153.31 32.4888 153.155 32.4827 153L33.9193 152.165L34.1364 152.048C34.2217 151.968 34.2899 151.871 34.3369 151.764C34.3561 151.794 34.3676 151.829 34.3703 151.865Z" fill="#99AFF0"/>
<path d="M69.9004 131.405L69.6832 131.539L69.9004 131.405Z" fill="#085956"/>
<path d="M68.2471 132.302C68.2611 132.469 68.2368 132.638 68.176 132.794C68.1152 132.95 68.0196 133.091 67.8963 133.204C67.7295 133.328 67.5275 133.394 67.32 133.394C67.1125 133.394 66.9105 133.328 66.7437 133.204C66.3121 132.918 65.953 132.534 65.695 132.085C65.437 131.636 65.287 131.132 65.2569 130.615C65.2474 130.403 65.2875 130.191 65.3739 129.997C65.4155 129.901 65.4774 129.816 65.5553 129.747C65.6332 129.678 65.7251 129.626 65.8249 129.596C65.9795 129.55 66.1424 129.54 66.3015 129.566C66.4606 129.592 66.6118 129.654 66.7437 129.746C66.8993 129.843 67.0447 129.955 67.178 130.081C67.6653 130.53 68.0132 131.11 68.1803 131.751C68.1967 131.895 68.1967 132.041 68.1803 132.185C68.2144 132.216 68.2378 132.257 68.2471 132.302Z" fill="#99AFF0"/>
<path d="M68.3635 131.587C68.3684 131.8 68.3226 132.012 68.2299 132.205C68.2463 132.061 68.2463 131.915 68.2299 131.771C68.0628 131.129 67.7149 130.549 67.2276 130.1C67.0943 129.974 66.9489 129.863 66.7933 129.766C66.6603 129.676 66.5098 129.614 66.3515 129.585C66.1933 129.556 66.0308 129.561 65.8745 129.599C65.7751 129.635 65.6839 129.69 65.6064 129.762C65.5289 129.834 65.4667 129.92 65.4235 130.017V129.916C65.3935 129.705 65.4327 129.491 65.5351 129.304C65.6375 129.117 65.7976 128.969 65.9914 128.881C66.1414 128.843 66.2974 128.837 66.4498 128.863C66.6022 128.889 66.7476 128.946 66.8768 129.031C67.054 129.124 67.2171 129.243 67.3612 129.382C67.8381 129.837 68.1793 130.415 68.3468 131.052C68.3677 131.23 68.3733 131.408 68.3635 131.587Z" fill="#99AFF0"/>
<path d="M70.236 130.52C70.2408 130.728 70.1949 130.935 70.1023 131.121C70.0598 131.231 69.9909 131.328 69.9019 131.405L69.6847 131.539L68.2481 132.357C68.2595 132.308 68.2595 132.256 68.2481 132.207C68.3408 132.014 68.3866 131.803 68.3817 131.589C68.397 131.411 68.397 131.232 68.3817 131.054C68.2142 130.417 67.873 129.839 67.3961 129.384C67.2614 129.253 67.1097 129.141 66.9451 129.05C66.8121 128.959 66.6616 128.898 66.5034 128.869C66.3452 128.84 66.1826 128.845 66.0263 128.883L67.6968 127.947C67.8651 127.82 68.0704 127.751 68.2815 127.751C68.4926 127.751 68.6979 127.82 68.8662 127.947C69.274 128.245 69.6092 128.631 69.8464 129.076C70.0836 129.522 70.2168 130.015 70.236 130.52Z" fill="#99AFF0"/>
<path d="M70.1189 131.235C70.1315 131.4 70.1065 131.565 70.0457 131.718C69.9849 131.872 69.89 132.009 69.7681 132.12L69.5676 132.254L67.8972 133.206C68.0154 133.099 68.1083 132.967 68.169 132.82C68.2297 132.672 68.2567 132.513 68.2479 132.354L69.6845 131.536L69.9017 131.402C69.9908 131.325 70.0596 131.228 70.1022 131.118C70.1022 131.118 70.1189 131.202 70.1189 131.235Z" fill="#99AFF0"/>
<path d="M69.1321 127.274C68.9651 127.274 68.3971 126.757 68.1799 126.706C62.6506 125.554 56.2359 127.074 49.8046 130.766C42.5688 135.179 36.3149 141.029 31.4292 147.955C30.9782 148.573 30.8445 149.291 31.1118 149.626C31.3791 149.96 31.9471 150.043 32.0807 150.177C32.2144 150.31 32.9326 150.177 33.3502 149.626C37.9977 143.063 43.9383 137.52 50.8069 133.338C56.8874 129.847 62.968 128.41 68.2134 129.496C68.631 129.596 69.199 129.196 69.4662 128.611C69.7335 128.026 69.5831 127.358 69.1321 127.274Z" fill="#99AFF0"/>
<path d="M69.1331 148.506C64.2379 141.602 57.9852 135.77 50.7577 131.367C44.3096 127.642 37.8782 126.105 32.3823 127.274C32.1652 127.274 31.5972 127.792 31.4302 127.825C30.9791 127.825 30.8455 128.493 31.1128 129.095C31.205 129.359 31.3762 129.589 31.6032 129.754C31.8302 129.918 32.1022 130.009 32.3823 130.014C37.6611 128.911 43.7584 130.364 49.8556 133.889C56.6661 138.072 62.5497 143.604 67.1452 150.143C67.5795 150.711 68.1308 150.962 68.4148 150.694C68.6988 150.427 69.1832 150.327 69.3669 150.143C69.5507 149.959 69.5841 149.124 69.1331 148.506Z" fill="#99AFF0"/>
<path d="M50.4398 132.523C50.1621 132.671 49.8523 132.748 49.5377 132.748C49.2232 132.748 48.9134 132.671 48.6357 132.523C48.2682 132.323 48.168 132.005 48.3517 131.738V110.022L50.7572 111.408V131.805C50.9744 132.055 50.8574 132.339 50.4398 132.523Z" fill="#99AFF0"/>
<path d="M57.1212 84.7098C58.5973 84.3567 60.143 84.4261 61.5814 84.9103L75.3796 92.8785C75.9918 93.2722 76.4759 93.8358 76.7726 94.5005C77.0693 95.1651 77.1658 95.9018 77.0501 96.6204L73.7091 106.543C73.7091 106.543 71.0531 108.447 71.3705 107.796C71.7891 106.507 72.1129 105.19 72.3393 103.854C72.9024 101.647 73.5827 99.4726 74.3773 97.3387C74.4621 96.8027 74.3943 96.2536 74.1816 95.7543C73.9689 95.255 73.6199 94.8257 73.1746 94.5156C69.2656 92.1602 59.8107 86.6309 58.9086 86.5474C57.6725 86.4137 54.5988 86.1965 54.5988 86.1965C54.5988 86.1965 56.3695 85.1441 57.1212 84.7098Z" fill="#A2BFEF"/>
<path d="M54.8321 86.0476C56.3082 85.6944 57.8539 85.7639 59.2923 86.248L73.0906 94.2163C73.7028 94.6099 74.1869 95.1736 74.4836 95.8382C74.7803 96.5028 74.8767 97.2396 74.7611 97.9582L71.4201 107.881C71.4201 107.881 69.5157 107.447 69.8331 106.795C70.1505 106.144 70.9523 106.544 71.1528 105.492C71.3031 104.707 73.0906 99.9126 74.0428 97.3568C74.1331 96.848 74.0702 96.3239 73.862 95.8509C73.6538 95.378 73.3097 94.9776 72.8734 94.7007C68.9645 92.3453 59.9271 86.9329 58.9583 86.8327C57.6593 86.7931 56.3592 86.8377 55.066 86.9664C55.066 86.9664 54.0637 86.4819 54.8321 86.0476Z" fill="#99AFF0"/>
<path d="M81.8445 116.771L54.9831 132.073L49.9716 126.711L31.0617 114.733L27.7207 109.722L28.6896 99.4818L25.098 80.288L52.1265 64.7357L52.4941 65.3538C53.2458 68.2437 56.854 82.3259 56.7204 84.531C56.5867 86.736 53.6634 91.38 56.5199 96.2244C59.3765 101.069 72.2559 106.966 74.3607 108.185C76.4675 109.648 78.3814 111.371 80.0571 113.313C80.9522 114.151 81.6191 115.203 81.9949 116.37C82.0035 116.444 81.9944 116.519 81.9683 116.589C81.9421 116.659 81.8996 116.721 81.8445 116.771Z" fill="#879ADE"/>
<path d="M25.3831 80.4507C25.3831 80.4507 29.8934 97.6735 29.7431 100.129C29.5928 102.585 26.6861 106.978 29.5426 111.906C32.3992 116.834 45.2787 122.647 47.3835 123.867C49.4883 125.086 55.0176 130.465 55.0176 132.069C55.0176 133.672 52.2446 128.728 50.0061 127.508C47.7677 126.289 32.4493 119.523 28.2898 112.374C24.1303 105.224 27.4713 103.587 27.4713 99.1936C27.4713 94.8002 24.6982 84.1592 24.598 82.3718C24.4978 80.5844 25.1159 80.0498 25.3831 80.4507Z" fill="#7389D9"/>
<path d="M61.0984 147.671H61.3657C61.6589 147.637 61.9426 147.547 62.2006 147.403C62.4586 147.26 62.6857 147.067 62.8689 146.836C63.0521 146.605 63.1877 146.339 63.2681 146.055C63.3484 145.771 63.3717 145.474 63.3368 145.181L58.9434 106.242C58.9166 105.945 58.8302 105.657 58.6895 105.394C58.5488 105.131 58.3566 104.899 58.1243 104.712C57.892 104.525 57.6245 104.387 57.3376 104.305C57.0507 104.224 56.7503 104.201 56.4544 104.238C55.8611 104.305 55.3185 104.605 54.9458 105.071C54.5732 105.538 54.4008 106.133 54.4665 106.727L58.7931 145.699C58.8598 146.257 59.1339 146.77 59.561 147.135C59.9881 147.5 60.5369 147.691 61.0984 147.671Z" fill="#99AFF0"/>
<path d="M41.1693 142.658C41.7394 142.655 42.2872 142.437 42.7025 142.046C43.1178 141.656 43.3698 141.122 43.4078 140.554L45.9803 103.352C46 103.058 45.9617 102.763 45.8675 102.484C45.7732 102.205 45.6249 101.947 45.431 101.725C45.2371 101.503 45.0014 101.322 44.7374 101.191C44.4734 101.06 44.1862 100.983 43.8922 100.963C43.5982 100.943 43.3033 100.982 43.0242 101.076C42.745 101.17 42.4872 101.318 42.2653 101.512C42.0435 101.706 41.8621 101.942 41.7313 102.206C41.6006 102.47 41.5232 102.757 41.5034 103.051L38.9308 140.253C38.9081 140.547 38.9445 140.844 39.0376 141.124C39.1307 141.404 39.2789 141.663 39.4733 141.886C39.6678 142.108 39.9046 142.29 40.17 142.419C40.4354 142.549 40.724 142.625 41.019 142.642L41.1693 142.658Z" fill="#99AFF0"/>
<path d="M46.3133 153.405C50.436 153.488 54.5101 152.504 58.1404 150.549C61.7152 148.477 63.7031 145.537 63.7031 142.43C63.7031 139.323 61.7152 136.366 58.1404 134.295C54.4807 132.417 50.4266 131.438 46.3133 131.438C42.2001 131.438 38.146 132.417 34.4863 134.295C30.9115 136.366 28.9403 139.306 28.9403 142.43C28.9403 145.554 30.9115 148.477 34.4863 150.549C38.1174 152.502 42.1909 153.486 46.3133 153.405ZM46.3133 135.948C49.6432 135.88 52.9361 136.656 55.8853 138.204C56.7581 138.562 57.524 139.139 58.1091 139.879C58.6943 140.62 59.079 141.498 59.2262 142.43C59.2262 143.9 58.0235 145.437 55.8853 146.656C52.9123 148.139 49.6355 148.911 46.3133 148.911C42.9912 148.911 39.7144 148.139 36.7414 146.656C34.6366 145.437 33.4005 143.9 33.4005 142.43C33.5477 141.498 33.9325 140.62 34.5176 139.879C35.1028 139.139 35.8686 138.562 36.7414 138.204C39.6944 136.67 42.9866 135.905 46.3133 135.982V135.948Z" fill="#99AFF0"/>
<path d="M49.4711 161.468C50.0414 161.47 50.591 161.255 51.0095 160.868C51.4279 160.48 51.684 159.949 51.7262 159.38L54.7665 116.933C54.7843 116.352 54.5772 115.787 54.1884 115.355C53.7996 114.923 53.2591 114.658 52.6796 114.615C52.1002 114.572 51.5265 114.754 51.0781 115.124C50.6297 115.493 50.3413 116.022 50.2729 116.599L47.2326 159.063C47.1913 159.658 47.3879 160.246 47.7794 160.697C48.1708 161.148 48.7251 161.425 49.3207 161.468H49.4711Z" fill="#99AFF0"/>
<path d="M61.1647 70.9307C65.792 73.8875 74.6455 81.1374 74.6455 81.1374C73.88 80.9062 73.0582 80.9462 72.3187 81.2505C71.5792 81.5548 70.9673 82.1049 70.5862 82.8079C70.2107 83.3998 69.9962 84.0795 69.9639 84.7797C69.9317 85.48 70.0829 86.1765 70.4025 86.8004C70.4025 86.8004 58.7091 79.6005 57.356 77.0113C56.0029 74.422 56.5208 67.9573 61.1647 70.9307Z" fill="#085956"/>
<path d="M50.4399 57.2471C50.4399 57.2471 50.0056 57.4809 48.9866 57.0967C48.1066 56.8771 47.1817 56.9181 46.3245 57.2147C45.4674 57.5112 44.715 58.0507 44.1589 58.7672C43.5062 60.0493 43.3159 61.5173 43.6203 62.9234C43.9246 64.3295 44.7049 65.5874 45.8294 66.4848C48.5356 68.8903 50.6738 57.0633 50.6738 57.0633L50.4399 57.2471Z" fill="#120A30"/>
<path d="M49.9882 71.1281C48.4538 72.5582 46.7068 73.7416 44.8096 74.6361C41.4687 76.2231 40.884 76.2231 41.4687 82.6545C42.0533 89.0858 39.6979 91.8254 39.6979 96.2522C38.9343 98.4038 37.8955 100.448 36.6075 102.333C35.4382 104.254 37.543 108.714 37.543 108.714C37.543 108.714 33.3668 113.291 41.0343 111.454C48.7019 109.616 61.6482 106.442 57.6557 99.4261C56.5532 97.5051 57.3383 94.0138 57.8394 91.341C58.3406 88.6682 63.1182 71.2116 60.5122 69.7082C57.9062 68.2047 55.9351 70.5434 54.0474 71.1281C52.7149 71.4619 51.3207 71.4619 49.9882 71.1281Z" fill="white"/>
<path d="M42.7063 85.33C42.7063 89.4227 45.9638 92.1289 48.2691 92.1289C49.3767 92.1289 50.4389 91.6889 51.2221 90.9057C52.0053 90.1225 52.4453 89.0603 52.4453 87.9527C52.4453 86.8451 52.0053 85.7828 51.2221 84.9996C50.4389 84.2164 49.3767 83.7764 48.2691 83.7764C45.9638 83.7764 42.7063 83.0247 42.7063 85.33Z" fill="#879ADE"/>
<path d="M46.6309 105.528C47.6331 102.321 57.4055 100.266 57.4055 100.266C57.4055 100.266 54.883 102.972 63.5696 107.199C72.774 111.659 77.9024 119.109 76.282 120.746C74.6616 122.384 73.6928 130.084 73.6928 133.559C73.6928 137.034 74.1104 140.241 75.4468 141.912C76.7832 143.582 78.9047 146.038 79.3724 146.505C79.8402 146.973 79.8569 150.013 78.9548 150.548C78.0527 151.082 74.2774 148.877 73.1081 147.725C71.9388 146.572 70.168 143.131 69.1657 143.131C68.1634 143.131 69.3495 140.492 69.3495 137.986C69.3495 135.48 66.7602 128.865 67.4786 125.691C68.1969 122.517 69.149 122.35 69.433 118.291C69.717 114.232 49.3871 112.645 49.3871 112.645L46.6309 105.528Z" fill="#A2BFEF"/>
<path d="M63.9197 145.12C64.8013 147.004 65.9551 148.749 67.3442 150.298C69.3153 152.253 70.2675 154.257 69.4156 154.742C67.6615 155.761 68.7307 155.343 66.4755 155.343C64.2204 155.343 61.9986 152.837 61.3304 151.501C60.7022 150.537 59.9369 149.671 59.0586 148.928C58.6922 148.59 58.4334 148.152 58.3146 147.667C58.1957 147.183 58.2221 146.675 58.3904 146.205C58.7613 145.254 58.9811 144.251 59.0418 143.232C59.2515 140.939 58.9725 138.627 58.2233 136.45C57.054 133.209 54.2476 132.608 57.2711 124.756C59.4428 119.16 35.5548 113.748 35.772 110.006C37.4425 88.7072 50.5558 99.3983 50.0546 107.751C50.0546 107.751 68.2629 118.058 66.3419 122.15C65.0028 124.74 64.2446 127.59 64.1201 130.503C63.9531 132.858 63.9197 145.12 63.9197 145.12Z" fill="#A2BFEF"/>
<path d="M58.2073 146.87C58.0438 147.55 57.9431 148.243 57.9067 148.942C57.9295 149.53 58.0958 150.103 58.3911 150.612L59.6607 151.347L60.0282 151.13C60.0282 151.13 63.2689 155.406 64.8893 156.041C66.5097 156.676 69.2159 157.344 70.8697 156.392C72.5234 155.44 70.285 153.535 69.9175 153.318C68.1809 153.129 66.4357 153.028 64.6888 153.018L58.2073 146.87Z" fill="#085956"/>
<path d="M68.2467 141.108C68.0921 141.789 67.9971 142.482 67.9627 143.18C67.9805 143.766 68.141 144.34 68.4305 144.85L69.7168 145.585L70.0676 145.368C71.2784 147.095 72.7042 148.662 74.3106 150.029C75.7639 150.864 78.704 151.699 80.3578 150.747C82.0116 149.795 79.9569 147.556 79.5894 147.406C77.9729 147.267 76.3491 147.234 74.7282 147.306L68.2467 141.108Z" fill="#085956"/>
<path d="M67.9794 151.016C67.9794 151.016 68.7812 151.818 67.094 152.419C63.753 153.589 60.1949 147.742 59.393 146.222C59.1283 145.772 58.91 145.296 58.7416 144.802C58.3949 145.277 58.1519 145.821 58.0282 146.396C57.9044 146.972 57.9028 147.567 58.0233 148.143C58.4743 149.98 59.6937 150.097 60.9633 151.901C61.8336 153.418 63.1357 154.64 64.7035 155.414C66.2713 156.187 68.034 156.477 69.7668 156.245C72.2057 155.927 70.2679 153.522 69.6833 152.904C69.0986 152.286 67.9794 151.016 67.9794 151.016Z" fill="#A2BFEF"/>
<path d="M77.6027 144.583C77.6027 144.583 79.056 146.437 77.302 146.805C75.548 147.172 71.1546 143.464 70.3528 141.793C69.7848 140.724 69.2503 139.438 69.2503 139.438C68.7926 139.887 68.4445 140.436 68.233 141.041C68.0215 141.647 67.9523 142.293 68.0308 142.929C68.4985 144.767 69.7013 143.998 70.9875 145.802C72.5411 147.991 74.6459 151.148 79.34 150.53C81.7956 150.196 81.094 148.676 79.1562 146.287C78.6718 145.719 77.6027 144.583 77.6027 144.583Z" fill="#A2BFEF"/>
<path d="M57.84 94.9872C58.4079 96.6577 56.654 98.963 53.2796 100.917C48.7693 103.523 37.3264 101.168 37.9946 99.698C37.9946 99.698 34.2694 102.939 34.6536 105.979C36.6749 120.729 54.1148 119.109 54.5157 121.247C54.5157 121.247 57.1718 130.635 66.2091 127.762C75.2465 124.889 76.6998 119.51 77.6686 117.489C81.1433 110.306 63.0185 100.4 60.2121 96.5574C58.5917 94.3023 57.84 94.9872 57.84 94.9872Z" fill="#2A3463"/>
<path d="M56.888 93.3979C57.5729 96.7389 56.2532 98.7602 57.2054 102.084C58.6086 101.667 58.6086 102.084 59.5608 101.283C60.5129 100.481 65.5411 98.7769 63.6201 96.2711C61.1812 92.9302 57.172 90.2574 58.1743 89.3887C59.1766 88.5201 63.8205 86.2649 61.5153 81.8214C59.4271 77.9292 63.5867 70.5957 60.5798 69.7772C57.5729 68.9587 55.7521 72.7841 55.7521 72.7841C56.8613 73.7125 57.7458 74.8803 58.3389 76.1996C58.9321 77.519 59.2185 78.9556 59.1766 80.4015C58.926 82.3894 56.3033 90.5246 56.888 93.3979Z" fill="#085956"/>
<path d="M38.4127 97.205C36.4265 99.494 35.1598 102.318 34.7711 105.324C36.4622 106.266 38.271 106.979 40.15 107.445C44.2093 108.163 54.416 104.104 54.416 104.104C54.416 104.104 51.8935 103.653 51.4592 102.317C51.0518 101.144 50.9109 99.8955 51.0467 98.6617C51.1826 97.4278 51.5917 96.2397 52.2444 95.1838C52.2444 95.1838 56.0698 85.8792 50.7075 77.8775C49.4459 76.1576 48.496 74.2295 47.9011 72.1812L41.4697 76.1569C41.4697 76.1569 40.5342 82.1206 42.1713 86.0128C43.8084 89.905 40.4173 95.1503 38.4127 97.205Z" fill="#085956"/>
<path d="M60.6976 76.4796L58.4591 75.8448L60.2299 74.9427L56.1539 69.5972L53.3976 71.2677C53.3976 71.2677 59.2276 75.1265 58.6262 79.5366C56.9557 91.6643 56.8054 92.6332 56.8054 92.6332C58.2961 89.5132 59.596 86.3055 60.6976 83.0279C60.8833 80.8491 60.8833 78.6584 60.6976 76.4796Z" fill="#24B289"/>
<path d="M59.4434 71.7314C58.5374 72.9096 57.8112 74.2157 57.2884 75.6069C57.2884 76.509 58.1237 76.6927 57.706 77.9456C57.2884 79.1985 52.9117 78.2296 50.9239 75.5234C48.936 72.8172 49.5373 72.4664 49.5373 72.4664C50.3683 71.2795 50.8803 69.899 51.0241 68.4573C51.0241 66.5362 59.4434 71.7314 59.4434 71.7314Z" fill="#F4B082"/>
<path d="M46.4315 61.9449C46.4282 60.2576 47.0016 58.6198 48.0567 57.303C49.1118 55.9862 50.5853 55.0696 52.2327 54.705C53.8802 54.3404 55.6028 54.5498 57.115 55.2984C58.6272 56.047 59.8381 57.2899 60.5471 58.8211C61.213 59.968 61.6711 61.2234 61.9002 62.5296C61.9002 63.7992 61.349 63.1978 61.633 64.4173C61.9169 65.6367 62.7355 66.188 61.633 68.2928C60.5304 70.3976 60.2799 72.185 60.0627 72.4022C59.8455 72.6194 60.2966 73.3878 56.7217 72.7363C54.0232 72.2718 51.5168 71.036 49.5052 69.1782C48.8749 68.4026 48.3781 67.5276 48.0352 66.5889C46.9885 65.2681 46.423 63.6302 46.4315 61.9449Z" fill="#FFC69C"/>
<path d="M51.709 96.1746C52.1709 93.225 52.3387 90.2369 52.2101 87.2542C51.2707 84.7779 50.0902 82.3999 48.6854 80.1546L50.1721 78.2169L47.7833 79.5699C47.7833 79.5699 45.6952 75.093 46.4303 73.3557C47.1653 71.6184 50.6065 70.4324 50.6065 70.4324C50.6065 70.4324 49.4204 73.7733 50.2891 75.3102C57.1214 87.889 51.709 96.1746 51.709 96.1746Z" fill="#24B289"/>
<path d="M56.8206 60.8103C54.2981 62.2636 54.5153 61.5787 53.4796 63.0821C52.4439 64.5856 53.0118 68.3108 53.0118 68.3108C53.0118 68.3108 51.7089 64.2515 50.0384 65.2538C48.3679 66.2561 50.5395 70.4657 50.5395 70.4657C50.5395 70.4657 45.2107 66.9577 45.8956 62.1132C46.5805 57.2688 47.566 56.4336 49.3869 55.4313C51.2077 54.429 56.0688 52.7919 59.059 55.7153C62.5169 59.1732 61.3142 61.0776 61.3142 61.0776C60.6733 60.5987 59.906 60.3181 59.1074 60.2706C58.3087 60.2231 57.5137 60.4107 56.8206 60.8103Z" fill="#120A30"/>
<path d="M50.7244 64.5973C50.7244 64.5973 50.1063 63.3277 49.555 63.712C49.2323 63.9473 48.9858 64.2722 48.8463 64.6464C48.7067 65.0206 48.6801 65.4276 48.7699 65.8168C48.9704 66.8191 49.5049 68.0719 50.1898 68.0552C50.8747 68.0385 51.0919 68.0552 51.4594 67.5875C51.5657 67.4173 51.6329 67.2256 51.656 67.0262C51.6791 66.8269 51.6576 66.6248 51.593 66.4348L50.7244 64.5973Z" fill="#F4B082"/>
<path d="M50.9906 64.6844C50.9906 64.6844 50.3892 63.4148 49.838 63.8157C49.5113 64.0579 49.2661 64.3938 49.1348 64.7787C49.0035 65.1636 48.9924 65.5793 49.1029 65.9706C49.3034 66.9729 49.8379 68.2091 50.5228 68.1924C51.2077 68.1757 51.4249 68.1924 51.7924 67.7246C51.8988 67.5544 51.9659 67.3627 51.989 67.1634C52.0121 66.964 51.9907 66.762 51.9261 66.572L50.9906 64.6844Z" fill="#FFC69C"/>
<path d="M50.4389 65.0004L50.1549 65.8691C50.1549 66.1364 50.0045 66.5707 50.1549 66.7712C50.2313 66.8972 50.3209 67.0148 50.4222 67.122C50.3862 66.6326 50.3862 66.1413 50.4222 65.6519C50.5587 65.3144 50.5587 64.937 50.4222 64.5995C50.2551 64.3155 50.1048 63.9313 49.8375 64.2821C49.6684 64.4671 49.5429 64.6878 49.4706 64.9278C49.3983 65.1678 49.381 65.421 49.4199 65.6686C49.4307 66.2737 49.6356 66.8594 50.0045 67.3391C50.2014 67.5283 50.4344 67.676 50.6895 67.7734C50.4632 67.6787 50.2606 67.5353 50.0961 67.3534C49.9315 67.1715 49.809 66.9556 49.7373 66.721C49.5869 65.986 49.5034 64.8668 49.7373 64.6663C49.9711 64.4659 49.9878 64.4325 50.0045 64.6663C50.0213 64.9002 49.8876 65.3512 50.0045 65.2176C50.1215 65.084 50.205 64.6997 50.3219 64.8501C50.4389 65.0004 50.4389 65.0004 50.4389 65.0004Z" fill="#F4B082"/>
<path d="M50.6395 66.2045C50.6395 66.2045 50.7231 65.6199 50.84 65.6366C50.9569 65.6533 51.0071 65.6366 51.0739 65.8538C51.1407 66.0709 51.1741 66.121 51.3578 66.0709C51.5416 66.0208 51.6752 65.837 51.5249 66.0709C51.3746 66.3048 51.3077 66.0709 51.0404 66.238C50.7732 66.405 50.8734 66.689 50.6897 66.7057C50.5059 66.7224 50.6897 66.3215 50.6897 66.2045H50.6395Z" fill="#F4B082"/>
<path d="M27.922 101.584C29.398 101.231 30.9437 101.301 32.3822 101.785L46.1804 109.753C46.7926 110.147 47.2767 110.71 47.5734 111.375C47.8701 112.04 47.9666 112.776 47.8509 113.495L44.5099 123.418C44.5099 123.418 41.8538 125.305 42.1545 124.654C42.5894 123.374 42.919 122.061 43.1401 120.728C43.6983 118.521 44.3787 116.346 45.1781 114.213C45.2629 113.677 45.1951 113.128 44.9824 112.629C44.7697 112.13 44.4207 111.7 43.9754 111.39C40.0664 109.035 30.6115 103.506 29.7094 103.405C28.4732 103.288 25.3828 103.071 25.3828 103.071C25.3828 103.071 27.1535 102.019 27.922 101.584Z" fill="#A2BFEF"/>
<path d="M25.5991 102.906C27.0762 102.553 28.6234 102.628 30.0593 103.123L43.8742 111.092C44.4835 111.484 44.9657 112.045 45.2622 112.706C45.5588 113.368 45.6569 114.101 45.5447 114.817L42.2037 124.756C42.2037 124.756 40.2994 124.305 40.6168 123.654C40.9342 123.002 41.736 123.42 41.9365 122.351C42.0868 121.582 43.8742 116.771 44.8264 114.232C44.9168 113.723 44.8539 113.199 44.6456 112.726C44.4374 112.253 44.0933 111.853 43.6571 111.576C39.7481 109.221 30.7108 103.808 29.7419 103.708C28.4433 103.665 27.1433 103.704 25.8497 103.825C25.8497 103.825 24.8307 103.357 25.5991 102.906Z" fill="#99AFF0"/>
<path d="M65.8742 209.565L70.585 206.742V158.799L65.8742 161.622V209.565Z" fill="#7389D9"/>
<path d="M147.829 160.266L152.54 157.443V109.5L147.829 112.323V160.266Z" fill="#7389D9"/>
<path d="M147.829 160.268L119.932 144.816V96.873L147.829 112.325V160.268Z" fill="#879ADE"/>
<path d="M17.2648 180.216L65.876 209.567V161.624L17.2648 132.273V180.216Z" fill="#879ADE"/>
<path d="M65.9749 161.837L154.026 109.066V106.126L16.1777 127.341L16.2946 131.968L65.9749 161.837Z" fill="#99AFF0"/>
<path d="M67.0111 158.313L155.062 105.526L104.798 75.3068L15.4265 127.543L67.0111 158.313Z" fill="#99AFF0"/>
<path d="M65.8751 180.197L152.54 128.245V109.669L65.8751 161.621V180.197Z" fill="#7389D9"/>
<path d="M90.314 134.362L101.122 128.114L85.8705 119.294L75.0625 125.542L90.314 134.362Z" fill="white"/>
<path d="M77.9872 125.905L86.6904 120.877L85.9387 120.443L77.2187 125.471L77.9872 125.905Z" fill="#085956"/>
<path d="M86.3387 130.733L95.042 125.705L94.6076 125.454L85.9044 130.482L86.3387 130.733Z" fill="#085956"/>
<path d="M87.2743 131.268L95.9775 126.24L95.5432 125.989L86.84 131.017L87.2743 131.268Z" fill="#085956"/>
<path d="M88.2098 131.82L96.9131 126.791L96.4787 126.524L87.7755 131.552L88.2098 131.82Z" fill="#085956"/>
<path d="M89.1443 132.351L97.8643 127.323L97.4132 127.072L88.71 132.101L89.1443 132.351Z" fill="#085956"/>
<path d="M90.0808 132.886L98.8008 127.858L98.3664 127.607L89.6465 132.636L90.0808 132.886Z" fill="#085956"/>
<path d="M82.0292 128.246L90.7324 123.217L88.4439 121.898L79.7406 126.926L82.0292 128.246Z" fill="#085956"/>
<path d="M89.5958 127.276L93.6885 124.921L91.3999 123.601L87.3072 125.956L89.5958 127.276Z" fill="#085956"/>
<path d="M84.9855 129.949L89.0615 127.576L86.773 126.257L82.6802 128.629L84.9855 129.949Z" fill="#2A3463"/>
<path d="M99.4355 125.139L98.9511 116.369L79.8742 116.319L80.3419 125.105L99.4355 125.139Z" fill="white"/>
<path d="M92.9707 124.204L92.5865 117.121H92.0352L92.4195 124.204H92.9707Z" fill="#085956"/>
<path d="M94.1406 124.2L93.7564 117.134H93.2052L93.5893 124.2H94.1406Z" fill="#085956"/>
<path d="M95.3096 124.2L94.9254 117.134H94.3908L94.7751 124.2H95.3096Z" fill="#085956"/>
<path d="M96.4775 124.2L96.0933 117.134H95.5588L95.943 124.2H96.4775Z" fill="#085956"/>
<path d="M97.6641 124.2L97.2799 117.134H96.7286L97.1128 124.2H97.6641Z" fill="#085956"/>
<path d="M87.5742 124.185L87.19 117.118L84.3335 117.102L84.7176 124.185H87.5742Z" fill="#2A3463"/>
<path d="M91.2656 124.185L91.0818 120.877L88.2253 120.86L88.4091 124.185H91.2656Z" fill="#085956"/>
<path d="M63.5359 118.239L95.626 99.8635L82.947 92.5468L50.8737 110.922L63.5359 118.239Z" fill="#99AFF0"/>
<path d="M63.5359 119.707L95.626 101.332V99.8617L63.5359 118.237V119.707Z" fill="#FFA15C"/>
<path d="M63.5361 119.709L50.8739 112.392V110.922L63.5361 118.239V119.709Z" fill="#879ADE"/>
<path d="M63.5359 118.239L95.626 99.8635L82.947 92.5468L50.8737 110.922L63.5359 118.239Z" fill="#99AFF0"/>
<path d="M63.5359 119.707L95.626 101.332V99.8617L63.5359 118.237V119.707Z" fill="#879ADE"/>
<path d="M63.5361 119.709L50.8739 112.392V110.922L63.5361 118.239V119.709Z" fill="#879ADE"/>
<path d="M65.1738 115.033L62.5845 116.069L63.4699 116.587L65.1738 115.618V115.033Z" fill="#2A3463"/>
<path d="M67.2783 113.813L64.6891 114.865L65.5744 115.366L67.2783 114.398V113.813Z" fill="#2A3463"/>
<path d="M92.5186 99.2288L89.946 100.281L90.8313 100.799L92.5186 99.8134V99.2288Z" fill="#2A3463"/>
<path d="M63.9707 114.328L60.8135 115.047L62.2668 115.899L63.9707 114.913V114.328Z" fill="#2A3463"/>
<path d="M66.0762 113.128L62.919 113.829L64.3723 114.681L66.0762 113.696V113.128Z" fill="#2A3463"/>
<path d="M87.124 100.964L83.9501 101.683L85.4201 102.518L87.124 101.549V100.964Z" fill="#2A3463"/>
<path d="M83.5495 101.917L81.8623 102.903L83.3156 103.738L85.0195 102.769L83.5495 101.917Z" fill="#2A3463"/>
<path d="M81.443 103.137L79.7558 104.106L81.2092 104.958L82.9131 103.973L81.443 103.137Z" fill="#2A3463"/>
<path d="M79.3386 104.338L77.6514 105.324L79.1047 106.176L80.8086 105.19L79.3386 104.338Z" fill="#2A3463"/>
<path d="M77.2341 105.558L75.5301 106.544L77.0002 107.379L78.7041 106.41L77.2341 105.558Z" fill="#2A3463"/>
<path d="M75.1305 106.779L73.4433 107.747L74.8967 108.599L76.6006 107.631L75.1305 106.779Z" fill="#2A3463"/>
<path d="M73.0241 107.999L71.3369 108.968L72.7903 109.82L74.4941 108.834L73.0241 107.999Z" fill="#2A3463"/>
<path d="M70.9196 109.199L69.2324 110.185L70.6857 111.037L72.3896 110.051L70.9196 109.199Z" fill="#2A3463"/>
<path d="M68.8151 110.42L67.1279 111.405L68.5812 112.241L70.2852 111.272L68.8151 110.42Z" fill="#2A3463"/>
<path d="M68.1807 111.907L65.0235 112.609L66.4768 113.461L68.1807 112.492V111.907Z" fill="#2A3463"/>
<path d="M91.3339 99.1253L91.3506 98.5239L86.0552 100.462L87.5252 101.314L91.3339 99.1253Z" fill="#2A3463"/>
<path d="M63.2852 113.33V112.762L59.0922 114.065L60.5623 114.901L63.2852 113.33Z" fill="#2A3463"/>
<path d="M89.6132 98.1262L87.9427 99.1118L86.4894 98.2765L89.6299 97.5582L89.6132 98.1262Z" fill="#2A3463"/>
<path d="M62.0322 111.509L57.3883 113.08L58.8583 113.915L62.0322 112.077V111.509Z" fill="#2A3463"/>
<path d="M82.2119 100.433L80.508 101.419L79.038 100.567L82.2119 99.8486V100.433Z" fill="#2A3463"/>
<path d="M79.9229 101.735L78.2357 102.704L76.7657 101.852L79.8727 101.167L79.9229 101.735Z" fill="#2A3463"/>
<path d="M77.6523 103.017L75.9484 104.003L74.4951 103.151L77.6523 102.433V103.017Z" fill="#2A3463"/>
<path d="M75.3633 104.306L73.6761 105.291L72.206 104.439L75.3633 103.738V104.306Z" fill="#2A3463"/>
<path d="M73.0908 105.608L71.4036 106.593L69.9336 105.741L73.0908 105.023V105.608Z" fill="#2A3463"/>
<path d="M70.8203 106.896L69.1164 107.882L67.6463 107.03L70.8203 106.328V106.896Z" fill="#2A3463"/>
<path d="M68.5312 108.198L66.8441 109.184L65.3741 108.332L68.5312 107.614V108.198Z" fill="#2A3463"/>
<path d="M66.2588 109.487L64.5549 110.472L63.0849 109.62L66.2588 108.919V109.487Z" fill="#2A3463"/>
<path d="M63.9707 110.789L62.2835 111.758L60.8135 110.923L63.9707 110.204V110.789Z" fill="#2A3463"/>
<path d="M84.4678 99.1283L82.7806 100.114L81.3106 99.2619L84.4678 98.5436V99.1283Z" fill="#2A3463"/>
<path d="M87.9082 97.1408V96.5729L83.3645 98.0763L84.8345 98.9115L87.9082 97.1408Z" fill="#2A3463"/>
<path d="M60.9473 110.152L55.6685 112.073L57.1386 112.925L60.9473 110.737V110.152Z" fill="#2A3463"/>
<path d="M63.0518 108.801L59.8778 109.653L61.3479 110.505L63.0518 109.52V108.801Z" fill="#2A3463"/>
<path d="M81.9785 98.5931L80.2913 99.562L78.8213 98.71L81.9785 98.0084V98.5931Z" fill="#2A3463"/>
<path d="M79.874 99.7967L78.1868 100.782L76.7168 99.9304L79.874 99.2288V99.7967Z" fill="#2A3463"/>
<path d="M77.7695 101.014L76.0824 102L74.6123 101.148L77.7695 100.429V101.014Z" fill="#2A3463"/>
<path d="M75.6641 102.234L73.9769 103.22L72.5068 102.368L75.6641 101.65V102.234Z" fill="#2A3463"/>
<path d="M73.5596 103.455L71.8724 104.423L70.4024 103.588L73.5596 102.87V103.455Z" fill="#2A3463"/>
<path d="M71.4551 104.675L69.7679 105.644L68.2979 104.808L71.4551 104.09V104.675Z" fill="#2A3463"/>
<path d="M69.3506 105.895L67.6634 106.864L66.1933 106.012L69.3506 105.31V105.895Z" fill="#2A3463"/>
<path d="M67.2441 107.099L65.5569 108.084L64.0869 107.232L67.2441 106.531V107.099Z" fill="#2A3463"/>
<path d="M65.1562 108.316L63.4524 109.301L61.9823 108.45L65.1562 107.731V108.316Z" fill="#2A3463"/>
<path d="M86.1875 95.568L81.0758 97.4055L82.5458 98.2575L86.1875 96.1527V95.568Z" fill="#2A3463"/>
<path d="M55.4515 111.941L53.9814 111.089L57.1387 110.387V110.922L55.4515 111.941Z" fill="#2A3463"/>
<path d="M57.5394 110.72L56.0693 109.885L59.2266 109.167V109.752L57.5394 110.72Z" fill="#2A3463"/>
<path d="M59.6439 109.517L58.1739 108.665L61.3311 107.947V108.531L59.6439 109.517Z" fill="#2A3463"/>
<path d="M61.6984 108.299L60.2284 107.447L63.4023 106.746V107.331L61.6984 108.299Z" fill="#2A3463"/>
<path d="M78.1699 98.8086V98.2239L62.3838 106.226L63.8538 107.077L78.1699 98.8086Z" fill="#2A3463"/>
<path d="M79.5908 96.6251L77.1185 97.7276L77.8869 98.1787L79.5908 97.2098V96.6251Z" fill="#2A3463"/>
<path d="M82.3799 95.803L79.2227 95.9366V96.5213L80.6927 97.3565L82.3799 96.3877V95.803Z" fill="#2A3463"/>
<path d="M83.7988 94.2173L81.3265 94.7184V95.3031L82.0949 95.7541L83.7988 94.7685V94.2173Z" fill="#2A3463"/>
<path d="M87.3915 99.4154L85.721 100.401L84.2677 99.549L87.4082 98.8307L87.3915 99.4154Z" fill="#2A3463"/>
<path d="M85.1863 100.701L83.5158 101.67L82.0625 100.835L85.2197 100.116L85.1863 100.701Z" fill="#2A3463"/>
<path d="M82.9647 101.967L81.2942 102.952L79.8409 102.117L82.998 101.382L82.9647 101.967Z" fill="#2A3463"/>
<path d="M80.743 103.252L79.0725 104.221L77.6358 103.386L80.7764 102.668L80.743 103.252Z" fill="#2A3463"/>
<path d="M78.5214 104.521L76.8509 105.507L75.3976 104.671L78.5381 103.953L78.5214 104.521Z" fill="#2A3463"/>
<path d="M76.2997 105.81L74.6292 106.779L73.1759 105.944L76.3164 105.225L76.2997 105.81Z" fill="#2A3463"/>
<path d="M74.078 107.096L72.4075 108.065L70.9542 107.229L74.0947 106.511L74.078 107.096Z" fill="#2A3463"/>
<path d="M71.8718 108.368L70.2013 109.354L68.748 108.518L71.9053 107.783L71.8718 108.368Z" fill="#2A3463"/>
<path d="M69.6502 109.654L67.9797 110.623L66.5264 109.787L69.6836 109.069L69.6502 109.654Z" fill="#2A3463"/>
<path d="M67.4286 110.922L65.7582 111.908L64.3048 111.073L67.4453 110.354L67.4286 110.922Z" fill="#2A3463"/>
<path d="M65.2069 112.205L63.5364 113.174L62.0831 112.339L65.2236 111.62L65.2069 112.205Z" fill="#2A3463"/>
<path d="M90.4307 100.449L87.8414 101.501L88.7268 102.003L90.4307 101.034V100.449Z" fill="#2A3463"/>
<path d="M88.3262 101.669L85.7369 102.722L86.6223 103.223L88.3262 102.254V101.669Z" fill="#2A3463"/>
<path d="M86.2217 102.889L83.6324 103.925L84.5177 104.443L86.2217 103.457V102.889Z" fill="#2A3463"/>
<path d="M84.0996 104.103L81.527 105.139L82.4125 105.657L84.0996 104.671V104.103Z" fill="#2A3463"/>
<path d="M82.0117 105.31L79.4225 106.363L80.3078 106.881L82.0117 105.895V105.31Z" fill="#2A3463"/>
<path d="M79.9072 106.531L77.3179 107.583L78.2033 108.101L79.9072 107.115V106.531Z" fill="#2A3463"/>
<path d="M77.8027 107.751L75.2134 108.803L76.0988 109.304L77.8027 108.336V107.751Z" fill="#2A3463"/>
<path d="M75.6982 108.964L73.109 110L73.9944 110.518L75.6982 109.549V108.964Z" fill="#2A3463"/>
<path d="M73.5938 110.185L71.0045 111.221L71.8899 111.738L73.5938 110.769V110.185Z" fill="#2A3463"/>
<path d="M71.4873 111.392L68.898 112.444L69.7834 112.962L71.4873 111.977V111.392Z" fill="#2A3463"/>
<path d="M69.3828 112.612L66.7936 113.665L67.6789 114.182L69.3828 113.197V112.612Z" fill="#2A3463"/>
<path d="M62.4006 105.676H63.3193V106.26H62.4006V105.676Z" fill="#2A3463"/>
<path d="M60.2453 106.896H61.1641V107.481H60.2453V106.896Z" fill="#2A3463"/>
<path d="M58.174 108.084H59.0928V108.668H58.174V108.084Z" fill="#2A3463"/>
<path d="M56.0695 109.304H56.9883V109.889H56.0695V109.304Z" fill="#2A3463"/>
<path d="M53.965 110.505H54.8838V111.089H53.965V110.505Z" fill="#2A3463"/>
<path d="M55.6848 111.509H56.6035V112.094H55.6848V111.509Z" fill="#2A3463"/>
<path d="M59.8791 109.069H60.7979V109.654H59.8791V109.069Z" fill="#2A3463"/>
<path d="M61.9826 107.881H62.9014V108.466H61.9826V107.881Z" fill="#2A3463"/>
<path d="M64.0871 106.648H65.0059V107.233H64.0871V106.648Z" fill="#2A3463"/>
<path d="M66.1916 105.441H67.1104V106.025H66.1916V105.441Z" fill="#2A3463"/>
<path d="M68.298 104.221H69.2168V104.805H68.298V104.221Z" fill="#2A3463"/>
<path d="M70.4025 103.007H71.3213V103.592H70.4025V103.007Z" fill="#2A3463"/>
<path d="M72.507 101.8H73.4258V102.384H72.507V101.8Z" fill="#2A3463"/>
<path d="M74.6115 100.566H75.5303V101.151H74.6115V100.566Z" fill="#2A3463"/>
<path d="M76.717 99.3593H77.6357V99.9439H76.717V99.3593Z" fill="#2A3463"/>
<path d="M78.8214 98.1455H79.7402V98.7302H78.8214V98.1455Z" fill="#2A3463"/>
<path d="M81.093 96.8405H82.0117V97.4251H81.093V96.8405Z" fill="#2A3463"/>
<path d="M83.3811 97.4929H84.2998V98.0776H83.3811V97.4929Z" fill="#2A3463"/>
<path d="M86.4563 97.6887H87.375V98.2734H86.4563V97.6887Z" fill="#2A3463"/>
<path d="M84.2346 98.9807H85.1533V99.5654H84.2346V98.9807Z" fill="#2A3463"/>
<path d="M82.0285 100.247H82.9473V100.831H82.0285V100.247Z" fill="#2A3463"/>
<path d="M79.8068 101.519H80.7256V102.104H79.8068V101.519Z" fill="#2A3463"/>
<path d="M77.5852 102.805H78.5039V103.389H77.5852V102.805Z" fill="#2A3463"/>
<path d="M75.38 104.071H76.2988V104.655H75.38V104.071Z" fill="#2A3463"/>
<path d="M73.1417 105.356H74.0605V105.941H73.1417V105.356Z" fill="#2A3463"/>
<path d="M70.9191 106.648H71.8379V107.233H70.9191V106.648Z" fill="#2A3463"/>
<path d="M68.716 107.914H69.6348V108.499H68.716V107.914Z" fill="#2A3463"/>
<path d="M66.4933 109.199H67.4121V109.784H66.4933V109.199Z" fill="#2A3463"/>
<path d="M64.2717 110.485H65.1904V111.07H64.2717V110.485Z" fill="#2A3463"/>
<path d="M62.05 111.757H62.9688V112.342H62.05V111.757Z" fill="#2A3463"/>
<path d="M59.0919 113.48H60.0107V114.065H59.0919V113.48Z" fill="#2A3463"/>
<path d="M60.8136 114.465H61.7324V115.05H60.8136V114.465Z" fill="#2A3463"/>
<path d="M62.9182 113.245H63.8369V113.83H62.9182V113.245Z" fill="#2A3463"/>
<path d="M65.0236 112.038H65.9424V112.623H65.0236V112.038Z" fill="#2A3463"/>
<path d="M67.1115 110.824H68.0303V111.409H67.1115V110.824Z" fill="#2A3463"/>
<path d="M69.2326 109.604H70.1514V110.189H69.2326V109.604Z" fill="#2A3463"/>
<path d="M71.3371 108.384H72.2559V108.968H71.3371V108.384Z" fill="#2A3463"/>
<path d="M73.4435 107.164H74.3623V107.748H73.4435V107.164Z" fill="#2A3463"/>
<path d="M75.548 105.963H76.4668V106.548H75.548V105.963Z" fill="#2A3463"/>
<path d="M77.6525 104.756H78.5713V105.34H77.6525V104.756Z" fill="#2A3463"/>
<path d="M79.756 103.522H80.6748V104.107H79.756V103.522Z" fill="#2A3463"/>
<path d="M81.8449 102.335H82.7637V102.919H81.8449V102.335Z" fill="#2A3463"/>
<path d="M83.967 101.082H84.8857V101.667H83.967V101.082Z" fill="#2A3463"/>
<path d="M86.0714 99.8812H86.9902V100.466H86.0714V99.8812Z" fill="#2A3463"/>
<path d="M89.9474 99.6985H90.8662V100.283H89.9474V99.6985Z" fill="#2A3463"/>
<path d="M87.841 100.919H88.7598V101.504H87.841V100.919Z" fill="#2A3463"/>
<path d="M85.7365 102.132H86.6553V102.717H85.7365V102.132Z" fill="#2A3463"/>
<path d="M83.633 103.34H84.5518V103.924H83.633V103.34Z" fill="#2A3463"/>
<path d="M81.5285 104.56H82.4473V105.145H81.5285V104.56Z" fill="#2A3463"/>
<path d="M79.4221 105.793H80.3408V106.378H79.4221V105.793Z" fill="#2A3463"/>
<path d="M77.3175 106.994H78.2363V107.579H77.3175V106.994Z" fill="#2A3463"/>
<path d="M75.213 108.214H76.1318V108.799H75.213V108.214Z" fill="#2A3463"/>
<path d="M73.1086 109.434H74.0273V110.019H73.1086V109.434Z" fill="#2A3463"/>
<path d="M71.0041 110.655H71.9229V111.239H71.0041V110.655Z" fill="#2A3463"/>
<path d="M68.8986 111.875H69.8174V112.46H68.8986V111.875Z" fill="#2A3463"/>
<path d="M66.7941 113.075H67.7129V113.66H66.7941V113.075Z" fill="#2A3463"/>
<path d="M64.6897 114.283H65.6084V114.867H64.6897V114.283Z" fill="#2A3463"/>
<path d="M62.5851 115.496H63.5039V116.081H62.5851V115.496Z" fill="#2A3463"/>
<path d="M81.3273 98.6936H82.2461V99.2783H81.3273V98.6936Z" fill="#2A3463"/>
<path d="M79.0549 99.9987H79.9736V100.583H79.0549V99.9987Z" fill="#2A3463"/>
<path d="M76.7658 101.284H77.6846V101.869H76.7658V101.284Z" fill="#2A3463"/>
<path d="M74.4953 102.589H75.4141V103.174H74.4953V102.589Z" fill="#2A3463"/>
<path d="M72.2063 103.875H73.125V104.459H72.2063V103.875Z" fill="#2A3463"/>
<path d="M69.9338 105.173H70.8525V105.758H69.9338V105.173Z" fill="#2A3463"/>
<path d="M67.6633 106.446H68.582V107.03H67.6633V106.446Z" fill="#2A3463"/>
<path d="M65.3908 107.751H66.3096V108.336H65.3908V107.751Z" fill="#2A3463"/>
<path d="M63.1017 109.049H64.0205V109.634H63.1017V109.049Z" fill="#2A3463"/>
<path d="M60.8136 110.335H61.7324V110.92H60.8136V110.335Z" fill="#2A3463"/>
<path d="M57.3889 112.495H58.3076V113.079H57.3889V112.495Z" fill="#2A3463"/>
<path d="M77.1174 97.1732H78.0361V97.7579H77.1174V97.1732Z" fill="#2A3463"/>
<path d="M64.2885 114.511L62.5845 115.497L63.4699 115.998L65.1738 115.029L64.2885 114.511Z" fill="url(#paint0_linear)"/>
<path d="M66.393 113.291L64.6891 114.276L65.5744 114.794L67.2783 113.809L66.393 113.291Z" fill="url(#paint1_linear)"/>
<path d="M91.6332 98.7133L89.946 99.6988L90.8313 100.217L92.5186 99.2311L91.6332 98.7133Z" fill="url(#paint2_linear)"/>
<path d="M62.5007 113.493L60.8135 114.462L62.2668 115.314L63.9707 114.328L62.5007 113.493Z" fill="url(#paint3_linear)"/>
<path d="M64.6062 112.273L62.919 113.242L64.3723 114.094L66.0762 113.125L64.6062 112.273Z" fill="url(#paint4_linear)"/>
<path d="M85.654 100.116L83.9501 101.102L85.4201 101.954L87.124 100.968L85.654 100.116Z" fill="url(#paint5_linear)"/>
<path d="M83.5495 101.336L81.8623 102.322L83.3156 103.157L85.0195 102.188L83.5495 101.336Z" fill="url(#paint6_linear)"/>
<path d="M81.443 102.55L79.7558 103.536L81.2092 104.371L82.9131 103.402L81.443 102.55Z" fill="url(#paint7_linear)"/>
<path d="M79.3386 103.77L77.6514 104.739L79.1047 105.591L80.8086 104.606L79.3386 103.77Z" fill="url(#paint8_linear)"/>
<path d="M77.2341 104.978L75.5301 105.963L77.0002 106.815L78.7041 105.829L77.2341 104.978Z" fill="url(#paint9_linear)"/>
<path d="M75.1305 106.191L73.4433 107.177L74.8967 108.012L76.6006 107.043L75.1305 106.191Z" fill="url(#paint10_linear)"/>
<path d="M73.0241 107.411L71.3369 108.397L72.7903 109.232L74.4941 108.263L73.0241 107.411Z" fill="url(#paint11_linear)"/>
<path d="M70.9196 108.632L69.2324 109.601L70.6857 110.453L72.3896 109.467L70.9196 108.632Z" fill="url(#paint12_linear)"/>
<path d="M68.8151 109.839L67.1279 110.824L68.5812 111.676L70.2852 110.691L68.8151 109.839Z" fill="url(#paint13_linear)"/>
<path d="M66.7106 111.053L65.0235 112.038L66.4768 112.873L68.1807 111.905L66.7106 111.053Z" fill="url(#paint14_linear)"/>
<path d="M91.333 98.5407L89.863 97.6887L86.0543 99.8771L87.5243 100.729L91.333 98.5407Z" fill="url(#paint15_linear)"/>
<path d="M63.2852 112.759L61.8151 111.907L59.0922 113.478L60.5623 114.33L63.2852 112.759Z" fill="url(#paint16_linear)"/>
<path d="M89.6133 97.5553L87.9428 98.5242L86.4894 97.689L88.1599 96.7034L89.6133 97.5553Z" fill="url(#paint17_linear)"/>
<path d="M60.5622 110.655L57.3883 112.492L58.8583 113.344L62.0322 111.507L60.5622 110.655Z" fill="url(#paint18_linear)"/>
<path d="M82.2119 99.8487L80.508 100.834L79.038 99.9823L80.7419 99.0134L82.2119 99.8487Z" fill="url(#paint19_linear)"/>
<path d="M79.9229 101.151L78.2357 102.12L76.7657 101.284L78.4528 100.299L79.9229 101.151Z" fill="url(#paint20_linear)"/>
<path d="M77.6523 102.433L75.9484 103.418L74.4951 102.566L76.1823 101.597L77.6523 102.433Z" fill="url(#paint21_linear)"/>
<path d="M75.3633 103.741L73.6761 104.71L72.206 103.875L73.9099 102.889L75.3633 103.741Z" fill="url(#paint22_linear)"/>
<path d="M73.0908 105.023L71.4036 106.009L69.9336 105.157L71.6208 104.188L73.0908 105.023Z" fill="url(#paint23_linear)"/>
<path d="M70.8203 106.325L69.1164 107.294L67.6463 106.459L69.3503 105.474L70.8203 106.325Z" fill="url(#paint24_linear)"/>
<path d="M68.5312 107.617L66.8441 108.603L65.3741 107.751L67.0613 106.766L68.5312 107.617Z" fill="url(#paint25_linear)"/>
<path d="M66.2588 108.916L64.5549 109.885L63.0849 109.05L64.7888 108.064L66.2588 108.916Z" fill="url(#paint26_linear)"/>
<path d="M63.9707 110.201L62.2835 111.187L60.8135 110.335L62.5174 109.349L63.9707 110.201Z" fill="url(#paint27_linear)"/>
<path d="M84.4678 98.5435L82.7806 99.5291L81.3106 98.6771L82.9977 97.7083L84.4678 98.5435Z" fill="url(#paint28_linear)"/>
<path d="M87.9082 96.5701L86.4382 95.7181L83.3645 97.4889L84.8345 98.3241L87.9082 96.5701Z" fill="url(#paint29_linear)"/>
<path d="M59.4772 109.304L55.6685 111.509L57.1386 112.344L60.9473 110.156L59.4772 109.304Z" fill="url(#paint30_linear)"/>
<path d="M61.5818 108.097L59.8778 109.066L61.3479 109.918L63.0518 108.932L61.5818 108.097Z" fill="url(#paint31_linear)"/>
<path d="M81.9785 98.0121L80.2913 98.981L78.8213 98.1458L80.5085 97.1602L81.9785 98.0121Z" fill="url(#paint32_linear)"/>
<path d="M79.874 99.2258L78.1868 100.195L76.7168 99.3428L78.4207 98.3739L79.874 99.2258Z" fill="url(#paint33_linear)"/>
<path d="M77.7695 100.429L76.0824 101.415L74.6123 100.563L76.3162 99.5941L77.7695 100.429Z" fill="url(#paint34_linear)"/>
<path d="M75.6641 101.65L73.9769 102.635L72.5068 101.783L74.2107 100.814L75.6641 101.65Z" fill="url(#paint35_linear)"/>
<path d="M73.5596 102.867L71.8724 103.853L70.4024 103.001L72.1063 102.015L73.5596 102.867Z" fill="url(#paint36_linear)"/>
<path d="M71.4551 104.087L69.7679 105.073L68.2979 104.221L70.0018 103.235L71.4551 104.087Z" fill="url(#paint37_linear)"/>
<path d="M69.3506 105.308L67.6634 106.276L66.1933 105.441L67.8973 104.456L69.3506 105.308Z" fill="url(#paint38_linear)"/>
<path d="M67.2441 106.528L65.5569 107.497L64.0869 106.645L65.7908 105.676L67.2441 106.528Z" fill="url(#paint39_linear)"/>
<path d="M65.1562 107.731L63.4524 108.717L61.9823 107.865L63.6862 106.896L65.1562 107.731Z" fill="url(#paint40_linear)"/>
<path d="M84.7175 94.7328L81.0758 96.8376L82.5458 97.6729L86.1875 95.568L84.7175 94.7328Z" fill="url(#paint41_linear)"/>
<path d="M55.4516 111.353L53.9815 110.518L55.652 109.532L57.1221 110.384L55.4516 111.353Z" fill="url(#paint42_linear)"/>
<path d="M57.5395 110.156L56.0694 109.304L57.7399 108.318L59.21 109.17L57.5395 110.156Z" fill="url(#paint43_linear)"/>
<path d="M59.644 108.932L58.1739 108.08L59.8444 107.111L61.3145 107.947L59.644 108.932Z" fill="url(#paint44_linear)"/>
<path d="M61.6996 107.712L60.2296 106.877L61.9001 105.891L63.3701 106.743L61.6996 107.712Z" fill="url(#paint45_linear)"/>
<path d="M78.1699 98.2238L76.6999 97.3885L62.3838 105.657L63.8538 106.493L78.1699 98.2238Z" fill="url(#paint46_linear)"/>
<path d="M78.8057 96.1683L77.1185 97.1372L77.8869 97.5883L79.5908 96.6194L78.8057 96.1683Z" fill="url(#paint47_linear)"/>
<path d="M80.9098 94.9546L79.2227 95.9402L80.6927 96.7754L82.3799 95.8065L80.9098 94.9546Z" fill="url(#paint48_linear)"/>
<path d="M83.0137 93.7474L81.3265 94.7163L82.0949 95.1674L83.7988 94.1818L83.0137 93.7474Z" fill="url(#paint49_linear)"/>
<path d="M87.3916 98.8307L85.7211 99.8163L84.2678 98.9811L85.9383 97.9955L87.3916 98.8307Z" fill="url(#paint50_linear)"/>
<path d="M85.1855 100.113L83.5151 101.082L82.0617 100.247L83.7322 99.2614L85.1855 100.113Z" fill="url(#paint51_linear)"/>
<path d="M82.9639 101.382L81.2934 102.368L79.8401 101.532L81.5106 100.547L82.9639 101.382Z" fill="url(#paint52_linear)"/>
<path d="M80.7422 102.671L79.0717 103.657L77.6351 102.805L79.3055 101.819L80.7422 102.671Z" fill="url(#paint53_linear)"/>
<path d="M78.5205 103.957L76.85 104.926L75.3967 104.09L77.0672 103.105L78.5205 103.957Z" fill="url(#paint54_linear)"/>
<path d="M76.2988 105.226L74.6283 106.211L73.175 105.376L74.8455 104.39L76.2988 105.226Z" fill="url(#paint55_linear)"/>
<path d="M74.0762 106.515L72.4057 107.484L70.9524 106.648L72.6229 105.663L74.0762 106.515Z" fill="url(#paint56_linear)"/>
<path d="M71.8721 107.783L70.2016 108.769L68.7483 107.934L70.4188 106.948L71.8721 107.783Z" fill="url(#paint57_linear)"/>
<path d="M69.6504 109.066L67.9799 110.052L66.5266 109.2L68.1971 108.214L69.6504 109.066Z" fill="url(#paint58_linear)"/>
<path d="M67.4287 110.352L65.7582 111.32L64.3049 110.485L65.9753 109.5L67.4287 110.352Z" fill="url(#paint59_linear)"/>
<path d="M65.207 111.624L63.5365 112.61L62.0832 111.774L63.7537 110.772L65.207 111.624Z" fill="url(#paint60_linear)"/>
<path d="M89.5286 99.9269L87.8414 100.912L88.7268 101.43L90.4307 100.445L89.5286 99.9269Z" fill="url(#paint61_linear)"/>
<path d="M87.4241 101.147L85.7369 102.133L86.6223 102.634L88.3262 101.665L87.4241 101.147Z" fill="url(#paint62_linear)"/>
<path d="M85.3196 102.367L83.6324 103.353L84.5177 103.854L86.2217 102.885L85.3196 102.367Z" fill="url(#paint63_linear)"/>
<path d="M83.2143 103.588L81.527 104.557L82.4125 105.074L84.0996 104.105L83.2143 103.588Z" fill="url(#paint64_linear)"/>
<path d="M81.1096 104.808L79.4225 105.777L80.3078 106.295L82.0117 105.309L81.1096 104.808Z" fill="url(#paint65_linear)"/>
<path d="M79.0051 106.009L77.3179 106.994L78.2033 107.512L79.9072 106.526L79.0051 106.009Z" fill="url(#paint66_linear)"/>
<path d="M76.9007 107.229L75.2134 108.214L76.0988 108.732L77.8027 107.747L76.9007 107.229Z" fill="url(#paint67_linear)"/>
<path d="M74.7962 108.449L73.109 109.435L73.9944 109.936L75.6982 108.967L74.7962 108.449Z" fill="url(#paint68_linear)"/>
<path d="M72.6917 109.669L71.0045 110.655L71.8899 111.156L73.5938 110.187L72.6917 109.669Z" fill="url(#paint69_linear)"/>
<path d="M70.5852 110.89L68.898 111.858L69.7834 112.376L71.4873 111.391L70.5852 110.89Z" fill="url(#paint70_linear)"/>
<path d="M68.4975 112.11L66.7936 113.079L67.6789 113.596L69.3828 112.611L68.4975 112.11Z" fill="url(#paint71_linear)"/>
<path d="M40.0666 101.953C40.0666 101.953 41.1691 105.294 41.9876 105.026C42.8062 104.759 43.9087 104.943 44.794 101.986C45.0446 101.218 44.4766 96.5737 41.8206 97.5927C39.1645 98.6117 40.0666 101.953 40.0666 101.953Z" fill="#99AFF0"/>
<path d="M42.2203 75.8404C40.8109 76.2336 39.6116 77.1631 38.8793 78.4297C37.3758 80.7183 37.4928 96.1703 39.3303 100.948C41.1679 105.725 40.8338 104.088 40.8338 104.088C40.8338 104.088 39.1633 100.948 40.8338 98.9433C42.5043 96.9387 44.6425 99.244 44.6425 99.244C44.6425 99.244 49.3365 86.2643 47.5491 81.6036C45.7617 76.943 44.8596 75.4061 42.2203 75.8404Z" fill="#44B8AC"/>
<path d="M44.5933 99.2271C46.7978 100.416 49.0936 101.427 51.459 102.251C54.0482 102.969 56.4704 103.453 56.4704 103.453L60.1789 102.835C60.1789 102.835 62.7014 103.838 63.2861 103.504C63.8707 103.169 64.5389 103.654 64.3385 104.088C64.138 104.523 62.1501 104.589 62.1501 104.589L66.6939 106.26C67.4146 106.843 68.0851 107.486 68.6984 108.181C68.6984 108.331 69.0325 108.866 67.9133 108.331C66.7941 107.797 66.2428 107.463 66.2428 107.463L62.7682 106.694C62.7682 106.694 65.0401 108.147 65.2739 108.181C65.5078 108.214 66.5435 109.334 66.9444 109.751C67.3454 110.169 66.5769 110.119 66.2929 110.135C66.0585 110.106 65.8318 110.032 65.6247 109.918L66.4266 110.369C66.4266 110.369 66.1426 111.188 65.4243 110.904C64.706 110.62 63.3696 109.818 63.3696 109.818L61.0476 109.367L62.8183 110.336L64.3385 111.806C64.3385 111.806 64.3385 112.474 63.4531 112.157C62.8726 111.881 62.3637 111.475 61.9664 110.971C61.9664 110.971 59.7947 110.286 58.5252 109.785C56.9553 108.896 55.4731 107.862 54.0984 106.694C52.0834 106.812 50.0617 106.666 48.0846 106.26C45.1279 105.575 41.0853 104.339 40.5507 103.37C40.0161 102.401 39.8324 95.5186 44.5933 99.2271Z" fill="#FFC69C"/>
<path d="M131.442 86.0968L101.74 104.572C99.7524 105.725 96.7289 104.372 97.1298 102.117C97.9483 97.6732 101.673 89.3041 103.143 85.0443C103.728 83.3739 104.814 80.0329 106.735 78.8134L137.756 60.8891C139.744 59.7532 141.364 60.6719 141.364 62.9772L135.033 79.8659C134.966 81.1136 134.606 82.328 133.982 83.4106C133.358 84.4931 132.488 85.4134 131.442 86.0968Z" fill="#99AFF0"/>
<path d="M132.761 86.6685L101.74 104.576C101.374 104.773 100.964 104.872 100.549 104.866C100.134 104.86 99.7273 104.748 99.3676 104.54C99.0079 104.333 98.7071 104.037 98.4938 103.681C98.2804 103.324 98.1615 102.92 98.1484 102.505C99.3344 98.813 102.993 89.8758 104.463 85.6161C105.048 83.9456 106.133 80.6046 108.054 79.3852L139.092 61.4775C141.08 60.3249 142.684 61.2604 142.684 63.5489C142.684 63.5489 137.839 76.1778 136.369 80.4376C135.768 82.1415 134.749 85.5159 132.761 86.6685Z" fill="#879ADE"/>
<path d="M120.802 89.5712L119.649 94.2318L123.642 92.127L120.802 89.5712Z" fill="#7389D9"/>
<path d="M124.293 102.119L117.795 98.3603L121.603 96.1553L126.982 100.565L124.293 102.119Z" fill="#879ADE"/>
<path d="M120.801 89.5702L122.738 99.8604V101.28L117.794 98.4071V101.113L125.411 105.523V101.063L120.984 88.0835L120.801 89.5702Z" fill="#7389D9"/>
<path d="M120.985 88.0873L125.412 101.067V105.761L131.325 102.119V97.6592L124.125 86.2498L120.985 88.0873Z" fill="#A2BFEF"/>
<path d="M41.4192 140.573L22.1919 130.332V128.077L55.2676 131.118V133.389L41.4192 140.573Z" fill="#2A3463"/>
<path d="M41.4192 138.299L22.1919 128.076L36.057 120.893L55.2676 131.116L41.4192 138.299Z" fill="#7389D9"/>
<path d="M41.7032 138.617V139.82L55.2676 132.954V131.601L41.7032 138.617Z" fill="white"/>
<path d="M71.6214 150.413L52.3941 140.173V137.917L85.4697 140.958V143.23L71.6214 150.413Z" fill="#24B289"/>
<path d="M71.6214 148.14L52.3941 137.916L66.2591 130.733L85.4697 140.956L71.6214 148.14Z" fill="#44B8AC"/>
<path d="M71.922 148.46V149.663L85.4697 142.797V141.461L71.922 148.46Z" fill="white"/>
<path d="M71.6214 147.506L52.3941 137.266V134.994L85.4697 138.051V140.323L71.6214 147.506Z" fill="#F7991D"/>
<path d="M71.6214 145.233L52.3941 134.993L66.2591 127.81L85.4697 138.05L71.6214 145.233Z" fill="#FAD445"/>
<path d="M71.922 145.553V146.756L85.4697 139.89V138.537L71.922 145.553Z" fill="white"/>
<path d="M75.2637 81.9901C75.3806 83.0759 77.3852 85.8823 77.6191 88.9894C77.8529 92.0965 77.853 94.5689 77.853 94.5689L81.3777 96.2394C81.8673 96.8452 82.2928 97.5002 82.6473 98.1938C82.6473 98.3609 82.998 101.05 82.998 101.05C82.998 101.05 82.7475 101.485 82.38 101.201C82.2807 101.143 82.1959 101.063 82.1322 100.968C82.0685 100.872 82.0275 100.763 82.0125 100.649C82.0125 100.649 82.1962 102.47 81.7452 102.32C81.2941 102.17 81.1772 102.036 81.1104 101.451C81.0714 100.846 80.9989 100.244 80.8933 99.6471L79.2228 97.6927L80.0079 99.998C80.0079 99.998 80.4923 102.604 79.8409 102.32C79.4006 102.075 79.0584 101.685 78.8719 101.217V99.0959L77.4186 97.7428L77.9866 99.7474C77.9469 100.536 78.003 101.327 78.1536 102.103C78.3541 102.236 77.5022 102.671 77.3184 102.236C77.115 101.355 76.9644 100.463 76.8674 99.5636L74.9463 97.2751C74.9463 97.2751 72.6744 97.8263 72.6744 98.4277C72.6744 99.0291 72.2902 99.4968 71.4717 99.6471C71.234 99.686 70.9901 99.6448 70.7784 99.5298C70.5667 99.4149 70.3993 99.2329 70.3024 99.0123C70.3024 99.0123 71.6053 97.8096 71.4717 97.6091C71.3381 97.4087 72.9585 95.3874 72.9585 95.3874C72.9585 95.3874 73.6934 95.0533 73.7101 94.8027C73.7268 94.5522 71.6722 90.1421 71.5385 89.1565C71.1989 88.1295 70.6846 87.1688 70.0184 86.3167C70.0184 86.3167 66.2932 83.2597 71.3381 80.7539C71.6712 80.5521 72.0435 80.4236 72.4302 80.3771C72.8168 80.3305 73.2091 80.3669 73.5806 80.4839C73.9521 80.6009 74.2943 80.7958 74.5846 81.0555C74.8748 81.3152 75.1063 81.6338 75.2637 81.9901Z" fill="#FFC69C"/>
<path d="M41.5875 42.5324L63.9219 29.6363V4.01099L41.5875 16.9072V42.5324Z" fill="#F6B735"/>
<path d="M36.0909 39.4279L41.6035 42.535V16.9097L36.0909 13.7859V39.4279Z" fill="#F7991D"/>
<path d="M41.5356 16.8739L63.8867 3.96108L58.5077 0.9375L36.1733 13.8337L41.5356 16.8739Z" fill="#FAD445"/>
<path d="M55.935 19.9111C56.0042 20.3673 56.1881 20.7984 56.4696 21.164C56.1427 21.9647 55.9345 22.8089 55.8515 23.6697V26.8771C55.8783 27.1102 55.8783 27.3456 55.8515 27.5787C55.8172 27.9343 55.6915 28.2751 55.4866 28.5678C55.2817 28.8605 55.0046 29.0952 54.6822 29.2492L54.4316 29.3995V32.6402L54.6822 32.4899C55.088 32.2591 55.4786 32.0024 55.8515 31.7215C56.7249 31.1024 57.4475 30.2941 57.9652 29.357C58.4829 28.4199 58.7825 27.3781 58.8417 26.3091V23.0516C58.8233 22.8126 58.8233 22.5724 58.8417 22.3333C58.8908 21.993 59.0233 21.67 59.2273 21.3932C59.4313 21.1163 59.7005 20.8942 60.011 20.7464L60.2783 20.596V17.372L60.011 17.5056C59.9107 17.5811 59.7975 17.6377 59.6769 17.6727C59.5822 17.7208 59.4809 17.7546 59.3762 17.7729H59.2593C59.1841 17.7727 59.112 17.7427 59.0588 17.6894C58.9954 17.657 58.9391 17.6122 58.8932 17.5577C58.8473 17.5032 58.8127 17.44 58.7916 17.372C58.7916 17.372 58.7916 17.2885 58.7916 17.2383C58.7724 17.0216 58.7724 16.8036 58.7916 16.5869V13.6802C58.5744 11.6255 57.6556 10.974 55.8014 11.7257C55.4002 11.9033 55.0098 12.1041 54.6321 12.3271L54.3815 12.4608V15.7015L54.6321 15.5512C55.3671 15.1168 55.7011 15.2338 55.8014 15.785C55.829 16.0013 55.829 16.2202 55.8014 16.4365V19.3599C55.8849 19.5937 55.9183 19.7608 55.935 19.9111Z" fill="#44B8AC"/>
<path d="M49.5707 26.7262C49.5091 26.2679 49.3243 25.8349 49.0361 25.4733C49.3784 24.6777 49.5872 23.8311 49.6542 22.9676V20.0609C49.6364 19.8274 49.6364 19.5929 49.6542 19.3593C49.6931 19.0051 49.8206 18.6663 50.025 18.3744C50.2294 18.0824 50.504 17.8467 50.8235 17.6888L51.0908 17.5385V14.3145L50.8235 14.4481C50.4059 14.6987 50.005 14.966 49.6542 15.2165C48.7833 15.8382 48.0627 16.6471 47.5453 17.5836C47.0279 18.5202 46.7267 19.5607 46.664 20.6289V23.5188C46.6906 23.7575 46.6906 23.9985 46.664 24.2372C46.6177 24.5785 46.4864 24.9027 46.2821 25.18C46.0777 25.4573 45.807 25.6788 45.4947 25.8241L45.2441 25.9744V29.1985L45.4278 29.0649L45.762 28.9145L46.0626 28.8143H46.1796C46.245 28.7948 46.3146 28.7948 46.38 28.8143L46.4635 28.8978C46.5066 28.9653 46.5403 29.0384 46.5638 29.115C46.5732 29.159 46.5732 29.2046 46.5638 29.2486C46.5914 29.4649 46.5914 29.6838 46.5638 29.9001V33.1241C46.7809 35.1788 47.6997 35.8136 49.5539 35.0619C49.9535 34.8873 50.3438 34.6921 50.7233 34.4772L50.9905 34.3269V31.1029L50.7233 31.2365C49.9883 31.6708 49.6709 31.5539 49.5539 31.0026C49.534 30.7859 49.534 30.5678 49.5539 30.3511V27.1271C49.6208 27.0436 49.6041 26.8765 49.5707 26.7262Z" fill="#44B8AC"/>
<path d="M93.0375 56.9492L125.345 38.223V13.316L93.0375 32.0589V56.9492Z" fill="#F6B735"/>
<path d="M87.7081 53.923L93.0537 56.9465V32.0563L87.7081 29.016V53.923Z" fill="#F7991D"/>
<path d="M92.9867 32.0068L125.294 13.2807L120.082 10.3406L87.7748 29.0668L92.9867 32.0068Z" fill="#FAD445"/>
<path d="M118.679 31.4069L115.138 37.0197V38.0387L117.81 36.4852L121.603 30.4046V29.0682L117.81 27.3977L115.138 28.9346V29.9369L118.679 31.4069Z" fill="#085956"/>
<path d="M111.747 42.598L114.387 41.0778V40.2593L107.187 30.2363L104.564 31.7398V32.5583L111.747 42.598Z" fill="#085956"/>
<path d="M103.812 35.4501L101.123 37.0036L97.331 43.0675V44.4206L101.123 46.0911L103.812 44.5375V43.5185L100.238 42.0151L103.812 36.4022V35.4501Z" fill="#085956"/>
<path d="M4.46802 73.7692L18.8008 65.4836V49.0293L4.46802 57.2982V73.7692Z" fill="#F6B735"/>
<path d="M0.943926 71.7675L4.48535 73.7721V57.3011L0.943926 55.3132V71.7675Z" fill="#F7991D"/>
<path d="M4.4347 57.2856L18.7842 49L15.3263 47.0455L0.976828 55.3312L4.4347 57.2856Z" fill="#FAD445"/>
<path d="M15.3604 64.663H15.4606C16.0002 64.3906 16.4469 63.9642 16.7443 63.438C17.0416 62.9117 17.1762 62.3091 17.1311 61.7063V55.158C17.1311 53.7882 16.6467 53.4875 15.4606 54.1724H15.3604V55.4754H15.4606C15.8616 55.2415 15.9618 55.3918 15.9618 55.8429V62.4246C15.9853 62.6132 15.9497 62.8045 15.86 62.972C15.7702 63.1396 15.6307 63.2751 15.4606 63.3601H15.3604V64.663Z" fill="#2A3463"/>
<path d="M7.74255 67.7904C7.35834 68.0243 7.24142 67.7904 7.24142 67.4229V60.8078C7.22269 60.6197 7.2603 60.4303 7.34955 60.2638C7.43879 60.0972 7.57561 59.9609 7.74255 59.8723H7.84277V58.5693H7.74255C7.20298 58.8418 6.75628 59.2681 6.45894 59.7944C6.16161 60.3207 6.02698 60.9233 6.07206 61.5261V68.0577C6.07206 69.4275 6.5565 69.7282 7.74255 69.06H7.84277V67.7403L7.74255 67.7904Z" fill="#2A3463"/>
<defs>
<linearGradient id="paint0_linear" x1="-3610.83" y1="-571.714" x2="-3606.81" y2="-571.714" gradientUnits="userSpaceOnUse">
<stop stop-color="#7389D9"/>
<stop offset="1" stop-color="#34355D"/>
</linearGradient>
<linearGradient id="paint1_linear" x1="-3609.6" y1="-541.365" x2="-3605.58" y2="-541.365" gradientUnits="userSpaceOnUse">
<stop stop-color="#7389D9"/>
<stop offset="1" stop-color="#34355D"/>
</linearGradient>
<linearGradient id="paint2_linear" x1="-3517.68" y1="-539.875" x2="-3513.69" y2="-539.875" gradientUnits="userSpaceOnUse">
<stop stop-color="#7389D9"/>
<stop offset="1" stop-color="#34355D"/>
</linearGradient>
<linearGradient id="paint3_linear" x1="-6276.38" y1="33.0729" x2="-6270.41" y2="33.0729" gradientUnits="userSpaceOnUse">
<stop stop-color="#7389D9"/>
<stop offset="1" stop-color="#34355D"/>
</linearGradient>
<linearGradient id="paint4_linear" x1="-6274.41" y1="32.9634" x2="-6268.44" y2="32.9634" gradientUnits="userSpaceOnUse">
<stop stop-color="#7389D9"/>
<stop offset="1" stop-color="#34355D"/>
</linearGradient>
<linearGradient id="paint5_linear" x1="-6333.83" y1="61.9838" x2="-6327.83" y2="61.9838" gradientUnits="userSpaceOnUse">
<stop stop-color="#7389D9"/>
<stop offset="1" stop-color="#34355D"/>
</linearGradient>
<linearGradient id="paint6_linear" x1="-6257.65" y1="31.9829" x2="-6251.68" y2="31.9829" gradientUnits="userSpaceOnUse">
<stop stop-color="#7389D9"/>
<stop offset="1" stop-color="#34355D"/>
</linearGradient>
<linearGradient id="paint7_linear" x1="-6259.52" y1="32.0879" x2="-6253.56" y2="32.0879" gradientUnits="userSpaceOnUse">
<stop stop-color="#7389D9"/>
<stop offset="1" stop-color="#34355D"/>
</linearGradient>
<linearGradient id="paint8_linear" x1="-6261.29" y1="32.1984" x2="-6255.33" y2="32.1984" gradientUnits="userSpaceOnUse">
<stop stop-color="#7389D9"/>
<stop offset="1" stop-color="#34355D"/>
</linearGradient>
<linearGradient id="paint9_linear" x1="-6341.51" y1="62.4707" x2="-6335.51" y2="62.4707" gradientUnits="userSpaceOnUse">
<stop stop-color="#7389D9"/>
<stop offset="1" stop-color="#34355D"/>
</linearGradient>
<linearGradient id="paint10_linear" x1="-6265.14" y1="32.4151" x2="-6259.17" y2="32.4151" gradientUnits="userSpaceOnUse">
<stop stop-color="#7389D9"/>
<stop offset="1" stop-color="#34355D"/>
</linearGradient>
<linearGradient id="paint11_linear" x1="-6266.91" y1="32.5246" x2="-6260.95" y2="32.5246" gradientUnits="userSpaceOnUse">
<stop stop-color="#7389D9"/>
<stop offset="1" stop-color="#34355D"/>
</linearGradient>
<linearGradient id="paint12_linear" x1="-6268.89" y1="32.6361" x2="-6262.92" y2="32.6361" gradientUnits="userSpaceOnUse">
<stop stop-color="#7389D9"/>
<stop offset="1" stop-color="#34355D"/>
</linearGradient>
<linearGradient id="paint13_linear" x1="-6270.76" y1="62.957" x2="-6264.8" y2="62.957" gradientUnits="userSpaceOnUse">
<stop stop-color="#7389D9"/>
<stop offset="1" stop-color="#34355D"/>
</linearGradient>
<linearGradient id="paint14_linear" x1="-6272.53" y1="32.8528" x2="-6266.57" y2="32.8528" gradientUnits="userSpaceOnUse">
<stop stop-color="#7389D9"/>
<stop offset="1" stop-color="#34355D"/>
</linearGradient>
<linearGradient id="paint15_linear" x1="-16174.8" y1="2227.75" x2="-16158.1" y2="2227.75" gradientUnits="userSpaceOnUse">
<stop stop-color="#7389D9"/>
<stop offset="1" stop-color="#34355D"/>
</linearGradient>
<linearGradient id="paint16_linear" x1="-11137.9" y1="1120.94" x2="-11127.4" y2="1120.94" gradientUnits="userSpaceOnUse">
<stop stop-color="#7389D9"/>
<stop offset="1" stop-color="#34355D"/>
</linearGradient>
<linearGradient id="paint17_linear" x1="-6097.37" y1="31.5616" x2="-6091.5" y2="31.5616" gradientUnits="userSpaceOnUse">
<stop stop-color="#7389D9"/>
<stop offset="1" stop-color="#34355D"/>
</linearGradient>
<linearGradient id="paint18_linear" x1="-13257.3" y1="1603.81" x2="-13244.4" y2="1603.81" gradientUnits="userSpaceOnUse">
<stop stop-color="#7389D9"/>
<stop offset="1" stop-color="#34355D"/>
</linearGradient>
<linearGradient id="paint19_linear" x1="-6338.25" y1="31.7729" x2="-6332.25" y2="31.7729" gradientUnits="userSpaceOnUse">
<stop stop-color="#7389D9"/>
<stop offset="1" stop-color="#34355D"/>
</linearGradient>
<linearGradient id="paint20_linear" x1="-6262.08" y1="31.8888" x2="-6256.12" y2="31.8888" gradientUnits="userSpaceOnUse">
<stop stop-color="#7389D9"/>
<stop offset="1" stop-color="#34355D"/>
</linearGradient>
<linearGradient id="paint21_linear" x1="-6264.21" y1="32.0016" x2="-6258.24" y2="32.0016" gradientUnits="userSpaceOnUse">
<stop stop-color="#7389D9"/>
<stop offset="1" stop-color="#34355D"/>
</linearGradient>
<linearGradient id="paint22_linear" x1="-6266.24" y1="32.1231" x2="-6260.24" y2="32.1231" gradientUnits="userSpaceOnUse">
<stop stop-color="#7389D9"/>
<stop offset="1" stop-color="#34355D"/>
</linearGradient>
<linearGradient id="paint23_linear" x1="-6268.16" y1="32.236" x2="-6262.2" y2="32.236" gradientUnits="userSpaceOnUse">
<stop stop-color="#7389D9"/>
<stop offset="1" stop-color="#34355D"/>
</linearGradient>
<linearGradient id="paint24_linear" x1="-6348.6" y1="32.351" x2="-6342.61" y2="32.351" gradientUnits="userSpaceOnUse">
<stop stop-color="#7389D9"/>
<stop offset="1" stop-color="#34355D"/>
</linearGradient>
<linearGradient id="paint25_linear" x1="-6272.22" y1="62.6494" x2="-6266.25" y2="62.6494" gradientUnits="userSpaceOnUse">
<stop stop-color="#7389D9"/>
<stop offset="1" stop-color="#34355D"/>
</linearGradient>
<linearGradient id="paint26_linear" x1="-6352.61" y1="32.5843" x2="-6346.61" y2="32.5843" gradientUnits="userSpaceOnUse">
<stop stop-color="#7389D9"/>
<stop offset="1" stop-color="#34355D"/>
</linearGradient>
<linearGradient id="paint27_linear" x1="-6276.38" y1="62.903" x2="-6270.38" y2="62.903" gradientUnits="userSpaceOnUse">
<stop stop-color="#7389D9"/>
<stop offset="1" stop-color="#34355D"/>
</linearGradient>
<linearGradient id="paint28_linear" x1="-6258.04" y1="31.6544" x2="-6252.07" y2="31.6544" gradientUnits="userSpaceOnUse">
<stop stop-color="#7389D9"/>
<stop offset="1" stop-color="#34355D"/>
</linearGradient>
<linearGradient id="paint29_linear" x1="-12742.2" y1="1444.39" x2="-12729.9" y2="1444.39" gradientUnits="userSpaceOnUse">
<stop stop-color="#7389D9"/>
<stop offset="1" stop-color="#34355D"/>
</linearGradient>
<linearGradient id="paint30_linear" x1="-16240.4" y1="2237.29" x2="-16223.8" y2="2237.29" gradientUnits="userSpaceOnUse">
<stop stop-color="#7389D9"/>
<stop offset="1" stop-color="#34355D"/>
</linearGradient>
<linearGradient id="paint31_linear" x1="-6355.52" y1="32.5876" x2="-6349.49" y2="32.5876" gradientUnits="userSpaceOnUse">
<stop stop-color="#7389D9"/>
<stop offset="1" stop-color="#34355D"/>
</linearGradient>
<linearGradient id="paint32_linear" x1="-6260.36" y1="31.607" x2="-6254.39" y2="31.607" gradientUnits="userSpaceOnUse">
<stop stop-color="#7389D9"/>
<stop offset="1" stop-color="#34355D"/>
</linearGradient>
<linearGradient id="paint33_linear" x1="-6262.13" y1="31.712" x2="-6256.13" y2="31.712" gradientUnits="userSpaceOnUse">
<stop stop-color="#7389D9"/>
<stop offset="1" stop-color="#34355D"/>
</linearGradient>
<linearGradient id="paint34_linear" x1="-6264" y1="31.8225" x2="-6258" y2="31.8225" gradientUnits="userSpaceOnUse">
<stop stop-color="#7389D9"/>
<stop offset="1" stop-color="#34355D"/>
</linearGradient>
<linearGradient id="paint35_linear" x1="-6265.98" y1="31.933" x2="-6259.98" y2="31.933" gradientUnits="userSpaceOnUse">
<stop stop-color="#7389D9"/>
<stop offset="1" stop-color="#34355D"/>
</linearGradient>
<linearGradient id="paint36_linear" x1="-6267.75" y1="62.1503" x2="-6261.75" y2="62.1503" gradientUnits="userSpaceOnUse">
<stop stop-color="#7389D9"/>
<stop offset="1" stop-color="#34355D"/>
</linearGradient>
<linearGradient id="paint37_linear" x1="-6269.62" y1="62.273" x2="-6263.62" y2="62.273" gradientUnits="userSpaceOnUse">
<stop stop-color="#7389D9"/>
<stop offset="1" stop-color="#34355D"/>
</linearGradient>
<linearGradient id="paint38_linear" x1="-6271.59" y1="32.2603" x2="-6265.6" y2="32.2603" gradientUnits="userSpaceOnUse">
<stop stop-color="#7389D9"/>
<stop offset="1" stop-color="#34355D"/>
</linearGradient>
<linearGradient id="paint39_linear" x1="-6273.37" y1="32.3709" x2="-6267.37" y2="32.3709" gradientUnits="userSpaceOnUse">
<stop stop-color="#7389D9"/>
<stop offset="1" stop-color="#34355D"/>
</linearGradient>
<linearGradient id="paint40_linear" x1="-6353.63" y1="32.4814" x2="-6347.6" y2="32.4814" gradientUnits="userSpaceOnUse">
<stop stop-color="#7389D9"/>
<stop offset="1" stop-color="#34355D"/>
</linearGradient>
<linearGradient id="paint41_linear" x1="-15403.9" y1="2044.96" x2="-15388.2" y2="2044.96" gradientUnits="userSpaceOnUse">
<stop stop-color="#7389D9"/>
<stop offset="1" stop-color="#34355D"/>
</linearGradient>
<linearGradient id="paint42_linear" x1="-6204.02" y1="32.7158" x2="-6198.09" y2="32.7158" gradientUnits="userSpaceOnUse">
<stop stop-color="#7389D9"/>
<stop offset="1" stop-color="#34355D"/>
</linearGradient>
<linearGradient id="paint43_linear" x1="-6202.16" y1="62.7864" x2="-6196.22" y2="62.7864" gradientUnits="userSpaceOnUse">
<stop stop-color="#7389D9"/>
<stop offset="1" stop-color="#34355D"/>
</linearGradient>
<linearGradient id="paint44_linear" x1="-6200.3" y1="32.4991" x2="-6194.37" y2="32.4991" gradientUnits="userSpaceOnUse">
<stop stop-color="#7389D9"/>
<stop offset="1" stop-color="#34355D"/>
</linearGradient>
<linearGradient id="paint45_linear" x1="-6198.46" y1="32.3886" x2="-6192.53" y2="32.3886" gradientUnits="userSpaceOnUse">
<stop stop-color="#7389D9"/>
<stop offset="1" stop-color="#34355D"/>
</linearGradient>
<linearGradient id="paint46_linear" x1="-65510.8" y1="13160" x2="-65361.6" y2="13160" gradientUnits="userSpaceOnUse">
<stop stop-color="#7389D9"/>
<stop offset="1" stop-color="#34355D"/>
</linearGradient>
<linearGradient id="paint47_linear" x1="-3055.36" y1="-689.937" x2="-3051.7" y2="-689.937" gradientUnits="userSpaceOnUse">
<stop stop-color="#7389D9"/>
<stop offset="1" stop-color="#34355D"/>
</linearGradient>
<linearGradient id="paint48_linear" x1="-6259.9" y1="31.409" x2="-6253.93" y2="31.409" gradientUnits="userSpaceOnUse">
<stop stop-color="#7389D9"/>
<stop offset="1" stop-color="#34355D"/>
</linearGradient>
<linearGradient id="paint49_linear" x1="-3053.34" y1="-689.572" x2="-3049.69" y2="-689.572" gradientUnits="userSpaceOnUse">
<stop stop-color="#7389D9"/>
<stop offset="1" stop-color="#34355D"/>
</linearGradient>
<linearGradient id="paint50_linear" x1="-6099.2" y1="31.6823" x2="-6093.3" y2="31.6823" gradientUnits="userSpaceOnUse">
<stop stop-color="#7389D9"/>
<stop offset="1" stop-color="#34355D"/>
</linearGradient>
<linearGradient id="paint51_linear" x1="-6101.15" y1="31.7938" x2="-6095.25" y2="31.7938" gradientUnits="userSpaceOnUse">
<stop stop-color="#7389D9"/>
<stop offset="1" stop-color="#34355D"/>
</linearGradient>
<linearGradient id="paint52_linear" x1="-6103.06" y1="31.9078" x2="-6097.18" y2="31.9078" gradientUnits="userSpaceOnUse">
<stop stop-color="#7389D9"/>
<stop offset="1" stop-color="#34355D"/>
</linearGradient>
<linearGradient id="paint53_linear" x1="-6026.87" y1="62.1356" x2="-6021.03" y2="62.1356" gradientUnits="userSpaceOnUse">
<stop stop-color="#7389D9"/>
<stop offset="1" stop-color="#34355D"/>
</linearGradient>
<linearGradient id="paint54_linear" x1="-6106.92" y1="32.1408" x2="-6101.05" y2="32.1408" gradientUnits="userSpaceOnUse">
<stop stop-color="#7389D9"/>
<stop offset="1" stop-color="#34355D"/>
</linearGradient>
<linearGradient id="paint55_linear" x1="-6108.96" y1="32.2558" x2="-6103.08" y2="32.2558" gradientUnits="userSpaceOnUse">
<stop stop-color="#7389D9"/>
<stop offset="1" stop-color="#34355D"/>
</linearGradient>
<linearGradient id="paint56_linear" x1="-6110.79" y1="32.373" x2="-6104.88" y2="32.373" gradientUnits="userSpaceOnUse">
<stop stop-color="#7389D9"/>
<stop offset="1" stop-color="#34355D"/>
</linearGradient>
<linearGradient id="paint57_linear" x1="-6112.74" y1="32.487" x2="-6106.83" y2="32.487" gradientUnits="userSpaceOnUse">
<stop stop-color="#7389D9"/>
<stop offset="1" stop-color="#34355D"/>
</linearGradient>
<linearGradient id="paint58_linear" x1="-6114.64" y1="62.7722" x2="-6108.77" y2="62.7722" gradientUnits="userSpaceOnUse">
<stop stop-color="#7389D9"/>
<stop offset="1" stop-color="#34355D"/>
</linearGradient>
<linearGradient id="paint59_linear" x1="-6116.67" y1="32.7125" x2="-6110.8" y2="32.7125" gradientUnits="userSpaceOnUse">
<stop stop-color="#7389D9"/>
<stop offset="1" stop-color="#34355D"/>
</linearGradient>
<linearGradient id="paint60_linear" x1="-6118.5" y1="63.0483" x2="-6112.63" y2="63.0483" gradientUnits="userSpaceOnUse">
<stop stop-color="#7389D9"/>
<stop offset="1" stop-color="#34355D"/>
</linearGradient>
<linearGradient id="paint61_linear" x1="-3596.86" y1="-540.028" x2="-3592.85" y2="-540.028" gradientUnits="userSpaceOnUse">
<stop stop-color="#7389D9"/>
<stop offset="1" stop-color="#34355D"/>
</linearGradient>
<linearGradient id="paint62_linear" x1="-3598.02" y1="-570.244" x2="-3594.01" y2="-570.244" gradientUnits="userSpaceOnUse">
<stop stop-color="#7389D9"/>
<stop offset="1" stop-color="#34355D"/>
</linearGradient>
<linearGradient id="paint63_linear" x1="-3599.25" y1="-570.377" x2="-3595.24" y2="-570.377" gradientUnits="userSpaceOnUse">
<stop stop-color="#7389D9"/>
<stop offset="1" stop-color="#34355D"/>
</linearGradient>
<linearGradient id="paint64_linear" x1="-3522.22" y1="-570.51" x2="-3518.23" y2="-570.51" gradientUnits="userSpaceOnUse">
<stop stop-color="#7389D9"/>
<stop offset="1" stop-color="#34355D"/>
</linearGradient>
<linearGradient id="paint65_linear" x1="-3601.49" y1="-570.644" x2="-3597.48" y2="-570.644" gradientUnits="userSpaceOnUse">
<stop stop-color="#7389D9"/>
<stop offset="1" stop-color="#34355D"/>
</linearGradient>
<linearGradient id="paint66_linear" x1="-3602.72" y1="-540.62" x2="-3598.71" y2="-540.62" gradientUnits="userSpaceOnUse">
<stop stop-color="#7389D9"/>
<stop offset="1" stop-color="#34355D"/>
</linearGradient>
<linearGradient id="paint67_linear" x1="-3603.88" y1="-540.757" x2="-3599.87" y2="-540.757" gradientUnits="userSpaceOnUse">
<stop stop-color="#7389D9"/>
<stop offset="1" stop-color="#34355D"/>
</linearGradient>
<linearGradient id="paint68_linear" x1="-3604.96" y1="-571.045" x2="-3600.95" y2="-571.045" gradientUnits="userSpaceOnUse">
<stop stop-color="#7389D9"/>
<stop offset="1" stop-color="#34355D"/>
</linearGradient>
<linearGradient id="paint69_linear" x1="-3606.12" y1="-571.178" x2="-3602.11" y2="-571.178" gradientUnits="userSpaceOnUse">
<stop stop-color="#7389D9"/>
<stop offset="1" stop-color="#34355D"/>
</linearGradient>
<linearGradient id="paint70_linear" x1="-3607.35" y1="-571.312" x2="-3603.34" y2="-571.312" gradientUnits="userSpaceOnUse">
<stop stop-color="#7389D9"/>
<stop offset="1" stop-color="#34355D"/>
</linearGradient>
<linearGradient id="paint71_linear" x1="-3608.44" y1="-571.445" x2="-3604.43" y2="-571.445" gradientUnits="userSpaceOnUse">
<stop stop-color="#7389D9"/>
<stop offset="1" stop-color="#34355D"/>
</linearGradient>
</defs>
</svg>
