<svg width="20" height="16" viewBox="0 0 20 16" fill="none" xmlns="http://www.w3.org/2000/svg">
<path d="M19.848 15.7696H0.152344V3.10337L8.6632 1.85315L19.848 3.10337V15.7696Z" fill="white"/>
<path d="M19.8483 3.10308L10.0005 0.209839V15.7694H19.8483V3.10308Z" fill="#E9EDF5"/>
<path d="M0.152344 0.0273438H19.848V3.10428H0.152344V0.0273438Z" fill="#4A7AFF"/>
<path d="M10.0005 0.0273438H19.8483V3.10428H10.0005V0.0273438Z" fill="#0053BF"/>
<path d="M1.84316 2.54033C2.38083 2.54033 2.8167 2.10447 2.8167 1.5668C2.8167 1.02913 2.38083 0.593262 1.84316 0.593262C1.3055 0.593262 0.869629 1.02913 0.869629 1.5668C0.869629 2.10447 1.3055 2.54033 1.84316 2.54033Z" fill="#A3D4FF"/>
<path d="M4.41982 2.54033C4.95749 2.54033 5.39336 2.10447 5.39336 1.5668C5.39336 1.02913 4.95749 0.593262 4.41982 0.593262C3.88216 0.593262 3.44629 1.02913 3.44629 1.5668C3.44629 2.10447 3.88216 2.54033 4.41982 2.54033Z" fill="#A3D4FF"/>
<path d="M13.3079 12.9348L12.0649 11.6918L14.3502 9.40658L12.0649 7.12137L13.3079 5.87842L16.8361 9.40658L13.3079 12.9348Z" fill="#333940"/>
<path d="M6.69277 12.9348L3.16455 9.40658L6.69277 5.87842L7.93572 7.12137L5.65051 9.40658L7.93572 11.6918L6.69277 12.9348Z" fill="#555A66"/>
<path d="M7.99414 12.9532L10.102 5.58729L11.7912 6.07069L9.6834 13.4366L7.99414 12.9532Z" fill="#555A66"/>
<path d="M10.114 5.58618L10 5.98397V12.3668L11.8038 6.07028L10.114 5.58618Z" fill="#333940"/>
</svg>
