<svg width="742" height="552" viewBox="0 0 742 552" fill="none" xmlns="http://www.w3.org/2000/svg">
<path d="M736.884 372.688H654.82C652.35 372.688 650.348 374.69 650.348 377.16V426.07C650.348 428.54 652.35 430.542 654.82 430.542H736.884C739.354 430.542 741.356 428.54 741.356 426.07V377.16C741.356 374.69 739.354 372.688 736.884 372.688Z" fill="#D0C9FD"/>
<path d="M736.355 376.391H656.405C655.821 376.391 655.348 376.865 655.348 377.449V385.397C655.348 385.981 655.821 386.454 656.405 386.454H736.355C736.939 386.454 737.412 385.981 737.412 385.397V377.449C737.412 376.865 736.939 376.391 736.355 376.391Z" fill="white"/>
<path d="M736.355 415.078H656.405C655.821 415.078 655.348 415.551 655.348 416.135V418.29C655.348 418.874 655.821 419.347 656.405 419.347H736.355C736.939 419.347 737.412 418.874 737.412 418.29V416.135C737.412 415.551 736.939 415.078 736.355 415.078Z" fill="white"/>
<path d="M671.834 421.781H656.405C655.821 421.781 655.348 422.254 655.348 422.838V424.993C655.348 425.577 655.821 426.05 656.405 426.05H671.834C672.417 426.05 672.891 425.577 672.891 424.993V422.838C672.891 422.254 672.417 421.781 671.834 421.781Z" fill="white"/>
<path d="M671.305 401.914H656.405C655.821 401.914 655.348 402.387 655.348 402.971V410.919C655.348 411.503 655.821 411.976 656.405 411.976H671.305C671.889 411.976 672.362 411.503 672.362 410.919V402.971C672.362 402.387 671.889 401.914 671.305 401.914Z" fill="white"/>
<path d="M682.16 401.914H674.7C674.116 401.914 673.643 402.387 673.643 402.971V410.919C673.643 411.503 674.116 411.976 674.7 411.976H682.16C682.744 411.976 683.217 411.503 683.217 410.919V402.971C683.217 402.387 682.744 401.914 682.16 401.914Z" fill="white"/>
<path d="M690.088 401.914H685.657C685.073 401.914 684.6 402.387 684.6 402.971V410.919C684.6 411.503 685.073 411.976 685.657 411.976H690.088C690.672 411.976 691.145 411.503 691.145 410.919V402.971C691.145 402.387 690.672 401.914 690.088 401.914Z" fill="white"/>
<path d="M324.164 399.802C323.697 388.317 320.709 376.689 313.899 367.44C311.866 364.594 307.902 361.809 305.056 363.903C304.074 364.772 303.367 365.91 303.023 367.176C299.527 376.872 300.381 387.504 302.373 397.668C302.657 399.091 302.962 400.493 303.267 401.896C297.821 389.386 290.864 377.59 282.553 366.769C278.975 361.972 275.072 357.113 269.767 354.329C268.469 353.502 266.991 353.002 265.458 352.871C263.925 352.74 262.384 352.982 260.965 353.576C257.021 355.752 256.899 361.342 257.692 365.773C261.757 386.691 277.166 402.669 290.034 420.049C277.349 408.096 259.237 390.614 244.255 394.436C243.523 394.619 232.058 399.721 241.246 409.56C252.061 421.269 282.919 432.103 289.525 448C268.466 435.417 259.46 435.539 250.008 436.738C242.73 437.653 232.648 447.532 239.234 454.708C243.787 459.689 251.431 460.156 258.139 459.424C265.457 458.632 272.694 456.843 280.053 456.639C287.411 456.436 295.238 458.062 300.604 463.104L320.587 433.994C323.083 422.771 324.284 411.299 324.164 399.802Z" fill="#9A8BF7"/>
<path d="M651.974 472.887C636.504 456.889 602.576 478.376 586.07 491.569C604.101 474.798 624.693 460.101 633.577 437.537C635.467 432.76 636.402 426.499 632.438 423.307C629.755 421.091 625.791 421.274 622.437 422.331C615.912 424.364 610.565 428.958 605.544 433.593C593.992 443.99 583.752 455.759 575.052 468.639C578.081 441.46 601.662 414.383 590.115 412.818C575.357 410.785 556.351 446.42 553.179 457.641C550.618 445.444 546.796 437.313 544.174 433.532C542.141 430.503 538.767 427.556 535.209 428.43C531.306 429.365 529.863 434.183 529.741 438.187C529.07 460.223 546.898 479.697 546.004 501.712L565.376 537.652C572.43 533.119 581.517 532.936 589.77 534.684C598.023 536.432 605.687 539.949 613.737 542.368C621.095 544.564 642.053 547.227 648.193 542.612C657.076 535.945 652.502 524.317 639.878 520.251C629.552 516.938 615.729 513.32 580.927 523.057C593.124 506.794 619.876 507.363 636.992 499.822C648.314 494.679 658.621 479.738 651.974 472.887Z" fill="#9A8BF7"/>
<path d="M675.98 550.949H143C143.325 549.729 145.297 547.656 150.582 544.261C161.925 536.963 197.743 543.529 197.743 543.529C197.743 543.529 189.409 540.195 189.45 535.865C189.621 533.71 190.386 531.644 191.66 529.896C192.933 528.149 194.666 526.789 196.666 525.966C200.717 524.415 205.077 523.844 209.391 524.299C218.181 524.835 226.825 526.798 234.984 530.113C234.095 529.59 233.324 528.887 232.721 528.051C232.118 527.214 231.695 526.261 231.48 525.252C231.265 524.243 231.262 523.2 231.471 522.19C231.68 521.18 232.097 520.224 232.696 519.384C233.294 518.543 234.061 517.837 234.947 517.309C235.833 516.78 236.819 516.442 237.843 516.316C238.867 516.189 239.906 516.277 240.894 516.573C241.882 516.87 242.798 517.368 243.583 518.038C238.054 510.598 225.166 473.072 251.308 458.517C284.076 440.222 313.369 459.798 318.654 470.714C321.358 459.94 333.717 451.728 341.869 449.776C380.736 440.425 409.114 473.804 409.48 474.373C409.866 473.804 410.252 473.235 410.679 472.666C414.745 467.258 422.876 457.501 429.096 454.635C446.436 446.503 458.531 445.142 477.111 449.776C485.243 451.809 497.622 459.94 500.306 470.714C505.611 459.757 530.493 444.735 563.322 462.969C589.464 477.524 580.967 510.557 575.519 517.997C576.304 517.328 577.22 516.829 578.208 516.533C579.196 516.236 580.235 516.148 581.259 516.275C582.283 516.402 583.269 516.74 584.155 517.268C585.041 517.796 585.808 518.503 586.406 519.343C587.005 520.183 587.422 521.139 587.631 522.149C587.841 523.159 587.838 524.202 587.622 525.211C587.407 526.22 586.985 527.173 586.381 528.01C585.778 528.847 585.007 529.549 584.118 530.072C592.28 526.776 600.924 524.833 609.711 524.319C614.025 523.864 618.385 524.435 622.436 525.986C624.436 526.809 626.169 528.169 627.442 529.917C628.716 531.664 629.481 533.73 629.653 535.886C629.653 540.216 621.359 543.549 621.359 543.549C621.359 543.549 657.177 536.983 668.52 544.281C673.683 547.656 675.655 549.729 675.98 550.949Z" fill="#D0C9FD"/>
<path d="M550.883 531.878C550.883 531.878 585.806 477.338 606.236 507.037C624.104 532.996 559.482 545.66 559.482 545.66" fill="#D0C9FD"/>
<path d="M301.804 159.773C301.828 164.818 300.356 169.758 297.573 173.966C294.789 178.175 290.821 181.464 286.168 183.417C281.516 185.37 276.389 185.9 271.435 184.939C266.482 183.979 261.925 181.571 258.34 178.02C254.755 174.469 252.304 169.935 251.296 164.991C250.288 160.047 250.768 154.915 252.677 150.244C254.585 145.573 257.836 141.574 262.018 138.75C266.2 135.927 271.125 134.407 276.171 134.383C282.935 134.356 289.434 137.014 294.24 141.775C299.046 146.535 301.767 153.008 301.804 159.773Z" fill="#9A8BF7"/>
<path d="M258.2 174.371L253.017 191.65L267.043 180.917" fill="#9A8BF7"/>
<path d="M265.069 161.129L275.152 170.825L288.487 152.652" stroke="white" stroke-width="2.15" stroke-linecap="round" stroke-linejoin="round"/>
<path d="M640.814 284.367C640.786 286.522 640.119 288.62 638.899 290.396C637.678 292.171 635.958 293.546 633.957 294.344C631.955 295.143 629.762 295.33 627.654 294.882C625.546 294.434 623.619 293.371 622.115 291.827C620.611 290.284 619.599 288.329 619.206 286.21C618.813 284.091 619.057 281.903 619.908 279.923C620.758 277.944 622.177 276.26 623.984 275.086C625.791 273.913 627.906 273.301 630.061 273.329C631.492 273.347 632.905 273.648 634.22 274.213C635.534 274.777 636.725 275.596 637.724 276.621C638.722 277.646 639.509 278.857 640.039 280.186C640.57 281.516 640.833 282.936 640.814 284.367Z" fill="#D0C9FD"/>
<path d="M625.121 284.667L629.37 288.874L635.183 281.211" stroke="white" stroke-width="1.14" stroke-linecap="round" stroke-linejoin="round"/>
<path d="M60.6518 204.698C60.6518 205.502 60.4133 206.288 59.9666 206.957C59.5198 207.626 58.8849 208.147 58.142 208.454C57.3991 208.762 56.5817 208.843 55.793 208.686C55.0044 208.529 54.2799 208.142 53.7113 207.573C53.1427 207.005 52.7555 206.28 52.5987 205.491C52.4418 204.703 52.5223 203.885 52.83 203.142C53.1378 202.4 53.6588 201.765 54.3274 201.318C54.996 200.871 55.782 200.633 56.5861 200.633C57.6644 200.633 58.6985 201.061 59.461 201.823C60.2234 202.586 60.6518 203.62 60.6518 204.698Z" fill="#D0C9FD"/>
<path d="M52.8461 299.146C52.8501 299.634 52.7093 300.111 52.4415 300.518C52.1737 300.926 51.7909 301.244 51.3418 301.433C50.8928 301.623 50.3976 301.674 49.9191 301.582C49.4406 301.489 49.0005 301.256 48.6544 300.913C48.3084 300.57 48.0721 300.132 47.9756 299.654C47.879 299.176 47.9265 298.681 48.112 298.23C48.2976 297.78 48.6129 297.394 49.0178 297.123C49.4227 296.852 49.8991 296.707 50.3864 296.707C50.7085 296.704 51.0278 296.765 51.3261 296.887C51.6244 297.008 51.8957 297.187 52.1244 297.414C52.3531 297.641 52.5346 297.911 52.6585 298.208C52.7823 298.505 52.8461 298.824 52.8461 299.146Z" fill="#D0C9FD"/>
<path d="M110.884 347.159C110.88 347.64 110.733 348.11 110.463 348.508C110.192 348.907 109.81 349.216 109.364 349.398C108.918 349.579 108.428 349.625 107.956 349.528C107.484 349.432 107.051 349.198 106.712 348.856C106.373 348.514 106.143 348.08 106.05 347.607C105.958 347.134 106.007 346.645 106.193 346.2C106.378 345.756 106.69 345.376 107.091 345.109C107.492 344.842 107.963 344.699 108.444 344.699C108.766 344.699 109.085 344.763 109.382 344.887C109.68 345.011 109.95 345.192 110.176 345.421C110.403 345.649 110.582 345.921 110.704 346.219C110.825 346.517 110.886 346.837 110.884 347.159Z" fill="#D0C9FD"/>
<path d="M682.446 180.202C682.446 181.006 682.207 181.792 681.761 182.461C681.314 183.13 680.679 183.651 679.936 183.958C679.193 184.266 678.376 184.347 677.587 184.19C676.798 184.033 676.074 183.646 675.505 183.077C674.937 182.508 674.549 181.784 674.393 180.995C674.236 180.207 674.316 179.389 674.624 178.646C674.932 177.903 675.453 177.269 676.121 176.822C676.79 176.375 677.576 176.137 678.38 176.137C679.458 176.137 680.492 176.565 681.255 177.327C682.017 178.09 682.446 179.124 682.446 180.202Z" fill="#D0C9FD"/>
<path d="M284.585 261.784C284.585 262.588 284.347 263.374 283.9 264.043C283.453 264.712 282.819 265.233 282.076 265.54C281.333 265.848 280.515 265.929 279.727 265.772C278.938 265.615 278.214 265.228 277.645 264.659C277.076 264.09 276.689 263.366 276.532 262.577C276.375 261.789 276.456 260.971 276.764 260.228C277.071 259.485 277.592 258.851 278.261 258.404C278.93 257.957 279.716 257.719 280.52 257.719C281.598 257.719 282.632 258.147 283.395 258.909C284.157 259.672 284.585 260.706 284.585 261.784Z" fill="#9A8BF7"/>
<path d="M80.2266 77.7666C79.8923 77.7666 79.5717 77.6336 79.3354 77.3976C79.099 77.1606 78.9662 76.8406 78.9662 76.5056V67.5006C78.9434 67.3206 78.9592 67.1376 79.0126 66.9636C79.066 66.7896 79.1558 66.6296 79.2759 66.4926C79.3961 66.3566 79.544 66.2476 79.7096 66.1726C79.8753 66.0976 80.055 66.0586 80.2367 66.0586C80.4185 66.0586 80.5982 66.0976 80.7639 66.1726C80.9295 66.2476 81.0774 66.3566 81.1976 66.4926C81.3177 66.6296 81.4075 66.7896 81.4609 66.9636C81.5143 67.1376 81.5301 67.3206 81.5073 67.5006V76.5056C81.5019 76.8426 81.3646 77.1626 81.125 77.3986C80.8855 77.6346 80.5627 77.7666 80.2266 77.7666Z" fill="#D0C9FD"/>
<path d="M84.7411 73.2758H75.7358C75.3961 73.2758 75.0704 73.1408 74.8302 72.9008C74.59 72.6608 74.4551 72.3349 74.4551 71.9949C74.4551 71.6559 74.59 71.3298 74.8302 71.0898C75.0704 70.8498 75.3961 70.7148 75.7358 70.7148H84.7411C85.0807 70.7148 85.4065 70.8498 85.6466 71.0898C85.8868 71.3298 86.0218 71.6559 86.0218 71.9949C86.0218 72.3349 85.8868 72.6608 85.6466 72.9008C85.4065 73.1408 85.0807 73.2758 84.7411 73.2758Z" fill="#D0C9FD"/>
<path d="M639.533 137.915C639.193 137.915 638.867 137.78 638.627 137.54C638.387 137.3 638.252 136.974 638.252 136.634V127.609C638.252 127.269 638.387 126.943 638.627 126.703C638.867 126.463 639.193 126.328 639.533 126.328C639.872 126.328 640.198 126.463 640.438 126.703C640.678 126.943 640.813 127.269 640.813 127.609V136.614C640.816 136.784 640.785 136.953 640.722 137.11C640.659 137.268 640.565 137.412 640.445 137.533C640.326 137.654 640.184 137.75 640.027 137.816C639.871 137.881 639.703 137.915 639.533 137.915Z" fill="#D0C9FD"/>
<path d="M644.045 133.41H635.039C634.859 133.433 634.676 133.417 634.502 133.364C634.328 133.311 634.168 133.221 634.032 133.101C633.895 132.981 633.786 132.833 633.711 132.667C633.636 132.501 633.598 132.322 633.598 132.14C633.598 131.958 633.636 131.778 633.711 131.613C633.786 131.447 633.895 131.299 634.032 131.179C634.168 131.059 634.328 130.969 634.502 130.916C634.676 130.862 634.859 130.847 635.039 130.869H644.045C644.354 130.909 644.638 131.059 644.844 131.293C645.051 131.527 645.164 131.828 645.164 132.14C645.164 132.452 645.051 132.753 644.844 132.987C644.638 133.221 644.354 133.371 644.045 133.41Z" fill="#D0C9FD"/>
<path d="M118.18 240.433C117.844 240.433 117.521 240.301 117.282 240.065C117.042 239.829 116.905 239.509 116.899 239.173V230.167C116.899 229.828 117.034 229.502 117.275 229.262C117.515 229.021 117.84 228.887 118.18 228.887C118.52 228.887 118.845 229.021 119.086 229.262C119.326 229.502 119.461 229.828 119.461 230.167V239.173C119.455 239.509 119.318 239.829 119.079 240.065C118.839 240.301 118.516 240.433 118.18 240.433Z" fill="#D0C9FD"/>
<path d="M122.673 235.936H113.668C113.332 235.931 113.011 235.794 112.775 235.554C112.539 235.314 112.407 234.992 112.407 234.656C112.407 234.319 112.539 233.997 112.775 233.757C113.011 233.517 113.332 233.38 113.668 233.375H122.673C123.013 233.375 123.338 233.51 123.578 233.75C123.819 233.99 123.954 234.316 123.954 234.656C123.954 234.995 123.819 235.321 123.578 235.561C123.338 235.801 123.013 235.936 122.673 235.936Z" fill="#D0C9FD"/>
<path d="M298.979 38.7999C298.639 38.7999 298.314 38.6649 298.073 38.4249C297.833 38.1849 297.698 37.8589 297.698 37.5189V28.5139C297.704 28.1779 297.841 27.8569 298.08 27.6219C298.32 27.3859 298.643 27.2539 298.979 27.2539C299.315 27.2539 299.638 27.3859 299.877 27.6219C300.117 27.8569 300.254 28.1779 300.26 28.5139V37.5189C300.26 37.8589 300.125 38.1849 299.884 38.4249C299.644 38.6649 299.319 38.7999 298.979 38.7999Z" fill="#D0C9FD"/>
<path d="M303.491 34.311H294.486C294.146 34.311 293.82 34.176 293.58 33.936C293.34 33.696 293.205 33.37 293.205 33.031C293.205 32.691 293.34 32.365 293.58 32.125C293.82 31.885 294.146 31.75 294.486 31.75H303.491C303.831 31.75 304.157 31.885 304.397 32.125C304.637 32.365 304.772 32.691 304.772 33.031C304.767 33.369 304.63 33.691 304.391 33.93C304.152 34.169 303.829 34.306 303.491 34.311Z" fill="#D0C9FD"/>
<path opacity="0.3" d="M620.323 346.729C620.323 346.445 620.202 346.14 620.12 345.835C619.869 344.637 619.543 343.455 619.145 342.298C618.24 339.703 617.003 337.236 615.465 334.959L619.043 331.402L610.485 322.763L610.302 322.925L606.907 326.34C603.351 323.94 599.348 322.281 595.137 321.461V316.461H582.94V321.523C578.722 322.337 574.711 323.997 571.15 326.401L567.674 322.763L559.014 331.402L562.612 334.959C560.205 338.514 558.539 342.517 557.713 346.729H552.672V358.926H557.734C558.54 363.147 560.2 367.16 562.612 370.716L559.014 374.192L567.593 382.771L571.15 379.193C574.708 381.599 578.72 383.253 582.94 384.051V389.133H595.137V384.051C599.35 383.249 603.355 381.596 606.907 379.193L610.302 382.608L610.485 382.771L615.628 377.608L619.043 374.192L615.628 370.798L615.465 370.635L615.628 370.391C617.957 366.899 619.554 362.971 620.323 358.845H625.405V346.648L620.323 346.729ZM589.079 373.034C585.059 373.034 581.129 371.841 577.786 369.608C574.443 367.374 571.837 364.199 570.299 360.485C568.76 356.77 568.358 352.683 569.142 348.74C569.926 344.797 571.862 341.175 574.705 338.332C577.548 335.489 581.17 333.553 585.114 332.768C589.057 331.984 593.144 332.386 596.859 333.925C600.573 335.464 603.748 338.069 605.981 341.412C608.215 344.755 609.407 348.685 609.407 352.706C609.407 358.097 607.266 363.267 603.453 367.08C599.641 370.892 594.471 373.034 589.079 373.034Z" fill="#ACE2F9"/>
<path opacity="0.5" d="M90.7175 535.026C90.7175 534.742 90.5955 534.416 90.5142 534.132C90.2658 532.933 89.9399 531.751 89.5385 530.595C88.6341 528 87.3973 525.533 85.8591 523.256L89.4572 519.678L80.8788 511.12L80.7161 511.283L77.24 514.698C73.6888 512.289 69.684 510.629 65.4701 509.819V504.758H53.2733V509.779C49.0541 510.592 45.0433 512.252 41.4831 514.657L37.9257 511.08L29.3472 519.638L32.9453 523.215C30.5383 526.77 28.8721 530.773 28.0462 534.985H23.0049V547.182H28.0666C28.3078 548.469 28.6338 549.739 29.0423 550.984H41.666C39.9055 547.892 38.9873 544.392 39.0032 540.834C39.0192 537.276 39.9688 533.784 41.757 530.708C43.5452 527.632 46.1094 525.08 49.1934 523.305C52.2773 521.531 55.7731 520.597 59.3311 520.597C62.8891 520.597 66.3847 521.531 69.4687 523.305C72.5527 525.08 75.117 527.632 76.9052 530.708C78.6934 533.784 79.6429 537.276 79.6589 540.834C79.6749 544.392 78.7567 547.892 76.9961 550.984H89.5994C90.008 549.739 90.334 548.469 90.5752 547.182H95.6572V534.985L90.7175 535.026Z" fill="#ACE2F9"/>
<path d="M96.0037 487.761C88.573 487.761 81.309 485.557 75.1309 481.429C68.9527 477.3 64.1379 471.432 61.2952 464.566C58.4525 457.701 57.7097 450.146 59.1609 442.859C60.612 435.571 64.1918 428.877 69.4476 423.625C74.7033 418.372 81.3989 414.795 88.6874 413.348C95.9758 411.901 103.53 412.648 110.394 415.494C117.258 418.341 123.123 423.159 127.249 429.339C131.374 435.519 133.574 442.785 133.57 450.215C133.554 460.172 129.59 469.715 122.548 476.754C115.506 483.792 105.96 487.75 96.0037 487.761ZM96.0037 417.609C89.5709 417.609 83.2826 419.517 77.9339 423.091C72.5852 426.664 68.4163 431.744 65.9546 437.687C63.4929 443.63 62.8488 450.17 64.1037 456.479C65.3587 462.788 68.4564 468.584 73.0051 473.132C77.5537 477.681 83.3492 480.779 89.6584 482.034C95.9676 483.289 102.507 482.645 108.45 480.183C114.394 477.721 119.473 473.553 123.047 468.204C126.621 462.855 128.529 456.567 128.529 450.134C128.529 441.508 125.102 433.235 119.002 427.135C112.903 421.036 104.63 417.609 96.0037 417.609Z" fill="#9A8BF7"/>
<path d="M112.551 459.084C112.651 456.934 112.005 454.815 110.722 453.087C109.482 451.556 107.883 450.355 106.067 449.591C103.947 448.748 101.765 448.068 99.5412 447.558V435.361C101.441 435.605 103.304 436.076 105.091 436.764C105.486 436.929 105.909 437.015 106.337 437.016C106.766 437.017 107.19 436.932 107.585 436.768C107.98 436.603 108.339 436.362 108.64 436.057C108.941 435.753 109.179 435.392 109.339 434.995C109.515 434.584 109.606 434.141 109.606 433.694C109.606 433.247 109.515 432.804 109.339 432.393C109.19 432.022 108.967 431.685 108.684 431.402C108.401 431.119 108.064 430.896 107.693 430.747C105.079 429.77 102.343 429.161 99.5616 428.937V425.258C99.5985 424.772 99.5346 424.284 99.3741 423.824C99.2136 423.365 98.9598 422.943 98.6287 422.586C98.2976 422.228 97.8963 421.943 97.4499 421.748C97.0035 421.554 96.5217 421.453 96.0346 421.453C95.5475 421.453 95.0657 421.554 94.6193 421.748C94.1729 421.943 93.7716 422.228 93.4405 422.586C93.1094 422.943 92.8557 423.365 92.6951 423.824C92.5346 424.284 92.4708 424.772 92.5077 425.258V429.1C88.9622 429.391 85.6047 430.816 82.9332 433.166C81.825 434.206 80.9469 435.467 80.3552 436.868C79.7636 438.268 79.4714 439.777 79.4978 441.297C79.372 443.481 80.0198 445.641 81.3273 447.395C82.5743 448.941 84.1887 450.15 86.0231 450.912C88.1282 451.758 90.2964 452.438 92.5077 452.945V465.06C90.4247 464.812 88.3779 464.321 86.4093 463.597C85.6978 463.332 85.0067 463.048 84.3765 462.743C83.9893 462.558 83.5658 462.46 83.1365 462.458C82.7675 462.455 82.4015 462.524 82.0591 462.662C81.6431 462.817 81.262 463.054 80.9376 463.357C80.6131 463.661 80.3518 464.025 80.1686 464.43C79.8149 465.218 79.785 466.114 80.0854 466.924C80.3858 467.734 80.9925 468.393 81.7745 468.76C82.7523 469.209 83.757 469.596 84.7831 469.919C87.3163 470.754 89.9468 471.26 92.6093 471.423V475.123C92.6769 476.012 93.0778 476.843 93.7318 477.449C94.3857 478.055 95.2446 478.392 96.1363 478.392C97.028 478.392 97.8868 478.055 98.5408 477.449C99.1947 476.843 99.5956 476.012 99.6632 475.123V471.159C103.212 470.858 106.573 469.434 109.258 467.093C110.336 466.062 111.186 464.817 111.754 463.437C112.321 462.058 112.592 460.575 112.551 459.084ZM89.1129 444.061C88.6551 443.675 88.2883 443.192 88.0388 442.648C87.7893 442.103 87.6632 441.51 87.6697 440.911C87.6605 439.67 88.1343 438.474 88.991 437.577C89.9525 436.626 91.1656 435.97 92.4874 435.686V445.85C91.2596 445.473 90.1146 444.866 89.1129 444.061ZM103.017 463.027C102.038 463.914 100.837 464.518 99.5412 464.776V454.896C100.778 455.278 101.93 455.892 102.936 456.705C103.388 457.092 103.749 457.572 103.995 458.113C104.241 458.654 104.365 459.242 104.359 459.836C104.363 460.431 104.247 461.021 104.016 461.57C103.785 462.118 103.446 462.614 103.017 463.027Z" fill="#9A8BF7"/>
<path d="M706.007 316.498C701.439 316.498 696.975 315.143 693.177 312.606C689.38 310.068 686.42 306.462 684.672 302.242C682.924 298.023 682.467 293.379 683.358 288.9C684.249 284.42 686.448 280.306 689.678 277.076C692.907 273.846 697.022 271.647 701.502 270.756C705.981 269.865 710.624 270.322 714.844 272.07C719.064 273.818 722.67 276.778 725.208 280.575C727.745 284.373 729.099 288.838 729.099 293.405C729.094 299.528 726.659 305.398 722.33 309.728C718 314.058 712.13 316.492 706.007 316.498ZM706.007 273.362C702.042 273.362 698.167 274.537 694.871 276.74C691.575 278.942 689.006 282.072 687.489 285.735C685.972 289.397 685.575 293.427 686.348 297.315C687.122 301.203 689.031 304.775 691.834 307.578C694.637 310.381 698.208 312.29 702.096 313.063C705.984 313.837 710.015 313.44 713.677 311.923C717.339 310.406 720.47 307.837 722.672 304.541C724.875 301.244 726.05 297.369 726.05 293.405C726.045 288.091 723.931 282.996 720.174 279.238C716.416 275.48 711.321 273.367 706.007 273.362Z" fill="#D0C9FD"/>
<path d="M716.191 298.855C716.254 297.533 715.851 296.231 715.053 295.176C714.29 294.231 713.305 293.491 712.187 293.021C710.866 292.501 709.507 292.087 708.121 291.781V284.321C709.29 284.475 710.437 284.768 711.536 285.195C712.03 285.391 712.581 285.386 713.071 285.18C713.561 284.975 713.951 284.586 714.158 284.097C714.267 283.843 714.324 283.57 714.324 283.294C714.324 283.018 714.267 282.745 714.158 282.491C714.065 282.265 713.927 282.06 713.752 281.889C713.578 281.718 713.37 281.584 713.142 281.495C711.534 280.894 709.852 280.518 708.141 280.377V278.039C708.089 277.501 707.839 277.002 707.438 276.639C707.038 276.275 706.517 276.074 705.976 276.074C705.436 276.074 704.915 276.275 704.515 276.639C704.114 277.002 703.864 277.501 703.811 278.039V280.418C701.626 280.6 699.558 281.484 697.916 282.938C697.25 283.585 696.725 284.364 696.375 285.225C696.025 286.086 695.858 287.01 695.884 287.939C695.82 289.27 696.215 290.583 697.002 291.659C697.781 292.603 698.779 293.343 699.908 293.814C701.224 294.363 702.584 294.799 703.974 295.115V302.473C702.673 302.333 701.395 302.025 700.173 301.559C699.741 301.411 699.32 301.234 698.912 301.03C698.668 300.926 698.406 300.871 698.14 300.868C697.917 300.867 697.697 300.908 697.489 300.989C697.108 301.124 696.776 301.368 696.534 301.692C696.293 302.016 696.153 302.405 696.134 302.808C696.114 303.212 696.215 303.612 696.424 303.958C696.633 304.304 696.94 304.58 697.307 304.75C697.876 304.994 698.486 305.238 699.156 305.462C700.718 305.967 702.336 306.274 703.974 306.376V308.653C703.945 308.955 703.979 309.26 704.074 309.548C704.17 309.836 704.325 310.1 704.528 310.325C704.732 310.55 704.981 310.729 705.258 310.852C705.536 310.975 705.836 311.038 706.139 311.038C706.442 311.038 706.742 310.975 707.02 310.852C707.297 310.729 707.546 310.55 707.75 310.325C707.953 310.1 708.108 309.836 708.204 309.548C708.299 309.26 708.333 308.955 708.304 308.653V306.254C710.49 306.059 712.556 305.169 714.199 303.713C714.848 303.084 715.359 302.328 715.702 301.492C716.045 300.656 716.211 299.758 716.191 298.855ZM701.779 289.626C701.494 289.392 701.267 289.097 701.112 288.762C700.957 288.428 700.879 288.063 700.884 287.695C700.879 287.319 700.948 286.946 701.088 286.597C701.227 286.248 701.434 285.931 701.697 285.662C702.288 285.075 703.037 284.672 703.852 284.503V290.704C703.095 290.488 702.39 290.122 701.779 289.626ZM710.316 301.294C709.744 301.824 709.043 302.195 708.284 302.372V296.273C709.019 296.529 709.707 296.907 710.316 297.391C710.595 297.625 710.819 297.917 710.97 298.248C711.121 298.578 711.196 298.939 711.19 299.302C711.189 299.677 711.111 300.047 710.961 300.389C710.811 300.732 710.591 301.04 710.316 301.294Z" fill="#D0C9FD"/>
<path d="M196.587 25.9767H196.444V20.3667C196.319 17.3907 195.049 14.5777 192.9 12.5167C190.75 10.4547 187.887 9.30469 184.908 9.30469C181.93 9.30469 179.067 10.4547 176.917 12.5167C174.767 14.5777 173.497 17.3907 173.372 20.3667V25.9767H173.189C172.65 25.9767 172.133 26.1907 171.752 26.5717C171.37 26.9537 171.156 27.4707 171.156 28.0097V43.6617C171.156 44.2017 171.37 44.7187 171.752 45.0997C172.133 45.4807 172.65 45.6947 173.189 45.6947H196.587C197.126 45.6947 197.643 45.4807 198.024 45.0997C198.405 44.7187 198.619 44.2017 198.619 43.6617V28.0097C198.619 27.4707 198.405 26.9537 198.024 26.5717C197.643 26.1907 197.126 25.9767 196.587 25.9767ZM176.95 20.3667C176.95 18.2527 177.789 16.2257 179.284 14.7317C180.778 13.2367 182.805 12.3977 184.918 12.3977C187.032 12.3977 189.059 13.2367 190.553 14.7317C192.047 16.2257 192.887 18.2527 192.887 20.3667V25.9767H176.95V20.3667ZM186.565 35.6527L187.541 40.4097C187.559 40.5007 187.556 40.5937 187.534 40.6837C187.512 40.7727 187.47 40.8567 187.412 40.9287C187.354 41.0007 187.28 41.0587 187.197 41.0987C187.114 41.1387 187.023 41.1607 186.931 41.1617H182.865C182.773 41.1607 182.682 41.1387 182.599 41.0987C182.516 41.0587 182.442 41.0007 182.384 40.9287C182.326 40.8567 182.284 40.7727 182.262 40.6837C182.24 40.5937 182.237 40.5007 182.255 40.4097L183.211 35.6937C183.249 35.4817 183.235 35.2647 183.171 35.0597C183.108 34.8547 182.996 34.6677 182.845 34.5147C182.52 34.1937 182.281 33.7967 182.15 33.3607C182.018 32.9237 181.999 32.4607 182.093 32.0137C182.236 31.3387 182.623 30.7397 183.18 30.3317C183.738 29.9237 184.426 29.7357 185.113 29.8037C185.801 29.8717 186.439 30.1907 186.905 30.6997C187.372 31.2087 187.634 31.8727 187.642 32.5627C187.644 33.2727 187.375 33.9557 186.89 34.4737C186.747 34.6357 186.644 34.8277 186.587 35.0357C186.531 35.2437 186.523 35.4617 186.565 35.6737V35.6527Z" fill="#9A8BF7"/>
<path d="M213.254 1.23438H156.539C155.742 1.23438 155.096 1.88038 155.096 2.67838V51.8104C155.096 52.6074 155.742 53.2544 156.539 53.2544H213.254C214.051 53.2544 214.697 52.6074 214.697 51.8104V2.67838C214.697 1.88038 214.051 1.23438 213.254 1.23438Z" stroke="#9A8BF7" stroke-width="0.64" stroke-miterlimit="10"/>
<path d="M582.636 4.34375L586.559 20.7687H415.804C393.443 20.7687 372.18 38.8807 368.236 61.2207L294.588 479.145C294.384 480.222 294.262 481.279 294.161 482.336L289.465 478.698L280.866 476.523C280.866 476.523 286.416 519.984 327.905 519.598H504.413C526.774 519.598 548.058 501.485 552.001 479.145L625.69 61.2207C625.95 59.7067 626.133 58.1798 626.239 56.6478C634.736 6.92475 582.636 4.34375 582.636 4.34375Z" fill="#00347F"/>
<path d="M490.692 502.95H314.164C291.803 502.95 276.923 484.858 280.846 462.518L354.556 44.5736C358.479 22.2126 379.783 4.14062 402.123 4.14062H578.652C601.012 4.14062 615.892 22.2536 611.949 44.5736L538.26 462.518C534.336 484.858 513.033 502.95 490.692 502.95Z" fill="#8ABFFF"/>
<path d="M603.898 45.3948L530.554 461.286C527.241 480.11 509.291 495.355 490.467 495.355H317.11C298.286 495.355 285.724 480.11 289.037 461.286L362.38 45.3948C365.775 26.0828 384.192 10.4308 403.504 10.4308H417.388C419.17 10.3648 420.915 10.9458 422.302 12.0668C423.688 13.1878 424.622 14.7729 424.93 16.5289L427.552 30.3318C427.84 31.9138 428.69 33.3378 429.945 34.3428C431.2 35.3478 432.776 35.8648 434.382 35.7998H535.372C537.188 35.7428 538.956 35.2078 540.499 34.2478C542.041 33.2868 543.302 31.9358 544.154 30.3318L551.614 16.5488C552.545 14.7698 553.931 13.2679 555.631 12.1969C557.33 11.1259 559.283 10.5228 561.29 10.4508H575.174C594.425 10.4308 607.313 26.0828 603.898 45.3948Z" fill="#604CDA"/>
<path d="M511.447 25.7679H454.711C454.222 25.7879 453.735 25.6939 453.288 25.4939C452.841 25.2939 452.447 24.9929 452.136 24.6149C451.825 24.2369 451.605 23.7919 451.495 23.3149C451.384 22.8379 451.386 22.3419 451.499 21.8649C451.718 20.7959 452.29 19.8319 453.123 19.1279C453.957 18.4229 455.003 18.0199 456.093 17.9829H512.829C513.316 17.9639 513.801 18.0579 514.246 18.2569C514.691 18.4559 515.084 18.7549 515.394 19.1299C515.705 19.5059 515.925 19.9479 516.037 20.4219C516.149 20.8969 516.15 21.3899 516.041 21.8649C515.826 22.9379 515.256 23.9069 514.422 24.6159C513.588 25.3239 512.54 25.7299 511.447 25.7679Z" fill="#165E99"/>
<path d="M529.925 21.901C529.714 22.972 529.148 23.94 528.318 24.649C527.487 25.357 526.442 25.764 525.351 25.803C524.862 25.823 524.375 25.729 523.928 25.529C523.481 25.329 523.086 25.028 522.775 24.65C522.464 24.272 522.245 23.827 522.134 23.35C522.024 22.873 522.026 22.377 522.139 21.901C522.353 20.833 522.921 19.869 523.751 19.165C524.581 18.46 525.625 18.056 526.713 18.018C527.2 17.999 527.685 18.093 528.13 18.292C528.575 18.491 528.968 18.79 529.278 19.165C529.589 19.541 529.809 19.983 529.921 20.457C530.033 20.932 530.034 21.426 529.925 21.901Z" fill="#165E99"/>
<path d="M612.498 101.897V101.328H610.322C609.024 101.372 607.78 101.854 606.791 102.696C605.801 103.537 605.126 104.689 604.875 105.963L594.589 164.304C594.457 164.87 594.458 165.459 594.59 166.024C594.723 166.59 594.984 167.118 595.354 167.566C595.724 168.014 596.192 168.371 596.722 168.609C597.252 168.848 597.83 168.96 598.41 168.939H600.585V168.37C601.393 167.984 602.1 167.416 602.65 166.711C603.2 166.005 603.579 165.181 603.756 164.304L614.042 105.963C614.226 105.208 614.176 104.416 613.901 103.69C613.625 102.965 613.136 102.339 612.498 101.897Z" fill="#083249"/>
<path d="M600.666 168.942C600.085 168.963 599.508 168.85 598.978 168.612C598.448 168.374 597.98 168.017 597.61 167.568C597.24 167.12 596.979 166.593 596.846 166.027C596.713 165.461 596.713 164.873 596.844 164.307L607.13 105.965C607.385 104.693 608.062 103.544 609.05 102.703C610.039 101.862 611.281 101.378 612.578 101.331C613.159 101.309 613.737 101.422 614.267 101.66C614.797 101.898 615.265 102.255 615.634 102.704C616.004 103.152 616.265 103.679 616.398 104.245C616.531 104.811 616.531 105.399 616.4 105.965L606.114 164.307C605.862 165.581 605.187 166.732 604.198 167.574C603.209 168.415 601.964 168.897 600.666 168.942Z" fill="#8ABFFF"/>
<path d="M468.351 399.033L464.611 420.337C464.397 421.52 463.776 422.59 462.855 423.363C461.934 424.135 460.771 424.561 459.57 424.565H371.102C370.345 424.567 369.598 424.401 368.913 424.08C368.228 423.758 367.623 423.289 367.141 422.706C366.659 422.123 366.312 421.441 366.126 420.708C365.939 419.975 365.917 419.209 366.061 418.467L369.537 398.728C369.743 397.542 370.362 396.467 371.285 395.693C372.207 394.919 373.374 394.497 374.578 394.5H464.611C465.174 394.495 465.731 394.616 466.242 394.853C466.753 395.091 467.204 395.44 467.562 395.875C467.921 396.309 468.178 396.818 468.314 397.365C468.451 397.911 468.463 398.481 468.351 399.033Z" fill="white"/>
<path d="M512.728 367.017C512.576 367.983 512.082 368.862 511.335 369.493C510.589 370.124 509.64 370.464 508.662 370.452H343.192C342.587 370.444 341.991 370.304 341.445 370.043C340.9 369.782 340.417 369.405 340.031 368.94C339.644 368.474 339.363 367.93 339.207 367.346C339.051 366.761 339.024 366.15 339.126 365.553C339.304 364.6 339.806 363.737 340.547 363.111C341.288 362.485 342.222 362.134 343.192 362.118H508.662C509.274 362.105 509.881 362.23 510.438 362.484C510.994 362.739 511.486 363.115 511.877 363.586C512.268 364.057 512.548 364.61 512.695 365.204C512.842 365.798 512.853 366.418 512.728 367.017Z" fill="white"/>
<path d="M438.813 366.686C438.714 367.224 438.431 367.711 438.012 368.064C437.593 368.416 437.064 368.612 436.516 368.617H343.658C343.316 368.62 342.977 368.547 342.667 368.403C342.356 368.26 342.081 368.049 341.862 367.787C341.642 367.525 341.483 367.217 341.397 366.886C341.31 366.555 341.298 366.209 341.361 365.872C341.453 365.33 341.734 364.839 342.155 364.485C342.576 364.131 343.108 363.938 343.658 363.941H436.516C436.856 363.946 437.191 364.023 437.498 364.169C437.805 364.315 438.077 364.525 438.295 364.786C438.514 365.046 438.673 365.351 438.762 365.679C438.852 366.007 438.869 366.35 438.813 366.686Z" fill="#7CD4F7"/>
<path d="M381.922 221.231C381.93 221.223 381.93 221.211 381.923 221.202C381.915 221.194 381.902 221.193 381.894 221.201C381.886 221.209 381.885 221.221 381.893 221.23C381.9 221.238 381.913 221.239 381.922 221.231Z" fill="black"/>
<path d="M405.448 406.455C404.824 406.455 404.286 406.344 403.836 406.121C403.385 405.899 403.04 405.59 402.799 405.193C402.559 404.791 402.439 404.325 402.439 403.797C402.439 403.094 402.598 402.454 402.917 401.878C403.235 401.301 403.685 400.845 404.268 400.508C404.857 400.172 405.536 400.004 406.304 400.004C406.827 400.004 407.289 400.091 407.692 400.265C408.094 400.433 408.404 400.673 408.62 400.986L407.971 401.544C407.593 401.052 407.016 400.805 406.241 400.805C405.659 400.805 405.148 400.938 404.71 401.202C404.271 401.466 403.932 401.824 403.691 402.274C403.457 402.719 403.34 403.208 403.34 403.743C403.34 404.325 403.526 404.791 403.899 405.139C404.277 405.482 404.815 405.653 405.511 405.653C406.286 405.653 406.923 405.404 407.422 404.905L407.944 405.5C407.656 405.812 407.295 406.049 406.863 406.211C406.437 406.374 405.965 406.455 405.448 406.455ZM413.116 404.806H409.747L408.747 406.383H407.773L411.9 400.076H412.792L414.387 406.383H413.495L413.116 404.806ZM412.936 404.085L412.188 400.977L410.206 404.085H412.936ZM422.013 400.076L420.752 406.383H420.013L417.193 401.526L416.229 406.383H415.328L416.589 400.076H417.328L420.148 404.932L421.112 400.076H422.013Z" fill="#165E99"/>
<path d="M180.608 119.483C180.608 119.483 177.945 104.969 164.346 107.815C162.127 108.194 160.036 109.112 158.255 110.489C156.475 111.866 155.06 113.658 154.134 115.71C153.209 117.762 152.802 120.009 152.948 122.255C153.095 124.501 153.79 126.676 154.975 128.59C160.951 138.49 172.985 133.997 172.985 133.997" fill="#4832B7"/>
<path d="M164.406 130.262C156.274 137.437 163.43 154.96 172.313 158.07C172.781 158.233 172.964 157.522 172.517 157.339C164.385 154.188 157.575 137.702 164.934 130.79C165.28 130.465 164.751 129.957 164.406 130.262Z" fill="#4832B7"/>
<path d="M235.9 255.676L232.221 267.873C227.586 267.873 219.292 255.33 218.601 253.237C213.661 238.417 220.532 230.754 220.532 230.754L235.656 223.578L235.9 255.676Z" fill="#CC7264"/>
<path d="M187.336 355.551C189.999 360.795 201.403 417.856 204.29 424.808C204.696 425.804 210.205 430.765 211.567 432.37C212.171 433.082 212.853 433.723 213.6 434.281C222.605 441.721 234.192 432.248 234.436 422.084V421.901C234.66 403.952 232.932 362.137 230.127 330.669C228.927 317.416 226.325 305.849 225.594 298.937L181.4 288.773C159.914 334.227 182.173 345.509 187.336 355.551Z" fill="#0D053D"/>
<path d="M147.778 525.253C147.778 525.253 137.025 525.253 135.46 517.02C132.214 518.914 129.522 521.627 127.654 524.887C127.378 525.374 127.225 525.921 127.207 526.481C127.189 527.04 127.308 527.596 127.552 528.099C129.356 531.787 130.878 535.606 132.106 539.524C133.793 545.358 142.087 550.826 150.218 550.948H162.415C162.415 550.948 168.798 549.606 155.971 541.414C150.258 537.816 147.778 525.253 147.778 525.253Z" fill="#318FFF"/>
<path d="M218.703 535.941C218.703 535.941 221.468 537.71 228.379 537.181C230.621 536.92 232.842 536.505 235.027 535.941C235.027 535.941 262.286 546.227 262.429 548.748C262.571 551.269 259.095 550.923 259.095 550.923H217.87C217.87 550.923 212.767 544.337 218.703 535.941Z" fill="#318FFF"/>
<path d="M204.29 460.022C206.221 475.674 213.519 500.962 215.836 516.33C216.961 523.313 217.64 530.361 217.869 537.431C217.869 537.431 229.334 538.61 235.107 535.947C235.107 535.947 234.863 442.153 234.457 422.11C234.457 420.402 234.335 419.244 234.254 418.674C232.932 410.909 219.15 417.739 212.055 421.846C209.725 422.888 207.251 423.573 204.717 423.878C204.717 423.878 204.717 424.407 204.534 425.342C203.014 436.847 202.932 448.496 204.29 460.022Z" fill="#0D053D"/>
<path d="M179.532 419.887C177.357 428.649 147.902 419.603 148.796 411.756C149.813 402.832 148.796 380.858 148.796 357.338C148.796 351.809 149.345 332.172 149.63 328.879C150.113 321.492 152.011 314.267 155.22 307.596C157.985 301.497 159.286 298.123 159.286 298.123L197.604 295.887C197.604 295.887 196.1 326.724 191.709 357.318C188.751 378.374 184.686 399.259 179.532 419.887Z" fill="#0D053D"/>
<path d="M151.356 406.985C151.356 406.985 144.749 414.242 142.29 429.081C140.399 440.16 138.692 470.469 135.826 494.131C134.098 508.36 131.882 519.704 131.882 519.704C131.882 519.704 140.379 526.513 147.88 525.212C147.88 525.212 178.189 430.321 180.527 416.214C182.194 405.724 151.356 406.985 151.356 406.985Z" fill="#0D053D"/>
<path d="M225.087 286.49C225.087 286.49 227.425 297.732 227.425 299.073C227.425 300.415 226.957 301.675 226.246 301.838C217.647 304.013 207.748 304.542 193.477 304.46C173.312 304.318 156.663 302.123 155.586 300.639C154.508 299.155 158.859 288.97 159.55 286.409C159.55 286.409 164.672 272.871 157.354 255.287C154.738 248.83 152.525 242.218 150.727 235.487C145.788 217.599 142.352 196.864 146.337 190.359C151.724 181.618 161.583 180.48 166.339 180.886L206.772 183.366C206.772 183.366 219.375 184.078 223.786 191.233C226.124 195.014 231.775 209.264 235.699 225.791L220.493 231.279L220.961 250.306C220.961 250.306 221.835 263.052 222.994 270.634C223.481 274.537 225.087 286.49 225.087 286.49Z" fill="#318FFF"/>
<path d="M165.341 136.334C163.166 137.045 162.577 134.565 162.577 134.565C162.577 134.565 161.276 129.402 165.646 121.962C170.525 113.668 177.193 112.164 177.193 112.164C177.193 112.164 179.083 111.615 179.124 113.505" fill="#006BFF"/>
<path d="M225.044 215.92C225.044 215.92 223.784 255.275 226.325 262.247C230.573 273.875 243.421 271.049 244.966 259.869C246.998 245.639 231.102 213.602 231.102 213.602" fill="#DB8976"/>
<path d="M228.785 236.138H212.259L222.687 206.724C222.859 206.247 223.174 205.835 223.588 205.544C224.003 205.253 224.498 205.097 225.004 205.098H238.055C238.252 205.1 238.445 205.148 238.619 205.24C238.793 205.331 238.943 205.463 239.056 205.624C239.17 205.785 239.243 205.97 239.27 206.165C239.298 206.36 239.278 206.558 239.214 206.744L228.785 236.138Z" fill="#27255E"/>
<path d="M238.969 205.531L240.554 207.157L239.03 207.238L238.969 205.531Z" fill="#27255E"/>
<path d="M230.411 237.806H213.884L224.312 208.392C224.48 207.917 224.791 207.505 225.202 207.214C225.614 206.923 226.105 206.766 226.609 206.766H239.66C239.858 206.764 240.054 206.811 240.231 206.901C240.407 206.991 240.56 207.122 240.676 207.284C240.791 207.445 240.866 207.632 240.895 207.828C240.923 208.024 240.904 208.225 240.839 208.412L230.411 237.806Z" fill="#0D053D"/>
<path d="M215.165 229.415C216.304 228.266 217.325 227.006 218.214 225.655C219.515 223.439 219.983 220.532 218.214 219.922C216.446 219.312 216.283 223.012 212.217 225.756C210.185 227.139 206.688 234.294 206.688 234.294L206.322 236.998" fill="#E8A38C"/>
<path d="M166.338 180.977C175.567 200.004 190.488 200.695 190.488 200.695C208.397 202.585 206.75 183.457 206.75 183.457L201.749 182.339C200.156 181.94 198.72 181.069 197.632 179.839C196.543 178.609 195.852 177.078 195.651 175.448C195.651 175.204 195.651 174.96 195.651 174.695C195.345 171.52 195.284 168.326 195.468 165.141C195.468 163.596 195.651 162.621 195.651 162.621L197.135 150.099C197.135 150.099 169.733 130.828 175.425 148.269C177.762 155.49 178.922 163.04 178.86 170.63C178.832 173.203 177.843 175.674 176.086 177.554C174.33 179.435 171.933 180.591 169.367 180.794L166.338 180.977Z" fill="#E8A38C"/>
<path d="M195.507 174.696C195.201 171.52 195.14 168.326 195.324 165.142L185.607 162.621C185.886 165.385 186.973 168.005 188.735 170.153C190.496 172.301 192.852 173.881 195.507 174.696Z" fill="#DB8976"/>
<path d="M212.197 129.116C214.047 138.975 213.234 165.422 202.419 169.63C192.458 173.492 180.79 162.596 172.618 150.562C164.446 138.528 173.696 122.245 184.591 119.338C195.487 116.431 209.818 116.289 212.197 129.116Z" fill="#E8A38C"/>
<path d="M164.65 222.91L173.29 255.15C173.29 255.15 163.288 260.639 154.12 260.395L144.525 228.968" fill="#E8A38C"/>
<path d="M166.826 230.881C160.821 234.443 154.153 236.747 147.229 237.65L145.786 233.117L166.114 228.441L166.826 230.881Z" fill="#FF8B6C"/>
<path d="M170.139 210.82L173.656 227.082C163.625 231.366 152.948 233.942 142.066 234.706C142.066 234.706 135.968 191.061 153.389 184.007C153.389 184.007 162.943 182.341 170.139 210.82Z" fill="#318FFF"/>
<path d="M168.431 253.214C179.469 247.482 206.729 234.289 206.729 234.289L212.827 240.652C212.827 240.652 180.831 271.144 166.073 275.514C157.942 277.974 152.128 254.068 152.128 254.068" fill="#E8A38C"/>
<path d="M209.373 243.484C212.077 241.654 220.675 241.776 225.635 239.316C223.331 234.866 220.026 231.011 215.98 228.055C215.024 228.298 214.231 228.542 213.723 228.725C211.142 229.66 210.999 231.266 209.556 233.34C208.943 234.417 207.972 235.244 206.812 235.678C206.812 235.678 206.141 245.679 209.373 243.484Z" fill="#E8A38C"/>
<path d="M217.319 231.289L223.316 230.069C225.428 229.086 227.466 227.952 229.414 226.674C231.671 225.048 231.264 223.91 229.414 224.133C226.849 224.934 224.325 225.864 221.852 226.918C220.165 227.315 218.443 227.539 216.71 227.589C215.491 227.406 215.876 226.451 215.876 226.451L213.945 227.528L213.438 229.215" fill="#E8A38C"/>
<path d="M220.491 233.16L227.748 232.265C229.891 231.237 232.098 230.347 234.355 229.602C236.184 229.379 236.611 230.517 234.355 232.143C232.488 233.555 230.436 234.705 228.257 235.558C226.793 236.026 222.158 236.758 222.158 236.758" fill="#E8A38C"/>
<path d="M221.161 236.534L226.812 236.27C226.812 236.27 231.914 234.4 232.91 234.237C234.496 234.054 234.943 235.05 232.91 236.453C231.308 237.681 229.543 238.679 227.666 239.421C226.405 239.848 221.019 240.864 221.019 240.864" fill="#E8A38C"/>
<path d="M218.663 230.275L226.103 229.055L230.738 226.758C230.738 226.758 233.99 224.502 235.352 224.929C236.714 225.356 234.986 227.368 233.32 228.71C231.592 229.954 229.771 231.062 227.872 232.023L219.903 233.954" fill="#E8A38C"/>
<path d="M205.956 127.963C205.592 131.743 204.086 135.323 201.639 138.228C199.192 141.133 195.919 143.224 192.255 144.225C183.148 147.173 174.814 155.426 174.814 155.426C171.33 151.223 168.68 146.393 167.008 141.196C163.593 129.914 165.524 114.404 185.201 110.704C201.464 107.655 214.23 117.047 215.206 129.365C215.48 134.223 214.682 139.081 212.868 143.595C212.868 143.595 214.169 132.171 205.956 127.963Z" fill="#4832B7"/>
<path d="M180.913 153.671C180.913 153.671 178.778 154.444 179.002 159.058C179.157 162.325 179.089 165.599 178.798 168.856L176.644 167.332C176.644 167.332 174.428 163.591 170.891 156.781C163.959 152.452 160.93 141.637 164.935 132.693C169.346 122.793 178.839 144.28 178.839 144.28L180.913 153.671Z" fill="#4832B7"/>
<path d="M198.497 225.82C198.497 225.82 195.143 239.948 182.926 240.883C182.946 240.883 201.546 241.778 198.497 225.82Z" fill="#1884EF"/>
<path d="M184.979 148.859C184.979 148.859 184.471 142.151 178.88 143.98C175.953 144.915 175.608 148.757 176.421 152.111C177.234 155.465 179.084 158.108 181.665 156.99" fill="#E8A38C"/>
<path d="M205.692 127.364C206.105 130.896 205.348 134.467 203.538 137.528C200.224 143.077 194.044 144.561 187.987 144.846C187.852 144.846 187.723 144.9 187.627 144.995C187.532 145.09 187.479 145.219 187.479 145.354C187.479 145.489 187.532 145.618 187.627 145.714C187.723 145.809 187.852 145.862 187.987 145.862C198.7 146.106 208.315 138.788 206.567 127.364C206.567 126.876 205.631 126.978 205.692 127.364Z" fill="#4832B7"/>
<path d="M208.011 149.976C207.91 151.115 208.296 152.009 208.886 152.152C209.475 152.294 210.085 151.338 210.186 150.119C210.288 148.899 209.922 148.086 209.333 147.944C208.743 147.801 208.133 148.757 208.011 149.976Z" fill="#0D053D"/>
<path d="M197.176 149.019C197.176 150.157 197.46 151.052 198.07 151.173C198.68 151.295 199.249 150.36 199.351 149.141C199.453 147.921 199.066 147.108 198.477 146.986C197.887 146.864 197.338 147.941 197.176 149.019Z" fill="#0D053D"/>
<path d="M203.782 153.11C203.782 154.045 204.107 154.96 204.148 155.874C204.148 157.419 203.233 157.907 201.81 157.907C201.76 157.922 201.716 157.953 201.684 157.995C201.653 158.037 201.636 158.088 201.636 158.141C201.636 158.193 201.653 158.245 201.684 158.287C201.716 158.329 201.76 158.36 201.81 158.375C203.009 158.375 204.27 158.151 204.575 156.85C204.666 155.612 204.542 154.367 204.209 153.171C204.209 152.906 203.762 152.906 203.782 153.171V153.11Z" fill="#DB8976"/>
<path d="M208.031 146.9C208.279 146.505 208.64 146.194 209.067 146.006C209.86 145.701 210.225 146.209 210.489 146.92C210.511 146.993 210.561 147.054 210.627 147.09C210.694 147.126 210.772 147.135 210.845 147.113C210.918 147.092 210.979 147.042 211.015 146.975C211.052 146.909 211.06 146.83 211.038 146.758C210.55 144.725 208.498 145.091 207.583 146.615C207.546 146.675 207.533 146.746 207.548 146.815C207.564 146.884 207.605 146.943 207.665 146.981C207.724 147.019 207.796 147.031 207.864 147.016C207.933 147.001 207.993 146.959 208.031 146.9Z" fill="#0D053D"/>
<path d="M197.174 146.136C197.423 145.724 197.792 145.397 198.231 145.201C199.003 144.855 199.41 145.201 199.674 146.034C199.708 146.093 199.761 146.139 199.824 146.165C199.887 146.19 199.957 146.194 200.022 146.175C200.088 146.157 200.145 146.117 200.185 146.062C200.225 146.006 200.245 145.94 200.243 145.872C199.715 143.839 197.621 144.347 196.707 145.872C196.669 145.933 196.658 146.008 196.675 146.078C196.692 146.149 196.736 146.21 196.798 146.247C196.86 146.285 196.935 146.297 197.005 146.28C197.076 146.262 197.137 146.218 197.174 146.156V146.136Z" fill="#0D053D"/>
<path d="M203.051 162.888C201.665 162.768 200.299 162.475 198.986 162.014C198.905 161.994 198.821 162.003 198.747 162.04C198.673 162.077 198.615 162.139 198.583 162.216C198.551 162.292 198.547 162.377 198.572 162.456C198.598 162.534 198.651 162.601 198.721 162.644C200.073 163.326 201.581 163.634 203.092 163.539C203.498 163.539 203.498 162.888 203.092 162.888H203.051Z" fill="#F9765D"/>
<path d="M181.543 147.412C181.825 147.733 182.032 148.113 182.148 148.525C182.264 148.936 182.287 149.369 182.214 149.79C182.09 150.671 181.622 151.468 180.913 152.006C180.689 152.229 180.913 152.636 181.259 152.453C181.685 152.158 182.042 151.774 182.306 151.329C182.57 150.883 182.735 150.385 182.789 149.87C182.843 149.354 182.785 148.833 182.619 148.343C182.453 147.852 182.183 147.402 181.828 147.025C181.604 146.802 181.238 147.147 181.462 147.371L181.543 147.412Z" fill="#DB8976"/>
<path d="M180.262 148.882C181.278 148.882 181.786 149.918 182.111 150.771C182.233 151.056 182.741 151.056 182.701 150.771C182.654 150.138 182.383 149.542 181.936 149.091C181.489 148.64 180.895 148.365 180.262 148.312C179.855 148.312 179.855 148.923 180.262 148.964V148.882Z" fill="#DB8976"/>
<path d="M191.627 152.537C191.484 153.513 192.501 154.57 193.903 154.712C195.306 154.855 196.587 154.326 196.729 153.35C196.871 152.374 195.875 151.317 194.473 151.175C193.07 151.033 191.789 151.561 191.627 152.537Z" fill="#E48873"/>
<path d="M207.523 154.631C207.523 155.282 208.113 155.952 209.068 156.115C210.023 156.278 210.897 155.851 211.1 155.18C211.303 154.51 210.511 153.839 209.535 153.697C208.56 153.554 207.625 154.042 207.523 154.631Z" fill="#E48873"/>
<path d="M1.35547 550.945H722.309" stroke="#0D476D" stroke-linecap="round" stroke-linejoin="round"/>
<path d="M375.167 208.952L358.917 208.861L355.775 216.344L347.475 216.297L363.271 181.385L371.27 181.43L386.725 216.517L378.225 216.469L375.167 208.952ZM372.651 202.788L367.176 189.357L361.551 202.726L372.651 202.788ZM406.308 189.326C409.641 189.344 412.319 190.359 414.341 192.37C416.397 194.382 417.413 197.354 417.391 201.288L417.305 216.687L409.506 216.644L409.585 202.444C409.597 200.311 409.139 198.725 408.211 197.686C407.284 196.614 405.937 196.074 404.17 196.064C402.204 196.053 400.634 196.661 399.46 197.887C398.287 199.081 397.693 200.878 397.68 203.278L397.606 216.577L389.806 216.534L389.956 189.634L397.406 189.676L397.388 192.826C398.428 191.698 399.716 190.839 401.253 190.247C402.79 189.623 404.475 189.315 406.308 189.326ZM452.275 179.782L452.068 216.882L444.618 216.84L444.636 213.74C442.689 216.062 439.883 217.214 436.216 217.193C433.683 217.179 431.386 216.599 429.326 215.455C427.299 214.31 425.708 212.684 424.553 210.578C423.398 208.471 422.828 206.035 422.844 203.268C422.859 200.501 423.456 198.071 424.635 195.978C425.813 193.885 427.422 192.277 429.462 191.155C431.535 190.033 433.838 189.479 436.371 189.493C439.804 189.513 442.481 190.611 444.403 192.788L444.476 179.739L452.275 179.782ZM437.602 210.801C439.569 210.812 441.206 210.154 442.513 208.828C443.821 207.469 444.481 205.656 444.493 203.389C444.506 201.122 443.866 199.319 442.574 197.978C441.281 196.604 439.652 195.912 437.685 195.901C435.685 195.89 434.031 196.564 432.724 197.923C431.416 199.249 430.756 201.046 430.744 203.312C430.731 205.579 431.371 207.399 432.663 208.773C433.956 210.114 435.602 210.789 437.602 210.801ZM466.868 193.614C467.808 192.319 469.064 191.343 470.634 190.685C472.238 190.027 474.073 189.704 476.139 189.716L476.099 196.915C475.233 196.844 474.65 196.807 474.35 196.806C472.117 196.793 470.363 197.417 469.089 198.676C467.816 199.903 467.172 201.766 467.158 204.266L467.087 216.965L459.287 216.922L459.437 190.022L466.887 190.064L466.868 193.614ZM493.178 217.511C490.345 217.495 487.798 216.898 485.538 215.718C483.312 214.506 481.571 212.846 480.316 210.739C479.061 208.632 478.441 206.245 478.456 203.579C478.471 200.912 479.117 198.532 480.396 196.439C481.674 194.347 483.433 192.723 485.673 191.569C487.946 190.382 490.5 189.796 493.333 189.812C496.166 189.827 498.696 190.442 500.923 191.654C503.15 192.833 504.89 194.476 506.145 196.583C507.4 198.69 508.02 201.077 508.005 203.744C507.99 206.41 507.344 208.79 506.065 210.883C504.787 212.976 503.028 214.616 500.788 215.804C498.548 216.958 496.012 217.527 493.178 217.511ZM493.214 211.111C495.214 211.122 496.851 210.465 498.125 209.139C499.433 207.779 500.093 205.966 500.105 203.7C500.118 201.433 499.478 199.629 498.186 198.289C496.927 196.915 495.297 196.223 493.297 196.211C491.297 196.2 489.643 196.874 488.336 198.234C487.028 199.56 486.368 201.356 486.356 203.623C486.343 205.889 486.983 207.71 488.275 209.084C489.568 210.424 491.214 211.1 493.214 211.111ZM513.294 190.323L521.094 190.367L520.944 217.266L513.144 217.223L513.294 190.323ZM517.215 186.595C515.782 186.587 514.617 186.164 513.722 185.325C512.827 184.487 512.382 183.451 512.389 182.218C512.396 180.985 512.852 179.954 513.757 179.125C514.661 178.297 515.83 177.887 517.264 177.895C518.697 177.903 519.861 178.31 520.757 179.115C521.652 179.92 522.097 180.922 522.09 182.122C522.083 183.422 521.627 184.503 520.722 185.364C519.817 186.193 518.648 186.603 517.215 186.595ZM555.789 180.36L555.582 217.46L548.132 217.418L548.15 214.318C546.203 216.641 543.397 217.792 539.73 217.771C537.197 217.757 534.9 217.178 532.84 216.033C530.813 214.888 529.222 213.262 528.067 211.156C526.912 209.049 526.342 206.613 526.358 203.846C526.373 201.08 526.97 198.65 528.149 196.556C529.327 194.463 530.936 192.855 532.976 191.733C535.049 190.611 537.352 190.057 539.885 190.072C543.318 190.091 545.995 191.189 547.917 193.367L547.99 180.317L555.789 180.36ZM541.116 211.379C543.083 211.39 544.72 210.732 546.027 209.406C547.335 208.047 547.995 206.234 548.007 203.967C548.02 201.701 547.38 199.897 546.088 198.556C544.795 197.182 543.166 196.49 541.199 196.479C539.199 196.468 537.545 197.142 536.238 198.501C534.93 199.827 534.27 201.624 534.258 203.89C534.245 206.157 534.885 207.977 536.177 209.351C537.47 210.692 539.116 211.368 541.116 211.379Z" fill="#7CD4F7"/>
<path d="M397.227 255.173L405.326 255.219L405.128 290.218L397.028 290.172L397.227 255.173ZM430.38 290.961C426.747 290.941 423.468 290.139 420.544 288.555C417.653 286.972 415.382 284.809 413.731 282.067C412.113 279.291 411.314 276.186 411.333 272.753C411.353 269.32 412.187 266.241 413.836 263.517C415.518 260.76 417.814 258.606 420.723 257.056C423.665 255.506 426.952 254.741 430.586 254.762C434.219 254.782 437.481 255.584 440.372 257.167C443.263 258.75 445.534 260.93 447.185 263.706C448.836 266.449 449.652 269.537 449.633 272.97C449.613 276.403 448.762 279.499 447.08 282.256C445.398 284.98 443.102 287.117 440.194 288.667C437.285 290.217 434.014 290.982 430.38 290.961ZM430.42 284.061C432.486 284.073 434.355 283.617 436.027 282.693C437.7 281.736 439.007 280.41 439.95 278.715C440.926 277.021 441.421 275.09 441.433 272.924C441.445 270.757 440.973 268.821 440.016 267.116C439.092 265.41 437.8 264.086 436.138 263.143C434.477 262.167 432.613 261.673 430.547 261.662C428.48 261.65 426.611 262.123 424.938 263.08C423.267 264.004 421.942 265.313 420.966 267.007C420.023 268.702 419.546 270.633 419.533 272.799C419.521 274.966 419.977 276.902 420.9 278.607C421.857 280.313 423.166 281.654 424.828 282.63C426.489 283.572 428.353 284.05 430.42 284.061ZM467.117 291.17C464.351 291.154 461.67 290.772 459.074 290.024C456.511 289.243 454.45 288.248 452.891 287.039L455.675 280.955C457.169 282.063 458.947 282.956 461.01 283.635C463.073 284.313 465.138 284.658 467.204 284.67C469.504 284.683 471.206 284.359 472.31 283.699C473.414 283.005 473.969 282.092 473.975 280.958C473.98 280.125 473.651 279.44 472.987 278.903C472.357 278.332 471.526 277.878 470.495 277.539C469.497 277.2 468.132 276.825 466.401 276.415C463.738 275.767 461.558 275.121 459.862 274.478C458.166 273.835 456.705 272.81 455.479 271.403C454.287 269.997 453.698 268.126 453.711 265.793C453.723 263.76 454.283 261.93 455.392 260.303C456.502 258.642 458.159 257.335 460.365 256.381C462.603 255.427 465.323 254.959 468.523 254.977C470.756 254.99 472.938 255.269 475.068 255.814C477.198 256.36 479.061 257.137 480.655 258.146L478.12 264.282C474.897 262.43 471.669 261.495 468.436 261.477C466.169 261.464 464.484 261.821 463.38 262.548C462.309 263.275 461.77 264.239 461.763 265.439C461.756 266.639 462.368 267.542 463.598 268.149C464.861 268.723 466.775 269.301 469.338 269.882C472.001 270.53 474.181 271.176 475.877 271.819C477.574 272.462 479.018 273.47 480.21 274.844C481.436 276.217 482.042 278.071 482.029 280.404C482.017 282.404 481.44 284.234 480.297 285.894C479.188 287.521 477.514 288.812 475.275 289.766C473.037 290.72 470.317 291.188 467.117 291.17Z" fill="#7CD4F7"/>
</svg>
