<svg width="100" height="102" viewBox="0 0 100 102" fill="none" xmlns="http://www.w3.org/2000/svg">
<g clip-path="url(#clip0)">
<path d="M87.0196 72.958C88.8722 70.9067 88.7277 67.7269 86.6967 65.8558C85.7742 65.0058 84.5689 64.5371 83.3201 64.5425H79.1541C77.7737 64.5425 76.6545 63.4121 76.6545 62.0179V59.4933C76.649 54.848 72.9217 51.0834 68.3223 51.0779C67.4021 51.0779 66.6559 51.8315 66.6559 52.761V65.4834C66.6561 66.2082 66.1968 66.8515 65.5161 67.0806L64.9895 67.2574V66.2256C64.9895 65.2961 64.2434 64.5425 63.3231 64.5425H56.6574C55.7371 64.5425 54.991 65.2961 54.991 66.2256V86.4226C54.991 87.3521 55.7371 88.1057 56.6574 88.1057H63.3231C64.2434 88.1057 64.9895 87.3521 64.9895 86.4226V86.0608C67.406 87.3921 70.1125 88.0948 72.865 88.1057H83.3201C86.0691 88.1179 88.3075 85.8771 88.3198 83.1006C88.3255 81.8394 87.8614 80.6221 87.0196 79.6903C88.7535 77.788 88.7535 74.8605 87.0196 72.958ZM61.6567 84.7395H58.3238V67.9087H61.6567V84.7395ZM84.9866 76.3241C84.9866 77.2536 84.2404 78.0072 83.3201 78.0072V81.3734C84.2404 81.3734 84.9866 82.127 84.9866 83.0565C84.9866 83.9859 84.2404 84.7395 83.3201 84.7395H72.865C70.2325 84.7414 67.6585 83.9542 65.4694 82.4775L64.9895 82.156V70.8053L66.5709 70.2734C68.6121 69.5859 69.9888 67.6565 69.9888 65.4834V54.7319C71.9847 55.4478 73.3191 57.3541 73.3216 59.4933V62.0179C73.3216 65.2713 75.9329 67.9087 79.1541 67.9087H83.3201C84.2404 67.9087 84.9866 68.6623 84.9866 69.5918C84.9866 70.5213 84.2404 71.2749 83.3201 71.2749V74.641C84.2404 74.641 84.9866 75.3946 84.9866 76.3241Z" fill="#604CDA"/>
<path d="M83.4257 46.9236C79.7306 45.2216 75.7164 44.3422 71.6551 44.3451C62.7802 44.3531 54.4239 48.5699 49.0885 55.7329L41.6596 53.2318V46.9893C41.8046 46.8748 41.9545 46.7722 42.0978 46.6527C47.7585 41.8847 51.1942 34.9487 51.5781 27.5143H51.6581C52.5784 27.5143 53.3245 26.7607 53.3245 25.8312V24.1481C53.3245 11.1345 42.8794 0.584961 29.9946 0.584961C17.1099 0.584961 6.66477 11.1345 6.66477 24.1481V27.5143C6.66477 28.4438 7.41091 29.1974 8.33119 29.1974C8.39951 29.1909 8.46742 29.1803 8.53449 29.1654C9.31646 35.9912 12.6666 42.252 17.8914 46.6527C18.0331 46.7722 18.1847 46.8748 18.3297 46.9893V53.2318L4.47176 57.8973C3.83998 58.1102 3.39421 58.6827 3.3386 59.3532L0.00575961 99.7472C-0.0706874 100.674 0.610878 101.487 1.52803 101.564C1.57365 101.568 1.61948 101.57 1.66551 101.57H58.3238C59.244 101.573 59.9927 100.822 59.996 99.8928C59.9962 99.8442 59.9944 99.7956 59.9902 99.7472L59.9252 98.968C74.1545 105.522 90.9504 99.1853 97.44 84.8136C103.93 70.442 97.655 53.478 83.4257 46.9236ZM18.3297 98.2038H3.47691L6.56812 60.7384L18.3297 56.7798V98.2038ZM9.99761 24.1481C9.99761 12.9937 18.9507 3.95113 29.9946 3.95113C41.0386 3.95113 49.9917 12.9937 49.9917 24.1481H44.9924C40.3931 24.1427 36.6657 20.378 36.6603 15.7327C36.6611 14.8032 35.9156 14.049 34.9954 14.0482C34.8733 14.0482 34.7516 14.0614 34.6323 14.0883L33.6324 14.3139C25.2222 16.1903 17.2159 19.5826 9.99761 24.3282V24.1481ZM38.3267 98.2038H21.6625V67.4387L27.5683 65.451L23.3873 80.9354C23.2794 81.3347 23.3208 81.7601 23.5039 82.1304L28.5032 92.2289C28.9146 93.0603 29.9155 93.3976 30.7389 92.9819C31.0616 92.819 31.3232 92.5548 31.4844 92.2289L36.4837 82.1304C36.6668 81.7601 36.7082 81.3347 36.6003 80.9354L32.4193 65.451L38.3267 67.4387V98.2038ZM21.6625 63.8891V60.5331L25.6503 62.5528L21.6625 63.8891ZM29.9946 69.2548L33.2192 81.1963L29.9946 87.7081L26.7701 81.1963L29.9946 69.2548ZM38.3267 63.8891L34.339 62.5427L38.3267 60.5331V63.8891ZM38.3267 56.7697L29.9946 60.9774L21.6625 56.7697V49.1083C24.2542 50.3998 27.1047 51.0735 29.9946 51.0775C32.8846 51.0735 35.735 50.3998 38.3267 49.1083V56.7697ZM20.0261 44.0658C15.0517 39.8654 12.0467 33.7527 11.7407 27.2114C18.3984 22.8172 25.7646 19.6312 33.5075 17.7962C34.5052 23.4145 39.341 27.5063 44.9924 27.5143H48.2453C47.8624 33.9485 44.8662 39.9376 39.9648 44.0658C34.1903 48.9278 25.8007 48.9278 20.0261 44.0658ZM41.6596 98.2038V56.7798L47.1704 58.6312C39.5263 71.8619 43.6116 88.8293 56.4174 97.0375L56.5124 98.2038H41.6596ZM71.6551 98.2038C57.8501 98.2038 46.6588 86.9007 46.6588 72.9576C46.6588 59.0145 57.8501 47.7113 71.6551 47.7113C85.4602 47.7113 96.6514 59.0145 96.6514 72.9576C96.6358 86.8944 85.4537 98.1881 71.6551 98.2038Z" fill="#604CDA"/>
<path d="M59.9903 3.95361H56.6575V7.31978H59.9903V3.95361Z" fill="#604CDA"/>
<path d="M66.6558 3.95361H63.323V7.31978H66.6558V3.95361Z" fill="#604CDA"/>
<path d="M73.3214 37.613H69.9886V40.9792H73.3214V37.613Z" fill="#604CDA"/>
<path d="M73.3213 30.884H69.9885V34.2502H73.3213V30.884Z" fill="#604CDA"/>
<path d="M73.3214 24.1482H69.9886V27.5144H73.3214V24.1482Z" fill="#604CDA"/>
<path d="M73.3213 17.4187H69.9885V20.7849H73.3213V17.4187Z" fill="#604CDA"/>
<path d="M73.3214 10.6829H69.9886V14.049H73.3214V10.6829Z" fill="#604CDA"/>
<path d="M73.3213 3.95361H69.9885V7.31978H73.3213V3.95361Z" fill="#604CDA"/>
<path d="M53.3249 3.95361H49.992V7.31978H53.3249V3.95361Z" fill="#604CDA"/>
</g>
<defs>
<clipPath id="clip0">
<rect width="100" height="101" fill="white" transform="translate(0 0.578125)"/>
</clipPath>
</defs>
</svg>
