<svg width="100" height="102" viewBox="0 0 100 102" fill="none" xmlns="http://www.w3.org/2000/svg">
<g clip-path="url(#clip0)">
<path d="M72.288 39.3531C73.6128 39.3531 74.8718 38.8357 75.8326 37.8963C76.4138 37.328 76.4289 36.3914 75.8662 35.8045C75.3035 35.2174 74.3761 35.2021 73.7951 35.7706C73.3836 36.1728 72.8484 36.3945 72.288 36.3945H71.8615C71.3011 36.3945 70.766 36.173 70.3544 35.7706C69.773 35.2021 68.8458 35.2174 68.2833 35.8045C67.7207 36.3916 67.7357 37.3282 68.3169 37.8963C69.2779 38.8357 70.5367 39.3531 71.8615 39.3531H72.288Z" fill="#604CDA"/>
<path d="M42.8437 75.4704C43.2083 75.676 43.6126 75.7783 44.0165 75.7783C44.4548 75.7783 44.8927 75.6576 45.2788 75.4175L54.3757 69.7562C55.0919 69.3106 55.5194 68.5371 55.5194 67.6875C55.5194 66.8379 55.0919 66.0644 54.3757 65.6188L45.2786 59.9574C44.5372 59.496 43.6042 59.4759 42.8437 59.9046C42.0833 60.3334 41.6108 61.1464 41.6108 62.026V73.3486C41.611 74.2284 42.0833 75.0414 42.8437 75.4704ZM44.5405 62.9734L52.1153 67.6875L44.5405 72.4016V62.9734Z" fill="#604CDA"/>
<path d="M60.8055 82.6983H46.7291C46.1193 80.907 44.4355 79.6155 42.4578 79.6155C40.4799 79.6155 38.7961 80.907 38.1861 82.6985H36.3182C35.5092 82.6985 34.8533 83.3612 34.8535 84.1782C34.8535 84.9953 35.5094 85.6575 36.3184 85.6575H38.1863C38.7963 87.4487 40.4801 88.7396 42.4578 88.7396C44.4355 88.7396 46.1191 87.4485 46.7291 85.6575H60.8055C61.6142 85.6575 62.2703 84.9953 62.2703 84.1782C62.2703 83.3612 61.6144 82.6983 60.8055 82.6983ZM42.4578 85.7804C41.5826 85.7804 40.8707 85.0614 40.8707 84.1774C40.8707 83.2933 41.5826 82.5741 42.4578 82.5741C43.3328 82.5741 44.0447 83.2933 44.0447 84.1774C44.0447 85.0614 43.3328 85.7804 42.4578 85.7804Z" fill="#604CDA"/>
<path d="M98.7509 72.5932V62.2261C98.7509 55.3346 93.1998 49.7279 86.3765 49.7279H78.9003V44.4933C82.2421 42.3882 84.4718 38.6437 84.4718 34.3812V33.2235H86.8121C90.1019 33.2235 92.7785 30.5201 92.7785 27.1972C92.7785 25.6218 92.1761 24.1863 91.1927 23.1114V18.0013C91.1927 13.5496 89.2404 9.36854 85.8365 6.53008C85.2126 6.00989 84.2894 6.09905 83.7744 6.72912C83.2593 7.35919 83.3476 8.29166 83.9714 8.81185C86.699 11.0861 88.2632 14.4357 88.2632 18.0013V21.3524C87.7984 21.2347 87.3124 21.1713 86.8121 21.1713H84.4326C84.021 16.7104 80.2953 13.2065 75.7728 13.2065H61.7361C60.6054 13.2065 59.6855 14.1357 59.6855 15.2776V21.1713H57.3447C56.8449 21.1713 56.3597 21.2345 55.8955 21.352V7.00825C55.8955 5.86746 56.4861 4.85707 57.4751 4.30571C58.4646 3.75376 59.6267 3.78769 60.5818 4.39507L61.4521 4.94998C62.6271 5.69762 63.9832 6.09294 65.3734 6.09294H76.4724C77.0851 6.09294 77.6951 6.14009 78.2857 6.23319C79.0853 6.35846 79.8339 5.80671 79.9585 4.9993C80.0834 4.19189 79.5365 3.43557 78.7371 3.30972C77.9976 3.19313 77.2357 3.13415 76.4724 3.13415H65.3734C64.5367 3.13415 63.7207 2.89625 63.0148 2.44727L62.1443 1.89217C60.2716 0.701077 57.9968 0.634795 56.0591 1.71542C54.1222 2.79545 52.9656 4.77422 52.9656 7.00845V23.1097C51.981 24.1848 51.3779 25.6211 51.3779 27.1974C51.3779 30.5203 54.0544 33.2237 57.3443 33.2237H59.6851V34.3814C59.6851 38.6443 61.9154 42.3894 65.258 44.4942V46.5561H43.9783C44.5806 44.5157 44.9058 42.3537 44.9058 40.1149C44.9058 27.8068 35.116 17.7932 23.0828 17.7932C11.0496 17.7932 1.25952 27.8068 1.25952 40.1149C1.25952 52.4233 11.0494 62.4367 23.0826 62.4367C23.6193 62.4367 24.1513 62.416 24.6783 62.3768V90.609C24.6783 92.6886 26.3542 94.3806 28.4144 94.3806H39.5673V96.4651C39.5673 98.4649 41.1783 100.092 43.1584 100.092H47.8222C49.8023 100.092 51.4132 98.4649 51.4132 96.4651V94.3806H53.5732V100.47C53.5732 101.287 54.2291 101.949 55.038 101.949H87.1283C87.9373 101.949 88.5931 101.287 88.5931 100.47V95.359C88.5931 94.5419 87.9373 93.8795 87.1283 93.8795C86.3193 93.8795 85.6634 94.5419 85.6634 95.359V98.9905H56.5031V94.3806H68.7095C70.7697 94.3806 72.4457 92.6886 72.4457 90.609V82.1749H85.6638V88.4551C85.6638 89.2722 86.3197 89.9346 87.1287 89.9346C87.9376 89.9346 88.5935 89.2722 88.5935 88.4551V82.1747H91.2046C92.6351 82.1747 93.9738 81.7707 95.1148 81.0697C97.2931 79.7314 98.7511 77.3108 98.7511 74.5528V72.5932H98.7509ZM89.849 27.1974C89.849 28.8888 88.4867 30.2647 86.8121 30.2647H84.4718V24.1301H86.8121C88.4867 24.1301 89.849 25.506 89.849 27.1974ZM57.3447 30.2647C55.6701 30.2647 54.3078 28.8886 54.3078 27.1974C54.3078 25.5062 55.6701 24.1301 57.3447 24.1301H59.6855V30.2647H57.3447ZM62.615 34.3812V31.7631C62.615 31.7568 62.616 31.7505 62.616 31.744C62.616 31.7375 62.6152 31.7314 62.615 31.7248V22.6696C62.615 22.6633 62.616 22.6569 62.616 22.6504C62.616 22.6439 62.6152 22.6378 62.615 22.6313V16.1649H75.7728C78.954 16.1649 81.5421 18.7789 81.5421 21.992V34.3808C81.5421 39.3168 77.5662 43.3325 72.6791 43.3325H71.4779C66.591 43.3329 62.615 39.3172 62.615 34.3812ZM68.188 45.8165C69.2332 46.1239 70.3363 46.2917 71.4781 46.2917H72.6793C73.8216 46.2917 74.9253 46.1237 75.9708 45.8161V52.1699C75.9708 53.9253 74.5568 55.3535 72.8187 55.3535H72.4457V50.3274C72.4457 48.2478 70.7695 46.5559 68.7095 46.5559H68.188V45.8165ZM70.9921 79.2164C70.9882 79.2164 70.9847 79.2158 70.9808 79.2158C70.9769 79.2158 70.9734 79.2164 70.9695 79.2164H69.2431C68.0544 79.2164 67.0873 78.2397 67.0873 77.0389V74.0744H72.1781V79.2162H70.9921V79.2164ZM68.7093 49.5149C69.1541 49.5149 69.516 49.8794 69.516 50.3276V53.342C69.2558 53.284 68.9865 53.2511 68.7093 53.2511H40.7152C41.5472 52.0858 42.2716 50.8354 42.8734 49.515H68.7093V49.5149ZM4.18901 40.1149C4.18901 29.4381 12.6646 20.7519 23.0826 20.7519C33.5005 20.7519 41.9761 29.4381 41.9761 40.1149C41.9761 50.7918 33.5005 59.478 23.0826 59.478C12.6646 59.478 4.18901 50.7918 4.18901 40.1149ZM48.4839 96.4653C48.4839 96.8337 48.1873 97.1334 47.8224 97.1334H43.1585C42.7937 97.1334 42.497 96.8337 42.497 96.4653V94.3808H48.4837L48.4839 96.4653ZM69.5162 90.6092C69.5162 91.0574 69.1542 91.422 68.7095 91.422H28.4146C27.9699 91.422 27.608 91.0574 27.608 90.6092V61.9528C31.6617 61.075 35.3035 59.0432 38.188 56.2099H68.7093C69.1541 56.2099 69.516 56.5744 69.516 57.0226V71.1158H61.6123C60.8033 71.1158 60.1474 71.7783 60.1474 72.5953C60.1474 73.4124 60.8033 74.0748 61.6123 74.0748H64.1578V77.0393C64.1578 79.8715 66.439 82.1755 69.2431 82.1755H69.5162V90.6092ZM95.3654 76.5728C94.6187 78.1353 93.0341 79.216 91.2044 79.216C90.3392 79.216 75.9646 79.2164 75.1076 79.2164V74.0746H89.7271C90.5361 74.0746 91.1919 73.4122 91.1919 72.5951C91.1919 71.7781 90.5361 71.1156 89.7271 71.1156H88.5939V61.714C88.5939 60.8969 87.938 60.2345 87.1291 60.2345C86.3201 60.2345 85.6642 60.8969 85.6642 61.714V71.1156H72.4453V58.3123H72.8183C75.9994 58.3123 78.616 55.8325 78.8769 52.6865H86.3763C91.5841 52.6865 95.8212 56.9658 95.8212 62.2259V74.5526C95.8214 74.9546 95.7835 75.7305 95.3654 76.5728Z" fill="#604CDA"/>
<path d="M38.1052 40.3066C38.9306 40.0548 39.4853 39.2989 39.4853 38.4252C39.4853 37.5517 38.9308 36.7956 38.1052 36.5435L23.8072 32.1822C23.3363 32.0386 22.8381 32.0386 22.367 32.1822L8.06873 36.5437C7.24334 36.7956 6.68884 37.5517 6.68884 38.4252C6.68884 38.8353 6.81248 39.2188 7.02751 39.537V44.4251C7.02751 45.2421 7.68337 45.9045 8.49236 45.9045C9.30134 45.9045 9.9572 45.2421 9.9572 44.4251V40.8826L12.1777 41.5598V48.3753C12.1777 49.5348 12.95 50.5472 14.0553 50.8368L22.2029 52.9749C22.4922 53.0511 22.7898 53.089 23.0875 53.089C23.3849 53.089 23.6822 53.0511 23.9713 52.9749L32.1189 50.837C33.2248 50.547 33.997 49.5348 33.997 48.3753V41.5596L38.1052 40.3066ZM23.0871 35.0534L34.1406 38.425L23.0871 41.7967L12.0336 38.425L23.0871 35.0534ZM31.0674 48.0559L23.234 50.1116C23.1379 50.1369 23.0365 50.1367 22.94 50.1116L15.1072 48.0561V42.4538L22.367 44.6683C22.6025 44.7401 22.8449 44.776 23.0871 44.776C23.3295 44.776 23.5717 44.7401 23.8072 44.6683L31.0674 42.4536V48.0559Z" fill="#604CDA"/>
</g>
<defs>
<clipPath id="clip0">
<rect width="100" height="101" fill="white" transform="translate(0 0.949219)"/>
</clipPath>
</defs>
</svg>
