<svg width="336" height="336" viewBox="0 0 336 336" fill="none" xmlns="http://www.w3.org/2000/svg">
<path d="M297.156 174.01C297.198 172.359 298.111 171.097 300.048 169.39C304.364 165.587 311.676 170.321 308.458 174.855C306.873 177.089 301.932 175.096 302.979 172.645C303.317 171.853 303.86 172.141 304.315 173.353C305.131 175.532 307.647 174.878 307.737 172.464C307.899 168.111 302.211 167.431 300.442 171.591C298.128 177.035 303.223 181.691 308.762 179.628C310.893 178.835 312.544 175.429 311.947 172.83C311.426 170.564 311.738 170.481 315.619 171.859C326.142 175.595 334.295 187.381 333.983 196.247C333.917 198.124 333.27 201.12 332.592 202.684C332.373 203.19 332.071 203.322 331.428 203.19C327.621 202.413 323.418 207.316 323.203 211.844C323.045 215.164 324.611 218.5 327.115 219.317C327.737 219.52 327.938 219.786 327.882 220.334C326.8 230.989 311.441 241.402 297.726 238.643C293.689 237.831 293.464 237.6 295.075 235.923C296.923 234 297.152 230.172 295.732 228.395C292.043 223.778 285.38 225.215 284.568 231.074C283.948 235.552 289.177 237.892 291.275 234.074C292.439 231.956 290.422 230.319 288.637 231.813C287.645 232.644 287.03 232.627 287.126 231.77C287.423 229.122 292.704 229.823 292.983 232.547C293.549 238.079 284.827 238.586 282.943 233.151C279.759 223.965 288.77 222.408 301.856 228.358C313.766 233.774 320.211 232.315 324.271 225.432C325.812 222.82 325.926 221.673 324.497 220.478C318.21 215.22 321.56 202.542 329.657 201.274C331.498 200.986 332.075 199.505 332.025 196.473C331.894 188.482 327.055 184.301 314.056 182.815C303.568 181.617 297.041 178.575 297.156 174.01L297.156 174.01ZM277.136 237.43C278.018 236.034 279.188 235.789 281.715 235.256C287.343 234.069 291.492 241.712 286.404 243.953C283.897 245.057 280.517 241.138 282.633 239.519C283.317 238.996 283.649 239.513 283.448 240.792C283.088 243.091 285.6 243.759 286.866 241.701C289.147 237.991 284.529 234.6 280.943 237.353C276.25 240.954 278.337 247.482 284.174 248.408C286.42 248.765 289.593 246.647 290.351 244.09C291.012 241.861 291.324 241.943 294.026 245.051C301.35 253.48 302.38 268.115 297.566 275.568C296.547 277.145 294.812 279.062 293.453 280.091C293.013 280.424 292.685 280.39 292.19 279.959C289.257 277.41 283.105 279.552 280.688 283.387C278.916 286.199 278.323 290.112 280.05 292.101C280.48 292.595 280.515 292.927 280.185 293.368C273.78 301.95 255.705 303.117 245.144 293.941C242.036 291.239 241.954 290.927 244.183 290.266C246.74 289.508 248.857 286.334 248.501 284.088C247.575 278.251 241.048 276.165 237.447 280.858C234.694 284.444 238.084 289.062 241.794 286.781C243.852 285.515 243.184 283.002 240.886 283.363C239.607 283.564 239.089 283.232 239.612 282.548C241.231 280.432 245.15 283.812 244.046 286.318C241.805 291.407 234.163 287.259 235.349 281.631C237.355 272.118 245.419 275.465 253.857 287.102C261.539 297.694 267.921 299.665 274.849 295.681C277.478 294.169 278.165 293.245 277.511 291.501C274.634 283.827 283.915 274.544 291.589 277.42C293.333 278.074 294.257 277.387 295.769 274.758C299.753 267.831 297.78 261.447 287.188 253.765C278.642 247.568 274.694 241.29 277.135 237.43L277.136 237.43ZM227.808 282.648C229.265 281.871 230.804 282.013 233.244 282.859C238.68 284.742 238.172 293.465 232.641 292.899C229.916 292.62 229.216 287.34 231.864 287.043C232.72 286.947 232.737 287.561 231.907 288.554C230.413 290.338 232.05 292.355 234.168 291.191C237.985 289.093 235.646 283.863 231.167 284.484C225.309 285.296 223.872 291.96 228.489 295.649C230.266 297.069 234.094 296.839 236.017 294.991C237.693 293.38 237.924 293.605 238.736 297.642C240.938 308.59 234.554 321.674 226.691 325.781C225.026 326.651 222.123 327.614 220.428 327.798C219.88 327.858 219.616 327.66 219.412 327.036C218.207 323.342 212.126 321.998 208.135 324.147C205.208 325.723 202.759 328.77 203.286 331.351C203.417 331.992 203.283 332.298 202.781 332.52C192.983 336.844 176.636 328.73 171.955 315.546C170.577 311.665 170.66 311.354 172.926 311.875C175.526 312.472 178.931 310.819 179.725 308.688C181.787 303.149 177.131 298.055 171.688 300.369C167.527 302.138 168.207 307.826 172.56 307.664C174.975 307.575 175.629 305.058 173.45 304.242C172.238 303.788 171.95 303.245 172.742 302.906C175.193 301.86 177.185 306.8 174.952 308.385C170.418 311.603 165.683 304.292 169.486 299.976C175.913 292.682 181.279 299.7 182.912 313.981C184.398 326.981 188.578 331.819 196.569 331.949C199.601 331.999 201.082 331.421 201.37 329.58C202.638 321.483 215.315 318.13 220.573 324.417C221.768 325.846 222.914 325.731 225.527 324.19C232.41 320.13 233.868 313.684 228.452 301.773C224.082 292.163 223.778 284.797 227.807 282.648L227.808 282.648ZM162.433 297.084C164.084 297.125 165.346 298.038 167.053 299.976C170.856 304.292 166.122 311.604 161.588 308.386C159.354 306.801 161.347 301.86 163.798 302.907C164.59 303.245 164.302 303.788 163.09 304.242C160.911 305.059 161.565 307.575 163.979 307.665C168.332 307.827 169.012 302.139 164.852 300.37C159.408 298.055 154.752 303.151 156.815 308.69C157.608 310.821 161.014 312.472 163.613 311.875C165.879 311.354 165.962 311.666 164.584 315.547C160.847 326.07 149.062 334.223 140.196 333.911C138.319 333.845 135.323 333.198 133.759 332.52C133.253 332.301 133.121 331.999 133.253 331.356C134.03 327.549 129.127 323.346 124.599 323.131C121.279 322.973 117.943 324.539 117.126 327.043C116.923 327.665 116.657 327.866 116.109 327.81C105.454 326.728 95.0415 311.369 97.8 297.654C98.6121 293.616 98.8431 293.391 100.52 295.002C102.443 296.851 106.271 297.079 108.048 295.66C112.665 291.971 111.228 285.308 105.369 284.496C100.891 283.875 98.5514 289.105 102.369 291.202C104.487 292.366 106.124 290.349 104.63 288.565C103.799 287.572 103.816 286.958 104.673 287.054C107.321 287.351 106.62 292.632 103.896 292.91C98.3644 293.476 97.8567 284.754 103.292 282.87C112.478 279.687 114.035 288.698 108.085 301.784C102.669 313.694 104.128 320.139 111.011 324.199C113.623 325.74 114.77 325.854 115.965 324.425C121.223 318.138 133.901 321.488 135.169 329.585C135.457 331.426 136.938 332.003 139.97 331.953C147.961 331.822 152.142 326.983 153.628 313.984C154.826 303.496 157.868 296.969 162.433 297.084V297.084ZM99.0132 277.064C100.409 277.946 100.654 279.116 101.187 281.643C102.374 287.271 94.7313 291.42 92.4898 286.332C91.3858 283.825 95.3048 280.444 96.924 282.561C97.4474 283.245 96.9297 283.576 95.6507 283.376C93.3519 283.015 92.6838 285.528 94.742 286.793C98.4522 289.075 101.843 284.457 99.0897 280.87C95.4886 276.178 88.9605 278.264 88.0345 284.102C87.6783 286.348 89.7955 289.52 92.3525 290.279C94.5818 290.94 94.5003 291.252 91.3918 293.953C82.9626 301.278 68.3277 302.307 60.8753 297.494C59.298 296.475 57.3812 294.74 56.3522 293.38C56.0193 292.941 56.0534 292.613 56.4838 292.117C59.0325 289.184 56.8913 283.033 53.0556 280.616C50.2436 278.844 46.3305 278.25 44.342 279.978C43.8478 280.408 43.5164 280.443 43.0749 280.113C34.4928 273.707 33.3259 255.633 42.5024 245.072C45.2037 241.963 45.5157 241.882 46.1769 244.111C46.9353 246.668 50.109 248.785 52.3549 248.429C58.1925 247.503 60.2777 240.976 55.5855 237.374C51.9991 234.621 47.3805 238.011 49.6625 241.722C50.9283 243.78 53.4404 243.112 53.08 240.813C52.8793 239.534 53.2108 239.016 53.8951 239.54C56.0116 241.159 52.6314 245.078 50.1249 243.974C45.0365 241.732 49.184 234.09 54.8127 235.277C64.3255 237.282 60.978 245.346 49.3412 253.785C38.7491 261.466 36.7777 267.849 40.7617 274.776C42.2739 277.406 43.1975 278.092 44.9422 277.438C52.6164 274.562 61.8993 283.843 59.0226 291.516C58.3686 293.261 59.0554 294.184 61.6848 295.696C68.6121 299.68 74.9963 297.707 82.6775 287.115C88.8749 278.57 95.1529 274.622 99.0128 277.063L99.0132 277.064ZM53.7948 227.735C54.5723 229.193 54.4298 230.732 53.5842 233.172C51.7006 238.608 42.9778 238.1 43.5437 232.569C43.8225 229.844 49.1032 229.144 49.4001 231.792C49.4961 232.648 48.8818 232.666 47.8892 231.835C46.1048 230.341 44.0882 231.978 45.2518 234.095C47.3496 237.913 52.5793 235.573 51.9589 231.095C51.1471 225.236 44.4828 223.799 40.7936 228.417C39.3743 230.194 39.6043 234.022 41.4524 235.945C43.0636 237.621 42.8386 237.852 38.8012 238.664C27.8534 240.866 14.7696 234.482 10.6618 226.619C9.79234 224.954 8.82874 222.05 8.64502 220.356C8.58555 219.807 8.78353 219.543 9.40732 219.34C13.1012 218.135 14.4455 212.054 12.2961 208.062C10.7203 205.136 7.67326 202.687 5.09243 203.214C4.45101 203.345 4.14517 203.213 3.92269 202.709C-0.401327 192.912 7.71328 176.564 20.8968 171.883C24.7778 170.505 25.0894 170.588 24.5686 172.854C23.9714 175.453 25.6241 178.859 27.755 179.653C33.2942 181.715 38.3882 177.059 36.0741 171.615C34.3052 167.455 28.6167 168.135 28.7787 172.488C28.8685 174.902 31.3846 175.556 32.2012 173.377C32.6555 172.165 33.1986 171.878 33.5369 172.67C34.5835 175.121 29.6429 177.113 28.058 174.88C24.8399 170.345 32.1512 165.611 36.4671 169.414C43.7612 175.841 36.7436 181.207 22.462 182.84C9.4625 184.326 4.62446 188.507 4.49394 196.497C4.44432 199.529 5.02249 201.01 6.86314 201.298C14.96 202.565 18.3129 215.243 12.0265 220.501C10.5973 221.696 10.7116 222.842 12.2528 225.455C16.3131 232.337 22.7588 233.795 34.6697 228.38C44.2795 224.01 51.6455 223.706 53.7953 227.735L53.7948 227.735ZM39.3685 162.351C39.327 164.002 38.4139 165.264 36.4764 166.971C32.1604 170.774 24.8486 166.04 28.0666 161.506C29.6518 159.272 34.592 161.265 33.5455 163.716C33.2072 164.508 32.6641 164.22 32.2098 163.008C31.3931 160.829 28.877 161.483 28.7873 163.897C28.6254 168.25 34.3137 168.931 36.0827 164.77C38.3969 159.326 33.3013 154.67 27.7623 156.733C25.6313 157.526 23.9801 160.932 24.5772 163.531C25.0979 165.798 24.7861 165.88 20.9054 164.502C10.382 160.766 2.22886 148.98 2.54109 140.114C2.60715 138.238 3.25413 135.241 3.93173 133.677C4.15099 133.171 4.45352 133.039 5.09645 133.171C8.90344 133.948 13.106 129.045 13.3212 124.517C13.4789 121.197 11.9132 117.861 9.40909 117.044C8.78677 116.841 8.58612 116.575 8.6418 116.027C9.7241 105.373 25.0832 94.9592 38.7985 97.7177C42.8357 98.5298 43.061 98.7608 41.4498 100.437C39.6017 102.36 39.3727 106.189 40.792 107.966C44.4812 112.583 51.1444 111.146 51.9563 105.287C52.5767 100.809 47.3471 98.4694 45.2492 102.287C44.0856 104.405 46.1028 106.041 47.8872 104.548C48.8798 103.717 49.4941 103.734 49.3981 104.591C49.1011 107.239 43.8201 106.538 43.5414 103.814C42.9754 98.2824 51.6978 97.7747 53.5816 103.21C56.7649 112.396 47.7539 113.953 34.6684 108.003C22.7579 102.587 16.3135 104.046 12.2535 110.929C10.7124 113.541 10.5985 114.688 12.0277 115.883C18.3141 121.141 14.9644 133.819 6.86735 135.087C5.02667 135.375 4.44974 136.855 4.49937 139.888C4.63011 147.878 9.46926 152.06 22.4688 153.546C32.9567 154.744 39.4837 157.786 39.3686 162.351L39.3685 162.351ZM59.3884 98.9313C58.5057 100.327 57.3364 100.572 54.8094 101.105C49.1809 102.292 45.0319 94.6495 50.1203 92.408C52.6267 91.304 56.0075 95.223 53.8908 96.8421C53.2065 97.3655 52.8753 96.8476 53.0759 95.5688C53.4365 93.27 50.9241 92.602 49.6584 94.6601C47.3766 98.3704 51.9948 101.76 55.5814 99.0079C60.2736 95.4067 58.1872 88.8787 52.3497 87.9527C50.104 87.5965 46.9314 89.7137 46.1727 92.2707C45.5115 94.4999 45.1995 94.4184 42.4983 91.3099C35.1735 82.8808 34.1444 68.2455 38.9577 60.7935C39.9765 59.2161 41.7122 57.2994 43.0712 56.2703C43.5109 55.9374 43.839 55.9716 44.3344 56.402C47.2673 58.9507 53.4185 56.8095 55.8357 52.9738C57.6079 50.1618 58.2013 46.2486 56.4735 44.2602C56.0442 43.766 56.0089 43.4346 56.3385 42.993C62.7447 34.4109 80.8192 33.2437 91.3797 42.4202C94.4882 45.1215 94.5697 45.4335 92.3405 46.0947C89.7835 46.8531 87.6664 50.0272 88.0228 52.273C88.9487 58.1103 95.4758 60.1959 99.0773 55.5036C101.83 51.9171 98.4399 47.299 94.7296 49.5806C92.6714 50.8463 93.3398 53.3585 95.6387 52.9981C96.9175 52.7974 97.435 53.1289 96.9116 53.8131C95.2925 55.9297 91.3738 52.5495 92.4778 50.0429C94.7191 44.9546 102.361 49.102 101.175 54.7307C99.169 64.2435 91.1054 60.8963 82.6665 49.2595C74.9852 38.6675 68.6024 36.6961 61.6752 40.6801C59.0458 42.1923 58.3591 43.1159 59.013 44.8606C61.8898 52.5344 52.6091 61.8176 44.9349 58.941C43.1904 58.287 42.2676 58.9739 40.7555 61.6033C36.7715 68.5305 38.7445 74.9143 49.3366 82.5956C57.8822 88.793 61.8295 95.0713 59.3888 98.9312L59.3884 98.9313ZM108.716 53.7132C107.259 54.4907 105.719 54.3482 103.28 53.5026C97.8442 51.619 98.3516 42.8962 103.883 43.4621C106.608 43.7409 107.308 49.0217 104.66 49.3185C103.804 49.4145 103.786 48.8002 104.617 47.8076C106.111 46.0233 104.474 44.0066 102.356 45.1704C98.5391 47.2682 100.878 52.4979 105.357 51.8771C111.215 51.0654 112.652 44.401 108.034 40.7118C106.258 39.2926 102.43 39.5224 100.507 41.3706C98.8306 42.9817 98.5996 42.7567 97.7875 38.7193C95.5855 27.7715 101.97 14.6877 109.833 10.5799C111.498 9.71043 114.402 8.74684 116.096 8.56308C116.645 8.50361 116.908 8.7017 117.112 9.32552C118.317 13.0194 124.397 14.3637 128.389 12.2143C131.316 10.6385 133.765 7.59142 133.238 5.0106C133.107 4.36921 133.241 4.06323 133.743 3.84079C143.54 -0.483232 159.888 7.63138 164.569 20.8149C165.947 24.6959 165.864 25.0075 163.598 24.4867C160.999 23.8895 157.593 25.5422 156.799 27.6731C154.737 33.2119 159.393 38.3063 164.836 35.9922C168.997 34.2233 168.317 28.5349 163.964 28.6968C161.549 28.7867 160.896 31.3027 163.075 32.1193C164.287 32.5736 164.574 33.1167 163.782 33.4551C161.331 34.5016 159.339 29.5614 161.572 27.9762C166.106 24.7581 170.841 32.0693 167.038 36.3853C160.611 43.6793 155.245 36.6618 153.612 22.3801C152.126 9.38063 147.945 4.54259 139.955 4.41207C136.923 4.36244 135.442 4.94072 135.154 6.78137C133.886 14.8782 121.209 18.2311 115.951 11.9447C114.756 10.5156 113.61 10.6299 110.997 12.171C104.115 16.2313 102.657 22.6774 108.072 34.5879C112.442 44.1978 112.746 51.5638 108.717 53.7136L108.716 53.7132ZM174.088 39.2801C172.436 39.2385 171.175 38.3255 169.467 36.388C165.665 32.072 170.399 24.7602 174.933 27.9782C177.166 29.5634 175.174 34.5036 172.723 33.4571C171.931 33.1188 172.219 32.5757 173.431 32.1214C175.61 31.3047 174.956 28.7886 172.541 28.6989C168.188 28.537 167.508 34.2253 171.669 35.9943C177.112 38.3085 181.768 33.213 179.706 27.6738C178.912 25.5429 175.507 23.8916 172.907 24.4887C170.641 25.0094 170.559 24.6977 171.937 20.817C175.673 10.2935 187.458 2.14043 196.325 2.45266C198.201 2.51873 201.198 3.16573 202.762 3.84333C203.268 4.06261 203.399 4.36512 203.268 5.00805C202.49 8.81504 207.393 13.0176 211.922 13.2328C215.242 13.3905 218.578 11.8248 219.394 9.3207C219.598 8.69838 219.864 8.49769 220.412 8.55341C231.066 9.6357 241.479 24.9948 238.721 38.7101C237.909 42.7474 237.678 42.9726 236.001 41.3614C234.078 39.5133 230.249 39.2844 228.473 40.7036C223.855 44.3928 225.293 51.056 231.151 51.8679C235.63 52.4883 237.969 47.2587 234.152 45.1608C232.034 43.9972 230.397 46.0145 231.891 47.7987C232.722 48.7914 232.704 49.4057 231.848 49.3097C229.2 49.0127 229.9 43.732 232.625 43.4529C238.156 42.8869 238.664 51.6094 233.229 53.4931C224.043 56.6765 222.486 47.6652 228.436 34.58C233.851 22.6694 232.392 16.2251 225.51 12.1648C222.897 10.6236 221.751 10.5098 220.556 11.9389C215.298 18.2253 202.619 14.8756 201.352 6.7786C201.064 4.93792 199.584 4.36098 196.551 4.41061C188.56 4.54133 184.379 9.3805 182.893 22.38C181.695 32.868 178.653 39.3947 174.088 39.2799L174.088 39.2801ZM237.507 59.2997C236.111 58.4169 235.866 57.2476 235.334 54.7207C234.147 49.0922 241.789 44.9432 244.031 50.0315C245.135 52.538 241.216 55.9187 239.597 53.8024C239.074 53.1181 239.591 52.7867 240.87 52.9873C243.169 53.3479 243.837 50.8355 241.779 49.5699C238.068 47.288 234.678 51.9062 237.431 55.4928C241.032 60.185 247.56 58.0987 248.486 52.2612C248.842 50.0154 246.725 46.8428 244.168 46.0842C241.939 45.423 242.02 45.111 245.129 42.4097C253.558 35.0849 268.193 34.0558 275.645 38.8691C277.223 39.8879 279.14 41.6239 280.168 42.9827C280.501 43.4224 280.467 43.7502 280.037 44.2456C277.488 47.1785 279.629 53.33 283.465 55.7472C286.277 57.5194 290.19 58.1125 292.178 56.3848C292.672 55.9554 293.004 55.9201 293.445 56.2497C302.027 62.6559 303.194 80.7304 294.018 91.291C291.317 94.3995 291.005 94.481 290.343 92.2517C289.585 89.6947 286.411 87.5777 284.165 87.9341C278.327 88.86 276.242 95.3871 280.934 98.9886C284.521 101.741 289.139 98.3512 286.857 94.6408C285.592 92.5827 283.08 93.2511 283.44 95.5499C283.641 96.8288 283.309 97.3463 282.625 96.8228C280.508 95.2038 283.888 91.285 286.395 92.3891C291.483 94.6304 287.336 102.273 281.707 101.086C272.194 99.0803 275.542 91.0166 287.178 82.5778C297.771 74.8965 299.742 68.5137 295.758 61.5865C294.246 58.9571 293.322 58.2703 291.577 58.9243C283.904 61.8011 274.62 52.5204 277.497 44.8462C278.151 43.1017 277.464 42.1788 274.835 40.6667C267.908 36.6827 261.524 38.6558 253.842 49.2479C247.645 57.7935 241.367 61.7407 237.507 59.3001L237.507 59.2997ZM282.725 108.628C281.947 107.17 282.09 105.631 282.935 103.191C284.819 97.7551 293.542 98.2628 292.976 103.794C292.697 106.519 287.416 107.219 287.119 104.571C287.023 103.715 287.637 103.697 288.63 104.528C290.414 106.022 292.431 104.385 291.267 102.268C289.17 98.4504 283.94 100.79 284.561 105.268C285.372 111.127 292.037 112.564 295.726 107.946C297.145 106.169 296.915 102.341 295.067 100.418C293.456 98.7415 293.681 98.5106 297.718 97.6985C308.666 95.4965 321.75 101.881 325.858 109.744C326.727 111.409 327.691 114.313 327.875 116.007C327.934 116.556 327.736 116.819 327.112 117.023C323.418 118.228 322.074 124.309 324.223 128.3C325.799 131.227 328.846 133.676 331.427 133.149C332.069 133.018 332.374 133.149 332.597 133.654C336.921 143.451 328.806 159.799 315.623 164.48C311.742 165.858 311.43 165.775 311.951 163.509C312.548 160.91 310.895 157.504 308.764 156.711C303.225 154.648 298.131 159.304 300.445 164.748C302.214 168.908 307.903 168.228 307.741 163.875C307.651 161.461 305.135 160.807 304.318 162.986C303.864 164.198 303.321 164.485 302.983 163.693C301.936 161.242 306.877 159.25 308.461 161.483C311.68 166.018 304.368 170.752 300.052 166.949C292.758 160.522 299.776 155.156 314.057 153.523C327.057 152.037 331.895 147.856 332.026 139.866C332.075 136.834 331.497 135.353 329.656 135.065C321.559 133.798 318.207 121.12 324.493 115.862C325.922 114.667 325.808 113.521 324.267 110.908C320.206 104.026 313.76 102.567 301.85 107.983C292.24 112.353 284.874 112.657 282.724 108.628L282.725 108.628ZM297.071 180.374C297.262 178.2 297.544 177.004 297.961 177.029C298.434 177.059 298.523 176.772 298.796 180.549C299.01 183.51 300.025 186.455 300.898 188.326C301.694 190.034 301.672 190.358 300.366 191.649C297.972 194.016 295.06 199.08 295.828 200.017C297.504 202.061 301.806 202.528 307.005 201.23C310.236 200.424 309.836 200.37 311.593 201.849C312.48 202.597 314.501 204.077 316.083 205.14C317.665 206.202 319.366 207.582 319.945 208.012C320.524 208.442 320.968 208.904 320.932 209.039C320.862 209.306 320.006 209.635 314.767 210.026C312.867 210.167 310.378 210.456 309.237 210.667C306.979 211.085 307.353 211.235 304.943 208.938C301.064 205.24 297.093 203.52 294.627 204.469C293.495 204.904 293.668 210.377 294.5 213.639C294.954 215.418 294.865 215.733 293.303 216.786C291.592 217.941 289.092 220.357 287.445 222.827C285.344 225.978 285.381 225.678 284.955 225.47C284.096 225.051 287.363 218.422 289.588 215.643C290.601 214.377 290.464 214.842 291.058 211.262C292.249 204.093 293.189 202.039 295.321 202.603C295.555 202.665 295.783 202.575 295.829 202.402C295.874 202.229 295.72 202.038 295.487 201.976C293.355 201.412 293.622 199.182 296.129 192.361C297.381 188.955 297.341 189 297.124 187.393C296.857 185.409 296.824 183.169 297.071 180.374L297.071 180.374ZM273.88 242.913C275.159 241.145 275.972 240.229 276.317 240.466C276.708 240.733 276.974 240.566 275.272 243.949C273.938 246.601 273.118 249.994 272.958 252.052C272.813 253.931 272.607 254.178 270.835 254.661C267.587 255.546 262.818 258.141 262.997 259.34C263.386 261.954 266.691 264.79 271.855 266.217C275.065 267.104 274.743 266.861 275.545 269.013C275.951 270.1 276.938 272.408 277.751 274.132C278.563 275.856 279.467 277.805 279.76 278.464C280.052 279.123 280.211 279.744 280.114 279.845C279.921 280.042 278.989 279.887 274.237 277.647C272.513 276.835 270.205 275.847 269.118 275.442C266.966 274.64 267.209 274.961 266.322 271.752C264.895 266.587 262.058 263.282 259.444 262.893C258.245 262.714 255.651 267.484 254.767 270.732C254.284 272.504 254.037 272.71 252.159 272.856C250.1 273.015 246.708 273.836 244.055 275.171C240.672 276.873 240.84 276.607 240.573 276.216C240.033 275.428 246.185 271.346 249.491 270.028C250.998 269.427 250.954 269.457 253.304 266.693C258.012 261.157 259.738 259.756 261.278 261.335C261.447 261.508 261.402 261.841 261.527 261.713C261.651 261.585 261.612 261.343 261.439 261.174C259.86 259.634 261.26 257.907 266.795 253.198C269.559 250.848 269.529 250.891 270.13 249.385C270.872 247.526 272.235 245.187 273.88 242.913L273.88 242.913ZM222.237 285.762C224.222 284.856 225.395 284.483 225.578 284.859C225.786 285.285 226.087 285.249 222.936 287.35C220.465 288.997 218.05 291.498 216.895 293.209C215.842 294.771 215.527 294.861 213.748 294.407C210.486 293.574 205.014 293.404 204.578 294.535C203.63 297.002 205.35 300.973 209.047 304.851C211.345 307.261 211.194 306.887 210.777 309.145C210.566 310.286 210.277 312.775 210.136 314.675C209.994 316.575 209.642 318.759 209.554 319.475C209.466 320.19 209.284 320.805 209.149 320.841C208.882 320.912 208.178 320.354 205.25 315.993C204.187 314.411 202.707 312.39 201.959 311.502C200.48 309.745 200.534 310.145 201.34 306.914C202.637 301.715 202.171 297.413 200.127 295.738C199.19 294.969 194.126 297.883 191.759 300.277C190.468 301.582 190.144 301.606 188.437 300.809C186.566 299.937 183.621 298.923 180.66 298.71C176.882 298.437 177.169 298.347 177.14 297.875C177.081 296.921 183.976 296.559 187.503 297.035C189.11 297.252 189.066 297.292 192.471 296.04C199.292 293.533 201.522 293.264 202.085 295.395C202.147 295.629 202.339 295.783 202.511 295.737C202.684 295.692 202.774 295.463 202.713 295.229C202.149 293.098 204.202 292.155 211.371 290.965C214.951 290.371 214.486 290.507 215.751 289.494C217.314 288.242 219.683 286.927 222.236 285.762L222.237 285.762ZM156.066 296.986C158.24 297.177 159.436 297.459 159.41 297.876C159.381 298.349 159.668 298.439 155.891 298.712C152.929 298.926 149.984 299.941 148.113 300.813C146.406 301.609 146.081 301.587 144.79 300.281C142.423 297.888 137.36 294.975 136.422 295.743C134.379 297.419 133.912 301.721 135.209 306.92C136.015 310.151 136.069 309.751 134.59 311.508C133.843 312.396 132.362 314.417 131.3 315.998C130.238 317.58 128.858 319.281 128.428 319.86C127.998 320.439 127.536 320.883 127.4 320.848C127.133 320.777 126.804 319.921 126.414 314.682C126.272 312.782 125.984 310.293 125.773 309.152C125.355 306.894 125.204 307.268 127.502 304.858C131.199 300.98 132.919 297.009 131.971 294.542C131.536 293.411 126.063 293.583 122.801 294.415C121.022 294.87 120.707 294.781 119.653 293.219C118.499 291.507 116.083 289.008 113.613 287.36C110.462 285.26 110.762 285.296 110.97 284.871C111.389 284.011 118.018 287.278 120.797 289.503C122.062 290.517 121.598 290.38 125.177 290.974C132.347 292.164 134.4 293.105 133.837 295.236C133.775 295.47 133.865 295.699 134.038 295.744C134.21 295.79 134.402 295.636 134.464 295.402C135.027 293.27 137.258 293.538 144.079 296.045C147.484 297.297 147.44 297.257 149.047 297.04C151.031 296.772 153.271 296.74 156.066 296.986L156.066 296.986ZM93.5264 273.802C95.295 275.081 96.2106 275.894 95.9743 276.239C95.7068 276.629 95.8737 276.895 92.4909 275.193C89.8386 273.859 86.4451 273.039 84.387 272.88C82.5085 272.734 82.2616 272.528 81.779 270.757C80.894 267.509 78.2989 262.74 77.0999 262.918C74.486 263.308 71.6497 266.613 70.2221 271.777C69.3351 274.987 69.5786 274.665 67.4269 275.467C66.3394 275.872 64.0312 276.86 62.3074 277.673C60.5837 278.485 58.6342 279.389 57.9753 279.681C57.3162 279.973 56.695 280.133 56.5949 280.035C56.3973 279.842 56.5523 278.91 58.7924 274.158C59.6049 272.435 60.5924 270.127 60.9977 269.039C61.7998 266.888 61.4782 267.131 64.6876 266.244C69.8522 264.817 73.1572 261.98 73.5468 259.366C73.7254 258.167 68.955 255.573 65.7073 254.688C63.9356 254.206 63.729 253.959 63.5835 252.08C63.4242 250.022 62.6032 246.629 61.2688 243.977C59.5667 240.594 59.8324 240.762 60.223 240.494C61.0119 239.954 65.0929 246.107 66.4117 249.413C67.0125 250.919 66.9832 250.875 69.7469 253.226C75.2827 257.934 76.6835 259.66 75.105 261.2C74.932 261.369 74.5989 261.324 74.7267 261.449C74.8545 261.573 75.0971 261.533 75.2659 261.36C76.8057 259.782 78.5329 261.181 83.2413 266.717C85.5919 269.481 85.5484 269.451 87.0543 270.052C88.9141 270.793 91.2525 272.157 93.5265 273.802L93.5264 273.802ZM50.6811 222.158C51.5872 224.144 51.9599 225.317 51.5839 225.5C51.1584 225.708 51.194 226.008 49.0933 222.857C47.4462 220.387 44.9453 217.971 43.2335 216.816C41.6716 215.763 41.5823 215.448 42.0364 213.669C42.8689 210.407 43.0393 204.935 41.9078 204.5C39.4411 203.551 35.4704 205.272 31.5922 208.969C29.182 211.267 29.5562 211.116 27.2983 210.699C26.157 210.488 23.6683 210.199 21.7681 210.057C19.8679 209.916 17.6841 209.563 16.9686 209.475C16.2529 209.388 15.638 209.206 15.6023 209.07C15.5317 208.804 16.0891 208.1 20.4507 205.171C22.0327 204.109 24.0535 202.628 24.9414 201.881C26.698 200.402 26.2982 200.456 29.5291 201.262C34.7279 202.559 39.0298 202.092 40.7058 200.049C41.4745 199.111 38.5605 194.048 36.1669 191.681C34.8612 190.39 34.838 190.066 35.6344 188.359C36.5069 186.487 37.5202 183.543 37.7342 180.582C38.0071 176.804 38.0962 177.091 38.5686 177.062C39.5229 177.003 39.8842 183.897 39.4082 187.425C39.1914 189.032 39.1518 188.987 40.4036 192.393C42.9109 199.214 43.18 201.444 41.0482 202.007C40.8146 202.069 40.6604 202.261 40.7061 202.433C40.7517 202.606 40.9805 202.697 41.2142 202.635C43.346 202.071 44.2881 204.124 45.4783 211.293C46.0724 214.872 45.9369 214.408 46.9503 215.674C48.2016 217.237 49.5169 219.605 50.682 222.159L50.6811 222.158ZM39.4511 155.985C39.2596 158.159 38.9778 159.355 38.5603 159.329C38.0879 159.3 37.9982 159.586 37.7253 155.809C37.5113 152.847 36.4961 149.903 35.6236 148.032C34.8273 146.324 34.8497 146 36.1554 144.709C38.5491 142.342 41.462 137.278 40.6933 136.341C39.0176 134.298 34.7154 133.831 29.5166 135.128C26.2858 135.934 26.6856 135.988 24.9289 134.509C24.0411 133.762 22.0201 132.281 20.4382 131.219C18.8563 130.156 17.1555 128.776 16.5767 128.347C15.9979 127.917 15.5534 127.454 15.5891 127.319C15.6597 127.052 16.5153 126.723 21.7547 126.332C23.6549 126.191 26.1436 125.902 27.2848 125.691C29.5429 125.273 29.1686 125.123 31.5787 127.42C35.457 131.118 39.4279 132.838 41.8943 131.89C43.0259 131.455 42.8536 125.981 42.0212 122.72C41.5671 120.94 41.6557 120.626 43.2177 119.572C44.9293 118.418 47.429 116.002 49.0761 113.531C51.1769 110.38 51.1405 110.681 51.566 110.888C52.4254 111.307 49.1582 117.937 46.9337 120.715C45.9204 121.981 46.0571 121.517 45.4629 125.096C44.2728 132.265 43.3325 134.319 41.2008 133.755C40.9672 133.693 40.7384 133.784 40.6927 133.957C40.6471 134.129 40.8012 134.321 41.0349 134.383C43.1667 134.946 42.8994 137.177 40.3921 143.998C39.1404 147.403 39.1805 147.359 39.3973 148.966C39.6651 150.95 39.6972 153.189 39.451 155.985L39.4511 155.985ZM62.6409 93.4484C61.3619 95.2171 60.5489 96.1327 60.2038 95.8963C59.8132 95.6289 59.5472 95.7958 61.2493 92.4129C62.5837 89.7606 63.4037 86.3672 63.563 84.3091C63.7085 82.4305 63.9144 82.1837 65.686 81.701C68.9339 80.816 73.7026 78.2209 73.5242 77.0219C73.1349 74.4081 69.8303 71.5717 64.6656 70.1445C61.4561 69.2574 61.7777 69.5009 60.9758 67.3492C60.5704 66.2617 59.5825 63.9535 58.77 62.2297C57.9576 60.5061 57.0537 58.5566 56.7614 57.8976C56.4692 57.2386 56.3097 56.6173 56.4073 56.5173C56.6001 56.3196 57.5323 56.4746 62.2844 58.7148C64.0081 59.5273 66.3163 60.5144 67.4036 60.9197C69.5553 61.7218 69.3115 61.4005 70.1986 64.6099C71.6259 69.7746 74.4627 73.0796 77.0766 73.4691C78.2757 73.6477 80.8696 68.8774 81.7544 65.6296C82.2371 63.858 82.4839 63.6513 84.3624 63.5059C86.4208 63.3465 89.8132 62.5256 92.4656 61.1911C95.8486 59.489 95.681 59.7547 95.9483 60.1453C96.4885 60.9342 90.3362 65.0152 87.0299 66.334C85.5238 66.9347 85.5674 66.9055 83.2169 69.6692C78.5087 75.205 76.7829 76.6055 75.2432 75.0273C75.0744 74.8543 75.1189 74.5215 74.9942 74.6493C74.8696 74.7771 74.9094 75.0197 75.0824 75.1885C76.6608 76.7283 75.2614 78.4555 69.7256 83.1639C66.962 85.5145 66.9919 85.471 66.3912 86.9769C65.6495 88.8367 64.2857 91.1751 62.6411 93.4491L62.6409 93.4484ZM114.284 50.597C112.299 51.5031 111.126 51.8758 110.943 51.4998C110.735 51.0743 110.435 51.1099 113.586 49.0092C116.056 47.3621 118.472 44.8612 119.626 43.1495C120.68 41.5875 120.994 41.4984 122.773 41.9525C126.035 42.7849 131.508 42.9553 131.943 41.8237C132.891 39.3571 131.171 35.3864 127.474 31.5081C125.176 29.0979 125.327 29.472 125.745 27.2139C125.956 26.0727 126.244 23.5839 126.386 21.6838C126.527 19.7835 126.88 17.5997 126.967 16.8839C127.055 16.1683 127.237 15.5533 127.372 15.5176C127.639 15.447 128.343 16.0044 131.272 20.366C132.334 21.948 133.815 23.9689 134.562 24.8567C136.041 26.6133 135.987 26.2136 135.181 29.4444C133.884 34.6432 134.351 38.9451 136.394 40.6211C137.332 41.3898 142.395 38.4757 144.762 36.0819C146.053 34.7762 146.377 34.753 148.085 35.5493C149.956 36.4219 152.9 37.4351 155.861 37.6491C159.639 37.922 159.352 38.0111 159.381 38.4835C159.44 39.4378 152.546 39.7991 149.018 39.3232C147.411 39.1063 147.455 39.0669 144.05 40.3186C137.229 42.826 134.999 43.095 134.436 40.9632C134.374 40.7295 134.182 40.5755 134.009 40.6212C133.837 40.6668 133.746 40.8955 133.808 41.1292C134.372 43.261 132.319 44.2032 125.149 45.3933C121.57 45.9874 122.035 45.8518 120.769 46.8652C119.206 48.1165 116.838 49.4318 114.285 50.5969L114.284 50.597ZM180.455 39.3727C178.281 39.1812 177.085 38.8994 177.111 38.4819C177.14 38.0095 176.854 37.9198 180.631 37.6469C183.592 37.4329 186.537 36.4178 188.408 35.5452C190.116 34.7489 190.44 34.7713 191.731 36.0771C194.098 38.4708 199.161 41.3836 200.099 40.6149C202.142 38.9393 202.609 34.6371 201.312 29.4383C200.505 26.2074 200.452 26.6072 201.931 24.8505C202.678 23.9627 204.159 21.9417 205.221 20.3598C206.283 18.7779 207.663 17.0772 208.093 16.4983C208.523 15.9195 208.985 15.475 209.121 15.5107C209.387 15.5813 209.717 16.437 210.107 21.676C210.249 23.5762 210.538 26.0649 210.749 27.2061C211.166 29.4642 211.317 29.0899 209.019 31.5C205.322 35.3783 203.602 39.3492 204.55 41.8156C204.985 42.9472 210.458 42.775 213.72 41.9425C215.499 41.4884 215.814 41.5771 216.868 43.1391C218.022 44.8506 220.438 47.3503 222.908 48.9975C226.059 51.0982 225.759 51.0619 225.551 51.4873C225.132 52.3467 218.503 49.0795 215.724 46.8548C214.459 45.8414 214.923 45.9781 211.344 45.3839C204.174 44.1938 202.121 43.2535 202.685 41.1218C202.747 40.8881 202.656 40.6594 202.483 40.6137C202.311 40.5681 202.119 40.7222 202.057 40.9559C201.493 43.0876 199.263 42.8204 192.442 40.3131C189.036 39.0613 189.081 39.1015 187.474 39.3183C185.49 39.586 183.25 39.6181 180.455 39.3719L180.455 39.3727ZM242.995 62.5622C241.226 61.2831 240.31 60.4701 240.547 60.125C240.814 59.7344 240.647 59.4684 244.03 61.1705C246.682 62.505 250.076 63.3249 252.134 63.4843C254.012 63.6297 254.259 63.8357 254.742 65.6073C255.627 68.8551 258.222 73.6238 259.421 73.4454C262.035 73.0562 264.871 69.7513 266.299 64.5869C267.186 61.3774 266.942 61.699 269.094 60.8971C270.182 60.4917 272.49 59.5038 274.214 58.6913C275.937 57.8788 277.887 56.975 278.546 56.6827C279.205 56.3905 279.826 56.231 279.926 56.3286C280.124 56.5214 279.969 57.4536 277.728 62.2057C276.916 63.9293 275.929 66.2376 275.523 67.3249C274.721 69.4766 275.043 69.2328 271.833 70.1198C266.669 71.5472 263.364 74.384 262.974 76.9979C262.796 78.197 267.566 80.7908 270.814 81.6757C272.585 82.1584 272.792 82.4051 272.937 84.2837C273.097 86.342 273.918 89.7344 275.252 92.3869C276.954 95.7699 276.688 95.6023 276.298 95.8696C275.509 96.4097 271.428 90.2575 270.109 86.9511C269.508 85.445 269.538 85.4886 266.774 83.1382C261.238 78.4299 259.838 76.7041 261.416 75.1644C261.589 74.9956 261.922 75.0401 261.794 74.9155C261.667 74.7908 261.424 74.8306 261.255 75.0037C259.715 76.5821 257.988 75.1827 253.28 69.6469C250.929 66.8832 250.973 66.9132 249.467 66.3125C247.607 65.5707 245.269 64.2069 242.995 62.5624L242.995 62.5622ZM285.843 114.206C284.937 112.22 284.565 111.048 284.941 110.864C285.366 110.657 285.33 110.356 287.431 113.507C289.078 115.978 291.579 118.393 293.291 119.548C294.853 120.601 294.942 120.916 294.488 122.695C293.655 125.957 293.485 131.429 294.617 131.864C297.083 132.813 301.054 131.092 304.932 127.395C307.342 125.098 306.968 125.248 309.226 125.666C310.367 125.877 312.856 126.166 314.756 126.307C316.656 126.449 318.84 126.801 319.556 126.889C320.271 126.977 320.886 127.159 320.922 127.294C320.993 127.561 320.435 128.264 316.074 131.193C314.492 132.256 312.471 133.736 311.583 134.484C309.826 135.963 310.226 135.909 306.995 135.103C301.796 133.805 297.495 134.272 295.819 136.316C295.05 137.253 297.964 142.317 300.358 144.683C301.664 145.974 301.687 146.298 300.89 148.006C300.018 149.877 299.004 152.821 298.79 155.783C298.518 159.56 298.428 159.273 297.956 159.303C297.002 159.362 296.64 152.467 297.116 148.939C297.333 147.333 297.373 147.377 296.121 143.972C293.614 137.15 293.345 134.921 295.476 134.357C295.71 134.295 295.864 134.103 295.818 133.931C295.773 133.758 295.544 133.667 295.31 133.729C293.179 134.293 292.236 132.24 291.046 125.071C290.452 121.492 290.588 121.956 289.574 120.69C288.323 119.127 287.008 116.759 285.843 114.206L285.843 114.206ZM297.7 199.424C297.787 199.132 298.262 198.634 299.153 197.942C302.631 195.236 304.52 191.888 304.186 188.718C303.964 186.613 304.334 186.518 305.676 187.735C309.988 191.643 323.838 192.849 328.506 189.724C329.013 189.384 329.211 189.394 329.563 189.778C330.293 190.574 329.927 191.482 327.502 193.307C322.31 197.214 318.279 198.471 309.746 197.892C305.615 197.612 303.963 197.619 301.225 198.764C298.774 199.788 297.532 199.982 297.7 199.424L297.7 199.424ZM295.959 205.915C296.089 205.348 297.206 205.804 298.778 207.944C300.535 210.337 301.922 211.396 305.652 213.194C313.356 216.908 316.194 219.974 318.779 225.936C319.985 228.72 319.833 229.679 318.805 230.011C318.31 230.171 318.133 230.082 317.859 229.536C315.343 224.513 302.704 218.724 297.025 219.993C295.257 220.388 295.048 219.84 296.322 218.149C298.241 215.604 298.166 211.693 296.579 207.581C296.173 206.529 295.891 206.212 295.959 205.915V205.915ZM264.642 260.071C264.862 259.86 265.521 259.66 266.636 259.495C270.996 258.85 274.363 256.937 275.63 254.012C276.471 252.069 277.051 251.98 277.58 253.714C279.279 259.279 290.746 267.288 296.347 266.859C296.956 266.813 297.123 266.919 297.241 267.426C297.486 268.478 296.691 269.067 293.683 269.465C287.241 270.317 283.056 269.385 275.91 264.686C272.45 262.412 270.984 261.58 268.036 261.23C265.399 260.917 264.222 260.474 264.642 260.072L264.642 260.071ZM260.17 264.546C260.572 264.125 261.015 265.302 261.328 267.939C261.679 270.887 262.511 272.354 264.785 275.813C269.484 282.96 270.417 287.146 269.564 293.588C269.166 296.596 268.578 297.391 267.526 297.146C267.019 297.028 266.913 296.861 266.959 296.252C267.388 290.651 259.378 279.184 253.814 277.485C252.08 276.956 252.169 276.376 254.112 275.534C257.037 274.268 258.948 270.9 259.593 266.54C259.758 265.424 259.958 264.766 260.169 264.546L260.17 264.546ZM206.02 295.873C206.317 295.805 206.634 296.086 207.686 296.492C211.797 298.079 215.709 298.152 218.253 296.233C219.944 294.959 220.492 295.168 220.097 296.936C218.828 302.615 224.618 315.254 229.64 317.77C230.186 318.044 230.275 318.221 230.115 318.716C229.783 319.744 228.825 319.897 226.041 318.69C220.078 316.106 217.012 313.269 213.298 305.565C211.501 301.835 210.442 300.448 208.049 298.691C205.909 297.119 205.452 296.002 206.02 295.873L206.02 295.873ZM199.53 297.614C200.087 297.447 199.894 298.689 198.87 301.139C197.725 303.878 197.718 305.531 197.998 309.661C198.576 318.195 197.32 322.227 193.413 327.419C191.588 329.843 190.68 330.21 189.884 329.48C189.5 329.128 189.49 328.93 189.83 328.423C192.955 323.755 191.749 309.905 187.841 305.594C186.624 304.251 186.719 303.881 188.825 304.103C191.994 304.437 195.341 302.546 198.047 299.067C198.74 298.177 199.238 297.702 199.53 297.614V297.614ZM137.014 297.62C137.306 297.708 137.804 298.183 138.496 299.073C141.202 302.552 144.55 304.441 147.719 304.107C149.825 303.885 149.92 304.254 148.703 305.597C144.796 309.909 143.589 323.758 146.714 328.426C147.054 328.934 147.044 329.131 146.66 329.483C145.864 330.213 144.956 329.847 143.131 327.423C139.224 322.231 137.967 318.2 138.546 309.667C138.826 305.536 138.819 303.884 137.674 301.145C136.65 298.695 136.456 297.453 137.014 297.62L137.014 297.62ZM130.523 295.88C131.09 296.009 130.634 297.126 128.494 298.699C126.101 300.456 125.042 301.843 123.244 305.572C119.53 313.277 116.464 316.115 110.502 318.699C107.718 319.906 106.759 319.753 106.427 318.726C106.267 318.23 106.356 318.053 106.902 317.78C111.924 315.264 117.714 302.624 116.445 296.946C116.05 295.177 116.598 294.968 118.289 296.243C120.834 298.161 124.745 298.086 128.857 296.499C129.909 296.093 130.226 295.812 130.523 295.88L130.523 295.88ZM76.3632 264.566C76.5743 264.786 76.7744 265.445 76.9395 266.561C77.5845 270.921 79.4977 274.287 82.4224 275.554C84.3653 276.395 84.4542 276.975 82.7209 277.504C77.156 279.204 69.1468 290.67 69.5755 296.271C69.6221 296.88 69.516 297.047 69.0089 297.165C67.9571 297.41 67.368 296.616 66.9699 293.607C66.1174 287.165 67.0496 282.98 71.7484 275.834C74.0229 272.375 74.8546 270.908 75.205 267.961C75.5184 265.323 75.9606 264.147 76.3635 264.566L76.3632 264.566ZM71.8895 260.096C72.3097 260.498 71.1334 260.941 68.4958 261.254C65.5482 261.605 64.0811 262.436 60.6218 264.711C53.475 269.41 49.2896 270.343 42.8475 269.49C39.8391 269.092 39.0446 268.504 39.2892 267.452C39.4072 266.945 39.5745 266.839 40.1833 266.885C45.7844 267.314 57.2512 259.304 58.9506 253.739C59.4798 252.006 60.0596 252.095 60.901 254.038C62.1673 256.963 65.5355 258.874 69.8954 259.519C71.0113 259.684 71.6696 259.884 71.8897 260.095L71.8895 260.096ZM40.5627 205.942C40.6306 206.239 40.3497 206.556 39.9435 207.609C38.3565 211.72 38.2834 215.631 40.2019 218.176C41.4765 219.866 41.2677 220.415 39.4991 220.02C33.8204 218.751 21.1806 224.54 18.6647 229.562C18.3912 230.108 18.2143 230.198 17.7188 230.038C16.6911 229.706 16.538 228.747 17.7449 225.963C20.3292 220 23.1662 216.935 30.8709 213.221C34.6003 211.423 35.9874 210.364 37.7446 207.972C39.3169 205.831 40.4332 205.375 40.5629 205.942L40.5627 205.942ZM38.8212 199.452C38.9889 200.01 37.7469 199.816 35.2963 198.792C32.5576 197.647 30.9047 197.64 26.7741 197.92C18.2409 198.499 14.2087 197.243 9.01655 193.335C6.59197 191.51 6.22546 190.602 6.95533 189.806C7.30725 189.422 7.5051 189.412 8.01253 189.752C12.6802 192.877 26.5304 191.671 30.8417 187.763C32.1846 186.546 32.5546 186.641 32.3327 188.747C31.9987 191.916 33.8891 195.264 37.3678 197.97C38.2582 198.662 38.733 199.16 38.8208 199.452H38.8212ZM38.8148 136.936C38.727 137.228 38.2522 137.726 37.3618 138.419C33.8831 141.125 31.9943 144.472 32.3283 147.642C32.5502 149.747 32.1809 149.842 30.838 148.625C26.5263 144.718 12.6765 143.512 8.00878 146.637C7.50135 146.976 7.3035 146.966 6.95162 146.583C6.22171 145.787 6.58755 144.879 9.01213 143.054C14.2042 139.146 18.2351 137.889 26.7684 138.468C30.899 138.748 32.5511 138.741 35.2899 137.596C37.7405 136.572 38.9824 136.378 38.8148 136.936L38.8148 136.936ZM40.5553 130.445C40.4256 131.013 39.3086 130.557 37.7362 128.416C35.979 126.024 34.5921 124.964 30.8629 123.167C23.1582 119.453 20.32 116.386 17.7358 110.424C16.529 107.64 16.6814 106.681 17.7091 106.35C18.2046 106.19 18.3816 106.279 18.6551 106.825C21.1711 111.847 33.8108 117.636 39.4891 116.368C41.2578 115.973 41.4667 116.521 40.1921 118.211C38.2736 120.756 38.3485 124.667 39.9355 128.779C40.3417 129.831 40.6232 130.148 40.5553 130.446V130.445ZM71.8719 76.289C71.6518 76.5 70.9935 76.7001 69.8776 76.8652C65.5177 77.5103 62.1508 79.4235 60.8845 82.3482C60.0432 84.2911 59.4633 84.3799 58.9341 82.6467C57.2349 77.0817 45.7683 69.0725 40.1676 69.5012C39.5587 69.5478 39.3914 69.4418 39.2734 68.9346C39.0287 67.8828 39.8228 67.2937 42.8311 66.8956C49.2731 66.0432 53.4582 66.9753 60.6047 71.6741C64.064 73.9485 65.5304 74.7803 68.478 75.1304C71.1155 75.4437 72.292 75.886 71.8721 76.2889L71.8719 76.289ZM76.344 71.8179C75.9411 72.2381 75.4986 71.0618 75.1852 68.4242C74.835 65.4766 74.0031 64.0095 71.7286 60.5502C67.0298 53.4038 66.0965 49.218 66.9491 42.7759C67.3472 39.7676 67.9359 38.973 68.9878 39.2176C69.4949 39.3356 69.601 39.5029 69.5544 40.1117C69.1257 45.7125 77.1352 57.1796 82.7001 58.879C84.4334 59.4082 84.3446 59.988 82.4016 60.8294C79.477 62.0957 77.5653 65.4639 76.9204 69.8238C76.7553 70.9397 76.5552 71.598 76.3442 71.8181L76.344 71.8179ZM130.497 40.4914C130.2 40.5594 129.883 40.2785 128.831 39.8723C124.719 38.2852 120.809 38.2123 118.264 40.1309C116.573 41.4054 116.025 41.1965 116.42 39.4278C117.689 33.7491 111.899 21.1097 106.877 18.5938C106.331 18.3203 106.242 18.1432 106.402 17.6477C106.734 16.62 107.692 16.467 110.476 17.6738C116.439 20.2581 119.505 23.0952 123.218 30.7995C125.016 34.5288 126.075 35.916 128.467 37.6732C130.608 39.2455 131.064 40.3618 130.497 40.4915L130.497 40.4914ZM136.987 38.7498C136.43 38.9175 136.623 37.6755 137.648 35.2249C138.792 32.4862 138.799 30.8333 138.519 26.7027C137.94 18.1694 139.196 14.1372 143.104 8.94513C144.929 6.52055 145.837 6.15407 146.633 6.88398C147.017 7.2359 147.027 7.43371 146.687 7.94114C143.562 12.6089 144.768 26.459 148.675 30.7703C149.892 32.1133 149.798 32.4832 147.692 32.2613C144.523 31.9273 141.176 33.8177 138.47 37.2965C137.777 38.1868 137.279 38.6616 136.987 38.7495L136.987 38.7498ZM199.503 38.7436C199.211 38.6557 198.713 38.181 198.021 37.2905C195.315 33.8118 191.967 31.9231 188.797 32.257C186.692 32.4789 186.597 32.1096 187.814 30.7667C191.721 26.4551 192.928 12.6052 189.803 7.93749C189.463 7.43006 189.473 7.23222 189.857 6.88033C190.653 6.15043 191.561 6.51627 193.386 8.94084C197.293 14.1329 198.55 18.1638 197.971 26.6971C197.691 30.8277 197.698 32.4798 198.843 35.2186C199.867 37.6691 200.061 38.9112 199.503 38.7435L199.503 38.7436ZM205.994 40.484C205.426 40.3543 205.883 39.2374 208.024 37.6651C210.416 35.9079 211.475 34.5209 213.273 30.7914C216.987 23.0867 220.053 20.2486 226.015 17.6644C228.799 16.4576 229.758 16.61 230.09 17.6377C230.25 18.1332 230.161 18.3103 229.615 18.5838C224.592 21.0997 218.803 33.7394 220.072 39.4178C220.467 41.1865 219.919 41.3954 218.228 40.1208C215.683 38.2023 211.772 38.2771 207.66 39.8641C206.608 40.2703 206.291 40.5518 205.994 40.4839L205.994 40.484ZM260.15 71.8009C259.939 71.5808 259.739 70.9224 259.574 69.8065C258.929 65.4467 257.016 62.0798 254.091 60.8135C252.148 59.9722 252.059 59.3923 253.793 58.8631C259.358 57.1639 267.367 45.6972 266.938 40.0965C266.892 39.4876 266.998 39.3203 267.505 39.2023C268.557 38.9577 269.146 39.7518 269.544 42.76C270.396 49.202 269.464 53.3872 264.765 60.5336C262.491 63.9929 261.659 65.4594 261.309 68.407C260.996 71.0444 260.553 72.221 260.151 71.801L260.15 71.8009ZM264.625 76.2736C264.204 75.8707 265.381 75.4285 268.019 75.1151C270.966 74.7649 272.433 73.9327 275.892 71.6582C283.039 66.9593 287.224 66.026 293.666 66.8787C296.675 67.2768 297.47 67.8658 297.225 68.9176C297.107 69.4248 296.94 69.5305 296.331 69.4839C290.73 69.0553 279.263 77.0648 277.564 82.6297C277.034 84.363 276.454 84.2741 275.613 82.3312C274.347 79.4066 270.979 77.4948 266.619 76.8499C265.503 76.6848 264.845 76.4847 264.624 76.2737L264.625 76.2736ZM295.951 130.424C295.883 130.126 296.164 129.81 296.571 128.757C298.158 124.646 298.231 120.735 296.312 118.19C295.038 116.5 295.247 115.951 297.015 116.347C302.694 117.615 315.333 111.826 317.849 106.803C318.123 106.257 318.3 106.168 318.795 106.328C319.823 106.66 319.976 107.619 318.769 110.403C316.185 116.365 313.348 119.431 305.643 123.145C301.914 124.942 300.527 126.001 298.769 128.394C297.197 130.535 296.081 130.991 295.951 130.423L295.951 130.424ZM297.693 136.914C297.525 136.356 298.767 136.55 301.218 137.574C303.956 138.719 305.609 138.726 309.74 138.446C318.273 137.867 322.305 139.123 327.497 143.031C329.922 144.856 330.288 145.764 329.559 146.56C329.207 146.944 329.009 146.954 328.501 146.614C323.834 143.489 309.983 144.695 305.672 148.603C304.329 149.82 303.959 149.725 304.181 147.62C304.515 144.45 302.625 141.103 299.146 138.397C298.256 137.704 297.781 137.206 297.693 136.914L297.693 136.914ZM302.04 204.068C301.669 204.995 310.169 207.751 313.639 207.741C314.514 207.739 315.253 207.654 315.28 207.553C315.358 207.257 312.719 205.844 310.724 205.114C309.12 204.526 302.678 203.647 302.161 203.946C302.098 203.982 302.058 204.023 302.04 204.068L302.04 204.068ZM266.296 266.046C265.502 266.65 271.379 273.38 274.362 275.154C275.115 275.602 275.856 275.847 275.929 275.772C276.143 275.553 274.541 273.025 273.164 271.407C272.056 270.106 266.881 266.171 266.284 266.176C266.211 266.176 266.335 266.016 266.296 266.046L266.296 266.046ZM204.138 301.967C203.149 302.103 204.954 310.854 206.678 313.866C207.113 314.626 207.551 315.226 207.652 315.199C207.948 315.121 207.872 312.129 207.521 310.034C207.239 308.349 204.819 302.315 204.304 302.012C204.242 301.975 204.186 301.961 204.138 301.967V301.967ZM132.375 301.965C131.449 301.595 128.693 310.094 128.702 313.564C128.706 314.44 128.79 315.178 128.891 315.205C129.186 315.283 130.599 312.645 131.33 310.65C131.917 309.045 132.796 302.604 132.498 302.086C132.462 302.023 132.421 301.983 132.375 301.965L132.375 301.965ZM70.3943 266.225C69.7899 265.431 63.0598 271.308 61.2861 274.291C60.8386 275.044 60.5931 275.785 60.6679 275.858C60.8868 276.072 63.4153 274.47 65.0327 273.093C66.3339 271.986 70.2687 266.81 70.264 266.213C70.264 266.141 70.4238 266.264 70.3941 266.225L70.3943 266.225ZM34.4727 204.067C34.3372 203.078 25.586 204.883 22.5742 206.607C21.8142 207.042 21.214 207.48 21.2407 207.581C21.3189 207.877 24.311 207.801 26.406 207.45C28.0913 207.168 34.1254 204.748 34.4283 204.233C34.465 204.171 34.4794 204.115 34.4728 204.067H34.4727ZM34.4761 132.304C34.8469 131.378 26.3471 128.622 22.8771 128.631C22.0016 128.634 21.263 128.719 21.2363 128.82C21.1581 129.116 23.7967 130.528 25.7915 131.259C27.3961 131.846 33.8376 132.725 34.3553 132.427C34.418 132.391 34.458 132.35 34.4762 132.304L34.4761 132.304ZM70.2203 70.3268C71.0141 69.7224 65.1362 62.9923 62.1538 61.2186C61.4013 60.7711 60.6598 60.5256 60.5868 60.6004C60.3732 60.8194 61.975 63.3478 63.352 64.9652C64.4596 66.2664 69.6347 70.2012 70.2321 70.1965C70.3045 70.1965 70.1813 70.3563 70.2203 70.3266L70.2203 70.3268ZM132.382 34.4052C133.37 34.2697 131.566 25.5185 129.842 22.5067C129.407 21.7468 128.968 21.1466 128.867 21.1733C128.571 21.2515 128.647 24.2436 128.998 26.3387C129.28 28.0239 131.7 34.058 132.215 34.3609C132.278 34.3976 132.333 34.412 132.382 34.4053V34.4052ZM204.144 34.4073C205.07 34.7781 207.827 26.2783 207.817 22.8083C207.814 21.9327 207.73 21.1942 207.629 21.1675C207.333 21.0893 205.92 23.7279 205.19 25.7228C204.602 27.3273 203.723 33.7688 204.021 34.2865C204.058 34.3493 204.099 34.3892 204.144 34.4074L204.144 34.4073ZM266.122 70.1515C266.726 70.9453 273.456 65.0675 275.23 62.0847C275.677 61.3321 275.923 60.5906 275.848 60.5177C275.629 60.3041 273.101 61.9059 271.483 63.2828C270.182 64.3905 266.247 69.5656 266.252 70.1629C266.252 70.2354 266.092 70.1122 266.122 70.1512L266.122 70.1515ZM302.043 132.309C302.179 133.298 310.93 131.493 313.942 129.769C314.702 129.334 315.302 128.896 315.275 128.795C315.197 128.499 312.205 128.575 310.11 128.926C308.425 129.208 302.391 131.628 302.088 132.143C302.051 132.205 302.037 132.261 302.043 132.309ZM323.969 171.741C324.007 170.678 324.537 169.619 325.648 169.062C329.394 167.183 334.455 170.188 335.453 174.581C335.979 176.897 334.863 183.359 333.397 185.53L332.859 186.327L332.44 185.491C332.062 184.735 332.126 184.062 332.734 182.203C334.748 176.058 332.181 169.089 328.11 169.815C326.291 170.139 326.163 172.46 327.882 173.515C329.179 174.31 328.477 175.194 326.604 175.124C324.833 175.058 323.913 173.296 323.969 171.741L323.969 171.741ZM304.92 242.881C305.637 241.501 307.332 240.437 308.905 241.253C310.57 242.115 310.619 243.506 309.098 243.522C306.014 243.554 306.236 246.678 309.375 247.423C312.599 248.188 317.804 241.665 318.138 236.373C318.152 236.138 318.56 235.749 319.044 235.509L320.081 234.686L319.781 237.062C319.703 238.156 319.142 240.397 318.761 241.538C316.449 248.462 308.283 251.467 304.946 246.221C304.279 245.172 304.43 243.826 304.92 242.881L304.92 242.881ZM301.268 249.209C301.846 248.316 302.921 247.506 304.162 247.568C308.348 247.776 311.248 252.86 309.956 257.175C309.275 259.451 305.044 264.461 302.701 265.632L301.84 266.062L301.886 265.127C301.928 264.284 302.343 263.751 303.787 262.432C308.56 258.069 309.836 250.807 305.935 249.435C304.191 248.822 302.911 250.76 303.889 252.524C304.627 253.854 303.414 254.513 301.842 253.492C300.356 252.527 300.422 250.514 301.268 249.209L301.268 249.209ZM249.303 301.18C250.609 300.335 252.621 300.267 253.586 301.754C254.607 303.326 253.949 304.539 252.618 303.801C249.922 302.305 248.34 305.226 250.646 307.482C253.014 309.799 261.151 306.549 264.055 302.112C264.184 301.914 264.731 301.778 265.27 301.808L266.25 301.863L265.144 303.522C264.535 304.435 262.924 306.088 262.029 306.891C256.598 311.768 247.972 310.285 247.663 304.074C247.601 302.833 248.41 301.758 249.303 301.18L249.303 301.18ZM242.977 304.833C243.921 304.343 245.267 304.191 246.315 304.858C249.851 307.108 249.512 313.219 246.182 316.251C244.425 317.851 238.694 319.891 236.078 319.751L234.734 319.858L235.619 318.91C236.072 318.197 236.327 318.079 238.245 317.691C244.584 316.411 249.329 310.675 246.692 307.49C245.514 306.066 243.638 306.994 243.617 309.011C243.601 310.532 242.211 310.483 241.348 308.819C240.533 307.245 241.596 305.55 242.977 304.833V304.833L242.977 304.833ZM171.84 323.893C173.394 323.838 175.157 324.757 175.223 326.528C175.293 328.401 174.409 329.103 173.613 327.807C172.002 325.178 169.184 326.908 170.081 330.007C171.002 333.19 179.257 334.416 184.025 332.095C184.237 331.992 185.172 332.105 185.626 332.396L186.453 332.925L184.236 333.864C183.246 334.336 181.017 334.983 179.836 335.214C172.672 336.616 166.373 331.131 169.161 325.573C169.718 324.462 170.777 323.931 171.84 323.893H171.84ZM164.706 323.893C165.769 323.931 166.828 324.462 167.385 325.573C169.264 329.319 166.258 334.38 161.866 335.378C159.549 335.904 153.088 334.788 150.917 333.322L150.119 332.784L150.956 332.365C151.711 331.986 152.385 332.05 154.243 332.659C160.389 334.673 167.357 332.106 166.631 328.035C166.307 326.216 163.986 326.088 162.932 327.807C162.137 329.104 161.253 328.402 161.323 326.528C161.389 324.757 163.151 323.838 164.706 323.893L164.706 323.893ZM93.559 304.845C94.9391 305.562 96.0031 307.257 95.1879 308.83C94.3254 310.495 92.9345 310.543 92.9187 309.022C92.8865 305.939 89.7624 306.161 89.0173 309.3C88.252 312.523 94.7746 317.729 100.067 318.063C100.303 318.077 100.692 318.485 100.932 318.969L101.754 320.006L99.3786 319.706C98.2844 319.628 96.0435 319.067 94.9026 318.686C87.9784 316.373 84.9739 308.208 90.2198 304.871C91.2684 304.204 92.6146 304.354 93.5589 304.845L93.559 304.845ZM87.2317 301.193C88.1249 301.771 88.9342 302.846 88.8725 304.087C88.6644 308.273 83.5803 311.172 79.2654 309.881C76.9895 309.2 71.979 304.969 70.8084 302.625L70.3783 301.765L71.313 301.811C72.1567 301.852 72.6891 302.267 74.0086 303.711C78.3715 308.485 85.6334 309.76 87.0048 305.859C87.6177 304.116 85.6804 302.835 83.9167 303.814C82.5865 304.552 81.9276 303.339 82.9485 301.767C83.9135 300.281 85.9264 300.347 87.2317 301.193L87.2317 301.193ZM35.2604 249.225C36.1059 250.53 36.173 252.543 34.6867 253.508C33.1144 254.529 31.9012 253.87 32.6392 252.54C34.1351 249.844 31.2145 248.262 28.9587 250.567C26.6416 252.936 29.891 261.072 34.3282 263.976C34.5256 264.105 34.6623 264.652 34.6323 265.191L34.5777 266.171L32.9181 265.065C32.0053 264.457 30.3527 262.846 29.5491 261.951C24.6716 256.519 26.1558 247.893 32.3658 247.584C33.607 247.522 34.682 248.332 35.2606 249.225L35.2604 249.225ZM31.6075 242.898C32.0981 243.843 32.2492 245.188 31.5821 246.237C29.3325 249.773 23.2218 249.433 20.1892 246.103C18.5898 244.346 16.5496 238.615 16.6895 236L16.5831 234.656L17.5306 235.541C18.2436 235.994 18.3622 236.249 18.7494 238.166C20.0297 244.505 25.7657 249.25 28.9512 246.614C30.3749 245.436 29.4469 243.559 27.4301 243.538C25.9089 243.523 25.9573 242.132 27.6219 241.269C29.1953 240.454 30.8907 241.518 31.6075 242.898L31.6075 242.898ZM12.5472 171.762C12.6028 173.316 11.6837 175.079 9.91284 175.145C8.03947 175.214 7.3371 174.33 8.63394 173.535C11.2625 171.923 9.53211 169.106 6.43355 170.003C3.25088 170.924 2.02419 179.178 4.34512 183.947C4.4484 184.159 4.33542 185.094 4.04434 185.548L3.51532 186.374L2.5761 184.158C2.10427 183.168 1.45766 180.939 1.22668 179.759C-0.175136 172.594 5.30975 166.296 10.8676 169.083C11.9785 169.64 12.5091 170.699 12.5472 171.762L12.5472 171.762ZM12.5472 164.628C12.5091 165.692 11.9785 166.751 10.8676 167.308C7.12155 169.187 2.06097 166.181 1.06304 161.789C0.5368 159.472 1.65266 153.011 3.11846 150.84L3.65688 150.042L4.07603 150.879C4.45426 151.634 4.3903 152.307 3.78134 154.166C1.76781 160.311 4.33482 167.28 8.40554 166.554C10.2249 166.23 10.3528 163.909 8.63337 162.855C7.33653 162.06 8.0389 161.176 9.91227 161.245C11.6832 161.311 12.6029 163.074 12.5472 164.628L12.5472 164.628ZM31.5952 93.4884C30.8783 94.8685 29.1837 95.9325 27.6102 95.1172C25.9457 94.2548 25.8967 92.8639 27.4179 92.848C30.5012 92.8159 30.2791 89.6917 27.1405 88.9467C23.9168 88.1814 18.711 94.704 18.378 99.9962C18.3633 100.232 17.9553 100.621 17.4719 100.861L16.4349 101.684L16.7347 99.308C16.8127 98.2138 17.3732 95.9729 17.7543 94.832C20.0671 87.9078 28.2322 84.9033 31.5697 90.1493C32.2368 91.1978 32.086 92.5441 31.5954 93.4884L31.5952 93.4884ZM35.2478 87.1612C34.6693 88.0543 33.5948 88.8637 32.3536 88.802C28.1678 88.594 25.2681 83.5096 26.5595 79.1949C27.2407 76.919 31.4718 71.9086 33.815 70.7379L34.6758 70.3078L34.6298 71.2425C34.5881 72.0862 34.173 72.6186 32.7291 73.9381C27.9553 78.301 26.6803 85.5629 30.5811 86.9343C32.3246 87.5472 33.6051 85.6099 32.6266 83.8462C31.8886 82.5159 33.1012 81.8571 34.6736 82.878C36.1599 83.843 36.0933 85.8559 35.2478 87.1612V87.1612ZM87.2124 35.1899C85.907 36.0354 83.8944 36.1026 82.9295 34.6162C81.9087 33.0439 82.5672 31.8308 83.8974 32.5687C86.5937 34.0646 88.1756 31.144 85.8697 28.8879C83.5014 26.5707 75.3647 29.8203 72.4609 34.2574C72.3317 34.4548 71.7849 34.5915 71.246 34.5615L70.2661 34.507L71.3719 32.8473C71.9803 31.9345 73.5914 30.282 74.4864 29.4784C79.9178 24.6025 88.5437 26.085 88.8523 32.2961C88.914 33.5373 88.105 34.6124 87.2118 35.1909L87.2124 35.1899ZM93.5384 31.5375C92.5941 32.0281 91.2481 32.1794 90.1996 31.5123C86.6637 29.2626 87.0033 23.152 90.3336 20.1194C92.0902 18.5199 97.8211 16.4797 100.437 16.6193L101.781 16.5132L100.896 17.4605C100.443 18.1735 100.188 18.292 98.2704 18.6793C91.9314 19.9596 87.1864 25.6955 89.8228 28.8811C91.0011 30.3048 92.8771 29.377 92.8982 27.3601C92.9139 25.839 94.3046 25.8874 95.1671 27.5519C95.9823 29.1253 94.9186 30.8205 93.5385 31.5376L93.5384 31.5375ZM164.675 12.4759C163.121 12.5315 161.358 11.6125 161.292 9.84157C161.222 7.96819 162.106 7.26583 162.902 8.56267C164.514 11.1912 167.331 9.46083 166.434 6.36227C165.513 3.17961 157.259 1.95291 152.491 4.27388C152.278 4.37716 151.344 4.26401 150.889 3.97312L150.062 3.4441L152.279 2.50487C153.269 2.03305 155.498 1.38637 156.679 1.15539C163.843 -0.246459 170.142 5.23847 167.354 10.7963C166.797 11.9072 165.738 12.4378 164.675 12.4759L164.675 12.4759ZM171.809 12.4759C170.746 12.4379 169.687 11.9072 169.13 10.7963C167.251 7.05027 170.257 1.98934 174.649 0.991747C176.966 0.465509 183.427 1.5814 185.598 3.04721L186.396 3.58559L185.559 4.00478C184.804 4.38296 184.131 4.31904 182.272 3.71006C176.126 1.69653 169.158 4.2635 169.884 8.33426C170.208 10.1536 172.529 10.2815 173.583 8.56208C174.378 7.26527 175.262 7.96764 175.192 9.84098C175.126 11.6119 173.364 12.5316 171.809 12.476L171.809 12.4759ZM242.949 31.5239C241.569 30.807 240.505 29.1124 241.32 27.5389C242.183 25.8744 243.574 25.8254 243.59 27.3466C243.622 30.4299 246.746 30.2078 247.491 27.0693C248.256 23.8455 241.734 18.6398 236.441 18.3064C236.206 18.2916 235.817 17.8837 235.577 17.4003L234.754 16.3633L237.13 16.6631C238.224 16.7411 240.465 17.3016 241.606 17.6827C248.53 19.9955 251.534 28.1606 246.288 31.4981C245.24 32.1652 243.894 32.0144 242.949 31.5238L242.949 31.5239ZM249.277 35.1762C248.383 34.5977 247.574 33.5232 247.636 32.282C247.844 28.0962 252.928 25.1965 257.243 26.4879C259.519 27.1691 264.529 31.4002 265.7 33.7434L266.13 34.6042L265.195 34.5582C264.352 34.5165 263.819 34.1014 262.5 32.6575C258.137 27.8837 250.875 26.6087 249.503 30.5095C248.891 32.253 250.828 33.5335 252.592 32.555C253.922 31.817 254.581 33.0296 253.56 34.6019C252.595 36.0883 250.582 36.0217 249.277 35.1762V35.1762ZM301.248 87.1407C300.402 85.8353 300.335 83.8228 301.822 82.8579C303.394 81.837 304.607 82.4955 303.869 83.8258C302.373 86.522 305.294 88.1039 307.55 85.7981C309.867 83.4298 306.617 75.2931 302.18 72.3893C301.983 72.2601 301.846 71.7133 301.876 71.1744L301.931 70.1945L303.591 71.3007C304.503 71.909 306.156 73.5198 306.959 74.4148C311.836 79.8465 310.353 88.4725 304.143 88.7814C302.901 88.8431 301.826 88.0341 301.248 87.1409L301.248 87.1407ZM304.901 93.4674C304.411 92.5231 304.259 91.1772 304.926 90.1287C307.176 86.5928 313.287 86.9323 316.319 90.2627C317.919 92.0192 319.959 97.7501 319.819 100.366L319.925 101.71L318.978 100.825C318.265 100.372 318.146 100.117 317.759 98.1994C316.479 91.8605 310.743 87.1151 307.557 89.7515C306.133 90.9298 307.061 92.8062 309.078 92.8273C310.599 92.8431 310.551 94.2337 308.886 95.0962C307.313 95.9114 305.618 94.8477 304.901 93.4675H304.901L304.901 93.4674ZM323.961 164.604C323.905 163.05 324.824 161.287 326.595 161.221C328.469 161.152 329.171 162.035 327.874 162.831C325.246 164.443 326.976 167.26 330.075 166.363C333.257 165.442 334.484 157.187 332.163 152.419C332.06 152.207 332.173 151.272 332.464 150.818L332.993 149.991L333.932 152.208C334.404 153.198 335.051 155.427 335.282 156.607C336.683 163.772 331.198 170.071 325.641 167.283C324.53 166.726 323.999 165.667 323.961 164.604" fill="#604CDA" fill-opacity="0.3"/>
</svg>
