<svg width="40" height="40" viewBox="0 0 40 40" fill="none" xmlns="http://www.w3.org/2000/svg">
<g clip-path="url(#clip0)">
<path d="M39.9229 21.8487C39.5637 18.2363 37.9499 14.8307 35.3784 12.2592C33.1809 10.0617 30.4912 8.64958 27.661 8.02167V6.03664C28.8169 5.74906 29.6762 4.70272 29.6762 3.45903C29.6762 1.99432 28.4846 0.802734 27.0199 0.802734H21.3948C19.9301 0.802734 18.7385 1.99432 18.7385 3.45903C18.7385 4.70264 19.5977 5.74898 20.7536 6.03664V8.02722C17.9321 8.65778 15.2513 10.068 13.06 12.2592C12.5804 12.7388 12.1382 13.2418 11.7335 13.7647C11.7139 13.7632 11.6942 13.7617 11.6742 13.7617H6.10689C5.67548 13.7617 5.32563 14.1115 5.32563 14.5429C5.32563 14.9744 5.67548 15.3242 6.10689 15.3242H10.6704C10.0976 16.2832 9.6357 17.2903 9.28413 18.3271H0.781262C0.349849 18.3271 0 18.6768 0 19.1083C0 19.5398 0.349849 19.8896 0.781262 19.8896H8.84264C8.61748 20.878 8.48826 21.8838 8.4549 22.8925H5.00008C4.56867 22.8925 4.21882 23.2423 4.21882 23.6738C4.21882 24.1053 4.56867 24.4551 5.00008 24.4551H8.47982C8.54576 25.4663 8.70834 26.4723 8.96764 27.458H3.90631C3.4749 27.458 3.12505 27.8078 3.12505 28.2393C3.12505 28.6707 3.4749 29.0205 3.90631 29.0205H9.46624C10.2327 31.048 11.4304 32.9482 13.06 34.5778C15.6339 37.1517 19.043 38.766 22.6592 39.1233C23.1753 39.1742 23.6918 39.1994 24.2076 39.1994C27.2562 39.1994 30.2661 38.3171 32.82 36.654C33.1816 36.4185 33.2839 35.9345 33.0484 35.573C32.8129 35.2114 32.3289 35.1091 31.9674 35.3446C26.3769 38.985 18.8898 38.1979 14.1648 33.4729C8.62084 27.9289 8.62084 18.9083 14.1648 13.3642C19.7087 7.82027 28.7294 7.82027 34.2735 13.3642C38.9922 18.083 39.7837 25.5637 36.1553 31.1514C35.9202 31.5133 36.0231 31.9972 36.3849 32.2321C36.747 32.4671 37.2307 32.3642 37.4657 32.0024C39.4043 29.0168 40.277 25.4109 39.9229 21.8487ZM20.301 3.4591C20.301 2.85597 20.7917 2.36534 21.3948 2.36534H27.0199C27.623 2.36534 28.1136 2.85597 28.1136 3.4591C28.1136 4.06224 27.623 4.55287 27.0199 4.55287H26.8797H21.5349H21.3948C20.7917 4.55287 20.301 4.06216 20.301 3.4591ZM22.3161 7.75862V6.1154H26.0985V7.75581C24.8425 7.60643 23.5719 7.60737 22.3161 7.75862Z" fill="#78109C"/>
<path d="M34.8262 33.2441C34.6199 33.2441 34.4191 33.3277 34.2739 33.473C34.1278 33.6184 34.0449 33.8199 34.0449 34.0254C34.0449 34.2309 34.1278 34.4324 34.2739 34.5777C34.4191 34.7238 34.62 34.8066 34.8262 34.8066C35.0316 34.8066 35.2324 34.7238 35.3785 34.5777C35.5238 34.4324 35.6074 34.2309 35.6074 34.0254C35.6074 33.8199 35.5239 33.6184 35.3785 33.473C35.2324 33.3277 35.0316 33.2441 34.8262 33.2441Z" fill="#78109C"/>
<path d="M24.2193 11.2988C17.5365 11.2988 12.0996 16.7356 12.0996 23.4185C12.0996 30.1013 17.5365 35.5381 24.2193 35.5381C30.902 35.5381 36.3389 30.1013 36.3389 23.4185C36.3389 16.7356 30.902 11.2988 24.2193 11.2988ZM24.2193 33.9756C18.398 33.9756 13.6621 29.2397 13.6621 23.4185C13.6621 17.5973 18.398 12.8614 24.2193 12.8614C30.0405 12.8614 34.7764 17.5973 34.7764 23.4185C34.7764 29.2397 30.0405 33.9756 24.2193 33.9756Z" fill="#78109C"/>
<path d="M29.16 17.3714L25.2904 21.2409C24.9668 21.0809 24.6028 20.9905 24.218 20.9905C23.8332 20.9905 23.4692 21.0809 23.1456 21.2409L21.4138 19.5091C21.1087 19.204 20.6141 19.204 20.3089 19.5091C20.0038 19.8142 20.0038 20.3089 20.3089 20.6139L22.0407 22.3458C21.8806 22.6694 21.7903 23.0334 21.7903 23.4181C21.7903 24.7567 22.8793 25.8458 24.218 25.8458C25.5567 25.8458 26.6457 24.7567 26.6457 23.4181C26.6457 23.0334 26.5553 22.6694 26.3953 22.3458L30.1513 18.5898L30.2648 18.4763C30.5699 18.1712 30.5699 17.6765 30.2648 17.3714C29.9597 17.0663 29.4652 17.0663 29.16 17.3714ZM24.218 24.2834C23.741 24.2834 23.3528 23.8952 23.3528 23.4182C23.3528 22.9412 23.741 22.553 24.218 22.553C24.695 22.553 25.0832 22.9412 25.0832 23.4182C25.0832 23.8952 24.695 24.2834 24.218 24.2834Z" fill="#78109C"/>
<path d="M32.5715 22.6484H31.8477C31.4163 22.6484 31.0664 22.9982 31.0664 23.4297C31.0664 23.8612 31.4163 24.2109 31.8477 24.2109H32.5715C33.0029 24.2109 33.3527 23.8612 33.3527 23.4297C33.3527 22.9982 33.0029 22.6484 32.5715 22.6484Z" fill="#78109C"/>
<path d="M16.589 22.627H15.8652C15.4338 22.627 15.084 22.9767 15.084 23.4082C15.084 23.8397 15.4338 24.1895 15.8652 24.1895H16.589C17.0204 24.1895 17.3702 23.8397 17.3702 23.4082C17.3702 22.9767 17.0204 22.627 16.589 22.627Z" fill="#78109C"/>
<path d="M24.2285 16.5695C24.6599 16.5695 25.0098 16.2197 25.0098 15.7882V15.0645C25.0098 14.633 24.6599 14.2832 24.2285 14.2832C23.7971 14.2832 23.4473 14.633 23.4473 15.0645V15.7882C23.4473 16.2197 23.7971 16.5695 24.2285 16.5695Z" fill="#78109C"/>
<path d="M24.2109 30.2676C23.7795 30.2676 23.4297 30.6173 23.4297 31.0488V31.7726C23.4297 32.2041 23.7795 32.5538 24.2109 32.5538C24.6423 32.5538 24.9922 32.2041 24.9922 31.7726V31.0488C24.9922 30.6173 24.6423 30.2676 24.2109 30.2676Z" fill="#78109C"/>
<path d="M0.78125 27.457C0.575781 27.457 0.374219 27.5406 0.228906 27.6859C0.0835938 27.8312 0 28.0328 0 28.2383C0 28.4445 0.0835156 28.6453 0.228906 28.7906C0.374297 28.9359 0.575781 29.0195 0.78125 29.0195C0.986719 29.0195 1.18828 28.9359 1.33352 28.7906C1.47883 28.6453 1.5625 28.4438 1.5625 28.2383C1.5625 28.0328 1.47891 27.8312 1.33352 27.6859C1.18828 27.5406 0.986719 27.457 0.78125 27.457Z" fill="#78109C"/>
</g>
<defs>
<clipPath id="clip0">
<rect width="40" height="40" fill="white"/>
</clipPath>
</defs>
</svg>
