<svg width="40" height="40" viewBox="0 0 40 40" fill="none" xmlns="http://www.w3.org/2000/svg">
<path d="M38.5978 11.9336C38.258 11.3897 37.8244 11.0816 37.3093 11.0183C36.4875 10.9169 35.5792 11.4297 34.1735 12.7867C33.9407 13.0114 33.9342 13.3824 34.1589 13.6152C34.3836 13.8479 34.7546 13.8545 34.9875 13.6298C36.0339 12.6196 36.7671 12.1327 37.1662 12.1814C37.221 12.1881 37.3878 12.2087 37.6039 12.5545C37.9002 13.0292 36.6304 14.4709 35.61 15.6293C34.0809 17.3655 32.3478 19.3332 31.9984 21.4592C31.4958 24.517 27.7666 28.2725 27.7291 28.3099C27.5468 28.4918 27.5046 28.7714 27.6252 28.9989L28.2778 30.2308L23.7576 34.7511C22.9162 32.9557 21.6084 29.8709 21.6034 28.0347C21.6834 25.6689 24.8496 21.6185 27.9139 17.6988C28.9924 16.3193 29.8796 15.9212 30.3506 16.0101C30.5188 16.0415 30.6292 16.1405 30.6787 16.3042C30.7573 16.5644 30.6781 17.0347 30.1962 17.5038C28.1488 19.4973 27.076 22.9709 27.0312 23.1177C26.937 23.4272 27.1117 23.7543 27.4211 23.8485C27.7306 23.9429 28.058 23.7685 28.1523 23.4589C28.1624 23.4257 29.1846 20.1242 31.0136 18.3435C31.4376 17.9306 31.7149 17.4436 31.8241 16.9556C31.8844 16.8921 31.9454 16.8285 32.0045 16.7652L32.3949 16.3442C32.6737 16.0434 32.942 15.754 33.1999 15.4767C33.4204 15.2398 33.4071 14.8691 33.1701 14.6485C32.9333 14.4283 32.5624 14.4416 32.342 14.6784C32.0964 14.9424 31.8411 15.2177 31.5767 15.5028C31.3431 15.1684 30.989 14.9371 30.566 14.858C29.941 14.7409 28.6449 14.8606 26.9905 16.9769C23.6938 21.1938 20.5749 25.1836 20.4346 27.9374C20.4233 28.0425 20.4216 28.1607 20.4371 28.2635C20.537 30.416 21.9231 33.6431 22.8774 35.6308L21.9786 36.5296C21.8687 36.6395 21.807 36.7885 21.807 36.944C21.807 37.0994 21.8687 37.2483 21.9786 37.3583L24.4474 39.8271C24.5617 39.9415 24.7117 39.9987 24.8617 39.9987C25.0116 39.9987 25.1616 39.9415 25.2759 39.8271L26.4244 38.6787C26.6532 38.4498 26.6532 38.0788 26.4244 37.85C26.1956 37.6212 25.8245 37.6212 25.5958 37.85L24.8617 38.5841L23.2217 36.9442L29.4055 30.7605C29.411 30.7553 29.4163 30.75 29.4215 30.7445L30.7544 29.4116L32.3945 31.0516L27.4337 36.0124C27.2049 36.2413 27.2049 36.6122 27.4337 36.8411C27.6625 37.0698 28.0335 37.0698 28.2623 36.8411L33.6374 31.4659C33.7473 31.356 33.809 31.207 33.809 31.0515C33.809 30.8961 33.7473 30.7472 33.6374 30.6372L31.1687 28.1685C30.9399 27.9397 30.5688 27.9397 30.3401 28.1685L29.1448 29.3638L28.8595 28.8254C29.8122 27.8122 32.6758 24.5636 33.1548 21.6492C33.4496 19.8551 35.0646 18.0215 36.4894 16.4037C37.1979 15.5992 37.8672 14.8394 38.2952 14.1618C38.5059 13.8283 39.1471 12.8133 38.5978 11.9336Z" fill="#78109C"/>
<path d="M31.3785 30.6162L31.051 30.2887C30.8222 30.06 30.4512 30.06 30.2224 30.2887C29.9936 30.5177 29.9936 30.8886 30.2224 31.1174L30.5499 31.4449C30.6643 31.5593 30.8143 31.6165 30.9642 31.6165C31.1141 31.6165 31.2641 31.5593 31.3785 31.4449C31.6073 31.216 31.6073 30.8451 31.3785 30.6162Z" fill="#78109C"/>
<path d="M19.5656 27.939C19.4252 25.1852 16.3063 21.1953 13.0097 16.9785C11.3552 14.8623 10.0592 14.7424 9.43413 14.8596C9.01116 14.9388 8.65694 15.17 8.42343 15.5046L8.39624 15.4753C5.74045 12.6107 4.13795 10.8823 2.73428 11.0149C2.20021 11.0656 1.75217 11.3753 1.40256 11.9353C0.853335 12.8153 1.49466 13.8304 1.70545 14.164C2.13357 14.8418 2.80303 15.6018 3.51186 16.4066C3.92701 16.878 4.35647 17.3655 4.76764 17.8692C4.88342 18.0111 5.05194 18.0846 5.22186 18.0846C5.35217 18.0846 5.48327 18.0414 5.59209 17.9526C5.84272 17.748 5.88006 17.3789 5.67538 17.1282C5.2503 16.6075 4.81358 16.1116 4.39123 15.6321C3.37053 14.4732 2.10021 13.0309 2.39662 12.556C2.61678 12.2033 2.78271 12.1875 2.84514 12.1816C3.67381 12.1056 5.46295 14.0351 7.53686 16.272L7.99663 16.7676C8.05507 16.8303 8.11608 16.8939 8.17616 16.9571C8.28538 17.4451 8.56265 17.9321 8.98663 18.345C10.8157 20.1257 11.8379 23.4272 11.848 23.4604C11.9423 23.7699 12.2695 23.9443 12.5789 23.8503C12.8885 23.7561 13.0632 23.4288 12.9691 23.1192C12.9244 22.9723 11.8515 19.4987 9.80406 17.5053C9.3221 17.0361 9.24288 16.5659 9.32155 16.3057C9.37101 16.142 9.4814 16.0431 9.6496 16.0116C10.1206 15.9229 11.0079 16.3208 12.0863 17.7003C15.1506 21.62 18.3169 25.6704 18.3969 28.0361C18.3919 29.8724 17.0841 32.9572 16.2427 34.7526L11.7224 30.2323L12.3751 29.0004C12.4955 28.7729 12.4534 28.4934 12.2713 28.3115C12.2337 28.274 8.50452 24.5184 8.00194 21.4609C7.89147 20.7875 7.63733 20.0969 7.22499 19.3499C7.06858 19.0665 6.7121 18.9636 6.42889 19.12C6.14561 19.2764 6.04272 19.6328 6.19913 19.9161C6.54569 20.544 6.75717 21.1114 6.84561 21.6507C7.32468 24.5651 10.1883 27.8138 11.1409 28.8268L10.8556 29.3653L9.66031 28.17C9.43148 27.9412 9.06046 27.9412 8.83171 28.17L6.36303 30.6386C6.25311 30.7486 6.19139 30.8976 6.19139 31.053C6.19139 31.2085 6.25311 31.3574 6.36303 31.4674L14.7243 39.8287C14.8341 39.9385 14.9832 40.0002 15.1386 40.0002C15.294 40.0002 15.4431 39.9385 15.5529 39.8287L18.0216 37.3599C18.1316 37.25 18.1933 37.101 18.1933 36.9455C18.1933 36.7901 18.1316 36.6412 18.0216 36.5312L17.1229 35.6324C18.0771 33.6447 19.4633 30.4176 19.5631 28.265C19.5669 28.2392 19.5698 28.2129 19.5702 28.1859C19.5715 28.1058 19.5742 28.0194 19.5656 27.939ZM15.1385 38.5858L7.60593 31.0531L9.24601 29.4131L10.5789 30.746C10.5841 30.7515 10.5894 30.7567 10.5949 30.762L16.7787 36.9457L15.1385 38.5858Z" fill="#78109C"/>
<path d="M9.77694 30.2907C9.54819 30.062 9.17717 30.062 8.94834 30.2907L8.62084 30.6182C8.39201 30.8471 8.39201 31.218 8.62084 31.4469C8.73522 31.5612 8.88522 31.6184 9.03514 31.6184C9.18506 31.6184 9.33506 31.5612 9.44943 31.4469L9.77694 31.1194C10.0058 30.8905 10.0058 30.5195 9.77694 30.2907Z" fill="#78109C"/>
<path d="M21.7364 1.49383L20.4142 0.171563C20.3044 0.0617189 20.1553 0 19.9999 0C19.8445 0 19.6955 0.0617189 19.5856 0.171563L18.2634 1.49383C18.0346 1.72274 18.0346 2.09368 18.2634 2.3225C18.4922 2.55126 18.8633 2.55133 19.092 2.32243L19.414 2.00047V20.3615C19.414 20.6852 19.6763 20.9475 19.9999 20.9475C20.3235 20.9475 20.5858 20.6852 20.5858 20.3615V2.00047L20.9078 2.32243C21.0222 2.43688 21.1722 2.49407 21.3221 2.49407C21.472 2.49407 21.622 2.43688 21.7364 2.3225C21.9652 2.0936 21.9652 1.72266 21.7364 1.49383Z" fill="#78109C"/>
<path d="M17.2445 14.1015L11.4374 8.29446V5.57274L11.7594 5.89477C11.9883 6.12352 12.3593 6.12352 12.588 5.89477C12.8169 5.66586 12.8169 5.29493 12.588 5.0661L11.2658 3.74383C11.1559 3.63398 11.0069 3.57227 10.8515 3.57227C10.6961 3.57227 10.547 3.63398 10.4372 3.74391L9.11498 5.0661C8.88615 5.295 8.88615 5.66594 9.11498 5.89477C9.22936 6.00915 9.37928 6.06641 9.52928 6.06641C9.6792 6.06641 9.8292 6.00922 9.94358 5.89485L10.2655 5.57289V8.53712C10.2655 8.69251 10.3272 8.84149 10.4372 8.95149L16.2443 14.7585V16.2931C16.2443 16.6167 16.5066 16.879 16.8302 16.879C17.1538 16.879 17.4162 16.6167 17.4162 16.2931V14.5159C17.4162 14.3605 17.3545 14.2115 17.2445 14.1015Z" fill="#78109C"/>
<path d="M30.8853 5.0661L29.5631 3.74391C29.4533 3.63398 29.3042 3.57227 29.1488 3.57227C28.9934 3.57227 28.8444 3.63398 28.7345 3.74383L27.4123 5.0661C27.1834 5.295 27.1834 5.66594 27.4123 5.89477C27.6411 6.12352 28.0121 6.12352 28.2409 5.89477L28.5629 5.57274V9.09751H23.7949C23.4713 9.09751 23.209 9.35978 23.209 9.68345V16.2929C23.209 16.6166 23.4713 16.8789 23.7949 16.8789C24.1185 16.8789 24.3809 16.6166 24.3809 16.2929V10.2694H29.1488C29.4724 10.2694 29.7348 10.0071 29.7348 9.68345V5.57282L30.0567 5.89477C30.1711 6.00915 30.3211 6.06633 30.471 6.06633C30.621 6.06633 30.7709 6.00915 30.8853 5.89477C31.1142 5.66586 31.1142 5.29493 30.8853 5.0661Z" fill="#78109C"/>
</svg>
