<svg width="40" height="40" viewBox="0 0 40 40" fill="none" xmlns="http://www.w3.org/2000/svg">
<g clip-path="url(#clip0)">
<path d="M21.7454 37.6988C21.4203 37.6988 21.1567 37.4352 21.1567 37.1101V35.5448C21.1567 35.3207 20.9743 35.1383 20.7502 35.1383H19.1698C18.9457 35.1383 18.7633 35.3207 18.7633 35.5448V37.1101C18.7633 37.4352 18.4997 37.6988 18.1746 37.6988C17.8495 37.6988 17.5859 37.4352 17.5859 37.1101V35.5448C17.5859 34.6715 18.2965 33.9609 19.1698 33.9609H20.7502C21.6235 33.9609 22.3341 34.6715 22.3341 35.5448V37.1101C22.3341 37.4352 22.0706 37.6988 21.7454 37.6988Z" fill="#78109C"/>
<path d="M25.621 16.1802C25.4276 15.9189 25.0589 15.8641 24.7975 16.0574C24.5363 16.2508 24.4813 16.6195 24.6747 16.8808L27.5978 20.8288C27.923 21.2679 27.8995 21.9294 27.5443 22.3347L24.395 25.9287H15.5274L12.3781 22.3347C12.0229 21.9294 11.9994 21.2679 12.3246 20.8288L18.128 12.9905V17.4568C17.3924 18.0222 16.9623 18.887 16.9623 19.8309C16.9623 21.4845 18.3076 22.8298 19.9612 22.8298C21.6148 22.8298 22.9601 21.4845 22.9601 19.8309C22.9601 18.9295 22.5589 18.0877 21.8728 17.5206V13.0966L23.1655 14.8424C23.3589 15.1037 23.7276 15.1586 23.9889 14.9652C24.2502 14.7717 24.3051 14.4031 24.1117 14.1418L21.5868 10.7315C21.1893 10.1946 20.5968 9.88672 19.9613 9.88672C19.3258 9.88672 18.7333 10.1946 18.3358 10.7315L11.3784 20.1283C10.7259 21.0096 10.775 22.2917 11.4927 23.1107L14.1192 26.1079C13.4633 26.4137 13.0075 27.0789 13.0075 27.8489V30.6573C13.0075 31.5171 13.5755 32.2466 14.356 32.4906L14.5166 37.1303C14.5276 37.4483 14.7888 37.6986 15.1045 37.6986C15.1114 37.6986 15.1183 37.6985 15.1252 37.6983C15.4502 37.687 15.7044 37.4146 15.6932 37.0896L15.537 32.5775H24.464L24.3079 37.0896C24.2966 37.4146 24.5509 37.687 24.8758 37.6983C24.8827 37.6985 24.8896 37.6986 24.8965 37.6986C25.2122 37.6986 25.4735 37.4483 25.4845 37.1303L25.646 32.4636C26.3853 32.1964 26.9151 31.4876 26.9151 30.6573V27.8489C26.9151 27.0789 26.4592 26.4137 25.8034 26.1079L28.4298 23.1107C29.1475 22.2917 29.1966 21.0096 28.5442 20.1283L25.621 16.1802ZM19.9612 11.064C20.2235 11.064 20.4648 11.1946 20.6404 11.4319L20.6955 11.5063V17.8164C20.6955 18.0145 20.7951 18.1993 20.9606 18.3082C21.4754 18.6469 21.7827 19.2162 21.7827 19.8308C21.7827 20.8352 20.9656 21.6523 19.9612 21.6523C18.9568 21.6523 18.1396 20.8352 18.1396 19.8308C18.1396 19.1871 18.4691 18.6038 19.0211 18.2703C19.1975 18.1637 19.3054 17.9726 19.3054 17.7664V11.4034C19.4788 11.1849 19.71 11.064 19.9612 11.064ZM25.7378 30.6572C25.7378 31.0667 25.4045 31.4 24.9949 31.4H14.9275C14.5179 31.4 14.1847 31.0667 14.1847 30.6572V27.8488C14.1847 27.4392 14.518 27.106 14.9275 27.106H24.9949C25.4046 27.106 25.7378 27.4392 25.7378 27.8488V30.6572Z" fill="#78109C"/>
<path d="M8.24465 16.3623C8.32196 14.4972 8.84069 12.6712 9.75876 11.0531C9.91919 10.7703 9.82006 10.4111 9.53727 10.2506C9.25448 10.0901 8.89524 10.1893 8.73481 10.4721C7.71729 12.2653 7.14519 14.29 7.06639 16.3565C6.05052 16.6148 5.29688 17.537 5.29688 18.6321C5.29688 19.9267 6.35011 20.9799 7.64469 20.9799C8.93927 20.9799 9.9925 19.9267 9.9925 18.6321C9.9925 17.5448 9.24953 16.6281 8.24465 16.3623ZM7.64469 19.8026C6.99928 19.8026 6.4742 19.2775 6.4742 18.6321C6.4742 17.9867 6.99928 17.4616 7.64469 17.4616C8.29009 17.4616 8.81518 17.9867 8.81518 18.6321C8.81518 19.2775 8.29009 19.8026 7.64469 19.8026Z" fill="#78109C"/>
<path d="M38.7536 2.30273H36.8619C36.1747 2.30273 35.6155 2.86188 35.6155 3.54912V3.90632H22.1922V3.54912C22.1922 2.86188 21.6331 2.30273 20.9459 2.30273H19.0541C18.3669 2.30273 17.8078 2.86188 17.8078 3.54912V3.90632H4.3845V3.54912C4.3845 2.86188 3.82535 2.30273 3.13811 2.30273H1.24639C0.559149 2.30273 0 2.86188 0 3.54912V5.44084C0 6.12808 0.559149 6.68723 1.24639 6.68723H3.13811C3.82535 6.68723 4.3845 6.12808 4.3845 5.44084V5.08364H14.6034C12.9691 5.8343 11.4939 6.92474 10.2824 8.30095C10.0676 8.54496 10.0912 8.91692 10.3353 9.13174C10.4471 9.23017 10.5858 9.27859 10.7241 9.27859C10.8873 9.27859 11.0498 9.21109 11.1661 9.07892C12.9068 7.10157 15.2453 5.7723 17.8078 5.28873V5.44092C17.8078 6.12816 18.3669 6.68731 19.0541 6.68731H20.9459C21.6331 6.68731 22.1922 6.12816 22.1922 5.44092V5.28865C27.5363 6.29558 31.5289 10.904 31.7545 16.3614C30.7493 16.627 30.006 17.5439 30.006 18.6315C30.006 19.926 31.0592 20.9793 32.3538 20.9793C33.6484 20.9793 34.7016 19.926 34.7016 18.6315C34.7016 17.5365 33.948 16.6143 32.9322 16.3559C32.7441 11.4042 29.7366 7.08148 25.3969 5.0838H35.6155V5.441C35.6155 6.12824 36.1747 6.68739 36.8619 6.68739H38.7536C39.4409 6.68739 40 6.12824 40 5.441V3.54912C40 2.86188 39.4409 2.30273 38.7536 2.30273ZM3.20718 5.44084C3.20718 5.47891 3.17617 5.50991 3.13811 5.50991H1.24639C1.20832 5.50991 1.17732 5.47891 1.17732 5.44084V3.54912C1.17732 3.51106 1.20832 3.48005 1.24639 3.48005H3.13811C3.17617 3.48005 3.20718 3.51106 3.20718 3.54912V5.44084ZM33.5243 18.6313C33.5243 19.2767 32.9992 19.8018 32.3538 19.8018C31.7084 19.8018 31.1833 19.2767 31.1833 18.6313C31.1833 17.9859 31.7084 17.4608 32.3538 17.4608C32.9992 17.4608 33.5243 17.9859 33.5243 18.6313ZM21.0149 5.44084C21.0149 5.47891 20.9839 5.50991 20.9459 5.50991H19.0541C19.0161 5.50991 18.9851 5.47891 18.9851 5.44084V3.54912C18.9851 3.51106 19.0161 3.48005 19.0541 3.48005H20.9459C20.9839 3.48005 21.0149 3.51106 21.0149 3.54912V5.44084ZM38.8227 5.44084C38.8227 5.47891 38.7917 5.50991 38.7536 5.50991H36.8619C36.8238 5.50991 36.7928 5.47891 36.7928 5.44084V3.54912C36.7928 3.51106 36.8238 3.48005 36.8619 3.48005H38.7536C38.7917 3.48005 38.8227 3.51106 38.8227 3.54912V5.44084Z" fill="#78109C"/>
</g>
<defs>
<clipPath id="clip0">
<rect width="40" height="40" fill="white"/>
</clipPath>
</defs>
</svg>
