<svg width="90" height="91" viewBox="0 0 90 91" fill="none" xmlns="http://www.w3.org/2000/svg">
<path d="M83.9985 2.13672H6.00152C2.69244 2.13672 0 4.82934 0 8.13824V57.6366C0 58.4646 0.672012 59.1366 1.49994 59.1366H88.4999C89.3278 59.1366 89.9998 58.4646 89.9998 57.6366V8.13824C90 4.82934 87.3076 2.13672 83.9985 2.13672ZM86.9999 56.1367H3.00006V8.13824C3.00006 6.48221 4.34707 5.13678 6.00152 5.13678H83.9985C85.6529 5.13678 86.9999 6.48221 86.9999 8.13824V56.1367Z" fill="white"/>
<path d="M88.5001 56.1455H1.49994C0.672012 56.1455 0 56.8175 0 57.6455V65.1443C0 68.4536 2.69244 71.1461 6.00152 71.1461H83.9985C87.3076 71.1461 90 68.4536 90 65.1443V57.6455C90 56.8175 89.328 56.1455 88.5001 56.1455ZM86.9999 65.1445C86.9999 66.8006 85.6529 68.1461 83.9985 68.1461H6.00152C4.34707 68.1461 3.00006 66.8006 3.00006 65.1445V59.1457H87.0001V65.1445H86.9999Z" fill="white"/>
<path d="M49.4999 62.144H40.4999C39.672 62.144 39 62.8161 39 63.644C39 64.4719 39.672 65.1439 40.4999 65.1439H49.4999C50.3279 65.1439 50.9999 64.4719 50.9999 63.644C50.9999 62.8161 50.3279 62.144 49.4999 62.144Z" fill="white"/>
<path d="M82.4998 8.13525H7.49994C6.67201 8.13525 6 8.80727 6 9.6352V57.6353C6 58.4632 6.67201 59.1352 7.49994 59.1352H82.5C83.3279 59.1352 83.9999 58.4632 83.9999 57.6353V9.6352C83.9999 8.80727 83.3279 8.13525 82.4998 8.13525ZM80.9999 56.1351H8.99988V11.1351H80.9999V56.1351Z" fill="white"/>
<path d="M64.4999 80.1396H25.5C23.019 80.1396 21 82.1587 21 84.6396C21 87.1206 23.019 89.1396 25.5 89.1396H64.5C66.981 89.1396 69 87.1206 69 84.6396C69 82.1587 66.9808 80.1396 64.4999 80.1396ZM64.4999 86.1396H25.5C24.6721 86.1396 24.0001 85.4662 24.0001 84.6396C24.0001 83.8131 24.6721 83.1397 25.5 83.1397H64.5C65.328 83.1397 66 83.8131 66 84.6396C66 85.4662 65.328 86.1396 64.4999 86.1396Z" fill="white"/>
<path d="M61.4999 80.1425C56.5228 80.1425 53.9998 76.61 53.9998 69.6425C53.9998 68.8146 53.3278 68.1426 52.4999 68.1426H37.4999C36.672 68.1426 36 68.8146 36 69.6425C36 76.61 33.477 80.1425 28.4999 80.1425C27.672 80.1425 27 80.8145 27 81.6424C27 82.4703 27.672 83.1423 28.4999 83.1423H61.4999C62.3278 83.1423 62.9998 82.4703 62.9998 81.6424C62.9998 80.8145 62.3278 80.1425 61.4999 80.1425ZM35.8063 80.1425C37.6529 78.0965 38.7403 75.0499 38.9593 71.1425H51.0418C51.2592 75.0499 52.3468 78.0965 54.1948 80.1425H35.8063Z" fill="white"/>
<path d="M71.6778 46.3418L68.0569 42.7209L70.0713 40.7064C70.4448 40.3329 70.5948 39.7899 70.4658 39.2784C70.3367 38.7669 69.9483 38.3619 69.4427 38.2089L54.4428 33.7089C53.9133 33.5498 53.3419 33.6954 52.9518 34.0855C52.5603 34.4755 52.4164 35.0484 52.5753 35.5764L57.0753 50.5764C57.2268 51.0833 57.6332 51.4718 58.1447 51.6008C58.6547 51.7269 59.1992 51.5797 59.5728 51.2064L61.6938 49.0838L65.3147 52.7063C65.5952 52.9883 65.9777 53.1458 66.3752 53.1458C66.7726 53.1458 67.1551 52.9883 67.4356 52.7063L71.6776 48.4628C72.2642 47.8764 72.2642 46.9284 71.6778 46.3418ZM66.3752 49.5248L63.0782 46.2263C62.6957 45.8438 62.1947 45.6533 61.6938 45.6533C61.1912 45.6533 60.6902 45.8452 60.3093 46.2247L59.2263 47.3077L56.2488 37.3822L66.1742 40.3598L65.0132 41.5208C64.6936 41.8418 64.5182 42.2679 64.5182 42.7209C64.5182 43.1754 64.6952 43.6044 65.0162 43.9223L68.4961 47.4023L66.3752 49.5248Z" fill="white"/>
<path d="M62.9999 14.1338H20.9999C20.172 14.1338 19.5 14.8058 19.5 15.6337V23.1337C19.5 23.9616 20.172 24.6336 20.9999 24.6336H62.9999C63.8278 24.6336 64.4998 23.9616 64.4998 23.1337V15.6337C64.4998 14.8058 63.8278 14.1338 62.9999 14.1338ZM61.4999 21.6338H22.4999V17.1338H61.4999V21.6338V21.6338Z" fill="white"/>
<path d="M39 30.6353H26.9999C26.172 30.6353 25.5 31.3073 25.5 32.1352V38.1351C25.5 38.9631 26.172 39.6351 26.9999 39.6351H39C39.8279 39.6351 40.4999 38.9631 40.4999 38.1351V32.1352C40.4999 31.3073 39.8279 30.6353 39 30.6353ZM37.4999 36.6352H28.4999V33.6351H37.4999V36.6352V36.6352Z" fill="white"/>
<path d="M62.9999 14.1338H20.9999C20.172 14.1338 19.5 14.8058 19.5 15.6337V44.1338C19.5 44.9617 20.172 45.6337 20.9999 45.6337H56.709C57.1845 45.6337 57.6299 45.4103 57.9121 45.0292C58.1956 44.6483 58.2826 44.1562 58.146 43.7017L56.2471 37.3702L62.5696 39.2678C63.0241 39.4043 63.5162 39.3173 63.8955 39.0338C64.2764 38.7518 64.5 38.3048 64.5 37.8307V15.6337C64.4998 14.8058 63.8278 14.1338 62.9999 14.1338ZM61.4999 35.8149L54.4393 33.6969C53.9099 33.5378 53.3384 33.6834 52.9484 34.0734C52.5569 34.4649 52.4129 35.0363 52.5718 35.566L54.6928 42.634H22.4999V17.1339H61.4999V35.8149V35.8149Z" fill="white"/>
</svg>
