<svg width="90" height="91" viewBox="0 0 90 91" fill="none" xmlns="http://www.w3.org/2000/svg">
<path d="M80.332 18.5542H62.7209L61.0082 13.4161C59.9296 10.1809 56.9138 8.00732 53.5038 8.00732H36.4962C33.0863 8.00732 30.0704 10.1809 28.992 13.4161L27.2791 18.5542H23.0273V14.1597C23.0273 10.7673 20.2674 8.00732 16.875 8.00732H13.3594C9.96697 8.00732 7.20703 10.7673 7.20703 14.1597V18.8727C3.06422 19.964 0 23.7415 0 28.2222V73.9253C0 79.2562 4.33705 83.5933 9.66797 83.5933H80.332C85.6629 83.5933 90 79.2562 90 73.9253V28.2222C90 22.8913 85.6629 18.5542 80.332 18.5542ZM12.4805 14.1597C12.4805 13.675 12.8747 13.2808 13.3594 13.2808H16.875C17.3596 13.2808 17.7539 13.675 17.7539 14.1597V18.5542H12.4805V14.1597ZM84.7266 73.9253C84.7266 76.3484 82.7552 78.3198 80.332 78.3198H9.66797C7.24482 78.3198 5.27344 76.3484 5.27344 73.9253V28.2222C5.27344 25.799 7.24482 23.8276 9.66797 23.8276H29.1797C30.3145 23.8276 31.3221 23.1015 31.6811 22.0246L33.9947 15.0838C34.3543 14.0053 35.3595 13.2808 36.4962 13.2808H53.5038C54.6405 13.2808 55.6458 14.0053 56.0051 15.0836L58.3188 22.0246C58.6779 23.1015 59.6855 23.8276 60.8203 23.8276H80.332C82.7552 23.8276 84.7266 25.799 84.7266 28.2222V73.9253Z" fill="white"/>
<path d="M76.6406 34.3745C78.0968 34.3745 79.2773 33.194 79.2773 31.7378C79.2773 30.2816 78.0968 29.1011 76.6406 29.1011C75.1844 29.1011 74.0039 30.2816 74.0039 31.7378C74.0039 33.194 75.1844 34.3745 76.6406 34.3745Z" fill="white"/>
<path d="M18.6328 29.1011H13.3594C11.9032 29.1011 10.7227 30.2816 10.7227 31.7378C10.7227 33.194 11.9032 34.3745 13.3594 34.3745H18.6328C20.089 34.3745 21.2695 33.194 21.2695 31.7378C21.2695 30.2816 20.089 29.1011 18.6328 29.1011Z" fill="white"/>
<path d="M45 73.0464C31.915 73.0464 21.2695 62.4009 21.2695 49.3159C21.2695 36.2309 31.915 25.5854 45 25.5854C58.085 25.5854 68.7305 36.2309 68.7305 49.3159C68.7305 62.4009 58.085 73.0464 45 73.0464ZM45 30.8589C34.8228 30.8589 26.543 39.1387 26.543 49.3159C26.543 59.4931 34.8228 67.7729 45 67.7729C55.1772 67.7729 63.457 59.4931 63.457 49.3159C63.457 39.1387 55.1772 30.8589 45 30.8589Z" fill="white"/>
<path d="M45 62.4995C37.7306 62.4995 31.8164 56.5854 31.8164 49.3159C31.8164 42.0465 37.7306 36.1323 45 36.1323C52.2694 36.1323 58.1836 42.0465 58.1836 49.3159C58.1836 56.5854 52.2694 62.4995 45 62.4995ZM45 41.4058C40.6383 41.4058 37.0898 44.9543 37.0898 49.3159C37.0898 53.6776 40.6383 57.2261 45 57.2261C49.3617 57.2261 52.9102 53.6776 52.9102 49.3159C52.9102 44.9543 49.3617 41.4058 45 41.4058Z" fill="white"/>
</svg>
