<svg width="90" height="91" viewBox="0 0 90 91" fill="none" xmlns="http://www.w3.org/2000/svg">
<g clip-path="url(#clip0)">
<path d="M87.9919 35.3294L79.7272 33.3007C79.3368 32.23 78.8869 31.1581 78.3807 30.0935L82.6852 22.919C83.3077 21.8816 83.1442 20.5535 82.2887 19.698L71.1019 8.51129C70.2466 7.65576 68.9184 7.49229 67.8809 8.11473L60.7066 12.4194C59.6419 11.9132 58.5701 11.4632 57.4993 11.0728L55.4708 2.80842C55.1814 1.62945 54.1243 0.800293 52.9102 0.800293H37.0898C35.8757 0.800293 34.8186 1.62945 34.5292 2.80842L32.5007 11.0728C31.4299 11.4632 30.3581 11.9132 29.2934 12.4194L22.1191 8.11473C21.0818 7.49229 19.7536 7.65576 18.8981 8.51129L7.71135 19.698C6.85582 20.5535 6.69234 21.8816 7.31478 22.919L11.6193 30.0935C11.1131 31.1581 10.6632 32.23 10.2728 33.3007L2.00812 35.3294C0.82916 35.6189 0 36.676 0 37.8901V53.7104C0 54.9246 0.82916 55.9817 2.00812 56.2712L10.2728 58.2999C10.6632 59.3706 11.1131 60.4425 11.6193 61.5071L7.31478 68.6816C6.69234 69.719 6.85582 71.0471 7.71135 71.9026L18.8981 83.0893C19.7536 83.9448 21.0816 84.1083 22.1191 83.4859L29.2934 79.1812C30.3581 79.6874 31.4299 80.1374 32.5007 80.5278L34.5292 88.7922C34.826 89.9966 35.9119 90.8003 37.0898 90.8003H52.9102C54.1164 90.8003 55.1809 89.9688 55.4708 88.7922L57.4993 80.5278C58.5701 80.1374 59.6419 79.6874 60.7066 79.1812L67.8809 83.4859C68.9182 84.1085 70.2464 83.945 71.1019 83.0893L82.2887 71.9026C83.1442 71.0471 83.3077 69.719 82.6852 68.6816L78.3807 61.5071C78.8869 60.4425 79.3368 59.3706 79.7272 58.2999L87.9919 56.2712C89.1708 55.9817 90 54.9246 90 53.7104V37.8901C90 36.676 89.1708 35.6189 87.9919 35.3294ZM35.6273 47.9942L43.5375 53.2677C44.4233 53.8581 45.5769 53.8581 46.4627 53.2677L54.3728 47.9942C55.1064 47.5052 55.5471 46.682 55.5471 45.8003V30.6502C60.4513 34.0525 63.4572 39.6499 63.4572 45.8003C63.4572 55.9775 55.1774 64.2573 45.0002 64.2573C34.823 64.2573 26.5431 55.9775 26.5431 45.8003C26.5431 39.6501 29.549 34.0525 34.4533 30.6502V45.8003C34.4531 46.6818 34.8938 47.5052 35.6273 47.9942V47.9942ZM45 69.5308C46.812 69.5308 48.5768 69.3258 50.2734 68.9393V85.5269H39.7266V68.9393C41.4232 69.3258 43.188 69.5308 45 69.5308ZM84.7266 51.6427L77.0681 53.5225C76.1739 53.7421 75.459 54.4122 75.1822 55.2904C74.6474 56.9861 73.9266 58.706 73.0397 60.4017C72.614 61.2158 72.6427 62.1926 73.1153 62.9803L77.1045 69.6292L68.8293 77.9045L62.1805 73.9151C61.3925 73.4424 60.4153 73.4141 59.6018 73.8397C58.2572 74.543 56.8979 75.1398 55.5472 75.624V67.0537C63.3542 63.1638 68.7308 55.0986 68.7308 45.8001C68.7308 40.9893 67.2926 36.3529 64.5718 32.3924C61.9177 28.5291 58.2282 25.5586 53.9024 23.8023C53.0896 23.4724 52.1657 23.5682 51.438 24.0583C50.7101 24.5482 50.2738 25.3682 50.2738 26.2455V44.3891L45.0004 47.9047L39.7269 44.3891V26.2455C39.7269 25.3682 39.2906 24.5483 38.5627 24.0583C37.8352 23.5682 36.9111 23.4724 36.0983 23.8023C31.7725 25.5586 28.0828 28.5291 25.4289 32.3924C22.7078 36.3531 21.2695 40.9895 21.2695 45.8003C21.2695 55.0988 26.6462 63.164 34.4531 67.0538V75.6242C33.1024 75.1399 31.7431 74.543 30.3986 73.8399C29.5845 73.4143 28.6077 73.4426 27.8198 73.9153L21.1711 77.9046L12.8958 69.6294L16.885 62.9804C17.3575 62.1928 17.3863 61.2158 16.9606 60.4019C16.0736 58.7061 15.3529 56.9863 14.8182 55.2905C14.5413 54.4123 13.8262 53.7421 12.9322 53.5227L5.27344 51.6427V39.958L12.9319 38.0782C13.8261 37.8587 14.541 37.1886 14.8178 36.3104C15.3526 34.6146 16.0734 32.8948 16.9603 31.199C17.386 30.385 17.3573 29.4082 16.8847 28.6205L12.8955 21.9716L21.1707 13.6963L27.8195 17.6857C28.6075 18.1585 29.5847 18.1866 30.3982 17.7611C32.094 16.8741 33.8138 16.1534 35.5096 15.6187C36.3878 15.3418 37.058 14.6267 37.2776 13.7325L39.1577 6.07373H50.8424L52.7222 13.7322C52.9418 14.6265 53.6121 15.3414 54.4903 15.6183C56.186 16.153 57.9059 16.8737 59.6016 17.7607C60.4155 18.1863 61.3925 18.158 62.1803 17.6853L68.8291 13.696L77.1043 21.9712L73.1152 28.6201C72.6427 29.4078 72.6138 30.3848 73.0396 31.1987C73.9266 32.8944 74.6473 34.6143 75.182 36.31C75.4588 37.1882 76.1739 37.8585 77.0679 38.0779L84.7266 39.9579V51.6427Z" fill="white"/>
</g>
<defs>
<clipPath id="clip0">
<rect width="90" height="90" fill="white" transform="translate(0 0.800293)"/>
</clipPath>
</defs>
</svg>
