<svg width="90" height="91" viewBox="0 0 90 91" fill="none" xmlns="http://www.w3.org/2000/svg">
<g clip-path="url(#clip0)">
<path d="M49.9099 27.1262C49.395 26.6114 48.5602 26.6112 48.0455 27.1261L46.5968 28.5747C46.0817 29.0895 46.0817 29.9243 46.5966 30.439C46.8541 30.6965 47.1914 30.8252 47.5289 30.8252C47.8662 30.8252 48.2037 30.6965 48.4611 30.4392L49.9099 28.9906C50.4247 28.4757 50.4247 27.6409 49.9099 27.1262V27.1262Z" fill="white"/>
<path d="M51.1264 34.4206C51.4637 34.4206 51.8012 34.2919 52.0587 34.0344L53.5074 32.5856C54.0222 32.0707 54.0222 31.236 53.5072 30.7213C52.9925 30.2066 52.1577 30.2064 51.6428 30.7214L50.1942 32.1702C49.6794 32.6851 49.6794 33.5199 50.1944 34.0346C50.4516 34.2917 50.7891 34.4206 51.1264 34.4206Z" fill="white"/>
<path d="M55.2366 34.3164L53.788 35.7652C53.2731 36.2801 53.2731 37.1148 53.7882 37.6295C54.0455 37.8869 54.383 38.0156 54.7203 38.0156C55.0577 38.0156 55.3952 37.8869 55.6527 37.6294L57.1013 36.1806C57.6162 35.6657 57.6162 34.8309 57.1011 34.3162C56.5864 33.8015 55.7516 33.8014 55.2366 34.3164Z" fill="white"/>
<path d="M57.3822 41.225C57.6397 41.4823 57.9772 41.611 58.3146 41.611C58.6519 41.611 58.9894 41.4823 59.2469 41.225L60.6957 39.7762C61.2106 39.2611 61.2106 38.4265 60.6957 37.9117C60.1807 37.397 59.346 37.397 58.8312 37.9117L57.3824 39.3604C56.8674 39.8753 56.8674 40.7099 57.3822 41.225Z" fill="white"/>
<path d="M10.8804 75.0791L8.44784 77.5115C7.93278 78.0264 7.93278 78.8612 8.44767 79.3759C8.96238 79.8906 9.7972 79.8912 10.3121 79.3761L12.7446 76.9437C13.2597 76.4288 13.2597 75.594 12.7448 75.0793C12.2299 74.5646 11.3953 74.5642 10.8804 75.0791V75.0791Z" fill="white"/>
<path d="M61.3132 65.1923L53.4366 60.6448C52.5542 60.1353 51.4583 60.1353 50.576 60.6448L42.6991 65.1923C41.817 65.7017 41.269 66.6509 41.269 67.6696V76.7648C41.269 77.7835 41.817 78.7326 42.6993 79.2422L50.576 83.7897C51.0172 84.0444 51.5117 84.1716 52.0064 84.1716C52.5011 84.1716 52.9956 84.0444 53.4368 83.7897L61.3134 79.2422C62.1957 78.7329 62.7438 77.7835 62.7438 76.7648V67.6696C62.7434 66.6509 62.1953 65.7017 61.3132 65.1923V65.1923ZM60.1066 76.765C60.1066 76.8446 60.0637 76.9189 59.9946 76.9589L52.118 81.5063C52.0489 81.5462 51.9632 81.5462 51.8942 81.5063L44.0177 76.9589C43.9486 76.9189 43.9057 76.8448 43.9057 76.765V67.6698C43.9057 67.5902 43.9486 67.5158 44.0175 67.4759L51.8942 62.9284C51.9287 62.9086 51.9676 62.8986 52.0062 62.8986C52.0449 62.8986 52.0836 62.9086 52.1182 62.9284L59.9948 67.4759C60.0639 67.5158 60.1067 67.59 60.1067 67.6698V76.765H60.1066Z" fill="white"/>
<path d="M52.0028 67.3511C49.3193 67.3511 47.1362 69.5342 47.1362 72.2176C47.1362 74.901 49.3193 77.084 52.0028 77.084C54.6862 77.084 56.8691 74.901 56.8691 72.2176C56.8691 69.5342 54.6862 67.3511 52.0028 67.3511ZM52.0028 74.447C50.7733 74.447 49.7731 73.4469 49.7731 72.2174C49.7731 70.988 50.7731 69.9877 52.0028 69.9877C53.2321 69.9877 54.2323 70.9878 54.2323 72.2174C54.2323 73.4469 53.2321 74.447 52.0028 74.447Z" fill="white"/>
<path d="M74.3945 61.58C74.3945 64.2634 76.5777 66.4465 79.2611 66.4465C81.9445 66.4465 84.1274 64.2634 84.1274 61.58C84.1274 58.8966 81.9445 56.7136 79.2611 56.7136C76.5777 56.7136 74.3945 58.8966 74.3945 61.58ZM81.4904 61.58C81.4904 62.8095 80.4904 63.8097 79.2609 63.8097C78.0314 63.8097 77.0312 62.8096 77.0312 61.58C77.0312 60.3507 78.0313 59.3505 79.2609 59.3505C80.4904 59.3505 81.4904 60.3507 81.4904 61.58Z" fill="white"/>
<path d="M88.5712 54.5552L80.6946 50.0077C79.8125 49.4985 78.7163 49.4983 77.834 50.0077L69.9571 54.5552C69.0748 55.0647 68.5269 56.0141 68.5269 57.0326V66.1278C68.5269 67.1463 69.0748 68.0955 69.9572 68.6051L77.8338 73.1526C78.2751 73.4073 78.7696 73.5348 79.2644 73.5348C79.7589 73.5348 80.2536 73.4073 80.6946 73.1526L83.5202 71.5213C84.1508 71.1572 84.3668 70.3509 84.0028 69.7203C83.6389 69.0896 82.832 68.8741 82.2018 69.2378L79.376 70.8691C79.3073 70.909 79.2215 70.909 79.1526 70.8691L71.276 66.3217C71.2068 66.2817 71.1639 66.2076 71.1639 66.1278V57.0326C71.1639 56.953 71.2068 56.8786 71.2758 56.8387L79.1528 52.2912C79.2215 52.2513 79.3073 52.2513 79.3762 52.2912L87.2528 56.8387C87.322 56.8786 87.3649 56.9528 87.3649 57.0326V66.1278C87.3649 66.2074 87.322 66.2817 87.2531 66.3217L86.7797 66.595C86.149 66.9589 85.9329 67.7652 86.297 68.3958C86.6609 69.0267 87.4674 69.2422 88.0978 68.8785L88.5715 68.605C89.4538 68.0957 90.0018 67.1463 90.0018 66.1278V57.0326C90.0016 56.0141 89.4537 55.0647 88.5712 54.5552V54.5552Z" fill="white"/>
<path d="M56.7 49.4544C64.5104 51.0744 72.5744 48.6958 78.2476 43.0226C84.9255 36.3451 86.8142 26.6099 83.7442 18.1847C83.5898 17.7616 83.2304 17.4464 82.7905 17.349C82.3507 17.2518 81.8917 17.3856 81.573 17.7039L70.7434 28.5337L61.7085 26.113L59.2876 17.0781L60.586 15.7799C61.1008 15.2649 61.1008 14.4302 60.586 13.9153C60.0711 13.4008 59.2364 13.4004 58.7214 13.9153L56.8849 15.7518C56.5518 16.0851 56.4219 16.5704 56.5439 17.0254L59.3589 27.5307C59.4808 27.9856 59.8362 28.3409 60.2912 28.4629L70.7965 31.2778C71.2514 31.3995 71.7369 31.2699 72.0701 30.9368L81.8912 21.1155C83.6915 28.2328 81.6358 35.9062 76.3836 41.1582C71.3604 46.1815 64.2026 48.3181 57.2359 46.8727C53.3992 46.0769 49.423 47.385 46.8588 50.2866L18.8574 81.9662C18.8533 81.9706 18.8493 81.9753 18.8454 81.9799C17.9737 82.994 16.9197 83.7898 15.7127 84.3449C15.051 84.6491 14.7615 85.4322 15.0658 86.0935C15.3704 86.7559 16.1536 87.0444 16.8144 86.7404C18.3654 86.0271 19.7195 85.0061 20.8391 83.7056L48.8345 52.0327C50.7736 49.8383 53.7871 48.8497 56.7 49.4544V49.4544Z" fill="white"/>
<path d="M11.0994 85.1564C8.92473 84.9799 6.87679 84.0326 5.33337 82.489C1.55742 78.7134 1.74552 72.4985 5.8428 68.9766C5.84737 68.9727 5.85212 68.9687 5.85652 68.9646L37.5361 40.9633C40.4375 38.3988 41.7456 34.4225 40.9499 30.5859C39.5048 23.6196 41.641 16.4616 46.6643 11.4385C51.9164 6.18625 59.5892 4.13022 66.707 5.93083L62.4496 10.1881C61.9347 10.7031 61.9347 11.5378 62.4496 12.0527C62.9647 12.5674 63.7993 12.5674 64.3142 12.0527L70.1184 6.24848C70.4369 5.92995 70.5707 5.47079 70.4733 5.03096C70.3759 4.59114 70.0607 4.23165 69.6376 4.07731C61.2115 1.00716 51.4774 2.89636 44.7997 9.5737C39.1463 15.2272 36.7419 23.2822 38.3681 31.1212C38.9721 34.0338 37.9842 37.0481 35.79 38.9876L4.11673 66.9833C-1.10208 71.4765 -1.40532 79.4793 3.46878 84.3534C5.45414 86.3389 8.08833 87.5575 10.886 87.7846C11.6099 87.843 12.2477 87.3047 12.3067 86.5771C12.3658 85.8513 11.8252 85.2153 11.0994 85.1564V85.1564Z" fill="white"/>
</g>
<defs>
<clipPath id="clip0">
<rect width="90" height="90" fill="white" transform="translate(0 0.218018)"/>
</clipPath>
</defs>
</svg>
