<svg width="90" height="91" viewBox="0 0 90 91" fill="none" xmlns="http://www.w3.org/2000/svg">
<g clip-path="url(#clip0)">
<path d="M72.7501 15.0071C71.5073 15.0071 70.5 16.0144 70.5 17.2572C70.5 18.5 71.5073 19.5074 72.7501 19.5074C73.993 19.5074 75.0003 18.5 75.0003 17.2572C75.0003 16.0144 73.993 15.0071 72.7501 15.0071V15.0071Z" fill="white"/>
<path d="M79.061 0.447582C78.4753 -0.138126 77.5257 -0.138126 76.94 0.447582L64.9395 12.4474C64.6586 12.7289 64.5 13.11 64.5 13.5083V24.0078C64.5 24.8365 65.1715 25.5081 66.0003 25.5081H76.5005C76.8981 25.5081 77.2792 25.3502 77.5607 25.0686L89.5605 13.0681C90.1462 12.4824 90.1462 11.5335 89.5605 10.9471L79.061 0.447582ZM75.8791 22.5081H67.5V14.129L78.0001 3.62881L86.3793 12.0079L75.8791 22.5081Z" fill="white"/>
<path d="M1.50032 51.0073H5.99991V51.1995C6.00609 53.8981 7.87033 56.2375 10.5002 56.8451V70.5073C10.5002 71.3361 11.1717 72.0076 11.9998 72.0076H20.9997C21.8285 72.0076 22.5 71.3361 22.5 70.5073V64.5074H24.012C26.488 64.5005 28.4937 62.4955 28.4999 60.0195V56.8451C30.4156 56.3961 31.9736 55.0063 32.6369 53.1537L57.8911 64.3783C58.6485 64.7148 59.5349 64.3735 59.8707 63.6161C59.9558 63.4246 60.0005 63.2172 59.9998 63.0071V27.007C60.0005 26.1789 59.3289 25.5073 58.5001 25.5073C58.2907 25.5073 58.0827 25.5513 57.8911 25.6364L32.6369 36.861C31.8171 34.5559 29.6384 33.0144 27.1918 33.0076H11.8082C8.60161 33.0103 6.00334 35.6093 5.99991 38.8152V39.0075H1.50032C0.671539 39.0075 0 39.679 0 40.5071V49.507C0 50.3357 0.671539 51.0073 1.50032 51.0073V51.0073ZM50.9999 31.981L56.9998 29.3161V60.6986L50.9999 58.0337V31.981ZM33.0002 39.9825L48 33.3145V56.7071L33.0002 50.0322V39.9825ZM19.5 63.0071V69.0077H13.5001V57.0072H19.5V63.0071ZM25.5 60.0195C25.4993 60.8407 24.8339 61.5068 24.012 61.5075H22.5V57.0072H25.5V60.0195ZM8.99986 49.507V38.8152C9.00192 37.2654 10.2578 36.0089 11.8082 36.0075H27.1918C28.7423 36.0089 29.9982 37.2654 30.0002 38.8152V51.1995C29.9982 52.7493 28.7423 54.0059 27.1918 54.0072H11.8082C10.2578 54.0059 9.00192 52.7493 8.99986 51.1995V49.507ZM2.99995 42.0074H5.99991V48.0073H2.99995V42.0074Z" fill="white"/>
<path d="M74.7152 58.9902C74.1295 58.4045 73.1799 58.4045 72.5941 58.9902L61.9862 69.5982C61.4004 70.1839 61.4004 71.1335 61.9862 71.7192L76.8362 86.5693C77.4219 87.155 78.3709 87.155 78.9573 86.5693L89.5632 75.9627C90.1489 75.377 90.1489 74.4274 89.5632 73.8416L74.7152 58.9902ZM84.5761 73.0905L76.1111 72.4409L75.4602 63.9759L84.5761 73.0905ZM77.8964 83.3833L65.1674 70.657L72.4081 63.417L73.2197 73.9529C73.276 74.6903 73.8617 75.2774 74.5991 75.3344L85.1371 76.144L77.8964 83.3833Z" fill="white"/>
<path d="M40.5016 28.5072C46.2886 28.5203 50.9908 23.8394 51.0045 18.0524C51.0093 15.7727 50.2712 13.5535 48.9013 11.7311L58.0646 2.56783L55.9408 0.446777L46.7775 9.60732C42.1379 6.12808 35.5564 7.0681 32.0771 11.7071C28.5979 16.3461 29.5379 22.9276 34.1769 26.4075C36.0013 27.7753 38.2212 28.512 40.5016 28.5072V28.5072ZM40.5016 10.5068C44.6434 10.5068 48.0011 13.8652 48.0011 18.007C48.0011 22.1496 44.6434 25.5073 40.5016 25.5073C36.3591 25.5073 33.0014 22.1496 33.0014 18.007C33.0062 13.8673 36.3611 10.5123 40.5016 10.5068V10.5068Z" fill="white"/>
<path d="M64.4996 52.5076H71.9999V54.0072C71.9999 54.836 72.6714 55.5075 73.5002 55.5075H85.5C86.3281 55.5075 86.9996 54.836 86.9996 54.0072V46.5358C86.9921 43.9883 85.3812 41.7217 82.9786 40.8765C85.6785 38.9552 86.3096 35.2089 84.3883 32.509C82.4678 29.8091 78.7214 29.1774 76.0215 31.0986C73.3217 33.0199 72.6899 36.7662 74.6112 39.4661C74.9991 40.0113 75.4757 40.4885 76.0215 40.8765C75.0506 41.2225 74.1848 41.8124 73.507 42.589C72.9845 41.9868 72.3466 41.4944 71.6311 41.1415C73.6471 39.6886 74.1037 36.8761 72.6508 34.8601C71.1979 32.8441 68.3854 32.3875 66.3687 33.8404C64.3527 35.2934 63.8961 38.1059 65.349 40.1218C65.6319 40.5146 65.9766 40.8586 66.3687 41.1415C64.3142 42.1406 63.0069 44.2225 63 46.507V51.0072C63 51.8353 63.6715 52.5076 64.4996 52.5076V52.5076ZM79.5001 33.0075C81.157 33.0075 82.5 34.3506 82.5 36.0075C82.5 37.6643 81.157 39.0074 79.5001 39.0074C77.8432 39.0074 76.5001 37.6637 76.5001 36.0075C76.5001 34.3506 77.8432 33.0075 79.5001 33.0075ZM74.9998 51.0072V46.5358C75.0026 44.8638 76.3566 43.5097 78.0286 43.507H80.9716C82.6429 43.5097 83.9976 44.8638 83.9997 46.5358V52.5069H74.9998V51.0072ZM68.9999 36.0075C69.828 36.0075 70.4995 36.679 70.4995 37.5071C70.4995 38.3359 69.828 39.0074 68.9999 39.0074C68.1711 39.0074 67.4996 38.3359 67.4996 37.5071C67.4996 36.679 68.1711 36.0075 68.9999 36.0075ZM66 46.507C66 44.8501 67.343 43.507 68.9999 43.507C70.6568 43.507 71.9999 44.8508 71.9999 46.507V49.5076H66V46.507Z" fill="white"/>
<path d="M42.0009 61.5074H36.001C35.6034 61.5074 35.2216 61.6654 34.9401 61.9469L25.9403 70.9468C25.3545 71.5325 25.3545 72.4821 25.9403 73.0678L42.4403 89.5679C43.0261 90.1536 43.9757 90.1536 44.5614 89.5679L56.5619 77.5681C57.1469 76.9824 57.1469 76.0327 56.5619 75.447L43.0618 61.9469C42.7802 61.6654 42.3985 61.5074 42.0009 61.5074V61.5074ZM43.5012 86.3867L29.1222 72.0076L36.6217 64.5074H41.3802L53.38 76.5072L43.5012 86.3867Z" fill="white"/>
<path d="M34.9414 73.9467L40.9413 67.9468L43.0624 70.0678L37.0625 76.0677L34.9414 73.9467Z" fill="white"/>
<path d="M39.4375 78.4463L45.4381 72.4464L47.5591 74.5675L41.5592 80.5681L39.4375 78.4463Z" fill="white"/>
</g>
<defs>
<clipPath id="clip0">
<rect width="90" height="90" fill="white" transform="translate(0 0.00732422)"/>
</clipPath>
</defs>
</svg>
