<svg width="90" height="91" viewBox="0 0 90 91" fill="none" xmlns="http://www.w3.org/2000/svg">
<g clip-path="url(#clip0)">
<path d="M45 12.7227C37.3314 12.7227 29.8846 15.4448 24.0314 20.3879C23.4751 20.8576 23.4051 21.6894 23.8746 22.2458C24.3445 22.8021 25.1759 22.8721 25.7324 22.4024C31.1105 17.8606 37.9533 15.3594 45 15.3594C61.4774 15.3594 74.8828 28.7648 74.8828 45.2422C74.8828 61.7196 61.4774 75.125 45 75.125C28.5226 75.125 15.1172 61.7196 15.1172 45.2422C15.1172 38.1956 17.6184 31.3528 22.1602 25.9746C22.6299 25.4183 22.5598 24.5867 22.0034 24.1168C21.4471 23.6469 20.6153 23.7171 20.1456 24.2734C15.2026 30.1268 12.4805 37.5737 12.4805 45.2422C12.4805 63.1735 27.0686 77.7617 45 77.7617C62.9314 77.7617 77.5195 63.1735 77.5195 45.2422C77.5195 27.3109 62.9314 12.7227 45 12.7227Z" fill="white"/>
<path d="M86.4436 49.7974C88.5375 49.2739 90 47.4006 90 45.2422C90 43.0838 88.5375 41.2105 86.4436 40.687L82.3836 39.672C82.2048 38.4662 81.9666 37.2642 81.672 36.0805L85.0319 33.5909C86.7662 32.3057 87.4007 30.0155 86.5746 28.0214C85.7486 26.027 83.6801 24.8561 81.5455 25.1739L77.4067 25.7897C76.7786 24.7457 76.0973 23.7278 75.3715 22.7489L77.526 19.158C78.6364 17.3072 78.3461 14.9484 76.8197 13.4223C75.2936 11.896 72.935 11.6056 71.0838 12.716L67.4931 14.8707C66.5139 14.1447 65.4961 13.4634 64.4523 12.8353L65.0681 8.69674C65.3861 6.5617 64.215 4.49363 62.2208 3.66764C60.2269 2.84182 57.9363 3.47604 56.6511 5.21029L54.1617 8.57018C52.9775 8.27539 51.7755 8.03721 50.5702 7.85861L49.5552 3.79877C49.0319 1.70469 47.1586 0.242188 45 0.242188C42.8414 0.242188 40.9681 1.70469 40.4448 3.79877L39.4298 7.85879C38.2247 8.03738 37.0227 8.27557 35.8383 8.57035L33.3489 5.21047C32.0639 3.47621 29.7742 2.84164 27.7792 3.66781C25.7848 4.49381 24.6139 6.56187 24.9319 8.69674L25.5477 12.8355C24.5039 13.4634 23.4861 14.1447 22.5069 14.8709L18.916 12.7163C17.0648 11.6059 14.7064 11.8963 13.1801 13.4226C11.6538 14.9489 11.3634 17.3076 12.4738 19.1585L14.6283 22.7492C13.9024 23.7285 13.221 24.7464 12.5931 25.7901L8.45455 25.1743C6.31846 24.8563 4.25109 26.0275 3.42545 28.0216C2.59928 30.0157 3.23367 32.3061 4.96793 33.5912L8.32781 36.0806C8.03303 37.2647 7.79484 38.4669 7.61625 39.6722L3.55623 40.6872C1.4625 41.2105 0 43.0838 0 45.2422C0 47.4006 1.4625 49.2739 3.55641 49.7974L7.61643 50.8123C7.79502 52.0175 8.0332 53.2198 8.32799 54.4037L4.96811 56.8933C3.23385 58.1785 2.59928 60.4687 3.42545 62.4628C4.25145 64.4572 6.32004 65.6282 8.45455 65.3103L12.5933 64.6945C13.2214 65.7385 13.9025 66.7562 14.6285 67.7352L12.474 71.326C11.3636 73.1768 11.6539 75.5356 13.1803 77.0618C14.7067 78.5881 17.0655 78.8785 18.9162 77.7679L22.507 75.6135C23.4863 76.3396 24.5041 77.0208 25.5479 77.6489L24.9321 81.7875C24.6141 83.9225 25.7852 85.9906 27.7794 86.8166C29.7735 87.6424 32.0639 87.0083 33.349 85.2739L35.8385 81.914C37.0223 82.2088 38.2247 82.447 39.43 82.6256L40.445 86.6854C40.9681 88.7797 42.8414 90.2422 45 90.2422C47.1586 90.2422 49.0319 88.7797 49.5552 86.6856L50.5702 82.6256C51.7753 82.447 52.9775 82.2088 54.1617 81.914L56.6511 85.2739C57.9364 87.0083 60.2272 87.6426 62.2208 86.8166C64.2152 85.9906 65.3861 83.9225 65.0681 81.7876L64.4523 77.6489C65.4961 77.0208 66.5139 76.3396 67.4931 75.6135L71.084 77.7679C72.9346 78.8783 75.2934 78.5882 76.8199 77.0618C78.3462 75.5355 78.6366 73.1768 77.5262 71.3258L75.3715 67.7352C76.0975 66.7562 76.7786 65.7385 77.4067 64.6945L81.5453 65.3103C83.6817 65.6275 85.7486 64.457 86.5744 62.463C87.4005 60.4689 86.7662 58.1785 85.0319 56.8933L81.672 54.4037C81.9668 53.2202 82.2048 52.0182 82.3836 50.8123L86.4436 49.7974ZM79.386 55.9916L83.4622 59.0118C84.2224 59.5754 84.5007 60.5795 84.1384 61.454C83.7763 62.3283 82.8714 62.8423 81.9334 62.7024L76.9133 61.9553C76.3748 61.8758 75.8428 62.1342 75.5736 62.6071C74.736 64.0784 73.7833 65.5017 72.742 66.8374C72.4069 67.2672 72.3709 67.8591 72.6511 68.3263L75.2648 72.6825C75.7519 73.4941 75.6244 74.5282 74.9551 75.1974C74.2859 75.8668 73.2521 75.9941 72.4402 75.507L68.0839 72.8933C67.6169 72.6129 67.0252 72.6491 66.5951 72.984C65.2586 74.0258 63.8353 74.9786 62.3649 75.8156C61.8919 76.0849 61.633 76.6172 61.7131 77.1554L62.46 82.1758C62.5992 83.1118 62.0859 84.0185 61.2114 84.3806C60.3369 84.7427 59.3329 84.4646 58.7695 83.7042L55.7492 79.628C55.4251 79.1906 54.8664 78.9978 54.3403 79.1416C52.7052 79.5911 51.0249 79.924 49.346 80.1309C48.805 80.1977 48.3608 80.5906 48.2284 81.1197L46.9967 86.0461C46.7677 86.9642 45.9464 87.6055 45 87.6055C44.0536 87.6055 43.2323 86.9642 43.003 86.0459L41.7713 81.1197C41.6389 80.5907 41.1947 80.1977 40.6536 80.1309C38.9744 79.924 37.2941 79.5911 35.6593 79.1418C35.5437 79.11 35.4261 79.0945 35.3099 79.0945C34.8991 79.0945 34.5032 79.2872 34.2506 79.6282L31.2304 83.7044C30.667 84.4648 29.6626 84.7429 28.7884 84.3808C27.9139 84.0187 27.4006 83.112 27.5398 82.1758L28.2867 77.1556C28.3669 76.6174 28.108 76.0851 27.6349 75.8158C26.1645 74.9787 24.741 74.026 23.4047 72.9842C22.975 72.6491 22.3831 72.6131 21.9159 72.8935L17.5597 75.5072C16.7484 75.9942 15.7141 75.8668 15.0448 75.1976C14.3754 74.5284 14.2481 73.4943 14.735 72.6827L17.3487 68.3265C17.6291 67.8591 17.5931 67.2674 17.2579 66.8376C16.2163 65.5017 15.2636 64.0784 14.4262 62.6073C14.1571 62.1344 13.6239 61.8755 13.0866 61.9555L8.06625 62.7025C7.13145 62.8418 6.22354 62.3287 5.86125 61.454C5.49897 60.5796 5.77723 59.5756 6.53766 59.012L10.6138 55.9917C11.0512 55.6676 11.2446 55.1079 11.1002 54.583C10.6508 52.9483 10.318 51.268 10.1109 49.5889C10.0443 49.0477 9.65127 48.6035 9.12234 48.4713L4.19607 47.2398C3.27779 47.0098 2.63672 46.1886 2.63672 45.2422C2.63672 44.2958 3.27779 43.4745 4.19607 43.245L9.12234 42.0134C9.65127 41.8813 10.0443 41.4369 10.1109 40.8958C10.318 39.2168 10.6508 37.5365 11.1002 35.9015C11.2446 35.3765 11.0514 34.817 10.6138 34.4926L6.53766 31.4725C5.7774 30.909 5.49914 29.9049 5.86143 29.0304C6.22354 28.1561 7.12934 27.6426 8.06643 27.782L13.0866 28.5291C13.6255 28.6091 14.1571 28.3501 14.4262 27.8773C15.2634 26.4065 16.2162 24.9832 17.2579 23.6468C17.5929 23.217 17.6289 22.6253 17.3487 22.1579L14.735 17.8019C14.2479 16.9903 14.3754 15.9562 15.0448 15.287C15.714 14.6178 16.7481 14.4905 17.5597 14.9772L21.9159 17.5909C22.3831 17.8715 22.9748 17.8354 23.4047 17.5002C24.7412 16.4584 26.1645 15.5056 27.6351 14.6684C28.1079 14.3993 28.3669 13.867 28.2867 13.3287L27.5398 8.30861C27.4006 7.37258 27.9139 6.4659 28.7884 6.10379C29.6629 5.7415 30.6668 6.01959 31.2304 6.7802L34.2506 10.8564C34.5748 11.2939 35.1343 11.4867 35.6593 11.3428C37.2948 10.8933 38.9751 10.5605 40.6538 10.3537C41.1949 10.2869 41.6391 9.89398 41.7714 9.36488L43.0031 4.43844C43.2323 3.52016 44.0536 2.87891 45 2.87891C45.9464 2.87891 46.7677 3.52016 46.997 4.43844L48.2288 9.36471C48.3611 9.89363 48.8053 10.2867 49.3464 10.3535C51.0251 10.5604 52.7054 10.8931 54.3408 11.3426C54.8657 11.4867 55.4254 11.2937 55.7496 10.8562L58.7698 6.78002C59.3332 6.01977 60.3374 5.7415 61.2118 6.10361C62.0863 6.46572 62.5996 7.3724 62.4603 8.30861L61.7135 13.3287C61.6333 13.867 61.8922 14.3993 62.3651 14.6684C63.8357 15.5056 65.2591 16.4584 66.5954 17.5002C67.025 17.8353 67.6167 17.8713 68.0843 17.5909L72.4405 14.9772C73.2519 14.4905 74.2862 14.6176 74.9554 15.287C75.6248 15.9562 75.752 16.9903 75.2651 17.8019L72.6514 22.1581C72.3711 22.6255 72.4071 23.2171 72.7423 23.6469C73.7837 24.9827 74.7364 26.406 75.574 27.8775C75.8431 28.3503 76.3761 28.6087 76.9136 28.5293L81.9339 27.7822C82.8682 27.6423 83.7766 28.1561 84.1389 29.0308C84.5012 29.9051 84.2229 30.9092 83.4625 31.4725L79.3863 34.4928C78.949 34.817 78.7556 35.3766 78.8999 35.9017C79.3491 37.5356 79.6818 39.2159 79.8892 40.8962C79.956 41.4372 80.3489 41.8814 80.8778 42.0136L85.8041 43.2451C86.7222 43.4745 87.3633 44.2958 87.3633 45.2422C87.3633 46.1886 86.7222 47.0098 85.8039 47.2394L80.8777 48.4709C80.3487 48.6031 79.9559 49.0473 79.8891 49.5884C79.6816 51.2687 79.3489 52.949 78.8998 54.5827C78.7553 55.1079 78.9486 55.6676 79.386 55.9916V55.9916Z" fill="white"/>
<path d="M38.4062 45.2422C38.4062 48.877 41.3632 51.834 44.998 51.834C48.6329 51.834 51.5898 48.877 51.5898 45.2422C51.5898 41.6074 48.6329 38.6504 44.998 38.6504C41.3632 38.6504 38.4062 41.6074 38.4062 45.2422ZM48.9531 45.2422C48.9531 47.4231 47.1788 49.1973 44.998 49.1973C42.8173 49.1973 41.043 47.4231 41.043 45.2422C41.043 43.0613 42.8173 41.2871 44.998 41.2871C47.1788 41.2871 48.9531 43.0613 48.9531 45.2422Z" fill="white"/>
<path d="M42.0789 24.8205C41.0697 24.0724 39.805 23.8516 38.6088 24.215C31.5808 26.3495 26.1105 31.8198 23.976 38.8477C23.6127 40.0439 23.8331 41.3086 24.5812 42.3178C25.338 43.3385 26.4997 43.9239 27.7689 43.9239H34.7887C35.3902 43.9239 35.9154 43.5168 36.0656 42.9342C36.9026 39.6819 39.443 37.1416 42.6951 36.3045C43.2777 36.1545 43.685 35.6293 43.685 35.0278V28.0081C43.6848 26.739 43.0994 25.5771 42.0789 24.8205V24.8205ZM41.0481 34.0522C37.668 35.2442 35.0051 37.9069 33.8131 41.2872H27.7689C27.3435 41.2872 26.9536 41.0905 26.6994 40.7475C26.4538 40.4162 26.3807 40.0031 26.4988 39.6141C28.3772 33.4298 33.1907 28.6162 39.375 26.7379C39.497 26.7009 39.6213 26.6827 39.7448 26.6827C40.015 26.6827 40.281 26.7701 40.5084 26.9387C40.8512 27.1929 41.0479 27.5827 41.0479 28.008V34.0522H41.0481Z" fill="white"/>
<path d="M66.0293 38.8478C63.8944 31.8197 58.4243 26.3494 51.3963 24.2149C50.1998 23.8517 48.9354 24.0722 47.9262 24.8205C46.9057 25.577 46.3203 26.739 46.3203 28.0079V35.0276C46.3203 35.6291 46.7274 36.1543 47.3101 36.3043C50.5623 37.1413 53.1027 39.6817 53.9397 42.934C54.0898 43.5166 54.6151 43.9237 55.2166 43.9237H62.2364C63.5056 43.9237 64.6673 43.3383 65.424 42.3176C66.172 41.3088 66.3924 40.0438 66.0293 38.8478ZM63.3057 40.7475C63.0515 41.0904 62.6616 41.2871 62.2362 41.2871H56.192C55 37.9069 52.3371 35.2441 48.957 34.0522V28.0079C48.957 27.5825 49.1537 27.1928 49.4965 26.9386C49.828 26.6929 50.2409 26.62 50.6299 26.7379C56.8143 28.6163 61.6277 33.4297 63.5063 39.6142C63.6244 40.0031 63.5513 40.4161 63.3057 40.7475V40.7475Z" fill="white"/>
<path d="M23.972 51.6366C26.1069 58.6647 31.577 64.135 38.6049 66.2695C38.9828 66.3843 39.3674 66.4407 39.7489 66.4407C40.5747 66.4407 41.3849 66.1758 42.075 65.6639C43.0956 64.9074 43.6809 63.7455 43.6809 62.4765V55.4567C43.6809 54.8551 43.2738 54.3299 42.6911 54.18C39.439 53.3429 36.8986 50.8025 36.0615 47.5502C35.9114 46.9677 35.3862 46.5605 34.7847 46.5605H27.7648C26.4957 46.5605 25.334 47.1459 24.5772 48.1667C23.8293 49.1756 23.6088 50.4406 23.972 51.6366V51.6366ZM26.6956 49.7369C26.9497 49.394 27.3396 49.1973 27.765 49.1973H33.8092C35.0012 52.5775 37.6641 55.2401 41.0442 56.4322V62.4765C41.0442 62.9019 40.8475 63.2916 40.5048 63.5458C40.1732 63.7915 39.7601 63.8645 39.3713 63.7465C33.187 61.8681 28.3736 57.0547 26.495 50.8702C26.3769 50.4813 26.45 50.0683 26.6956 49.7369Z" fill="white"/>
<path d="M62.2335 46.5605H55.2137C54.6122 46.5605 54.0869 46.9677 53.9368 47.5502C53.0997 50.8025 50.5593 53.3429 47.3072 54.18C46.7247 54.3299 46.3174 54.8551 46.3174 55.4567V62.4765C46.3174 63.7455 46.9027 64.9074 47.9233 65.6639C48.6138 66.1758 49.4236 66.4407 50.2494 66.4407C50.6307 66.4407 51.0155 66.3843 51.3934 66.2695C58.4213 64.135 63.8916 58.6647 66.0262 51.6368C66.3895 50.4406 66.1691 49.1758 65.4209 48.1667C64.6644 47.1459 63.5026 46.5605 62.2335 46.5605V46.5605ZM63.5035 50.8704C61.6251 57.0547 56.8117 61.8683 50.6274 63.7465C50.2385 63.8646 49.8253 63.7915 49.4939 63.5458C49.1512 63.2916 48.9545 62.9017 48.9545 62.4765V56.4322C52.3346 55.2403 54.9975 52.5775 56.1894 49.1973H62.2337C62.6591 49.1973 63.049 49.394 63.3031 49.7369C63.5485 50.0683 63.6216 50.4813 63.5035 50.8704V50.8704Z" fill="white"/>
</g>
<defs>
<clipPath id="clip0">
<rect width="90" height="90" fill="white" transform="translate(0 0.242188)"/>
</clipPath>
</defs>
</svg>
