<svg width="91" height="91" viewBox="0 0 91 91" fill="none" xmlns="http://www.w3.org/2000/svg">
<g clip-path="url(#clip0)">
<path d="M80.1278 31.5842C80.8559 31.5842 81.4462 30.994 81.4462 30.2657V17.5298C81.4462 14.9259 79.4163 12.7823 76.8249 12.6499C61.1893 11.8538 52.7857 5.45943 49.1683 1.71882C48.2475 0.766566 47.0087 0.242188 45.6801 0.242188C44.3515 0.242188 43.1127 0.766567 42.1923 1.71864C38.5745 5.45926 30.1709 11.8536 14.535 12.6499C11.9439 12.7823 9.91406 14.9257 9.91406 17.5298V54.2875C9.91406 64.8737 15.6098 74.7386 24.779 80.0327L39.6945 88.6427C41.5408 89.7092 43.6102 90.2424 45.6803 90.2424C47.7499 90.2424 49.82 89.7092 51.6657 88.6429L66.5816 80.0329C75.7504 74.7388 81.4464 64.8739 81.4464 54.2877V36.4187C81.4464 35.6904 80.8561 35.1003 80.1279 35.1003C79.3998 35.1003 78.8095 35.6904 78.8095 36.4187V54.2877C78.8095 63.9348 73.6188 72.9248 65.2632 77.7494L50.3471 86.3595C47.4686 88.0223 43.8918 88.0221 41.0129 86.3594L26.0972 77.7494C17.7416 72.9248 12.5509 63.9348 12.5509 54.2877V17.5298C12.5509 16.3309 13.4815 15.3441 14.6693 15.2834C31.2085 14.4412 40.1999 7.57172 44.0878 3.55177C44.5071 3.1181 45.0726 2.8792 45.6801 2.8792C46.2876 2.8792 46.8532 3.1181 47.2726 3.55195C51.1602 7.57172 60.1516 14.4412 76.6906 15.2834C77.8787 15.3442 78.8093 16.3309 78.8093 17.5298V30.2657C78.8093 30.994 79.3996 31.5842 80.1278 31.5842V31.5842Z" fill="white"/>
<path d="M18.3375 35.1C17.6093 35.1 17.019 35.6901 17.019 36.4184V54.2873C17.019 62.3434 21.3535 69.8515 28.3311 73.8817L43.2473 82.492C43.9877 82.919 44.8294 83.1447 45.6815 83.1447C46.5335 83.1447 47.3752 82.919 48.1161 82.4916L63.0322 73.8815C70.0096 69.8515 74.3441 62.3434 74.3441 54.2873V22.3886C74.3441 20.8322 73.1826 19.5133 71.6432 19.3208C59.8181 17.8334 52.0391 13.3409 47.5939 9.8329C46.4679 8.9471 44.8952 8.9471 43.7678 9.83413C39.3242 13.3409 31.545 17.8334 19.7211 19.3206C18.1808 19.5133 17.0192 20.8322 17.0192 22.3886V30.2657C17.0192 30.994 17.6095 31.5842 18.3376 31.5842C19.0658 31.5842 19.6561 30.994 19.6561 30.2657V22.3886C19.6561 22.1591 19.8245 21.965 20.0491 21.937C32.476 20.3739 40.6949 15.6185 45.3998 11.9055C45.5654 11.7748 45.7971 11.7747 45.9618 11.9042C50.6683 15.6185 58.8871 20.3741 71.3152 21.9372C71.5386 21.965 71.7072 22.1592 71.7072 22.3886V54.2873C71.7072 61.4047 67.8778 68.0379 61.7138 71.5982L46.7986 80.208C46.1178 80.6007 45.2452 80.6003 44.5654 80.2083L29.6498 71.5983C23.4856 68.0379 19.6561 61.4049 19.6561 54.2873V36.4184C19.6559 35.6901 19.0658 35.1 18.3375 35.1V35.1Z" fill="white"/>
<path d="M29.6963 42.1485C30.767 42.1485 31.7734 42.5653 32.5304 43.3222L39.4196 50.2097C39.9346 50.7247 40.7691 50.7244 41.284 50.2097L48.8306 42.663C49.3455 42.148 49.3455 41.3133 48.8306 40.7984C48.3157 40.2837 47.4809 40.2837 46.9662 40.7984L40.3518 47.413L34.395 41.4578C33.1402 40.2029 31.4716 39.5118 29.6965 39.5118C27.9214 39.5118 26.2528 40.203 24.998 41.4576C23.7423 42.7135 23.0508 44.3826 23.0508 46.1577C23.0508 47.9334 23.7425 49.6021 24.998 50.8566L35.6517 61.5103C36.9058 62.7665 38.5749 63.4582 40.3519 63.4582C42.1278 63.4582 43.7964 62.7663 45.0496 61.5111L66.3582 40.2022C67.6142 38.9472 68.3059 37.2784 68.3059 35.5031C68.3059 33.7278 67.6144 32.0587 66.3587 30.8031C65.1039 29.5483 63.4353 28.8574 61.6602 28.8574C59.8851 28.8574 58.2165 29.5485 56.9617 30.8031L51.3172 36.4475C50.8023 36.9625 50.8023 37.7972 51.3172 38.3121C51.832 38.8268 52.6669 38.8268 53.1816 38.3121L58.8262 32.6675C59.5829 31.9107 60.5893 31.4941 61.6602 31.4941C62.731 31.4941 63.7374 31.9107 64.4943 32.6677C65.252 33.4253 65.6693 34.4322 65.6693 35.5031C65.6693 36.5739 65.2521 37.5801 64.4943 38.3372L43.1843 59.6474C42.4284 60.4045 41.4225 60.8215 40.3519 60.8215C39.2802 60.8215 38.2736 60.4045 37.517 59.6465L26.8621 48.9916C26.1048 48.2348 25.6876 47.2284 25.6876 46.1577C25.6876 45.0868 26.1049 44.0799 26.8626 43.3222C27.6192 42.5653 28.6256 42.1485 29.6963 42.1485V42.1485Z" fill="white"/>
</g>
<defs>
<clipPath id="clip0">
<rect width="90" height="90" fill="white" transform="translate(0.679688 0.242188)"/>
</clipPath>
</defs>
</svg>
