<svg width="90" height="91" viewBox="0 0 90 91" fill="none" xmlns="http://www.w3.org/2000/svg">
<path d="M81.5625 29.7734H80.0677C81.8958 26.9286 82.9688 23.555 82.9688 19.9297C82.9688 9.84969 74.7675 1.64844 64.6875 1.64844C54.6075 1.64844 46.4062 9.84969 46.4062 19.9297C46.4062 20.405 46.4414 20.8705 46.478 21.3359H41.0062C41.7614 19.6119 42.1875 17.7106 42.1875 15.7109C42.1875 7.95688 35.8791 1.64844 28.125 1.64844C20.3709 1.64844 14.0625 7.95688 14.0625 15.7109C14.0625 17.7106 14.4886 19.6119 15.2452 21.3359H8.4375C4.56047 21.3359 1.40625 24.4902 1.40625 28.3672V62.1172C1.40625 65.9942 4.56047 69.1484 8.4375 69.1484H21.0938V72.8384C12.6787 74.2967 12.6562 76.7534 12.6562 77.5859C12.6562 83.0534 30.3286 83.2109 32.3438 83.2109C35.4178 83.2109 38.4005 83.0267 41.0906 82.6962L47.2303 88.8359H82.1447L88.5938 82.3869V36.8047C88.5938 32.9277 85.4395 29.7734 81.5625 29.7734ZM49.2188 55.0859H80.1562V69.1484H49.2188V55.0859ZM49.2188 71.9609H80.1562V86.0234H49.2188V71.9609ZM80.1562 52.2734H49.2188V38.2109H80.1562V52.2734ZM64.6875 4.46094C66.1992 4.46094 67.8094 6.60828 68.9189 10.0859H60.4561C61.5656 6.60828 63.1758 4.46094 64.6875 4.46094ZM69.6361 12.8984C69.9792 14.5986 70.2098 16.4886 70.283 18.5234H59.092C59.1652 16.4886 59.3972 14.5986 59.7389 12.8984H69.6361ZM80.0845 18.5234H73.0941C73.0294 16.528 72.8353 14.638 72.5189 12.8984H78.4491C79.3294 14.6155 79.9031 16.5125 80.0845 18.5234V18.5234ZM78.4491 26.9609H72.5189C72.8353 25.2214 73.0308 23.3314 73.0941 21.3359H80.0845C79.9031 23.3469 79.3294 25.2439 78.4491 26.9609ZM64.6875 35.3984C63.1758 35.3984 61.5656 33.2511 60.4561 29.7734H68.9189C67.8094 33.2511 66.1992 35.3984 64.6875 35.3984ZM59.7389 26.9609C59.3958 25.2608 59.1652 23.3708 59.092 21.3359H70.283C70.2098 23.3708 69.9778 25.2608 69.6361 26.9609H59.7389ZM56.2809 18.5234H49.2905C49.4733 16.5125 50.0456 14.6155 50.9273 12.8984H56.8575C56.5397 14.638 56.3442 16.528 56.2809 18.5234V18.5234ZM56.2809 21.3359C56.3456 23.3314 56.5397 25.2214 56.8561 26.9609H50.9259C50.0456 25.2439 49.4719 23.3469 49.2891 21.3359H56.2809ZM57.5086 29.7734C58.0261 31.5945 58.687 33.1794 59.4647 34.4717C56.8294 33.5225 54.5175 31.8927 52.7653 29.7734H57.5086ZM71.8664 29.7734H76.6111C74.8589 31.8927 72.5456 33.5225 69.9117 34.4717C70.688 33.1794 71.3489 31.5945 71.8664 29.7734ZM76.6111 10.0859H71.8664C71.3489 8.26484 70.688 6.68 69.9103 5.38766C72.5456 6.33687 74.8575 7.96672 76.6111 10.0859ZM59.4647 5.38766C58.687 6.68 58.0261 8.26484 57.5086 10.0859H52.7639C54.5175 7.96672 56.8294 6.33687 59.4647 5.38766ZM28.125 4.46094C34.328 4.46094 39.375 9.50797 39.375 15.7109C39.375 21.9139 34.328 26.9609 28.125 26.9609C21.922 26.9609 16.875 21.9139 16.875 15.7109C16.875 9.50797 21.922 4.46094 28.125 4.46094ZM4.21875 62.1172V57.8984H40.7812V66.3359H8.4375C6.11156 66.3359 4.21875 64.4431 4.21875 62.1172ZM40.7812 69.1484V74.7734H25.3125C24.5377 74.7734 23.9062 74.142 23.9062 73.3672V69.1484H40.7812ZM15.5531 77.593C15.9975 77.1725 17.692 76.2753 21.7378 75.5834C22.4831 76.7802 23.8008 77.5859 25.3125 77.5859H40.7812V79.9006C38.1966 80.2212 35.3194 80.3984 32.3438 80.3984C22.6209 80.3984 16.5825 78.6716 15.5531 77.593V77.593ZM40.7812 36.8047V55.0859H4.21875V28.3672C4.21875 26.0412 6.11156 24.1484 8.4375 24.1484H16.9017C19.4709 27.5558 23.5378 29.7734 28.125 29.7734C32.7122 29.7734 36.7791 27.5558 39.3483 24.1484H46.9167C47.3977 26.1748 48.2119 28.0691 49.3073 29.7734H47.8125C43.9355 29.7734 40.7812 32.9277 40.7812 36.8047V36.8047ZM43.5938 36.8047C43.5938 34.4787 45.4866 32.5859 47.8125 32.5859H51.5264C52.5586 33.6603 53.723 34.6011 54.99 35.3984H49.2188C47.6677 35.3984 46.4062 36.6598 46.4062 38.2109V84.035L43.5938 81.2225V36.8047ZM85.7812 81.2225L82.9688 84.035V38.2109C82.9688 36.6598 81.7073 35.3984 80.1562 35.3984H74.3864C75.6534 34.6011 76.8164 33.6603 77.85 32.5859H81.5625C83.8884 32.5859 85.7812 34.4787 85.7812 36.8047V81.2225Z" fill="white"/>
<path d="M52.0312 49.4609H60.4688V41.0234H52.0312V49.4609ZM54.8438 43.8359H57.6562V46.6484H54.8438V43.8359Z" fill="white"/>
<path d="M63.2812 49.4609H77.3438V41.0234H63.2812V49.4609ZM74.5312 46.6484H71.7188V43.8359H74.5312V46.6484ZM66.0938 43.8359H68.9062V46.6484H66.0938V43.8359Z" fill="white"/>
<path d="M52.0312 83.2109H60.4688V74.7734H52.0312V83.2109ZM54.8438 77.5859H57.6562V80.3984H54.8438V77.5859Z" fill="white"/>
<path d="M63.2812 74.7734V83.2109H77.3438V74.7734H63.2812ZM66.0938 77.5859H68.9062V80.3984H66.0938V77.5859ZM74.5312 80.3984H71.7188V77.5859H74.5312V80.3984Z" fill="white"/>
<path d="M68.9062 57.8984V66.3359H77.3438V57.8984H68.9062ZM74.5312 63.5234H71.7188V60.7109H74.5312V63.5234Z" fill="white"/>
<path d="M52.0312 66.3359H66.0938V57.8984H52.0312V66.3359ZM63.2812 63.5234H60.4688V60.7109H63.2812V63.5234ZM54.8438 60.7109H57.6562V63.5234H54.8438V60.7109Z" fill="white"/>
<path d="M12.6562 60.7109H15.4688V63.5234H12.6562V60.7109Z" fill="white"/>
<path d="M18.2812 60.7109H21.0938V63.5234H18.2812V60.7109Z" fill="white"/>
<path d="M7.03125 60.7109H9.84375V63.5234H7.03125V60.7109Z" fill="white"/>
<path d="M7.03125 52.2734H18.2812V41.0234H7.03125V52.2734ZM9.84375 43.8359H15.4688V49.4609H9.84375V43.8359Z" fill="white"/>
<path d="M7.03125 38.2109H18.2812V26.9609H7.03125V38.2109ZM9.84375 29.7734H15.4688V35.3984H9.84375V29.7734Z" fill="white"/>
<path d="M21.0938 52.2734H37.9688V32.5859H21.0938V52.2734ZM23.9062 35.3984H35.1562V49.4609H23.9062V35.3984Z" fill="white"/>
<path d="M34.7462 12.4864L32.7578 10.4979L23.9083 19.3475L22.09 17.5292L20.1016 19.5176L23.9083 23.3243L34.7462 12.4864Z" fill="white"/>
</svg>
