<svg width="90" height="91" viewBox="0 0 90 91" fill="none" xmlns="http://www.w3.org/2000/svg">
<path d="M90 68.9727H84.7266V21.5117H90V5.69141H0V21.5117H5.27361V68.9727H0V84.793H90V68.9727ZM84.7266 16.2383H75.7617V10.9648H84.7266V16.2383ZM19.5117 16.2383V10.9648H28.3008V16.2383H19.5117ZM33.5742 10.9648H42.3633V16.2383H33.5742V10.9648ZM47.6367 10.9648H56.4258V16.2383H47.6367V10.9648ZM61.6992 10.9648H70.4883V16.2383H61.6992V10.9648ZM5.27344 10.9648H14.2383V16.2383H5.27344V10.9648ZM10.5469 21.5117H79.4533V68.9727H10.5469V21.5117ZM28.3008 74.2461V79.5195H19.5117V74.2461H28.3008ZM33.5742 74.2461H42.3633V79.5195H33.5742V74.2461ZM47.6367 74.2461H56.4258V79.5195H47.6367V74.2461ZM61.6992 74.2461H70.4883V79.5195H61.6992V74.2461ZM5.27344 74.2461H14.2383V79.5195H5.27344V74.2461ZM84.7266 79.5195H75.7617V74.2461H84.7266V79.5195Z" fill="white"/>
<path d="M37.0898 29.7684V60.7158L60.3004 45.2421L37.0898 29.7684ZM42.3633 39.622L50.7934 45.2421L42.3633 50.8622V39.622Z" fill="white"/>
</svg>
