<svg width="90" height="91" viewBox="0 0 90 91" fill="none" xmlns="http://www.w3.org/2000/svg">
<path d="M35.1562 62.1172H54.8438V64.9297H35.1562V62.1172Z" fill="white"/>
<path d="M29.5312 62.1172H32.3438V64.9297H29.5312V62.1172Z" fill="white"/>
<path d="M85.7812 8.67969H66.0938V7.27344C66.0904 6.15558 65.6449 5.08447 64.8544 4.29402C64.064 3.50357 62.9929 3.05803 61.875 3.05469H28.125C27.0071 3.05803 25.936 3.50357 25.1456 4.29402C24.3551 5.08447 23.9096 6.15558 23.9062 7.27344V12.8984H4.21875C3.84579 12.8984 3.4881 13.0466 3.22438 13.3103C2.96066 13.574 2.8125 13.9317 2.8125 14.3047V31.1797C2.8125 31.5526 2.96066 31.9103 3.22438 32.1741C3.4881 32.4378 3.84579 32.5859 4.21875 32.5859H23.9062V35.3984C22.0414 35.3984 20.253 36.1392 18.9344 37.4578C17.6158 38.7765 16.875 40.5649 16.875 42.4297V48.1813L19.6875 77.6422V86.0234C19.6875 86.3964 19.8357 86.7541 20.0994 87.0178C20.3631 87.2815 20.7208 87.4297 21.0938 87.4297H52.0312C52.4042 87.4297 52.7619 87.2815 53.0256 87.0178C53.2893 86.7541 53.4375 86.3964 53.4375 86.0234V78.0359L58.6688 70.5547H61.875C62.9929 70.5513 64.064 70.1058 64.8544 69.3154C65.6449 68.5249 66.0904 67.4538 66.0938 66.3359V64.9297H67.5C68.6448 64.9338 69.7633 64.5872 70.7052 63.9365C71.6471 63.2859 72.3671 62.3623 72.7684 61.2902C73.1697 60.2181 73.233 59.0487 72.9498 57.9395C72.6666 56.8303 72.0505 55.8345 71.1844 55.0859C71.793 54.5643 72.2816 53.9172 72.6165 53.189C72.9515 52.4608 73.1249 51.6687 73.1249 50.8672C73.1249 50.0656 72.9515 49.2736 72.6165 48.5454C72.2816 47.8172 71.793 47.17 71.1844 46.6484C71.793 46.1268 72.2816 45.4797 72.6165 44.7515C72.9515 44.0233 73.1249 43.2312 73.1249 42.4297C73.1249 41.6281 72.9515 40.8361 72.6165 40.1079C72.2816 39.3797 71.793 38.7325 71.1844 38.2109C72.0505 37.4624 72.6666 36.4665 72.9498 35.3573C73.233 34.2481 73.1697 33.0788 72.7684 32.0067C72.3671 30.9345 71.6471 30.011 70.7052 29.3604C69.7633 28.7097 68.6448 28.3631 67.5 28.3672H66.0938V25.5547H85.7812C86.1542 25.5547 86.5119 25.4065 86.7756 25.1428C87.0393 24.8791 87.1875 24.5214 87.1875 24.1484V10.0859C87.1875 9.71298 87.0393 9.35529 86.7756 9.09157C86.5119 8.82785 86.1542 8.67969 85.7812 8.67969V8.67969ZM55.8563 5.86719L55.4203 7.61094C55.3449 7.91582 55.1697 8.18669 54.9225 8.38039C54.6752 8.57408 54.3703 8.67944 54.0562 8.67969H35.9437C35.6297 8.67944 35.3248 8.57408 35.0775 8.38039C34.8303 8.18669 34.6551 7.91582 34.5797 7.61094L34.1438 5.86719H55.8563ZM5.625 29.7734V15.7109H30.9375V29.7734H5.625ZM50.625 84.6172H22.5V78.9922H50.625V84.6172ZM51.3 76.1797H22.3734L19.6875 48.0547V42.4297C19.6908 41.3118 20.1364 40.2407 20.9268 39.4503C21.7173 38.6598 22.7884 38.2143 23.9062 38.2109H33.75C34.8689 38.2109 35.9419 38.6554 36.7331 39.4466C37.5243 40.2377 37.9687 41.3108 37.9688 42.4297C37.9687 43.5486 37.5243 44.6216 36.7331 45.4128C35.9419 46.204 34.8689 46.6484 33.75 46.6484H25.3125C24.9395 46.6484 24.5819 46.7966 24.3181 47.0603C24.0544 47.324 23.9062 47.6817 23.9062 48.0547V66.3359C23.9096 67.4538 24.3551 68.5249 25.1456 69.3154C25.936 70.1058 27.0071 70.5513 28.125 70.5547H55.2375L51.3 76.1797ZM63.2812 66.3359C63.2812 66.7089 63.1331 67.0666 62.8694 67.3303C62.6056 67.594 62.248 67.7422 61.875 67.7422H28.125C27.752 67.7422 27.3944 67.594 27.1306 67.3303C26.8669 67.0666 26.7188 66.7089 26.7188 66.3359V49.4609H33.75C35.6148 49.4609 37.4032 48.7201 38.7218 47.4015C40.0405 46.0829 40.7812 44.2945 40.7812 42.4297C40.7812 40.5649 40.0405 38.7765 38.7218 37.4578C37.4032 36.1392 35.6148 35.3984 33.75 35.3984H26.7188V32.5859H32.3438C32.7167 32.5859 33.0744 32.4378 33.3381 32.1741C33.6018 31.9103 33.75 31.5526 33.75 31.1797V14.3047C33.75 13.9317 33.6018 13.574 33.3381 13.3103C33.0744 13.0466 32.7167 12.8984 32.3438 12.8984H26.7188V7.27344C26.7188 6.90048 26.8669 6.54279 27.1306 6.27907C27.3944 6.01535 27.752 5.86719 28.125 5.86719H31.2469L31.8516 8.3C32.0804 9.21203 32.6073 10.0215 33.3487 10.5998C34.0901 11.1782 35.0035 11.4922 35.9437 11.4922H54.0562C54.9965 11.4922 55.9099 11.1782 56.6513 10.5998C57.3927 10.0215 57.9196 9.21203 58.1484 8.3L58.7531 5.86719H61.875C62.248 5.86719 62.6056 6.01535 62.8694 6.27907C63.1331 6.54279 63.2812 6.90048 63.2812 7.27344V8.67969H60.4688C60.0958 8.67969 59.7381 8.82785 59.4744 9.09157C59.2107 9.35529 59.0625 9.71298 59.0625 10.0859V24.1484C59.0625 24.5214 59.2107 24.8791 59.4744 25.1428C59.7381 25.4065 60.0958 25.5547 60.4688 25.5547H63.2812V28.3672H61.875C60.7302 28.3631 59.6117 28.7097 58.6698 29.3604C57.7279 30.011 57.0079 30.9345 56.6066 32.0067C56.2053 33.0788 56.142 34.2481 56.4252 35.3573C56.7084 36.4665 57.3245 37.4624 58.1906 38.2109C57.582 38.7325 57.0934 39.3797 56.7585 40.1079C56.4235 40.8361 56.2501 41.6281 56.2501 42.4297C56.2501 43.2312 56.4235 44.0233 56.7585 44.7515C57.0934 45.4797 57.582 46.1268 58.1906 46.6484C57.582 47.17 57.0934 47.8172 56.7585 48.5454C56.4235 49.2736 56.2501 50.0656 56.2501 50.8672C56.2501 51.6687 56.4235 52.4608 56.7585 53.189C57.0934 53.9172 57.582 54.5643 58.1906 55.0859C57.3245 55.8345 56.7084 56.8303 56.4252 57.9395C56.142 59.0487 56.2053 60.2181 56.6066 61.2902C57.0079 62.3623 57.7279 63.2859 58.6698 63.9365C59.6117 64.5872 60.7302 64.9338 61.875 64.9297H63.2812V66.3359ZM67.5 62.1172H61.875C61.1291 62.1172 60.4137 61.8209 59.8863 61.2934C59.3588 60.766 59.0625 60.0506 59.0625 59.3047C59.0625 58.5588 59.3588 57.8434 59.8863 57.3159C60.4137 56.7885 61.1291 56.4922 61.875 56.4922H67.5C68.2459 56.4922 68.9613 56.7885 69.4887 57.3159C70.0162 57.8434 70.3125 58.5588 70.3125 59.3047C70.3125 60.0506 70.0162 60.766 69.4887 61.2934C68.9613 61.8209 68.2459 62.1172 67.5 62.1172ZM67.5 53.6797H61.875C61.1291 53.6797 60.4137 53.3834 59.8863 52.8559C59.3588 52.3285 59.0625 51.6131 59.0625 50.8672C59.0625 50.1213 59.3588 49.4059 59.8863 48.8784C60.4137 48.351 61.1291 48.0547 61.875 48.0547H67.5C68.2459 48.0547 68.9613 48.351 69.4887 48.8784C70.0162 49.4059 70.3125 50.1213 70.3125 50.8672C70.3125 51.6131 70.0162 52.3285 69.4887 52.8559C68.9613 53.3834 68.2459 53.6797 67.5 53.6797ZM67.5 45.2422H61.875C61.1291 45.2422 60.4137 44.9459 59.8863 44.4184C59.3588 43.891 59.0625 43.1756 59.0625 42.4297C59.0625 41.6838 59.3588 40.9684 59.8863 40.441C60.4137 39.9135 61.1291 39.6172 61.875 39.6172H67.5C68.2459 39.6172 68.9613 39.9135 69.4887 40.441C70.0162 40.9684 70.3125 41.6838 70.3125 42.4297C70.3125 43.1756 70.0162 43.891 69.4887 44.4184C68.9613 44.9459 68.2459 45.2422 67.5 45.2422ZM67.5 31.1797C68.2459 31.1797 68.9613 31.476 69.4887 32.0035C70.0162 32.5309 70.3125 33.2463 70.3125 33.9922C70.3125 34.7381 70.0162 35.4535 69.4887 35.9809C68.9613 36.5084 68.2459 36.8047 67.5 36.8047H61.875C61.1291 36.8047 60.4137 36.5084 59.8863 35.9809C59.3588 35.4535 59.0625 34.7381 59.0625 33.9922C59.0625 33.2463 59.3588 32.5309 59.8863 32.0035C60.4137 31.476 61.1291 31.1797 61.875 31.1797H67.5ZM84.375 22.7422H61.875V11.4922H84.375V22.7422Z" fill="white"/>
<path d="M8.4375 18.5234H11.25V21.3359H8.4375V18.5234Z" fill="white"/>
<path d="M14.0625 18.5234H28.125V21.3359H14.0625V18.5234Z" fill="white"/>
<path d="M8.4375 24.1484H28.125V26.9609H8.4375V24.1484Z" fill="white"/>
<path d="M64.6875 15.7109H70.3125V18.5234H64.6875V15.7109Z" fill="white"/>
<path d="M73.125 15.7109H81.5625V18.5234H73.125V15.7109Z" fill="white"/>
</svg>
