<svg width="90" height="91" viewBox="0 0 90 91" fill="none" xmlns="http://www.w3.org/2000/svg">
<path d="M0 66.8452C0 69.6066 2.23858 71.8452 5 71.8452H37.0898V74.4819C37.0898 78.8436 33.5413 82.3921 29.1797 82.3921C27.5398 82.3921 25.6875 82.3921 23.9062 82.3921C22.45 82.3921 21.2695 83.5726 21.2695 85.0288V85.0288C21.2695 86.485 22.45 87.6655 23.9063 87.6655H66.0937C67.55 87.6655 68.7305 86.485 68.7305 85.0288V85.0288C68.7305 83.5726 67.55 82.3921 66.0938 82.3921C64.3125 82.3921 62.4602 82.3921 60.8203 82.3921C56.4587 82.3921 52.9102 78.8436 52.9102 74.4819V71.8452H85C87.7614 71.8452 90 69.6066 90 66.8452V8.29053C90 5.5291 87.7614 3.29053 85 3.29053H5C2.23858 3.29053 0 5.5291 0 8.29053V66.8452ZM50.2806 82.3921H39.7194C41.3784 80.1871 42.3633 77.4475 42.3633 74.4819V71.8452H47.6367V74.4819C47.6367 77.4475 48.6216 80.1871 50.2806 82.3921ZM5.27344 8.56396H84.7266V66.5718C74.0899 66.5718 15.8017 66.5718 5.27344 66.5718V8.56396Z" fill="white"/>
<path d="M36.4447 48.5616L40.3664 52.4834L44.0953 48.7546L40.1736 44.8327C41.0908 43.4495 41.7556 41.8852 42.098 40.2044H47.6367V34.931H42.098C41.7556 33.2502 41.0906 31.6861 40.1736 30.3027L44.0953 26.3808L40.3664 22.652L36.4447 26.5738C35.0615 25.6568 33.4972 24.9918 31.8164 24.6494V19.1108H26.543V24.6495C24.8621 24.9921 23.298 25.6569 21.9146 26.574L17.993 22.6521L14.2641 26.3812L18.1858 30.303C17.2688 31.6862 16.6038 33.2505 16.2613 34.9313H10.5469V40.2048H16.2613C16.6038 41.8856 17.2688 43.4497 18.1858 44.8331L14.2641 48.7549L17.993 52.4838L21.9146 48.5619C23.2979 49.479 24.8621 50.144 26.543 50.4864V56.0249H31.8164V50.4862C33.4972 50.1436 35.0613 49.4788 36.4447 48.5616V48.5616ZM29.1797 45.478C24.818 45.478 21.2695 41.9295 21.2695 37.5679C21.2695 33.2062 24.818 29.6577 29.1797 29.6577C33.5413 29.6577 37.0898 33.2062 37.0898 37.5679C37.0898 41.9295 33.5413 45.478 29.1797 45.478Z" fill="white"/>
<path d="M26.543 34.9312H31.8164V40.2046H26.543V34.9312Z" fill="white"/>
<path d="M58.1836 29.6577H63.457V24.3843H79.2773V19.1108H63.457V13.8374H58.1836V19.1108H52.9102V24.3843H58.1836V29.6577Z" fill="white"/>
<path d="M68.7305 45.478H74.0039V40.2046H79.2773V34.9312H74.0039V29.6577H68.7305V34.9312H52.9102V40.2046H68.7305V45.478Z" fill="white"/>
<path d="M58.1836 61.2983H63.457V56.0249H79.2773V50.7515H63.457V45.478H58.1836V50.7515H52.9102V56.0249H58.1836V61.2983Z" fill="white"/>
</svg>
