<svg width="90" height="91" viewBox="0 0 90 91" fill="none" xmlns="http://www.w3.org/2000/svg">
<g clip-path="url(#clip0)">
<path d="M89.9517 57.1753C89.7275 52.0187 88.8307 46.3017 87.4855 40.9209C86.1403 35.7644 84.4588 30.9441 82.441 27.2449C74.5941 13.4567 66.0746 15.5866 55.8736 18.2769C52.6227 19.0616 49.1477 19.9584 45.5605 20.2947H44.4395C40.8524 19.9584 37.3773 19.0616 34.1264 18.2769C23.9254 15.6987 15.4059 13.4567 7.559 27.357C5.54122 31.0562 3.74764 35.8765 2.51455 41.033C1.16936 46.4138 0.272572 52.1308 0.0483743 57.2874C-0.175823 63.0044 0.384671 67.1521 1.61776 70.0666C2.85085 72.757 4.64443 74.4385 6.9985 75.1111C9.12838 75.6716 11.5946 75.4474 14.1728 74.3264C18.5447 72.5328 23.5891 68.7214 28.5215 64.1254C31.9965 60.7624 38.4983 59.0809 45 59.0809C51.5018 59.0809 58.0035 60.7624 61.4786 64.1254C66.4109 68.7214 71.4553 72.5328 75.8272 74.3264C78.4055 75.3353 80.8717 75.6716 83.0015 75.1111C85.2435 74.4385 87.1492 72.8691 88.3823 69.9545C89.6154 67.1521 90.1759 63.0044 89.9517 57.1753ZM84.5709 68.3852C83.8983 69.9545 83.0015 70.8513 81.8805 71.1876C80.6475 71.5239 79.0781 71.2997 77.2845 70.6271C73.361 69.0577 68.765 65.5827 64.281 61.3229C60.0213 57.0632 52.5106 54.9333 45 54.9333C37.4894 54.9333 29.9788 57.0632 25.6069 61.0987C21.0109 65.3585 16.4148 68.9456 12.6034 70.4029C10.8099 71.0755 9.24048 71.4118 8.00739 70.9634C6.8864 70.6271 5.98961 69.7303 5.31702 68.161C4.42023 66.0311 3.97183 62.556 4.19603 57.3995C4.42023 52.5792 5.20492 47.0864 6.55011 41.9298C7.7832 37.1096 9.35258 32.6256 11.2583 29.2626C17.4237 18.1648 24.598 19.9584 33.1175 22.2004C36.5926 23.0972 40.1798 23.994 44.1032 24.3303C44.2153 24.3303 44.2153 24.3303 44.3274 24.3303H45.5605C45.6726 24.3303 45.6726 24.3303 45.7847 24.3303C49.8203 23.994 53.4074 23.0972 56.8825 22.2004C65.402 20.0705 72.5763 18.1648 78.7418 29.2626C80.6475 32.6256 82.2168 36.9975 83.4499 41.9298C84.683 47.0864 85.5798 52.4671 85.804 57.3995C86.0282 62.556 85.5798 66.0311 84.5709 68.3852Z" fill="white"/>
<path d="M34.69 35.3159C33.569 34.307 32.2239 33.5223 30.6545 33.4102C30.5424 31.953 29.8698 30.4957 28.8609 29.4868L28.7488 29.3747C27.5157 28.1416 25.9463 27.469 24.1527 27.469C22.3592 27.469 20.6777 28.2537 19.5567 29.3747C18.5478 30.3836 17.7631 31.8409 17.651 33.4102C16.0816 33.5223 14.7364 34.1949 13.6154 35.2038L13.5033 35.3159C12.2702 36.549 11.5977 38.1184 11.5977 39.912C11.5977 41.7056 12.3823 43.387 13.5033 44.508C14.6243 45.629 15.9695 46.3016 17.651 46.4137C17.7631 47.9831 18.4357 49.4404 19.5567 50.4493C20.7898 51.6824 22.3592 52.355 24.1527 52.355C25.9463 52.355 27.6278 51.5703 28.7488 50.4493C29.7577 49.3283 30.5424 47.9831 30.6545 46.4137C32.2239 46.3016 33.6811 45.629 34.69 44.508C35.9231 43.2749 36.5957 41.7056 36.5957 39.912C36.5957 38.1184 35.811 36.4369 34.69 35.3159ZM31.8876 41.5935C31.4392 42.0419 30.8787 42.2661 30.2061 42.2661H28.6367C27.5157 42.2661 26.5068 43.1628 26.5068 44.3959V45.8532C26.5068 46.5258 26.2826 47.0863 25.8342 47.5347C25.3858 47.9831 24.8253 48.2073 24.1527 48.2073C23.4801 48.2073 22.9196 47.9831 22.4713 47.5347C22.0229 47.0863 21.7987 46.5258 21.7987 45.8532V44.2838C21.7987 43.1628 20.9019 42.154 19.6688 42.154H18.0994C17.4268 42.154 16.8663 41.9298 16.4179 41.4814C16.0816 41.1451 15.7453 40.5846 15.7453 39.912C15.7453 39.2394 15.9695 38.6789 16.4179 38.2305C16.4179 38.2305 16.4179 38.2305 16.53 38.1184C16.9784 37.7821 17.5389 37.5579 18.0994 37.5579H19.6688C20.7898 37.5579 21.7987 36.6611 21.7987 35.428V33.8586C21.7987 33.186 22.0229 32.6255 22.4713 32.1771C22.9196 31.7288 23.4801 31.5046 24.1527 31.5046C24.8253 31.5046 25.3858 31.7288 25.8342 32.1771C25.8342 32.1771 25.8342 32.1771 25.9463 32.2892C26.2826 32.7376 26.5068 33.2981 26.5068 33.8586V35.428C26.5068 36.549 27.4036 37.5579 28.6367 37.5579H30.2061C30.8787 37.5579 31.4392 37.7821 31.8876 38.2305C32.336 38.6789 32.5602 39.2394 32.5602 39.912C32.5602 40.5846 32.336 41.1451 31.8876 41.5935Z" fill="white"/>
<path d="M64.5055 35.8765C66.6724 35.8765 68.429 34.1199 68.429 31.953C68.429 29.7861 66.6724 28.0295 64.5055 28.0295C62.3386 28.0295 60.582 29.7861 60.582 31.953C60.582 34.1199 62.3386 35.8765 64.5055 35.8765Z" fill="white"/>
<path d="M64.5055 51.7944C66.6724 51.7944 68.429 50.0378 68.429 47.871C68.429 45.7041 66.6724 43.9475 64.5055 43.9475C62.3386 43.9475 60.582 45.7041 60.582 47.871C60.582 50.0378 62.3386 51.7944 64.5055 51.7944Z" fill="white"/>
<path d="M56.5446 43.8352C58.7114 43.8352 60.468 42.0786 60.468 39.9117C60.468 37.7449 58.7114 35.9883 56.5446 35.9883C54.3777 35.9883 52.6211 37.7449 52.6211 39.9117C52.6211 42.0786 54.3777 43.8352 56.5446 43.8352Z" fill="white"/>
<path d="M72.4635 43.8352C74.6304 43.8352 76.3869 42.0786 76.3869 39.9117C76.3869 37.7449 74.6304 35.9883 72.4635 35.9883C70.2966 35.9883 68.54 37.7449 68.54 39.9117C68.54 42.0786 70.2966 43.8352 72.4635 43.8352Z" fill="white"/>
</g>
<defs>
<clipPath id="clip0">
<rect width="90" height="90" fill="white" transform="translate(0 0.85083)"/>
</clipPath>
</defs>
</svg>
