<svg width="90" height="91" viewBox="0 0 90 91" fill="none" xmlns="http://www.w3.org/2000/svg">
<path d="M82.9688 10.0859H7.03125C5.54001 10.0879 4.1104 10.6812 3.05593 11.7356C2.00146 12.7901 1.4082 14.2197 1.40625 15.7109V63.5234C1.4082 65.0147 2.00146 66.4443 3.05593 67.4988C4.1104 68.5532 5.54001 69.1465 7.03125 69.1484H36.0176L34.142 74.7734H29.5312C29.1583 74.7734 28.8006 74.9216 28.5369 75.1853C28.2732 75.449 28.125 75.8067 28.125 76.1797V78.9922H15.4688C15.0958 78.9922 14.7381 79.1403 14.4744 79.4041C14.2107 79.6678 14.0625 80.0255 14.0625 80.3984C14.0625 80.7714 14.2107 81.1291 14.4744 81.3928C14.7381 81.6565 15.0958 81.8047 15.4688 81.8047H77.3438C77.7167 81.8047 78.0744 81.6565 78.3381 81.3928C78.6018 81.1291 78.75 80.7714 78.75 80.3984C78.75 80.0255 78.6018 79.6678 78.3381 79.4041C78.0744 79.1403 77.7167 78.9922 77.3438 78.9922H61.875V76.1797C61.875 75.8067 61.7268 75.449 61.4631 75.1853C61.1994 74.9216 60.8417 74.7734 60.4688 74.7734H55.858L53.9824 69.1484H82.9688C84.46 69.1465 85.8896 68.5532 86.9441 67.4988C87.9985 66.4443 88.5918 65.0147 88.5938 63.5234V15.7109C88.5918 14.2197 87.9985 12.7901 86.9441 11.7356C85.8896 10.6812 84.46 10.0879 82.9688 10.0859ZM59.0625 77.5859V78.9922H30.9375V77.5859H59.0625ZM37.1074 74.7734L38.983 69.1484H51.017L52.8926 74.7734H37.1074ZM85.7812 63.5234C85.7803 64.2691 85.4836 64.9839 84.9564 65.5111C84.4292 66.0383 83.7144 66.335 82.9688 66.3359H7.03125C6.28563 66.335 5.57083 66.0383 5.04359 65.5111C4.51636 64.9839 4.21973 64.2691 4.21875 63.5234V60.7109H85.7812V63.5234ZM25.2527 45.2422L24.7254 57.8984H23.0871L22.5598 45.2422H25.2527ZM22.7531 42.4297L23.6918 36.8047H24.1207L25.0594 42.4297H22.7531ZM23.9062 33.9922C22.3822 33.9922 21.0938 32.0604 21.0938 29.7734C21.0938 28.3303 22.5668 26.2332 23.9027 24.7549C25.1068 26.0908 26.7188 28.2266 26.7188 29.7734C26.7188 32.0604 25.4303 33.9922 23.9062 33.9922ZM39.2098 31.1797L39.375 31.5119V32.5859H33.75V31.5119L33.9152 31.1797H39.2098ZM35.3215 28.3672L36.5625 25.8869L37.8035 28.3672H35.3215ZM39.375 35.3984V57.7227C39.3755 57.7814 39.3796 57.8401 39.3873 57.8984H33.7377C33.7454 57.8401 33.7495 57.7814 33.75 57.7227V35.3984H39.375ZM52.0312 29.7734H56.25V32.5859H54.8438C54.4708 32.5859 54.1131 32.7341 53.8494 32.9978C53.5857 33.2615 53.4375 33.6192 53.4375 33.9922C53.4375 34.3651 53.5857 34.7228 53.8494 34.9866C54.1131 35.2503 54.4708 35.3984 54.8438 35.3984H56.25V38.2109H52.0312C51.6583 38.2109 51.3006 38.3591 51.0369 38.6228C50.7732 38.8865 50.625 39.2442 50.625 39.6172C50.625 39.9901 50.7732 40.3478 51.0369 40.6116C51.3006 40.8753 51.6583 41.0234 52.0312 41.0234H56.25V43.8359H54.8438C54.4708 43.8359 54.1131 43.9841 53.8494 44.2478C53.5857 44.5115 53.4375 44.8692 53.4375 45.2422C53.4375 45.6151 53.5857 45.9728 53.8494 46.2366C54.1131 46.5003 54.4708 46.6484 54.8438 46.6484H56.25V49.4609H52.0312C51.6583 49.4609 51.3006 49.6091 51.0369 49.8728C50.7732 50.1365 50.625 50.4942 50.625 50.8672C50.625 51.2401 50.7732 51.5978 51.0369 51.8616C51.3006 52.1253 51.6583 52.2734 52.0312 52.2734H56.25V57.8984H46.4062V24.1484H56.25V26.9609H52.0312C51.6583 26.9609 51.3006 27.1091 51.0369 27.3728C50.7732 27.6365 50.625 27.9942 50.625 28.3672C50.625 28.7401 50.7732 29.0978 51.0369 29.3616C51.3006 29.6253 51.6583 29.7734 52.0312 29.7734ZM68.9062 46.6484V57.7227C68.9068 57.7814 68.9109 57.8401 68.9186 57.8984H63.2689C63.2766 57.8401 63.2807 57.7814 63.2812 57.7227V46.6484H68.9062ZM63.2812 43.8359V42.7619L66.0938 37.1369L68.9062 42.7619V43.8359H63.2812ZM85.7812 57.8984H71.7064C71.7141 57.8401 71.7182 57.7814 71.7188 57.7227V42.4297C71.7185 42.2114 71.668 41.996 71.5711 41.8004L67.3523 33.3629C67.2353 33.1294 67.0556 32.933 66.8333 32.7958C66.611 32.6586 66.355 32.5859 66.0938 32.5859C65.8325 32.5859 65.5765 32.6586 65.3542 32.7958C65.1319 32.933 64.9522 33.1294 64.8352 33.3629L60.6164 41.8004C60.5195 41.996 60.469 42.2114 60.4688 42.4297V57.7227C60.4693 57.7814 60.4734 57.8401 60.4811 57.8984H59.0625V22.7422C59.0625 22.3692 58.9143 22.0115 58.6506 21.7478C58.3869 21.4841 58.0292 21.3359 57.6562 21.3359H45C44.627 21.3359 44.2694 21.4841 44.0056 21.7478C43.7419 22.0115 43.5938 22.3692 43.5938 22.7422V57.8984H42.1752C42.1829 57.8401 42.187 57.7814 42.1875 57.7227V31.1797C42.1873 30.9614 42.1368 30.746 42.0398 30.5504L37.8211 22.1129C37.704 21.8794 37.5243 21.683 37.3021 21.5458C37.0798 21.4086 36.8237 21.3359 36.5625 21.3359C36.3013 21.3359 36.0452 21.4086 35.8229 21.5458C35.6007 21.683 35.421 21.8794 35.3039 22.1129L31.0852 30.5504C30.9882 30.746 30.9377 30.9614 30.9375 31.1797V57.7227C30.938 57.7814 30.9421 57.8401 30.9498 57.8984H27.5396L28.1232 43.8939C28.125 43.8623 28.1232 43.8307 28.1232 43.7973V43.7551C28.12 43.7056 28.1141 43.6563 28.1057 43.6074V43.6039L26.8049 35.7975C28.4379 34.5652 29.5312 32.3258 29.5312 29.7734C29.5312 26.1594 25.3424 22.1568 24.8643 21.7121C24.6037 21.4706 24.2615 21.3364 23.9062 21.3364C23.551 21.3364 23.2088 21.4706 22.9482 21.7121C22.4701 22.1568 18.2812 26.1594 18.2812 29.7734C18.2812 32.3258 19.3746 34.5652 21.0076 35.7975L19.7068 43.6039V43.6074C19.6984 43.6563 19.6925 43.7056 19.6893 43.7551V43.7973C19.6893 43.8307 19.6875 43.8623 19.6893 43.8939L20.2729 57.8984H4.21875V15.7109C4.21973 14.9653 4.51636 14.2505 5.04359 13.7233C5.57083 13.196 6.28563 12.8994 7.03125 12.8984H82.9688C83.7144 12.8994 84.4292 13.196 84.9564 13.7233C85.4836 14.2505 85.7803 14.9653 85.7812 15.7109V57.8984Z" fill="white"/>
<path d="M16.875 62.1172H8.4375C8.06454 62.1172 7.70685 62.2653 7.44313 62.5291C7.17941 62.7928 7.03125 63.1505 7.03125 63.5234C7.03125 63.8964 7.17941 64.2541 7.44313 64.5178C7.70685 64.7815 8.06454 64.9297 8.4375 64.9297H16.875C17.248 64.9297 17.6056 64.7815 17.8694 64.5178C18.1331 64.2541 18.2812 63.8964 18.2812 63.5234C18.2812 63.1505 18.1331 62.7928 17.8694 62.5291C17.6056 62.2653 17.248 62.1172 16.875 62.1172Z" fill="white"/>
<path d="M22.5 62.1172H21.0938C20.7208 62.1172 20.3631 62.2653 20.0994 62.5291C19.8357 62.7928 19.6875 63.1505 19.6875 63.5234C19.6875 63.8964 19.8357 64.2541 20.0994 64.5178C20.3631 64.7815 20.7208 64.9297 21.0938 64.9297H22.5C22.873 64.9297 23.2306 64.7815 23.4944 64.5178C23.7581 64.2541 23.9062 63.8964 23.9062 63.5234C23.9062 63.1505 23.7581 62.7928 23.4944 62.5291C23.2306 62.2653 22.873 62.1172 22.5 62.1172Z" fill="white"/>
<path d="M36.5625 36.8047C36.1895 36.8047 35.8319 36.9528 35.5681 37.2166C35.3044 37.4803 35.1562 37.838 35.1562 38.2109V53.6797C35.1562 54.0526 35.3044 54.4103 35.5681 54.6741C35.8319 54.9378 36.1895 55.0859 36.5625 55.0859C36.9355 55.0859 37.2931 54.9378 37.5569 54.6741C37.8206 54.4103 37.9688 54.0526 37.9688 53.6797V38.2109C37.9688 37.838 37.8206 37.4803 37.5569 37.2166C37.2931 36.9528 36.9355 36.8047 36.5625 36.8047Z" fill="white"/>
<path d="M66.0938 48.0547C65.7208 48.0547 65.3631 48.2028 65.0994 48.4666C64.8357 48.7303 64.6875 49.088 64.6875 49.4609V53.6797C64.6875 54.0526 64.8357 54.4103 65.0994 54.6741C65.3631 54.9378 65.7208 55.0859 66.0938 55.0859C66.4667 55.0859 66.8244 54.9378 67.0881 54.6741C67.3518 54.4103 67.5 54.0526 67.5 53.6797V49.4609C67.5 49.088 67.3518 48.7303 67.0881 48.4666C66.8244 48.2028 66.4667 48.0547 66.0938 48.0547Z" fill="white"/>
<path d="M8.4375 18.5234H19.6875C20.0605 18.5234 20.4181 18.3753 20.6819 18.1116C20.9456 17.8478 21.0938 17.4901 21.0938 17.1172C21.0938 16.7442 20.9456 16.3865 20.6819 16.1228C20.4181 15.8591 20.0605 15.7109 19.6875 15.7109H8.4375C8.06454 15.7109 7.70685 15.8591 7.44313 16.1228C7.17941 16.3865 7.03125 16.7442 7.03125 17.1172C7.03125 17.4901 7.17941 17.8478 7.44313 18.1116C7.70685 18.3753 8.06454 18.5234 8.4375 18.5234Z" fill="white"/>
<path d="M8.4375 22.7422H11.25C11.623 22.7422 11.9806 22.594 12.2444 22.3303C12.5081 22.0666 12.6562 21.7089 12.6562 21.3359C12.6562 20.963 12.5081 20.6053 12.2444 20.3416C11.9806 20.0778 11.623 19.9297 11.25 19.9297H8.4375C8.06454 19.9297 7.70685 20.0778 7.44313 20.3416C7.17941 20.6053 7.03125 20.963 7.03125 21.3359C7.03125 21.7089 7.17941 22.0666 7.44313 22.3303C7.70685 22.594 8.06454 22.7422 8.4375 22.7422Z" fill="white"/>
<path d="M75.9375 55.0859H81.5625C81.9355 55.0859 82.2931 54.9378 82.5569 54.6741C82.8206 54.4103 82.9688 54.0526 82.9688 53.6797C82.9688 53.3067 82.8206 52.949 82.5569 52.6853C82.2931 52.4216 81.9355 52.2734 81.5625 52.2734H75.9375C75.5645 52.2734 75.2069 52.4216 74.9431 52.6853C74.6794 52.949 74.5312 53.3067 74.5312 53.6797C74.5312 54.0526 74.6794 54.4103 74.9431 54.6741C75.2069 54.9378 75.5645 55.0859 75.9375 55.0859Z" fill="white"/>
<path d="M80.1562 50.8672H81.5625C81.9355 50.8672 82.2931 50.719 82.5569 50.4553C82.8206 50.1916 82.9688 49.8339 82.9688 49.4609C82.9688 49.088 82.8206 48.7303 82.5569 48.4666C82.2931 48.2028 81.9355 48.0547 81.5625 48.0547H80.1562C79.7833 48.0547 79.4256 48.2028 79.1619 48.4666C78.8982 48.7303 78.75 49.088 78.75 49.4609C78.75 49.8339 78.8982 50.1916 79.1619 50.4553C79.4256 50.719 79.7833 50.8672 80.1562 50.8672Z" fill="white"/>
</svg>
