<svg width="90" height="91" viewBox="0 0 90 91" fill="none" xmlns="http://www.w3.org/2000/svg">
<path d="M51 33.8481H39C38.1716 33.8481 37.5 34.5198 37.5 35.3481V77.3481C37.5 78.1765 38.1716 78.8481 39 78.8481H51C51.8284 78.8481 52.5 78.1765 52.5 77.3481V35.3481C52.5 34.5196 51.8284 33.8481 51 33.8481ZM49.5 75.8481H40.5V36.8481H49.5V75.8481Z" fill="white"/>
<path d="M87 27.8481H75C74.1716 27.8481 73.5 28.5198 73.5 29.3481V77.3481C73.5 78.1765 74.1716 78.8481 75 78.8481H87C87.8284 78.8481 88.5 78.1765 88.5 77.3481V29.3481C88.5 28.5196 87.8284 27.8481 87 27.8481ZM85.5 75.8481H76.5V30.8481H85.5V75.8481Z" fill="white"/>
<path d="M69 60.8481H57C56.1716 60.8481 55.5 61.5198 55.5 62.3481V77.3481C55.5 78.1765 56.1716 78.8481 57 78.8481H69C69.8284 78.8481 70.5 78.1765 70.5 77.3481V62.3481C70.5 61.5196 69.8284 60.8481 69 60.8481ZM67.5 75.8481H58.5V63.8481H67.5V75.8481Z" fill="white"/>
<path d="M15 39.8481H3C2.17162 39.8481 1.5 40.5198 1.5 41.3481V77.3481C1.5 78.1765 2.17162 78.8481 3 78.8481H15C15.8284 78.8481 16.5 78.1765 16.5 77.3481V41.3481C16.5 40.5196 15.8284 39.8481 15 39.8481ZM13.5 75.8481H4.5V42.8481H13.5V75.8481Z" fill="white"/>
<path d="M33 48.8481H21C20.1716 48.8481 19.5 49.5198 19.5 50.3481V77.3481C19.5 78.1765 20.1716 78.8481 21 78.8481H33C33.8284 78.8481 34.5 78.1765 34.5 77.3481V50.3481C34.5 49.5196 33.8284 48.8481 33 48.8481ZM31.5 75.8481H22.5V51.8481H31.5V75.8481Z" fill="white"/>
<path d="M81.0884 2.26139C77.7507 2.23739 75.0256 4.92352 75.0016 8.2612C74.9894 9.94645 75.6815 11.5603 76.9109 12.713L64.4609 35.5475C63.3331 35.2353 62.1352 35.2906 61.0409 35.705L49.4592 18.3247C51.6783 15.8638 51.4822 12.0697 49.021 9.85083C46.5599 7.63195 42.766 7.82789 40.5472 10.289C38.9169 12.0973 38.5407 14.7114 39.5952 16.9059L30.4887 24.4852C27.9905 22.6629 24.5105 23.0707 22.5012 25.4212L14.8647 21.6022C15.5574 18.3616 13.4917 15.1732 10.2513 14.4808C7.01073 13.7881 3.8223 15.8536 3.12986 19.0942C2.43724 22.3348 4.50273 25.5232 7.7433 26.2156C8.15673 26.304 8.57842 26.3484 9.00123 26.3482C10.7309 26.3426 12.3729 25.5862 13.5012 24.2752L21.1377 28.0942C20.4172 31.3286 22.4551 34.5348 25.6895 35.2554C28.9239 35.976 32.1301 33.938 32.8507 30.7036C33.1437 29.3883 32.9855 28.0126 32.4012 26.7982L41.5077 19.2187C43.0773 20.3803 45.1263 20.6735 46.9587 19.9987L58.5372 37.3792C56.3242 39.8456 56.5297 43.6391 58.9962 45.8521C61.4626 48.0652 65.2561 47.8597 67.4692 45.3931C69.655 42.957 69.4852 39.2186 67.0874 36.9907L79.5374 14.1562C80.0155 14.2811 80.5074 14.3456 81.0014 14.3482C84.3391 14.3722 87.0642 11.6861 87.0882 8.34839C87.1122 5.0107 84.4259 2.28558 81.0884 2.26139ZM9.00123 23.3482C7.3443 23.3482 6.00123 22.0051 6.00123 20.3482C6.00123 18.6913 7.3443 17.3482 9.00123 17.3482C10.6582 17.3482 12.0012 18.6913 12.0012 20.3482C12.0012 22.0051 10.6582 23.3482 9.00123 23.3482ZM27.0012 32.3482C25.3443 32.3482 24.0012 31.0051 24.0012 29.3482C24.0012 27.6913 25.3443 26.3482 27.0012 26.3482C28.6582 26.3482 30.0012 27.6913 30.0012 29.3482C30.0012 31.0051 28.6582 32.3482 27.0012 32.3482ZM45.0012 17.3482C43.3443 17.3482 42.0012 16.0051 42.0012 14.3482C42.0012 12.6913 43.3443 11.3482 45.0012 11.3482C46.6582 11.3482 48.0012 12.6913 48.0012 14.3482C48.0012 16.0051 46.6582 17.3482 45.0012 17.3482ZM63.0012 44.3482C61.3443 44.3482 60.0012 43.0051 60.0012 41.3482C60.0012 39.6913 61.3443 38.3482 63.0012 38.3482C64.6582 38.3482 66.0012 39.6913 66.0012 41.3482C66.0012 43.0051 64.6582 44.3482 63.0012 44.3482ZM81.0012 11.3482C79.3443 11.3482 78.0012 10.0051 78.0012 8.3482C78.0012 6.69126 79.3443 5.3482 81.0012 5.3482C82.6582 5.3482 84.0012 6.69126 84.0012 8.3482C84.0012 10.0051 82.6582 11.3482 81.0012 11.3482Z" fill="white"/>
<path d="M88.5 80.3481H1.5C0.671625 80.3481 0 81.0198 0 81.8481V87.8481C0 88.6765 0.671625 89.3481 1.5 89.3481H88.5C89.3284 89.3481 90 88.6765 90 87.8481V81.8481C90 81.0196 89.3284 80.3481 88.5 80.3481ZM87 86.3481H3V83.3481H87V86.3481Z" fill="white"/>
</svg>
