<svg width="90" height="91" viewBox="0 0 90 91" fill="none" xmlns="http://www.w3.org/2000/svg">
<g clip-path="url(#clip0)">
<path d="M0.00488281 11.3698V26.6158C2.91166 26.6158 5.27778 28.9813 5.27778 31.8887V37.1616H7.91424C9.36797 37.1616 10.5507 38.3444 10.5507 39.7981V71.787C10.5507 73.2408 9.36797 74.4235 7.91424 74.4235H5.27778V84.9693H0.00488281V90.2422H89.9957V84.9693H84.7228V74.4235H82.0864C80.6327 74.4235 79.4499 73.2408 79.4499 71.787V39.7981C79.4499 38.3444 80.6327 37.1616 82.0864 37.1616H84.7228V31.8887C84.7228 28.9813 87.0883 26.6158 89.9957 26.6158V11.3698L45.0003 0.242188L0.00488281 11.3698ZM15.3701 37.1599H21.55C21.2573 37.9869 21.0965 38.8739 21.0965 39.7981V71.787C21.0965 72.7112 21.2573 73.5983 21.55 74.4235H15.3701C15.6628 73.5983 15.8236 72.7112 15.8236 71.787V39.7981C15.8236 38.8739 15.6628 37.9869 15.3701 37.1599V37.1599ZM63.6312 39.7981V71.787C63.6312 73.2408 62.4485 74.4235 60.9948 74.4235H47.6368V68.5213C50.7054 67.433 52.9097 64.5025 52.9097 61.0655C52.9097 56.7042 49.3615 53.1561 45.0003 53.1561C43.5466 53.1561 42.3639 51.9734 42.3639 50.5197C42.3639 49.0659 43.5466 47.8832 45.0003 47.8832C46.4541 47.8832 47.6368 49.0659 47.6368 50.5197H52.9097C52.9097 47.0826 50.7054 44.1521 47.6368 43.0638V37.1616H60.9948C62.4487 37.1616 63.6312 38.3444 63.6312 39.7981V39.7981ZM42.3639 43.0638C39.2952 44.1521 37.091 47.0826 37.091 50.5197C37.091 54.8809 40.6391 58.429 45.0003 58.429C46.4541 58.429 47.6368 59.6117 47.6368 61.0655C47.6368 62.5192 46.4541 63.7019 45.0003 63.7019C43.5466 63.7019 42.3639 62.5192 42.3639 61.0655H37.091C37.091 64.5025 39.2952 67.433 42.3639 68.5213V74.4235H29.0058C27.5521 74.4235 26.3694 73.2408 26.3694 71.787V39.7981C26.3694 38.3444 27.5521 37.1616 29.0058 37.1616H42.3639V43.0638ZM10.5507 84.9693V79.6964H79.4499V84.9693H10.5507ZM74.6305 74.4235H68.4507C68.7433 73.5983 68.9041 72.7112 68.9041 71.787V39.7981C68.9041 38.8739 68.7433 37.9869 68.4507 37.1599H74.6305C74.3379 37.9869 74.177 38.8739 74.177 39.7981V71.787C74.177 72.7114 74.3379 73.5983 74.6305 74.4235V74.4235ZM79.4499 31.8887H10.5507C10.5507 29.9685 10.0324 28.1684 9.1321 26.6141H80.8687C79.9683 28.1684 79.4499 29.9685 79.4499 31.8887ZM84.7228 21.3429H5.27778V15.4974L45.0003 5.6738L84.7228 15.4974V21.3429Z" fill="white"/>
<path d="M42.3643 10.7971H47.6372V16.07H42.3643V10.7971Z" fill="white"/>
</g>
<defs>
<clipPath id="clip0">
<rect width="90" height="90" fill="white" transform="translate(0 0.242188)"/>
</clipPath>
</defs>
</svg>
