<svg width="90" height="91" viewBox="0 0 90 91" fill="none" xmlns="http://www.w3.org/2000/svg">
<path d="M68.9062 32.5859V29.7734C71.2322 29.7734 73.125 27.8806 73.125 25.5547C73.125 23.2287 71.2322 21.3359 68.9062 21.3359H66.0938C65.3175 21.3359 64.6875 20.7059 64.6875 19.9297C64.6875 19.1534 65.3175 18.5234 66.0938 18.5234H70.3125V19.9297H73.125V15.7109H68.9062V12.8984H66.0938V15.7109C63.7678 15.7109 61.875 17.6037 61.875 19.9297C61.875 22.2556 63.7678 24.1484 66.0938 24.1484H68.9062C69.6825 24.1484 70.3125 24.7784 70.3125 25.5547C70.3125 26.3309 69.6825 26.9609 68.9062 26.9609H64.6875V25.5547H61.875V29.7734H66.0938V32.5859H68.9062Z" fill="white"/>
<path d="M82.9688 22.7422C82.9688 14.2133 76.0289 7.27344 67.5 7.27344C58.9711 7.27344 52.0312 14.2133 52.0312 22.7422C52.0312 31.2711 58.9711 38.2109 67.5 38.2109C76.0289 38.2109 82.9688 31.2711 82.9688 22.7422ZM54.8438 22.7422C54.8438 15.763 60.5208 10.0859 67.5 10.0859C74.4792 10.0859 80.1562 15.763 80.1562 22.7422C80.1562 29.7214 74.4792 35.3984 67.5 35.3984C60.5208 35.3984 54.8438 29.7214 54.8438 22.7422Z" fill="white"/>
<path d="M88.5938 22.7422C88.5938 11.1111 79.1311 1.64844 67.5 1.64844C55.8689 1.64844 46.4062 11.1111 46.4062 22.7422C46.4062 31.6972 52.0242 39.3472 59.9147 42.4016L57.0741 45.2422H45.7678L35.9241 56.4922H19.073L1.78031 75.2248L3.84609 77.1331L20.3034 59.3047H37.2023L47.0461 48.0547H58.2398L62.9634 43.3311C64.2516 43.6152 65.5833 43.7727 66.9473 43.8078L59.8866 50.8672H47.1094L38.6719 62.1172H21.8616L1.40625 85.4947V88.8359H82.9688V37.0353C86.4478 33.2722 88.5938 28.2589 88.5938 22.7422V22.7422ZM49.2188 22.7422C49.2188 12.6622 57.42 4.46094 67.5 4.46094C77.58 4.46094 85.7812 12.6622 85.7812 22.7422C85.7812 32.8222 77.58 41.0234 67.5 41.0234C57.42 41.0234 49.2188 32.8222 49.2188 22.7422ZM71.7188 43.4112V86.0234H66.0938V48.6369L71.2477 43.483C71.4038 43.4548 71.5641 43.4422 71.7188 43.4112V43.4112ZM61.0509 53.6797L63.2812 51.4494V86.0234H57.6562V53.6797H61.0509ZM21.0938 86.0234H15.4688V73.6948L21.0938 67.2669V86.0234ZM23.9062 64.9297H29.5312V86.0234H23.9062V64.9297ZM32.3438 64.9297H37.9688V86.0234H32.3438V64.9297ZM40.7812 63.9917L46.4062 56.4922V86.0234H40.7812V63.9917ZM49.2188 53.6797H54.8438V86.0234H49.2188V53.6797ZM12.6562 76.9095V86.0234H4.68141L12.6562 76.9095ZM74.5312 86.0234V42.6055C76.5689 41.8813 78.4603 40.8561 80.1562 39.5778V86.0234H74.5312Z" fill="white"/>
<path d="M9.84375 53.6797H12.6562V48.0547H15.4688V31.1797H12.6562V25.5547H9.84375V31.1797H7.03125V48.0547H9.84375V53.6797ZM9.84375 33.9922H12.6562V45.2422H9.84375V33.9922Z" fill="white"/>
<path d="M21.0938 46.6484H23.9062V41.0234H26.7188V26.9609H23.9062V21.3359H21.0938V26.9609H18.2812V41.0234H21.0938V46.6484ZM21.0938 29.7734H23.9062V38.2109H21.0938V29.7734Z" fill="white"/>
<path d="M32.3438 36.8047H35.1562V31.1797H37.9688V19.9297H35.1562V14.3047H32.3438V19.9297H29.5312V31.1797H32.3438V36.8047ZM32.3438 22.7422H35.1562V28.3672H32.3438V22.7422Z" fill="white"/>
</svg>
