<svg width="90" height="91" viewBox="0 0 90 91" fill="none" xmlns="http://www.w3.org/2000/svg">
<path d="M82.5 24.9922H75V12.9922H69V6.99219H21V12.9922H15V24.9922H7.5C3.36 24.9971 0.004875 28.3522 0 32.4922V65.4922H21V83.4922H69V65.4922H90V32.4922C89.9951 28.3522 86.64 24.9971 82.5 24.9922ZM69 15.9922H72V24.9922H69V15.9922ZM24 9.99219H66V33.9922H24V9.99219ZM18 15.9922H21V24.9922H18V15.9922ZM66 80.4922H24V65.4922H66V80.4922ZM73.5 62.4922H16.5V59.4922H73.5V62.4922ZM87 62.4922H76.5V56.4922H13.5V62.4922H3V32.4922C3 30.0069 5.01469 27.9922 7.5 27.9922H21V33.9922H16.5C15.6716 33.9922 15 34.6638 15 35.4922C15 36.3206 15.6716 36.9922 16.5 36.9922H73.5C74.3284 36.9922 75 36.3206 75 35.4922C75 34.6638 74.3284 33.9922 73.5 33.9922H69V27.9922H82.5C84.9853 27.9922 87 30.0069 87 32.4922V62.4922Z" fill="white"/>
<path d="M10.5 44.4922C8.01469 44.4922 6 46.5069 6 48.9922C6 51.4775 8.01469 53.4922 10.5 53.4922C12.9853 53.4922 15 51.4775 15 48.9922C15 46.5069 12.9853 44.4922 10.5 44.4922ZM10.5 50.4922C9.67162 50.4922 9 49.8206 9 48.9922C9 48.1638 9.67162 47.4922 10.5 47.4922C11.3284 47.4922 12 48.1638 12 48.9922C12 49.8206 11.3284 50.4922 10.5 50.4922Z" fill="white"/>
<path d="M22.5 44.4922C20.0147 44.4922 18 46.5069 18 48.9922C18 51.4775 20.0147 53.4922 22.5 53.4922C24.9853 53.4922 27 51.4775 27 48.9922C27 46.5069 24.9853 44.4922 22.5 44.4922ZM22.5 50.4922C21.6716 50.4922 21 49.8206 21 48.9922C21 48.1638 21.6716 47.4922 22.5 47.4922C23.3284 47.4922 24 48.1638 24 48.9922C24 49.8206 23.3284 50.4922 22.5 50.4922Z" fill="white"/>
<path d="M60 68.4922H30V71.4922H60V68.4922Z" fill="white"/>
<path d="M60 74.4922H30V77.4922H60V74.4922Z" fill="white"/>
</svg>
