<svg width="101" height="101" viewBox="0 0 101 101" fill="none" xmlns="http://www.w3.org/2000/svg">
<g clip-path="url(#clip0)">
<path d="M73.0336 0.0458984C57.9142 0.0458984 45.6143 12.3459 45.6143 27.4653C45.6143 42.5846 57.9142 54.8846 73.0336 54.8846C88.153 54.8846 100.453 42.5846 100.453 27.4653C100.453 12.3459 88.153 0.0458984 73.0336 0.0458984ZM77.8723 9.72332V12.9491H68.1949V9.72332H77.8723ZM68.1949 16.1749H77.8723V17.7878C77.8723 20.4553 75.701 22.6265 73.0336 22.6265C70.3662 22.6265 68.1949 20.4553 68.1949 17.7878V16.1749ZM73.0336 25.8524C73.5849 25.8524 74.1252 25.7956 74.6465 25.6893V29.0782H71.4207V25.6893C71.9421 25.7956 72.4823 25.8524 73.0336 25.8524ZM78.0031 32.304C81.8337 32.304 85.1611 35.0297 85.9108 38.7879L87.1946 45.2072H58.8727L60.1564 38.7879C60.9061 35.0297 64.2335 32.304 68.0642 32.304H78.0031ZM61.0156 48.433H85.0532C81.5077 50.4735 77.4108 51.6588 73.0352 51.6588C68.6596 51.6588 64.5611 50.4735 61.0156 48.433ZM90.3156 44.3637L89.0737 38.1539C88.0223 32.8946 83.3655 29.0782 78.0031 29.0782H77.8723V24.2394H77.8227C79.7979 22.7683 81.0981 20.4348 81.0981 17.7878V9.72332H84.3239V6.49751H61.7433V9.72332H64.9691V17.7878C64.9691 20.4348 66.2693 22.7683 68.2445 24.2394H68.1949V29.0782H68.0642C62.7017 29.0782 58.045 32.8946 56.9936 38.1539L55.7516 44.3637C51.4823 39.9991 48.8401 34.0381 48.8401 27.4653C48.8401 14.1249 59.6933 3.2717 73.0336 3.2717C86.3739 3.2717 97.2272 14.1249 97.2272 27.4653C97.2272 34.0381 94.5849 39.9991 90.3156 44.3637V44.3637Z" fill="#ECECEC"/>
<path d="M27.8725 45.2073C12.7531 45.2073 0.453125 57.5072 0.453125 72.6266C0.453125 87.746 12.7531 100.046 27.8725 100.046C42.9919 100.046 55.2918 87.746 55.2918 72.6266C55.2918 57.5072 42.9919 45.2073 27.8725 45.2073ZM27.8725 67.7879C25.205 67.7879 23.0338 65.6166 23.0338 62.9492V59.7234C23.0338 57.056 25.205 54.8847 27.8725 54.8847C30.5399 54.8847 32.7112 57.056 32.7112 59.7234V62.9492C32.7112 65.6166 30.5399 67.7879 27.8725 67.7879ZM27.8725 71.0137C28.4238 71.0137 28.964 70.957 29.4854 70.8507V74.2395H26.2596V70.8507C26.7809 70.957 27.3212 71.0137 27.8725 71.0137V71.0137ZM32.8419 77.4653C36.6726 77.4653 40 80.1911 40.7497 83.9492L42.0334 90.3686H13.7115L14.9952 83.9492C15.745 80.1911 19.0724 77.4653 22.903 77.4653H32.8419ZM15.8545 93.5944H39.8921C36.3465 95.6349 32.2497 96.8202 27.8741 96.8202C23.4984 96.8202 19.4 95.6349 15.8545 93.5944ZM45.1545 89.5251L43.9125 83.3153C42.8611 78.056 38.2044 74.2395 32.8419 74.2395H32.7112V69.4008H32.6616C34.6368 67.9297 35.937 65.5962 35.937 62.9492V59.7234C35.937 55.2769 32.319 51.6589 27.8725 51.6589C23.426 51.6589 19.808 55.2769 19.808 59.7234V62.9492C19.808 65.5962 21.1082 67.9297 23.0834 69.4008H23.0338V74.2395H22.903C17.5406 74.2395 12.8838 78.056 11.8324 83.3153L10.5905 89.5251C6.32116 85.1605 3.67893 79.1995 3.67893 72.6266C3.67893 59.2863 14.5322 48.4331 27.8725 48.4331C41.2128 48.4331 52.066 59.2863 52.066 72.6266C52.066 79.1995 49.4238 85.1605 45.1545 89.5251Z" fill="#ECECEC"/>
<path d="M85.937 58.1104H79.4854C78.5955 58.1104 77.8725 58.831 77.8725 59.7233V62.9491C77.8725 67.7358 74.3789 71.7216 69.808 72.4926V69.4007C69.808 68.7494 69.4142 68.1587 68.8125 67.9106C68.2077 67.657 67.5162 67.7988 67.0547 68.2603L58.9902 76.3248C58.3594 76.9556 58.3594 77.9747 58.9902 78.6056L67.0547 86.6701C67.3627 86.978 67.7761 87.1426 68.1951 87.1426C68.403 87.1426 68.6125 87.104 68.8125 87.0197C69.4142 86.7717 69.808 86.181 69.808 85.5297V82.2377C79.7272 81.4155 87.5499 73.0777 87.5499 62.9491V59.7233C87.5499 58.831 86.827 58.1104 85.937 58.1104ZM84.3241 62.9491C84.3241 71.8429 77.0889 79.0781 68.1951 79.0781C67.3052 79.0781 66.5822 79.7987 66.5822 80.691V81.6361L62.4113 77.4652L66.5822 73.2943V74.2394C66.5822 75.1317 67.3052 75.8523 68.1951 75.8523C75.3098 75.8523 81.0983 70.0638 81.0983 62.9491V61.3362H84.3241V62.9491Z" fill="#ECECEC"/>
<path d="M14.9693 41.9811H21.421C22.3109 41.9811 23.0339 41.2605 23.0339 40.3682V37.1424C23.0339 32.3557 26.5274 28.3699 31.0984 27.5989V30.6908C31.0984 31.3421 31.4922 31.9328 32.0938 32.1809C32.6955 32.4329 33.3886 32.2927 33.8517 31.8312L41.9162 23.7667C42.547 23.1358 42.547 22.1168 41.9162 21.4859L33.8517 13.4214C33.3886 12.9583 32.6955 12.8181 32.0938 13.0717C31.4922 13.3198 31.0984 13.9105 31.0984 14.5618V17.8537C21.1792 18.6759 13.3564 27.0137 13.3564 37.1424V40.3682C13.3564 41.2605 14.0794 41.9811 14.9693 41.9811ZM16.5823 37.1424C16.5823 28.2486 23.8175 21.0134 32.7113 21.0134C33.6012 21.0134 34.3242 20.2928 34.3242 19.4005V18.4554L38.4951 22.6263L34.3242 26.7972V25.8521C34.3242 24.9598 33.6012 24.2392 32.7113 24.2392C25.5966 24.2392 19.8081 30.0277 19.8081 37.1424V38.7553H16.5823V37.1424Z" fill="#ECECEC"/>
</g>
<defs>
<clipPath id="clip0">
<rect width="100" height="100" fill="white" transform="translate(0.453125 0.0458984)"/>
</clipPath>
</defs>
</svg>
