<svg width="101" height="101" viewBox="0 0 101 101" fill="none" xmlns="http://www.w3.org/2000/svg">
<g clip-path="url(#clip0)">
<path d="M8.04541 29.1885H23.4942C24.3032 29.1885 24.9591 28.5328 24.9591 27.7236C24.9591 26.9145 24.3032 26.2588 23.4942 26.2588H8.04541C7.23643 26.2588 6.58057 26.9145 6.58057 27.7236C6.58057 28.5328 7.23623 29.1885 8.04541 29.1885Z" fill="#ECECEC"/>
<path d="M22.9641 36.2407H16.8613C16.0523 36.2407 15.3965 36.8964 15.3965 37.7056C15.3965 38.5147 16.0523 39.1704 16.8613 39.1704H22.9641C23.773 39.1704 24.4289 38.5147 24.4289 37.7056C24.4289 36.8964 23.773 36.2407 22.9641 36.2407Z" fill="#ECECEC"/>
<path d="M1.91797 46.3992H16.8617C17.6707 46.3992 18.3266 45.7435 18.3266 44.9343C18.3266 44.1251 17.6707 43.4695 16.8617 43.4695H1.91797C1.10898 43.4695 0.453125 44.1251 0.453125 44.9343C0.453125 45.7435 1.10898 46.3992 1.91797 46.3992Z" fill="#ECECEC"/>
<path d="M24.9591 72.3679C24.9591 71.5587 24.3032 70.9031 23.4942 70.9031H8.04541C7.23643 70.9031 6.58057 71.5587 6.58057 72.3679C6.58057 73.1771 7.23643 73.8328 8.04541 73.8328H23.4942C24.3032 73.8328 24.9591 73.1771 24.9591 72.3679Z" fill="#ECECEC"/>
<path d="M22.9641 60.9219H16.8613C16.0523 60.9219 15.3965 61.5775 15.3965 62.3867C15.3965 63.1959 16.0523 63.8516 16.8613 63.8516H22.9641C23.773 63.8516 24.4289 63.1959 24.4289 62.3867C24.4289 61.5775 23.773 60.9219 22.9641 60.9219Z" fill="#ECECEC"/>
<path d="M18.3266 55.158C18.3266 54.3488 17.6707 53.6931 16.8617 53.6931H1.91797C1.10898 53.6931 0.453125 54.3488 0.453125 55.158C0.453125 55.9671 1.10898 56.6228 1.91797 56.6228H16.8617C17.6707 56.6228 18.3266 55.9671 18.3266 55.158Z" fill="#ECECEC"/>
<path d="M62.8613 32.4347C63.6705 32.4347 64.3262 31.779 64.3262 30.9698V28.7339C64.3262 27.9247 63.6705 27.269 62.8613 27.269C62.0521 27.269 61.3965 27.9247 61.3965 28.7339V30.9698C61.3965 31.779 62.0521 32.4347 62.8613 32.4347Z" fill="#ECECEC"/>
<path d="M78.9665 33.9401C78.3943 33.3683 77.4669 33.3683 76.8949 33.9401L75.3138 35.5212C74.7417 36.0935 74.7417 37.0208 75.3138 37.5929C75.8863 38.1649 76.8134 38.1647 77.3855 37.5929L78.9665 36.0118C79.5384 35.4397 79.5384 34.5124 78.9665 33.9401Z" fill="#ECECEC"/>
<path d="M81.937 48.5811C81.1278 48.5811 80.4722 49.2367 80.4722 50.0459C80.4722 50.8551 81.1278 51.5107 81.937 51.5107H84.1728C84.9819 51.5107 85.6376 50.8551 85.6376 50.0459C85.6376 49.2367 84.9819 48.5811 84.1728 48.5811H81.937Z" fill="#ECECEC"/>
<path d="M77.3855 62.499C76.8132 61.9271 75.8859 61.9271 75.3138 62.499C74.7417 63.0712 74.7417 63.9986 75.3138 64.5707L76.8949 66.1517C77.4673 66.7238 78.3945 66.7236 78.9666 66.1517C79.5386 65.5794 79.5386 64.6521 78.9666 64.08L77.3855 62.499Z" fill="#ECECEC"/>
<path d="M61.3965 69.1223V71.3581C61.3965 72.1672 62.0521 72.8229 62.8613 72.8229C63.6705 72.8229 64.3262 72.1672 64.3262 71.3581V69.1223C64.3262 68.3131 63.6705 67.6575 62.8613 67.6575C62.0521 67.6575 61.3965 68.3133 61.3965 69.1223Z" fill="#ECECEC"/>
<path d="M48.3363 62.499L46.7552 64.08C46.1832 64.6523 46.1832 65.5796 46.7552 66.1517C47.3275 66.7238 48.2548 66.7236 48.8267 66.1517L50.4078 64.5707C50.9798 63.9984 50.9798 63.071 50.4078 62.499C49.8359 61.9271 48.9083 61.9271 48.3363 62.499Z" fill="#ECECEC"/>
<path d="M41.5488 48.5811C40.7398 48.5811 40.084 49.2367 40.084 50.0459C40.084 50.8551 40.7398 51.5107 41.5488 51.5107H43.7848C44.5938 51.5107 45.2496 50.8551 45.2496 50.0459C45.2496 49.2367 44.5938 48.5811 43.7848 48.5811H41.5488Z" fill="#ECECEC"/>
<path d="M50.4082 35.5212L48.8272 33.9401C48.2551 33.3683 47.3276 33.3683 46.7557 33.9401C46.1836 34.5124 46.1836 35.4397 46.7557 36.0118L48.3368 37.5929C48.909 38.1649 49.8364 38.1647 50.4082 37.5929C50.9803 37.0208 50.9803 36.0935 50.4082 35.5212Z" fill="#ECECEC"/>
<path d="M70.7383 50.0459C70.7383 49.2368 70.0826 48.5811 69.2734 48.5811H64.3262V37.7053C64.3262 36.8961 63.6705 36.2405 62.8613 36.2405C62.0521 36.2405 61.3965 36.8961 61.3965 37.7053V50.0459C61.3965 50.8551 62.0521 51.5108 62.8613 51.5108H69.2734C70.0824 51.5108 70.7383 50.8551 70.7383 50.0459Z" fill="#ECECEC"/>
<path d="M90.6367 49.8042C91.4443 49.7552 92.0592 49.0609 92.0102 48.2535C91.0783 32.8818 78.2744 20.8406 62.8607 20.8406C46.7568 20.8406 33.6553 33.9421 33.6553 50.0462C33.6553 66.1501 46.7568 79.2517 62.8607 79.2517C77.2883 79.2517 89.599 68.681 91.7406 54.4164C91.8607 53.6164 91.3096 52.8705 90.5094 52.7503C89.7113 52.6306 88.9635 53.1812 88.8434 53.9816C86.9195 66.7968 75.8539 76.3222 62.8607 76.3222C48.3723 76.3222 36.585 64.5349 36.585 50.0464C36.585 35.558 48.3723 23.7705 62.8607 23.7705C76.7281 23.7705 88.2475 34.6027 89.0857 48.4312C89.1346 49.2382 89.8283 49.8511 90.6367 49.8042V49.8042Z" fill="#ECECEC"/>
<path d="M62.8608 12.4541C57.7082 12.4541 52.66 13.523 48.0135 15.5221H22.168C21.359 15.5221 20.7031 16.1777 20.7031 16.9869C20.7031 17.7961 21.359 18.4518 22.168 18.4518H42.5025C39.7531 20.2213 37.2221 22.3557 34.9904 24.8197C34.4475 25.4191 34.4932 26.3455 35.0928 26.8887C35.6926 27.4318 36.6186 27.3859 37.1619 26.7863C43.7248 19.5398 53.0918 15.3838 62.8608 15.3838C81.9737 15.3838 97.5233 30.9332 97.5233 50.0461C97.5233 69.1588 81.9739 84.7084 62.8608 84.7084C43.7479 84.7084 28.1984 69.159 28.1984 50.0461C28.1984 43.3531 30.1104 36.857 33.7272 31.2598C34.1662 30.5803 33.9713 29.6736 33.2918 29.2346C32.6123 28.7957 31.7057 28.9902 31.2664 29.6699C27.3426 35.7418 25.2688 42.7877 25.2688 50.0461C25.2688 63.2816 32.1449 74.9402 42.5119 81.6404H22.1682C21.3592 81.6404 20.7033 82.2961 20.7033 83.1053C20.7033 83.9145 21.3592 84.5701 22.1682 84.5701H47.9934C52.5559 86.5426 57.5826 87.6381 62.861 87.6381C83.5891 87.6381 100.453 70.7744 100.453 50.0461C100.453 29.3178 83.5891 12.4541 62.8608 12.4541V12.4541Z" fill="#ECECEC"/>
</g>
<defs>
<clipPath id="clip0">
<rect width="100" height="100" fill="white" transform="translate(0.453125 0.0458984)"/>
</clipPath>
</defs>
</svg>
