<svg width="111" height="150" viewBox="0 0 111 150" fill="none" xmlns="http://www.w3.org/2000/svg">
<g clip-path="url(#clip0)">
<path opacity="0.7" d="M0.453125 6.71642C0.453125 3.00705 3.46836 -6.95527e-07 7.18782 0L101.981 1.77259e-05C105.7 1.84215e-05 108.716 3.00705 108.716 6.71644V103.81C108.716 107.428 106.962 110.823 104.009 112.924L58.7397 145.125C54.6782 148.014 49.1923 147.883 45.2741 144.803L4.7299 112.937C2.02923 110.815 0.453125 107.574 0.453125 104.145V6.71642Z" fill="#6D28FE"/>
<path opacity="0.95" d="M44.7195 92.0708L24.7783 83.7978V78.6205L44.7195 70.365V76.574L32.6004 81.2265L44.7195 85.8967V92.0708ZM55.0256 67.9513H58.6736L52.2195 94.4496H48.6066L55.0256 67.9513ZM62.4556 92.0708L82.3966 83.7978V78.6205L62.4556 70.365V76.574L74.5744 81.2265L62.4556 85.8967V92.0708Z" fill="white"/>
</g>
<defs>
<clipPath id="clip0">
<rect width="110" height="150" fill="white" transform="translate(0.453125)"/>
</clipPath>
</defs>
</svg>
