<svg width="101" height="101" viewBox="0 0 101 101" fill="none" xmlns="http://www.w3.org/2000/svg">
<g clip-path="url(#clip0)">
<path d="M61.4289 9.92148C56.5225 9.92148 52.5307 13.9131 52.5307 18.8195C52.5307 23.726 56.5225 27.7176 61.4289 27.7176C66.3354 27.7176 70.327 23.726 70.327 18.8195C70.3268 13.9131 66.3352 9.92148 61.4289 9.92148V9.92148ZM61.4289 24.8736C58.0904 24.8736 55.3746 22.1576 55.3746 18.8193C55.3746 15.4811 58.0904 12.7652 61.4289 12.7652C64.7672 12.7652 67.483 15.4811 67.483 18.8193C67.483 22.1578 64.767 24.8736 61.4289 24.8736ZM27.218 86.2701C27.8613 86.7207 28.7479 86.5641 29.1982 85.9209L38.1725 73.1043C38.6229 72.4609 38.4666 71.5744 37.8232 71.124C37.1801 70.6736 36.2934 70.8301 35.843 71.4732L26.8688 84.2898C26.4182 84.933 26.5746 85.8197 27.218 86.2701ZM50.4531 0.0458984C41.266 0.0458984 32.284 2.55937 24.4775 7.31445C23.7865 7.73535 23.5678 8.63672 23.9885 9.32754C24.4096 10.0186 25.3111 10.2371 26.0016 9.81641C33.3486 5.34102 41.8039 2.97559 50.4531 2.97559C76.4674 2.97559 97.5234 24.0277 97.5234 50.0459C97.5234 61.1436 93.5879 71.9188 86.4418 80.3861C85.9199 81.0043 85.9982 81.9285 86.6166 82.4504C87.2344 82.9723 88.159 82.8939 88.6807 82.2758C96.2723 73.2805 100.453 61.8342 100.453 50.0459C100.453 22.4115 78.0896 0.0458984 50.4531 0.0458984V0.0458984ZM81.6441 49.0102C81.0719 49.5822 81.0719 50.5096 81.6439 51.0816L84.3195 53.7574C84.8914 54.3291 85.8189 54.3295 86.3912 53.7574L91.1715 48.9771C91.7436 48.4051 91.7436 47.4775 91.1715 46.9057C90.5992 46.3336 89.6719 46.3336 89.0998 46.9057L85.3555 50.65L83.7156 49.0102C83.1437 48.4381 82.2162 48.4379 81.6441 49.0102V49.0102ZM80.966 21.5275C80.4123 20.974 79.5096 20.9711 78.9531 21.5293C73.5645 26.9398 73.1521 27.3377 68.7121 31.8119C68.1588 32.3693 68.1625 33.2701 68.7195 33.823C68.8074 33.9105 70.8857 35.9727 71.7262 36.7842C74.8963 39.8455 79.64 38.9627 82.8852 35.7176H82.885C86.2674 32.3355 87.1869 27.7482 83.8721 24.4332L80.966 21.5275ZM80.8742 33.7066C80.8742 33.7068 80.874 33.7068 80.8742 33.7066C78.9242 35.6564 75.8477 36.8109 73.7016 34.7383C73.2494 34.302 72.4074 33.4717 71.7334 32.8053C76.0482 28.4623 74.6623 29.8643 79.9623 24.5455L81.8607 26.4441C84.0543 28.6375 83.0578 31.5232 80.8742 33.7066V33.7066ZM16.0711 37.884C19.5488 41.3619 25.1775 41.3613 28.6547 37.884C30.3557 36.1832 31.1293 34.0814 30.892 31.8061C30.6801 29.7736 29.6287 27.7199 27.932 26.0232C27.3766 25.468 26.4764 25.468 25.9209 26.0232L22.758 29.1861C22.2027 29.7414 22.2027 30.6418 22.758 31.1971C23.3135 31.7523 24.2137 31.7523 24.7691 31.1971L26.8471 29.1191C27.5365 30.0775 27.9594 31.1045 28.0635 32.1014C28.2109 33.515 27.7332 34.784 26.6437 35.8734C24.2775 38.2396 20.448 38.2395 18.082 35.8734C15.7156 33.5072 15.7158 29.6777 18.082 27.3115C18.9398 26.4535 20.0199 25.8787 21.2053 25.6492C21.9762 25.5 22.4803 24.7539 22.3311 23.9828C22.1818 23.2119 21.4361 22.7082 20.6646 22.857C18.9199 23.1949 17.3316 24.0398 16.0709 25.3006C12.6018 28.7697 12.6018 34.4146 16.0711 37.884V37.884ZM69.5396 77.8441C69.2709 77.1062 68.4551 76.7256 67.717 76.9943L63.3674 78.5775L61.6889 73.9656L66.4912 72.2178C67.2291 71.9492 67.6098 71.1332 67.341 70.3953C67.0725 69.6572 66.2566 69.2766 65.5184 69.5453L59.3799 71.7797C58.6424 72.0482 58.2617 72.8643 58.5301 73.6021L63.8326 88.1705C64.1016 88.9088 64.9176 89.2885 65.6553 89.0203L71.7936 86.7859C72.5316 86.5174 72.9121 85.7014 72.6434 84.9633C72.3748 84.2254 71.5588 83.8447 70.8207 84.1135L66.0186 85.8615L64.34 81.2498L68.6896 79.6666C69.4277 79.398 69.8082 78.582 69.5396 77.8441V77.8441ZM85.8586 66.3611C84.1143 63.859 81.0262 64.1049 78.7166 65.1695C76.7723 66.066 74.8822 66.8119 74.3982 67.0006C73.0668 67.2025 71.883 65.7123 72.7961 64.0119C74.0307 61.7131 76.9102 61.3979 76.9629 61.3924C77.7418 61.3211 78.3174 60.6338 78.2498 59.8537C78.182 59.0713 77.4975 58.4918 76.7105 58.5598C76.5303 58.5754 72.2678 58.985 70.2908 62.6666C68.2217 66.5201 71.3203 70.558 75.0816 69.7658C75.5223 69.6732 78.7563 68.283 79.9076 67.7523C81.5693 66.9863 82.8879 67.0723 83.5258 67.9875C84.3631 69.1887 83.7719 70.8795 82.7908 71.8609C81.5861 73.0652 79.933 73.7369 78.3705 73.6615C77.5885 73.6215 76.9189 74.2275 76.8805 75.0117C76.842 75.7961 77.4465 76.4631 78.2309 76.5018C80.5275 76.6158 82.9998 75.673 84.8016 73.8717C86.915 71.7576 87.3695 68.5289 85.8586 66.3611V66.3611ZM49.1299 73.6461H44.5852C43.7998 73.6461 43.1633 74.2828 43.1633 75.068V90.7143C43.1633 91.4863 43.7852 92.1361 44.5916 92.1361C44.5916 92.1361 48.7715 92.1176 49.9238 92.1176C53.0301 92.1176 55.557 89.5904 55.557 86.4842C55.557 84.5342 54.5607 82.8129 53.051 81.8012C55.667 78.5336 53.3357 73.6461 49.1299 73.6461V73.6461ZM46.007 76.4898H49.1299C50.3309 76.4898 51.3082 77.467 51.3082 78.6682C51.3082 79.8691 50.3311 80.8465 49.1299 80.8465C48.9447 80.8465 49.865 80.8449 46.007 80.8508V76.4898ZM49.9236 89.2736C49.2092 89.2736 47.334 89.2807 46.007 89.2863V83.7004C48.7299 83.6893 47.2648 83.6977 49.9236 83.6947C51.4617 83.6947 52.7131 84.9461 52.7131 86.4842C52.7131 88.0223 51.4617 89.2736 49.9236 89.2736V89.2736ZM19.2623 46.9057C18.69 46.3336 17.7627 46.3336 17.1906 46.9057L13.4463 50.65L11.8064 49.0102C11.2344 48.4381 10.3068 48.4379 9.73496 49.0102C9.1627 49.5822 9.1627 50.5096 9.73477 51.0816L12.4104 53.7574C12.9822 54.3291 13.91 54.3295 14.482 53.7574L19.2623 48.9771C19.8342 48.4053 19.8342 47.4777 19.2623 46.9057ZM18.6025 75.2252L33.0889 67.9637C33.7908 67.6117 34.0746 66.7574 33.7229 66.0553C33.3709 65.3531 32.5168 65.0691 31.8145 65.4213L20.1438 71.2715L25.885 59.4256C26.2275 58.7189 25.9322 57.8684 25.2256 57.5258C24.5176 57.183 23.6682 57.4785 23.3258 58.1852L16.2064 72.8744C15.483 74.3949 17.0871 75.9719 18.6025 75.2252V75.2252ZM81.5342 85.3963C72.9449 92.9541 61.907 97.1162 50.4531 97.1162C24.4389 97.1162 3.38281 76.0639 3.38281 50.0459C3.38281 36.2434 9.41133 23.1848 19.9229 14.2186C20.5383 13.6936 20.6117 12.7689 20.0867 12.1535C19.5619 11.5381 18.6371 11.4645 18.0217 11.9896C6.85644 21.5133 0.453125 35.3844 0.453125 50.0459C0.453125 77.6795 22.816 100.046 50.4531 100.046C62.6197 100.046 74.3451 95.6244 83.4693 87.5957C84.0768 87.0613 84.1359 86.1357 83.6016 85.5283C83.067 84.9209 82.1414 84.8617 81.5342 85.3963V85.3963ZM39.0006 9.92148C34.0941 9.92148 30.1025 13.9131 30.1025 18.8195C30.1025 23.726 34.0941 27.7176 39.0006 27.7176C43.907 27.7176 47.8988 23.726 47.8988 18.8195C47.8988 13.9131 43.907 9.92148 39.0006 9.92148V9.92148ZM39.0006 24.8736C35.6623 24.8736 32.9465 22.1576 32.9465 18.8193C32.9465 15.4811 35.6625 12.7652 39.0006 12.7652C42.3389 12.7652 45.0549 15.4811 45.0549 18.8193C45.0549 22.1578 42.3391 24.8736 39.0006 24.8736ZM48.6432 36.0338C48.0158 38.1707 46.4725 40.9162 45.2344 42.5941C45.2139 42.6121 45.1928 42.6289 45.1725 42.6471V42.6473C44.2184 43.4992 42.9883 43.9686 41.7092 43.9686H40.0094C37.5262 43.9686 35.5059 45.9889 35.5059 48.4721V55.8088C35.5059 58.292 37.5262 60.3123 40.0094 60.3123H41.7092C42.9887 60.3123 44.2188 60.7814 45.1727 61.6338C47.0596 63.3187 49.492 64.2469 52.0217 64.2469H57.5055C60.9404 64.2469 63.7352 61.4523 63.7352 58.0172V46.2637C63.7352 42.8604 60.9914 40.0873 57.6 40.0365C57.7541 39.6102 57.8941 39.1914 58.0133 38.7852C58.7732 36.1963 57.2938 33.4848 54.7041 32.7246C52.1152 31.9641 49.4035 33.4437 48.6432 36.0338V36.0338ZM57.5055 42.9637C59.325 42.9637 60.8055 44.4439 60.8055 46.2637V47.0848H55.8576C55.0484 47.0848 54.3928 47.7406 54.3928 48.5496C54.3928 49.3586 55.0484 50.0145 55.8576 50.0145H60.8055V54.2664H55.8576C55.0484 54.2664 54.3928 54.9223 54.3928 55.7313C54.3928 56.5402 55.0484 57.1961 55.8576 57.1961H60.8055V58.0172C60.8055 59.8367 59.3252 61.3172 57.5055 61.3172H52.0217C50.2127 61.3172 48.4732 60.6535 47.124 59.4486C45.6324 58.1164 43.7094 57.3826 41.709 57.3826H40.0092C39.1414 57.3826 38.4354 56.6766 38.4354 55.8088V48.4721C38.4354 47.6043 39.1412 46.8982 40.0092 46.8982H41.709C43.7092 46.8982 45.6322 46.1646 47.124 44.8322L47.1238 44.8324C48.4732 43.6273 50.2125 42.9639 52.0217 42.9639H57.5055V42.9637ZM51.4543 36.8592C51.7572 35.8268 52.84 35.2299 53.8785 35.5355C54.9139 35.8396 55.5064 36.9238 55.2021 37.9598C55.0094 38.6166 54.7605 39.3123 54.4641 40.034C52.4012 40.0689 51.5592 39.9363 50.0842 40.2189C50.6471 39.0969 51.1383 37.9355 51.4543 36.8592V36.8592Z" fill="#ECECEC"/>
</g>
<defs>
<clipPath id="clip0">
<rect width="100" height="100" fill="white" transform="translate(0.453125 0.0458984)"/>
</clipPath>
</defs>
</svg>
