<svg width="411" height="226" viewBox="0 0 411 226" fill="none" xmlns="http://www.w3.org/2000/svg">
<rect x="0.453125" y="0.72168" width="410" height="225.004" rx="10" fill="#4A4A4A"/>
<rect x="11.0664" y="16.3242" width="15" height="15" rx="1" fill="#696969"/>
<rect x="49.9746" y="16.3242" width="6.5203" height="13" rx="1" fill="#696969"/>
<rect x="107.459" y="16.3242" width="6.5203" height="13" rx="1" fill="#696969"/>
<rect x="152.734" y="16.3242" width="6.5203" height="13" rx="1" fill="#696969"/>
<rect x="219.379" y="16.3242" width="6.5203" height="13" rx="1" fill="#696969"/>
<rect x="231.381" y="16.3242" width="6.5203" height="13" rx="1" fill="#696969"/>
<rect x="272.297" y="16.3242" width="6.5203" height="13" rx="1" fill="#696969"/>
<rect x="61.9766" y="16.3242" width="40" height="13" rx="1" fill="#813636"/>
<rect x="119.461" y="16.3242" width="27.7906" height="13" rx="1" fill="#328715"/>
<rect x="164.736" y="16.3242" width="49.1592" height="13" rx="1" fill="#834A4A"/>
<rect x="243.383" y="16.3242" width="23.4308" height="13" rx="1" fill="#234880"/>
<rect x="284.299" y="16.3242" width="23.4308" height="13" rx="1" fill="#736A1E"/>
<rect x="313.213" y="16.3242" width="38.0523" height="13" rx="1" fill="#2D1966"/>
<rect x="356.748" y="16.3242" width="38.0523" height="13" rx="1" fill="#2CA67A"/>
<rect width="6.5203" height="13" rx="1" transform="matrix(-1 0 0 1 394.801 35.2651)" fill="#696969"/>
<rect width="6.5203" height="13" rx="1" transform="matrix(-1 0 0 1 337.316 35.2651)" fill="#696969"/>
<rect width="6.5203" height="13" rx="1" transform="matrix(-1 0 0 1 292.041 35.2651)" fill="#696969"/>
<rect width="6.5203" height="13" rx="1" transform="matrix(-1 0 0 1 225.396 35.2651)" fill="#696969"/>
<rect width="6.5203" height="13" rx="1" transform="matrix(-1 0 0 1 213.395 35.2651)" fill="#696969"/>
<rect width="6.5203" height="13" rx="1" transform="matrix(-1 0 0 1 172.479 35.2651)" fill="#696969"/>
<rect width="40" height="13" rx="1" transform="matrix(-1 0 0 1 382.799 35.2651)" fill="#813636"/>
<rect width="27.7906" height="13" rx="1" transform="matrix(-1 0 0 1 325.314 35.2651)" fill="#328715"/>
<rect width="49.1592" height="13" rx="1" transform="matrix(-1 0 0 1 280.039 35.2651)" fill="#834A4A"/>
<rect width="23.4308" height="13" rx="1" transform="matrix(-1 0 0 1 201.393 35.2651)" fill="#722380"/>
<rect width="23.4308" height="13" rx="1" transform="matrix(-1 0 0 1 160.477 35.2651)" fill="#736A1E"/>
<rect width="38.0523" height="13" rx="1" transform="matrix(-1 0 0 1 131.562 35.2651)" fill="#2D1966"/>
<rect width="38.0523" height="13" rx="1" transform="matrix(-1 0 0 1 88.0273 35.2651)" fill="#2CA67A"/>
<rect x="49.9746" y="54.2061" width="6.5203" height="13" rx="1" fill="#696969"/>
<rect x="107.459" y="54.2061" width="6.5203" height="13" rx="1" fill="#696969"/>
<rect x="152.734" y="54.2061" width="6.5203" height="13" rx="1" fill="#696969"/>
<rect x="219.379" y="54.2061" width="6.5203" height="13" rx="1" fill="#696969"/>
<rect x="231.381" y="54.2061" width="6.5203" height="13" rx="1" fill="#696969"/>
<rect x="272.297" y="54.2061" width="6.5203" height="13" rx="1" fill="#696969"/>
<rect x="61.9766" y="54.2061" width="40" height="13" rx="1" fill="#813636"/>
<rect x="119.461" y="54.2061" width="27.7906" height="13" rx="1" fill="#328715"/>
<rect x="164.736" y="54.2061" width="49.1592" height="13" rx="1" fill="#834A4A"/>
<rect x="243.383" y="54.2061" width="23.4308" height="13" rx="1" fill="#234880"/>
<rect x="284.299" y="54.2061" width="23.4308" height="13" rx="1" fill="#736A1E"/>
<rect x="313.213" y="54.2061" width="38.0523" height="13" rx="1" fill="#2D1966"/>
<rect x="356.748" y="54.2061" width="38.0523" height="13" rx="1" fill="#2CA67A"/>
<rect width="6.5203" height="13" rx="1" transform="matrix(-1 0 0 1 394.801 73.147)" fill="#696969"/>
<rect width="6.5203" height="13" rx="1" transform="matrix(-1 0 0 1 337.316 73.147)" fill="#696969"/>
<rect width="6.5203" height="13" rx="1" transform="matrix(-1 0 0 1 292.041 73.147)" fill="#696969"/>
<rect width="6.5203" height="13" rx="1" transform="matrix(-1 0 0 1 225.396 73.147)" fill="#696969"/>
<rect width="6.5203" height="13" rx="1" transform="matrix(-1 0 0 1 213.395 73.147)" fill="#696969"/>
<rect width="6.5203" height="13" rx="1" transform="matrix(-1 0 0 1 172.479 73.147)" fill="#696969"/>
<rect width="40" height="13" rx="1" transform="matrix(-1 0 0 1 382.799 73.147)" fill="#813636"/>
<rect width="27.7906" height="13" rx="1" transform="matrix(-1 0 0 1 325.314 73.147)" fill="#328715"/>
<rect width="49.1592" height="13" rx="1" transform="matrix(-1 0 0 1 280.039 73.147)" fill="#834A4A"/>
<rect width="23.4308" height="13" rx="1" transform="matrix(-1 0 0 1 201.393 73.147)" fill="#234880"/>
<rect width="23.4308" height="13" rx="1" transform="matrix(-1 0 0 1 160.477 73.147)" fill="#736A1E"/>
<rect width="38.0523" height="13" rx="1" transform="matrix(-1 0 0 1 131.562 73.147)" fill="#6B54AA"/>
<rect width="38.0523" height="13" rx="1" transform="matrix(-1 0 0 1 88.0273 73.147)" fill="#0D422F"/>
<rect x="49.9746" y="92.0879" width="6.5203" height="13" rx="1" fill="#696969"/>
<rect x="107.459" y="92.0879" width="6.5203" height="13" rx="1" fill="#696969"/>
<rect x="152.734" y="92.0879" width="6.5203" height="13" rx="1" fill="#696969"/>
<rect x="219.379" y="92.0879" width="6.5203" height="13" rx="1" fill="#696969"/>
<rect x="231.381" y="92.0879" width="6.5203" height="13" rx="1" fill="#696969"/>
<rect x="61.9766" y="92.0879" width="40" height="13" rx="1" fill="#813636"/>
<rect x="119.461" y="92.0879" width="27.7906" height="13" rx="1" fill="#328715"/>
<rect x="164.736" y="92.0879" width="49.1592" height="13" rx="1" fill="#834A4A"/>
<rect x="243.383" y="92.0879" width="23.4308" height="13" rx="1" fill="#234880"/>
<rect width="6.5203" height="13" rx="1" transform="matrix(-1 0 0 1 164.055 111.029)" fill="#696969"/>
<rect width="6.5203" height="13" rx="1" transform="matrix(-1 0 0 1 97.4102 111.029)" fill="#696969"/>
<rect width="6.5203" height="13" rx="1" transform="matrix(-1 0 0 1 68.4961 129.696)" fill="#696969"/>
<rect width="6.5203" height="13" rx="1" transform="matrix(-1 0 0 1 85.4082 111.029)" fill="#696969"/>
<rect width="6.5203" height="13" rx="1" transform="matrix(-1 0 0 1 56.4941 129.696)" fill="#696969"/>
<rect width="6.5203" height="13" rx="1" transform="matrix(-1 0 0 1 56.4941 148.363)" fill="#696969"/>
<rect width="49.1592" height="13" rx="1" transform="matrix(-1 0 0 1 152.053 111.029)" fill="#834A4A"/>
<rect width="23.4308" height="13" rx="1" transform="matrix(-1 0 0 1 73.4062 111.029)" fill="#234880"/>
<rect x="11.0664" y="67.2061" width="15" height="15" rx="1" fill="#696969"/>
<rect x="11.0664" y="118.255" width="15" height="15" rx="1" fill="#696969"/>
<rect x="11.0664" y="169.137" width="15" height="15" rx="1" fill="#696969"/>
<rect x="11.0664" y="41.7651" width="15" height="15" rx="1" fill="#696969"/>
<rect x="11.0664" y="92.647" width="15" height="15" rx="1" fill="#696969"/>
<rect x="11.0664" y="143.696" width="15" height="15" rx="1" fill="#696969"/>
<rect x="11.0664" y="194.578" width="15" height="15" rx="1" fill="#696969"/>
<rect x="36.0762" y="11.02" width="3" height="203.862" rx="1.5" fill="#696969"/>
</svg>
