<svg width="26" height="26" viewBox="0 0 26 26" fill="none" xmlns="http://www.w3.org/2000/svg">
<g clip-path="url(#clip0)">
<path d="M3.97158 0.168213C2.31109 0.168213 0.967066 1.51466 0.966797 3.17138C0.966797 4.82972 2.31082 6.1759 3.97185 6.1759C5.62831 6.1759 6.97421 4.82972 6.97421 3.17138C6.97421 1.51439 5.62804 0.168213 3.97158 0.168213Z" fill="white"/>
<path d="M6.56073 8.45532H1.37939V25.1258H6.56073V8.45532Z" fill="white"/>
<path d="M19.7507 8.04077C17.2303 8.04077 15.5403 9.42268 14.8485 10.7331H14.7792V8.45529H9.80984H9.80957V25.1255H14.9863V16.8786C14.9863 14.7045 15.4003 12.5986 18.0959 12.5986C20.7528 12.5986 20.7882 15.0852 20.7882 17.018V25.1252H25.9658V15.9816C25.9658 11.4934 24.9974 8.04077 19.7507 8.04077Z" fill="white"/>
</g>
<defs>
<clipPath id="clip0">
<rect width="25" height="25" fill="white" transform="translate(0.966797 0.147461)"/>
</clipPath>
</defs>
</svg>
