<svg width="121" height="121" viewBox="0 0 121 121" fill="none" xmlns="http://www.w3.org/2000/svg">
<mask id="mask0" mask-type="alpha" maskUnits="userSpaceOnUse" x="0" y="0" width="121" height="121">
<circle cx="60.4531" cy="60.7959" r="60" fill="#191223"/>
</mask>
<g mask="url(#mask0)">
<g clip-path="url(#clip0)">
<path d="M69.0704 89.6753L101.03 105.655C102.905 106.593 104.525 107.971 105.75 109.671C106.976 111.372 107.771 113.344 108.068 115.419L108.836 120.796H12.0156L12.7837 115.419C13.0802 113.344 13.8753 111.372 15.101 109.671C16.3267 107.971 17.9464 106.593 19.8213 105.655L51.7811 89.6753H69.0704Z" fill="#026CA2"/>
<path d="M51.7812 89.6753H69.0706V120.796H51.7812V89.6753Z" fill="#CBCBCB"/>
<path d="M51.7812 82.7595V89.6752L50.0522 94.862V96.591H70.7994V94.862L69.0705 89.6752V82.7595H51.7812Z" fill="#FDC9A6"/>
<path d="M69.0706 82.7595V87.0041C69.0533 87.017 69.0338 87.0278 69.0165 87.0408C66.4714 88.764 63.4669 89.682 60.3932 89.6754C57.3196 89.6689 54.319 88.7381 51.7812 87.0041V82.7595H69.0706Z" fill="#FDC9A6"/>
<path d="M69.0706 82.7595V87.0041C69.0533 87.017 69.0338 87.0278 69.0165 87.0408C66.4714 88.764 63.4669 89.682 60.3932 89.6754C57.3196 89.6689 54.319 88.7381 51.7812 87.0041V82.7595H69.0706Z" fill="#E6AF89"/>
<path d="M20.6602 120.796V113.88C20.6602 113.422 20.8423 112.982 21.1665 112.658C21.4908 112.334 21.9305 112.151 22.3891 112.151C22.8476 112.151 23.2874 112.334 23.6116 112.658C23.9359 112.982 24.118 113.422 24.118 113.88V120.796H20.6602Z" fill="#015078"/>
<path d="M96.7334 120.796V113.88C96.7334 113.422 96.9156 112.982 97.2398 112.658C97.564 112.334 98.0038 112.151 98.4623 112.151C98.9209 112.151 99.3606 112.334 99.6849 112.658C100.009 112.982 100.191 113.422 100.191 113.88V120.796H96.7334Z" fill="#015078"/>
<path d="M54.9917 99.3076L56.9677 105.235H63.8834L65.8593 99.3076L60.4255 96.5908L54.9917 99.3076Z" fill="#0296E5"/>
<path d="M56.9677 105.236L55.2388 120.796H65.6124L63.8834 105.236H56.9677Z" fill="#026CA2"/>
<path d="M83.1016 52.4865L83.8409 49.5473C84.6189 46.4548 84.6408 43.2204 83.9048 40.1175C83.1688 37.0147 81.6966 34.1347 79.6126 31.721C77.4971 28.8938 74.6041 26.7438 71.287 25.5335C67.9699 24.3231 64.3722 24.1048 60.933 24.9051C59.7863 25.1722 58.6439 25.4378 57.5538 25.6911C55.1993 26.2379 52.9944 27.2973 51.0963 28.7939C49.1981 30.2905 47.6535 32.1874 46.5725 34.3494H46.1135C44.6457 34.3494 43.198 34.6912 41.8851 35.3477C40.5722 36.0041 39.4302 36.9572 38.5494 38.1314C37.0447 40.1377 36.3986 42.6596 36.7533 45.1422L37.9279 53.3676L38.5574 58.5544H81.1728L82.5959 54.2306C82.7854 53.6553 82.9539 53.0739 83.1016 52.4865Z" fill="#55300B"/>
<path d="M60.4255 86.2173C57.3633 86.2173 54.3713 85.2997 51.8355 83.5829C49.2998 81.8661 47.3366 79.4289 46.1992 76.5857C44.1758 71.527 43.1362 66.1287 43.1362 60.6804V48.1808L48.323 39.3784C51.0604 42.1658 54.3257 44.3798 57.9283 45.8911C61.5308 47.4025 65.3984 48.1809 69.3051 48.1808H77.7149V60.6804C77.715 66.129 76.6754 71.5276 74.6518 76.5865C73.5144 79.4296 71.5511 81.8666 69.0154 83.5832C66.4796 85.2999 63.4877 86.2174 60.4255 86.2173V86.2173Z" fill="#FDC9A6"/>
<path d="M70.7995 55.0965H65.6127C65.1542 55.0965 64.7144 54.9144 64.3902 54.5901C64.0659 54.2659 63.8838 53.8261 63.8838 53.3676C63.8838 52.9091 64.0659 52.4693 64.3902 52.1451C64.7144 51.8208 65.1542 51.6387 65.6127 51.6387H70.7995C71.2581 51.6387 71.6978 51.8208 72.0221 52.1451C72.3463 52.4693 72.5284 52.9091 72.5284 53.3676C72.5284 53.8261 72.3463 54.2659 72.0221 54.5901C71.6978 54.9144 71.2581 55.0965 70.7995 55.0965Z" fill="#55300B"/>
<path d="M67.7735 61.1478C68.967 61.1478 69.9346 60.1802 69.9346 58.9866C69.9346 57.793 68.967 56.8254 67.7735 56.8254C66.5799 56.8254 65.6123 57.793 65.6123 58.9866C65.6123 60.1802 66.5799 61.1478 67.7735 61.1478Z" fill="#55300B"/>
<path d="M55.239 55.0965H50.0522C49.5936 55.0965 49.1539 54.9144 48.8296 54.5901C48.5054 54.2659 48.3232 53.8261 48.3232 53.3676C48.3232 52.9091 48.5054 52.4693 48.8296 52.1451C49.1539 51.8208 49.5936 51.6387 50.0522 51.6387H55.239C55.6975 51.6387 56.1373 51.8208 56.4615 52.1451C56.7857 52.4693 56.9679 52.9091 56.9679 53.3676C56.9679 53.8261 56.7857 54.2659 56.4615 54.5901C56.1373 54.9144 55.6975 55.0965 55.239 55.0965Z" fill="#55300B"/>
<path d="M53.0777 61.1478C54.2712 61.1478 55.2388 60.1802 55.2388 58.9866C55.2388 57.793 54.2712 56.8254 53.0777 56.8254C51.8841 56.8254 50.9165 57.793 50.9165 58.9866C50.9165 60.1802 51.8841 61.1478 53.0777 61.1478Z" fill="#55300B"/>
<path d="M63.8834 75.8438H56.9677C56.5092 75.8438 56.0694 75.6617 55.7452 75.3375C55.4209 75.0132 55.2388 74.5735 55.2388 74.1149C55.2388 73.6564 55.4209 73.2166 55.7452 72.8924C56.0694 72.5681 56.5092 72.386 56.9677 72.386H63.8834C64.342 72.386 64.7817 72.5681 65.106 72.8924C65.4302 73.2166 65.6124 73.6564 65.6124 74.1149C65.6124 74.5735 65.4302 75.0132 65.106 75.3375C64.7817 75.6617 64.342 75.8438 63.8834 75.8438Z" fill="#E6AF89"/>
<path d="M62.1546 68.9281H58.6967C58.2382 68.9281 57.7984 68.746 57.4742 68.4217C57.1499 68.0975 56.9678 67.6577 56.9678 67.1992V62.0124C56.9678 61.5538 57.1499 61.1141 57.4742 60.7898C57.7984 60.4656 58.2382 60.2834 58.6967 60.2834C59.1552 60.2834 59.595 60.4656 59.9192 60.7898C60.2435 61.1141 60.4256 61.5538 60.4256 62.0124V65.4702H62.1546C62.6131 65.4702 63.0529 65.6524 63.3771 65.9766C63.7013 66.3009 63.8835 66.7406 63.8835 67.1992C63.8835 67.6577 63.7013 68.0975 63.3771 68.4217C63.0529 68.746 62.6131 68.9281 62.1546 68.9281Z" fill="#E6AF89"/>
<path d="M43.1364 53.3677H40.747C39.5466 53.3677 38.3953 53.8446 37.5464 54.6934C36.6976 55.5423 36.2207 56.6936 36.2207 57.894V60.9439C36.2207 61.6465 36.3843 62.3395 36.6985 62.968C37.0745 63.7199 37.6523 64.3522 38.3674 64.7942C39.0824 65.2361 39.9064 65.4702 40.747 65.4702H43.7848L43.1364 53.3677Z" fill="#FDC9A6"/>
<path d="M77.7152 53.3677H80.1046C81.3051 53.3677 82.4564 53.8446 83.3052 54.6934C84.1541 55.5423 84.631 56.6936 84.631 57.894V60.9439C84.631 61.6465 84.4674 62.3395 84.1531 62.968C83.7772 63.7199 83.1994 64.3522 82.4843 64.7942C81.7692 65.2361 80.9452 65.4702 80.1046 65.4702H77.0669L77.7152 53.3677Z" fill="#FDC9A6"/>
<path d="M51.7812 89.6753L60.4258 96.591L50.0522 101.778V94.8621L51.7812 89.6753Z" fill="#EBEBEB"/>
<path d="M69.0704 89.6753L60.4258 96.591L70.7994 101.778V94.8621L69.0704 89.6753Z" fill="#EBEBEB"/>
<path d="M51.7812 120.796H43.1365L37.9497 105.236L51.7812 89.6753V120.796Z" fill="#0296E5"/>
<path d="M69.0703 120.796H77.715L82.9018 105.236L69.0703 89.6753V120.796Z" fill="#0296E5"/>
</g>
</g>
<defs>
<clipPath id="clip0">
<rect width="105" height="105" fill="white" transform="translate(5.45312 15.7959)"/>
</clipPath>
</defs>
</svg>
