<svg width="82" height="82" viewBox="0 0 82 82" fill="none" xmlns="http://www.w3.org/2000/svg">
<g clip-path="url(#clip0)">
<path d="M76.7538 34.4811H68.7423C68.0192 31.3121 66.7647 28.3489 65.0801 25.6786L70.0858 20.673C71.3211 19.4376 71.3211 17.4347 70.0858 16.1994L65.6097 11.7234C64.3744 10.488 62.3715 10.488 61.1362 11.7234L56.1305 16.729C53.4602 15.0444 50.497 13.7899 47.328 13.0668V9.41211C38.4037 13.5334 31.5361 21.3472 28.6816 30.8944C31.5843 27.2959 36.0276 24.9889 40.9999 24.9889C49.7233 24.9889 56.8202 32.0858 56.8202 40.8092C56.8202 49.5327 49.7233 56.6296 40.9999 56.6296C36.0276 56.6296 31.5843 54.3226 28.6816 50.7241C31.5361 60.2713 38.4037 68.0851 47.328 72.2064V68.5517C50.497 67.8286 53.4602 66.5741 56.1305 64.8895L61.1362 69.8951C62.3715 71.1305 64.3744 71.1305 65.6097 69.8951L70.0858 65.4191C71.3211 64.1838 71.3211 62.1809 70.0858 60.9455L65.0801 55.9399C66.7647 53.2696 68.0192 50.3064 68.7423 47.1374H76.7538C78.502 47.1374 79.9178 45.7197 79.9178 43.9733V37.6452C79.9178 35.8969 78.502 34.4811 76.7538 34.4811Z" fill="#C4F0FF"/>
<path d="M55.7022 55.5118C55.0836 56.1285 55.0836 57.1322 55.7022 57.7489C56.319 58.3675 57.3226 58.3675 57.9393 57.7489C58.5579 57.1322 58.5579 56.1285 57.9393 55.5118C57.3226 54.8932 56.319 54.8932 55.7022 55.5118Z" fill="black"/>
<path d="M26.2987 26.1083C26.9173 25.4915 26.9173 24.4879 26.2987 23.8712C25.682 23.2526 24.6784 23.2526 24.0616 23.8712C23.443 24.4879 23.443 25.4915 24.0616 26.1083C24.6784 26.7269 25.682 26.7269 26.2987 26.1083Z" fill="black"/>
<path d="M76.7539 32.8994H69.9765C69.3103 30.464 68.3376 28.1261 67.0732 25.923L71.2044 21.7924C72.1005 20.8958 72.5943 19.7043 72.5943 18.4368C72.5943 17.1693 72.1005 15.9772 71.2044 15.0812L66.7284 10.6051C65.8323 9.70906 64.6409 9.21529 63.3728 9.21529C62.1053 9.21529 60.9138 9.70906 60.0171 10.6051L55.8865 14.7363C53.6834 13.4719 51.3456 12.4992 48.9102 11.8331V5.05566C48.9102 2.43851 46.7812 0.30957 44.1641 0.30957H37.8359C35.2188 0.30957 33.0898 2.43851 33.0898 5.05566V11.8331C30.6544 12.4992 28.3166 13.4719 26.1135 14.7363L21.9829 10.6051C20.1326 8.7549 17.1218 8.7549 15.2716 10.6051L10.7956 15.0806C8.94533 16.9314 8.94533 19.9416 10.7956 21.7918L14.9268 25.923C13.6624 28.1261 12.6897 30.464 12.0235 32.8994H5.24609C2.62894 32.8994 0.5 35.0284 0.5 37.6455V43.9736C0.5 46.5908 2.62894 48.7197 5.24609 48.7197H12.0235C12.6897 51.1552 13.6624 53.493 14.9268 55.6961L10.7956 59.8267C8.94533 61.6769 8.94533 64.6877 10.7956 66.538L15.2716 71.014C17.1218 72.8642 20.1326 72.8642 21.9829 71.014L26.1135 66.8828C28.3166 68.1472 30.6544 69.1199 33.0898 69.7861V76.5635C33.0898 79.1806 35.2188 81.3096 37.8359 81.3096H44.1641C46.7812 81.3096 48.9102 79.1806 48.9102 76.5635V69.7861C51.3456 69.1199 53.6834 68.1472 55.8865 66.8828L60.0177 71.014C60.9138 71.9101 62.1053 72.4038 63.3734 72.4038C64.6409 72.4038 65.8323 71.9101 66.729 71.014L71.2044 66.5386C72.1005 65.6419 72.5943 64.4504 72.5943 63.183C72.5943 61.9155 72.1005 60.7234 71.2044 59.8273L67.0732 55.6961C68.3376 53.4936 69.3103 51.1558 69.9765 48.7203H76.7539C79.3711 48.7203 81.5 46.5908 81.5 43.9743V37.6461C81.5 35.0284 79.3711 32.8994 76.7539 32.8994ZM78.3359 43.9736C78.3359 44.8462 77.6265 45.5557 76.7539 45.5557H68.7424C68.0045 45.5557 67.3643 46.0661 67.1999 46.7854C66.5288 49.7264 65.3658 52.5228 63.7423 55.0961C63.348 55.7215 63.4389 56.5359 63.9617 57.0588L68.9667 62.0644C69.2658 62.3629 69.4308 62.7603 69.4308 63.183C69.4308 63.605 69.2658 64.0024 68.9667 64.3009L64.4913 68.7769C64.1928 69.0754 63.7955 69.2398 63.3734 69.2398C62.9507 69.2398 62.5539 69.0754 62.2548 68.7763L57.2492 63.7713C56.7264 63.2485 55.9119 63.1576 55.2865 63.5519C52.7132 65.1753 49.9175 66.339 46.9765 67.0095C46.2565 67.1739 45.7467 67.8141 45.7467 68.552V76.5635C45.7467 77.4361 45.0367 78.1455 44.1647 78.1455H37.8366C36.964 78.1455 36.2545 77.4361 36.2545 76.5635V68.552C36.2545 67.8141 35.7435 67.1739 35.0241 67.0095C32.0832 66.3384 29.2874 65.1753 26.7141 63.5519C26.454 63.3875 26.161 63.3078 25.87 63.3078C25.4615 63.3078 25.0561 63.466 24.7508 63.7713L19.7458 68.7763C19.129 69.393 18.1254 69.393 17.5087 68.7763L13.0333 64.3009C12.4165 63.6848 12.4165 62.6812 13.0333 62.0644L18.0389 57.0588C18.5617 56.5359 18.6526 55.7208 18.2583 55.0961C16.6349 52.5222 15.4712 49.7264 14.8001 46.7861C14.6363 46.0661 13.9961 45.5557 13.2576 45.5557H5.24609C4.3735 45.5557 3.66406 44.8462 3.66406 43.9736V37.6455C3.66406 36.7729 4.3735 36.0635 5.24609 36.0635H13.2576C13.9955 36.0635 14.6357 35.553 14.8001 34.8331C15.4712 31.8927 16.6342 29.0964 18.2577 26.5231C18.6526 25.8977 18.5611 25.0832 18.0389 24.5604L13.0333 19.5547C12.4165 18.9386 12.4165 17.935 13.0333 17.3183L17.5087 12.8428C18.1254 12.2261 19.129 12.2261 19.7452 12.8428L24.7508 17.8485C25.2736 18.3713 26.0887 18.4621 26.7135 18.0679C29.2874 16.4438 32.0832 15.2808 35.0241 14.6096C35.7435 14.4453 36.2539 13.8057 36.2539 13.0672V5.05566C36.2539 4.18307 36.964 3.47363 37.8359 3.47363H44.1641C45.0367 3.47363 45.7461 4.18307 45.7461 5.05566V13.0672C45.7461 13.805 46.2565 14.4453 46.9765 14.6096C49.9168 15.2808 52.7132 16.4438 55.2865 18.0673C55.9113 18.4615 56.7264 18.3707 57.2492 17.8485L62.2548 12.8428C62.5539 12.5437 62.9507 12.3794 63.3734 12.3794C63.7955 12.3794 64.1928 12.5437 64.4913 12.8428L68.9667 17.3183C69.2658 17.6174 69.4302 18.0141 69.4302 18.4368C69.4302 18.8589 69.2658 19.2562 68.9667 19.5547L63.9611 24.5604C63.4389 25.0832 63.3474 25.8983 63.7423 26.5231C65.3658 29.0964 66.5288 31.8921 67.1999 34.8337C67.3643 35.553 68.0039 36.0635 68.7424 36.0635H76.7539C77.6265 36.0635 78.3359 36.7729 78.3359 37.6455V43.9736Z" fill="black"/>
<path d="M46.2096 36.527L39.418 43.3186L35.7904 39.691C35.1724 39.073 34.1713 39.073 33.5533 39.691C32.9353 40.309 32.9353 41.3101 33.5533 41.9281L38.2994 46.6742C38.6084 46.9832 39.0132 47.1377 39.418 47.1377C39.8227 47.1377 40.2275 46.9832 40.5365 46.6742L48.4467 38.7641C49.0647 38.1461 49.0647 37.1449 48.4467 36.527C47.8287 35.909 46.8276 35.909 46.2096 36.527Z" fill="black"/>
<path d="M41 23.4072C31.4046 23.4072 23.5977 31.2142 23.5977 40.8096C23.5977 50.405 31.4046 58.2119 41 58.2119C50.5954 58.2119 58.4023 50.405 58.4023 40.8096C58.4023 31.2142 50.5954 23.4072 41 23.4072ZM41 55.0479C33.1492 55.0479 26.7617 48.6604 26.7617 40.8096C26.7617 32.9587 33.1492 26.5713 41 26.5713C48.8508 26.5713 55.2383 32.9587 55.2383 40.8096C55.2383 48.6604 48.8508 55.0479 41 55.0479Z" fill="black"/>
<path d="M41 17.0791C40.1262 17.0791 39.418 17.7873 39.418 18.6611C39.418 19.535 40.1262 20.2432 41 20.2432C52.3406 20.2432 61.5664 29.469 61.5664 40.8096C61.5664 44.2591 60.6969 47.671 59.0512 50.6763C58.631 51.4426 58.9122 52.4041 59.6785 52.8237C59.9195 52.956 60.1803 53.0184 60.4374 53.0184C60.9966 53.0184 61.5386 52.7212 61.826 52.1959C63.7262 48.7265 64.7305 44.7887 64.7305 40.8096C64.7305 27.7244 54.0851 17.0791 41 17.0791Z" fill="black"/>
<path d="M41 61.3758C29.6594 61.3758 20.4336 52.15 20.4336 40.8094C20.4336 37.3598 21.3037 33.948 22.9494 30.9427C23.369 30.1764 23.0878 29.2149 22.3215 28.7953C21.5552 28.3756 20.5937 28.6568 20.174 29.4231C18.2738 32.8925 17.2695 36.8302 17.2695 40.8094C17.2695 53.8945 27.9149 64.5399 41 64.5399C41.8738 64.5399 42.582 63.8317 42.582 62.9579C42.582 62.084 41.8738 61.3758 41 61.3758Z" fill="black"/>
</g>
<defs>
<clipPath id="clip0">
<rect width="81" height="81" fill="white" transform="translate(0.5 0.30957)"/>
</clipPath>
</defs>
</svg>
