<svg width="101" height="101" viewBox="0 0 101 101" fill="none" xmlns="http://www.w3.org/2000/svg">
<g clip-path="url(#clip0)">
<path d="M93.8912 50.0579C95.9954 45.8633 97.6517 41.6465 98.8015 37.4915C102.406 24.4727 100.661 13.5711 93.8851 6.79615C87.1102 0.0212348 76.2085 -1.72514 63.1897 1.87976C59.0347 3.02951 54.818 4.68662 50.6233 6.79004C45.4048 4.17087 40.1787 2.25436 35.1433 1.15039C23.4474 -1.41309 13.5894 0.591914 7.38597 6.79615C3.40418 10.7779 1.09476 16.3726 0.70871 22.9758C0.361572 28.9161 1.56549 35.7329 4.18924 42.7551C2.0347 44.4587 0.648438 47.0924 0.648438 50.0457C0.648438 52.9991 2.0347 55.6327 4.18924 57.3364C1.56549 64.3585 0.361572 71.1761 0.70871 77.1156C1.09552 83.7188 3.40418 89.3135 7.38597 93.2953C11.8324 97.7425 18.0709 100.035 25.6065 100.035C27.1194 100.035 28.685 99.9428 30.2994 99.7566C36.7607 99.0112 43.6645 96.8101 50.6332 93.306C54.8248 95.4079 59.0386 97.0627 63.1897 98.2117C67.6201 99.4385 71.8056 100.046 75.6669 100.046C83.1505 100.046 89.4158 97.7646 93.8851 93.2953C100.089 87.0918 102.094 77.2339 99.5309 65.5372C98.4269 60.5026 96.5104 55.2764 93.8912 50.0579V50.0579ZM63.9725 4.70798C75.9285 1.39758 85.8147 2.87616 91.8099 8.87134C97.8051 14.8665 99.2837 24.7527 95.9733 36.7087C95.0463 40.0581 93.773 43.4531 92.1891 46.8452C89.351 41.7556 85.8605 36.7126 81.8162 31.9022C83.0552 30.3229 83.7967 28.3355 83.7967 26.1771C83.7967 24.0905 83.1215 22.119 81.8429 20.4757L79.5266 22.277C80.4009 23.4008 80.8625 24.7497 80.8625 26.1771C80.8625 29.6836 78.0098 32.5355 74.5041 32.5355C70.9984 32.5355 68.1458 29.6836 68.1458 26.1771C68.1458 22.6706 70.9984 19.8188 74.5041 19.8188C75.6485 19.8188 76.7708 20.1255 77.7482 20.7068L79.2481 18.1846C77.8168 17.3339 76.1765 16.8837 74.5041 16.8837C72.3458 16.8837 70.3583 17.6261 68.7798 18.8651C63.9687 14.8208 58.9256 11.3303 53.8361 8.4914C57.2281 6.9083 60.6232 5.63495 63.9725 4.70798V4.70798ZM9.46116 8.87134C17.395 0.937526 31.9427 1.23355 47.4228 8.48301C39.8659 12.6975 32.4539 18.341 25.692 25.1021C20.6779 30.1162 16.2651 35.5018 12.5579 41.1239C11.7225 40.8813 10.8436 40.7523 9.94182 40.7523C8.83174 40.7523 7.76744 40.9492 6.77943 41.307C1.69519 27.4497 2.64734 15.6844 9.46116 8.87134ZM25.6828 97.0901C19.0445 97.0901 13.401 95.1599 9.4604 91.2201C2.64734 84.407 1.69443 72.6425 6.77943 58.7844C7.76744 59.143 8.83174 59.3391 9.94182 59.3391C10.849 59.3391 11.7248 59.2056 12.5549 58.9622C16.262 64.5866 20.6764 69.9737 25.692 74.9893C32.4516 81.7482 39.8613 87.3901 47.4159 91.6046C39.6561 95.2362 32.1907 97.0909 25.6828 97.0901V97.0901ZM50.6271 90.0078C42.701 85.8444 34.8739 80.0201 27.7672 72.9141C22.9919 68.1381 18.7797 63.0203 15.2282 57.6827C17.6468 56.0035 19.2344 53.2073 19.2344 50.0465C19.2344 49.7711 19.223 49.4926 19.1986 49.2187L16.275 49.4773C16.2918 49.665 16.3002 49.8557 16.3002 50.0457C16.3002 53.5522 13.4475 56.4041 9.94182 56.4041C6.4361 56.4041 3.58347 53.5522 3.58347 50.0457C3.58347 46.5392 6.4361 43.6874 9.94182 43.6874C12.3634 43.6874 14.5431 45.0332 15.6295 47.1992L18.2525 45.8839C17.5354 44.4534 16.4901 43.2685 15.2343 42.398C18.7851 37.065 22.995 31.9495 27.7672 27.1773C34.8755 20.069 42.7055 14.2432 50.634 10.0798C56.0303 12.9203 61.4899 16.5824 66.7794 21.0174C65.7891 22.4944 65.2108 24.269 65.2108 26.1771C65.2108 31.301 69.3802 35.4697 74.5041 35.4697C76.4122 35.4697 78.1868 34.8914 79.6639 33.9011C84.0989 39.1906 87.7602 44.651 90.6006 50.0465C86.4373 57.9749 80.6115 65.805 73.5039 72.9141C72.7219 73.6953 71.9185 74.472 71.1068 75.2327C69.487 73.8624 67.3958 73.0339 65.1131 73.0339C63.0265 73.0339 61.055 73.7098 59.4116 74.9878L61.2137 77.304C62.3368 76.4305 63.6856 75.9689 65.1131 75.9681C68.6188 75.9681 71.4714 78.8208 71.4714 82.3265C71.4714 85.833 68.6188 88.6848 65.1131 88.6848C61.6074 88.6848 58.7547 85.833 58.7547 82.3265C58.7547 81.1821 59.0615 80.0605 59.6428 79.0832L57.1205 77.5825C56.2699 79.0138 55.8197 80.6541 55.8197 82.3265C55.8197 83.799 56.1653 85.1906 56.7772 86.4288C54.7211 87.7411 52.6672 88.9343 50.6271 90.0078V90.0078ZM91.8099 91.2201C85.8147 97.216 75.9285 98.6938 63.9725 95.3842C60.6255 94.4572 57.2334 93.1854 53.8437 91.6031C55.3894 90.7394 56.9359 89.8125 58.4778 88.8252C60.1662 90.5479 62.516 91.6199 65.1131 91.6199C70.237 91.6199 74.4065 87.4512 74.4065 82.3272C74.4065 80.5427 73.8999 78.8757 73.0248 77.4582C73.89 76.6487 74.746 75.8216 75.5783 74.9893C82.3403 68.2266 87.983 60.8146 92.1982 53.2577C99.4477 68.7385 99.7437 83.2863 91.8099 91.2201V91.2201Z" fill="#ECECEC"/>
<path d="M74.6994 65.2088H71.6675V57.8151C71.6675 54.5451 69.4694 51.6414 66.3223 50.7533L65.2252 50.4443L64.4287 53.2687L65.5258 53.5785C67.4133 54.111 68.7324 55.8528 68.7324 57.8151V65.2088H63.4498V61.198H60.5156V65.2088H47.3091V68.143H74.6994V65.2088Z" fill="#ECECEC"/>
<path d="M55.4882 50.7471L61.604 52.4729L62.4012 49.6477L56.4068 47.957V44.0599C59.1206 42.209 60.9066 39.094 60.9066 35.5684V31.2639C60.9066 25.6006 56.2992 20.9924 50.6352 20.9924C44.9719 20.9924 40.3637 25.6006 40.3637 31.2639V35.5684C40.3637 39.094 42.1498 42.209 44.8635 44.0599V47.957L34.9484 50.7532C31.8012 51.6413 29.6032 54.545 29.6032 57.815V65.2086H26.5713V68.1429H44.3745V65.2086H40.7551V61.1979H37.8208V65.2086H32.5382V57.815C32.5382 55.8527 33.8574 54.1109 35.7449 53.5784L45.7821 50.7479C47.0181 52.0998 48.7637 52.8833 50.6352 52.8833C52.5067 52.8833 54.253 52.099 55.4882 50.7471V50.7471ZM50.6352 23.9275C54.6803 23.9275 57.9716 27.2188 57.9716 31.2647V32.8989L54.887 28.8187H43.7191C44.7285 25.9721 47.4469 23.9275 50.6352 23.9275ZM43.2988 35.5684V31.7537H53.4268L57.7282 37.4422C56.8974 40.5832 54.0326 42.9048 50.6352 42.9048C46.5901 42.9048 43.2988 39.6135 43.2988 35.5684ZM47.7986 48.5941V45.4378C48.6996 45.698 49.651 45.8399 50.6352 45.8399C51.6194 45.8399 52.57 45.698 53.4718 45.4378V48.5941C52.7821 49.4478 51.7491 49.9483 50.6352 49.9483C49.5213 49.9483 48.4875 49.4478 47.7986 48.5941Z" fill="#ECECEC"/>
<path d="M58.3856 57.6625L54.252 56.4968L55.0492 53.6724L59.1821 54.8381L58.3856 57.6625Z" fill="#ECECEC"/>
<path d="M64.8277 56.4259L64.0305 59.2503L61.2061 58.4538L62.0033 55.6294L64.8277 56.4259Z" fill="#ECECEC"/>
<path d="M73.0366 24.7102H75.9709V27.6452H73.0366V24.7102Z" fill="#ECECEC"/>
<path d="M63.646 80.8604H66.5803V83.7946H63.646V80.8604Z" fill="#ECECEC"/>
<path d="M8.47412 48.5786H11.4092V51.5129H8.47412V48.5786Z" fill="#ECECEC"/>
</g>
<defs>
<clipPath id="clip0">
<rect width="100" height="100" fill="white" transform="translate(0.453125 0.0458984)"/>
</clipPath>
</defs>
</svg>
