<svg width="77" height="78" viewBox="0 0 77 78" fill="none" xmlns="http://www.w3.org/2000/svg">
<g clip-path="url(#clip0)">
<path d="M57.4314 25.2288C54.6324 25.2288 52.3633 27.5277 52.3633 30.3636C52.3633 33.1994 54.6324 35.4984 57.4314 35.4984C60.2304 35.4984 62.4995 33.1994 62.4995 30.3636C62.4995 27.5277 60.2304 25.2288 57.4314 25.2288ZM57.4314 32.931C56.0318 32.931 54.8973 31.7816 54.8973 30.3636C54.8973 28.9456 56.0318 27.7962 57.4314 27.7962C58.831 27.7962 59.9655 28.9456 59.9655 30.3636C59.9655 31.7816 58.8308 32.931 57.4314 32.931Z" fill="white"/>
<path d="M57.4314 43.2007C54.6324 43.2007 52.3633 45.4996 52.3633 48.3355C52.3633 51.1713 54.6324 53.4703 57.4314 53.4703C60.2304 53.4703 62.4995 51.1713 62.4995 48.3355C62.4995 45.4996 60.2304 43.2007 57.4314 43.2007ZM57.4314 50.9029C56.0318 50.9029 54.8973 49.7535 54.8973 48.3355C54.8973 46.9175 56.0318 45.7681 57.4314 45.7681C58.831 45.7681 59.9655 46.9175 59.9655 48.3355C59.9655 49.7535 58.8308 50.9029 57.4314 50.9029Z" fill="white"/>
<path d="M48.5632 34.2146C45.7642 34.2146 43.4951 36.5136 43.4951 39.3494C43.4951 42.1853 45.7642 44.4842 48.5632 44.4842C51.3623 44.4842 53.6314 42.1853 53.6314 39.3494C53.6314 36.5136 51.3623 34.2146 48.5632 34.2146ZM48.5632 41.9168C47.1636 41.9168 46.0292 40.7674 46.0292 39.3494C46.0292 37.9314 47.1636 36.782 48.5632 36.782C49.9628 36.782 51.0973 37.9314 51.0973 39.3494C51.0973 40.7674 49.9627 41.9168 48.5632 41.9168Z" fill="white"/>
<path d="M66.3015 34.2146C63.5025 34.2146 61.2334 36.5136 61.2334 39.3494C61.2334 42.1853 63.5025 44.4842 66.3015 44.4842C69.1006 44.4842 71.3696 42.1853 71.3696 39.3494C71.3696 36.5136 69.1006 34.2146 66.3015 34.2146ZM66.3015 41.9168C64.9019 41.9168 63.7675 40.7674 63.7675 39.3494C63.7675 37.9314 64.9019 36.782 66.3015 36.782C67.7011 36.782 68.8356 37.9314 68.8356 39.3494C68.8356 40.7674 67.701 41.9168 66.3015 41.9168Z" fill="white"/>
<path d="M29.5591 34.2147H24.4909V29.0798C24.4909 28.3709 23.9236 27.7961 23.2239 27.7961H15.6217C14.922 27.7961 14.3547 28.3709 14.3547 29.0798V34.2147H9.28656C8.58684 34.2147 8.01953 34.7894 8.01953 35.4984V43.2006C8.01953 43.9095 8.58684 44.4843 9.28656 44.4843H14.3547V49.6191C14.3547 50.328 14.922 50.9028 15.6217 50.9028H23.2239C23.9236 50.9028 24.4909 50.328 24.4909 49.6191V44.4843H29.5591C30.2588 44.4843 30.8261 43.9095 30.8261 43.2006V35.4984C30.8261 34.7893 30.2588 34.2147 29.5591 34.2147ZM28.292 41.9169H23.2239C22.5242 41.9169 21.9569 42.4916 21.9569 43.2006V48.3354H16.8887V43.2006C16.8887 42.4916 16.3214 41.9169 15.6217 41.9169H10.5536V36.7821H15.6217C16.3214 36.7821 16.8887 36.2073 16.8887 35.4984V30.3635H21.9569V35.4984C21.9569 36.2073 22.5242 36.7821 23.2239 36.7821H28.292V41.9169Z" fill="white"/>
<path d="M57.5854 20.1028C57.5345 20.0965 57.4834 20.0936 57.4321 20.0938H19.4212C19.3703 20.0935 19.3195 20.0965 19.2691 20.1028C8.69843 20.2767 0.268394 29.0996 0.440076 39.8092C0.6097 50.3885 9.11718 58.8778 19.5605 58.8885C24.5105 58.9033 29.2706 56.9591 32.8263 53.47H44.0269C51.644 60.8958 63.7603 60.6594 71.0896 52.9423C74.5223 49.3278 76.4391 44.5064 76.4375 39.4905C76.4068 28.9075 68.0294 20.2919 57.5854 20.1028ZM57.294 56.3224L57.2927 56.3211C52.8364 56.3335 48.5648 54.5178 45.451 51.2877C45.2135 51.0421 44.8885 50.9034 44.5489 50.9026H32.3043C31.9649 50.9034 31.6398 51.0421 31.4022 51.2877C24.9739 57.916 14.4593 58.0094 7.9173 51.4965C1.3753 44.9836 1.28297 34.3307 7.71125 27.7026C10.8031 24.5145 15.02 22.7039 19.4313 22.6702C19.4736 22.6702 19.516 22.6676 19.558 22.6625H57.294C57.3361 22.6676 57.3784 22.6702 57.4207 22.6702C66.5926 22.7786 73.941 30.3997 73.834 39.6921C73.7282 48.8816 66.3646 56.2852 57.294 56.3224Z" fill="white"/>
</g>
<defs>
<clipPath id="clip0">
<rect width="76" height="77" fill="white" transform="translate(0.4375 0.991211)"/>
</clipPath>
</defs>
</svg>
