<svg width="584" height="417" viewBox="0 0 584 417" fill="none" xmlns="http://www.w3.org/2000/svg">
<path d="M399.564 304.193H161.874L161.874 145.032C161.874 143.995 162.089 142.968 162.507 142.01C162.926 141.052 163.539 140.181 164.312 139.448C165.085 138.714 166.002 138.132 167.012 137.736C168.022 137.339 169.104 137.134 170.197 137.134L391.232 137.134C392.325 137.134 393.408 137.339 394.417 137.736C395.427 138.132 396.345 138.714 397.118 139.448C397.891 140.181 398.504 141.052 398.922 142.01C399.34 142.968 399.556 143.995 399.556 145.032V304.193H399.564Z" fill="url(#paint0_linear)"/>
<path d="M170.277 273.827H390.74V145.316L170.277 145.316L170.277 273.827Z" fill="url(#paint1_linear)"/>
<path d="M147.117 145.95H91.041L91.1377 145.474C91.5803 143.348 92.7853 141.432 94.5478 140.053C96.3103 138.675 98.5216 137.917 100.806 137.91C101.485 137.91 102.163 137.977 102.828 138.11C104.158 135.711 106.11 133.673 108.5 132.188C110.89 130.703 113.639 129.82 116.488 129.623C119.337 129.425 122.193 129.919 124.785 131.058C127.377 132.197 129.621 133.944 131.305 136.134C132.986 135.647 134.758 135.507 136.501 135.725C138.244 135.942 139.918 136.511 141.409 137.394C142.901 138.277 144.176 139.452 145.148 140.842C146.121 142.231 146.768 143.802 147.047 145.449L147.117 145.95ZM92.0782 145.116H146.133C145.599 142.661 144.193 140.455 142.149 138.867C140.106 137.279 137.55 136.405 134.909 136.392C133.684 136.39 132.467 136.576 131.305 136.943L131.006 137.034L130.83 136.792C129.239 134.646 127.089 132.928 124.589 131.805C122.09 130.682 119.326 130.194 116.568 130.387C113.81 130.58 111.152 131.449 108.853 132.907C106.554 134.366 104.693 136.366 103.452 138.711L103.302 138.994L102.977 138.919C102.276 138.752 101.555 138.668 100.832 138.669C98.8267 138.672 96.8787 139.306 95.2943 140.473C93.7098 141.64 92.5786 143.273 92.0782 145.116V145.116Z" fill="#6AAFE8"/>
<path d="M353.068 80.4059L352.883 80.3142C332.976 70.6731 335.647 51.9999 335.683 51.8164L335.735 51.4744H336.096C348.744 51.4744 352.725 47.6047 352.796 47.5713L353.103 47.2544L353.411 47.5713C353.455 47.5713 357.428 51.4744 370.111 51.4744H370.48L370.532 51.8164C370.532 51.9999 373.231 70.6731 353.332 80.3142L353.068 80.4059ZM336.474 52.2667C336.219 54.7687 335.384 70.8232 353.068 79.5135C370.761 70.8232 369.917 54.8021 369.671 52.2667C358.684 52.2084 354.211 49.2977 353.068 48.372C351.925 49.2977 347.452 52.2084 336.474 52.2667Z" fill="#6AAFE8"/>
<path d="M461.96 328.546C458.972 315.561 465.476 312.316 471.699 309.18C476.814 306.62 481.648 304.176 481.367 296.545C481.033 286.404 488.319 282.709 494.745 279.448C499.526 277.03 504.044 274.736 504.712 270.124C506.338 259.007 517.14 245.204 517.245 245.062L517.913 245.538C517.808 245.671 507.137 259.324 505.547 270.233C504.817 275.237 500.115 277.63 495.14 280.149C488.618 283.485 481.886 286.871 482.211 296.52C482.483 304.677 477.192 307.321 472.077 309.864C465.819 312.992 459.903 315.953 462.76 328.354L461.96 328.546Z" fill="url(#paint2_linear)"/>
<path d="M465.246 325.26H464.816C462.109 325.068 459.454 323.116 456.466 319.113L456.281 318.863L456.492 318.629C456.492 318.571 461.326 313.033 459.568 302.625C459.229 300.673 458.762 298.743 458.171 296.845C457.529 294.669 457.099 293.234 457.811 292.083C458.69 290.624 461.159 289.865 468.041 288.305C475.372 286.637 477.824 278.814 479.986 271.9C482.016 265.395 483.95 259.249 489.654 259.441C494.928 259.632 502.838 251.843 509.87 244.971C516.383 238.599 522.535 232.594 526.464 232.719C526.92 232.727 527.368 232.831 527.777 233.023C528.186 233.215 528.545 233.49 528.828 233.828C532.344 237.79 529.066 243.836 525.902 249.608C523.203 254.57 520.628 259.249 522.298 262.335C524.363 266.221 524.645 269.732 523.177 272.493C521.419 275.762 517.2 277.864 510.749 278.756C504.851 279.59 504.218 285.67 503.542 292.1C502.759 299.606 501.863 308.188 491.966 308.997C484.618 309.606 479.661 314.501 475.266 318.821C471.768 322.249 468.745 325.26 465.246 325.26ZM457.336 318.888C460.052 322.466 462.53 324.292 464.877 324.459C468.173 324.684 471.17 321.724 474.642 318.296C479.116 313.867 484.187 308.863 491.852 308.229C501.054 307.479 501.872 299.631 502.663 292.042C503.375 285.261 504.043 278.856 510.573 277.955C516.726 277.121 520.707 275.145 522.368 272.117C523.757 269.615 523.467 266.329 521.489 262.685C519.652 259.24 522.298 254.345 525.102 249.241C528.134 243.661 531.254 237.89 528.125 234.337C527.917 234.082 527.65 233.875 527.346 233.731C527.042 233.587 526.708 233.509 526.367 233.503C522.808 233.386 516.778 239.274 510.397 245.521C503.076 252.702 495.429 260.208 489.83 260.208H489.619C484.565 260.024 482.807 265.62 480.83 272.092C478.606 279.215 476.084 287.279 468.279 289.048C462.056 290.449 459.331 291.241 458.61 292.45C458.074 293.284 458.443 294.544 459.05 296.62C459.648 298.537 460.121 300.486 460.465 302.458C462.029 312.133 458.276 317.654 457.336 318.863V318.888Z" fill="url(#paint3_linear)"/>
<path d="M465.554 322.516H465.264C460.826 322.132 457.407 312.9 454.111 303.976C452.863 300.274 451.362 296.652 449.619 293.134C448.503 291.141 447.088 289.064 445.708 287.063C442.052 281.717 438.272 276.221 439.503 271.333C440.153 268.781 442.078 266.655 445.4 264.836C452.678 260.858 451.553 258.615 449.11 253.686C446.304 248.643 444.798 243.041 444.715 237.339C444.671 234.003 444.592 231.101 444.522 228.549C444.284 220.343 444.17 216.223 446.016 214.73C446.78 214.121 447.853 213.954 449.382 214.238C452.019 214.705 453.135 216.74 454.33 218.841C455.86 221.552 457.6 224.621 462.83 225.655C467.743 226.631 472.498 227.965 473.764 231.059C474.687 233.236 473.816 236.063 471.127 239.808C470.838 240.127 470.627 240.502 470.509 240.907C470.39 241.312 470.367 241.737 470.441 242.152C470.872 243.645 473.315 244.729 476.154 245.988C480.18 247.773 485.199 249.991 486.623 254.595C487.765 258.298 486.438 262.935 482.571 268.731C473.412 282.459 473.781 291.775 474.106 299.998C474.344 306.086 474.572 311.832 470.705 318.262C469.017 321.131 467.321 322.516 465.554 322.516ZM448.108 214.93C447.564 214.899 447.027 215.056 446.596 215.372C445.058 216.615 445.172 220.86 445.392 228.557C445.462 231.118 445.541 234.012 445.585 237.364C445.682 244.979 448.099 249.833 449.865 253.386C452.3 258.265 453.768 261.217 445.822 265.562C442.711 267.23 440.909 269.223 440.311 271.55C439.169 276.07 442.852 281.45 446.411 286.662C447.8 288.681 449.224 290.774 450.358 292.792C452.124 296.328 453.639 299.973 454.893 303.701C457.96 311.982 461.432 321.373 465.335 321.715C466.829 321.84 468.393 320.556 469.993 317.904C473.746 311.674 473.509 306.286 473.289 300.056C472.955 291.716 472.586 282.275 481.885 268.364C485.612 262.76 486.913 258.356 485.831 254.87C484.522 250.617 479.899 248.573 475.812 246.764C472.797 245.429 470.186 244.262 469.659 242.419C469.551 241.893 469.567 241.35 469.707 240.831C469.847 240.312 470.107 239.828 470.468 239.416C472.999 235.938 473.834 233.32 473.034 231.41C471.874 228.658 467.163 227.382 462.698 226.497C457.09 225.38 455.174 221.994 453.636 219.275C452.485 217.232 451.491 215.472 449.241 215.105C448.87 215.015 448.49 214.957 448.108 214.93V214.93Z" fill="url(#paint4_linear)"/>
<path d="M465.643 327.445L464.843 327.203C469.317 313.776 461.221 283.66 458.813 276.329C457.627 272.727 458.725 267.306 459.78 262.06C461.151 255.279 462.566 248.274 458.954 245.647C452.177 240.718 452.538 229.3 452.555 228.816H453.434C453.434 228.925 453.074 240.301 459.508 244.979C463.533 247.907 462.065 255.162 460.65 262.176C459.613 267.322 458.532 272.651 459.657 276.063C462.593 285.161 470.108 314.051 465.643 327.445Z" fill="url(#paint5_linear)"/>
<path d="M431.796 240.251C429.932 235.764 422.655 236.448 423.323 242.794C423.991 249.141 428.675 255.905 421.565 266.697C414.454 277.489 430.706 279.599 436.507 286.371C442.308 293.143 444.312 302.442 449.216 308.372C454.12 314.302 457.469 328.463 461.477 323.175C465.485 317.888 461.714 311.007 462.163 301.491C462.611 291.975 471.532 285.946 462.602 279.807C453.672 273.669 444.698 271.793 447.66 257.957C448.908 251.868 437.588 254.212 431.796 240.251Z" fill="url(#paint6_linear)"/>
<path d="M467.937 324.426C467.937 324.142 462.935 296.262 451.835 288.622C440.514 280.824 438.457 273.61 434.502 256.655L435.319 256.48C439.231 273.243 441.252 280.357 452.327 287.972C463.7 295.811 468.561 323.133 468.763 324.293L467.937 324.426Z" fill="white"/>
<path d="M457.925 323.4C457.925 323.4 461.221 315.661 455.218 304.66C449.215 293.66 444.354 295.353 458.804 286.896C473.254 278.439 458.892 251.776 471.206 248.39C483.52 245.004 494.252 201.828 503.63 207.349C513.008 212.87 500.51 233.996 507.198 240.342C513.887 246.689 514.775 254.771 500.958 261.309C487.141 267.848 510.767 292.809 492.037 300.432C473.307 308.055 478.668 337.912 457.925 323.4Z" fill="url(#paint7_linear)"/>
<path d="M463.647 331.606C463.647 331.506 461.608 321.598 467.971 308.796C474.458 295.753 477.561 281.491 476.268 270.649C475.574 264.811 479.538 262.484 483.37 260.258C487.202 258.031 491.052 255.812 490.832 250.025C490.639 244.804 492.968 232.511 493.074 232.035L493.9 232.177C493.9 232.302 491.483 244.862 491.676 250C491.905 256.246 487.791 258.631 483.81 260.942C480.03 263.127 476.471 265.195 477.103 270.558C478.404 281.541 475.275 295.961 468.727 309.138C462.496 321.648 464.447 331.356 464.464 331.448L463.647 331.606Z" fill="white"/>
<path d="M478.783 276.93C482.985 273.218 488.548 272.685 487.388 278.189C486.228 283.693 482.255 285.253 484.241 288.714C486.228 292.175 489.515 295.62 483.916 299.865C478.317 304.11 475.127 304.577 473.483 312.592C471.84 320.606 472.156 326.077 464.87 326.419C457.583 326.761 460.405 316.678 462.716 312.116C463.771 310.297 464.418 308.29 464.618 306.222C464.818 304.154 464.565 302.069 463.877 300.098C461.556 293.268 457.091 289.582 466.513 287.263C475.936 284.944 475.944 279.39 478.783 276.93Z" fill="white"/>
<path d="M465.397 331.54C465.397 330.556 464.878 307.479 469.422 303.593C473.966 299.706 474.96 292.617 475.083 288.789C475.241 283.785 482.026 280.841 482.316 280.716L482.659 281.442C482.589 281.442 476.058 284.319 475.918 288.806C475.768 293.635 474.617 300.224 469.985 304.185C465.722 307.83 466.232 331.282 466.232 331.524L465.397 331.54Z" fill="url(#paint8_linear)"/>
<path d="M482.483 322.116L474.942 349.288H458.075L450.525 322.116H482.483Z" fill="url(#paint9_linear)"/>
<path d="M482.483 322.116C482.483 322.116 465.836 325.077 465.836 349.288H458.04L450.49 322.116H482.483Z" fill="url(#paint10_linear)"/>
<path d="M185.166 251.126H162.955V253.511H185.166V251.126Z" fill="#1487E3"/>
<path d="M158.314 185.281H122.857V142.255H123.701V184.481H158.314V185.281Z" fill="#78C2FF"/>
<path d="M308.375 156.934H307.531V112.573H352.647V75.2686H353.491V113.366H308.375V156.934Z" fill="#78C2FF"/>
<path d="M454.12 206.348H407.176V205.547H453.285V179.685H454.12V206.348Z" fill="#78C2FF"/>
<path d="M103.177 242.286C103.177 242.286 102.167 255.671 104.935 257.298C106.693 258.298 113.54 261.684 113.338 262.302C113.136 262.919 109.453 267.948 109.453 267.948C109.453 267.948 96.269 259.691 95.8031 257.106C95.3373 254.52 96.4535 237.507 98.2729 236.723C99.6353 236.131 100.347 236.623 102.07 237.832C104.469 239.5 103.177 242.286 103.177 242.286Z" fill="#FF7E55"/>
<path d="M101.64 339.68C101.64 339.68 101.227 342.391 101.174 342.791C101.121 343.191 96.6035 342.557 96.6035 342.557L96.2344 339.33C96.2344 339.33 101.077 339.296 101.64 339.68Z" fill="#424773"/>
<path d="M101.227 342.449C102.029 343.365 102.978 344.156 104.04 344.792C105.428 345.501 107.608 345.785 108.434 346.518C109.023 347.052 110.588 349.337 104.831 349.296C99.0735 349.254 96.3049 349.621 95.6896 348.737C95.0744 347.853 96.5686 342.265 96.5686 342.265C96.5686 342.265 97.9309 342.774 101.227 342.449Z" fill="#292C47"/>
<path d="M124.273 339.68C124.273 339.68 123.86 342.391 123.807 342.791C123.754 343.191 119.236 342.557 119.236 342.557L118.867 339.33C118.867 339.33 123.701 339.296 124.273 339.68Z" fill="#424773"/>
<path d="M123.859 342.448C124.661 343.365 125.61 344.155 126.671 344.792C128.06 345.501 133.158 346.085 133.975 346.827C134.573 347.352 135.549 349.496 127.454 349.329C121.697 349.187 118.928 349.654 118.304 348.77C117.68 347.886 119.183 342.298 119.183 342.298C119.183 342.298 120.484 342.774 123.859 342.448Z" fill="#292C47"/>
<path d="M103.257 270.099C103.257 270.099 99.0118 276.504 99.3282 282.301C99.6447 288.097 98.9503 294.277 98.3087 300.323C97.5967 307.062 95.6719 321.098 95.5576 324.701C95.4433 328.304 95.6894 341.89 95.6894 341.89L103.064 341.831C103.064 341.831 105.701 314.418 106.949 311.566C108.197 308.713 113.418 288.114 113.629 285.837C113.839 283.56 103.257 270.099 103.257 270.099Z" fill="#292C47"/>
<path d="M125.626 270.967C125.626 270.967 127.305 286.712 127.726 290.257C128.148 293.801 127.858 309.155 128.069 311.374C128.28 313.592 126.663 337.011 126.259 341.473L118.164 341.423C118.164 341.423 117.601 322.474 117.601 313.267C117.601 304.06 115.114 293.343 112.257 287.263C109.401 281.183 102.87 281.041 101.121 269.749C101.121 269.774 123.253 267.397 125.626 270.967Z" fill="#292C47"/>
<path d="M107.748 216.089C107.748 216.089 112.811 212.878 116.361 216.323C119.912 219.767 121.635 227.84 119.113 229.45C116.59 231.06 112.23 231.485 110.174 229.3C108.117 227.115 105.929 223.77 105.384 221.335C104.839 218.9 106.465 217.115 107.748 216.089Z" fill="#EEA886"/>
<path d="M117.39 230C117.39 230 117.329 233.336 117.724 234.095C118.12 234.854 110.332 234.829 110.332 234.829C109.916 232.381 109.305 229.967 108.504 227.607C107.3 224.346 117.39 230 117.39 230Z" fill="#EEA886"/>
<path d="M108.697 227.557C108.697 227.557 109.427 228.258 111.475 227.465C113.523 226.673 115.465 223.387 116.283 222.895C117.1 222.403 116.986 221.902 116.986 221.902L117.733 222.553L118.7 222.395C118.7 222.395 117.232 220.176 118.295 218.908C119.359 217.641 115.008 211.402 108.724 215.205C108.724 215.205 103.81 217.757 104.707 220.551C105.603 223.345 107.168 226.406 108.697 227.557Z" fill="#754836"/>
<path d="M118.182 234.004C118.182 234.004 118.182 232.628 117.505 232.503C116.828 232.378 110.254 231.769 109.445 232.069V233.67C109.445 233.67 111.001 234.579 118.182 234.004Z" fill="#E2D2CA"/>
<path d="M116.591 220.901C116.354 220.451 114.737 219.375 114.614 220.943C114.491 222.511 116.196 224.196 116.837 223.87C117.479 223.545 117.189 222.044 116.591 220.901Z" fill="#EEA886"/>
<path d="M106.282 216.915C106.282 216.915 99.0482 218.758 108.409 227.29L106.282 216.915Z" fill="#754836"/>
<path d="M170.979 253.444L163.596 253.377C164.238 253.027 165.266 252.393 165.037 252.11C164.712 251.701 162.62 252.602 161.768 252.685C160.735 252.669 159.705 252.775 158.7 253.002L156.371 253.945L158.507 255.821C158.507 255.821 162.365 256.346 163.49 256.421C165.327 256.547 170.953 254.47 171.041 254.153C171.208 253.586 170.979 253.444 170.979 253.444Z" fill="#EEA886"/>
<path d="M127.815 235.913C123.122 235.129 118.147 234.004 118.147 234.004L109.411 233.67C109.411 233.67 101.386 235.338 98.2305 236.697C97.9317 236.822 97.9317 243.486 97.1055 245.229L99.7423 250.475C99.7423 250.475 101.254 260.858 101.57 265.487C101.711 267.605 98.4502 285.37 98.4502 285.37C101.553 286.14 104.715 286.676 107.908 286.971C113.876 287.596 128.782 286.746 128.87 286.078C128.958 285.411 125.987 261.184 125.855 259.933C125.653 258.006 126.436 249.091 126.436 249.091C127.561 250.525 134.065 255.896 137.238 257.606C139.488 258.823 145.025 258.081 146.651 257.923C150.167 257.581 159.932 256.914 160.125 256.588C160.318 256.263 159.563 253.019 159.15 252.894C158.736 252.769 146.212 252.185 143.056 252.343C141.773 252.41 137.598 247.981 137.598 247.981C137.598 247.981 130.408 237.014 127.815 235.913Z" fill="#FF7E55"/>
<path d="M74.0684 202.395H97.1668V218.283V221.627L93.6423 218.283H74.0684V202.395Z" fill="#FFCB55"/>
<path d="M446.059 151.83H423.646V130.538H446.059V151.83ZM424.367 151.121H445.312V131.246H424.367V151.121Z" fill="#6AAFE8"/>
<path d="M501.925 138.344H450.551V133.14H501.925V138.344ZM451.298 137.635H501.177V133.849H451.298V137.635Z" fill="#6AAFE8"/>
<path d="M501.925 162.555H423.646V157.351H501.951L501.925 162.555ZM424.367 161.846H501.177V158.06H424.367V161.846Z" fill="#6AAFE8"/>
<path d="M473.491 172.546H423.646V167.342H473.517L473.491 172.546ZM424.367 171.804H472.709V168.051H424.367V171.804Z" fill="#6AAFE8"/>
<path d="M485.339 148.277H450.551V143.064H485.339V148.277ZM451.298 147.568H484.592V143.782H451.298V147.568Z" fill="#6AAFE8"/>
<path d="M510.836 183.872H414.707V119.212H510.836V183.872ZM415.454 183.163H510.089V119.921H415.454V183.163Z" fill="#6AAFE8"/>
<path d="M380.807 90.2552H373.617V89.4629H379.972V83.4331H380.807V90.2552Z" fill="#6AAFE8"/>
<path d="M332.44 90.2552H325.25V83.4331H326.085V89.4629H332.44V90.2552Z" fill="#6AAFE8"/>
<path d="M326.094 44.369H325.25V37.5386H332.44V38.3392H326.094V44.369Z" fill="#6AAFE8"/>
<path d="M380.807 44.3607H379.972V38.3392H373.617V37.5469H380.807V44.3607Z" fill="#6AAFE8"/>
<path d="M380.808 54.5518H379.973V73.2417H380.808V54.5518Z" fill="#6AAFE8"/>
<path d="M326.094 54.5518H325.25V73.2417H326.094V54.5518Z" fill="#6AAFE8"/>
<path d="M123.279 142.656C122.668 142.658 122.071 142.487 121.562 142.166C121.053 141.845 120.657 141.388 120.422 140.853C120.187 140.317 120.126 139.728 120.244 139.16C120.363 138.591 120.657 138.069 121.089 137.659C121.521 137.249 122.072 136.97 122.671 136.857C123.27 136.744 123.891 136.803 124.455 137.026C125.019 137.248 125.501 137.625 125.839 138.107C126.178 138.59 126.357 139.157 126.356 139.737C126.356 140.511 126.032 141.254 125.455 141.801C124.878 142.348 124.095 142.656 123.279 142.656V142.656ZM123.279 137.61C122.836 137.61 122.403 137.735 122.034 137.969C121.666 138.202 121.378 138.534 121.209 138.923C121.039 139.312 120.995 139.739 121.081 140.152C121.168 140.564 121.381 140.943 121.695 141.241C122.008 141.538 122.407 141.741 122.842 141.823C123.277 141.905 123.728 141.863 124.137 141.702C124.547 141.541 124.897 141.268 125.143 140.918C125.389 140.569 125.521 140.158 125.521 139.737C125.521 139.458 125.463 139.181 125.35 138.923C125.237 138.665 125.072 138.431 124.864 138.233C124.656 138.036 124.409 137.879 124.137 137.772C123.865 137.665 123.574 137.61 123.279 137.61V137.61Z" fill="#78C2FF"/>
<path d="M353.068 75.6603C352.46 75.6603 351.865 75.4891 351.359 75.1683C350.853 74.8476 350.459 74.3917 350.226 73.8583C349.994 73.3249 349.933 72.738 350.051 72.1718C350.17 71.6056 350.463 71.0854 350.893 70.6772C351.323 70.269 351.872 69.991 352.468 69.8784C353.065 69.7657 353.684 69.8235 354.246 70.0445C354.808 70.2654 355.288 70.6395 355.626 71.1196C355.964 71.5996 356.145 72.1639 356.145 72.7413C356.145 73.5154 355.821 74.2579 355.244 74.8053C354.667 75.3527 353.884 75.6603 353.068 75.6603ZM353.068 70.6563C352.625 70.6563 352.192 70.781 351.823 71.0147C351.455 71.2484 351.167 71.5805 350.998 71.9691C350.828 72.3577 350.784 72.7853 350.87 73.1979C350.957 73.6104 351.17 73.9893 351.484 74.2868C351.797 74.5842 352.196 74.7867 352.631 74.8688C353.066 74.9509 353.517 74.9087 353.926 74.7478C354.336 74.5868 354.686 74.3142 354.932 73.9645C355.178 73.6148 355.31 73.2036 355.31 72.783C355.316 72.5002 355.262 72.2192 355.152 71.9563C355.042 71.6934 354.878 71.4541 354.669 71.2521C354.46 71.0502 354.211 70.8898 353.936 70.7803C353.662 70.6709 353.367 70.6145 353.068 70.6146V70.6563Z" fill="#78C2FF"/>
<path d="M453.696 180.219C453.088 180.218 452.494 180.045 451.99 179.723C451.485 179.402 451.092 178.945 450.861 178.412C450.629 177.878 450.569 177.291 450.689 176.726C450.809 176.16 451.102 175.641 451.533 175.233C451.964 174.826 452.512 174.549 453.108 174.437C453.705 174.325 454.323 174.383 454.884 174.604C455.446 174.826 455.926 175.2 456.264 175.679C456.601 176.159 456.782 176.723 456.782 177.3C456.782 177.684 456.702 178.065 456.546 178.419C456.391 178.774 456.164 179.096 455.877 179.367C455.591 179.638 455.251 179.853 454.876 180C454.502 180.146 454.101 180.22 453.696 180.219V180.219ZM453.696 175.174C453.253 175.174 452.82 175.298 452.451 175.532C452.083 175.766 451.795 176.098 451.626 176.486C451.456 176.875 451.412 177.303 451.498 177.715C451.585 178.128 451.798 178.507 452.112 178.804C452.425 179.102 452.824 179.304 453.259 179.386C453.694 179.468 454.145 179.426 454.554 179.265C454.964 179.104 455.314 178.832 455.56 178.482C455.806 178.132 455.938 177.721 455.938 177.3C455.941 177.019 455.886 176.739 455.775 176.478C455.664 176.216 455.5 175.978 455.291 175.777C455.083 175.577 454.835 175.417 454.561 175.308C454.287 175.198 453.993 175.141 453.696 175.14V175.174Z" fill="#78C2FF"/>
<path d="M143.698 61.5409H122.604V41.5249H143.698V61.5409ZM123.403 60.7069H142.863V42.2838H123.403V60.7069Z" fill="#A1D4FF"/>
<path d="M133.546 46.9541H132.711V56.3032H133.546V46.9541Z" fill="#A1D4FF"/>
<path d="M138.064 51.2324H128.211V52.0247H138.064V51.2324Z" fill="#A1D4FF"/>
<path d="M465.73 85.7271H435.521V65.269H465.73V85.7271ZM436.356 84.8931H464.887V66.0613H436.356V84.8931Z" fill="#A1D4FF"/>
<path d="M450.621 77.6618L435.67 65.9692L436.206 65.3604L450.621 76.6277L465.044 65.3604L465.571 65.9692L450.621 77.6618Z" fill="#A1D4FF"/>
<path d="M454.754 74.1901L454.148 74.7354L464.988 85.5781L465.594 85.0328L454.754 74.1901Z" fill="#A1D4FF"/>
<path d="M446.447 74.1849L435.617 85.0366L436.223 85.5814L447.053 74.7297L446.447 74.1849Z" fill="#A1D4FF"/>
<path d="M196.434 106.285L196.117 105.501C195.837 105.468 195.56 105.409 195.291 105.326L194.65 105.893L192.786 104.633L193.147 103.874C192.971 103.663 192.82 103.434 192.698 103.191H191.819L191.441 101.055L192.259 100.755C192.293 100.488 192.358 100.225 192.452 99.9713L191.846 99.3625L193.173 97.5944L193.973 97.9363C194.197 97.7713 194.438 97.6287 194.693 97.511V96.677L196.944 96.3184L197.26 97.094C197.541 97.1294 197.818 97.1909 198.086 97.2775L198.728 96.702L200.591 97.9613L200.231 98.7203C200.405 98.9329 200.555 99.1621 200.679 99.4042H201.558L201.945 101.548L201.118 101.839C201.085 102.107 201.02 102.37 200.925 102.623L201.532 103.232L200.204 105L199.405 104.658C199.18 104.823 198.939 104.966 198.684 105.084V105.918L196.434 106.285ZM195.142 104.617L195.326 104.683C195.661 104.809 196.014 104.885 196.372 104.909H196.566L196.838 105.576L198.069 105.384V104.667L198.253 104.592C198.569 104.446 198.864 104.264 199.132 104.05L199.282 103.933L199.967 104.225L200.697 103.257L200.178 102.732L200.248 102.557C200.38 102.242 200.46 101.91 200.486 101.573V101.381L201.189 101.131L200.987 99.9546H200.231L200.152 99.7878C200.002 99.4864 199.81 99.2058 199.58 98.9538L199.457 98.812L199.765 98.1532L198.745 97.4609L198.192 97.953L198.007 97.8863C197.674 97.7661 197.325 97.6904 196.97 97.6611H196.768L196.504 96.9939L195.265 97.1941V97.903L195.089 97.9864C194.771 98.1247 194.475 98.3043 194.21 98.5201L194.061 98.6369L193.375 98.345L192.646 99.3208L193.164 99.8378L193.094 100.013C192.962 100.33 192.882 100.665 192.856 101.005V101.189L192.153 101.447L192.364 102.615H193.111L193.19 102.79C193.342 103.091 193.534 103.371 193.762 103.624L193.885 103.766L193.577 104.417L194.606 105.109L195.142 104.617ZM196.697 103.624C196.305 103.625 195.918 103.539 195.568 103.371C195.218 103.203 194.915 102.959 194.683 102.659C194.451 102.359 194.298 102.011 194.235 101.643C194.172 101.276 194.201 100.9 194.32 100.545C194.44 100.191 194.646 99.8682 194.922 99.6037C195.198 99.3392 195.536 99.1403 195.908 99.0234C196.28 98.9064 196.676 98.8746 197.064 98.9307C197.452 98.9867 197.82 99.129 198.139 99.3458C198.542 99.6147 198.851 99.9914 199.027 100.428C199.204 100.864 199.239 101.341 199.128 101.796C199.018 102.252 198.767 102.666 198.408 102.985C198.048 103.305 197.597 103.516 197.111 103.591C196.975 103.62 196.837 103.637 196.697 103.641V103.624ZM196.697 99.5126C196.428 99.5129 196.161 99.5688 195.916 99.6764C195.672 99.784 195.454 99.9408 195.28 100.136C195.105 100.331 194.977 100.56 194.905 100.806C194.832 101.053 194.817 101.312 194.86 101.564C194.946 102.024 195.217 102.434 195.616 102.707V102.707C196.02 102.975 196.519 103.083 197.005 103.007C197.367 102.949 197.702 102.79 197.968 102.551C198.235 102.313 198.421 102.004 198.503 101.665C198.585 101.326 198.559 100.971 198.428 100.646C198.298 100.321 198.069 100.039 197.77 99.8378C197.458 99.6317 197.086 99.5237 196.706 99.5293L196.697 99.5126Z" fill="#A1D4FF"/>
<path d="M178.977 108.779L178.274 107.035C177.525 106.952 176.789 106.793 176.076 106.56L174.644 107.828L170.759 105.209L171.559 103.541C171.089 102.98 170.688 102.37 170.363 101.723L168.395 101.665L167.604 97.2026L169.44 96.5354C169.524 95.8247 169.692 95.1252 169.941 94.4504L168.606 93.091L171.365 89.4047L173.123 90.1636C173.713 89.7153 174.356 89.3346 175.039 89.0294L175.101 87.1612L179.803 86.4106L180.506 88.1537C181.255 88.2328 181.993 88.3922 182.704 88.6291L184.136 87.3531L188.021 89.9802L187.221 91.6482C187.694 92.2092 188.098 92.8191 188.426 93.4663L190.386 93.5247L191.177 97.9866L189.34 98.6538C189.256 99.3645 189.088 100.064 188.839 100.739L190.183 102.098L187.415 105.784L185.657 105.026C185.065 105.471 184.423 105.852 183.741 106.16L183.679 108.028L178.977 108.779ZM175.883 105.634L176.129 105.726C176.924 106.019 177.758 106.202 178.608 106.268H178.871L179.513 107.861L182.862 107.319L182.923 105.651L183.161 105.551C183.94 105.219 184.668 104.787 185.323 104.267L185.525 104.108L187.169 104.8L189.137 102.173L187.907 100.931L187.995 100.697C188.305 99.9407 188.497 99.1457 188.566 98.3368V98.095L190.245 97.4862L189.682 94.3086L187.881 94.2502L187.775 94.0251C187.425 93.2855 186.97 92.5952 186.422 91.9734L186.255 91.7816L186.984 90.222L184.215 88.3539L182.906 89.5215L182.668 89.4381C181.871 89.1458 181.033 88.9633 180.181 88.896H179.917L179.276 87.303L175.927 87.8368L175.866 89.5048L175.628 89.6049C174.847 89.9338 174.119 90.3662 173.466 90.8892L173.264 91.0477L171.629 90.3555L169.66 92.9826L170.891 94.2252L170.794 94.4587C170.485 95.2125 170.293 96.0046 170.223 96.8106V97.0608L168.544 97.6696L169.115 100.847L170.873 100.906L170.979 101.131C171.329 101.87 171.784 102.561 172.332 103.182L172.499 103.374L171.77 104.925L174.538 106.794L175.883 105.634ZM179.399 102.724C178.182 102.728 176.999 102.345 176.04 101.634C175.08 100.924 174.401 99.9275 174.11 98.8062C173.82 97.6849 173.935 96.5035 174.438 95.4519C174.941 94.4004 175.802 93.5399 176.882 93.0088C177.963 92.4777 179.2 92.3069 180.395 92.5238C181.591 92.7407 182.674 93.3328 183.472 94.2048C184.27 95.0768 184.735 96.178 184.793 97.3314C184.852 98.4847 184.5 99.6232 183.794 100.564C183.295 101.23 182.636 101.773 181.872 102.149C181.108 102.525 180.26 102.722 179.399 102.724V102.724ZM179.399 93.2244C178.731 93.2226 178.071 93.3595 177.464 93.6254C176.858 93.8913 176.32 94.2799 175.889 94.7638C175.458 95.2478 175.143 95.8154 174.968 96.4268C174.792 97.0383 174.76 97.6788 174.872 98.3035C175.104 99.416 175.784 100.399 176.767 101.043C177.751 101.687 178.96 101.942 180.138 101.753C181.317 101.564 182.371 100.946 183.076 100.031C183.782 99.1155 184.083 97.9752 183.917 96.8523C183.734 95.8396 183.181 94.9204 182.355 94.2567C181.528 93.593 180.482 93.2275 179.399 93.2244V93.2244Z" fill="#A1D4FF"/>
<path d="M69.2954 112.957C65.143 112.962 61.1586 111.401 58.2182 108.619C55.2779 105.837 53.6222 102.06 53.6152 98.1203H54.4942C54.4942 100.898 55.3622 103.613 56.9886 105.923C58.615 108.233 60.9267 110.033 63.6312 111.096C66.3358 112.159 69.3119 112.437 72.183 111.895C75.0542 111.353 77.6915 110.015 79.7615 108.051C81.8315 106.087 83.2412 103.585 83.8123 100.86C84.3834 98.1358 84.0903 95.312 82.97 92.7456C81.8498 90.1793 79.9526 87.9859 77.5186 86.4426C75.0845 84.8994 72.2229 84.0757 69.2954 84.0757V83.2417C73.4424 83.2417 77.4196 84.8049 80.3519 87.5873C83.2843 90.3698 84.9317 94.1436 84.9317 98.0786C84.9317 102.014 83.2843 105.787 80.3519 108.57C77.4196 111.352 73.4424 112.915 69.2954 112.915V112.957ZM69.2954 110.897C66.6323 110.897 64.0289 110.148 61.8145 108.744C59.6002 107.34 57.8743 105.344 56.8551 103.01C55.836 100.675 55.5693 98.1061 56.0889 95.6276C56.6084 93.1491 57.8909 90.8725 59.774 89.0856C61.6572 87.2988 64.0565 86.0819 66.6685 85.5889C69.2805 85.0959 71.9879 85.3489 74.4484 86.316C76.9088 87.283 79.0118 88.9207 80.4914 91.0218C81.971 93.123 82.7607 95.5932 82.7607 98.1203H81.8818C81.8853 95.7475 81.1463 93.4271 79.7587 91.4531C78.371 89.4792 76.397 87.9405 74.0869 87.0321C71.7768 86.1237 69.2344 85.8864 66.782 86.3504C64.3296 86.8143 62.0776 87.9586 60.3112 89.6381C58.5448 91.3177 57.3436 93.4571 56.8598 95.785C56.376 98.113 56.6314 100.525 57.5936 102.715C58.5558 104.905 60.1815 106.775 62.2647 108.088C64.3479 109.4 66.7948 110.096 69.2954 110.088V110.897Z" fill="#78C2FF"/>
<path d="M67.3791 103.041L61.7363 97.6867L62.3252 97.1196L67.3791 101.915L76.2564 93.4834L76.8452 94.0505L67.3791 103.041Z" fill="#78C2FF"/>
<path d="M399.556 280.065H280.759H161.962L135.963 372.281H281.532H425.555L399.556 280.065Z" fill="url(#paint11_linear)"/>
<path d="M170.945 296.245H185.544C185.676 296.233 185.808 296.249 185.932 296.292C186.056 296.335 186.168 296.404 186.26 296.494C186.352 296.583 186.422 296.692 186.464 296.81C186.506 296.929 186.519 297.055 186.502 297.179L185.087 303.209C185.026 303.402 184.898 303.569 184.725 303.684C184.551 303.799 184.341 303.855 184.129 303.843H169.284C169.151 303.855 169.017 303.837 168.892 303.792C168.767 303.747 168.654 303.676 168.562 303.583C168.471 303.491 168.403 303.38 168.363 303.259C168.324 303.137 168.314 303.009 168.335 302.884L169.996 296.862C170.062 296.676 170.191 296.515 170.362 296.403C170.533 296.292 170.738 296.237 170.945 296.245Z" fill="white"/>
<path d="M192.241 296.245H203.272L201.804 303.843H190.562L192.241 296.245Z" fill="white"/>
<path d="M208.792 296.245H219.831L218.671 303.843L207.43 303.86L208.792 296.245Z" fill="white"/>
<path d="M225.341 296.245H236.38L235.545 303.843H224.295L225.341 296.245Z" fill="white"/>
<path d="M241.9 296.245H252.931L252.412 303.843H241.162L241.9 296.245Z" fill="white"/>
<path d="M258.451 296.245H269.491L269.28 303.843L258.029 303.86L258.451 296.245Z" fill="white"/>
<path d="M390.916 296.245H374.365L376.149 303.843H393.016L390.916 296.245Z" fill="white"/>
<path d="M368.845 296.245H357.814L359.282 303.843H370.524L368.845 296.245Z" fill="white"/>
<path d="M352.295 296.245H341.256L342.416 303.843L353.658 303.86L352.295 296.245Z" fill="white"/>
<path d="M335.745 296.245H324.705L325.54 303.843H336.79L335.745 296.245Z" fill="white"/>
<path d="M319.185 296.245H308.154L308.673 303.843H319.923L319.185 296.245Z" fill="white"/>
<path d="M302.635 296.245H291.596L291.807 303.843L303.057 303.86L302.635 296.245Z" fill="white"/>
<path d="M275.01 296.245H286.04L286.225 303.843H275.01V296.245Z" fill="white"/>
<path d="M166.093 309.514H189.156L187.838 317.354H164.344L166.093 309.514Z" fill="white"/>
<path d="M394.52 309.514H366.016L367.642 317.354H396.682L394.52 309.514Z" fill="white"/>
<path d="M360.312 309.514H348.912L350.213 317.354H361.832L360.312 309.514Z" fill="white"/>
<path d="M343.215 309.514H331.807L332.782 317.354H344.402L343.215 309.514Z" fill="white"/>
<path d="M326.112 309.514H314.703L315.354 317.354H326.973L326.112 309.514Z" fill="white"/>
<path d="M309.007 309.514H297.607L297.924 317.354H309.543L309.007 309.514Z" fill="white"/>
<path d="M162.648 323.492H186.221L184.507 331.273H160.494L162.648 323.492Z" fill="white"/>
<path d="M192.117 323.492H203.904L202.506 331.273H190.5L192.117 323.492Z" fill="white"/>
<path d="M209.802 323.492H221.588H298.196L298.53 331.273H208.51L209.802 323.492Z" fill="white"/>
<path d="M304.104 323.492H315.89L316.532 331.273H304.534L304.104 323.492Z" fill="white"/>
<path d="M321.787 323.492H333.574L334.54 331.273H322.534L321.787 323.492Z" fill="white"/>
<path d="M339.463 323.492H351.249L352.541 331.273H340.535L339.463 323.492Z" fill="white"/>
<path d="M357.146 323.492H368.933L370.541 331.273H358.544L357.146 323.492Z" fill="white"/>
<path d="M374.83 323.492H398.403L400.557 331.273H376.544L374.83 323.492Z" fill="white"/>
<path d="M291.931 309.514H280.619V317.354H292.142L291.931 309.514Z" fill="white"/>
<path d="M274.826 309.514H263.426L263.092 317.354H274.711L274.826 309.514Z" fill="white"/>
<path d="M257.722 309.514H246.322L245.672 317.354H257.291L257.722 309.514Z" fill="white"/>
<path d="M240.618 309.514H229.218L228.242 317.354H239.862L240.618 309.514Z" fill="white"/>
<path d="M223.513 309.514H212.113L210.812 317.354H222.432L223.513 309.514Z" fill="white"/>
<path d="M206.411 309.514H195.011L193.385 317.354H205.004L206.411 309.514Z" fill="white"/>
<path d="M171.488 291.466L173.36 284.686H178.713L176.964 291.466H171.488Z" fill="white"/>
<path d="M184.076 284.686H194.79L193.296 291.466H182.389L184.076 284.686Z" fill="white"/>
<path d="M200.15 284.686H210.865L209.652 291.466H198.744L200.15 284.686Z" fill="white"/>
<path d="M216.227 284.686H226.941L226 291.466H215.102L216.227 284.686Z" fill="white"/>
<path d="M232.303 284.686H243.017L242.358 291.466H231.459L232.303 284.686Z" fill="white"/>
<path d="M248.379 284.686H259.093L258.715 291.466H247.816L248.379 284.686Z" fill="white"/>
<path d="M264.455 284.686H275.169L275.073 291.466H264.174L264.455 284.686Z" fill="white"/>
<path d="M280.521 284.686H291.245L291.429 291.466H280.521V284.686Z" fill="white"/>
<path d="M296.598 284.686H307.321L307.786 291.466H296.879L296.598 284.686Z" fill="white"/>
<path d="M312.672 284.686H323.395L324.142 291.466H313.234L312.672 284.686Z" fill="white"/>
<path d="M328.748 284.686H339.462L340.499 291.466H329.592L328.748 284.686Z" fill="white"/>
<path d="M344.824 284.686H355.538L356.848 291.466H345.949L344.824 284.686Z" fill="white"/>
<path d="M360.9 284.686H371.615L373.206 291.466H362.307L360.9 284.686Z" fill="white"/>
<path d="M376.975 284.686H387.689L389.561 291.466H378.662L376.975 284.686Z" fill="white"/>
<path d="M417.987 379.47H143.522C141.516 379.468 139.594 378.71 138.176 377.364C136.759 376.017 135.963 374.192 135.963 372.289H425.555C425.555 374.194 424.757 376.02 423.338 377.367C421.919 378.713 419.994 379.47 417.987 379.47V379.47Z" fill="url(#paint12_linear)"/>
<path d="M314.422 342.482C314.29 341.691 313.861 340.972 313.216 340.456C312.57 339.94 311.751 339.662 310.907 339.672H250.585C249.741 339.662 248.922 339.94 248.276 340.456C247.631 340.972 247.202 341.691 247.07 342.482L243.299 364.166C243.21 364.65 243.234 365.146 243.37 365.62C243.506 366.094 243.751 366.533 244.087 366.907C244.423 367.28 244.841 367.579 245.313 367.782C245.784 367.984 246.297 368.085 246.815 368.078H314.66C315.177 368.085 315.69 367.984 316.161 367.782C316.633 367.579 317.052 367.28 317.387 366.907C317.723 366.533 317.968 366.094 318.104 365.62C318.24 365.146 318.265 364.65 318.175 364.166L314.422 342.482Z" fill="#4D78EB"/>
<path d="M209.723 156.216H185.166V158.602H209.723V156.216Z" fill="#E0E0E0"/>
<path d="M234.324 174.181H216.596V176.566H234.324V174.181Z" fill="#E0E0E0"/>
<path d="M248.863 174.181H237.094V176.566H248.863V174.181Z" fill="#1487E3"/>
<path d="M197.206 219.367H185.438V221.752H197.206V219.367Z" fill="#1487E3"/>
<path d="M279.589 174.181H251.182V176.566H279.589V174.181Z" fill="#E0E0E0"/>
<path d="M203.693 210.318H185.438V212.703H203.693V210.318Z" fill="#E0E0E0"/>
<path d="M222.036 228.35H210.891V230.735H222.036V228.35Z" fill="#E0E0E0"/>
<path d="M207.516 228.35H185.438V230.735H207.516V228.35Z" fill="#1487E3"/>
<path d="M197.62 237.332H185.438V239.717H197.62V237.332Z" fill="#E0E0E0"/>
<path d="M231.942 156.216H214.504V158.602H231.942V156.216Z" fill="#78C2FF"/>
<path d="M231.942 183.163H214.504V185.548H231.942V183.163Z" fill="#1487E3"/>
<path d="M213.239 192.153H205.785V194.539H213.239V192.153Z" fill="#E0E0E0"/>
<path d="M215.067 201.269H198.332V203.654H215.067V201.269Z" fill="#78C2FF"/>
<path d="M240.696 201.269H217.598V203.654H240.696V201.269Z" fill="#1487E3"/>
<path d="M202.876 192.22H185.438V194.605H202.876V192.22Z" fill="#1487E3"/>
<path d="M195.783 201.269H185.438V203.654H195.783V201.269Z" fill="#1487E3"/>
<path d="M226.502 192.22H216.746V194.605H226.502V192.22Z" fill="#FF8761"/>
<path d="M195.492 246.322H185.736V248.707H195.492V246.322Z" fill="#FF8761"/>
<path d="M202.815 174.181H185.377V176.566H202.815V174.181Z" fill="#78C2FF"/>
<path d="M218.231 219.367H200.793V221.752H218.231V219.367Z" fill="#78C2FF"/>
<path d="M218.442 237.332H201.004V239.717H218.442V237.332Z" fill="#78C2FF"/>
<path d="M249.417 237.332H231.979V239.717H249.417V237.332Z" fill="#78C2FF"/>
<path d="M210.233 183.163H185.377V185.548H210.233V183.163Z" fill="#78C2FF"/>
<path d="M319.274 156.216H301.836V158.602H319.274V156.216Z" fill="#78C2FF"/>
<path d="M257.169 246.322H239.73V248.707H257.169V246.322Z" fill="#78C2FF"/>
<path d="M336.37 156.216H324.697V158.602H336.37V156.216Z" fill="#78C2FF"/>
<path d="M375.86 165.199H364.188V167.584H375.86V165.199Z" fill="#78C2FF"/>
<path d="M258.838 156.216H236.627V158.602H258.838V156.216Z" fill="#1487E3"/>
<path d="M345.387 165.199H323.176V167.584H345.387V165.199Z" fill="#1487E3"/>
<path d="M318.148 174.181H295.938V176.566H318.148V174.181Z" fill="#1487E3"/>
<path d="M289.232 183.163H267.021V185.548H289.232V183.163Z" fill="#1487E3"/>
<path d="M336.738 174.181H320.943V176.566H336.738V174.181Z" fill="#78C2FF"/>
<path d="M297.484 156.216H275.273V158.602H297.484V156.216Z" fill="#FF8761"/>
<path d="M262.952 183.163H249.926V185.548H262.952V183.163Z" fill="#FF8761"/>
<path d="M252.756 219.5H239.73V221.886H252.756V219.5Z" fill="#FF8761"/>
<path d="M271.081 156.216H262.951V158.602H271.081V156.216Z" fill="#E0E0E0"/>
<path d="M244.757 183.163H236.627V185.548H244.757V183.163Z" fill="#E0E0E0"/>
<path d="M358.878 165.199H350.748V167.584H358.878V165.199Z" fill="#E0E0E0"/>
<path d="M197.884 165.199H185.166V167.584H197.884V165.199Z" fill="#1487E3"/>
<path d="M229.148 210.385H219.102V212.77H229.148V210.385Z" fill="#1487E3"/>
<path d="M205.109 165.199H201.004V167.584H205.109V165.199Z" fill="#1487E3"/>
<path d="M319.273 165.199H285.328V167.584H319.273V165.199Z" fill="#E0E0E0"/>
<path d="M286.709 237.332H252.756V239.717H286.709V237.332Z" fill="#E0E0E0"/>
<path d="M212.325 165.199H208.133V167.584H212.325V165.199Z" fill="#FF8761"/>
<path d="M282.192 165.199H271.082V167.584H282.192V165.199Z" fill="#1487E3"/>
<path d="M293.301 174.181H282.191V176.566H293.301V174.181Z" fill="#FF8761"/>
<path d="M236.188 246.322H225.078V248.707H236.188V246.322Z" fill="#FF8761"/>
<path d="M268.146 165.199H244.512V167.584H268.146V165.199Z" fill="#1487E3"/>
<path d="M236.32 219.5H222.512V221.886H236.32V219.5Z" fill="#1487E3"/>
<path d="M228.531 237.332H221.623V239.717H228.531V237.332Z" fill="#1487E3"/>
<path d="M241.154 165.199H233.023V167.584H241.154V165.199Z" fill="#78C2FF"/>
<path d="M213.792 174.181H205.662V176.566H213.792V174.181Z" fill="#FF8761"/>
<path d="M215.409 210.385H207.279V212.77H215.409V210.385Z" fill="#FF8761"/>
<path d="M229.93 165.199H215.762V167.584H229.93V165.199Z" fill="#1487E3"/>
<g opacity="0.76">
<path opacity="0.76" d="M423.189 186.148H320.45C318.504 186.148 316.926 187.646 316.926 189.493V257.08C316.926 258.927 318.504 260.424 320.45 260.424H423.189C425.136 260.424 426.714 258.927 426.714 257.08V189.493C426.714 187.646 425.136 186.148 423.189 186.148Z" fill="white"/>
</g>
<path d="M414.867 224.379H397.174C396.426 224.379 395.82 224.954 395.82 225.664V228.257C395.82 228.967 396.426 229.542 397.174 229.542H414.867C415.614 229.542 416.22 228.967 416.22 228.257V225.664C416.22 224.954 415.614 224.379 414.867 224.379Z" fill="#4AAFFF"/>
<path d="M414.867 234.037H397.174C396.426 234.037 395.82 234.612 395.82 235.321V237.915C395.82 238.625 396.426 239.2 397.174 239.2H414.867C415.614 239.2 416.22 238.625 416.22 237.915V235.321C416.22 234.612 415.614 234.037 414.867 234.037Z" fill="#4AAFFF"/>
<path d="M414.867 243.703H397.174C396.426 243.703 395.82 244.278 395.82 244.987V247.581C395.82 248.291 396.426 248.866 397.174 248.866H414.867C415.614 248.866 416.22 248.291 416.22 247.581V244.987C416.22 244.278 415.614 243.703 414.867 243.703Z" fill="#4AAFFF"/>
<path d="M385.958 212.862C384.617 209.306 382.552 206.036 379.879 203.238C377.206 200.44 373.979 198.169 370.381 196.554C366.784 194.939 362.886 194.013 358.911 193.827C354.936 193.642 350.961 194.201 347.214 195.473C343.467 196.745 340.021 198.705 337.072 201.241C334.123 203.777 331.729 206.839 330.027 210.253C328.326 213.667 327.349 217.365 327.154 221.137C326.958 224.909 327.548 228.68 328.888 232.236C329.117 232.845 329.363 233.437 329.636 234.021C332.777 240.855 338.593 246.264 345.857 249.107C353.12 251.95 361.264 252.006 368.57 249.261C375.876 246.517 381.772 241.187 385.016 234.396C388.26 227.605 388.598 219.884 385.958 212.862V212.862ZM365.074 242.886C360.73 244.35 356.018 244.526 351.566 243.389C347.114 242.253 343.131 239.858 340.148 236.523C338.707 234.904 337.523 233.095 336.632 231.152C336.43 230.71 336.245 230.268 336.069 229.809C334.556 225.794 334.33 221.444 335.422 217.308C336.514 213.172 338.874 209.436 342.204 206.572C345.533 203.709 349.683 201.847 354.128 201.221C358.572 200.595 363.113 201.234 367.175 203.057C371.238 204.88 374.639 207.805 376.949 211.462C379.26 215.119 380.375 219.344 380.155 223.603C379.935 227.862 378.389 231.963 375.712 235.388C373.036 238.813 369.349 241.408 365.118 242.844L365.074 242.886Z" fill="#4AAFFF"/>
<path d="M335.754 216.123L328.512 213.979C330.395 208.27 334.104 203.259 339.126 199.643C344.147 196.026 350.231 193.982 356.532 193.796L356.761 200.994C352.036 201.13 347.474 202.66 343.709 205.372C339.944 208.083 337.163 211.841 335.754 216.123V216.123Z" fill="#1A598C"/>
<path d="M336.631 231.152L329.6 234.021C329.327 233.437 329.081 232.845 328.853 232.236C326.628 226.354 326.489 219.943 328.457 213.979L335.7 216.123C334.224 220.593 334.326 225.398 335.99 229.809C336.201 230.268 336.385 230.71 336.631 231.152Z" fill="#2273B5"/>
<path d="M334.33 241.184C332.39 239.031 330.796 236.617 329.602 234.02L336.554 231.151C337.445 233.094 338.629 234.904 340.07 236.522L334.33 241.184Z" fill="#3788CC"/>
<path d="M367.535 239.6C367.535 239.6 366.068 237.165 368.414 230.634C368.791 229.42 369.529 228.334 370.539 227.507C371.549 226.68 372.789 226.146 374.11 225.97C375.432 225.794 376.778 225.983 377.989 226.515C379.201 227.046 380.225 227.897 380.939 228.966C383.418 233.02 382.583 235.53 378.935 240.1C375.288 244.671 369.056 241.693 367.535 239.6Z" fill="#EEA886"/>
<path d="M385.643 351.998C385.643 351.998 386.029 354.675 386.073 355.084C386.117 355.492 390.363 354.842 390.363 354.842L390.714 351.648C390.714 351.648 386.17 351.614 385.643 351.998Z" fill="#EEA886"/>
<path d="M386.029 354.742C385.282 355.64 384.393 356.422 383.392 357.061C382.091 357.769 380.052 358.045 379.287 358.779C378.725 359.304 377.266 361.572 382.663 361.522C388.059 361.472 390.661 361.839 391.241 360.972C391.821 360.105 390.406 354.559 390.406 354.559C388.964 354.822 387.49 354.884 386.029 354.742Z" fill="#414773"/>
<path d="M356.268 351.998C356.268 351.998 356.654 354.675 356.707 355.084C356.76 355.492 360.996 354.842 360.996 354.842L361.339 351.648C361.339 351.648 356.848 351.614 356.268 351.998Z" fill="#EEA886"/>
<path d="M356.664 354.742C355.918 355.64 355.028 356.422 354.028 357.061C352.727 357.769 347.937 358.345 347.172 359.071C346.618 359.604 345.695 361.723 353.324 361.522C358.721 361.381 361.332 361.839 361.903 360.972C362.474 360.105 361.068 354.559 361.068 354.559C359.61 354.757 358.135 354.818 356.664 354.742V354.742Z" fill="#414773"/>
<path d="M384.209 285.228C384.209 285.228 386.389 291.641 386.099 297.171C385.809 302.7 387.224 308.738 387.804 314.518C388.446 320.948 391.082 336.202 391.17 339.63C391.258 343.058 390.766 354.066 390.766 354.066L385.492 354.192C385.492 354.192 381.098 327.554 379.929 324.835C378.76 322.116 373.099 302.734 372.897 300.565C372.695 298.397 384.209 285.228 384.209 285.228Z" fill="#2D314F"/>
<path d="M362.376 284.527C362.376 284.527 359.177 301.482 358.79 304.869C358.403 308.255 358.157 321.232 357.964 323.35C357.771 325.468 356.689 351.014 355.67 354.158H361.55C361.55 354.158 367.579 335.585 367.579 326.794C367.579 318.004 371.57 307.687 374.145 301.891C376.72 296.095 382.627 295.953 384.209 285.211C384.209 285.228 364.521 281.116 362.376 284.527Z" fill="#2D314F"/>
<path d="M369.672 241.326C370.036 242.343 370.036 243.445 369.672 244.462C369.004 245.772 378.136 244.988 378.136 244.988C377.921 243.31 378.191 241.609 378.918 240.067C380.105 237.849 369.672 241.326 369.672 241.326Z" fill="#EEA886"/>
<path d="M384.64 286.587C384.64 286.587 381.353 289.79 362.078 286.095L362.377 284.527L384.289 285.311L384.64 286.587Z" fill="#2B3B57"/>
<path d="M368.274 244.888C368.274 244.888 364.899 245.213 363.932 245.388C362.965 245.563 356.488 244.287 355.143 244.154C353.798 244.02 348.111 240.342 347.953 239.9C347.795 239.458 344.508 231.619 344.323 229.892C344.138 228.166 341.141 229.058 341.396 230.234C341.88 232.428 342.495 237.74 342.829 239.275C343.163 240.809 344.174 244.704 344.727 245.163C347.947 247.584 351.544 249.514 355.389 250.884C358.464 251.853 361.413 253.151 364.178 254.754H388.788C388.788 254.754 398.378 241.76 398.58 239.8C398.782 237.84 391.891 224.788 390.511 223.187C389.131 221.586 387.145 223.721 387.145 223.721C387.145 223.721 391.267 235.205 391.821 236.831C392.374 238.457 387.022 245.638 385.554 245.663C384.086 245.688 380.28 245.221 378.645 245.163C377.463 245.074 376.301 244.815 375.2 244.395L368.274 244.888Z" fill="#EEA886"/>
<path d="M357.666 253.536C358.563 254.134 359.319 254.903 359.887 255.793C360.454 256.683 360.82 257.675 360.962 258.707C361.331 262.143 361.975 265.547 362.887 268.89C363.441 270.65 362.404 283.452 362.272 284.361C362.14 285.27 381.336 287.447 384.289 285.278C384.289 285.278 385.115 273.327 385.458 269.933C385.801 266.538 387.453 258.315 387.998 257.206C388.543 256.097 395.223 247.198 395.504 246.039C395.504 246.039 392.05 240.818 389.571 240.751C389.571 240.751 385.634 245.129 384.351 245.321C383.067 245.513 375.21 244.154 375.21 244.137C375.21 244.12 374.331 245.246 369.787 243.945C369.787 243.945 364.355 244.521 363.476 244.629C362.404 244.763 354.968 243.745 354.968 243.745C354.968 243.745 351.979 248.524 352.498 250.942L357.666 253.536Z" fill="#FFC655"/>
<path d="M344.543 230.943C344.543 230.943 343.875 227.915 344.683 227.048C345.279 226.411 345.836 225.743 346.353 225.046C346.459 224.855 347.645 224.212 347.645 223.896C347.645 223.579 346.485 223.195 345.466 224.087C344.446 224.98 343.822 225.172 343.418 225.072C343.013 224.971 342.425 221.777 342.381 220.985C342.337 220.193 342.003 218.099 341.502 218.241C341.001 218.383 341.001 219.3 341.001 219.3C341.001 219.3 340.394 217.716 339.99 218.024C339.586 218.333 339.63 219.108 339.63 219.108C339.63 219.108 338.874 218.224 338.672 218.867C338.552 219.267 338.552 219.692 338.672 220.093C338.672 220.093 337.881 219.684 337.837 220.701C337.804 222.399 338.069 224.09 338.619 225.705C339.173 226.765 341.256 229.533 341.511 230.618C341.765 231.702 344.543 230.943 344.543 230.943Z" fill="#EEA886"/>
<path d="M387.848 225.63C387.848 225.63 385.563 221.969 384.78 221.644C383.785 221.365 382.829 220.973 381.933 220.476C380.975 219.826 379.7 219.283 379.77 219.067C379.841 218.85 380.975 218.933 382.187 219.434C383.4 219.934 383.945 219.692 384.051 219.434C383.896 218.529 383.549 217.663 383.031 216.89C382.671 216.456 380.052 213.963 380.491 213.596C380.931 213.229 382.627 214.596 382.899 214.872C382.899 214.872 381.546 212.178 382.073 212.044C382.601 211.911 383.585 212.878 383.585 212.878C383.585 212.878 383.471 210.577 386.09 214.321C386.09 214.321 385.536 213.079 386.336 213.487C387.136 213.896 387.918 216.223 388.173 217.399C388.428 218.575 389.571 222.319 390.546 223.237C391.522 224.154 387.848 225.63 387.848 225.63Z" fill="#EEA886"/>
<path d="M378.918 240.067C377.621 240.044 376.339 239.793 375.139 239.325C372.572 238.491 372.379 234.22 371.825 234.729C371.651 234.911 371.433 235.051 371.19 235.137C370.947 235.223 370.686 235.253 370.428 235.225C370.17 235.196 369.924 235.11 369.708 234.973C369.493 234.836 369.314 234.652 369.189 234.437C369.189 234.437 370.445 232.869 369.865 232.119C369.438 231.603 368.92 231.16 368.336 230.809C368.336 230.809 370.147 222.544 378.365 226.314C387.998 230.726 378.918 240.067 378.918 240.067Z" fill="#353A3D"/>
<path d="M369.672 244.462L369.962 243.27C372.667 243.212 375.373 243.309 378.066 243.562L378.373 244.988C378.373 244.988 374.708 246.564 369.672 244.462Z" fill="#D4D8E8"/>
<path d="M370.963 233.687C371.437 232.928 373.204 232.427 373.406 234.521C373.573 236.189 370.259 237.973 370.224 236.439C370.161 235.471 370.419 234.508 370.963 233.687Z" fill="#EEA886"/>
<path d="M344.401 230.25C343.399 230.269 342.424 230.559 341.589 231.084C341.557 231.39 341.612 231.698 341.747 231.977C342.671 231.579 343.646 231.298 344.647 231.143C344.65 230.83 344.565 230.522 344.401 230.25V230.25Z" fill="#E55353"/>
<path d="M342.171 230.701C342.129 230.794 342.107 230.894 342.106 230.995C342.104 231.096 342.125 231.197 342.165 231.291C342.205 231.384 342.264 231.47 342.339 231.542C342.414 231.614 342.503 231.671 342.601 231.71C342.75 231.771 342.915 231.789 343.074 231.761C343.234 231.733 343.381 231.661 343.497 231.553C343.613 231.446 343.693 231.308 343.726 231.157C343.759 231.006 343.744 230.85 343.683 230.707C343.622 230.564 343.518 230.442 343.384 230.356C343.25 230.27 343.091 230.223 342.929 230.223C342.767 230.222 342.608 230.267 342.473 230.352C342.338 230.438 342.233 230.559 342.171 230.701Z" fill="#353A3D"/>
<path d="M295.664 166.85C295.664 166.85 298.372 171.203 299.514 171.921C301.061 172.88 300.094 173.856 299.356 173.856C298.618 173.856 294.856 174.114 294.03 173.222C293.203 172.329 292.79 169.652 292.017 168.952C291.243 168.251 290.452 165.474 292.395 164.782C294.109 164.198 295.664 166.85 295.664 166.85Z" fill="#6069A8"/>
<path d="M294.497 164.94C294.497 164.94 297.591 170.036 298.127 170.778C298.663 171.52 297.116 171.537 296.167 171.178C295.218 170.82 292.809 167.158 292.467 166.491C292.236 165.961 292.211 165.37 292.396 164.823L294.497 164.94Z" fill="#202338"/>
<path d="M291.35 167.684L292.07 172.905L292.448 172.922L292.325 169.16L291.35 167.684Z" fill="#6069A8"/>
<path d="M268.822 166.85C268.822 166.85 271.53 171.204 272.672 171.921C274.228 172.88 273.252 173.856 272.514 173.856C271.776 173.856 268.023 174.114 267.188 173.222C266.353 172.329 265.948 169.652 265.184 168.952C264.419 168.251 263.584 165.399 265.553 164.782C267.284 164.298 268.822 166.85 268.822 166.85Z" fill="#6069A8"/>
<path d="M267.82 164.948C267.82 164.948 270.755 170.036 271.335 170.786C271.915 171.537 270.324 171.545 269.366 171.187C268.408 170.828 266.018 167.167 265.675 166.5C265.444 165.969 265.416 165.379 265.596 164.832L267.82 164.948Z" fill="#202338"/>
<path d="M264.516 167.684L265.228 172.905L265.605 172.922L265.491 169.16L264.516 167.684Z" fill="#6069A8"/>
<path d="M256.816 127.235L281.312 137.827C282.134 138.117 282.853 138.619 283.391 139.276C283.928 139.933 284.261 140.72 284.353 141.547C285.303 150.537 292.396 164.799 292.396 164.799C294.663 165.858 294.496 164.94 294.496 164.94C293.064 160.57 291.315 142.581 290.691 135.35C290.559 133.824 290.48 132.773 290.462 132.439C290.444 132.106 290.19 131.906 289.733 131.564C286.375 128.978 272.541 123.624 272.541 123.624C262.16 123.374 256.816 127.235 256.816 127.235Z" fill="#202338"/>
<path d="M252.201 131.772C252.957 138.052 262.406 137.335 262.406 137.335H273.832C272.073 141.099 270.679 145.007 269.666 149.011C268.435 154.698 265.526 164.757 265.526 164.757C265.526 164.757 265.719 165.098 267.793 164.907C267.793 164.907 276.776 147.901 280.222 143.631C281.803 140.856 282.893 137.852 283.447 134.741C283.57 133.74 283.5 132.964 283.104 132.648C282.709 132.331 281.795 131.738 280.573 130.98C276.987 128.828 270.755 125.525 267.284 124.783C262.634 123.79 255.286 121.939 255.286 121.939C254.038 123.26 253.114 124.827 252.58 126.527C252.047 128.227 251.917 130.018 252.201 131.772V131.772Z" fill="#202338"/>
<path d="M259.999 83.4003C258.984 81.4206 258.675 79.181 259.12 77.0202C259.955 73.7342 263.172 70.4566 267.91 71.9578C272.647 73.459 276.418 76.9618 273.596 80.9483C270.775 84.9348 276.154 86.7863 274.783 88.6878C273.412 90.5893 273.904 92.5909 274.511 93.033C275.117 93.475 276.963 95.0596 276.761 96.9361C276.558 98.8126 267.62 91.4734 267.62 91.4734C267.62 91.4734 262.733 82.1993 259.999 83.4003Z" fill="#464240"/>
<path d="M274.35 122.865C274.35 122.865 273.638 126.134 255.348 122.031C255.348 122.006 261.483 120.096 274.35 122.865Z" fill="#EB4747"/>
<path d="M255.138 122.923L254.259 124.466L274.316 125.025C273.253 121.689 273.595 117.11 273.789 113.658C274.009 109.438 276.426 106.502 276.206 102.24C277.524 102.44 277.753 102.482 279.08 102.674C277.058 97.1944 276.364 94.4756 270.071 92.3739C268.283 91.724 266.355 91.5006 264.455 91.7234C257.168 92.2905 254.962 92.3739 251.385 98.6373C256.992 99.4713 256.069 101.398 257.766 106.685C258.601 109.271 259.462 112.148 259.014 114.867C258.566 117.586 255.138 120.48 255.138 122.923Z" fill="#325BB3"/>
<path d="M266.776 93.7C263.787 93.1662 264.429 91.59 264.429 91.59C264.429 91.59 264.561 90.6976 264.614 89.58C264.614 89.2909 264.614 88.9907 264.614 88.6793C264.615 88.2138 264.586 87.7486 264.526 87.2865C264.288 85.385 269.94 86.5193 269.94 86.5193C269.94 86.5193 269.615 90.364 270.397 91.5233C271.179 92.6825 269.755 94.2421 266.776 93.7Z" fill="#EEA886"/>
<path d="M261.045 91.5819C261.045 91.5819 267.066 98.1705 269.289 99.6967C269.289 99.6967 271.847 97.5116 270.274 91.7237C270.309 91.7403 267.4 90.3392 261.045 91.5819Z" fill="#EEA886"/>
<path d="M261.246 75.7107C261.246 75.7107 258.117 81.4236 261.246 86.8362C264.375 92.2489 270.431 84.476 270.827 83.567C271.222 82.6579 273.314 77.5038 269.157 75.9359C264.999 74.3679 262.134 74.1594 261.246 75.7107Z" fill="#EEA886"/>
<path d="M262.284 77.7375C262.284 77.7375 260.131 80.4229 259.876 82.3995C259.442 79.854 259.998 77.2458 261.44 75.0603C263.866 71.4575 270.019 74.8852 270.845 76.328C271.671 77.7708 274.088 79.0302 270.028 85.2101C270.028 85.2101 262.724 80.3896 262.284 77.7375Z" fill="#464240"/>
<path d="M267.275 87.4033C266.653 88.3685 265.732 89.1285 264.639 89.5801C264.639 89.2909 264.639 88.9907 264.639 88.6793C265.632 88.5127 266.55 88.0684 267.275 87.4033V87.4033Z" fill="#A77860"/>
<path d="M235.695 117.786C235.695 117.786 234.21 118.411 233.506 118.128C232.819 117.903 232.097 117.787 231.371 117.786C230.905 117.786 229.472 117.302 229.498 117.836C229.525 118.37 231.828 118.737 232.302 118.903C232.777 119.07 230.887 120.054 230.711 120.496C230.536 120.938 232.671 123.832 233.867 122.998C235.062 122.164 235.721 120.546 235.967 120.438C236.273 120.27 236.566 120.083 236.846 119.879L235.695 117.786Z" fill="#EEA886"/>
<path d="M230.94 120.238C230.94 120.238 227.424 122.982 227.424 123.349C227.424 123.716 227.547 123.891 227.89 123.649L231.344 121.097C231.344 121.097 227.828 125.008 227.731 125.267C227.661 125.434 227.995 125.792 228.197 125.675C228.399 125.559 232.1 121.881 232.1 121.881C232.1 121.881 228.848 125.534 228.83 125.809C228.833 125.878 228.857 125.945 228.899 126.002C228.942 126.058 229 126.102 229.068 126.127C229.136 126.153 229.21 126.159 229.282 126.146C229.354 126.132 229.419 126.099 229.472 126.051C229.735 125.801 232.987 122.573 232.987 122.573C232.987 122.573 230.808 125.375 230.948 125.625C231.089 125.876 231.3 126.092 231.827 125.35C232.355 124.608 233.84 122.99 233.84 122.99L230.94 120.238Z" fill="#EEA886"/>
<path d="M272.664 137.343H262.406C262.406 137.343 252.958 138.06 252.202 131.78C251.933 130.036 252.072 128.256 252.609 126.568C253.147 124.88 254.07 123.325 255.313 122.014C255.313 122.014 260.306 123.273 264.665 124.274C267.266 123.761 269.921 123.542 272.576 123.624C272.576 123.624 291.033 129.412 290.497 132.464C290.462 132.464 282.736 128.544 272.664 137.343Z" fill="#FF7E55"/>
<path d="M265.992 126.468L285.549 126.192L275.669 130.955L265.992 126.468Z" fill="#5E5853"/>
<path d="M272.066 124.099C268.89 125.072 265.481 125.125 262.274 124.249L262.02 122.339L273.129 122.923L272.066 124.099Z" fill="#325BB3"/>
<path d="M275.669 130.955L265.992 127.394V126.468L276.434 130.046L275.669 130.955Z" fill="#91887F"/>
<path d="M271.994 124.983C271.973 125.145 271.998 125.308 272.065 125.458C272.133 125.607 272.241 125.737 272.378 125.834C272.516 125.93 272.678 125.991 272.849 126.008C273.019 126.026 273.191 126 273.348 125.934L274.49 125.475C274.656 125.406 274.792 125.286 274.878 125.135C274.963 124.984 274.994 124.811 274.965 124.641C274.49 121.839 273.48 110.914 274.965 109.037C275.423 108.482 275.787 107.863 276.046 107.202C277.022 109.596 278.243 112.682 278.727 114.341L287.964 126.017L291.067 126.76C289.107 122.091 286.774 117.572 284.088 113.241C283.491 111.698 281.75 107.036 280.221 102.882C279.245 100.255 278.358 97.8782 277.883 96.5355C277.639 95.8787 277.16 95.3239 276.53 94.9676C275.097 94.1336 272.715 92.8742 270.553 91.8818L270.342 91.79C274.446 97.6948 272.847 114.366 272.038 125.025L271.994 124.983Z" fill="#EDDAD3"/>
<path d="M256.737 92.2236C255.419 92.4154 252.149 95.4262 250.418 98.4619C248.44 101.931 246.427 105.876 244.915 107.169C242.138 109.562 234.368 118.011 233.99 117.794C234.727 118.733 235.538 119.616 236.416 120.438C236.557 120.496 249.187 110.113 250.4 108.528C251.613 106.944 254.628 100.73 255.551 100.872C256.44 102.767 257.192 104.718 257.801 106.71L257.853 106.877C258.515 109.416 258.608 112.058 258.126 114.633C257.827 116.802 256.122 120.329 255.102 122.047C255.04 122.19 255.008 122.343 255.008 122.498C255.008 122.652 255.04 122.805 255.102 122.948V122.948C255.13 123.029 255.175 123.104 255.234 123.169C255.293 123.233 255.365 123.286 255.445 123.323L259.145 124.625L260.024 124.933C260.292 125.027 260.579 125.062 260.863 125.036C261.147 125.01 261.421 124.924 261.665 124.784C261.909 124.644 262.117 124.453 262.272 124.226C262.428 123.999 262.528 123.742 262.564 123.474C263.391 117.46 264.428 111.314 265.263 108.995C266.353 106.098 266.79 103.016 266.544 99.9489C266.299 96.8815 265.377 93.8972 263.839 91.1895C261.454 91.4173 259.084 91.7625 256.737 92.2236V92.2236Z" fill="#EDDAD3"/>
<path d="M275.67 130.955L281.488 115.876L300.245 116.168L294.699 130.062L275.67 130.955Z" fill="#6E6760"/>
<path d="M287.49 122.548C286.919 123.632 287.095 124.817 287.877 125.192C288.659 125.567 289.767 124.983 290.338 123.899C290.909 122.815 290.734 121.631 289.951 121.255C289.169 120.88 288.062 121.464 287.49 122.548Z" fill="#807066"/>
<path d="M267.723 81.3983C267.723 81.3983 268.918 83.1747 267.811 84.7342C266.703 86.2938 268.092 87.77 268.33 89.388C268.567 91.0059 263.698 95.3177 269.121 97.4778C274.544 99.6378 276.266 96.0683 274.886 94.0917C273.506 92.1151 272.522 90.5222 272.399 87.72C272.276 84.9177 271.309 80.4975 267.723 81.3983Z" fill="#464240"/>
<path d="M228.461 60.123H251.559V76.0108V79.3551L248.035 76.0108H228.461V60.123Z" fill="#78C2FF"/>
<defs>
<linearGradient id="paint0_linear" x1="154.711" y1="220.659" x2="418.76" y2="220.659" gradientUnits="userSpaceOnUse">
<stop stop-color="#40D5E6"/>
<stop offset="1" stop-color="#5577FF"/>
</linearGradient>
<linearGradient id="paint1_linear" x1="170.268" y1="209.567" x2="390.731" y2="209.567" gradientUnits="userSpaceOnUse">
<stop stop-color="#404B61"/>
<stop offset="0.49" stop-color="#3C4860"/>
<stop offset="1" stop-color="#2F3E5C"/>
</linearGradient>
<linearGradient id="paint2_linear" x1="461.213" y1="286.804" x2="517.931" y2="286.804" gradientUnits="userSpaceOnUse">
<stop stop-color="#3076A1"/>
<stop offset="1" stop-color="#639C38"/>
</linearGradient>
<linearGradient id="paint3_linear" x1="38905.2" y1="31186.3" x2="45145.8" y2="31186.3" gradientUnits="userSpaceOnUse">
<stop stop-color="#3076A1"/>
<stop offset="1" stop-color="#639C38"/>
</linearGradient>
<linearGradient id="paint4_linear" x1="24304.5" y1="35094.7" x2="26899.9" y2="35094.7" gradientUnits="userSpaceOnUse">
<stop stop-color="#3076A1"/>
<stop offset="1" stop-color="#639C38"/>
</linearGradient>
<linearGradient id="paint5_linear" x1="7907.72" y1="33120.6" x2="8146.34" y2="33120.6" gradientUnits="userSpaceOnUse">
<stop stop-color="#3076A1"/>
<stop offset="1" stop-color="#639C38"/>
</linearGradient>
<linearGradient id="paint6_linear" x1="22751.5" y1="29523.2" x2="25239.1" y2="29523.2" gradientUnits="userSpaceOnUse">
<stop stop-color="#3076A1"/>
<stop offset="1" stop-color="#639C38"/>
</linearGradient>
<linearGradient id="paint7_linear" x1="32559" y1="55292.6" x2="41447.7" y2="37338" gradientUnits="userSpaceOnUse">
<stop stop-color="#3076A1"/>
<stop offset="1" stop-color="#639C38"/>
</linearGradient>
<linearGradient id="paint8_linear" x1="9614.77" y1="18936.2" x2="9954.67" y2="18936.2" gradientUnits="userSpaceOnUse">
<stop stop-color="#3076A1"/>
<stop offset="1" stop-color="#639C38"/>
</linearGradient>
<linearGradient id="paint9_linear" x1="450.525" y1="335.702" x2="482.483" y2="335.702" gradientUnits="userSpaceOnUse">
<stop stop-color="#FF9340"/>
<stop offset="1" stop-color="#FFCE45"/>
</linearGradient>
<linearGradient id="paint10_linear" x1="450.525" y1="335.702" x2="482.483" y2="335.702" gradientUnits="userSpaceOnUse">
<stop stop-color="#C97332"/>
<stop offset="1" stop-color="#FFCE45"/>
</linearGradient>
<linearGradient id="paint11_linear" x1="92640.2" y1="30261.2" x2="92640.2" y2="45622.4" gradientUnits="userSpaceOnUse">
<stop stop-color="#40D5E6"/>
<stop offset="1" stop-color="#5577FF"/>
</linearGradient>
<linearGradient id="paint12_linear" x1="706.459" y1="3608.51" x2="96124" y2="3608.51" gradientUnits="userSpaceOnUse">
<stop stop-color="#40D5E6"/>
<stop offset="1" stop-color="#5577FF"/>
</linearGradient>
</defs>
</svg>
