<svg width="260" height="167" viewBox="0 0 260 167" fill="none" xmlns="http://www.w3.org/2000/svg">
<g clip-path="url(#clip0)">
<path d="M76.6409 86.4631H8.19727L13.2577 37.771H82.2808L76.6409 86.4631Z" fill="#F5F5F5"/>
<path d="M15.7226 78.2931C15.6596 78.2931 16.3694 70.962 17.3017 61.9366C18.2339 52.9112 19.0403 45.5801 19.099 45.5801C19.1578 45.5801 18.4523 52.907 17.52 61.9366C16.5877 70.9662 15.7814 78.2973 15.7226 78.2931Z" fill="#E0E0E0"/>
<path d="M28.1829 47.2368C27.0412 47.3448 25.8939 47.3812 24.7477 47.3459C23.6015 47.3812 22.4542 47.3448 21.3125 47.2368C22.454 47.1263 23.6015 47.0899 24.7477 47.1278C25.8939 47.0899 27.0414 47.1263 28.1829 47.2368Z" fill="#E0E0E0"/>
<path d="M57.4161 47.2365C57.4161 47.2952 51.289 47.3455 43.7341 47.3455C36.1791 47.3455 30.0479 47.2952 30.0479 47.2365C30.0479 47.1778 36.1749 47.1274 43.7341 47.1274C51.2932 47.1274 57.4161 47.1736 57.4161 47.2365Z" fill="#E0E0E0"/>
<path d="M27.3724 64.5367C26.2309 64.6472 25.0834 64.6836 23.9372 64.6457C22.7909 64.6836 21.6435 64.6472 20.502 64.5367C21.6436 64.4287 22.7909 64.3923 23.9372 64.4276C25.0834 64.3923 26.2307 64.4287 27.3724 64.5367Z" fill="#E0E0E0"/>
<path d="M56.6055 64.5368C56.6055 64.5997 50.4784 64.6458 42.9235 64.6458C35.3686 64.6458 29.2373 64.5997 29.2373 64.5368C29.2373 64.4739 35.3644 64.4277 42.9235 64.4277C50.4826 64.4277 56.6055 64.4781 56.6055 64.5368Z" fill="#E0E0E0"/>
<path d="M47.2823 72.5348C47.2823 72.5977 41.1552 72.6439 33.6003 72.6439C26.0453 72.6439 19.9141 72.5977 19.9141 72.5348C19.9141 72.4719 26.0411 72.4258 33.6003 72.4258C41.1594 72.4258 47.2823 72.4551 47.2823 72.5348Z" fill="#E0E0E0"/>
<path d="M31.2112 52.123C31.2112 52.1817 29.0485 52.2321 26.3776 52.2321C23.7067 52.2321 21.5439 52.1817 21.5439 52.123C21.5439 52.0643 23.7109 52.0098 26.3776 52.0098C29.0443 52.0098 31.2112 52.0601 31.2112 52.123Z" fill="#E0E0E0"/>
<path d="M30.9671 59.2819C30.9671 59.3448 28.8001 59.3909 26.1334 59.3909C23.4668 59.3909 21.2998 59.3448 21.2998 59.2819C21.2998 59.219 23.4626 59.1729 26.1334 59.1729C28.8043 59.1729 30.9671 59.2232 30.9671 59.2819Z" fill="#E0E0E0"/>
<path d="M39.1389 69.5192C39.1389 69.5779 36.972 69.6282 34.3053 69.6282C31.6386 69.6282 29.4717 69.5779 29.4717 69.5192C29.4717 69.4605 31.6344 69.4102 34.3053 69.4102C36.9762 69.4102 39.1389 69.4563 39.1389 69.5192Z" fill="#E0E0E0"/>
<path d="M66.3682 52.123C66.3682 52.1817 60.8417 52.2321 54.0217 52.2321C47.2017 52.2321 41.6709 52.1817 41.6709 52.123C41.6709 52.0643 47.2017 52.0098 54.0217 52.0098C60.8417 52.0098 66.3682 52.0601 66.3682 52.123Z" fill="#E0E0E0"/>
<path d="M58.7556 59.6969C58.7556 59.7598 53.2291 59.806 46.4091 59.806C39.5891 59.806 34.0625 59.7598 34.0625 59.6969C34.0625 59.634 39.5891 59.5879 46.4091 59.5879C53.2291 59.5879 58.7556 59.6382 58.7556 59.6969Z" fill="#E0E0E0"/>
<path d="M67.2549 69.5192C67.2549 69.5779 61.7242 69.6282 54.9084 69.6282C48.0926 69.6282 42.5576 69.5779 42.5576 69.5192C42.5576 69.4605 48.0884 69.4102 54.9084 69.4102C61.7284 69.4102 67.2549 69.4563 67.2549 69.5192Z" fill="#E0E0E0"/>
<path d="M44.7071 78.2931C44.7071 78.3518 39.1763 78.4022 32.3563 78.4022C25.5363 78.4022 20.0098 78.3518 20.0098 78.2931C20.0098 78.2344 25.5363 78.1841 32.3563 78.1841C39.1763 78.1841 44.7071 78.2302 44.7071 78.2931Z" fill="#E0E0E0"/>
<path d="M72.0166 78.2931C72.0166 78.3518 66.4859 78.4022 59.6701 78.4022C52.8543 78.4022 47.3193 78.3518 47.3193 78.2931C47.3193 78.2344 52.8459 78.1841 59.6701 78.1841C66.4943 78.1841 72.0166 78.2302 72.0166 78.2931Z" fill="#E0E0E0"/>
<path d="M44.7042 81.1452C44.7042 81.2081 39.1776 81.2542 32.3576 81.2542C25.5376 81.2542 20.0068 81.2081 20.0068 81.1452C20.0068 81.0823 25.5376 81.0361 32.3576 81.0361C39.1776 81.0361 44.7042 81.0865 44.7042 81.1452Z" fill="#E0E0E0"/>
<path d="M45.9043 54.1779C45.9043 54.2366 40.3778 54.2869 33.5578 54.2869C26.7378 54.2869 21.207 54.2366 21.207 54.1779C21.207 54.1192 26.7378 54.0688 33.5578 54.0688C40.3778 54.0688 45.9043 54.115 45.9043 54.1779Z" fill="#E0E0E0"/>
<path d="M39.3193 52.1479C38.2633 52.2559 37.2012 52.2923 36.1403 52.257C35.0779 52.2924 34.0144 52.2559 32.957 52.1479C34.0143 52.0375 35.0779 52.001 36.1403 52.0389C37.2012 52.0011 38.2635 52.0375 39.3193 52.1479Z" fill="#E0E0E0"/>
<path d="M26.5664 66.8897C25.509 66.9977 24.4455 67.0341 23.3831 66.9987C22.3222 67.0341 21.2601 66.9977 20.2041 66.8897C21.2601 66.7817 22.3222 66.7453 23.3831 66.7806C24.4455 66.7453 25.509 66.7817 26.5664 66.8897Z" fill="#E0E0E0"/>
<path d="M26.415 69.5195C25.359 69.6275 24.2969 69.6639 23.236 69.6286C22.1736 69.6639 21.1101 69.6275 20.0527 69.5195C21.11 69.409 22.1736 69.3726 23.236 69.4105C24.2969 69.3727 25.3592 69.4091 26.415 69.5195Z" fill="#E0E0E0"/>
<path d="M81.5249 42.9211C81.5249 42.984 66.1337 43.0301 47.1519 43.0301C28.1701 43.0301 12.7705 42.984 12.7705 42.9211C12.7705 42.8581 28.1617 42.812 47.1519 42.812C66.1421 42.812 81.5249 42.8623 81.5249 42.9211Z" fill="#E0E0E0"/>
<path d="M17.4114 41.4153C17.8613 41.4153 18.2261 41.0511 18.2261 40.6017C18.2261 40.1524 17.8613 39.7881 17.4114 39.7881C16.9614 39.7881 16.5967 40.1524 16.5967 40.6017C16.5967 41.0511 16.9614 41.4153 17.4114 41.4153Z" fill="white"/>
<path d="M20.9094 41.4153C21.3594 41.4153 21.7241 41.0511 21.7241 40.6017C21.7241 40.1524 21.3594 39.7881 20.9094 39.7881C20.4595 39.7881 20.0947 40.1524 20.0947 40.6017C20.0947 41.0511 20.4595 41.4153 20.9094 41.4153Z" fill="white"/>
<path d="M24.4075 41.4153C24.8574 41.4153 25.2222 41.0511 25.2222 40.6017C25.2222 40.1524 24.8574 39.7881 24.4075 39.7881C23.9575 39.7881 23.5928 40.1524 23.5928 40.6017C23.5928 41.0511 23.9575 41.4153 24.4075 41.4153Z" fill="white"/>
<path d="M254.36 62.1171H185.916L190.976 13.4292H260L254.36 62.1171Z" fill="#F5F5F5"/>
<path d="M193.442 53.9472C193.383 53.9472 194.089 46.6161 195.021 37.5907C195.953 28.5652 196.76 21.2342 196.818 21.2593C196.877 21.2845 196.172 28.5862 195.239 37.6159C194.307 46.6455 193.501 53.9514 193.442 53.9472Z" fill="#E0E0E0"/>
<path d="M205.902 22.8908C203.614 23.0362 201.319 23.0362 199.031 22.8908C201.319 22.7454 203.614 22.7454 205.902 22.8908Z" fill="#E0E0E0"/>
<path d="M235.138 22.8908C235.138 22.9495 229.011 22.9998 221.452 22.9998C213.893 22.9998 207.766 22.9495 207.766 22.8908C207.766 22.8321 213.893 22.7817 221.452 22.7817C229.011 22.7817 235.138 22.8321 235.138 22.8908Z" fill="#E0E0E0"/>
<path d="M205.095 40.195C202.806 40.3403 200.51 40.3403 198.221 40.195C200.51 40.0496 202.806 40.0496 205.095 40.195Z" fill="#E0E0E0"/>
<path d="M234.349 40.195C234.349 40.2537 228.222 40.304 220.663 40.304C213.104 40.304 206.977 40.2537 206.977 40.195C206.977 40.1363 213.104 40.0859 220.663 40.0859C228.222 40.0859 234.349 40.1321 234.349 40.195Z" fill="#E0E0E0"/>
<path d="M225.005 48.172C225.005 48.2308 218.878 48.2811 211.319 48.2811C203.76 48.2811 197.633 48.2308 197.633 48.172C197.633 48.1133 203.76 48.063 211.319 48.063C218.878 48.063 225.005 48.1091 225.005 48.172Z" fill="#E0E0E0"/>
<path d="M208.934 27.7766C208.934 27.8353 206.767 27.8857 204.1 27.8857C201.434 27.8857 199.267 27.8353 199.267 27.7766C199.267 27.7179 201.429 27.6592 204.113 27.6592C206.796 27.6592 208.934 27.7137 208.934 27.7766Z" fill="#E0E0E0"/>
<path d="M208.686 34.9357C208.686 34.9986 206.523 35.0447 203.852 35.0447C201.181 35.0447 199.019 34.9986 199.019 34.9357C199.019 34.8728 201.181 34.8267 203.852 34.8267C206.523 34.8267 208.686 34.877 208.686 34.9357Z" fill="#E0E0E0"/>
<path d="M216.859 45.173C216.859 45.2317 214.696 45.2821 212.025 45.2821C209.354 45.2821 207.191 45.2317 207.191 45.173C207.191 45.1143 209.354 45.064 212.025 45.064C214.696 45.064 216.859 45.1143 216.859 45.173Z" fill="#E0E0E0"/>
<path d="M244.101 27.7765C244.101 27.8352 238.57 27.8856 231.75 27.8856C224.93 27.8856 219.403 27.8352 219.403 27.7765C219.403 27.7178 224.93 27.6675 231.75 27.6675C238.57 27.6675 244.101 27.7136 244.101 27.7765Z" fill="#E0E0E0"/>
<path d="M236.479 35.3512C236.479 35.4141 230.948 35.4603 224.128 35.4603C217.308 35.4603 211.781 35.4141 211.781 35.3512C211.781 35.2883 217.308 35.2422 224.128 35.2422C230.948 35.2422 236.479 35.2925 236.479 35.3512Z" fill="#E0E0E0"/>
<path d="M244.974 45.173C244.974 45.2317 239.448 45.2821 232.628 45.2821C225.808 45.2821 220.281 45.2317 220.281 45.173C220.281 45.1143 225.808 45.064 232.628 45.064C239.448 45.064 244.974 45.1143 244.974 45.173Z" fill="#E0E0E0"/>
<path d="M222.427 53.9469C222.427 54.0056 216.896 54.056 210.08 54.056C203.264 54.056 197.729 54.0056 197.729 53.9469C197.729 53.8882 203.256 53.8379 210.08 53.8379C216.904 53.8379 222.427 53.884 222.427 53.9469Z" fill="#E0E0E0"/>
<path d="M249.736 53.9469C249.736 54.0056 244.21 54.056 237.39 54.056C230.57 54.056 225.039 54.0056 225.039 53.9469C225.039 53.8882 230.57 53.8379 237.39 53.8379C244.21 53.8379 249.736 53.884 249.736 53.9469Z" fill="#E0E0E0"/>
<path d="M222.423 56.799C222.423 56.8619 216.896 56.908 210.076 56.908C203.256 56.908 197.729 56.8619 197.729 56.799C197.729 56.7361 203.256 56.6899 210.076 56.6899C216.896 56.6899 222.423 56.7403 222.423 56.799Z" fill="#E0E0E0"/>
<path d="M223.628 29.8317C223.628 29.8904 218.097 29.9407 211.277 29.9407C204.457 29.9407 198.931 29.8904 198.931 29.8317C198.931 29.773 204.457 29.7227 211.277 29.7227C218.097 29.7227 223.628 29.7562 223.628 29.8317Z" fill="#E0E0E0"/>
<path d="M217.039 27.8019C214.922 27.9473 212.798 27.9473 210.681 27.8019C212.798 27.6565 214.922 27.6565 217.039 27.8019Z" fill="#E0E0E0"/>
<path d="M204.285 42.5436C202.167 42.689 200.041 42.689 197.923 42.5436C200.041 42.3982 202.167 42.3982 204.285 42.5436Z" fill="#E0E0E0"/>
<path d="M204.134 45.173C202.018 45.3184 199.893 45.3184 197.776 45.173C199.893 45.0276 202.018 45.0276 204.134 45.173Z" fill="#E0E0E0"/>
<path d="M259.248 18.5753C259.248 18.6383 243.853 18.6844 224.871 18.6844C205.89 18.6844 190.494 18.6383 190.494 18.5753C190.494 18.5124 205.881 18.4663 224.871 18.4663C243.861 18.4663 259.248 18.5166 259.248 18.5753Z" fill="#E0E0E0"/>
<path d="M195.13 17.0696C195.58 17.0696 195.945 16.7054 195.945 16.256C195.945 15.8067 195.58 15.4424 195.13 15.4424C194.68 15.4424 194.315 15.8067 194.315 16.256C194.315 16.7054 194.68 17.0696 195.13 17.0696Z" fill="white"/>
<path d="M198.628 17.0696C199.078 17.0696 199.443 16.7054 199.443 16.256C199.443 15.8067 199.078 15.4424 198.628 15.4424C198.178 15.4424 197.813 15.8067 197.813 16.256C197.813 16.7054 198.178 17.0696 198.628 17.0696Z" fill="white"/>
<path d="M202.126 17.0696C202.576 17.0696 202.941 16.7054 202.941 16.256C202.941 15.8067 202.576 15.4424 202.126 15.4424C201.676 15.4424 201.312 15.8067 201.312 16.256C201.312 16.7054 201.676 17.0696 202.126 17.0696Z" fill="white"/>
<path d="M110.808 30.3267H68.1787L71.3283 0H114.319L110.808 30.3267Z" fill="#EBEBEB"/>
<path d="M72.8658 25.235C72.807 25.235 73.227 20.6678 73.8065 15.0478C74.3861 9.42791 74.9068 4.87325 74.9698 4.87744C75.0328 4.88164 74.6086 9.44888 74.0249 15.0688C73.4412 20.6887 72.9246 25.2434 72.8658 25.235Z" fill="#E0E0E0"/>
<path d="M80.6475 5.89274C79.2247 6.03813 77.7909 6.03813 76.3682 5.89274C77.7909 5.74734 79.2247 5.74734 80.6475 5.89274Z" fill="#E0E0E0"/>
<path d="M98.8352 5.89274C98.8352 5.95565 95.0178 6.00178 90.3102 6.00178C85.6025 6.00178 81.7852 5.95565 81.7852 5.89274C81.7852 5.82983 85.6025 5.78369 90.3102 5.78369C95.0178 5.78369 98.8352 5.8508 98.8352 5.89274Z" fill="#E0E0E0"/>
<path d="M80.1221 16.6711C78.6994 16.8165 77.2655 16.8165 75.8428 16.6711C77.2655 16.5257 78.6994 16.5257 80.1221 16.6711Z" fill="#E0E0E0"/>
<path d="M98.3313 16.6711C98.3313 16.7298 94.5139 16.7801 89.8063 16.7801C85.0986 16.7801 81.2812 16.7298 81.2812 16.6711C81.2812 16.6123 85.0986 16.562 89.8063 16.562C94.5139 16.562 98.3313 16.6123 98.3313 16.6711Z" fill="#E0E0E0"/>
<path d="M92.5224 21.6369C92.5224 21.6998 88.705 21.7459 83.9974 21.7459C79.2897 21.7459 75.4766 21.6998 75.4766 21.6369C75.4766 21.574 79.2897 21.5278 83.9974 21.5278C88.705 21.5278 92.5224 21.5782 92.5224 21.6369Z" fill="#E0E0E0"/>
<path d="M82.511 8.93703C81.5112 9.04494 80.505 9.08138 79.5 9.04607C78.4964 9.08146 77.4916 9.04502 76.4932 8.93703C77.4914 8.82651 78.4964 8.79006 79.5 8.82798C80.505 8.79016 81.5114 8.82661 82.511 8.93703Z" fill="#E0E0E0"/>
<path d="M82.361 13.3999C81.3613 13.5103 80.3549 13.5468 79.3499 13.509C78.3449 13.5468 77.3385 13.5103 76.3389 13.3999C77.3387 13.292 78.3449 13.2556 79.3499 13.2909C80.3549 13.2556 81.3612 13.292 82.361 13.3999Z" fill="#E0E0E0"/>
<path d="M87.4498 19.7705C86.4502 19.8809 85.4438 19.9174 84.4388 19.8796C83.4338 19.9174 82.4274 19.8809 81.4277 19.7705C82.4275 19.6626 83.4338 19.6262 84.4388 19.6615C85.4438 19.6262 86.45 19.6626 87.4498 19.7705Z" fill="#E0E0E0"/>
<path d="M104.417 8.93766C104.417 8.99637 100.973 9.0467 96.7278 9.0467C92.4821 9.0467 89.0469 8.99637 89.0469 8.93766C89.0469 8.87894 92.4905 8.82861 96.7404 8.82861C100.99 8.82861 104.417 8.87475 104.417 8.93766Z" fill="#E0E0E0"/>
<path d="M99.6667 13.6554C99.6667 13.7141 96.2231 13.7645 91.9774 13.7645C87.7317 13.7645 84.2881 13.7141 84.2881 13.6554C84.2881 13.5967 87.7317 13.5464 91.9774 13.5464C96.2231 13.5464 99.6667 13.5967 99.6667 13.6554Z" fill="#E0E0E0"/>
<path d="M104.963 19.7707C104.963 19.8336 101.519 19.8797 97.2736 19.8797C93.0279 19.8797 89.5801 19.8336 89.5801 19.7707C89.5801 19.7078 93.0237 19.6616 97.2736 19.6616C101.524 19.6616 104.963 19.7119 104.963 19.7707Z" fill="#E0E0E0"/>
<path d="M90.9189 25.235C90.9189 25.2979 87.4753 25.3441 83.2254 25.3441C78.9755 25.3441 75.5361 25.2979 75.5361 25.235C75.5361 25.1721 78.9797 25.126 83.2254 25.126C87.4711 25.126 90.9189 25.1763 90.9189 25.235Z" fill="#E0E0E0"/>
<path d="M107.943 25.235C107.943 25.2979 104.5 25.3441 100.254 25.3441C96.0083 25.3441 92.5605 25.2979 92.5605 25.235C92.5605 25.1721 96.0041 25.126 100.254 25.126C104.504 25.126 107.943 25.1763 107.943 25.235Z" fill="#E0E0E0"/>
<path d="M90.9147 27.0133C90.9147 27.0763 87.4712 27.1224 83.2254 27.1224C78.9797 27.1224 75.5361 27.0763 75.5361 27.0133C75.5361 26.9504 78.9755 26.9043 83.2254 26.9043C87.4754 26.9043 90.9147 26.9546 90.9147 27.0133Z" fill="#E0E0E0"/>
<path d="M91.6618 10.2165C91.6618 10.2794 88.2182 10.3255 83.9725 10.3255C79.7268 10.3255 76.2832 10.2794 76.2832 10.2165C76.2832 10.1536 79.7268 10.1074 83.9725 10.1074C88.2182 10.1074 91.6618 10.1578 91.6618 10.2165Z" fill="#E0E0E0"/>
<path d="M87.563 8.95419C86.2455 9.09949 84.9161 9.09949 83.5986 8.95419C84.9161 8.80889 86.2455 8.80889 87.563 8.95419Z" fill="#E0E0E0"/>
<path d="M79.6183 18.1349C78.3023 18.2803 76.9742 18.2803 75.6582 18.1349C76.9742 17.9895 78.3023 17.9895 79.6183 18.1349Z" fill="#E0E0E0"/>
<path d="M79.5258 19.7701C78.2084 19.9154 76.879 19.9154 75.5615 19.7701C76.879 19.6248 78.2084 19.6248 79.5258 19.7701Z" fill="#E0E0E0"/>
<path d="M113.849 3.20816C113.849 3.26688 104.265 3.31721 92.4312 3.31721C80.597 3.31721 71.0137 3.26688 71.0137 3.20816C71.0137 3.14945 80.597 3.09912 92.4312 3.09912C104.265 3.09912 113.849 3.14525 113.849 3.20816Z" fill="#E0E0E0"/>
<path d="M74.4232 1.76121C74.4199 1.86133 74.387 1.95821 74.3286 2.03967C74.2702 2.12112 74.189 2.1835 74.0951 2.21894C74.0013 2.25438 73.8991 2.26129 73.8014 2.23882C73.7036 2.21635 73.6147 2.16548 73.5459 2.09264C73.477 2.0198 73.4313 1.92824 73.4144 1.82949C73.3976 1.73074 73.4104 1.62922 73.4512 1.53772C73.4921 1.44623 73.5591 1.36884 73.6439 1.31532C73.7287 1.2618 73.8274 1.23454 73.9277 1.23697C73.9948 1.23859 74.0609 1.25348 74.1222 1.28076C74.1835 1.30805 74.2388 1.34719 74.2849 1.39593C74.331 1.44468 74.3669 1.50205 74.3907 1.56475C74.4144 1.62744 74.4255 1.69422 74.4232 1.76121Z" fill="white"/>
<path d="M76.6029 1.76155C76.5996 1.86114 76.5671 1.95755 76.5093 2.03877C76.4515 2.11999 76.371 2.18242 76.2779 2.21827C76.1848 2.25412 76.0832 2.2618 75.9858 2.24037C75.8883 2.21893 75.7993 2.16932 75.73 2.09773C75.6606 2.02614 75.6138 1.93572 75.5955 1.83777C75.5772 1.73982 75.5882 1.63865 75.6271 1.5469C75.666 1.45514 75.7311 1.37686 75.8143 1.3218C75.8975 1.26675 75.995 1.23736 76.0948 1.2373C76.163 1.23727 76.2304 1.25093 76.2932 1.27747C76.356 1.30402 76.4128 1.34291 76.4602 1.39182C76.5076 1.44074 76.5447 1.49868 76.5692 1.56219C76.5937 1.62571 76.6052 1.69351 76.6029 1.76155Z" fill="white"/>
<path d="M78.7826 1.76155C78.7793 1.86114 78.7467 1.95755 78.6889 2.03877C78.6311 2.11999 78.5507 2.18242 78.4576 2.21827C78.3645 2.25412 78.2629 2.2618 78.1654 2.24037C78.068 2.21893 77.979 2.16932 77.9096 2.09773C77.8402 2.02614 77.7935 1.93572 77.7752 1.83777C77.7569 1.73982 77.7679 1.63865 77.8068 1.5469C77.8457 1.45514 77.9108 1.37686 77.994 1.3218C78.0771 1.26675 78.1747 1.23736 78.2745 1.2373C78.3426 1.23727 78.4101 1.25093 78.4729 1.27747C78.5356 1.30402 78.5924 1.34291 78.6398 1.39182C78.6873 1.44074 78.7243 1.49868 78.7489 1.56219C78.7734 1.62571 78.7849 1.69351 78.7826 1.76155Z" fill="white"/>
<path d="M226.66 83.2505H205.192V152.644H226.66V83.2505Z" fill="#EBEBEB"/>
<path d="M244.885 83.2632H226.659V152.632H244.885V83.2632Z" fill="#E0E0E0"/>
<path d="M224.094 86.0605H206.872V101.008H224.094V86.0605Z" fill="#E0E0E0"/>
<path d="M224.094 102.702H206.872V117.649H224.094V102.702Z" fill="#E0E0E0"/>
<path d="M224.094 119.344H206.872V134.291H224.094V119.344Z" fill="#E0E0E0"/>
<path d="M224.094 135.985H206.872V150.933H224.094V135.985Z" fill="#E0E0E0"/>
<path d="M215.485 88.8201C215.486 88.9389 215.452 89.0553 215.386 89.1545C215.321 89.2537 215.227 89.3312 215.117 89.3772C215.008 89.4233 214.887 89.4357 214.77 89.4131C214.653 89.3904 214.546 89.3336 214.462 89.2499C214.377 89.1662 214.32 89.0594 214.296 88.9429C214.273 88.8264 214.284 88.7057 214.33 88.5958C214.375 88.486 214.452 88.3921 214.551 88.326C214.649 88.2599 214.766 88.2246 214.885 88.2246C215.043 88.2246 215.195 88.2872 215.308 88.3988C215.42 88.5103 215.484 88.6618 215.485 88.8201Z" fill="#FAFAFA"/>
<path d="M215.485 105.667C215.486 105.786 215.452 105.902 215.386 106.002C215.321 106.101 215.227 106.178 215.117 106.224C215.008 106.27 214.887 106.283 214.77 106.26C214.653 106.238 214.546 106.181 214.462 106.097C214.377 106.013 214.32 105.907 214.296 105.79C214.273 105.674 214.284 105.553 214.33 105.443C214.375 105.333 214.452 105.239 214.551 105.173C214.649 105.107 214.766 105.072 214.885 105.072C215.043 105.072 215.195 105.134 215.308 105.246C215.42 105.358 215.484 105.509 215.485 105.667Z" fill="#FAFAFA"/>
<path d="M215.485 122.493C215.485 122.612 215.45 122.728 215.384 122.826C215.318 122.925 215.224 123.002 215.115 123.047C215.005 123.093 214.884 123.105 214.768 123.082C214.651 123.058 214.544 123.001 214.46 122.917C214.376 122.833 214.319 122.727 214.296 122.61C214.273 122.494 214.284 122.373 214.33 122.264C214.375 122.154 214.452 122.061 214.551 121.995C214.65 121.929 214.766 121.894 214.885 121.894C215.044 121.894 215.197 121.957 215.309 122.069C215.422 122.182 215.485 122.334 215.485 122.493Z" fill="#FAFAFA"/>
<path d="M215.485 139.328C215.486 139.447 215.452 139.563 215.386 139.662C215.321 139.761 215.227 139.839 215.117 139.885C215.008 139.931 214.887 139.944 214.77 139.921C214.653 139.898 214.546 139.841 214.462 139.758C214.377 139.674 214.32 139.567 214.296 139.451C214.273 139.334 214.284 139.213 214.33 139.104C214.375 138.994 214.452 138.9 214.551 138.834C214.649 138.768 214.766 138.732 214.885 138.732C215.043 138.732 215.195 138.795 215.308 138.907C215.42 139.018 215.484 139.17 215.485 139.328Z" fill="#FAFAFA"/>
<path d="M207.674 152.644H205.192V166.564H207.674V152.644Z" fill="#E0E0E0"/>
<path d="M226.576 152.644H224.094V166.564H226.576V152.644Z" fill="#E0E0E0"/>
<path d="M244.622 152.644H242.14V166.564H244.622V152.644Z" fill="#E0E0E0"/>
<path d="M24.8532 162.634C24.2191 162.093 22.7997 160.373 23.8916 158.373C24.3115 157.643 25.1514 157.278 25.9199 156.955C26.7121 156.688 27.4596 156.304 28.1373 155.815C29.3425 154.795 29.6743 153.101 30.4722 151.742C31.3919 150.186 33.1053 149.016 34.9153 149.1C36.9856 149.192 38.6948 150.874 39.4969 152.791C40.299 154.707 40.3074 156.838 40.3368 158.91C40.3368 160.055 40.2948 161.346 39.4465 162.122C38.6696 162.835 37.4938 162.844 36.4355 162.81L25.0968 162.466" fill="#F5F5F5"/>
<path d="M46.5092 131.67H16.7305L22.0974 163.464C22.2063 164.126 22.5008 164.743 22.9468 165.244C23.3928 165.745 23.972 166.11 24.6171 166.295L24.7221 166.325C24.8091 166.352 24.8974 166.374 24.9867 166.392C25.1992 166.441 25.4156 166.47 25.6334 166.48V166.509L25.7804 166.488H39.0509C39.2963 166.487 39.541 166.462 39.7816 166.413C40.5551 166.296 41.2688 165.929 41.8128 165.367C42.3568 164.806 42.7011 164.081 42.7926 163.305L45.3711 141.396L45.4887 140.523L46.5092 131.846V131.67ZM40.8902 151.952H37.8372L38.1438 142.725H41.684L40.8902 151.952ZM41.9821 142.725H44.9218L43.8299 151.952H41.1716L41.9821 142.725ZM33.2513 162.181L33.0666 154.166H37.4676L37.1989 162.181H33.2513ZM28.4933 154.166H32.7726L32.9616 162.181H29.119L28.4933 154.166ZM28.8251 162.181H25.2387C24.8985 160.017 24.4534 157.203 23.9788 154.166H28.2035L28.8251 162.181ZM28.3211 151.952L27.5988 142.725H32.5038L32.718 151.952H28.3211ZM33.0162 151.952L32.802 142.725H37.8414L37.5306 151.952H33.0162ZM32.7474 140.511L32.55 131.964H38.2068L37.9212 140.511H32.7474ZM32.4534 140.511H27.414L26.7463 131.964H32.2435L32.4534 140.511ZM27.1285 140.511H21.8119C21.6229 139.332 21.4423 138.213 21.2827 137.21C20.7284 133.754 20.5184 132.454 20.405 131.964H26.4733L27.1285 140.511ZM27.3048 142.725L28.0229 151.952H23.6261C23.4791 151.017 23.3279 150.069 23.1767 149.121C22.8324 146.944 22.488 144.764 22.1646 142.725H27.3048ZM23.3279 151.952H20.4512L18.8974 142.725H21.8539L23.3279 151.952ZM23.6765 154.166C24.0964 156.939 24.5458 159.673 24.9363 162.181H22.173L20.8208 154.166H23.6765ZM37.4928 162.181L37.7616 154.166H40.7013L40.0125 162.181H37.4928ZM38.232 140.523L38.5175 131.976H42.6204L41.8897 140.523H38.232ZM20.1363 131.976C20.2539 132.597 20.7956 135.96 21.5263 140.523H18.5363L17.0916 131.976H20.1363ZM42.6246 162.173H40.3317L41.0204 154.158H43.5779L42.6246 162.173ZM45.1821 140.502H42.1837L42.9186 131.955H46.19L45.1821 140.502Z" fill="#E0E0E0"/>
<path d="M242.749 166.56C242.749 166.623 188.399 166.669 121.383 166.669C54.3676 166.669 0.0175781 166.623 0.0175781 166.56C0.0175781 166.497 54.355 166.451 121.404 166.451C188.454 166.451 242.749 166.501 242.749 166.56Z" fill="#263238"/>
<path d="M135.736 75.8395H89.1631L92.6025 42.707H139.574L135.736 75.8395Z" fill="#263238"/>
<path d="M133.364 75.8395H86.791L90.2346 42.707H137.202L133.364 75.8395Z" fill="#455A64"/>
<path d="M131.637 74.3378H88.4199L91.6157 43.5918H135.198L131.637 74.3378Z" fill="#F5F5F5"/>
<path d="M93.1067 69.2128C93.0437 69.2128 93.4721 64.5785 94.0642 58.883C94.6563 53.1876 95.1771 48.5658 95.2359 48.5742C95.2947 48.5826 94.8705 53.1876 94.2784 58.904C93.6863 64.6204 93.1655 69.217 93.1067 69.2128Z" fill="#263238"/>
<path d="M100.973 49.6017C99.5305 49.7471 98.0771 49.7471 96.6348 49.6017C98.0771 49.4563 99.5305 49.4563 100.973 49.6017Z" fill="#263238"/>
<path d="M119.434 49.6017C119.434 49.6604 115.567 49.7108 110.792 49.7108C106.017 49.7108 102.153 49.6604 102.153 49.6017C102.153 49.543 106.021 49.4927 110.792 49.4927C115.562 49.4927 119.434 49.543 119.434 49.6017Z" fill="#17AFAF"/>
<path d="M100.464 60.5275C99.0206 60.6729 97.5658 60.6729 96.1221 60.5275C97.5658 60.3821 99.0206 60.3821 100.464 60.5275Z" fill="#263238"/>
<path d="M118.922 60.5275C118.922 60.5904 115.054 60.6365 110.283 60.6365C105.513 60.6365 101.641 60.5904 101.641 60.5275C101.641 60.4646 105.508 60.4185 110.283 60.4185C115.058 60.4185 118.922 60.4688 118.922 60.5275Z" fill="#17AFAF"/>
<path d="M113.034 65.5641C113.034 65.6228 109.166 65.6732 104.396 65.6732C99.6249 65.6732 95.7529 65.6228 95.7529 65.5641C95.7529 65.5054 99.6207 65.4551 104.396 65.4551C109.17 65.4551 113.034 65.5054 113.034 65.5641Z" fill="#17AFAF"/>
<path d="M102.905 52.6845C101.891 52.7976 100.871 52.8355 99.8519 52.7978C98.8328 52.8355 97.8123 52.7976 96.7988 52.6845C97.8127 52.5767 98.8329 52.5403 99.8519 52.5755C100.871 52.5403 101.891 52.5767 102.905 52.6845Z" fill="#17AFAF"/>
<path d="M102.732 57.2099C101.718 57.3177 100.698 57.3541 99.679 57.3189C98.66 57.3541 97.6398 57.3177 96.626 57.2099C97.6397 57.0995 98.66 57.0631 99.679 57.1008C100.698 57.0631 101.718 57.0995 102.732 57.2099Z" fill="#17AFAF"/>
<path d="M107.893 63.6724C106.879 63.7802 105.859 63.8166 104.84 63.7814C103.821 63.8168 102.801 63.7804 101.787 63.6724C102.801 63.5619 103.821 63.5254 104.84 63.5633C105.859 63.5256 106.88 63.562 107.893 63.6724Z" fill="#17AFAF"/>
<path d="M125.091 52.6842C125.091 52.7471 121.601 52.7975 117.297 52.7975C112.992 52.7975 109.498 52.7471 109.498 52.6842C109.498 52.6213 112.988 52.5752 117.297 52.5752C121.605 52.5752 125.091 52.6255 125.091 52.6842Z" fill="#263238"/>
<path d="M120.278 57.4699C120.278 57.5328 116.789 57.5789 112.484 57.5789C108.18 57.5789 104.686 57.5328 104.686 57.4699C104.686 57.407 108.175 57.3608 112.484 57.3608C116.793 57.3608 120.278 57.4112 120.278 57.4699Z" fill="#263238"/>
<path d="M125.645 63.673C125.645 63.7317 122.155 63.7821 117.851 63.7821C113.546 63.7821 110.044 63.7275 110.044 63.673C110.044 63.6185 113.534 63.564 117.842 63.564C122.151 63.564 125.645 63.6101 125.645 63.673Z" fill="#263238"/>
<path d="M111.408 69.213C111.408 69.2718 107.915 69.3221 103.61 69.3221C99.3055 69.3221 95.8115 69.2718 95.8115 69.213C95.8115 69.1543 99.3055 69.104 103.61 69.104C107.915 69.104 111.408 69.1501 111.408 69.213Z" fill="#263238"/>
<path d="M128.651 69.213C128.651 69.2718 125.162 69.3221 120.857 69.3221C116.553 69.3221 113.059 69.2718 113.059 69.213C113.059 69.1543 116.548 69.104 120.857 69.104C125.166 69.104 128.651 69.1501 128.651 69.213Z" fill="#263238"/>
<path d="M111.404 71.0124C111.404 71.0753 107.914 71.1214 103.61 71.1214C99.3055 71.1214 95.8115 71.0753 95.8115 71.0124C95.8115 70.9495 99.3013 70.9033 103.61 70.9033C107.919 70.9033 111.404 70.9536 111.404 71.0124Z" fill="#263238"/>
<path d="M112.165 53.9845C112.165 54.0432 108.675 54.0936 104.371 54.0936C100.066 54.0936 96.5723 54.0432 96.5723 53.9845C96.5723 53.9258 100.062 53.8755 104.371 53.8755C108.679 53.8755 112.165 53.9258 112.165 53.9845Z" fill="#263238"/>
<path d="M108.007 52.7055C106.672 52.8509 105.324 52.8509 103.988 52.7055C105.324 52.5545 106.672 52.5545 108.007 52.7055Z" fill="#455A64"/>
<path d="M99.9649 62.0119C98.6306 62.1573 97.2845 62.1573 95.9502 62.0119C97.2845 61.8665 98.6306 61.8665 99.9649 62.0119Z" fill="#455A64"/>
<path d="M99.8556 63.673C98.5213 63.8184 97.1751 63.8184 95.8408 63.673C97.1751 63.5276 98.5213 63.5276 99.8556 63.673Z" fill="#455A64"/>
<path d="M134.658 46.8798C134.658 46.9385 124.94 46.9889 112.95 46.9889C100.961 46.9889 91.2432 46.9385 91.2432 46.8798C91.2432 46.8211 100.961 46.7666 112.95 46.7666C124.94 46.7666 134.658 46.8169 134.658 46.8798Z" fill="#263238"/>
<path d="M94.6864 45.4119C94.6864 45.5141 94.656 45.614 94.599 45.6989C94.5421 45.7838 94.4612 45.8499 94.3666 45.8889C94.2719 45.9278 94.1678 45.9377 94.0675 45.9175C93.9672 45.8972 93.8752 45.8477 93.8031 45.7751C93.7311 45.7026 93.6822 45.6103 93.6627 45.5099C93.6433 45.4096 93.6541 45.3057 93.6939 45.2115C93.7336 45.1174 93.8005 45.0371 93.886 44.9809C93.9714 44.9247 94.0717 44.8952 94.1741 44.896C94.2417 44.896 94.3087 44.9094 94.3711 44.9354C94.4335 44.9613 94.4902 44.9994 94.5378 45.0474C94.5855 45.0953 94.6231 45.1522 94.6486 45.2148C94.6741 45.2773 94.687 45.3443 94.6864 45.4119Z" fill="white"/>
<path d="M96.8954 45.4119C96.8954 45.5141 96.865 45.614 96.808 45.6989C96.7511 45.7838 96.6701 45.8499 96.5755 45.8889C96.4809 45.9278 96.3768 45.9377 96.2765 45.9175C96.1762 45.8972 96.0842 45.8477 96.0121 45.7751C95.94 45.7026 95.8912 45.6103 95.8717 45.5099C95.8523 45.4096 95.8631 45.3057 95.9028 45.2115C95.9426 45.1174 96.0094 45.0371 96.0949 44.9809C96.1804 44.9247 96.2807 44.8952 96.383 44.896C96.4507 44.896 96.5176 44.9094 96.5801 44.9354C96.6425 44.9613 96.6992 44.9994 96.7468 45.0474C96.7944 45.0953 96.8321 45.1522 96.8576 45.2148C96.8831 45.2773 96.8959 45.3443 96.8954 45.4119Z" fill="white"/>
<path d="M99.1249 45.4119C99.1249 45.5141 99.0945 45.614 99.0375 45.6989C98.9806 45.7838 98.8997 45.8499 98.805 45.8889C98.7104 45.9278 98.6063 45.9377 98.506 45.9175C98.4057 45.8972 98.3137 45.8477 98.2416 45.7751C98.1695 45.7026 98.1207 45.6103 98.1012 45.5099C98.0818 45.4096 98.0926 45.3057 98.1323 45.2115C98.1721 45.1174 98.2389 45.0371 98.3244 44.9809C98.4099 44.9247 98.5102 44.8952 98.6125 44.896C98.6802 44.896 98.7471 44.9094 98.8096 44.9354C98.872 44.9613 98.9287 44.9994 98.9763 45.0474C99.0239 45.0953 99.0616 45.1522 99.0871 45.2148C99.1126 45.2773 99.1254 45.3443 99.1249 45.4119Z" fill="white"/>
<path d="M196.919 76.8417H147.928L151.548 41.9897H200.955L196.919 76.8417Z" fill="#263238"/>
<path d="M194.424 76.8417H145.433L149.053 41.9897H198.464L194.424 76.8417Z" fill="#455A64"/>
<path d="M192.61 75.2651H147.146L150.506 42.9253H196.356L192.61 75.2651Z" fill="#EBEBEB"/>
<path d="M152.102 69.3848C152.043 69.3848 152.497 64.5114 153.114 58.5182C153.731 52.525 154.286 47.6684 154.344 47.6768C154.403 47.6852 153.95 52.546 153.332 58.5434C152.715 64.5408 152.161 69.389 152.102 69.3848Z" fill="#263238"/>
<path d="M160.379 48.7587C158.861 48.9041 157.333 48.9041 155.814 48.7587C157.332 48.6078 158.861 48.6078 160.379 48.7587Z" fill="#263238"/>
<path d="M179.798 48.7587C179.798 48.8175 175.729 48.8678 170.706 48.8678C165.683 48.8678 161.618 48.8175 161.618 48.7587C161.618 48.7 165.688 48.6455 170.706 48.6455C175.724 48.6455 179.798 48.6958 179.798 48.7587Z" fill="#17AFAF"/>
<path d="M159.841 60.2502C158.323 60.3955 156.795 60.3955 155.276 60.2502C156.795 60.1048 158.323 60.1048 159.841 60.2502Z" fill="#263238"/>
<path d="M179.26 60.2502C179.26 60.3089 175.186 60.3592 170.168 60.3592C165.149 60.3592 161.08 60.3089 161.08 60.2502C161.08 60.1914 165.149 60.1411 170.168 60.1411C175.186 60.1411 179.26 60.1914 179.26 60.2502Z" fill="#17AFAF"/>
<path d="M173.065 65.5475C173.065 65.6104 168.996 65.6566 163.978 65.6566C158.959 65.6566 154.886 65.6104 154.886 65.5475C154.886 65.4846 158.955 65.4385 163.978 65.4385C169 65.4385 173.065 65.4888 173.065 65.5475Z" fill="#17AFAF"/>
<path d="M162.391 51.984C160.253 52.1294 158.108 52.1294 155.97 51.984C158.108 51.8387 160.253 51.8387 162.391 51.984Z" fill="#17AFAF"/>
<path d="M162.227 56.757C160.089 56.908 157.943 56.908 155.806 56.757C157.944 56.6116 160.089 56.6116 162.227 56.757Z" fill="#17AFAF"/>
<path d="M167.657 63.5597C165.52 63.7051 163.374 63.7051 161.236 63.5597C163.374 63.4143 165.52 63.4143 167.657 63.5597Z" fill="#17AFAF"/>
<path d="M185.748 51.984C185.748 52.047 182.078 52.0931 177.546 52.0931C173.015 52.0931 169.345 52.047 169.345 51.984C169.345 51.9211 173.015 51.875 177.546 51.875C182.078 51.875 185.748 51.9421 185.748 51.984Z" fill="#263238"/>
<path d="M180.688 57.0168C180.688 57.0797 177.014 57.1258 172.487 57.1258C167.96 57.1258 164.285 57.0797 164.285 57.0168C164.285 56.9538 167.956 56.9077 172.487 56.9077C177.018 56.9077 180.688 56.9748 180.688 57.0168Z" fill="#263238"/>
<path d="M186.332 63.5597C186.332 63.6185 182.657 63.6688 178.13 63.6688C173.603 63.6688 169.929 63.6185 169.929 63.5597C169.929 63.501 173.599 63.4507 178.13 63.4507C182.662 63.4507 186.332 63.4968 186.332 63.5597Z" fill="#263238"/>
<path d="M171.356 69.3849C171.356 69.4436 167.686 69.494 163.155 69.494C158.623 69.494 154.953 69.4436 154.953 69.3849C154.953 69.3262 158.628 69.2759 163.155 69.2759C167.682 69.2759 171.356 69.3262 171.356 69.3849Z" fill="#263238"/>
<path d="M189.494 69.3849C189.494 69.4436 185.82 69.494 181.292 69.494C176.765 69.494 173.091 69.4436 173.091 69.3849C173.091 69.3262 176.761 69.2759 181.292 69.2759C185.824 69.2759 189.494 69.3262 189.494 69.3849Z" fill="#263238"/>
<path d="M171.356 71.2765C171.356 71.3352 167.686 71.3856 163.155 71.3856C158.623 71.3856 154.953 71.3352 154.953 71.2765C154.953 71.2178 158.623 71.1675 163.155 71.1675C167.686 71.1675 171.356 71.222 171.356 71.2765Z" fill="#263238"/>
<path d="M172.15 53.3683C172.15 53.427 168.48 53.4774 163.949 53.4774C159.417 53.4774 155.747 53.427 155.747 53.3683C155.747 53.3096 159.417 53.2593 163.949 53.2593C168.48 53.2593 172.15 53.3096 172.15 53.3683Z" fill="#263238"/>
<path d="M167.775 52.0177C166.37 52.1631 164.954 52.1631 163.55 52.0177C164.954 51.8723 166.37 51.8723 167.775 52.0177Z" fill="#455A64"/>
<path d="M159.304 61.8107C157.899 61.9561 156.484 61.9561 155.079 61.8107C156.484 61.6653 157.899 61.6653 159.304 61.8107Z" fill="#455A64"/>
<path d="M159.203 63.5597C157.799 63.7051 156.383 63.7051 154.979 63.5597C156.383 63.4143 157.799 63.4143 159.203 63.5597Z" fill="#455A64"/>
<path d="M195.811 45.8903C195.811 45.9532 185.589 45.9993 172.978 45.9993C160.367 45.9993 150.146 45.9532 150.146 45.8903C150.146 45.8274 160.367 45.7812 172.978 45.7812C185.589 45.7812 195.811 45.8316 195.811 45.8903Z" fill="#263238"/>
<path d="M153.764 44.3511C153.764 44.4581 153.732 44.5627 153.673 44.6517C153.613 44.7407 153.529 44.81 153.43 44.8509C153.331 44.8919 153.222 44.9026 153.117 44.8817C153.012 44.8609 152.915 44.8093 152.839 44.7337C152.764 44.658 152.712 44.5616 152.691 44.4566C152.67 44.3517 152.681 44.2429 152.722 44.1441C152.763 44.0452 152.832 43.9607 152.921 43.9013C153.011 43.8418 153.115 43.8101 153.222 43.8101C153.294 43.8095 153.364 43.8231 153.43 43.8501C153.496 43.8771 153.556 43.9169 153.607 43.9673C153.657 44.0176 153.697 44.0775 153.724 44.1434C153.751 44.2093 153.765 44.2799 153.764 44.3511Z" fill="white"/>
<path d="M156.087 44.3511C156.087 44.4581 156.056 44.5627 155.996 44.6517C155.937 44.7407 155.852 44.81 155.753 44.8509C155.654 44.8919 155.545 44.9026 155.44 44.8817C155.335 44.8609 155.238 44.8093 155.163 44.7337C155.087 44.658 155.035 44.5616 155.014 44.4566C154.993 44.3517 155.004 44.2429 155.045 44.1441C155.086 44.0452 155.156 43.9607 155.245 43.9013C155.334 43.8418 155.439 43.8101 155.546 43.8101C155.617 43.8095 155.688 43.8231 155.754 43.8501C155.82 43.8771 155.88 43.9169 155.93 43.9673C155.98 44.0176 156.02 44.0775 156.047 44.1434C156.074 44.2093 156.088 44.2799 156.087 44.3511Z" fill="white"/>
<path d="M158.414 44.3511C158.414 44.4581 158.382 44.5627 158.322 44.6517C158.263 44.7407 158.178 44.81 158.079 44.8509C157.98 44.8919 157.871 44.9026 157.766 44.8817C157.661 44.8609 157.565 44.8093 157.489 44.7337C157.413 44.658 157.361 44.5616 157.34 44.4566C157.32 44.3517 157.33 44.2429 157.371 44.1441C157.412 44.0452 157.482 43.9607 157.571 43.9013C157.66 43.8418 157.765 43.8101 157.872 43.8101C157.943 43.8095 158.014 43.8231 158.08 43.8501C158.146 43.8771 158.206 43.9169 158.256 43.9673C158.307 44.0176 158.346 44.0775 158.373 44.1434C158.4 44.2093 158.414 44.2799 158.414 44.3511Z" fill="white"/>
<path d="M168.967 35.5857H122.181L125.641 2.30225H172.818L168.967 35.5857Z" fill="#263238"/>
<path d="M166.582 35.5857H119.8L123.256 2.30225H170.437L166.582 35.5857Z" fill="#455A64"/>
<path d="M164.848 34.0761H121.438L124.646 3.1958H168.426L164.848 34.0761Z" fill="#FAFAFA"/>
<path d="M126.207 28.9174C126.149 28.9174 126.581 24.262 127.173 18.5415C127.766 12.8209 128.29 8.17815 128.353 8.18653C128.416 8.19492 127.98 12.8377 127.388 18.5624C126.795 24.2872 126.27 28.9174 126.207 28.9174Z" fill="#263238"/>
<path d="M134.115 9.20524C132.666 9.35063 131.205 9.35063 129.756 9.20524C131.205 9.05984 132.666 9.05984 134.115 9.20524Z" fill="#263238"/>
<path d="M152.656 9.20524C152.656 9.26395 148.771 9.31428 143.975 9.31428C139.179 9.31428 135.295 9.26395 135.295 9.20524C135.295 9.14652 139.179 9.09619 143.975 9.09619C148.771 9.09619 152.656 9.13394 152.656 9.20524Z" fill="#17AFAF"/>
<path d="M133.598 20.1725C132.149 20.3179 130.689 20.3179 129.239 20.1725C130.689 20.0271 132.149 20.0271 133.598 20.1725Z" fill="#263238"/>
<path d="M152.144 20.1725C152.144 20.2312 148.255 20.2816 143.464 20.2816C138.672 20.2816 134.783 20.2312 134.783 20.1725C134.783 20.1138 138.668 20.0635 143.464 20.0635C148.259 20.0635 152.144 20.1096 152.144 20.1725Z" fill="#17AFAF"/>
<path d="M146.231 25.2306C146.231 25.2893 142.342 25.3397 137.55 25.3397C132.759 25.3397 128.87 25.2893 128.87 25.2306C128.87 25.1719 132.755 25.1216 137.55 25.1216C142.346 25.1216 146.231 25.1719 146.231 25.2306Z" fill="#17AFAF"/>
<path d="M136.035 12.2965C133.993 12.4419 131.944 12.4419 129.903 12.2965C131.944 12.1512 133.993 12.1512 136.035 12.2965Z" fill="#17AFAF"/>
<path d="M135.879 16.8385C133.838 16.9839 131.789 16.9839 129.748 16.8385C131.789 16.6931 133.838 16.6931 135.879 16.8385Z" fill="#17AFAF"/>
<path d="M141.061 23.3307C139.02 23.4761 136.971 23.4761 134.93 23.3307C136.971 23.1853 139.02 23.1853 141.061 23.3307Z" fill="#17AFAF"/>
<path d="M158.338 12.2965C158.338 12.3553 154.831 12.4056 150.506 12.4056C146.18 12.4056 142.674 12.3553 142.674 12.2965C142.674 12.2378 146.176 12.1875 150.506 12.1875C154.836 12.1875 158.338 12.2336 158.338 12.2965Z" fill="#263238"/>
<path d="M153.504 17.1027C153.504 17.1614 149.997 17.2117 145.672 17.2117C141.346 17.2117 137.84 17.1614 137.84 17.1027C137.84 17.044 141.346 16.9937 145.672 16.9937C149.997 16.9937 153.504 17.0398 153.504 17.1027Z" fill="#263238"/>
<path d="M158.897 23.3307C158.897 23.3894 155.39 23.4398 151.064 23.4398C146.739 23.4398 143.232 23.3894 143.232 23.3307C143.232 23.272 146.739 23.2217 151.064 23.2217C155.39 23.2217 158.897 23.2678 158.897 23.3307Z" fill="#263238"/>
<path d="M144.594 28.9171C144.594 28.9759 141.087 29.0262 136.762 29.0262C132.436 29.0262 128.942 28.9549 128.942 28.9171C128.942 28.8794 132.449 28.8081 136.774 28.8081C141.1 28.8081 144.594 28.8333 144.594 28.9171Z" fill="#263238"/>
<path d="M161.916 28.9171C161.916 28.9759 158.409 29.0262 154.084 29.0262C149.759 29.0262 146.252 28.9759 146.252 28.9171C146.252 28.8584 149.759 28.8081 154.084 28.8081C158.409 28.8081 161.916 28.8333 161.916 28.9171Z" fill="#263238"/>
<path d="M144.593 30.7038C144.593 30.7667 141.086 30.8128 136.761 30.8128C132.435 30.8128 128.929 30.7667 128.929 30.7038C128.929 30.6409 132.435 30.5947 136.761 30.5947C141.086 30.5947 144.593 30.6451 144.593 30.7038Z" fill="#263238"/>
<path d="M145.353 13.6007C145.353 13.6595 141.846 13.7098 137.521 13.7098C133.195 13.7098 129.688 13.6595 129.688 13.6007C129.688 13.542 133.195 13.4917 137.521 13.4917C141.846 13.4917 145.353 13.5378 145.353 13.6007Z" fill="#263238"/>
<path d="M141.178 12.3131C139.837 12.4585 138.484 12.4585 137.143 12.3131C138.484 12.1678 139.837 12.1678 141.178 12.3131Z" fill="#455A64"/>
<path d="M133.087 21.6618C131.745 21.8072 130.392 21.8072 129.051 21.6618C130.392 21.5164 131.745 21.5164 133.087 21.6618Z" fill="#455A64"/>
<path d="M132.994 23.3307C131.652 23.4761 130.299 23.4761 128.958 23.3307C130.299 23.1853 131.652 23.1853 132.994 23.3307Z" fill="#455A64"/>
<path d="M167.947 6.45865C167.947 6.52156 158.187 6.57189 146.147 6.57189C134.107 6.57189 124.322 6.52156 124.322 6.45865C124.322 6.39574 134.082 6.34961 146.13 6.34961C158.179 6.34961 167.947 6.39993 167.947 6.45865Z" fill="#263238"/>
<path d="M127.278 5.50242C127.564 5.50242 127.795 5.27146 127.795 4.98656C127.795 4.70166 127.564 4.4707 127.278 4.4707C126.993 4.4707 126.762 4.70166 126.762 4.98656C126.762 5.27146 126.993 5.50242 127.278 5.50242Z" fill="white"/>
<path d="M129.5 5.50242C129.785 5.50242 130.016 5.27146 130.016 4.98656C130.016 4.70166 129.785 4.4707 129.5 4.4707C129.215 4.4707 128.983 4.70166 128.983 4.98656C128.983 5.27146 129.215 5.50242 129.5 5.50242Z" fill="white"/>
<path d="M131.718 5.50242C132.003 5.50242 132.234 5.27146 132.234 4.98656C132.234 4.70166 132.003 4.4707 131.718 4.4707C131.432 4.4707 131.201 4.70166 131.201 4.98656C131.201 5.27146 131.432 5.50242 131.718 5.50242Z" fill="white"/>
<path d="M89.7096 161.317H86.0645V166.283H89.7096V161.317Z" fill="#263238"/>
<path d="M109.25 103.374H141.591V101.801H109.25V103.374Z" fill="#263238"/>
<path d="M146.6 103.373L152.665 80.6714H127.413L121.92 103.373H146.6Z" fill="#263238"/>
<path d="M123.433 101.654H145.992L151.246 81.7202H128.569L123.433 101.654Z" fill="#F5F5F5"/>
<path d="M129.131 85.5825L127.732 91.2276H142.691L144.283 85.5825H129.131Z" fill="#E0E0E0"/>
<path d="M141.12 84.8361C141.12 84.899 138.499 84.9451 135.262 84.9451C132.024 84.9451 129.403 84.899 129.403 84.8361C129.403 84.7732 132.024 84.7271 135.262 84.7271C138.499 84.7271 141.12 84.7774 141.12 84.8361Z" fill="#455A64"/>
<path d="M134.313 86.6603C132.742 86.8056 131.16 86.8056 129.589 86.6603C131.16 86.5149 132.742 86.5149 134.313 86.6603Z" fill="#263238"/>
<path d="M138.1 86.5724C137.081 86.7178 136.046 86.7178 135.026 86.5724C136.046 86.427 137.081 86.427 138.1 86.5724Z" fill="#263238"/>
<path d="M142.379 87.6838C142.379 87.7467 139.486 87.797 135.916 87.797C132.347 87.797 129.453 87.7467 129.453 87.6838C129.453 87.6208 132.347 87.5747 135.916 87.5747C139.486 87.5747 142.379 87.6334 142.379 87.6838Z" fill="#455A64"/>
<path d="M133.376 88.619C131.98 88.7652 130.573 88.7652 129.177 88.619C130.573 88.4727 131.98 88.4727 133.376 88.619Z" fill="#17AFAF"/>
<path d="M141.221 89.9567C141.221 90.0154 138.538 90.0657 135.228 90.0657C131.919 90.0657 129.231 90.0154 129.231 89.9567C129.231 89.898 131.915 89.8477 135.228 89.8477C138.542 89.8477 141.221 89.8938 141.221 89.9567Z" fill="#455A64"/>
<path d="M132.398 92.8465C130.861 92.9909 129.315 92.9909 127.778 92.8465C129.315 92.7022 130.861 92.7022 132.398 92.8465Z" fill="#455A64"/>
<path d="M136.361 92.8675C135.84 92.969 135.308 93.0014 134.778 92.9639C134.249 92.9963 133.717 92.9539 133.199 92.8381C133.72 92.7366 134.253 92.7042 134.782 92.7417C135.312 92.7093 135.844 92.7517 136.361 92.8675Z" fill="#263238"/>
<path d="M138.6 92.7585C138.6 92.8214 138.298 92.8675 137.928 92.8675C137.559 92.8675 137.261 92.8214 137.261 92.7585C137.261 92.6956 137.563 92.6494 137.928 92.6494C138.294 92.6494 138.6 92.6997 138.6 92.7585Z" fill="#263238"/>
<path d="M129.324 94.0041C129.324 94.067 128.992 94.1131 128.585 94.1131C128.177 94.1131 127.85 94.067 127.85 94.0041C127.85 93.9412 128.181 93.895 128.585 93.895C128.988 93.895 129.324 93.9454 129.324 94.0041Z" fill="#17AFAF"/>
<path d="M133.734 94.0041C132.565 94.1495 131.383 94.1495 130.215 94.0041C131.383 93.8587 132.565 93.8587 133.734 94.0041Z" fill="#263238"/>
<path d="M144.248 93.8698C144.248 93.9327 142.149 93.9788 139.549 93.9788C136.95 93.9788 134.846 93.9327 134.846 93.8698C134.846 93.8069 136.945 93.7607 139.549 93.7607C142.153 93.7607 144.248 93.8111 144.248 93.8698Z" fill="#455A64"/>
<path d="M129.097 95.2077C129.097 95.2664 128.761 95.3167 128.341 95.3167C127.921 95.3167 127.585 95.2664 127.585 95.2077C127.585 95.149 127.921 95.0986 128.341 95.0986C128.761 95.0986 129.097 95.1448 129.097 95.2077Z" fill="#263238"/>
<path d="M131.416 95.1827C131.125 95.2909 130.812 95.3283 130.504 95.2918C130.195 95.328 129.881 95.2906 129.589 95.1827C129.882 95.0773 130.195 95.04 130.504 95.0737C130.812 95.0397 131.124 95.077 131.416 95.1827Z" fill="#263238"/>
<path d="M138.323 95.0734C136.35 95.2188 134.37 95.2188 132.397 95.0734C134.37 94.928 136.35 94.928 138.323 95.0734Z" fill="#455A64"/>
<path d="M134.67 97.1665C133.478 97.2744 132.28 97.3108 131.083 97.2756C129.887 97.311 128.689 97.2746 127.497 97.1665C128.689 97.056 129.887 97.0196 131.083 97.0575C132.28 97.0197 133.478 97.0561 134.67 97.1665Z" fill="#455A64"/>
<path d="M138.857 97.0739C137.778 97.2193 136.685 97.2193 135.606 97.0739C136.685 96.9285 137.778 96.9285 138.857 97.0739Z" fill="#17AFAF"/>
<path d="M145.076 97.0739C143.281 97.2193 141.478 97.2193 139.684 97.0739C141.478 96.9285 143.281 96.9285 145.076 97.0739Z" fill="#263238"/>
<path d="M143.64 84.7482C143.64 84.8111 143.388 84.8572 143.081 84.8572C142.774 84.8572 142.522 84.8111 142.522 84.7482C142.522 84.6853 142.774 84.6392 143.081 84.6392C143.388 84.6392 143.64 84.6979 143.64 84.7482Z" fill="#263238"/>
<path d="M132.263 83.9933C131.452 84.1386 130.622 84.1386 129.811 83.9933C130.622 83.8479 131.452 83.8479 132.263 83.9933Z" fill="#17AFAF"/>
<path d="M150.868 83.1546H128.19L128.573 81.7202H151.25L150.868 83.1546Z" fill="#EBEBEB"/>
<path d="M129.526 82.6931C129.663 82.6931 129.774 82.5824 129.774 82.4457C129.774 82.309 129.663 82.1982 129.526 82.1982C129.389 82.1982 129.278 82.309 129.278 82.4457C129.278 82.5824 129.389 82.6931 129.526 82.6931Z" fill="#FAFAFA"/>
<path d="M130.378 82.6931C130.514 82.6931 130.625 82.5824 130.625 82.4457C130.625 82.309 130.514 82.1982 130.378 82.1982C130.241 82.1982 130.13 82.309 130.13 82.4457C130.13 82.5824 130.241 82.6931 130.378 82.6931Z" fill="#FAFAFA"/>
<path d="M131.23 82.6931C131.367 82.6931 131.478 82.5824 131.478 82.4457C131.478 82.309 131.367 82.1982 131.23 82.1982C131.093 82.1982 130.982 82.309 130.982 82.4457C130.982 82.5824 131.093 82.6931 131.23 82.6931Z" fill="#FAFAFA"/>
<path d="M178.504 105.487H124.733V136.821H178.504V105.487Z" fill="#263238"/>
<path d="M149.229 105.487H124.733V136.821H149.229V105.487Z" fill="#455A64"/>
<path d="M146.735 116.127C146.729 116.074 146.729 116.021 146.735 115.968V115.511C146.735 115.091 146.735 114.517 146.714 113.77C146.714 112.256 146.689 110.092 146.672 107.425L146.752 107.505L127.048 107.534L127.157 107.425V109.685C127.157 110.432 127.157 111.174 127.157 111.9C127.157 113.355 127.157 114.769 127.157 116.119L127.056 116.018L141.171 116.064L145.269 116.094H146.37H146.659H146.76H146.672H146.395H145.316L141.238 116.119L127.056 116.169H126.951V116.064C126.951 114.714 126.951 113.301 126.951 111.845V107.433L127.06 107.324L146.764 107.354H146.844V107.433C146.823 110.122 146.811 112.302 146.798 113.825C146.798 114.563 146.798 115.142 146.798 115.549V115.993C146.739 116.081 146.735 116.153 146.735 116.127Z" fill="#263238"/>
<path d="M137.719 111.778C137.664 111.54 137.531 111.328 137.341 111.174C137.239 111.103 137.12 111.058 136.997 111.042C136.873 111.027 136.747 111.042 136.631 111.086C136.491 111.14 136.37 111.235 136.285 111.359C136.199 111.482 136.153 111.628 136.152 111.778C136.154 111.928 136.201 112.074 136.286 112.197C136.371 112.32 136.491 112.415 136.631 112.47C136.748 112.513 136.874 112.527 136.997 112.511C137.121 112.495 137.238 112.449 137.341 112.378C137.529 112.223 137.662 112.011 137.719 111.774C137.719 111.774 137.756 111.85 137.719 111.988C137.685 112.189 137.579 112.371 137.42 112.5C137.3 112.598 137.157 112.663 137.004 112.691C136.851 112.718 136.694 112.705 136.547 112.655C136.363 112.592 136.204 112.473 136.091 112.315C135.978 112.157 135.917 111.968 135.917 111.774C135.917 111.58 135.978 111.391 136.091 111.233C136.204 111.075 136.363 110.956 136.547 110.893C136.693 110.842 136.85 110.829 137.003 110.856C137.156 110.882 137.3 110.947 137.42 111.044C137.579 111.173 137.685 111.355 137.719 111.556C137.761 111.703 137.731 111.778 137.719 111.778Z" fill="#263238"/>
<path d="M146.735 125.71C146.729 125.656 146.729 125.601 146.735 125.547V125.09C146.735 124.67 146.735 124.096 146.714 123.349C146.714 121.839 146.689 119.675 146.672 117.004L146.752 117.083L127.048 117.117L127.157 117.008V119.269C127.157 120.019 127.157 120.757 127.157 121.487C127.157 122.942 127.157 124.356 127.157 125.706L127.056 125.601L141.171 125.652L145.269 125.681H146.37H146.659H146.76H146.672H146.395H145.316L141.238 125.71L127.056 125.761H126.951V125.656C126.951 124.305 126.951 122.892 126.951 121.437V117.012C126.926 117.012 127.157 116.802 127.06 116.899L146.764 116.932H146.844V116.991C146.823 119.684 146.811 121.865 146.798 123.387C146.798 124.125 146.798 124.7 146.798 125.111V125.551C146.739 125.664 146.735 125.715 146.735 125.71Z" fill="#263238"/>
<path d="M137.719 121.357C137.66 121.125 137.527 120.917 137.341 120.766C137.229 120.686 137.097 120.639 136.96 120.628C136.823 120.618 136.686 120.646 136.563 120.708C136.44 120.77 136.337 120.865 136.265 120.982C136.192 121.098 136.153 121.233 136.152 121.37C136.153 121.52 136.199 121.666 136.285 121.79C136.37 121.913 136.491 122.008 136.631 122.062C136.747 122.106 136.873 122.121 136.997 122.106C137.12 122.091 137.239 122.045 137.341 121.974C137.53 121.82 137.663 121.607 137.719 121.37C137.719 121.37 137.756 121.445 137.719 121.584C137.685 121.785 137.579 121.967 137.42 122.096C137.3 122.194 137.157 122.259 137.004 122.286C136.851 122.314 136.694 122.301 136.547 122.251C136.363 122.188 136.204 122.069 136.091 121.911C135.978 121.753 135.917 121.564 135.917 121.37C135.917 121.176 135.978 120.987 136.091 120.829C136.204 120.671 136.363 120.552 136.547 120.489C136.694 120.439 136.851 120.426 137.004 120.454C137.157 120.481 137.3 120.546 137.42 120.644C137.579 120.773 137.685 120.955 137.719 121.156C137.761 121.282 137.731 121.357 137.719 121.357Z" fill="#263238"/>
<path d="M146.735 135.289C146.729 135.237 146.729 135.183 146.735 135.13V134.673C146.735 134.254 146.735 133.679 146.714 132.932C146.714 131.418 146.689 129.254 146.672 126.587L146.752 126.667L127.048 126.696L127.157 126.587V128.848C127.157 129.594 127.157 130.336 127.157 131.062C127.157 132.517 127.157 133.931 127.157 135.281L127.056 135.18L141.171 135.227L145.269 135.256H146.37H146.659H146.76H146.672H146.395H145.316L141.238 135.281L127.056 135.331H126.951V135.227C126.951 133.876 126.951 132.463 126.951 131.007V126.595L127.06 126.486L146.764 126.516H146.844V126.595C146.823 129.284 146.811 131.465 146.798 132.987C146.798 133.725 146.798 134.304 146.798 134.711V135.155C146.739 135.243 146.735 135.294 146.735 135.289Z" fill="#263238"/>
<path d="M137.719 130.94C137.664 130.702 137.531 130.49 137.341 130.336C137.239 130.265 137.12 130.219 136.997 130.204C136.873 130.189 136.747 130.204 136.631 130.248C136.491 130.302 136.37 130.397 136.285 130.52C136.199 130.644 136.153 130.79 136.152 130.94C136.153 131.077 136.192 131.212 136.265 131.328C136.337 131.445 136.44 131.54 136.563 131.602C136.686 131.664 136.823 131.692 136.96 131.682C137.097 131.671 137.229 131.624 137.341 131.544C137.529 131.389 137.662 131.177 137.719 130.94C137.719 130.94 137.756 131.016 137.719 131.154C137.685 131.355 137.579 131.537 137.42 131.666C137.3 131.764 137.157 131.829 137.004 131.857C136.851 131.884 136.694 131.871 136.547 131.821C136.363 131.758 136.204 131.639 136.091 131.481C135.978 131.323 135.917 131.134 135.917 130.94C135.917 130.746 135.978 130.557 136.091 130.399C136.204 130.241 136.363 130.122 136.547 130.059C136.693 130.008 136.85 129.995 137.003 130.022C137.156 130.048 137.3 130.113 137.42 130.21C137.579 130.339 137.685 130.521 137.719 130.722C137.761 130.865 137.731 130.94 137.719 130.94Z" fill="#263238"/>
<path d="M88.9244 162.324L52.9893 162.299V105.487H88.9244V162.324Z" fill="#263238"/>
<path d="M180.457 103.302H51.2549V106.28H180.457V103.302Z" fill="#263238"/>
<path d="M56.9956 106.28H52.9893V166.547H56.9956V106.28Z" fill="#263238"/>
<path d="M178.503 106.28H174.497V166.564H178.503V106.28Z" fill="#263238"/>
<path d="M153.236 106.28H149.229V166.564H153.236V106.28Z" fill="#263238"/>
<path d="M69.4219 103.302C69.4219 103.361 65.5709 103.411 60.8213 103.411C56.0716 103.411 52.2207 103.361 52.2207 103.302C52.2207 103.243 56.0716 103.193 60.8213 103.193C65.5709 103.193 69.4219 103.239 69.4219 103.302Z" fill="#455A64"/>
<path d="M107.201 163.612L107.302 159.304L99.2181 159.061L99.0039 165.352L99.5036 165.398C101.729 165.591 110.842 166.212 112.342 165.818C114.021 165.365 107.201 163.612 107.201 163.612Z" fill="#17AFAF"/>
<g opacity="0.4">
<path opacity="0.4" d="M110.527 164.589C110.527 164.589 112.917 165.352 112.602 165.742C112.287 166.132 103.061 165.843 99.0039 165.365V165.184L109.767 165.604C109.767 165.604 110.044 164.593 110.527 164.589Z" fill="white"/>
</g>
<path d="M98.8945 165.176H99.0331L99.4531 165.214L100.919 165.323C102.158 165.406 103.858 165.494 105.765 165.557C107.672 165.62 109.377 165.633 110.62 165.629H112.089H112.509H112.648H112.509H112.089H110.62C109.381 165.629 107.68 165.587 105.769 165.528C103.858 165.469 102.162 165.39 100.923 165.323L99.4531 165.247H99.0331L98.8945 165.176Z" fill="#263238"/>
<path d="M109.775 165.729C109.847 165.488 109.947 165.256 110.073 165.037C110.225 164.838 110.398 164.655 110.589 164.492C110.344 164.592 110.135 164.764 109.99 164.985C109.844 165.205 109.769 165.465 109.775 165.729Z" fill="#263238"/>
<path d="M107.428 164.45C107.449 164.45 107.571 164.329 107.693 164.148C107.814 163.968 107.898 163.804 107.877 163.792C107.856 163.779 107.735 163.909 107.613 164.094C107.491 164.278 107.407 164.434 107.428 164.45Z" fill="#263238"/>
<path d="M106.784 164.086C106.784 164.086 106.931 164.023 107.074 163.901C107.217 163.78 107.317 163.666 107.301 163.645C107.284 163.624 107.154 163.708 107.011 163.83C106.868 163.951 106.767 164.065 106.784 164.086Z" fill="#263238"/>
<path d="M106.394 163.31C106.527 163.361 106.67 163.384 106.814 163.377C106.954 163.398 107.098 163.387 107.233 163.343C107.1 163.292 106.957 163.27 106.814 163.276C106.583 163.268 106.394 163.28 106.394 163.31Z" fill="#263238"/>
<path d="M106.264 162.769C106.401 162.863 106.563 162.915 106.73 162.92C106.894 162.951 107.063 162.934 107.217 162.869C107.059 162.837 106.899 162.821 106.738 162.823C106.583 162.787 106.423 162.769 106.264 162.769Z" fill="#263238"/>
<path d="M107.726 163.754C107.897 163.783 108.071 163.783 108.242 163.754C108.431 163.735 108.618 163.7 108.801 163.649C108.911 163.62 109.018 163.58 109.12 163.528C109.183 163.495 109.231 163.44 109.254 163.373C109.264 163.334 109.263 163.294 109.25 163.257C109.237 163.22 109.214 163.187 109.183 163.163C108.988 163.06 108.762 163.027 108.546 163.071C108.329 163.114 108.134 163.231 107.994 163.402C107.912 163.503 107.85 163.62 107.814 163.746C107.804 163.791 107.804 163.839 107.814 163.884C107.874 163.731 107.959 163.59 108.066 163.465C108.186 163.332 108.342 163.237 108.515 163.192C108.722 163.131 108.945 163.152 109.137 163.251C109.216 163.314 109.179 163.41 109.086 163.465C108.992 163.511 108.893 163.549 108.792 163.578C108.615 163.633 108.434 163.675 108.251 163.704C107.944 163.742 107.726 163.737 107.726 163.754Z" fill="#263238"/>
<path d="M107.855 163.783C107.922 163.677 107.948 163.55 107.927 163.427C107.916 163.289 107.871 163.157 107.797 163.041C107.756 162.963 107.696 162.897 107.622 162.849C107.549 162.8 107.464 162.771 107.377 162.764C107.323 162.773 107.276 162.803 107.244 162.847C107.213 162.891 107.2 162.946 107.209 162.999C107.219 163.082 107.248 163.163 107.293 163.234C107.356 163.351 107.435 163.458 107.528 163.553C107.606 163.648 107.705 163.724 107.818 163.775C107.818 163.775 107.717 163.678 107.578 163.507C107.499 163.409 107.43 163.304 107.372 163.192C107.305 163.079 107.259 162.882 107.393 162.861C107.528 162.84 107.65 162.986 107.725 163.091C107.796 163.194 107.844 163.312 107.864 163.435C107.873 163.551 107.87 163.668 107.855 163.783Z" fill="#263238"/>
<path d="M99.125 162.97C99.125 162.991 99.3602 162.97 99.7213 163.012C100.197 163.077 100.644 163.276 101.01 163.585C101.376 163.895 101.646 164.303 101.787 164.761C101.842 164.953 101.887 165.147 101.922 165.344C101.933 165.29 101.933 165.234 101.922 165.18C101.908 165.038 101.882 164.898 101.846 164.761C101.716 164.281 101.443 163.852 101.064 163.531C100.684 163.21 100.216 163.011 99.7213 162.961C99.5733 162.946 99.4242 162.946 99.2762 162.961C99.2256 162.958 99.1749 162.961 99.125 162.97Z" fill="#263238"/>
<path d="M100.065 159.636C99.9946 160.185 99.954 160.738 99.9436 161.292C99.905 161.851 99.8979 162.411 99.9226 162.97C99.9936 162.42 100.034 161.867 100.044 161.313C100.086 160.755 100.093 160.195 100.065 159.636Z" fill="#263238"/>
<path d="M102.976 164.631C103.359 164.734 103.754 164.786 104.151 164.786C104.547 164.816 104.945 164.797 105.336 164.727C105.336 164.698 104.807 164.727 104.156 164.689C103.505 164.652 102.98 164.606 102.976 164.631Z" fill="#263238"/>
<path d="M101.393 164.58C101.393 164.58 101.43 164.694 101.481 164.815C101.531 164.937 101.556 165.05 101.586 165.046C101.615 165.042 101.632 164.92 101.586 164.782C101.54 164.643 101.409 164.564 101.393 164.58Z" fill="#263238"/>
<path d="M100.805 163.821C100.805 163.821 100.834 163.926 100.914 164.014C100.994 164.102 101.078 164.157 101.099 164.136C101.12 164.115 101.069 164.035 100.985 163.947C100.901 163.859 100.838 163.805 100.805 163.821Z" fill="#263238"/>
<path d="M99.9648 163.456C99.9648 163.486 100.078 163.486 100.196 163.532C100.313 163.578 100.397 163.641 100.418 163.624C100.439 163.607 100.376 163.494 100.229 163.44C100.082 163.385 99.9648 163.431 99.9648 163.456Z" fill="#263238"/>
<path d="M99.3682 163.276C99.3682 163.301 99.406 163.343 99.469 163.373C99.5319 163.402 99.5991 163.402 99.6075 163.373C99.6159 163.343 99.5739 163.301 99.5068 163.276C99.4396 163.251 99.3808 163.251 99.3682 163.276Z" fill="#263238"/>
<g opacity="0.3">
<path opacity="0.3" d="M99.1419 162.756L107.222 162.87L107.239 161.896L99.0957 162.245L99.1419 162.756Z" fill="black"/>
</g>
<path d="M119.95 164.283V159.971L111.862 159.942L111.815 166.233L112.315 166.266C114.545 166.396 123.654 166.778 125.161 166.334C126.816 165.851 119.95 164.283 119.95 164.283Z" fill="#17AFAF"/>
<g opacity="0.4">
<path opacity="0.4" d="M123.301 165.167C123.301 165.167 125.708 165.872 125.401 166.266C125.094 166.661 115.868 166.623 111.799 166.266V166.086L122.566 166.224C122.566 166.224 122.831 165.188 123.301 165.167Z" fill="white"/>
</g>
<path d="M111.69 166.061H111.829L112.228 166.086L113.698 166.157C114.937 166.208 116.637 166.254 118.548 166.262C120.459 166.271 122.16 166.262 123.403 166.208L124.873 166.153L125.272 166.128H125.41H124.873L123.403 166.149C122.143 166.149 120.442 166.187 118.548 166.178C116.654 166.17 114.941 166.132 113.698 166.103L112.228 166.061H111.69Z" fill="#263238"/>
<path d="M122.583 166.333C122.646 166.089 122.739 165.854 122.86 165.633C123.006 165.427 123.175 165.238 123.364 165.071C123.111 165.163 122.902 165.345 122.776 165.582C122.62 165.8 122.551 166.068 122.583 166.333Z" fill="#263238"/>
<path d="M120.203 165.113C120.224 165.113 120.337 164.987 120.459 164.802C120.581 164.618 120.652 164.459 120.631 164.442C120.61 164.425 120.493 164.568 120.375 164.752C120.257 164.937 120.178 165.096 120.203 165.113Z" fill="#263238"/>
<path d="M119.548 164.765C119.548 164.765 119.695 164.698 119.833 164.576C119.972 164.454 120.073 164.333 120.056 164.312C120.039 164.291 119.909 164.379 119.77 164.5C119.632 164.622 119.531 164.744 119.548 164.765Z" fill="#263238"/>
<path d="M119.136 164.001C119.27 164.049 119.413 164.067 119.556 164.056C119.697 164.073 119.84 164.059 119.976 164.014C119.976 163.985 119.791 163.959 119.556 163.959C119.321 163.959 119.136 163.964 119.136 164.001Z" fill="#263238"/>
<path d="M118.997 163.46C119.137 163.552 119.3 163.6 119.467 163.599C119.632 163.632 119.803 163.61 119.955 163.536C119.796 163.512 119.636 163.501 119.476 163.502C119.318 163.474 119.158 163.46 118.997 163.46Z" fill="#263238"/>
<path d="M120.479 164.408C120.65 164.441 120.825 164.441 120.996 164.408C121.185 164.388 121.37 164.347 121.55 164.287C121.662 164.258 121.769 164.216 121.87 164.161C121.932 164.124 121.978 164.066 122 163.997C122.007 163.959 122.004 163.919 121.99 163.883C121.976 163.847 121.951 163.815 121.92 163.792C121.722 163.694 121.496 163.667 121.281 163.717C121.066 163.767 120.874 163.889 120.74 164.064C120.661 164.167 120.603 164.284 120.568 164.408C120.557 164.455 120.557 164.504 120.568 164.551C120.624 164.399 120.704 164.257 120.807 164.132C120.925 163.995 121.079 163.895 121.252 163.842C121.456 163.775 121.678 163.792 121.87 163.888C121.954 163.951 121.92 164.048 121.828 164.102C121.736 164.153 121.638 164.194 121.538 164.224C121.362 164.283 121.182 164.329 121 164.362C120.677 164.383 120.479 164.383 120.479 164.408Z" fill="#263238"/>
<path d="M120.614 164.438C120.675 164.328 120.695 164.2 120.673 164.077C120.658 163.94 120.611 163.809 120.534 163.695C120.491 163.62 120.43 163.557 120.357 163.511C120.284 163.465 120.2 163.438 120.114 163.431C120.088 163.436 120.063 163.446 120.04 163.461C120.018 163.476 119.999 163.495 119.984 163.517C119.969 163.539 119.959 163.564 119.954 163.591C119.949 163.617 119.949 163.644 119.954 163.67C119.967 163.753 119.997 163.831 120.043 163.901C120.11 164.016 120.192 164.121 120.286 164.215C120.446 164.375 120.576 164.438 120.58 164.425C120.584 164.413 120.479 164.333 120.337 164.169C120.254 164.071 120.181 163.966 120.118 163.855C120.047 163.746 120.001 163.549 120.118 163.528C120.236 163.507 120.379 163.645 120.458 163.746C120.532 163.847 120.582 163.963 120.605 164.085C120.618 164.202 120.621 164.32 120.614 164.438Z" fill="#263238"/>
<path d="M111.862 163.855C111.862 163.855 112.093 163.834 112.459 163.88C112.935 163.935 113.386 164.122 113.76 164.421C114.132 164.723 114.413 165.122 114.571 165.574C114.693 165.918 114.705 166.153 114.722 166.149C114.73 166.095 114.73 166.04 114.722 165.985C114.707 165.843 114.678 165.703 114.638 165.566C114.495 165.09 114.211 164.669 113.823 164.358C113.436 164.046 112.963 163.859 112.467 163.821C112.319 163.808 112.17 163.808 112.022 163.821C111.917 163.834 111.862 163.846 111.862 163.855Z" fill="#263238"/>
<path d="M112.715 160.496C112.656 161.053 112.631 161.613 112.639 162.173C112.611 162.732 112.618 163.293 112.66 163.851C112.716 163.293 112.741 162.733 112.736 162.173C112.764 161.614 112.757 161.054 112.715 160.496Z" fill="#263238"/>
<path d="M115.755 165.415C116.141 165.506 116.538 165.547 116.935 165.537C117.332 165.557 117.73 165.525 118.119 165.444C118.119 165.419 117.586 165.444 116.935 165.444C116.284 165.444 115.759 165.386 115.755 165.415Z" fill="#263238"/>
<path d="M114.168 165.402C114.168 165.423 114.214 165.515 114.265 165.637C114.315 165.759 114.349 165.868 114.378 165.864C114.407 165.859 114.42 165.738 114.357 165.599C114.294 165.461 114.189 165.385 114.168 165.402Z" fill="#263238"/>
<path d="M113.576 164.66C113.555 164.66 113.609 164.761 113.693 164.849C113.777 164.937 113.857 164.987 113.878 164.966C113.899 164.945 113.845 164.866 113.761 164.777C113.677 164.689 113.597 164.639 113.576 164.66Z" fill="#263238"/>
<path d="M112.723 164.316C112.723 164.345 112.836 164.345 112.954 164.387C113.072 164.429 113.16 164.492 113.181 164.475C113.202 164.459 113.135 164.345 112.988 164.295C112.841 164.245 112.715 164.291 112.723 164.316Z" fill="#263238"/>
<path d="M112.114 164.153C112.114 164.178 112.152 164.22 112.219 164.249C112.286 164.278 112.349 164.274 112.358 164.249C112.366 164.224 112.32 164.182 112.253 164.157C112.186 164.132 112.144 164.127 112.114 164.153Z" fill="#263238"/>
<g opacity="0.3">
<path opacity="0.3" d="M111.875 163.637L119.951 163.54L119.947 162.567L111.812 163.125L111.875 163.637Z" fill="black"/>
</g>
<path d="M102.094 90.481L105.332 100.215C106.205 102.845 108.506 103.298 111.282 103.298H129.294V99.259L112.84 96.9145L108.918 86.9077L102.094 90.481Z" fill="#FFBE9D"/>
<path d="M131.276 98.4243L132.704 97.7491C132.704 97.7491 134.245 94.7756 134.598 94.8972C134.951 95.0188 135.056 95.8912 134.438 97.2542L136.337 96.7132C136.337 96.7132 140.452 98.6131 140.271 98.8689C140.091 99.1247 139.751 99.7329 138.856 99.2883C137.962 98.8437 136.782 98.2901 136.782 98.2901L134.564 98.9234L137.424 99.2883L140.116 101.729C140.116 101.729 139.23 102.392 138.47 101.691L131.482 103.189L129.294 103.315V99.2757L131.276 98.4243Z" fill="#FFBE9D"/>
<path d="M138.47 101.679C138.441 101.679 138.311 101.49 138.05 101.218C137.902 101.061 137.731 100.928 137.542 100.823C137.305 100.71 137.049 100.643 136.786 100.626C136.076 100.578 135.373 100.459 134.687 100.27C135.398 100.246 136.11 100.293 136.811 100.412C137.105 100.43 137.392 100.512 137.651 100.651C137.853 100.773 138.031 100.931 138.176 101.117C138.323 101.275 138.424 101.469 138.47 101.679Z" fill="#EB996E"/>
<path d="M137.378 101.956C137.349 101.956 137.328 101.813 137.135 101.771C136.941 101.729 136.614 101.696 136.295 101.662C135.883 101.656 135.473 101.615 135.068 101.541C135.473 101.4 135.907 101.367 136.328 101.444C136.627 101.47 136.921 101.531 137.206 101.625C137.256 101.643 137.301 101.673 137.337 101.711C137.373 101.75 137.4 101.796 137.416 101.847C137.416 101.922 137.391 101.96 137.378 101.956Z" fill="#EB996E"/>
<path d="M86.8877 50.4413L85.9092 70.2285L94.3922 71.0253L94.8625 66.2442C94.8625 66.2442 97.8526 66.9823 98.7597 64.2185C99.3434 62.4528 99.8599 48.6211 99.8599 48.6211L86.8877 50.4413Z" fill="#FFBE9D"/>
<path d="M100.59 50.9107C100.825 52.7645 98.2342 53.8465 98.2342 53.8465L97.7806 58.2292C97.3752 58.2003 96.9682 58.2003 96.5628 58.2292C96.7812 56.1742 94.1271 56.5768 93.8583 57.9776C93.5895 59.3784 95.1182 60.2256 95.1182 60.2256C94.0599 61.8486 93.6273 62.7084 92.1239 64.2308C90.4945 65.879 89.6042 66.0132 87.9244 65.9629L86.0724 65.879C86.0724 65.879 85.4089 64.2979 84.926 60.5611C84.695 58.7661 83.2882 56.409 83.6913 53.49C84.8252 45.1902 92.7874 46.0667 92.7874 46.0667C96.9492 46.1548 100.044 46.6161 100.59 50.9107Z" fill="#263238"/>
<path d="M94.5059 46.2808C96.3032 46.3269 98.1678 46.4695 99.7469 47.3293C101.326 48.189 102.544 49.9631 102.22 51.7287L101.322 51.8923L100.952 51.2297C100.952 51.582 100.952 51.9342 100.952 52.2865L99.3731 52.7269C99.1356 51.3805 98.6607 50.0869 97.9705 48.9062" fill="#263238"/>
<path d="M87.2236 55.386C87.1611 55.2906 87.1143 55.1858 87.085 55.0756C86.9832 54.7823 86.9073 54.4805 86.8582 54.1739C86.6875 53.1559 86.7586 52.1121 87.0657 51.1265C87.3728 50.1409 87.9073 49.2411 88.6262 48.4995C88.838 48.2735 89.07 48.0672 89.3191 47.883C89.4063 47.8068 89.5057 47.7459 89.6131 47.7026C89.6341 47.732 89.2477 48.0214 88.7396 48.6001C88.0794 49.3541 87.5832 50.2366 87.2823 51.192C86.9934 52.1508 86.9048 53.1586 87.022 54.153C87.1018 54.9205 87.2613 55.3734 87.2236 55.386Z" fill="#455A64"/>
<path d="M88.895 54.6941C88.7322 54.3751 88.6202 54.0327 88.5632 53.6792C88.3768 52.8343 88.3216 51.9658 88.3994 51.1041C88.4724 50.2396 88.6763 49.3911 89.0042 48.5877C89.1225 48.2483 89.294 47.9298 89.5123 47.644C89.0603 48.7551 88.7595 49.9216 88.6178 51.1125C88.5498 52.3134 88.6431 53.5179 88.895 54.6941Z" fill="#455A64"/>
<path d="M99.7252 51.6242C99.6832 51.6242 99.6118 51.1125 99.2674 50.366C98.8251 49.3817 98.1161 48.5404 97.2205 47.9372C96.3248 47.334 95.2782 46.9928 94.1986 46.9521C93.3587 46.9143 92.859 47.0401 92.8506 47.0024C92.9612 46.9466 93.0805 46.9098 93.2033 46.8934C93.5324 46.8282 93.8674 46.7973 94.2028 46.8011C95.3238 46.7995 96.4195 47.134 97.3479 47.7614C98.2763 48.3888 98.9948 49.28 99.4102 50.3198C99.537 50.6294 99.6313 50.9513 99.6916 51.2803C99.7218 51.3923 99.7331 51.5085 99.7252 51.6242Z" fill="#455A64"/>
<path d="M87.4884 44.6787C87.9628 44.7789 88.3908 45.0324 88.7063 45.4001C89.0746 45.7154 89.326 46.1453 89.4202 46.6205C89.3614 46.6457 89.0885 46.0837 88.5509 45.5511C88.0134 45.0184 87.459 44.7416 87.4884 44.6787Z" fill="#263238"/>
<path d="M89.466 44.687C89.529 44.708 89.3988 45.1525 89.424 45.702C89.4492 46.2514 89.6004 46.6791 89.5416 46.7085C89.3054 46.4312 89.1851 46.0738 89.2056 45.7103C89.1555 45.3484 89.2489 44.9811 89.466 44.687Z" fill="#455A64"/>
<path d="M100.569 88.3588L101.951 93.0435L110.745 89.0718C110.43 88.0904 108.972 83.7203 106.192 76.7834C105.431 74.8818 104.193 73.2079 102.596 71.9231C100.999 70.6384 99.0976 69.786 97.0751 69.4482C94.3027 68.9429 91.4938 68.6623 88.6761 68.6094C83.7459 68.6639 76.4975 71.7423 75.5148 76.5779C74.7673 80.2602 75.4854 86.7651 75.4854 94.6665L76.128 109.765L101.392 110.604L100.569 88.3588Z" fill="#17AFAF"/>
<g opacity="0.3">
<path opacity="0.3" d="M75.498 91.1771C78.5721 91.8062 81.7259 91.1771 84.8587 90.9884C86.7569 90.8751 88.8651 90.6696 90.3685 91.8272C91.5612 92.7498 92.0483 94.3058 92.3843 95.7737C93.6945 101.364 93.9297 105.114 94.2236 110.847L79.0172 111.77L75.498 91.1771Z" fill="black"/>
</g>
<path d="M105.454 75.3366C105.454 75.3995 98.8185 75.4456 90.6378 75.4456C82.4572 75.4456 75.8262 75.3995 75.8262 75.3366C75.8262 75.2737 82.4572 75.2275 90.6378 75.2275C98.8185 75.2275 105.454 75.2779 105.454 75.3366Z" fill="#FAFAFA"/>
<path d="M107.297 79.5768C107.297 79.6355 100.082 79.6859 91.192 79.6859C82.3017 79.6859 75.0869 79.6355 75.0869 79.5768C75.0869 79.5181 82.2933 79.4678 91.192 79.4678C100.091 79.4678 107.297 79.5181 107.297 79.5768Z" fill="#FAFAFA"/>
<path d="M109.624 84.8947C109.624 84.9576 101.93 85.0037 92.4393 85.0037C82.9484 85.0037 75.2549 84.9576 75.2549 84.8947C75.2549 84.8318 82.9484 84.7856 92.4393 84.7856C101.93 84.7856 109.624 84.836 109.624 84.8947Z" fill="#FAFAFA"/>
<path d="M100.385 90.632C100.385 90.6907 97.9783 90.741 95.0177 90.741C92.057 90.741 89.6465 90.6907 89.6465 90.632C89.6465 90.5733 92.0486 90.5229 95.0177 90.5229C97.9867 90.5229 100.385 90.5691 100.385 90.632Z" fill="#FAFAFA"/>
<path d="M100.877 96.8601C100.877 96.9188 98.3569 96.9482 95.2576 96.923C92.1584 96.8979 89.6387 96.8308 89.6387 96.7679C89.6387 96.705 92.1584 96.6798 95.2576 96.705C98.3569 96.7301 100.877 96.7888 100.877 96.8601Z" fill="#FAFAFA"/>
<path d="M101.119 101.914C100.974 101.94 100.826 101.947 100.678 101.935L99.4732 101.91C98.4569 101.889 97.0543 101.859 95.5047 101.859C93.9551 101.859 92.565 101.884 91.5361 101.905L90.3309 101.93C90.1831 101.95 90.0335 101.95 89.8857 101.93C90.0291 101.889 90.1774 101.866 90.3267 101.863C90.6081 101.834 91.0196 101.805 91.5278 101.775C92.544 101.712 93.9509 101.662 95.5047 101.662C97.0585 101.662 98.4653 101.717 99.4774 101.78C99.9856 101.809 100.397 101.842 100.683 101.872C100.829 101.868 100.976 101.882 101.119 101.914Z" fill="#FAFAFA"/>
<path d="M101.04 106.007C101.04 106.066 98.5626 106.116 95.5054 106.116C92.4481 106.116 89.9746 106.066 89.9746 106.007C89.9746 105.948 92.4481 105.898 95.5054 105.898C98.5626 105.898 101.04 105.944 101.04 106.007Z" fill="#FAFAFA"/>
<path d="M101.792 71.1803C101.792 71.2432 96.9294 71.2894 90.9325 71.2894C84.9356 71.2894 80.0684 71.2432 80.0684 71.1803C80.0684 71.1174 84.9314 71.0713 90.9325 71.0713C96.9336 71.0713 101.792 71.1216 101.792 71.1803Z" fill="#FAFAFA"/>
<path d="M101.225 71.9688C101.225 71.9939 100.973 72.0065 100.553 72.1701C99.9703 72.4253 99.467 72.8324 99.0958 73.3486C98.5601 74.124 98.2584 75.0367 98.2265 75.9782C98.1945 77.1364 98.2846 78.2947 98.4953 79.434C98.8486 81.521 99.3197 83.5863 99.9064 85.6202C100.112 86.3793 100.284 87.0042 100.415 87.4781C100.485 87.7032 100.54 87.9331 100.578 88.1659C100.478 87.9527 100.396 87.7309 100.335 87.5033C100.192 87.0839 99.9903 86.4422 99.7552 85.6621C99.1303 83.6315 98.6393 81.5623 98.2853 79.4676C98.0748 78.3114 97.9903 77.1358 98.0334 75.9614C98.0771 74.9862 98.4072 74.0455 98.9825 73.2563C99.3759 72.7269 99.914 72.322 100.532 72.0904C100.7 72.0335 100.873 71.9941 101.049 71.973C101.107 71.9631 101.166 71.9617 101.225 71.9688Z" fill="#263238"/>
<path d="M110.464 87.8726C110.073 88.1456 109.658 88.3841 109.225 88.5855C108.444 89.0049 107.348 89.5292 106.122 90.0828C104.896 90.6364 103.77 91.0977 102.947 91.4123C102.509 91.6011 102.057 91.754 101.595 91.8694C102.01 91.6379 102.443 91.4375 102.888 91.2697C103.694 90.9174 104.812 90.4309 106.034 89.8857C107.256 89.3404 108.356 88.8162 109.154 88.4471C109.577 88.2262 110.015 88.0342 110.464 87.8726Z" fill="#263238"/>
<path d="M83.9271 110.013L114.113 111.078C116.468 111.162 118.697 112.165 120.32 113.871C121.944 115.577 122.833 117.851 122.798 120.204L121.538 163.259L109.876 162.874L110.745 122.561L83.9229 121.856L83.9271 110.013Z" fill="#263238"/>
<path d="M71.4551 110.013L101.645 111.078C104.001 111.162 106.229 112.165 107.853 113.871C109.476 115.577 110.365 117.851 110.33 120.204L109.07 163.259L97.2527 162.324L98.2857 122.561L71.4635 121.856L71.4551 110.013Z" fill="#263238"/>
<path d="M94.0482 125.652H91.0791V161.179H94.0482V125.652Z" fill="#455A64"/>
<path d="M66.1631 91.1689V117.323C66.1631 118.97 66.8184 120.55 67.9847 121.715C69.1511 122.879 70.7331 123.534 72.3826 123.534H89.8231V91.1689C89.8231 90.8054 89.7514 90.4455 89.6121 90.1096C89.4728 89.7738 89.2687 89.4687 89.0113 89.2116C88.7539 88.9546 88.4484 88.7507 88.1121 88.6116C87.7758 88.4725 87.4154 88.4009 87.0514 88.4009H68.9348C68.5708 88.4009 68.2104 88.4725 67.8741 88.6116C67.5378 88.7507 67.2323 88.9546 66.9749 89.2116C66.7175 89.4687 66.5134 89.7738 66.3741 90.1096C66.2348 90.4455 66.1631 90.8054 66.1631 91.1689Z" fill="#455A64"/>
<path d="M113.291 125.652H70.8252C70.8252 124.428 71.3119 123.255 72.1782 122.39C73.0445 121.525 74.2195 121.039 75.4447 121.039H108.692C109.917 121.039 111.092 121.525 111.959 122.39C112.825 123.255 113.312 124.428 113.312 125.652H113.291Z" fill="#455A64"/>
<path d="M89.8224 120.438C89.8277 120.505 89.8277 120.573 89.8224 120.64C89.8191 120.832 89.7951 121.023 89.751 121.21C89.611 121.802 89.3013 122.341 88.8598 122.76C88.4184 123.18 87.8642 123.461 87.2649 123.571C86.7071 123.631 86.1458 123.652 85.5851 123.634H81.7678C79.0591 123.634 76.6066 123.634 74.8344 123.609L72.7346 123.58L72.1635 123.559C72.0958 123.558 72.0283 123.551 71.9619 123.538C72.0274 123.519 72.0954 123.511 72.1635 123.513L72.7346 123.492L74.8344 123.454C76.6066 123.433 79.0591 123.42 81.7678 123.416H85.5809C86.1313 123.438 86.6825 123.426 87.2313 123.378C87.6964 123.299 88.1365 123.113 88.5164 122.833C89.0778 122.42 89.482 121.828 89.6628 121.156C89.8098 120.715 89.7972 120.438 89.8224 120.438Z" fill="#263238"/>
<path d="M95.1686 125.744C94.304 125.854 93.4315 125.891 92.5607 125.853C91.6913 125.891 90.8202 125.854 89.957 125.744C90.8205 125.636 91.6913 125.6 92.5607 125.635C93.4315 125.6 94.3038 125.636 95.1686 125.744Z" fill="#263238"/>
<path d="M108.087 123.76C107.962 123.35 107.875 122.929 107.826 122.502C107.684 121.697 107.495 120.527 107.268 119.084C107.041 117.641 106.886 115.892 106.088 114.16C105.67 113.259 105.141 112.414 104.513 111.644C103.827 110.827 103.03 110.11 102.145 109.513C101.263 108.91 100.294 108.445 99.2721 108.134C98.3203 107.83 97.331 107.659 96.3324 107.626C94.4133 107.584 92.6579 107.593 91.1964 107.563C89.735 107.534 88.5465 107.521 87.7276 107.496C87.3058 107.506 86.8841 107.476 86.4678 107.408C86.8844 107.343 87.306 107.315 87.7276 107.324C88.5465 107.299 89.7308 107.274 91.1964 107.257C92.6621 107.24 94.3965 107.202 96.345 107.228C98.4985 107.278 100.592 107.946 102.376 109.153C103.296 109.77 104.123 110.517 104.828 111.371C105.477 112.174 106.021 113.056 106.445 113.997C106.541 114.219 106.621 114.45 106.709 114.672L106.835 115.007C106.865 115.121 106.898 115.234 106.928 115.347C106.991 115.569 107.054 115.792 107.113 116.01C107.171 116.228 107.192 116.45 107.234 116.664C107.381 117.524 107.461 118.312 107.562 119.042C107.747 120.489 107.894 121.667 107.982 122.477C108.056 122.901 108.091 123.33 108.087 123.76Z" fill="#455A64"/>
<path d="M105.55 164.383H105.13C105.161 162.707 104.856 161.041 104.235 159.484C103.614 157.926 102.688 156.508 101.512 155.311C100.336 154.115 98.9327 153.165 97.3846 152.516C95.8365 151.868 94.1745 151.534 92.4957 151.534C90.8169 151.534 89.1549 151.868 87.6069 152.516C86.0588 153.165 84.6556 154.115 83.4794 155.311C82.3032 156.508 81.3774 157.926 80.7563 159.484C80.1351 161.041 79.8309 162.707 79.8615 164.383H79.4416C79.4105 162.652 79.7251 160.931 80.3672 159.322C81.0093 157.713 81.9659 156.248 83.1811 155.012C84.3964 153.777 85.846 152.795 87.4453 152.125C89.0445 151.455 90.7614 151.11 92.4957 151.11C94.23 151.11 95.9469 151.455 97.5462 152.125C99.1455 152.795 100.595 153.777 101.81 155.012C103.026 156.248 103.982 157.713 104.624 159.322C105.266 160.931 105.581 162.652 105.55 164.383Z" fill="#455A64"/>
<path d="M81.6083 165.046C81.6083 165.433 81.4935 165.811 81.2785 166.132C81.0634 166.453 80.7578 166.704 80.4002 166.852C80.0426 167 79.6491 167.038 79.2695 166.963C78.8899 166.888 78.5412 166.701 78.2675 166.428C77.9938 166.155 77.8075 165.807 77.7319 165.427C77.6564 165.048 77.6952 164.655 77.8433 164.298C77.9914 163.941 78.2423 163.636 78.5641 163.421C78.8859 163.206 79.2643 163.092 79.6513 163.092C79.9085 163.091 80.1632 163.141 80.4009 163.239C80.6385 163.337 80.8545 163.481 81.0363 163.663C81.2182 163.845 81.3623 164.06 81.4604 164.298C81.5586 164.535 81.6088 164.789 81.6083 165.046Z" fill="#263238"/>
<path d="M107.394 164.778C107.394 165.164 107.28 165.542 107.065 165.863C106.85 166.185 106.544 166.435 106.186 166.583C105.829 166.731 105.435 166.77 105.056 166.694C104.676 166.619 104.327 166.433 104.054 166.16C103.78 165.886 103.594 165.538 103.518 165.159C103.443 164.78 103.481 164.387 103.629 164.03C103.778 163.673 104.028 163.367 104.35 163.153C104.672 162.938 105.05 162.823 105.437 162.823C105.956 162.823 106.454 163.029 106.821 163.396C107.188 163.762 107.394 164.259 107.394 164.778Z" fill="#263238"/>
<path d="M105.424 161.179C105.424 161.242 99.7423 161.292 92.7375 161.292C85.7327 161.292 80.0508 161.242 80.0508 161.179C80.0508 161.116 85.7285 161.07 92.7375 161.07C99.7465 161.07 105.424 161.12 105.424 161.179Z" fill="#455A64"/>
<path d="M62.086 79.5684C62.3957 79.7639 62.663 80.0193 62.8722 80.3197C63.0814 80.6201 63.2281 80.9593 63.3039 81.3173C63.4475 82.0385 63.4245 82.7829 63.2367 83.4939C62.9175 84.8696 61.9768 86.1865 60.9689 87.2014C59.9149 86.0397 59.8519 84.2195 59.8771 83.2926C59.9191 81.8289 60.8892 79.2077 62.086 79.5684Z" fill="#17AFAF"/>
<path d="M62.0689 89.6676C62.0371 89.2608 62.1132 88.8528 62.2894 88.4847C62.4656 88.1166 62.7357 87.8013 63.0726 87.5706C63.415 87.345 63.7988 87.1896 64.2018 87.1133C64.6047 87.037 65.0189 87.0413 65.4202 87.126C65.6084 87.1457 65.7901 87.2062 65.9526 87.3033C66.1151 87.4004 66.2544 87.5316 66.3608 87.688C66.435 87.8489 66.4647 88.0266 66.447 88.2029C66.4293 88.3791 66.3647 88.5474 66.2601 88.6903C66.0433 88.9761 65.753 89.1979 65.4202 89.332C64.3241 89.8521 63.1692 90.1708 62.0605 89.6759" fill="#17AFAF"/>
<path d="M60.2969 92.7377C60.3551 92.4301 60.4452 92.1293 60.5656 91.8402C60.683 91.5189 60.8396 91.2132 61.0318 90.9301C61.2514 90.5765 61.4956 90.2388 61.7625 89.9194C62.2536 89.331 62.8825 88.8729 63.5935 88.5857C63.8098 88.5063 64.0335 88.4487 64.2612 88.4137C64.3446 88.3999 64.4298 88.3999 64.5132 88.4137C64.5132 88.4431 64.1604 88.4808 63.6355 88.7031C62.9594 89.0116 62.3611 89.4673 61.8843 90.0368C61.6209 90.3502 61.3769 90.6793 61.1536 91.0224C60.9613 91.2954 60.798 91.5878 60.6664 91.8947C60.5635 92.1841 60.44 92.4659 60.2969 92.7377Z" fill="#263238"/>
<path d="M61.5239 81.6274C61.5396 81.785 61.5396 81.9438 61.5239 82.1014C61.5239 82.4033 61.4819 82.8437 61.4441 83.3847C61.3643 84.471 61.2342 85.9682 61.0578 87.6206C60.8814 89.2731 60.6714 90.7577 60.4992 91.8146C60.4111 92.3515 60.3397 92.7834 60.2809 93.0728C60.2592 93.2293 60.2241 93.3837 60.1759 93.5342C60.1745 93.3752 60.1885 93.2165 60.2179 93.0602C60.2641 92.7331 60.3187 92.3011 60.3859 91.802C60.5286 90.7242 60.7176 89.2353 60.8982 87.5829C61.0788 85.9305 61.2174 84.4668 61.3181 83.3596C61.3727 82.8395 61.4189 82.4075 61.4525 82.0762C61.4654 81.9251 61.4892 81.7751 61.5239 81.6274Z" fill="#263238"/>
<path d="M60.2302 89.9985C60.0682 89.1497 59.7065 88.3515 59.175 87.6697C58.6434 86.9879 57.9572 86.4421 57.173 86.0772C56.753 85.8968 56.2533 85.7836 55.9341 86.0772C55.6149 86.3707 55.6989 86.9159 55.8669 87.3144C56.2329 88.1555 56.8404 88.8693 57.6125 89.3657C58.3847 89.8622 59.2868 90.1189 60.205 90.1034" fill="#17AFAF"/>
<path d="M57.4795 87.3271C57.5589 87.3516 57.6341 87.3884 57.7021 87.4362C58.551 87.9232 59.2901 88.58 59.8732 89.3654C60.1028 89.713 60.2744 90.0954 60.3814 90.4978C60.4643 90.8267 60.5024 91.1653 60.4947 91.5044C60.4889 91.7314 60.4622 91.9574 60.415 92.1796C60.404 92.2634 60.3814 92.3453 60.3478 92.4228C60.3142 92.4228 60.3898 92.0664 60.3814 91.5044C60.3732 91.1771 60.3267 90.852 60.2428 90.5356C60.1303 90.1516 59.9604 89.7868 59.7388 89.4535C59.3147 88.8538 58.7972 88.3256 58.206 87.8891C57.9525 87.717 57.7098 87.5293 57.4795 87.3271Z" fill="#263238"/>
<path d="M60.0912 103.302C58.6986 103.301 57.3634 102.748 56.379 101.764C55.3947 100.78 54.8418 99.4462 54.8418 98.0555V92.813H65.3406V98.0555C65.3406 99.4462 64.7876 100.78 63.8033 101.764C62.819 102.748 61.4838 103.301 60.0912 103.302Z" fill="#263238"/>
<path d="M65.3448 95.392C65.3024 95.4458 65.2546 95.495 65.202 95.5388L64.782 95.9289L63.182 97.2793L63.1442 97.3087L63.098 97.2835L60.0702 95.4675H60.1584L57.3069 97.2793L57.2649 97.3087L57.2229 97.2751L55.4801 95.9121L55.0014 95.5263C54.9421 95.4828 54.8885 95.432 54.8418 95.3753C54.9102 95.4031 54.974 95.4413 55.0308 95.4885C55.1652 95.585 55.3331 95.7066 55.5347 95.845L57.3111 97.1619H57.2271L60.045 95.3082L60.0912 95.2788L60.1374 95.304L63.1652 97.1577H63.0812L64.7064 95.845L65.1642 95.4843C65.2818 95.4256 65.3406 95.3837 65.3448 95.392Z" fill="#E0E0E0"/>
<path d="M65.3455 94.3437C65.3032 94.3975 65.2553 94.4467 65.2028 94.4905L64.7828 94.8806L63.1996 96.2436L63.1618 96.273L63.1156 96.2478L60.071 94.4192H60.1592L57.3245 96.252L57.2825 96.2813L57.2405 96.2478L55.4977 94.8848L55.019 94.4989C54.9597 94.4554 54.9061 94.4047 54.8594 94.3479C54.9278 94.3758 54.9915 94.414 55.0484 94.4612L55.5523 94.8177L57.3287 96.1346H57.2447L60.0626 94.2808L60.1088 94.2515L60.155 94.2766L63.1828 96.1304H63.0988L64.724 94.8177L65.1818 94.457C65.2826 94.3773 65.3413 94.3437 65.3455 94.3437Z" fill="#E0E0E0"/>
<path d="M65.3448 96.4409C65.3448 96.4409 65.2986 96.4996 65.202 96.5919L64.7821 96.9778L63.1988 98.3408L63.161 98.3743L63.1149 98.345L60.0702 96.5374H60.1584L57.3237 98.3702L57.2817 98.3995L57.2397 98.3702C56.5384 97.8166 55.9463 97.3552 55.497 97.0071L55.0182 96.6171C54.909 96.5248 54.8544 96.4745 54.8586 96.4661C54.926 96.4961 54.9894 96.5341 55.0476 96.5793C55.182 96.68 55.35 96.7974 55.5515 96.94L57.3279 98.2527H57.2439L60.0618 96.399L60.108 96.3696L60.1542 96.399L63.182 98.2485H63.0981L64.7233 96.9316L65.181 96.5751C65.2295 96.5234 65.2846 96.4783 65.3448 96.4409Z" fill="#E0E0E0"/>
<path d="M201.409 115.616C199.233 115.968 198.259 118.635 198.469 120.829C198.679 123.022 199.565 125.17 199.309 127.355C199.002 130.135 196.898 132.484 196.655 135.269C196.365 138.553 198.691 141.467 199.384 144.688C199.725 146.257 199.678 147.918 200.262 149.411C200.76 150.682 201.685 151.742 202.878 152.409C204.071 153.076 205.459 153.31 206.805 153.069C208.151 152.829 209.372 152.129 210.259 151.091C211.147 150.052 211.646 148.738 211.672 147.372C211.718 144.856 210.16 142.478 210.349 139.962C210.488 138.104 211.58 136.342 211.349 134.51C211.067 132.308 209.026 130.735 208.304 128.638C207.582 126.541 208.279 124.226 208.027 122.02C207.582 118.065 205.385 115.309 201.413 115.624" fill="#17AFAF"/>
<path d="M190.297 134.77C189.923 138.435 191.557 142.738 193.434 145.913C195.344 149.102 198.223 151.599 201.652 153.043C202.035 153.202 202.513 153.336 202.837 153.076C202.952 152.951 203.038 152.802 203.09 152.639C203.141 152.477 203.156 152.306 203.135 152.137C203.163 148.246 201.927 144.451 199.612 141.321C197.297 138.191 194.029 135.895 190.297 134.778" fill="#17AFAF"/>
<g opacity="0.2">
<path opacity="0.2" d="M190.297 134.77C189.923 138.435 191.557 142.738 193.434 145.913C195.344 149.102 198.223 151.599 201.652 153.043C202.035 153.202 202.513 153.336 202.837 153.076C202.952 152.951 203.038 152.802 203.09 152.639C203.141 152.477 203.156 152.306 203.135 152.137C203.163 148.246 201.927 144.451 199.612 141.321C197.297 138.191 194.029 135.895 190.297 134.778" fill="black"/>
</g>
<path d="M206.285 160.697C206.241 160.635 206.206 160.567 206.18 160.496L205.915 159.892C205.697 159.372 205.365 158.633 204.945 157.69C203.852 155.283 202.636 152.932 201.304 150.648C199.963 148.367 198.508 146.154 196.945 144.017C196.345 143.2 195.849 142.541 195.501 142.092C195.341 141.883 195.207 141.707 195.106 141.568C195.056 141.51 195.013 141.446 194.976 141.379C194.976 141.379 195.039 141.43 195.135 141.543L195.555 142.042C195.925 142.461 196.437 143.12 197.054 143.929C200.269 148.159 202.963 152.76 205.08 157.631C205.5 158.566 205.794 159.33 205.991 159.862L206.218 160.479C206.247 160.549 206.269 160.622 206.285 160.697Z" fill="#263238"/>
<path d="M203.92 125.757C203.943 125.873 203.957 125.991 203.962 126.109C203.962 126.357 204.004 126.692 204.033 127.12C204.092 128.013 204.172 129.28 204.273 130.832C204.47 133.969 204.747 138.301 205.087 143.082C205.427 147.863 205.755 152.196 205.999 155.329C206.116 156.88 206.213 158.143 206.284 159.04C206.313 159.46 206.334 159.799 206.351 160.047C206.361 160.165 206.361 160.285 206.351 160.403C206.351 160.403 206.33 160.282 206.301 160.051C206.271 159.82 206.238 159.468 206.192 159.044C206.108 158.151 205.99 156.889 205.843 155.341C205.562 152.208 205.205 147.884 204.869 143.099C204.533 138.314 204.285 133.981 204.113 130.832C204.042 129.276 203.983 128.013 203.941 127.116C203.941 126.696 203.916 126.352 203.907 126.101C203.901 125.986 203.905 125.871 203.92 125.757Z" fill="#263238"/>
<path d="M200.544 155.471H209.737V162.21C209.736 163.379 209.27 164.499 208.442 165.325C207.615 166.15 206.493 166.614 205.323 166.614C204.194 166.615 203.108 166.183 202.288 165.407C201.468 164.631 200.978 163.571 200.918 162.445L200.544 155.471Z" fill="#263238"/>
<path d="M153.988 66.6172L175.91 78.742L175.082 80.2854L153.358 67.9341L153.988 66.6172Z" fill="#17AFAF"/>
<path d="M152.909 65.4723L153.917 63.9331L154.505 64.2938L153.602 65.8456L152.909 65.4723Z" fill="#17AFAF"/>
<path d="M173.419 76.8257L174.545 77.4716L170.874 100.866L169.136 100.887L173.419 76.8257Z" fill="#17AFAF"/>
<path d="M164.083 103.302C164.083 103.302 166.758 100.601 170.336 100.785C171.359 100.823 172.364 101.062 173.293 101.489C174.223 101.915 175.059 102.522 175.753 103.272L164.083 103.302Z" fill="#17AFAF"/>
<path d="M152.929 76.0787L144.249 71.0711L146.769 66.7387C147.098 66.1694 147.536 65.6703 148.058 65.2701C148.58 64.8698 149.175 64.5762 149.811 64.406C150.447 64.2358 151.11 64.1924 151.762 64.2781C152.415 64.3639 153.044 64.5772 153.614 64.9059C154.764 65.57 155.604 66.663 155.948 67.9448C156.292 69.2266 156.113 70.5924 155.449 71.7421L152.929 76.0787Z" fill="#17AFAF"/>
</g>
<defs>
<clipPath id="clip0">
<rect width="260" height="167" fill="white"/>
</clipPath>
</defs>
</svg>
