<svg width="311" height="232" viewBox="0 0 311 232" fill="none" xmlns="http://www.w3.org/2000/svg">
<path d="M311 203.882H0V204.037H311V203.882Z" fill="#EBEBEB"/>
<path d="M147.413 176.112H27.3115C26.3706 176.111 25.4689 175.735 24.8042 175.069C24.1394 174.402 23.7661 173.499 23.7661 172.557V3.55536C23.7743 2.61894 24.1513 1.72356 24.8151 1.06371C25.4789 0.403871 26.376 0.0328541 27.3115 0.03125H147.413C148.355 0.03125 149.259 0.40582 149.925 1.07256C150.591 1.7393 150.965 2.64359 150.965 3.58649V172.557C150.965 173.5 150.591 174.404 149.925 175.071C149.259 175.738 148.355 176.112 147.413 176.112ZM27.3115 0.155777C26.4119 0.157427 25.5497 0.516323 24.9141 1.15369C24.2786 1.79106 23.9216 2.65481 23.9216 3.55536V172.557C23.9216 173.458 24.2786 174.321 24.9141 174.959C25.5497 175.596 26.4119 175.955 27.3115 175.957H147.413C148.314 175.955 149.177 175.596 149.813 174.959C150.45 174.322 150.808 173.458 150.81 172.557V3.55536C150.808 2.65424 150.45 1.7905 149.813 1.15331C149.177 0.516121 148.314 0.157423 147.413 0.155777H27.3115Z" fill="#EBEBEB"/>
<path d="M281.959 176.112H161.85C160.909 176.111 160.007 175.736 159.341 175.069C158.675 174.403 158.3 173.5 158.299 172.557V3.55536C158.309 2.61837 158.687 1.723 159.352 1.06333C160.017 0.403653 160.914 0.0328367 161.85 0.03125H281.959C282.893 0.0344905 283.789 0.406231 284.451 1.0659C285.114 1.72557 285.49 2.62001 285.498 3.55536V172.557C285.498 173.498 285.125 174.4 284.462 175.067C283.799 175.733 282.898 176.109 281.959 176.112ZM161.85 0.155777C160.95 0.157423 160.087 0.516121 159.451 1.15331C158.814 1.7905 158.456 2.65424 158.454 3.55536V172.557C158.456 173.458 158.814 174.322 159.451 174.959C160.087 175.596 160.95 175.955 161.85 175.957H281.959C282.859 175.955 283.722 175.596 284.358 174.959C284.995 174.322 285.353 173.458 285.355 172.557V3.55536C285.353 2.65424 284.995 1.7905 284.358 1.15331C283.722 0.516121 282.859 0.157423 281.959 0.155777H161.85Z" fill="#EBEBEB"/>
<path d="M124.674 209.81H108.502V209.965H124.674V209.81Z" fill="#EBEBEB"/>
<path d="M66.2801 208.122H32.6299V208.278H66.2801V208.122Z" fill="#EBEBEB"/>
<path d="M107.88 215.594H91.5088V215.749H107.88V215.594Z" fill="#EBEBEB"/>
<path d="M184.771 214.548H160.619V214.704H184.771V214.548Z" fill="#EBEBEB"/>
<path d="M196.956 214.548H190.307V214.704H196.956V214.548Z" fill="#EBEBEB"/>
<path d="M279.844 211.914H245.908V212.07H279.844V211.914Z" fill="#EBEBEB"/>
<path d="M237.019 198.353H265.413V120.231H237.019V198.353Z" fill="#F0F0F0"/>
<path d="M113.036 203.875L259.959 203.875V198.353L113.036 198.353V203.875Z" fill="#F0F0F0"/>
<path d="M237.019 120.231H107.587V198.353H237.019V120.231Z" fill="#F5F5F5"/>
<path d="M237.516 125.517H107.587V154.115H237.516V125.517Z" fill="#F0F0F0"/>
<path d="M237.516 159.326H107.587V187.924H237.516V159.326Z" fill="#F0F0F0"/>
<path d="M237.019 154.108H241.933V125.511H237.019V154.108Z" fill="#E6E6E6"/>
<path d="M237.019 187.924H241.933V159.326H237.019V187.924Z" fill="#E6E6E6"/>
<path d="M103.805 120.231L237.019 120.231V115.424L103.805 115.424V120.231Z" fill="#F0F0F0"/>
<path d="M269.382 115.424H237.019V120.231H269.382V115.424Z" fill="#E6E6E6"/>
<path d="M195.974 23.2745V94.1055H261.75V23.2745H195.974Z" fill="white"/>
<path d="M67.1699 203.882H83.0247L78.6147 201.279H71.5799L67.1699 203.882Z" fill="#F0F0F0"/>
<path d="M136.765 88.0532H170.254L165.844 115.424H141.175L136.765 88.0532Z" fill="#F0F0F0"/>
<path d="M150.219 96.9629C159.35 93.6567 166.342 88.6881 158.517 78.6325C150.692 68.577 138.569 68.6268 130.396 73.0786C119.984 78.7446 122.074 95.151 122.074 95.151C122.074 95.151 141.088 100.275 150.219 96.9629Z" fill="#E0E0E0"/>
<path d="M159.095 87.8227C152.11 83.0595 147.159 77.5492 155.264 71.7338C163.369 65.9184 173.364 68.9008 179.373 74.299C187.029 81.1854 182.607 93.2707 182.607 93.2707C182.607 93.2707 166.074 92.5609 159.095 87.8227Z" fill="#E6E6E6"/>
<path d="M146.792 75.7375C154.965 75.2456 161.82 73.11 157.951 64.2499C154.082 55.3898 144.267 52.9055 136.61 54.4247C126.826 56.3611 124.519 68.6146 124.519 68.6146C124.519 68.6146 138.626 76.2356 146.792 75.7375Z" fill="#F0F0F0"/>
<path d="M157.055 70.5134C150.257 68.3217 144.926 65.0405 150.107 58.3845C155.288 51.7285 164.102 51.7659 170.26 54.7047C178.11 58.4405 177.413 69.3117 177.413 69.3117C177.413 69.3117 163.853 72.6989 157.055 70.5134Z" fill="#EBEBEB"/>
<path d="M144.304 59.1818C151.09 61.4233 157.329 61.9089 157.049 53.4784C156.769 45.0479 149.641 39.8801 142.936 38.5975C134.383 37.0035 128.562 46.1874 128.562 46.1874C128.562 46.1874 137.531 56.9216 144.304 59.1818Z" fill="#F5F5F5"/>
<path d="M161.527 55.5393C156.669 55.8756 152.471 55.1409 154.063 49.6181C155.655 44.0953 161.253 41.8974 165.881 42.2025C171.79 42.5948 174.085 49.6741 174.085 49.6741C174.085 49.6741 166.378 55.2094 161.527 55.5393Z" fill="#FAFAFA"/>
<path d="M155.5 232C222.106 232 276.1 228.844 276.1 224.952C276.1 221.059 222.106 217.903 155.5 217.903C88.8952 217.903 34.9009 221.059 34.9009 224.952C34.9009 228.844 88.8952 232 155.5 232Z" fill="#F5F5F5"/>
<path d="M260.78 122.118H49.4551V129.708H260.78V122.118Z" fill="#9D3CFE"/>
<path opacity="0.3" d="M106.014 122.118H49.4551V129.708H106.014V122.118Z" fill="white"/>
<path d="M106.915 129.708H101.995L104.57 224.834H106.915H109.26L111.841 129.708H106.915Z" fill="#9D3CFE"/>
<path opacity="0.3" d="M104.571 224.834H106.916V131.756L102.077 132.64L104.571 224.834Z" fill="white"/>
<path d="M60.2843 129.708H55.3643L57.9393 224.834H60.2843H62.6292L65.2043 129.708H60.2843Z" fill="#9D3CFE"/>
<path opacity="0.3" d="M57.9394 224.834H60.2843V131.756L55.439 132.64L57.9394 224.834Z" fill="white"/>
<path d="M249.951 129.708H245.031L247.606 224.834H249.951H252.296L254.877 129.708H249.951Z" fill="#9D3CFE"/>
<path opacity="0.3" d="M247.606 224.834H249.951V131.756L245.111 132.64L247.606 224.834Z" fill="white"/>
<path d="M203.319 129.708H198.399L200.974 224.834H203.319H205.664L208.239 129.708H203.319Z" fill="#9D3CFE"/>
<path opacity="0.3" d="M200.974 224.834H203.319V131.756L198.48 132.64L200.974 224.834Z" fill="white"/>
<path d="M149.765 81.4908H99.5194C99.1117 81.4746 98.7059 81.5553 98.3352 81.7261C97.9645 81.8969 97.6394 82.153 97.3865 82.4736C97.1336 82.7941 96.96 83.1701 96.8799 83.5706C96.7998 83.9712 96.8155 84.385 96.9257 84.7783L103.618 116.751C103.834 117.655 104.338 118.464 105.054 119.056C105.77 119.649 106.659 119.991 107.587 120.032H157.869C158.276 120.048 158.681 119.967 159.051 119.797C159.422 119.626 159.746 119.371 159.999 119.051C160.252 118.731 160.425 118.356 160.506 117.956C160.587 117.557 160.572 117.144 160.463 116.751L153.764 84.7783C153.548 83.8679 153.04 83.0534 152.318 82.4596C151.596 81.8658 150.699 81.5255 149.765 81.4908Z" fill="#263238"/>
<path d="M108.022 118.208C107.396 118.165 106.798 117.926 106.316 117.523C105.833 117.121 105.49 116.576 105.335 115.966L98.6427 83.9938C98.5854 83.7823 98.5764 83.5605 98.6162 83.345C98.656 83.1295 98.7437 82.9256 98.8728 82.7486C99.0067 82.597 99.1729 82.4774 99.3592 82.3988C99.5454 82.3201 99.747 82.2843 99.9489 82.294H150.231C150.858 82.3364 151.455 82.576 151.938 82.9785C152.421 83.3811 152.764 83.9261 152.918 84.5355L159.611 116.508C159.668 116.719 159.677 116.941 159.638 117.157C159.598 117.372 159.51 117.576 159.381 117.753C159.248 117.906 159.082 118.026 158.895 118.105C158.709 118.184 158.507 118.219 158.305 118.208H108.022Z" fill="white"/>
<path opacity="0.4" d="M145.958 115.648L139.614 85.3323C139.578 85.1529 139.582 84.9677 139.626 84.7901C139.67 84.6125 139.753 84.4467 139.868 84.3046C139.983 84.1626 140.128 84.0476 140.293 83.9681C140.458 83.8885 140.638 83.8462 140.82 83.8442H148.981C149.264 83.8464 149.538 83.9451 149.757 84.1239C149.976 84.3028 150.128 84.5511 150.188 84.828L156.532 115.119C156.568 115.299 156.564 115.484 156.52 115.661C156.476 115.839 156.393 116.005 156.278 116.147C156.163 116.289 156.018 116.404 155.853 116.483C155.688 116.563 155.508 116.605 155.325 116.607H147.165C146.885 116.606 146.614 116.511 146.395 116.337C146.176 116.163 146.022 115.921 145.958 115.648Z" fill="#9D3CFE"/>
<path d="M102.829 86.4969L102.556 85.1831H112.632L112.906 86.4969H102.829Z" fill="#9D3CFE"/>
<path d="M107.482 89.7594L107.208 88.4395H124.867L125.146 89.7594H107.482Z" fill="#EBEBEB"/>
<path d="M108.415 93.0159L108.135 91.7021H127.933L128.207 93.0159H108.415Z" fill="#EBEBEB"/>
<path d="M109.341 96.2723L109.067 94.9585H125.003L125.283 96.2723H109.341Z" fill="#EBEBEB"/>
<path d="M105.896 101.565L105.616 100.251H111.991L112.265 101.565H105.896Z" fill="#9D3CFE"/>
<path d="M110.542 104.821L110.268 103.507H118.031L118.311 104.821H110.542Z" fill="#EBEBEB"/>
<path d="M120.17 104.821L119.89 103.507H127.659L127.933 104.821H120.17Z" fill="#EBEBEB"/>
<path d="M111.475 108.084L111.201 106.764H137.45L137.723 108.084H111.475Z" fill="#EBEBEB"/>
<path d="M112.402 111.34L112.128 110.026H132.144L132.418 111.34H112.402Z" fill="#EBEBEB"/>
<path d="M173.239 119.839H107.083C105.279 119.839 104.11 120.866 104.489 122.124H177.207C176.834 120.866 175.043 119.839 173.239 119.839Z" fill="#263238"/>
<path opacity="0.1" d="M85.3445 73.4092L78.9939 43.1118C78.9592 42.9327 78.9643 42.7483 79.0087 42.5714C79.0532 42.3946 79.1358 42.2296 79.2509 42.0883C79.366 41.9469 79.5107 41.8326 79.6748 41.7534C79.8389 41.6742 80.0184 41.632 80.2005 41.6299H131.578C131.86 41.6318 132.133 41.7295 132.352 41.9071C132.571 42.0847 132.724 42.3317 132.784 42.6074L139.135 72.8799C139.171 73.0594 139.166 73.2446 139.122 73.4222C139.078 73.5998 138.996 73.7656 138.881 73.9076C138.766 74.0497 138.62 74.1646 138.456 74.2442C138.291 74.3238 138.111 74.3661 137.928 74.368H86.5512C86.2717 74.3671 86.0006 74.272 85.7817 74.0981C85.5628 73.9241 85.4088 73.6815 85.3445 73.4092Z" fill="#9D3CFE"/>
<path d="M103.606 42.6258H92.8207L92.5781 41.4614H103.364L103.606 42.6258Z" fill="#9D3CFE"/>
<path opacity="0.4" d="M101.852 44.475H97.5229L97.2803 43.3169H101.609L101.852 44.475Z" fill="#9D3CFE"/>
<path opacity="0.4" d="M109.055 44.475H102.387L102.145 43.3169H108.812L109.055 44.475Z" fill="#9D3CFE"/>
<path opacity="0.4" d="M111.96 46.3303H97.9091L97.6665 45.166H111.724L111.96 46.3303Z" fill="#9D3CFE"/>
<path opacity="0.4" d="M110.175 48.1796H98.2943L98.0518 47.0215H109.932L110.175 48.1796Z" fill="#9D3CFE"/>
<path opacity="0.4" d="M118.055 67.8677H110.492L110.734 69.0258H118.298L118.055 67.8677Z" fill="#9D3CFE"/>
<path d="M108.626 65.3207H97.5482L97.3057 64.1626H108.383L108.626 65.3207Z" fill="#9D3CFE"/>
<path opacity="0.4" d="M113.079 69.7168H102.779L103.021 70.8811H113.322L113.079 69.7168Z" fill="#9D3CFE"/>
<path opacity="0.4" d="M109.957 67.8677H102.394L102.636 69.0258H110.2L109.957 67.8677Z" fill="#9D3CFE"/>
<path opacity="0.4" d="M117.135 66.0122H102.008L102.25 67.1765H117.377L117.135 66.0122Z" fill="#9D3CFE"/>
<path d="M103.227 33.9837H91.0233L90.7808 32.8193H102.984L103.227 33.9837Z" fill="#9D3CFE"/>
<path opacity="0.4" d="M109.254 38.3794H95.7939L96.0365 39.5375H109.49L109.254 38.3794Z" fill="#9D3CFE"/>
<path opacity="0.4" d="M106.561 36.5239H95.4082L95.6508 37.6883H106.803L106.561 36.5239Z" fill="#9D3CFE"/>
<path opacity="0.4" d="M107.301 34.6748H95.0229L95.2655 35.8329H107.544L107.301 34.6748Z" fill="#9D3CFE"/>
<path d="M103.09 51.1933H94.6063L94.3638 50.0352H102.848L103.09 51.1933Z" fill="#9D3CFE"/>
<path opacity="0.4" d="M116.413 55.5894H99.8369L100.079 56.7537H116.65L116.413 55.5894Z" fill="#9D3CFE"/>
<path opacity="0.4" d="M106.318 53.7397H99.4512L99.6938 54.8979H106.561L106.318 53.7397Z" fill="#9D3CFE"/>
<path opacity="0.4" d="M113.77 53.7397H106.903L107.146 54.8979H114.013L113.77 53.7397Z" fill="#9D3CFE"/>
<path opacity="0.4" d="M114.193 51.8843H99.0659L99.3085 53.0486H114.429L114.193 51.8843Z" fill="#9D3CFE"/>
<path opacity="0.4" d="M114.162 61.1494H100.994L101.237 62.3075H114.404L114.162 61.1494Z" fill="#9D3CFE"/>
<path opacity="0.4" d="M104.44 59.2939H100.608L100.851 60.4583H104.676L104.44 59.2939Z" fill="#9D3CFE"/>
<path opacity="0.4" d="M110.43 59.2939H104.962L105.205 60.4583H110.672L110.43 59.2939Z" fill="#9D3CFE"/>
<path opacity="0.4" d="M115.35 57.4448H100.223L100.466 58.6029H115.593L115.35 57.4448Z" fill="#9D3CFE"/>
<path opacity="0.4" d="M127.261 57.1331H121.843L121.601 55.9688H127.024L127.261 57.1331Z" fill="#9D3CFE"/>
<path opacity="0.4" d="M136.28 57.1331H127.933L127.69 55.9688H136.038L136.28 57.1331Z" fill="#9D3CFE"/>
<path opacity="0.4" d="M139.826 58.9823H122.229L121.987 57.8242H139.583L139.826 58.9823Z" fill="#9D3CFE"/>
<path opacity="0.4" d="M137.487 60.8382H122.615L122.372 59.6738H137.244L137.487 60.8382Z" fill="#9D3CFE"/>
<path opacity="0.4" d="M144.148 49.7612H127.298L127.541 50.9256H144.391L144.148 49.7612Z" fill="#9D3CFE"/>
<path opacity="0.4" d="M140.877 47.9121H126.913L127.156 49.0702H141.113L140.877 47.9121Z" fill="#9D3CFE"/>
<path d="M138.351 46.0566H122.976L123.218 47.221H138.594L138.351 46.0566Z" fill="#9D3CFE"/>
<path opacity="0.4" d="M144.907 68.2471H124.157L124.4 69.4052H145.15L144.907 68.2471Z" fill="#9D3CFE"/>
<path opacity="0.4" d="M132.368 66.3916H123.771L124.014 67.5559H132.61L132.368 66.3916Z" fill="#9D3CFE"/>
<path opacity="0.4" d="M141.698 66.3916H133.102L133.344 67.5559H141.94L141.698 66.3916Z" fill="#9D3CFE"/>
<path opacity="0.4" d="M142.32 64.5425H123.386L123.629 65.7006H142.562L142.32 64.5425Z" fill="#9D3CFE"/>
<path opacity="0.4" d="M141.797 73.8013H125.314L125.557 74.9656H142.04L141.797 73.8013Z" fill="#9D3CFE"/>
<path opacity="0.4" d="M129.724 71.9517H124.929L125.171 73.1098H129.967L129.724 71.9517Z" fill="#9D3CFE"/>
<path opacity="0.4" d="M137.226 71.9517H130.384L130.626 73.1098H137.468L137.226 71.9517Z" fill="#9D3CFE"/>
<path opacity="0.4" d="M143.482 70.0967H124.542L124.785 71.261H143.719L143.482 70.0967Z" fill="#9D3CFE"/>
<path opacity="0.4" d="M93.0512 75.2393H80.1509L80.3935 76.3974H93.2937L93.0512 75.2393Z" fill="#9D3CFE"/>
<path opacity="0.4" d="M89.2382 73.3843H79.7651L80.0077 74.5486H89.4746L89.2382 73.3843Z" fill="#9D3CFE"/>
<path opacity="0.4" d="M99.3706 73.3843H89.9038L90.1464 74.5486H99.6195L99.3706 73.3843Z" fill="#9D3CFE"/>
<path opacity="0.4" d="M98.3198 71.5347H79.3799L79.6225 72.6928H98.5561L98.3198 71.5347Z" fill="#9D3CFE"/>
<path d="M243.171 110.026H235.185L236.118 122.117H242.238L243.171 110.026Z" fill="#9D3CFE"/>
<path opacity="0.4" d="M243.171 110.026H235.185L236.118 122.117H242.238L243.171 110.026Z" fill="white"/>
<path d="M69.1227 101.627H80.6048L76.6862 122.118H65.2041L69.1227 101.627Z" fill="#263238"/>
<path d="M83.7458 96.1353H67.5303L72.0709 122.118H88.2864L83.7458 96.1353Z" fill="#9D3CFE"/>
<path d="M66.5728 96.1353H67.5306L72.0712 122.118H71.1134L66.5728 96.1353Z" fill="#9D3CFE"/>
<path opacity="0.3" d="M66.5728 96.1353H67.5306L72.0712 122.118H71.1134L66.5728 96.1353Z" fill="black"/>
<path d="M74.4038 119.341L70.8335 98.9121H81.4199L84.984 119.341H74.4038Z" fill="white"/>
<path opacity="0.6" d="M84.4801 119.341L80.916 98.9121H81.4198L84.9839 119.341H84.4801Z" fill="#9D3CFE"/>
<path d="M164.065 62.9175C164.295 63.4156 164.221 63.9448 163.891 64.0942C163.561 64.2437 163.114 63.9635 162.883 63.4716C162.653 62.9797 162.734 62.4443 163.058 62.2948C163.381 62.1454 163.835 62.3945 164.065 62.9175Z" fill="#263238"/>
<path d="M164.264 63.9014C164.264 63.9014 164.463 67.301 163.854 69.2685C165.098 69.6856 166.441 68.6458 166.441 68.6458L164.264 63.9014Z" fill="#FF5652"/>
<path d="M164.127 58.8018C164.074 58.8456 164.009 58.8717 163.941 58.8765C163.536 58.8873 163.139 58.9938 162.784 59.1876C162.428 59.3813 162.123 59.6567 161.894 59.9911C161.874 60.0294 161.846 60.0632 161.812 60.0904C161.779 60.1177 161.74 60.1379 161.698 60.1498C161.656 60.1618 161.612 60.1652 161.569 60.1598C161.526 60.1545 161.485 60.1406 161.447 60.1189C161.41 60.0971 161.377 60.0681 161.351 60.0334C161.325 59.9987 161.306 59.9591 161.295 59.917C161.285 59.8749 161.283 59.831 161.29 59.7881C161.296 59.7452 161.312 59.7041 161.335 59.6673C161.616 59.2391 161.997 58.8849 162.444 58.6346C162.891 58.3843 163.391 58.2452 163.903 58.229C163.971 58.2252 164.039 58.2431 164.096 58.2799C164.153 58.3168 164.198 58.3708 164.223 58.4343C164.247 58.4978 164.251 58.5675 164.234 58.6335C164.217 58.6995 164.18 58.7584 164.127 58.8018Z" fill="#263238"/>
<path d="M182.383 62.1455C184.305 68.8077 186.451 73.9756 189.07 76.9269C189.07 76.9269 189.12 82.1632 180.206 84.6538C170.404 87.3934 174.16 81.0923 174.16 81.0923C179.136 78.3216 178.664 74.1375 174.919 72.5435L182.383 62.1455Z" fill="#FF8B7B"/>
<path d="M191.147 75.6504C190.973 73.2159 190.742 70.439 189.243 70.3642C187.589 70.2895 178.01 74.5733 175.964 77.593C173.917 80.6128 177.917 83.5703 177.917 83.5703L191.147 75.6504Z" fill="#263238"/>
<path d="M171.542 113.351L163.27 113.077L163.419 120.013C163.419 120.013 170.634 119.266 170.951 117.367L171.542 113.351Z" fill="#FF8B7B"/>
<path d="M158.897 116.483L158.026 120.032L163.419 120.019L163.269 113.083L158.897 116.483Z" fill="#FF8B7B"/>
<path d="M204.744 84.5291L204.57 86.3098C204.514 86.8827 204.439 87.443 204.364 88.0096C204.221 89.1366 204.041 90.2636 203.848 91.3843C203.475 93.632 202.99 95.8673 202.43 98.115C201.861 100.406 201.172 102.665 200.365 104.883C199.936 106.022 199.488 107.162 198.953 108.32C198.414 109.535 197.79 110.71 197.087 111.838C196.919 112.13 196.707 112.46 196.502 112.734C196.297 113.008 196.098 113.357 195.88 113.643C195.663 113.93 195.432 114.266 195.146 114.559L194.742 115.02C194.597 115.189 194.444 115.352 194.282 115.505C193.035 116.727 191.574 117.709 189.971 118.4C187.513 119.456 184.904 120.118 182.24 120.362C181.027 120.505 179.826 120.561 178.651 120.592C177.475 120.623 176.3 120.592 175.143 120.53C173.986 120.468 172.841 120.368 171.703 120.231C170.565 120.094 169.458 119.913 168.251 119.671L168.45 113.164C172.422 112.469 176.347 111.533 180.206 110.362C181.064 110.083 181.907 109.759 182.731 109.391C183.433 109.094 184.104 108.729 184.734 108.301C185.1 108.08 185.411 107.778 185.642 107.417L185.822 107.131C185.906 107.008 185.983 106.882 186.053 106.751C186.141 106.608 186.222 106.46 186.295 106.309C186.376 106.147 186.463 105.998 186.544 105.817C187.275 104.22 187.876 102.567 188.342 100.873C188.852 99.0427 189.331 97.1374 189.716 95.1637C190.102 93.1899 190.475 91.1975 190.817 89.1864L191.29 86.1604L191.719 83.2153L204.744 84.5291Z" fill="#9D3CFE"/>
<path opacity="0.2" d="M204.744 84.5291L204.57 86.3098C204.514 86.8827 204.439 87.443 204.364 88.0096C204.221 89.1366 204.041 90.2636 203.848 91.3843C203.475 93.632 202.99 95.8673 202.43 98.115C201.861 100.406 201.172 102.665 200.365 104.883C199.936 106.022 199.488 107.162 198.953 108.32C198.414 109.535 197.79 110.71 197.087 111.838C196.919 112.13 196.707 112.46 196.502 112.734C196.297 113.008 196.098 113.357 195.88 113.643C195.663 113.93 195.432 114.266 195.146 114.559L194.742 115.02C194.597 115.189 194.444 115.352 194.282 115.505C193.035 116.727 191.574 117.709 189.971 118.4C187.513 119.456 184.904 120.118 182.24 120.362C181.027 120.505 179.826 120.561 178.651 120.592C177.475 120.623 176.3 120.592 175.143 120.53C173.986 120.468 172.841 120.368 171.703 120.231C170.565 120.094 169.458 119.913 168.251 119.671L168.45 113.164C172.422 112.469 176.347 111.533 180.206 110.362C181.064 110.083 181.907 109.759 182.731 109.391C183.433 109.094 184.104 108.729 184.734 108.301C185.1 108.08 185.411 107.778 185.642 107.417L185.822 107.131C185.906 107.008 185.983 106.882 186.053 106.751C186.141 106.608 186.222 106.46 186.295 106.309C186.376 106.147 186.463 105.998 186.544 105.817C187.275 104.22 187.876 102.567 188.342 100.873C188.852 99.0427 189.331 97.1374 189.716 95.1637C190.102 93.1899 190.475 91.1975 190.817 89.1864L191.29 86.1604L191.719 83.2153L204.744 84.5291Z" fill="black"/>
<path d="M168.015 92.804C171.099 106.115 172.835 119.703 173.196 133.362H209.614C209.813 128.861 209.054 103.476 205.391 85.1394C205.065 83.4785 204.412 81.8995 203.468 80.495C202.525 79.0905 201.311 77.8889 199.897 76.9608C198.483 76.0328 196.898 75.3969 195.235 75.0906C193.572 74.7843 191.865 74.8138 190.214 75.1772L190.04 75.2208C185.493 76.2544 178.968 77.923 175.112 79.3862L174.956 79.4485C172.377 80.4523 170.251 82.3607 168.974 84.818C167.696 87.2753 167.356 90.1137 168.015 92.804Z" fill="#9D3CFE"/>
<path opacity="0.2" d="M170.385 104.447C170.671 106.197 170.963 108.052 171.231 109.995C174.21 106.882 175.156 97.3428 175.156 97.3428L170.385 104.447Z" fill="black"/>
<path d="M140.131 113.805L131.865 113.033L131.591 119.963C132.957 120.341 134.4 120.337 135.764 119.951C137.128 119.566 138.361 118.814 139.328 117.778L140.131 113.805Z" fill="#FF8B7B"/>
<path d="M127.933 115.075L125.283 119.838L131.615 119.963L131.889 113.027L127.933 115.075Z" fill="#FF8B7B"/>
<path d="M181.68 89.6096C181.108 90.6993 180.598 91.6644 180.026 92.6606C179.454 93.6568 178.906 94.6281 178.315 95.5932C177.146 97.5358 175.933 99.4411 174.652 101.328C172.079 105.191 169.229 108.862 166.124 112.311C164.461 114.168 162.654 115.89 160.719 117.46C160.476 117.666 160.19 117.865 159.923 118.083C159.655 118.301 159.419 118.475 159.021 118.705C158.623 118.936 158.287 119.166 157.926 119.365C157.565 119.565 157.192 119.745 156.825 119.907C155.453 120.503 154.017 120.94 152.546 121.208C149.972 121.643 147.349 121.701 144.758 121.383C143.545 121.244 142.341 121.036 141.151 120.76C140.558 120.623 139.973 120.467 139.397 120.293C138.775 120.119 138.271 119.926 137.605 119.67L138.632 113.245C142.538 112.716 146.761 112.037 149.672 110.717C150.318 110.451 150.927 110.102 151.482 109.677C151.706 109.523 151.914 109.348 152.104 109.154C152.148 109.098 152.341 108.93 152.484 108.793C152.627 108.656 152.795 108.525 152.95 108.363C154.282 107.043 155.528 105.639 156.682 104.161C159.186 100.927 161.526 97.5686 163.692 94.0989C164.812 92.3368 165.9 90.5436 166.989 88.7442L168.594 86.042L170.142 83.3833L181.68 89.6096Z" fill="#9D3CFE"/>
<path d="M171.685 219.572H164.88L161.453 203.789H168.264L171.685 219.572Z" fill="#FF8B7B"/>
<path d="M164.501 218.115H172.152C172.285 218.12 172.412 218.167 172.517 218.25C172.621 218.333 172.696 218.447 172.73 218.576L174.074 224.64C174.106 224.788 174.104 224.94 174.068 225.087C174.033 225.233 173.965 225.37 173.869 225.486C173.773 225.603 173.652 225.696 173.515 225.758C173.378 225.821 173.229 225.852 173.078 225.848C170.41 225.805 169.11 225.649 165.745 225.649C163.674 225.649 161.018 225.861 158.163 225.861C155.308 225.861 154.928 223.034 156.098 222.779C161.347 221.627 161.696 220.045 163.394 218.532C163.698 218.261 164.093 218.112 164.501 218.115Z" fill="#263238"/>
<g opacity="0.2">
<path opacity="0.2" d="M168.27 203.795H161.453L163.356 212.531L170.037 211.927L168.27 203.795Z" fill="black"/>
</g>
<path d="M180.2 54.1382C182.688 60.4393 184.417 64.007 182.775 68.5834C180.287 75.4635 171.461 76.1608 167.169 70.719C163.312 65.8189 159.941 56.3361 164.811 51.1247C165.878 49.9693 167.222 49.1063 168.716 48.6177C170.21 48.1291 171.803 48.0311 173.346 48.3332C174.888 48.6352 176.327 49.3272 177.527 50.3432C178.727 51.3593 179.647 52.6657 180.2 54.1382Z" fill="#FF8B7B"/>
<path d="M168.245 63.5774C167.225 64.9472 166.442 65.987 166.442 65.987C166.442 65.987 164.346 60.7755 165.148 58.3846C164.128 56.3611 162.069 59.3435 161.292 55.4022C160.514 51.4609 163.879 47.227 165.148 46.3491C165.279 46.8083 165.337 47.2852 165.322 47.7625C168.751 44.9772 173.108 43.5995 177.513 43.9084C177.145 44.4564 176.911 45.0835 176.829 45.7389C176.829 45.7389 184.212 46.9842 185.892 51.1683C185.298 50.8845 184.671 50.6754 184.026 50.5456C185.379 52.4881 185.915 54.8855 185.518 57.2203C184.983 60.6252 184.704 64.0656 184.685 67.5124C184.753 69.2807 179.908 72.6616 176.953 69.0504C173.999 65.4391 168.245 63.5774 168.245 63.5774Z" fill="#263238"/>
<path d="M171.324 62.2201C171.709 63.6878 171.6 65.2417 171.013 66.6408C170.223 68.5087 168.599 68.0604 167.797 66.4291C167.069 64.9659 166.603 62.2512 167.89 60.9499C169.178 59.6486 170.839 60.4581 171.324 62.2201Z" fill="#FF8B7B"/>
<path d="M184.112 133.337C184.112 133.337 152.49 144.819 151.563 160.005C149.846 187.98 161.272 210.127 161.272 210.127L171.747 209.006C171.747 209.006 169.881 200.003 168.494 174.662C166.746 142.814 220.742 175.409 209.62 133.337H184.112Z" fill="#9D3CFE"/>
<path opacity="0.5" d="M184.112 133.337C184.112 133.337 152.49 144.819 151.563 160.005C149.846 187.98 161.272 210.127 161.272 210.127L171.747 209.006C171.747 209.006 169.881 200.003 168.494 174.662C166.746 142.814 220.742 175.409 209.62 133.337H184.112Z" fill="white"/>
<path d="M158.374 206.267C158.324 206.267 160.041 210.924 160.041 210.924L173.103 209.642L172.45 205.408L158.374 206.267Z" fill="#9D3CFE"/>
<path d="M142.271 220.344H135.46L133.469 204.561H140.28L142.271 220.344Z" fill="#FF8B7B"/>
<path d="M135.41 218.109H142.874C143.008 218.108 143.14 218.153 143.245 218.237C143.35 218.321 143.424 218.438 143.452 218.57L144.808 224.628C144.848 224.777 144.852 224.932 144.821 225.083C144.791 225.233 144.725 225.374 144.631 225.495C144.536 225.616 144.414 225.713 144.276 225.779C144.137 225.844 143.985 225.877 143.832 225.874C141.151 225.83 137.269 225.681 133.88 225.687C129.936 225.687 129.183 225.905 124.55 225.911C121.751 225.911 120.973 223.09 122.142 222.798C127.467 221.627 129.171 221.497 133.768 218.651C134.253 218.319 134.822 218.131 135.41 218.109Z" fill="#263238"/>
<path opacity="0.2" d="M133.475 204.567L134.557 213.165L141.312 212.705L140.286 204.567H133.475Z" fill="black"/>
<path d="M173.197 133.337C173.197 133.337 121.384 137.939 121.944 163.99C122.522 191.087 132.636 209.361 132.636 209.361H142.75C142.75 209.361 140.834 195.302 141.176 168.628C141.276 160.64 157.41 158 173.159 157.066C186.769 156.257 199.507 148.492 204.794 135.896L205.883 133.337H173.197Z" fill="#9D3CFE"/>
<path opacity="0.5" d="M173.197 133.337C173.197 133.337 121.384 137.939 121.944 163.99C122.522 191.087 132.636 209.361 132.636 209.361H142.75C142.75 209.361 140.834 195.302 141.176 168.628C141.276 160.64 157.41 158 173.159 157.066C186.769 156.257 199.507 148.492 204.794 135.896L205.883 133.337H173.197Z" fill="white"/>
<path d="M130.266 206.64C130.222 206.64 132.001 211.322 132.001 211.322L144.217 210.444L143.502 206.21L130.266 206.64Z" fill="#9D3CFE"/>
<path d="M186.799 104.061L180.225 129.421C178.543 135.918 177.695 142.603 177.699 149.314V161.101C177.699 164.077 179.889 166.493 182.594 166.493H216.294C219 166.493 221.189 164.077 221.189 161.101V149.314C221.187 142.603 222.038 135.918 223.721 129.421L229.524 107.006C230.42 103.563 228.069 100.157 224.816 100.157H191.501C190.396 100.192 189.333 100.595 188.481 101.302C187.63 102.009 187.038 102.98 186.799 104.061Z" fill="#263238"/>
<path d="M144.882 154.214L145.983 160.503C146.568 163.809 149.473 166.493 152.477 166.493H189.94C192.944 166.493 194.916 163.809 194.331 160.503L193.23 154.214C192.565 150.447 189.262 147.396 185.841 147.396H149.902C146.456 147.396 144.223 150.447 144.882 154.214Z" fill="#263238"/>
<path d="M193.548 172.806H173.924L172.008 166.486H195.464L193.548 172.806Z" fill="#9D3CFE"/>
<path d="M187.241 172.806H180.231V219.759H187.241V172.806Z" fill="#9D3CFE"/>
<path opacity="0.7" d="M187.241 219.759H180.231V173.933L187.241 174.649V219.759Z" fill="white"/>
<path opacity="0.7" d="M185.53 219.759H183.857V174.301L185.53 174.475V219.759Z" fill="white"/>
<path d="M199.855 227.019H167.61C167.422 227.017 167.239 226.956 167.088 226.845C166.936 226.733 166.824 226.577 166.766 226.398C166.708 226.219 166.708 226.026 166.766 225.847C166.824 225.668 166.936 225.511 167.088 225.4L172.201 221.664C174.658 219.862 177.625 218.89 180.672 218.887H186.799C189.844 218.89 192.808 219.863 195.264 221.664L200.383 225.4C200.535 225.512 200.648 225.669 200.706 225.848C200.763 226.028 200.763 226.221 200.704 226.401C200.645 226.58 200.532 226.737 200.379 226.847C200.227 226.958 200.043 227.018 199.855 227.019Z" fill="#9D3CFE"/>
</svg>
