<svg width="235" height="213" viewBox="0 0 235 213" fill="none" xmlns="http://www.w3.org/2000/svg">
<g clip-path="url(#clip0)">
<path d="M27.3566 170.81C12.6594 149.816 -20.9588 88.3835 46.8055 70.0281C114.57 51.6727 92.877 -0.760646 142.38 0.0113647C191.884 0.783375 240.469 42.4086 234.5 81.9079C228.532 121.407 174.214 118.267 159.029 159.074C143.844 199.881 53.2158 207.74 27.3566 170.81Z" fill="#79D900"/>
<path opacity="0.7" d="M27.3566 171.011C12.6594 150.017 -20.9588 88.585 46.8055 70.2295C114.57 51.8741 92.877 -0.559209 142.38 0.207041C191.884 0.97329 240.469 42.61 234.5 82.1093C228.532 121.609 174.242 118.469 159.029 159.27C143.815 200.071 53.2158 207.941 27.3566 171.011Z" fill="white"/>
<path d="M196.229 76.3023C198.649 75.7308 200.846 74.4516 202.542 72.6266L206.588 74.0035L208.602 70.4949L205.4 67.6661C206.119 65.2728 206.119 62.7196 205.4 60.3262L208.602 57.4975L206.588 53.9831L202.542 55.36C200.847 53.5346 198.65 52.257 196.229 51.6901L195.391 47.4844H193.371" stroke="#263238" stroke-miterlimit="10"/>
<path d="M191.338 47.4844L190.5 51.6901C188.08 52.2583 185.883 53.5357 184.187 55.36L180.17 53.9831L178.156 57.4975L181.358 60.3262C180.639 62.7196 180.639 65.2728 181.358 67.6661L178.139 70.4949L180.153 74.0035L184.17 72.6266C185.867 74.4505 188.063 75.7295 190.483 76.3023L191.321 80.5022H195.338L196.176 76.3023" stroke="#263238" stroke-miterlimit="10"/>
<path d="M193.113 70.7544C185.916 70.2474 184.568 59.7273 191.759 57.8779" stroke="#263238" stroke-miterlimit="10"/>
<path d="M197.652 59.3296C201.233 62.6193 200.102 69.0489 195.356 70.5007" stroke="#263238" stroke-miterlimit="10"/>
<path d="M194.207 57.7334C194.833 57.8079 195.445 57.9769 196.02 58.2346" stroke="#263238" stroke-miterlimit="10"/>
<path d="M217.67 79.5001L218.519 78.4804C220.101 78.9157 221.776 78.8736 223.334 78.3594L225.239 80.4277" stroke="#263238" stroke-miterlimit="10"/>
<path d="M214.531 63.5356L214.904 64.5439C213.738 65.7007 212.939 67.1781 212.609 68.7899L209.871 69.4179L209.934 72.0854L212.706 72.5693C212.913 73.3608 213.234 74.1178 213.659 74.8162C214.084 75.5146 214.61 76.1456 215.22 76.6886L214.388 79.3849L216.723 80.6582" stroke="#263238" stroke-miterlimit="10"/>
<path d="M225.238 80.4268L227.493 79.0326L226.529 76.3824C227.693 75.2243 228.492 73.7474 228.825 72.1364L231.562 71.5142L231.493 68.8467L228.727 68.3627C228.313 66.7704 227.438 65.3369 226.213 64.2434L227.046 61.5472L224.71 60.2739L222.902 62.4402C221.323 61.9991 219.648 62.0412 218.093 62.5611L216.182 60.4929L213.915 61.8871" stroke="#263238" stroke-miterlimit="10"/>
<path d="M224.901 69.4807C225.687 72.7876 222.554 75.9736 219.242 74.6312C216.086 73.3465 215.627 68.6971 218.56 66.9111" stroke="#263238" stroke-miterlimit="10"/>
<path d="M222.191 66.5083C222.851 66.7434 223.443 67.1393 223.913 67.6606" stroke="#263238" stroke-miterlimit="10"/>
<path d="M40.3037 134.975L44.6193 139.302C44.4362 140.075 44.4533 140.883 44.669 141.647C44.8847 142.412 45.2919 143.108 45.8517 143.67C46.4115 144.232 47.1053 144.641 47.867 144.858C48.6287 145.074 49.433 145.091 50.2032 144.908L47.4945 142.194L48.2291 139.44L50.9665 138.703L53.6752 141.422C53.8584 140.649 53.8413 139.841 53.6255 139.077C53.4098 138.312 53.0027 137.616 52.4429 137.054C51.8831 136.492 51.1892 136.083 50.4275 135.866C49.6658 135.65 48.8615 135.633 48.0913 135.816L44.12 131.83" stroke="#263238" stroke-miterlimit="10"/>
<path d="M37.8141 125.515L33.86 121.546C34.0355 120.774 34.0125 119.97 33.7933 119.21C33.574 118.449 33.1656 117.757 32.6066 117.199C32.0476 116.641 31.3563 116.234 30.5977 116.018C29.8391 115.802 29.0383 115.783 28.2704 115.963L30.9791 118.683L30.2446 121.431L27.5071 122.168L24.7984 119.42C24.617 120.194 24.6355 121.001 24.8522 121.766C25.0688 122.53 25.4764 123.227 26.0363 123.789C26.5962 124.351 27.2898 124.76 28.0514 124.977C28.813 125.195 29.6173 125.214 30.388 125.031L34.3421 129.001" stroke="#263238" stroke-miterlimit="10"/>
<path d="M42.255 129.692L47.77 124.155C48.0423 123.884 48.3538 123.654 48.6939 123.476L49.8015 122.899L53.8187 118.29L51.3108 115.813L46.7198 119.846L46.1459 120.958C45.9711 121.301 45.7425 121.615 45.4687 121.885L41.0957 126.281" stroke="#263238" stroke-miterlimit="10"/>
<path d="M27.5746 144.194C27.949 144.432 28.3958 144.53 28.8352 144.469C29.2746 144.408 29.678 144.192 29.9735 143.859L39.5287 134.267C39.7569 134.061 39.9292 133.8 40.0296 133.509C40.13 133.218 40.1551 132.906 40.1025 132.602L41.7611 130.937L41.8644 131.035C41.921 131.093 41.9884 131.138 42.0628 131.17C42.1372 131.201 42.217 131.217 42.2977 131.217C42.3783 131.217 42.4581 131.201 42.5325 131.17C42.6069 131.138 42.6743 131.093 42.7309 131.035C42.8442 130.919 42.9076 130.762 42.9076 130.6C42.9076 130.437 42.8442 130.281 42.7309 130.165L39.4598 126.881C39.3441 126.766 39.1875 126.701 39.0245 126.702C38.8614 126.702 38.7053 126.768 38.5904 126.884C38.4754 127 38.4112 127.157 38.4117 127.321C38.4123 127.485 38.4776 127.641 38.5932 127.757L38.6965 127.855L37.038 129.52C36.7356 129.466 36.4246 129.491 36.1344 129.592C35.8442 129.693 35.5844 129.866 35.3795 130.096L25.8358 139.729C25.6161 139.925 25.4463 140.171 25.3405 140.447C25.2346 140.722 25.1959 141.019 25.2275 141.313" stroke="#263238" stroke-miterlimit="10"/>
<path d="M25.6133 142.326C25.8373 142.685 26.1032 143.016 26.4052 143.311C26.7418 143.668 27.1285 143.972 27.553 144.216" stroke="#263238" stroke-miterlimit="10"/>
<path d="M28.5518 141.306L30.2218 139.63" stroke="#263238" stroke-miterlimit="10"/>
<path d="M32.4766 137.366L39.5354 130.13" stroke="#263238" stroke-miterlimit="10"/>
<path d="M186.496 15.0024H33.498V114.788H186.496V15.0024Z" fill="white"/>
<path d="M186.496 15.0024H33.498V114.788H49.6759H75.3228H186.496V15.0024Z" fill="#BFBFBF"/>
<path d="M186.496 15.0024H33.498V28.0575H186.496V15.0024Z" fill="white"/>
<path d="M186.496 15.0024H33.498V28.0575H186.496V15.0024Z" fill="#757575"/>
<path d="M181.807 17.0825H175.954C175.123 17.0825 174.45 17.7583 174.45 18.592V24.4685C174.45 25.3021 175.123 25.9779 175.954 25.9779H181.807C182.638 25.9779 183.311 25.3021 183.311 24.4685V18.592C183.311 17.7583 182.638 17.0825 181.807 17.0825Z" fill="white"/>
<path d="M170.938 17.0825H165.108C164.271 17.0825 163.593 17.7635 163.593 18.6035V24.457C163.593 25.297 164.271 25.9779 165.108 25.9779H170.938C171.775 25.9779 172.454 25.297 172.454 24.457V18.6035C172.454 17.7635 171.775 17.0825 170.938 17.0825Z" fill="white"/>
<path d="M160.085 17.0825H154.231C153.401 17.0825 152.728 17.7583 152.728 18.592V24.4685C152.728 25.3021 153.401 25.9779 154.231 25.9779H160.085C160.915 25.9779 161.588 25.3021 161.588 24.4685V18.592C161.588 17.7583 160.915 17.0825 160.085 17.0825Z" fill="white"/>
<path d="M177.761 33.8184H42.232C40.5775 33.8184 39.2363 35.1648 39.2363 36.8257V106.019C39.2363 107.68 40.5775 109.026 42.232 109.026H177.761C179.415 109.026 180.756 107.68 180.756 106.019V36.8257C180.756 35.1648 179.415 33.8184 177.761 33.8184Z" fill="#263238" stroke="#263238" stroke-linecap="round" stroke-linejoin="round"/>
<path d="M176.981 23.4369L180.781 19.6172" stroke="#263238" stroke-linecap="round" stroke-linejoin="round"/>
<path d="M176.981 19.6172L180.781 23.4369" stroke="#263238" stroke-linecap="round" stroke-linejoin="round"/>
<path d="M170.552 20.7119H165.484V24.0707H170.552V20.7119Z" stroke="#263238" stroke-linecap="round" stroke-linejoin="round"/>
<path d="M159.694 24.0703H154.627" stroke="#263238" stroke-linecap="round" stroke-linejoin="round"/>
<path d="M171.861 84.9442H161.801C161.497 84.9442 161.205 84.8228 160.989 84.6067C160.774 84.3906 160.653 84.0975 160.653 83.7919C160.653 83.4863 160.774 83.1932 160.989 82.9771C161.205 82.761 161.497 82.6396 161.801 82.6396H171.861C172.166 82.6396 172.458 82.761 172.673 82.9771C172.888 83.1932 173.009 83.4863 173.009 83.7919C173.009 84.0975 172.888 84.3906 172.673 84.6067C172.458 84.8228 172.166 84.9442 171.861 84.9442Z" fill="#757575"/>
<path d="M171.862 92.9178H143.782C143.477 92.9178 143.185 92.7964 142.97 92.5803C142.755 92.3642 142.634 92.0711 142.634 91.7655C142.634 91.4599 142.755 91.1669 142.97 90.9508C143.185 90.7347 143.477 90.6133 143.782 90.6133H171.862C172.166 90.6133 172.458 90.7347 172.673 90.9508C172.889 91.1669 173.009 91.4599 173.009 91.7655C173.009 92.0711 172.889 92.3642 172.673 92.5803C172.458 92.7964 172.166 92.9178 171.862 92.9178Z" fill="#757575"/>
<path d="M171.86 100.886H109.995C109.691 100.886 109.399 100.765 109.184 100.549C108.969 100.332 108.848 100.039 108.848 99.7338C108.848 99.4282 108.969 99.1351 109.184 98.919C109.399 98.7029 109.691 98.5815 109.995 98.5815H171.86C172.165 98.5815 172.457 98.7029 172.672 98.919C172.887 99.1351 173.008 99.4282 173.008 99.7338C173.008 100.039 172.887 100.332 172.672 100.549C172.457 100.765 172.165 100.886 171.86 100.886Z" fill="#757575"/>
<path d="M49.855 76.9764H45.1663C44.8619 76.9764 44.57 76.855 44.3547 76.6389C44.1395 76.4228 44.0186 76.1297 44.0186 75.8241C44.0186 75.5185 44.1395 75.2255 44.3547 75.0094C44.57 74.7933 44.8619 74.6719 45.1663 74.6719H49.855C50.1594 74.6719 50.4513 74.7933 50.6666 75.0094C50.8818 75.2255 51.0027 75.5185 51.0027 75.8241C51.0027 76.1297 50.8818 76.4228 50.6666 76.6389C50.4513 76.855 50.1594 76.9764 49.855 76.9764Z" fill="#BFBFBF"/>
<path d="M49.855 84.9442H45.1663C44.8619 84.9442 44.57 84.8228 44.3547 84.6067C44.1395 84.3906 44.0186 84.0975 44.0186 83.7919C44.0186 83.4863 44.1395 83.1932 44.3547 82.9771C44.57 82.761 44.8619 82.6396 45.1663 82.6396H49.855C50.1594 82.6396 50.4513 82.761 50.6666 82.9771C50.8818 83.1932 51.0027 83.4863 51.0027 83.7919C51.0027 84.0975 50.8818 84.3906 50.6666 84.6067C50.4513 84.8228 50.1594 84.9442 49.855 84.9442Z" fill="#BFBFBF"/>
<path d="M49.855 92.9178H45.1663C44.8619 92.9178 44.57 92.7964 44.3547 92.5803C44.1395 92.3642 44.0186 92.0711 44.0186 91.7655C44.0186 91.4599 44.1395 91.1669 44.3547 90.9508C44.57 90.7347 44.8619 90.6133 45.1663 90.6133H49.855C50.1594 90.6133 50.4513 90.7347 50.6666 90.9508C50.8818 91.1669 51.0027 91.4599 51.0027 91.7655C51.0027 92.0711 50.8818 92.3642 50.6666 92.5803C50.4513 92.7964 50.1594 92.9178 49.855 92.9178Z" fill="#BFBFBF"/>
<path d="M49.855 100.886H45.1663C44.8619 100.886 44.57 100.765 44.3547 100.549C44.1395 100.332 44.0186 100.039 44.0186 99.7338C44.0186 99.4282 44.1395 99.1351 44.3547 98.919C44.57 98.7029 44.8619 98.5815 45.1663 98.5815H49.855C50.1594 98.5815 50.4513 98.7029 50.6666 98.919C50.8818 99.1351 51.0027 99.4282 51.0027 99.7338C51.0027 100.039 50.8818 100.332 50.6666 100.549C50.4513 100.765 50.1594 100.886 49.855 100.886Z" fill="#BFBFBF"/>
<g opacity="0.7">
<path opacity="0.7" d="M49.855 76.9764H45.1663C44.8619 76.9764 44.57 76.855 44.3547 76.6389C44.1395 76.4228 44.0186 76.1297 44.0186 75.8241C44.0186 75.5185 44.1395 75.2255 44.3547 75.0094C44.57 74.7933 44.8619 74.6719 45.1663 74.6719H49.855C50.1594 74.6719 50.4513 74.7933 50.6666 75.0094C50.8818 75.2255 51.0027 75.5185 51.0027 75.8241C51.0027 76.1297 50.8818 76.4228 50.6666 76.6389C50.4513 76.855 50.1594 76.9764 49.855 76.9764Z" fill="#BFBFBF"/>
</g>
<g opacity="0.7">
<path opacity="0.7" d="M49.855 84.9442H45.1663C44.8619 84.9442 44.57 84.8228 44.3547 84.6067C44.1395 84.3906 44.0186 84.0975 44.0186 83.7919C44.0186 83.4863 44.1395 83.1932 44.3547 82.9771C44.57 82.761 44.8619 82.6396 45.1663 82.6396H49.855C50.1594 82.6396 50.4513 82.761 50.6666 82.9771C50.8818 83.1932 51.0027 83.4863 51.0027 83.7919C51.0027 84.0975 50.8818 84.3906 50.6666 84.6067C50.4513 84.8228 50.1594 84.9442 49.855 84.9442Z" fill="#BFBFBF"/>
</g>
<g opacity="0.7">
<path opacity="0.7" d="M49.855 92.9178H45.1663C44.8619 92.9178 44.57 92.7964 44.3547 92.5803C44.1395 92.3642 44.0186 92.0711 44.0186 91.7655C44.0186 91.4599 44.1395 91.1669 44.3547 90.9508C44.57 90.7347 44.8619 90.6133 45.1663 90.6133H49.855C50.1594 90.6133 50.4513 90.7347 50.6666 90.9508C50.8818 91.1669 51.0027 91.4599 51.0027 91.7655C51.0027 92.0711 50.8818 92.3642 50.6666 92.5803C50.4513 92.7964 50.1594 92.9178 49.855 92.9178Z" fill="#BFBFBF"/>
</g>
<g opacity="0.7">
<path opacity="0.7" d="M49.855 100.886H45.1663C44.8619 100.886 44.57 100.765 44.3547 100.549C44.1395 100.332 44.0186 100.039 44.0186 99.7338C44.0186 99.4282 44.1395 99.1351 44.3547 98.919C44.57 98.7029 44.8619 98.5815 45.1663 98.5815H49.855C50.1594 98.5815 50.4513 98.7029 50.6666 98.919C50.8818 99.1351 51.0027 99.4282 51.0027 99.7338C51.0027 100.039 50.8818 100.332 50.6666 100.549C50.4513 100.765 50.1594 100.886 49.855 100.886Z" fill="#BFBFBF"/>
</g>
<path d="M143.783 69.0028H45.1663C44.8619 69.0028 44.57 68.8814 44.3547 68.6653C44.1395 68.4492 44.0186 68.1561 44.0186 67.8505C44.0186 67.5449 44.1395 67.2518 44.3547 67.0357C44.57 66.8196 44.8619 66.6982 45.1663 66.6982H143.783C144.087 66.6982 144.379 66.8196 144.594 67.0357C144.81 67.2518 144.93 67.5449 144.93 67.8505C144.93 68.1561 144.81 68.4492 144.594 68.6653C144.379 68.8814 144.087 69.0028 143.783 69.0028Z" fill="#BFBFBF"/>
<path d="M171.861 53.0672H161.801C161.497 53.0672 161.205 52.9458 160.989 52.7297C160.774 52.5136 160.653 52.2205 160.653 51.915C160.653 51.6094 160.774 51.3163 160.989 51.1002C161.205 50.8841 161.497 50.7627 161.801 50.7627H171.861C172.166 50.7627 172.458 50.8841 172.673 51.1002C172.888 51.3163 173.009 51.6094 173.009 51.915C173.009 52.2205 172.888 52.5136 172.673 52.7297C172.458 52.9458 172.166 53.0672 171.861 53.0672Z" fill="#BFBFBF"/>
<path d="M157.594 53.0672H147.988C147.683 53.0672 147.391 52.9458 147.176 52.7297C146.961 52.5136 146.84 52.2205 146.84 51.915C146.84 51.6094 146.961 51.3163 147.176 51.1002C147.391 50.8841 147.683 50.7627 147.988 50.7627H157.594C157.899 50.7627 158.191 50.8841 158.406 51.1002C158.621 51.3163 158.742 51.6094 158.742 51.915C158.742 52.2205 158.621 52.5136 158.406 52.7297C158.191 52.9458 157.899 53.0672 157.594 53.0672Z" fill="#BFBFBF"/>
<path d="M143.783 53.0672H45.1663C44.8619 53.0672 44.57 52.9458 44.3547 52.7297C44.1395 52.5136 44.0186 52.2205 44.0186 51.915C44.0186 51.6094 44.1395 51.3163 44.3547 51.1002C44.57 50.8841 44.8619 50.7627 45.1663 50.7627H143.783C144.087 50.7627 144.379 50.8841 144.594 51.1002C144.81 51.3163 144.93 51.6094 144.93 51.915C144.93 52.2205 144.81 52.5136 144.594 52.7297C144.379 52.9458 144.087 53.0672 143.783 53.0672Z" fill="#BFBFBF"/>
<path d="M171.861 76.9764H161.801C161.497 76.9764 161.205 76.855 160.989 76.6389C160.774 76.4228 160.653 76.1297 160.653 75.8241C160.653 75.5185 160.774 75.2255 160.989 75.0094C161.205 74.7933 161.497 74.6719 161.801 74.6719H171.861C172.166 74.6719 172.458 74.7933 172.673 75.0094C172.888 75.2255 173.009 75.5185 173.009 75.8241C173.009 76.1297 172.888 76.4228 172.673 76.6389C172.458 76.855 172.166 76.9764 171.861 76.9764Z" fill="#999999"/>
<path d="M157.595 76.9764H55.0189C54.7145 76.9764 54.4225 76.855 54.2073 76.6389C53.992 76.4228 53.8711 76.1297 53.8711 75.8241C53.8711 75.5185 53.992 75.2255 54.2073 75.0094C54.4225 74.7933 54.7145 74.6719 55.0189 74.6719H157.595C157.899 74.6719 158.191 74.7933 158.407 75.0094C158.622 75.2255 158.743 75.5185 158.743 75.8241C158.743 76.1297 158.622 76.4228 158.407 76.6389C158.191 76.855 157.899 76.9764 157.595 76.9764Z" fill="#999999"/>
<path d="M84.4764 84.9442H55.0189C54.7145 84.9442 54.4225 84.8228 54.2073 84.6067C53.992 84.3906 53.8711 84.0975 53.8711 83.7919C53.8711 83.4863 53.992 83.1932 54.2073 82.9771C54.4225 82.761 54.7145 82.6396 55.0189 82.6396H84.4764C84.7808 82.6396 85.0727 82.761 85.2879 82.9771C85.5032 83.1932 85.6241 83.4863 85.6241 83.7919C85.6241 84.0975 85.5032 84.3906 85.2879 84.6067C85.0727 84.8228 84.7808 84.9442 84.4764 84.9442Z" fill="#999999"/>
<path d="M84.4764 92.9178H55.0189C54.7145 92.9178 54.4225 92.7964 54.2073 92.5803C53.992 92.3642 53.8711 92.0711 53.8711 91.7655C53.8711 91.4599 53.992 91.1669 54.2073 90.9508C54.4225 90.7347 54.7145 90.6133 55.0189 90.6133H84.4764C84.7808 90.6133 85.0727 90.7347 85.2879 90.9508C85.5032 91.1669 85.6241 91.4599 85.6241 91.7655C85.6241 92.0711 85.5032 92.3642 85.2879 92.5803C85.0727 92.7964 84.7808 92.9178 84.4764 92.9178Z" fill="#999999"/>
<path d="M84.4764 100.886H55.0189C54.7145 100.886 54.4225 100.765 54.2073 100.549C53.992 100.332 53.8711 100.039 53.8711 99.7338C53.8711 99.4282 53.992 99.1351 54.2073 98.919C54.4225 98.7029 54.7145 98.5815 55.0189 98.5815H84.4764C84.7808 98.5815 85.0727 98.7029 85.2879 98.919C85.5032 99.1351 85.6241 99.4282 85.6241 99.7338C85.6241 100.039 85.5032 100.332 85.2879 100.549C85.0727 100.765 84.7808 100.886 84.4764 100.886Z" fill="#999999"/>
<path d="M65.1316 203.096C65.1316 203.096 62.1244 208.282 63.3066 208.483C64.4888 208.685 66.9737 204.174 66.9737 204.174L73.7743 202.382L68.6495 201.852L65.1316 203.096Z" fill="white" stroke="#263238" stroke-linecap="round" stroke-linejoin="round"/>
<path opacity="0.3" d="M65.1316 203.096C65.1316 203.096 62.1244 208.282 63.3066 208.483C64.4888 208.685 66.9737 204.174 66.9737 204.174L73.7743 202.382L68.6495 201.852L65.1316 203.096Z" fill="black" stroke="#263238" stroke-linecap="round" stroke-linejoin="round"/>
<path d="M67.4198 199.547C67.4198 199.547 63.2075 198.545 62.0483 200.526C60.889 202.508 57.4572 208.391 58.7542 209.059C60.0511 209.727 61.1473 207.561 61.1473 207.561L67.4198 199.547Z" fill="white" stroke="#263238" stroke-linecap="round" stroke-linejoin="round"/>
<path d="M84.6501 205.574C81.8874 206.533 78.9428 206.844 76.0418 206.484L71.2499 208.086C71.2499 208.086 67.0376 210.166 65.0749 209.117C63.1122 208.069 70.0677 205.753 70.0677 205.753C70.0677 205.753 74.7448 203.719 73.3503 203.229C71.9557 202.74 66.676 202.837 65.643 203.633C64.61 204.428 61.8841 209.607 59.9042 209.307C57.9243 209.008 60.7306 206.196 61.4364 205.113C62.1423 204.03 63.732 199.709 66.9228 199.525C70.1136 199.34 80.9084 199.899 80.9084 199.899L93.5855 198.54L96.5754 205.782L84.6501 205.574Z" fill="white" stroke="#263238" stroke-linecap="round" stroke-linejoin="round"/>
<path d="M91.2648 207.365C91.6181 207.62 92.0436 207.754 92.4785 207.748C92.9134 207.742 93.3349 207.596 93.6808 207.331C94.0628 207.494 94.4843 207.541 94.8926 207.465C95.3009 207.389 95.6779 207.194 95.9764 206.905C96.9003 205.885 96.9807 196.938 94.4211 195.929C93.6808 195.641 91.8329 195.67 91.5517 196.707C91.3545 196.627 91.1412 196.594 90.9291 196.612C90.7171 196.63 90.5122 196.698 90.3311 196.81C90.15 196.922 89.9977 197.076 89.8868 197.258C89.7758 197.44 89.7092 197.646 89.6924 197.859C89.4398 199.472 91.0352 200.976 90.5015 205.614C90.4551 205.948 90.5019 206.289 90.6367 206.598C90.7714 206.907 90.9888 207.173 91.2648 207.365Z" fill="#79D900" stroke="#263238" stroke-linecap="round" stroke-linejoin="round"/>
<path opacity="0.3" d="M91.2648 207.365C91.6181 207.62 92.0436 207.754 92.4785 207.748C92.9134 207.742 93.3349 207.596 93.6808 207.331C94.0628 207.494 94.4843 207.541 94.8926 207.465C95.3009 207.389 95.6779 207.194 95.9764 206.905C96.9003 205.885 96.9807 196.938 94.4211 195.929C93.6808 195.641 91.8329 195.67 91.5517 196.707C91.3545 196.627 91.1412 196.594 90.9291 196.612C90.7171 196.63 90.5122 196.698 90.3311 196.81C90.15 196.922 89.9977 197.076 89.8868 197.258C89.7758 197.44 89.7092 197.646 89.6924 197.859C89.4398 199.472 91.0352 200.976 90.5015 205.614C90.4551 205.948 90.5019 206.289 90.6367 206.598C90.7714 206.907 90.9888 207.173 91.2648 207.365Z" fill="black" stroke="#263238" stroke-linecap="round" stroke-linejoin="round"/>
<path d="M94.1908 205.263C94.1879 202.826 93.6716 200.417 92.6758 198.194" stroke="#263238" stroke-linecap="round" stroke-linejoin="round"/>
<path d="M154.524 202.031C154.1 205.309 153.618 208.858 153.067 212.712H103.804L104.04 206.34C101.096 207.055 95.374 206.617 95.374 206.617V197.197C98.8518 195.221 99.3912 195.774 99.3912 195.774C99.3912 195.774 99.5691 172.787 101.652 167.048C102.447 164.888 103.866 163.014 105.727 161.667C106.223 161.297 106.742 160.96 107.282 160.659L107.357 160.613C107.931 160.308 108.625 159.985 109.417 159.651L109.635 159.564C117.348 156.401 134.18 152.732 149.864 159.461C150.961 159.933 159.913 164.225 160.676 170.407C161.09 173.962 158.691 191.557 154.524 202.031Z" fill="#79D900"/>
<path opacity="0.2" d="M146.72 173.69L141.807 196.58C141.044 195.975 138.846 195.935 136.068 196.2C136.672 195.533 137.173 194.78 137.555 193.964C144.964 177.833 146.576 174.013 146.72 173.69Z" fill="black"/>
<path opacity="0.2" d="M155.696 198.839C154.5 203.396 153.622 208.032 153.068 212.712H103.806L104.259 205.372C107.329 204.934 112.718 204.485 118.313 203.488C118.743 205.246 118.788 207.075 118.445 208.852C118.445 208.852 141.102 211.675 148.706 209.837C150.876 209.313 152.838 206.271 154.52 202.082C154.927 201.063 155.318 199.974 155.696 198.839Z" fill="black"/>
<path opacity="0.3" d="M99.9602 196.206C99.9602 196.206 98.8526 195.22 95.3691 197.197V206.616C95.3691 206.616 101.108 206.415 103.358 205.187C105.297 206.392 104.953 184.343 105.297 172.469C102.485 173.247 102.261 178.617 101.825 183.669C101.465 187.883 100.842 192.07 99.9602 196.206Z" fill="black"/>
<path d="M154.524 202.031C154.1 205.309 153.618 208.858 153.067 212.712H103.804L104.04 206.34C101.096 207.055 95.374 206.617 95.374 206.617V197.197C98.8518 195.221 99.3912 195.774 99.3912 195.774C99.3912 195.774 99.5691 172.787 101.652 167.048C102.447 164.888 103.866 163.014 105.727 161.667V161.667C106.223 161.297 106.742 160.96 107.282 160.659L107.357 160.613C107.931 160.308 108.625 159.985 109.417 159.651L109.635 159.564C117.348 156.401 134.18 152.732 149.864 159.461C150.961 159.933 159.913 164.225 160.676 170.407C161.09 173.962 158.691 191.557 154.524 202.031Z" stroke="#263238" stroke-linecap="round" stroke-linejoin="round"/>
<path d="M160.654 170.425C160.654 170.563 160.689 170.724 160.694 170.903C160.947 175.328 158.548 192.024 154.519 202.083C152.838 206.271 150.875 209.313 148.706 209.838C141.102 211.676 118.445 208.852 118.445 208.852C119.036 205.731 118.432 202.5 116.752 199.807C116.752 199.807 138.996 194.346 141.808 196.581L146.732 173.668" stroke="#263238" stroke-linecap="round" stroke-linejoin="round"/>
<path d="M143.357 197.831C144.943 198.596 146.302 199.764 147.3 201.218" stroke="#263238" stroke-linecap="round" stroke-linejoin="round"/>
<path d="M86.6908 198.649C86.6908 198.649 84.6134 198.211 83.7698 199.162C82.9262 200.112 79.3107 205.563 80.5331 206.6C81.7554 207.637 84.2404 201.939 84.2404 201.939L86.6908 198.649Z" fill="white" stroke="#263238" stroke-linecap="round" stroke-linejoin="round"/>
<path d="M90.8572 198.551C90.8572 198.551 86.2661 197.56 85.2159 198.971C84.1657 200.383 78.3752 207.688 81.9906 207.919L87.7295 201.42L90.8572 198.551Z" fill="white" stroke="#263238" stroke-linecap="round" stroke-linejoin="round"/>
<path d="M101.268 206.317C101.268 206.317 96.5331 207.354 94.6106 207.734C92.6881 208.114 89.1185 210.615 87.0066 209.618C84.8947 208.621 93.8932 204.951 93.8932 204.951L96.9922 203.701L101.268 206.317Z" fill="#BFBFBF" stroke="#263238" stroke-linecap="round" stroke-linejoin="round"/>
<path d="M105.1 177.879C105.168 176.076 105.232 174.273 105.3 172.469" stroke="#263238" stroke-linecap="round" stroke-linejoin="round"/>
<path d="M103.806 212.712C104.684 201.806 105.011 180.334 105.011 180.334" stroke="#263238" stroke-linecap="round" stroke-linejoin="round"/>
<path d="M118.456 200.435H102.118C102.118 200.435 89.4463 196.615 87.3402 199.582C85.234 202.549 80.7233 207.072 81.9916 207.919C83.2599 208.765 88.6142 202.624 88.6142 202.624L93.2627 202.664C93.2627 202.664 89.3201 204.393 88.4765 205.234C87.6329 206.075 85.8022 208.483 86.7548 208.91C87.7075 209.336 90.8409 206.225 90.8409 206.225C90.8409 206.225 95.4836 205.073 96.6084 205.649C100.218 207.503 104.393 207.915 108.293 206.801L120.752 208.356L118.456 200.435Z" fill="white" stroke="#263238" stroke-linecap="round" stroke-linejoin="round"/>
<path d="M145.027 181.601C144.577 178.978 144.559 176.297 144.975 173.668" stroke="#263238" stroke-linecap="round" stroke-linejoin="round"/>
<path d="M148.728 167.861C148.728 167.861 156.647 157.387 160.653 170.425" stroke="#263238" stroke-linecap="round" stroke-linejoin="round"/>
<path d="M115.094 199.138C115.374 198.804 115.753 198.567 116.176 198.464C116.599 198.36 117.044 198.395 117.447 198.562C117.776 198.307 118.173 198.156 118.587 198.128C119.002 198.099 119.416 198.194 119.777 198.401C120.924 199.161 123.22 207.803 120.987 209.422C120.345 209.883 118.548 210.315 117.998 209.388C117.825 209.515 117.625 209.6 117.414 209.635C117.203 209.67 116.987 209.655 116.783 209.59C116.579 209.526 116.393 209.414 116.24 209.263C116.087 209.113 115.971 208.929 115.903 208.725C115.26 207.221 116.437 205.372 114.755 201.011C114.636 200.697 114.605 200.357 114.664 200.027C114.724 199.697 114.872 199.39 115.094 199.138Z" fill="#79D900"/>
<path opacity="0.3" d="M115.094 199.138C115.374 198.804 115.753 198.567 116.176 198.464C116.599 198.36 117.044 198.395 117.447 198.562C117.776 198.307 118.173 198.156 118.587 198.128C119.002 198.099 119.416 198.194 119.777 198.401C120.924 199.161 123.22 207.803 120.987 209.422C120.345 209.883 118.548 210.315 117.998 209.388C117.825 209.515 117.625 209.6 117.414 209.635C117.203 209.67 116.987 209.655 116.783 209.59C116.579 209.526 116.393 209.414 116.24 209.263C116.087 209.113 115.971 208.929 115.903 208.725C115.26 207.221 116.437 205.372 114.755 201.011C114.636 200.697 114.605 200.357 114.664 200.027C114.724 199.697 114.872 199.39 115.094 199.138Z" fill="black"/>
<path d="M115.094 199.138C115.374 198.804 115.753 198.567 116.176 198.464C116.599 198.36 117.044 198.395 117.447 198.562C117.776 198.307 118.173 198.156 118.587 198.128C119.002 198.099 119.416 198.194 119.777 198.401C120.924 199.161 123.22 207.803 120.987 209.422C120.345 209.883 118.548 210.315 117.998 209.388C117.825 209.515 117.625 209.6 117.414 209.635C117.203 209.67 116.987 209.655 116.783 209.59C116.579 209.526 116.393 209.414 116.24 209.263C116.087 209.113 115.971 208.929 115.903 208.725C115.26 207.221 116.437 205.372 114.755 201.011C114.636 200.697 114.605 200.357 114.664 200.027C114.724 199.697 114.872 199.39 115.094 199.138V199.138Z" stroke="#263238" stroke-linecap="round" stroke-linejoin="round"/>
<path d="M118.722 203.626C118.924 204.962 118.94 206.319 118.768 207.659" stroke="#263238" stroke-linecap="round" stroke-linejoin="round"/>
<path d="M125.917 177.753C125.906 177.975 125.829 178.188 125.696 178.366C125.563 178.544 125.381 178.679 125.172 178.753C124.963 178.827 124.737 178.837 124.523 178.782C124.308 178.727 124.115 178.609 123.967 178.444C123.819 178.278 123.723 178.073 123.692 177.852C123.661 177.632 123.695 177.408 123.791 177.207C123.886 177.007 124.039 176.84 124.23 176.726C124.42 176.613 124.64 176.559 124.861 176.572C125.155 176.595 125.428 176.731 125.624 176.95C125.821 177.17 125.926 177.457 125.917 177.753Z" fill="white" stroke="#263238" stroke-linecap="round" stroke-linejoin="round"/>
<path d="M125.09 195.152C125.076 195.372 124.997 195.583 124.864 195.759C124.731 195.934 124.549 196.066 124.341 196.138C124.133 196.21 123.909 196.218 123.696 196.162C123.484 196.106 123.292 195.988 123.146 195.823C123 195.658 122.906 195.454 122.876 195.235C122.846 195.017 122.88 194.794 122.976 194.595C123.071 194.397 123.223 194.231 123.413 194.119C123.602 194.006 123.82 193.953 124.039 193.965C124.335 193.983 124.612 194.118 124.809 194.34C125.006 194.563 125.107 194.855 125.09 195.152Z" fill="white" stroke="#263238" stroke-linecap="round" stroke-linejoin="round"/>
<path d="M135.34 156.447L134.525 144.838L122.554 147.65L121.9 156.943C121.148 157.035 120.43 157.144 119.725 157.248L122.651 164.294L128.39 165.049L137.538 156.586C136.821 156.528 136.063 156.482 135.34 156.447Z" fill="white"/>
<path d="M122.375 151.729C122.455 159.991 132.068 157.456 134.731 149.205L134.518 144.838L122.553 147.65L122.375 151.729Z" fill="#263238"/>
<path d="M135.34 156.447L134.525 144.838L122.554 147.65L121.9 156.943C121.148 157.035 120.43 157.144 119.725 157.248L122.651 164.294L128.39 165.049L137.538 156.586C136.821 156.528 136.063 156.482 135.34 156.447Z" stroke="#263238" stroke-linecap="round" stroke-linejoin="round"/>
<path d="M115.048 135.039C115.048 135.039 110.675 127.446 110.032 123.442C108.029 111.072 116.919 115.243 116.919 115.243C116.919 115.243 123.232 109.591 131.042 110.582C138.853 111.573 140.942 114.921 146.216 116.977C146.216 116.977 142.256 137.142 137.188 141.67C132.121 146.199 115.048 135.039 115.048 135.039Z" fill="#263238" stroke="#263238" stroke-linecap="round" stroke-linejoin="round"/>
<path d="M117.349 117.081C117.349 117.081 115.381 112.276 120.374 108.606" stroke="#263238" stroke-linecap="round" stroke-linejoin="round"/>
<path d="M125.947 114.194C131.795 111.602 134.406 115.923 140.931 117.075" stroke="#BFBFBF" stroke-miterlimit="10"/>
<path d="M121.429 117.081C121.96 116.409 122.603 115.834 123.328 115.381" stroke="#BFBFBF" stroke-miterlimit="10"/>
<path d="M127.433 118.965C127.433 118.965 129.963 116.528 134.985 119.697C136.5 120.699 138.206 121.373 139.995 121.679" stroke="#BFBFBF" stroke-miterlimit="10"/>
<path d="M135.166 124.242C127.889 124.432 120.371 121.131 120.371 121.131C113.588 125.239 114.598 131.916 114.598 131.916C116.148 147.875 118.242 152.126 125.668 152.126C133.094 152.126 139.132 144.061 139.619 132.567C136.819 132.699 135.166 124.242 135.166 124.242Z" fill="white" stroke="#263238" stroke-linecap="round" stroke-linejoin="round"/>
<path d="M138.996 131.916C139.162 131.668 139.384 131.463 139.643 131.316C139.902 131.169 140.191 131.085 140.488 131.069C141.808 131.069 142.784 132.797 142.319 134.958C141.854 137.118 141.246 138.841 139.926 138.841C139.624 138.83 139.333 138.727 139.091 138.546C138.849 138.365 138.668 138.114 138.571 137.827" fill="white"/>
<path d="M138.996 131.916C139.162 131.668 139.384 131.463 139.643 131.316C139.902 131.169 140.191 131.085 140.488 131.069C141.808 131.069 142.784 132.797 142.319 134.958C141.854 137.118 141.246 138.841 139.926 138.841C139.624 138.83 139.333 138.727 139.091 138.546C138.849 138.365 138.668 138.114 138.571 137.827" stroke="#263238" stroke-linecap="round" stroke-linejoin="round"/>
<path d="M124.529 139.752C124.529 139.752 125.419 140.973 123.715 141.889C122.01 142.805 120.656 142.788 120.22 141.739C119.783 140.691 121.677 131.945 121.677 131.945" stroke="#263238" stroke-linecap="round" stroke-linejoin="round"/>
<path d="M121.39 133.345C120.472 132.878 116.799 131.265 113.31 133.466L113.533 136.854C113.533 136.854 114.819 137.562 117.769 137.562C118.734 137.58 119.697 137.479 120.638 137.263" stroke="#263238" stroke-linecap="round" stroke-linejoin="round"/>
<path d="M124.436 133.466L125.503 136.998C125.503 136.998 125.939 137.574 128.895 137.574C131.85 137.574 132.82 136.865 132.82 136.865L132.734 133.478C132.734 133.478 128.447 130.943 124.436 133.466Z" stroke="#263238" stroke-linecap="round" stroke-linejoin="round"/>
<path d="M121.623 133.466H124.435" stroke="#263238" stroke-linecap="round" stroke-linejoin="round"/>
<path d="M122.22 145.092C123.756 145.532 125.39 145.481 126.897 144.948C128.056 144.509 129.066 143.745 129.806 142.748" stroke="#263238" stroke-linecap="round" stroke-linejoin="round"/>
<path d="M126.898 130.124C130.589 128.597 132.218 130.429 132.218 130.429" stroke="#263238" stroke-linecap="round" stroke-linejoin="round"/>
<path d="M117.159 129.975C117.793 129.67 118.5 129.551 119.199 129.631C119.897 129.712 120.559 129.989 121.107 130.43" stroke="#263238" stroke-linecap="round" stroke-linejoin="round"/>
<path d="M128.368 132.7C128.712 132.7 128.942 133.276 128.942 133.95C128.942 134.624 128.655 135.195 128.322 135.195C127.989 135.195 127.748 134.619 127.748 133.95C127.748 133.282 128.029 132.7 128.368 132.7Z" fill="#263238"/>
<path d="M119.204 132.544C119.542 132.544 119.778 133.121 119.778 133.795C119.778 134.469 119.491 135.039 119.158 135.039C118.825 135.039 118.584 134.463 118.584 133.795C118.584 133.126 118.871 132.544 119.204 132.544Z" fill="#263238"/>
<path d="M113.085 126.184C113.203 126.863 113.396 127.528 113.659 128.165" stroke="#BFBFBF" stroke-miterlimit="10"/>
<path d="M117.486 118.573C113.859 117.594 112.424 119.783 112.694 123.24" stroke="#BFBFBF" stroke-miterlimit="10"/>
<path d="M121.324 156.402L125.743 164.387L136.354 155.981L139.62 156.442L132.733 168.627C132.67 168.737 132.586 168.832 132.486 168.909C132.385 168.985 132.271 169.04 132.149 169.071C132.026 169.101 131.899 169.107 131.775 169.087C131.65 169.067 131.531 169.023 131.425 168.955L125.554 165.234L120.963 168.045C120.828 168.127 120.676 168.174 120.518 168.182C120.361 168.189 120.205 168.157 120.063 168.087C119.922 168.018 119.8 167.913 119.71 167.784C119.619 167.655 119.563 167.505 119.545 167.348L118.397 156.943L121.324 156.402Z" fill="#79D900"/>
<path opacity="0.3" d="M120.934 156.349L125.744 164.386L136.544 155.831L139.792 156.349L132.751 168.626C132.688 168.736 132.604 168.832 132.504 168.908C132.403 168.984 132.288 169.04 132.166 169.07C132.044 169.101 131.917 169.106 131.792 169.087C131.668 169.067 131.549 169.022 131.442 168.955L125.571 165.233L120.98 168.044C120.846 168.127 120.693 168.174 120.536 168.181C120.379 168.189 120.222 168.156 120.081 168.087C119.94 168.017 119.818 167.913 119.727 167.784C119.637 167.654 119.58 167.504 119.563 167.347L118.415 156.942L120.934 156.349Z" fill="black"/>
<path d="M121.324 156.402L125.743 164.387L136.354 155.981L139.62 156.442L132.733 168.627C132.67 168.737 132.586 168.832 132.486 168.909C132.385 168.985 132.271 169.04 132.149 169.071C132.026 169.101 131.899 169.107 131.775 169.087C131.65 169.067 131.531 169.023 131.425 168.955L125.554 165.234L120.963 168.045C120.828 168.127 120.676 168.174 120.518 168.182C120.361 168.189 120.205 168.157 120.063 168.087C119.922 168.018 119.8 167.913 119.71 167.784C119.619 167.655 119.563 167.505 119.545 167.348L118.397 156.943L121.324 156.402Z" stroke="#263238" stroke-linecap="round" stroke-linejoin="round"/>
<path d="M55.5296 208.846H84.3615V212.706H55.5296C55.2252 212.706 54.9333 212.585 54.718 212.369C54.5028 212.153 54.3818 211.86 54.3818 211.554V209.964C54.3908 209.664 54.5157 209.38 54.7299 209.171C54.9442 208.963 55.2311 208.846 55.5296 208.846Z" fill="#263238" stroke="#263238" stroke-linecap="round" stroke-linejoin="round"/>
<path d="M109.212 212.712H84.3857V208.852L109.275 210.494C109.474 210.509 109.66 210.598 109.796 210.744C109.933 210.891 110.009 211.083 110.01 211.283V211.923C110.01 212.027 109.989 212.131 109.949 212.228C109.909 212.324 109.85 212.412 109.775 212.485C109.701 212.558 109.613 212.616 109.516 212.655C109.42 212.694 109.316 212.714 109.212 212.712Z" fill="#79D900" stroke="#263238" stroke-linecap="round" stroke-linejoin="round"/>
<path d="M132.75 134.036L138.994 131.916L138.254 132.855" stroke="#263238" stroke-linecap="round" stroke-linejoin="round"/>
<path d="M172.745 141.25C172.745 141.25 165.554 119.207 183.649 117.663C201.743 116.119 203.861 133.034 205.52 141.515C206.817 148.146 219.167 160.273 209.606 169.324C199.632 178.779 175.333 175.621 173.933 162.186C172.533 148.751 173.801 145.997 172.745 141.25Z" fill="#263238" stroke="#263238" stroke-linecap="round" stroke-linejoin="round"/>
<path d="M193.84 144.77C193.84 144.77 193.054 154.564 198.076 162.946C198.076 162.946 191.309 165.164 184.251 163.056C184.543 160.461 184.4 157.836 183.826 155.29L183.585 154.224L188.715 149.77L193.84 144.77Z" fill="white"/>
<path d="M181.421 152.127C182.356 157.387 183.211 158.533 187.653 157.594C190.942 156.897 193.748 151.942 193.909 148.342C193.747 146.707 193.669 145.064 193.673 143.421L188.715 149.759L181.421 152.127Z" fill="#263238"/>
<path d="M193.84 144.77C193.84 144.77 193.054 154.564 198.076 162.946C198.076 162.946 191.309 165.164 184.251 163.056C184.543 160.461 184.4 157.836 183.826 155.29L183.585 154.224L188.715 149.77L193.84 144.77Z" stroke="#263238" stroke-linecap="round" stroke-linejoin="round"/>
<path d="M143.492 200.695C143.492 200.695 133.478 196.086 132.916 199.9C132.353 203.714 134.804 209.602 143.975 206.704L163.217 209.25C163.217 209.25 166.511 202.665 162.993 199.076C162.987 199.076 146.035 201.72 143.492 200.695Z" fill="white" stroke="#263238" stroke-linecap="round" stroke-linejoin="round"/>
<path d="M128.062 204.819C128.062 204.819 126.478 205.332 126.242 206.386C126.007 207.441 125.496 208.933 126.105 208.939C126.713 208.944 127.453 206.842 127.453 206.842L128.997 206.438L128.062 204.819Z" fill="white" stroke="#263238" stroke-linecap="round" stroke-linejoin="round"/>
<path d="M138.553 194.813L128.143 195.908L129.696 210.794L140.107 209.699L138.553 194.813Z" fill="white" stroke="#263238" stroke-linecap="round" stroke-linejoin="round"/>
<path d="M128.136 195.907L126.584 196.07L128.137 210.956L129.69 210.793L128.136 195.907Z" fill="#79D900" stroke="#263238" stroke-linecap="round" stroke-linejoin="round"/>
<path d="M135.752 192.657C135.157 192.727 134.613 193.028 134.235 193.495C133.858 193.962 133.677 194.559 133.732 195.158C133.741 195.21 133.753 195.262 133.767 195.313L134.289 195.261L134.863 195.204C134.85 195.151 134.84 195.097 134.834 195.043C134.812 194.836 134.844 194.628 134.928 194.438C135.011 194.248 135.143 194.084 135.311 193.961C135.478 193.839 135.674 193.763 135.879 193.741C136.085 193.719 136.293 193.752 136.482 193.836C136.671 193.92 136.834 194.053 136.956 194.221C137.077 194.389 137.152 194.586 137.174 194.793C137.195 194.999 137.162 195.208 137.078 195.397C136.994 195.587 136.861 195.75 136.694 195.872C136.76 196.058 136.879 196.22 137.034 196.34C137.19 196.461 137.376 196.534 137.572 196.552C137.911 196.224 138.141 195.798 138.228 195.333C138.314 194.868 138.254 194.388 138.056 193.959C137.857 193.53 137.53 193.174 137.12 192.94C136.711 192.707 136.238 192.608 135.77 192.657H135.752Z" fill="white" stroke="#263238" stroke-linecap="round" stroke-linejoin="round"/>
<path d="M130.102 198.995L133.683 198.615" stroke="#263238" stroke-linecap="round" stroke-linejoin="round"/>
<path d="M130.272 200.631L137.234 199.899" stroke="#263238" stroke-linecap="round" stroke-linejoin="round"/>
<path d="M130.442 202.273L133.92 201.91" stroke="#263238" stroke-linecap="round" stroke-linejoin="round"/>
<path d="M130.616 203.915L136.43 203.304" stroke="#263238" stroke-linecap="round" stroke-linejoin="round"/>
<path d="M130.789 205.557L134.267 205.188" stroke="#263238" stroke-linecap="round" stroke-linejoin="round"/>
<path d="M130.956 207.193L138.594 206.392" stroke="#263238" stroke-linecap="round" stroke-linejoin="round"/>
<path d="M131.127 208.835L134.708 208.46" stroke="#263238" stroke-linecap="round" stroke-linejoin="round"/>
<path d="M133.823 192.859C133.229 192.93 132.686 193.231 132.31 193.698C131.933 194.165 131.754 194.761 131.809 195.359C131.815 195.414 131.825 195.468 131.837 195.521L132.365 195.463L132.939 195.406C132.922 195.353 132.91 195.299 132.905 195.244C132.893 194.943 132.997 194.648 133.194 194.421C133.39 194.193 133.666 194.049 133.965 194.018C134.264 193.988 134.563 194.072 134.802 194.255C135.041 194.438 135.202 194.705 135.252 195.002C135.274 195.208 135.241 195.417 135.155 195.605C135.069 195.794 134.934 195.956 134.764 196.074C134.831 196.259 134.949 196.422 135.105 196.542C135.26 196.662 135.447 196.736 135.642 196.754C135.982 196.426 136.211 196 136.298 195.535C136.385 195.07 136.325 194.589 136.126 194.16C135.928 193.731 135.601 193.375 135.191 193.142C134.781 192.909 134.309 192.81 133.84 192.859H133.823Z" fill="white" stroke="#263238" stroke-linecap="round" stroke-linejoin="round"/>
<path d="M131.896 193.06C131.302 193.131 130.759 193.433 130.383 193.9C130.006 194.367 129.827 194.963 129.882 195.561C129.882 195.618 129.882 195.665 129.882 195.722L130.41 195.665L130.984 195.607C130.969 195.556 130.958 195.504 130.949 195.451C130.926 195.244 130.957 195.034 131.041 194.842C131.124 194.651 131.256 194.485 131.424 194.361C131.592 194.237 131.789 194.16 131.996 194.138C132.203 194.115 132.412 194.148 132.603 194.233C132.793 194.317 132.958 194.451 133.08 194.62C133.203 194.789 133.278 194.987 133.3 195.195C133.321 195.403 133.288 195.613 133.202 195.804C133.117 195.994 132.983 196.159 132.814 196.281C132.879 196.466 132.996 196.628 133.151 196.748C133.306 196.867 133.492 196.939 133.687 196.955C133.938 196.719 134.13 196.427 134.25 196.103C134.37 195.779 134.412 195.432 134.375 195.088C134.306 194.493 134.008 193.948 133.545 193.57C133.083 193.191 132.491 193.008 131.896 193.06Z" fill="white" stroke="#263238" stroke-linecap="round" stroke-linejoin="round"/>
<path d="M129.974 193.262C129.379 193.332 128.834 193.632 128.457 194.1C128.08 194.567 127.899 195.164 127.954 195.763C127.962 195.817 127.974 195.871 127.988 195.924L128.511 195.866L129.085 195.809C129.072 195.758 129.063 195.706 129.056 195.653C129.034 195.447 129.066 195.238 129.15 195.048C129.233 194.859 129.365 194.694 129.532 194.572C129.699 194.45 129.895 194.374 130.101 194.352C130.307 194.33 130.514 194.363 130.703 194.447C130.892 194.531 131.056 194.664 131.177 194.832C131.299 195 131.374 195.197 131.396 195.403C131.417 195.61 131.384 195.818 131.3 196.008C131.215 196.197 131.083 196.361 130.915 196.483C130.982 196.668 131.101 196.829 131.256 196.949C131.412 197.068 131.598 197.14 131.793 197.157C132.042 196.919 132.234 196.627 132.353 196.304C132.472 195.98 132.516 195.634 132.482 195.29C132.413 194.69 132.111 194.14 131.642 193.761C131.173 193.381 130.574 193.202 129.974 193.262Z" fill="white" stroke="#263238" stroke-linecap="round" stroke-linejoin="round"/>
<path d="M127.109 195.855C127.085 195.647 127.116 195.436 127.199 195.244C127.282 195.052 127.415 194.886 127.583 194.761C127.751 194.637 127.948 194.56 128.156 194.538C128.363 194.515 128.573 194.548 128.763 194.633C128.954 194.718 129.119 194.852 129.241 195.022C129.363 195.191 129.439 195.391 129.46 195.599C129.48 195.807 129.446 196.017 129.36 196.208C129.273 196.399 129.138 196.563 128.968 196.685C129.036 196.869 129.154 197.031 129.309 197.15C129.465 197.27 129.651 197.342 129.846 197.359C130.172 197.045 130.398 196.641 130.493 196.198C130.588 195.755 130.549 195.294 130.381 194.873C130.213 194.453 129.923 194.092 129.549 193.839C129.175 193.585 128.734 193.449 128.283 193.449C127.831 193.449 127.39 193.585 127.016 193.839C126.642 194.092 126.353 194.453 126.184 194.873C126.016 195.294 125.977 195.755 126.072 196.198C126.168 196.641 126.393 197.045 126.719 197.359L126.587 196.062L127.161 196.005C127.138 195.957 127.121 195.907 127.109 195.855Z" fill="white" stroke="#263238" stroke-linecap="round" stroke-linejoin="round"/>
<path d="M125.383 200.078C125.48 200.295 125.593 200.505 125.721 200.706C125.611 201.103 125.59 201.52 125.662 201.926C125.733 202.331 125.895 202.716 126.135 203.051C126.135 203.051 126.181 204.693 126.76 204.952C127.34 205.211 128.264 205.528 128.246 205.067C128.229 204.606 127.96 203.229 126.915 202.924C126.915 202.924 128.115 203.16 127.983 202.492C127.851 201.824 127.621 200.856 126.886 200.579L126.49 200.406C126.49 200.406 127.443 200.579 127.363 199.859C127.282 199.139 127.202 198.292 126.657 198.09C126.531 198.044 126.387 198.004 126.238 197.963C125.434 197.773 124.918 199.041 125.383 200.078Z" fill="white" stroke="#263238" stroke-linecap="round" stroke-linejoin="round"/>
<path d="M142.37 200.567C142.37 200.567 141.251 198.079 139.42 196.782C137.589 195.486 136.901 192.963 136.155 193.573C135.409 194.184 136.086 196.863 137.245 197.779C138.404 198.695 137.107 200.74 139.96 203.264" fill="white"/>
<path d="M142.37 200.567C142.37 200.567 141.251 198.079 139.42 196.782C137.589 195.486 136.901 192.963 136.155 193.573C135.409 194.184 136.086 196.863 137.245 197.779C138.404 198.695 137.107 200.74 139.96 203.264" stroke="#263238" stroke-linecap="round" stroke-linejoin="round"/>
<path d="M209.783 207.832C209.53 209.399 209.26 211.026 208.973 212.712H169.616C169.553 212.182 169.926 211.116 170.282 209.255C165.898 210.747 158.23 208.431 158.23 208.431C159.183 205.914 158.523 199.519 158.523 199.519L162.988 198.568C162.988 198.568 164.842 179.083 166.253 173.501C167.751 167.578 175.946 161.114 203.51 163.021C203.51 163.021 216.227 162.779 218.201 171.242C220.061 179.141 210.311 207.469 209.783 207.832Z" fill="#79D900"/>
<path opacity="0.2" d="M170.285 209.262C167.237 210.299 162.618 209.499 160.081 208.911C160.741 208.404 161.154 207.367 161.309 206.03C163.375 205.708 165.441 202.412 166.801 187.433C167.123 183.919 167.811 181.712 168.695 180.226C167.804 183.597 167.768 187.138 168.592 190.527C169.085 192.537 170.635 197.377 170.773 199.382C171.048 202.682 170.884 206.005 170.285 209.262Z" fill="black"/>
<path opacity="0.2" d="M209.778 207.839C209.534 209.406 209.266 211.031 208.975 212.713H169.618C170.324 210.547 172.057 200.234 169.618 193.966C169.52 193.712 178.071 190.106 183.799 191.58C208.074 197.831 199.713 177.69 206.645 174.026L200.665 197.572L197.4 198.615C204.47 199.053 202.427 209.694 202.427 209.694C205.024 210.04 207.654 209.376 209.778 207.839Z" fill="black"/>
<path d="M209.783 207.832C209.53 209.399 209.26 211.026 208.973 212.712H169.616C169.553 212.182 169.926 211.116 170.282 209.255C165.898 210.747 158.23 208.431 158.23 208.431C159.183 205.914 158.523 199.519 158.523 199.519L162.988 198.568C162.988 198.568 164.842 179.083 166.253 173.501C167.751 167.578 175.946 161.114 203.51 163.021C203.51 163.021 216.227 162.779 218.201 171.242C220.061 179.141 210.311 207.469 209.783 207.832Z" stroke="#263238" stroke-linecap="round" stroke-linejoin="round"/>
<path d="M159.259 198.425C159.259 198.425 160.752 199.225 161.239 202.746C161.727 206.266 160.975 209.296 159.03 209.25C157.084 209.204 156.734 208.438 157.136 207.712C157.538 206.986 158.387 206.012 157.739 202.999C156.924 199.225 155.248 199.571 155.248 199.571C155.248 199.571 157.48 197.422 159.259 198.425Z" fill="#79D900" stroke="#263238" stroke-linecap="round" stroke-linejoin="round"/>
<path opacity="0.2" d="M161.308 206.052C161.153 207.366 160.734 208.403 160.08 208.933C159.781 209.167 159.409 209.288 159.03 209.273C157.079 209.227 156.734 208.46 157.136 207.734C157.538 207.009 158.387 206.035 157.739 203.022C156.924 199.248 155.248 199.594 155.248 199.594C155.248 199.594 157.486 197.445 159.265 198.442C159.265 198.442 160.757 199.242 161.245 202.762C161.4 203.852 161.422 204.957 161.308 206.052Z" fill="black"/>
<path d="M196.749 155.981C196.749 155.981 186.856 158.994 182.356 157.387L181.421 163.419C181.421 163.419 185.8 167.244 199.825 162.537L196.749 155.981Z" fill="#79D900" stroke="#263238" stroke-linecap="round" stroke-linejoin="round"/>
<path d="M161.594 196.667C162.771 200.51 163.821 203.581 162.782 203.92C161.744 204.26 160.889 201.092 159.712 197.243C158.536 193.395 157.485 190.33 158.524 189.995C159.563 189.661 160.418 192.819 161.594 196.667Z" fill="#79D900" stroke="#263238" stroke-linecap="round" stroke-linejoin="round"/>
<path d="M159.564 196.759L161.446 196.183C161.171 195.279 160.912 194.415 160.666 193.643L158.789 194.219C159.019 194.996 159.283 195.849 159.564 196.759Z" fill="#263238"/>
<path d="M159.391 191.817C159.391 191.817 160.269 190.048 161.078 191.298C161.887 192.548 162.053 196.345 162.627 196.351" stroke="#263238" stroke-linecap="round" stroke-linejoin="round"/>
<path d="M171.064 173C170.347 175.207 169.342 177.609 168.694 180.253C167.803 183.625 167.767 187.166 168.59 190.555C169.084 192.565 170.633 197.405 170.771 199.41C171.045 202.703 170.881 206.018 170.283 209.267C169.928 211.122 169.555 212.188 169.618 212.724" stroke="#263238" stroke-linecap="round" stroke-linejoin="round"/>
<path d="M195.427 199.271C195.427 199.271 179.416 201.466 174.015 201.576C173.189 201.576 170.71 201.288 170.71 201.288L166.87 198.713C166.87 198.713 163.915 198.275 162.463 198.603L160.81 200.775C160.81 200.775 158.75 201.443 159.926 203.01C159.804 203.378 159.79 203.773 159.887 204.149C159.984 204.524 160.187 204.863 160.472 205.125C160.472 205.125 160.563 206.49 161.47 207.038C161.47 207.038 161.648 208.311 162.647 208.674C163.645 209.037 169.895 208.034 171.8 207.493C173.705 206.951 192.184 209.855 199.433 209.676C199.433 209.688 205.642 202.382 195.427 199.271Z" fill="white" stroke="#263238" stroke-linecap="round" stroke-linejoin="round"/>
<path d="M195.672 138.432C195.672 138.432 191.448 140.085 188.946 135.511C187.861 133.529 185.669 129.398 185.669 129.398C185.044 131.017 185.813 133.483 185.813 133.483C184.378 132.855 181.612 132.705 181.612 132.705C180.63 131.057 180.343 127.312 180.343 127.312C178.983 129.617 179.374 132.866 179.374 132.866C177.154 133.081 175.052 133.974 173.354 135.424C173.715 136.893 173.841 139.186 173.721 143.951C173.566 150.167 176.544 151.873 179.46 154.2C182.375 156.528 190.312 157.726 193.055 145.558C193.055 145.558 198.794 143.409 195.993 138.898L195.672 138.432Z" fill="white" stroke="#263238" stroke-linecap="round" stroke-linejoin="round"/>
<path d="M190.968 130.943C191.822 132.795 193.068 134.439 194.619 135.759C196.17 137.079 197.989 138.045 199.949 138.588" stroke="#BFBFBF" stroke-miterlimit="10"/>
<path d="M189.456 126.334C189.59 127.091 189.782 127.836 190.03 128.564" stroke="#BFBFBF" stroke-miterlimit="10"/>
<path d="M192.325 126.615C192.325 126.615 195.585 132.86 200.681 133.01" stroke="#BFBFBF" stroke-miterlimit="10"/>
<path d="M202.316 142.5C202.316 142.5 210.609 155.981 210.609 163.817" stroke="#BFBFBF" stroke-miterlimit="10"/>
<path d="M200.124 146.095C200.124 146.095 202.173 153.613 205.473 157.387" stroke="#BFBFBF" stroke-miterlimit="10"/>
<path d="M174.063 126.547C173.815 127.656 173.652 128.783 173.575 129.917" stroke="#BFBFBF" stroke-miterlimit="10"/>
<path d="M180.855 119.483C180.855 119.483 176.993 120.209 174.474 124.778" stroke="#BFBFBF" stroke-miterlimit="10"/>
<path d="M175.965 154.391C175.965 154.391 175.838 160.44 178.914 163.84" stroke="#BFBFBF" stroke-miterlimit="10"/>
<path d="M181.421 135.88C185.605 135.056 187.435 137.194 187.435 137.194" stroke="#263238" stroke-linecap="round" stroke-linejoin="round"/>
<path d="M174.456 137.649C174.918 137.181 175.47 136.814 176.08 136.57C176.689 136.327 177.341 136.211 177.997 136.232" stroke="#263238" stroke-linecap="round" stroke-linejoin="round"/>
<path d="M184.148 149.955C185.44 149.218 186.157 147.293 186.157 147.293L185.887 147.443C184.204 148.347 182.37 148.933 180.476 149.172C180.918 149.688 181.517 150.044 182.18 150.185C182.844 150.327 183.535 150.246 184.148 149.955V149.955Z" stroke="#263238" stroke-linecap="round" stroke-linejoin="round"/>
<path d="M179.029 145.957C178.484 145.887 176.929 145.15 176.797 144.09C176.756 143.773 176.986 143.485 177.325 143.231C177.995 142.759 178.533 142.123 178.89 141.383C179.246 140.643 179.409 139.823 179.362 139.003C179.362 138.887 179.362 138.818 179.362 138.818" stroke="#263238" stroke-linecap="round" stroke-linejoin="round"/>
<path d="M184.377 137.568C184.773 137.516 185.181 138.179 185.284 139.037C185.387 139.896 185.158 140.628 184.756 140.679C184.355 140.731 183.959 140.069 183.85 139.21C183.74 138.352 183.981 137.614 184.377 137.568Z" fill="#263238"/>
<path d="M177.479 140.051C177.582 140.892 177.352 141.612 176.962 141.658C176.572 141.705 176.176 141.082 176.073 140.224C175.969 139.365 176.199 138.657 176.589 138.611C176.979 138.565 177.375 139.204 177.479 140.051Z" fill="#263238"/>
<path d="M190.322 138.288C190.322 138.288 189.788 136.767 190.397 135.984" stroke="#263238" stroke-linecap="round" stroke-linejoin="round"/>
<path d="M209.778 207.839C207.652 209.379 205.019 210.043 202.421 209.694C202.421 209.694 204.464 199.053 197.394 198.615L200.659 197.572L206.639 174.026" stroke="#263238" stroke-linecap="round" stroke-linejoin="round"/>
<path d="M202.42 197.572C202.42 197.572 206.208 198.574 207.269 201.847" stroke="#263238" stroke-linecap="round" stroke-linejoin="round"/>
<path d="M186.965 159.68C190.569 159.655 194.127 158.87 197.41 157.375" stroke="#263238" stroke-linecap="round" stroke-linejoin="round"/>
<path d="M182.086 159.115C182.896 159.327 183.721 159.474 184.554 159.553" stroke="#263238" stroke-linecap="round" stroke-linejoin="round"/>
<path d="M198.226 165.867C199.247 165.506 200.318 165.082 201.439 164.594" stroke="#263238" stroke-linecap="round" stroke-linejoin="round"/>
<path d="M180.499 165.954C180.499 165.954 184.35 169.624 194.536 167.002" stroke="#263238" stroke-linecap="round" stroke-linejoin="round"/>
<path d="M183.827 184.194C183.827 184.194 184.401 193.049 190.966 196.35" stroke="#263238" stroke-linecap="round" stroke-linejoin="round"/>
<path d="M195.266 199.41C195.266 199.41 196.551 196.564 200.396 197.97C200.396 197.97 204.029 199.226 205.119 202.976C206.21 206.727 204.844 210.074 202.192 210.212C199.541 210.351 199.059 210.143 199.507 209.325C199.977 208.432 200.24 207.443 200.276 206.434C200.312 205.424 200.119 204.419 199.713 203.495C198.066 199.537 195.266 199.41 195.266 199.41Z" fill="#79D900"/>
<g opacity="0.2">
<path opacity="0.2" d="M195.266 199.41C195.266 199.41 196.551 196.564 200.396 197.97C200.396 197.97 204.029 199.226 205.119 202.976C206.21 206.727 204.844 210.074 202.192 210.212C199.541 210.351 199.059 210.143 199.507 209.325C199.977 208.432 200.24 207.443 200.276 206.434C200.312 205.424 200.119 204.419 199.713 203.495C198.066 199.537 195.266 199.41 195.266 199.41Z" fill="black"/>
</g>
<path d="M195.266 199.41C195.266 199.41 196.551 196.564 200.396 197.97C200.396 197.97 204.029 199.226 205.119 202.976C206.21 206.727 204.844 210.074 202.192 210.212C199.541 210.351 199.059 210.143 199.507 209.325C199.977 208.432 200.24 207.443 200.276 206.434C200.312 205.424 200.119 204.419 199.713 203.495C198.066 199.537 195.266 199.41 195.266 199.41Z" stroke="#263238" stroke-linecap="round" stroke-linejoin="round"/>
<path d="M19.426 187.697C19.426 187.697 17.4518 170.753 0 177.609C0 177.609 14.8521 177.5 17.3657 190.284L19.6613 190.036L19.426 187.697Z" fill="#79D900"/>
<path opacity="0.1" d="M19.426 187.697C19.426 187.697 17.4518 170.753 0 177.609C0 177.609 14.8521 177.5 17.3657 190.284L19.6613 190.036L19.426 187.697Z" fill="black"/>
<path d="M19.6668 187.403C19.6668 187.403 18.1575 169.336 14.8691 155.295C14.8691 155.295 24.9121 165.96 22.6166 186.038L19.6668 187.403Z" fill="#79D900"/>
<path opacity="0.1" d="M19.6668 187.403C19.6668 187.403 18.1575 169.336 14.8691 155.295C14.8691 155.295 24.9121 165.96 22.6166 186.038L19.6668 187.403Z" fill="black"/>
<path d="M18.692 199.375C18.692 199.375 15.8225 174.486 6.16406 165.959C6.16406 165.959 23.3806 170.263 20.844 196.696L18.692 199.375Z" fill="#79D900"/>
<path d="M21.7211 198.349C21.7211 198.349 25.9392 173.651 36.0166 165.637C36.0166 165.637 18.582 169.001 19.7183 195.538L21.7211 198.349Z" fill="#79D900"/>
<path d="M30.5653 190.25H10.1924V193.804H10.8696V206.346C10.8695 208.03 11.5337 209.645 12.7168 210.838C13.8998 212.031 15.5054 212.705 17.1823 212.713H23.495C25.1774 212.713 26.791 212.042 27.9811 210.848C29.1713 209.655 29.8407 208.035 29.8422 206.346V193.804H30.5194L30.5653 190.25Z" fill="white" stroke="#263238" stroke-miterlimit="10"/>
<path d="M24.252 193.637H26.9607H24.252Z" fill="white"/>
<path d="M24.252 193.637H26.9607" stroke="#263238" stroke-miterlimit="10"/>
<path d="M13.6309 193.637H21.4701H13.6309Z" fill="white"/>
<path d="M13.6309 193.637H21.4701" stroke="#263238" stroke-miterlimit="10"/>
<path d="M99.5166 197.064L94.2942 154.373C94.195 153.706 93.8655 153.094 93.3631 152.646C92.8607 152.197 92.2173 151.94 91.5453 151.919H85.5654L92.4865 199.501H97.3817C97.6894 199.507 97.9946 199.446 98.2761 199.321C98.5577 199.196 98.8088 199.012 99.012 198.78C99.2152 198.548 99.3656 198.274 99.4527 197.978C99.5399 197.682 99.5617 197.37 99.5166 197.064Z" fill="#79D900" stroke="#263238" stroke-linecap="round" stroke-linejoin="round"/>
<path d="M96.0743 199.502H35.9083C35.2372 199.48 34.5953 199.222 34.094 198.773C33.5928 198.325 33.2641 197.714 33.1651 197.048L27.9427 154.356C27.8966 154.051 27.9177 153.739 28.0045 153.442C28.0912 153.145 28.2416 152.871 28.445 152.639C28.6484 152.407 28.8999 152.222 29.1819 152.098C29.464 151.973 29.7697 151.913 30.0776 151.919H90.2666C90.9376 151.942 91.5796 152.2 92.0808 152.648C92.5821 153.096 92.9108 153.707 93.0098 154.374L98.2321 197.065C98.2776 197.372 98.2553 197.686 98.1668 197.984C98.0784 198.282 97.9259 198.557 97.7202 198.789C97.5144 199.022 97.2604 199.206 96.9761 199.329C96.6917 199.452 96.3839 199.511 96.0743 199.502Z" fill="#263238"/>
<path opacity="0.1" d="M96.0743 199.502H35.9083C35.2372 199.48 34.5953 199.222 34.094 198.773C33.5928 198.325 33.2641 197.714 33.1651 197.048L27.9427 154.356C27.8966 154.051 27.9177 153.739 28.0045 153.442C28.0912 153.145 28.2416 152.871 28.445 152.639C28.6484 152.407 28.8999 152.222 29.1819 152.098C29.464 151.973 29.7697 151.913 30.0776 151.919H90.2666C90.9376 151.942 91.5796 152.2 92.0808 152.648C92.5821 153.096 92.9108 153.707 93.0098 154.374L98.2321 197.065C98.2776 197.372 98.2553 197.686 98.1668 197.984C98.0784 198.282 97.9259 198.557 97.7202 198.789C97.5144 199.022 97.2604 199.206 96.9761 199.329C96.6917 199.452 96.3839 199.511 96.0743 199.502Z" fill="white"/>
<path d="M96.0743 199.502H35.9083C35.2372 199.48 34.5953 199.222 34.094 198.773C33.5928 198.325 33.2641 197.714 33.1651 197.048L27.9427 154.356C27.8966 154.051 27.9177 153.739 28.0045 153.442C28.0912 153.145 28.2416 152.871 28.445 152.639C28.6484 152.407 28.8999 152.222 29.1819 152.098C29.464 151.973 29.7697 151.913 30.0776 151.919H90.2666C90.9376 151.942 91.5796 152.2 92.0808 152.648C92.5821 153.096 92.9108 153.707 93.0098 154.374L98.2321 197.065C98.2776 197.372 98.2553 197.686 98.1668 197.984C98.0784 198.282 97.9259 198.557 97.7202 198.789C97.5144 199.022 97.2604 199.206 96.9761 199.329C96.6917 199.452 96.3839 199.511 96.0743 199.502V199.502Z" stroke="#263238" stroke-linecap="round" stroke-linejoin="round"/>
<path d="M68.0277 209.221L70.4323 181.722C70.4425 181.565 70.4203 181.407 70.3673 181.258C70.3142 181.11 70.2313 180.974 70.1236 180.859C70.016 180.744 69.886 180.652 69.7417 180.589C69.5973 180.527 69.4417 180.495 69.2845 180.495H54.1167C53.8321 180.494 53.557 180.598 53.3449 180.789C53.1328 180.979 52.9988 181.242 52.9689 181.526L50.352 211.485C50.3418 211.643 50.3639 211.8 50.417 211.949C50.4701 212.098 50.553 212.234 50.6607 212.349C50.7683 212.464 50.8983 212.555 51.0426 212.618C51.187 212.68 51.3426 212.713 51.4998 212.712H81.5943C81.8987 212.712 82.1906 212.591 82.4059 212.375C82.6211 212.159 82.7421 211.866 82.7421 211.56C82.7421 211.254 82.6211 210.961 82.4059 210.745C82.1906 210.529 81.8987 210.408 81.5943 210.408H69.1467C68.9955 210.404 68.8465 210.37 68.7083 210.308C68.5701 210.247 68.4454 210.158 68.3414 210.048C68.2374 209.938 68.1561 209.808 68.1023 209.666C68.0484 209.524 68.0231 209.373 68.0277 209.221Z" fill="#263238" stroke="#263238" stroke-linecap="round" stroke-linejoin="round"/>
<path d="M82.7209 211.6C82.7209 211.294 82.6 211.001 82.3848 210.785C82.1695 210.569 81.8776 210.448 81.5732 210.448H69.1486C68.9908 210.448 68.8347 210.416 68.6899 210.353C68.5452 210.29 68.4149 210.198 68.3072 210.082C68.1995 209.967 68.1167 209.83 68.064 209.681C68.0113 209.531 67.9897 209.373 68.0008 209.215L70.4054 181.716C70.4548 181.552 70.4671 181.379 70.4415 181.21C70.4159 181.04 70.3529 180.879 70.2572 180.737C70.1615 180.595 70.0355 180.476 69.8883 180.389C69.7411 180.302 69.5765 180.25 69.4064 180.235C69.2364 180.22 69.0651 180.243 68.9052 180.303C68.7452 180.363 68.6007 180.458 68.4819 180.581C68.3632 180.705 68.2734 180.853 68.2189 181.015C68.1645 181.178 68.1468 181.35 68.1672 181.52L65.5503 211.479C65.5402 211.634 65.5615 211.79 65.6128 211.936C65.6641 212.083 65.7445 212.218 65.849 212.332C65.9536 212.447 66.0802 212.539 66.2211 212.603C66.3621 212.668 66.5146 212.703 66.6694 212.706H81.5904C81.884 212.702 82.1649 212.585 82.3752 212.379C82.5855 212.174 82.7092 211.895 82.7209 211.6Z" fill="#79D900" stroke="#263238" stroke-linecap="round" stroke-linejoin="round"/>
<path d="M13.7217 212.712H228.928" stroke="#263238" stroke-linecap="round" stroke-linejoin="round"/>
<path d="M214.529 108.088H203.218C202.513 108.088 201.837 108.369 201.339 108.869C200.84 109.369 200.561 110.048 200.561 110.755V116.286C200.561 116.994 200.84 117.672 201.339 118.172C201.837 118.673 202.513 118.954 203.218 118.954H206.173L207.04 124.052L211.573 118.954H214.529C214.878 118.954 215.224 118.886 215.547 118.752C215.87 118.619 216.164 118.422 216.411 118.174C216.659 117.927 216.855 117.632 216.989 117.308C217.123 116.984 217.192 116.637 217.192 116.286V110.778C217.194 110.426 217.127 110.076 216.994 109.75C216.861 109.424 216.665 109.127 216.418 108.877C216.17 108.627 215.876 108.428 215.552 108.293C215.228 108.158 214.88 108.088 214.529 108.088Z" fill="white" stroke="#263238" stroke-linecap="round" stroke-linejoin="round"/>
<path d="M197.188 91.7661H185.877C185.527 91.7654 185.181 91.8338 184.858 91.9675C184.535 92.1012 184.241 92.2976 183.994 92.5454C183.747 92.7931 183.551 93.0875 183.417 93.4115C183.283 93.7355 183.214 94.0828 183.214 94.4336V99.9587C183.214 100.668 183.494 101.348 183.994 101.849C184.493 102.35 185.17 102.632 185.877 102.632H188.832L191.076 107.731L194.232 102.632H197.188C197.894 102.632 198.571 102.35 199.071 101.849C199.57 101.348 199.851 100.668 199.851 99.9587V94.4336C199.851 94.0828 199.782 93.7355 199.648 93.4115C199.514 93.0875 199.318 92.7931 199.07 92.5454C198.823 92.2976 198.53 92.1012 198.207 91.9675C197.883 91.8338 197.537 91.7654 197.188 91.7661Z" fill="white" stroke="#263238" stroke-linecap="round" stroke-linejoin="round"/>
<path d="M175.173 97.4756H164.487C163.821 97.4756 163.181 97.7414 162.71 98.2147C162.238 98.6879 161.974 99.3298 161.974 99.999V105.219C161.974 105.888 162.238 106.53 162.71 107.003C163.181 107.476 163.821 107.742 164.487 107.742H167.282L170.197 112.553L172.378 107.742H175.173C175.84 107.742 176.479 107.476 176.95 107.003C177.422 106.53 177.687 105.888 177.687 105.219V99.999C177.687 99.3298 177.422 98.6879 176.95 98.2147C176.479 97.7414 175.84 97.4756 175.173 97.4756Z" fill="white" stroke="#263238" stroke-linecap="round" stroke-linejoin="round"/>
<path d="M168.383 101.376V102.004C168.383 102.776 168.016 103.197 167.235 103.197H166.874V105.017H166.116V100.178H167.235C167.999 100.178 168.383 100.598 168.383 101.376ZM166.897 100.869V102.505H167.235C167.476 102.505 167.603 102.396 167.603 102.05V101.324C167.603 100.979 167.476 100.869 167.235 100.869H166.897Z" fill="#263238"/>
<path d="M169.533 105.017H168.775V100.178H169.533V102.252H170.394V100.178H171.163V105.017H170.394V102.943H169.533V105.017Z" fill="#263238"/>
<path d="M173.94 101.376V102.004C173.94 102.776 173.573 103.197 172.792 103.197H172.436V105.017H171.679V100.178H172.792C173.55 100.178 173.94 100.598 173.94 101.376ZM172.453 100.869V102.505H172.809C173.05 102.505 173.182 102.396 173.182 102.05V101.324C173.182 100.979 173.05 100.869 172.809 100.869H172.453Z" fill="#263238"/>
<path d="M189.91 97.9196V98.5649C189.91 99.3369 189.525 99.7805 188.762 99.7805C187.999 99.7805 187.614 99.3369 187.614 98.5649V96.0472C187.614 95.2752 187.999 94.8315 188.762 94.8315C189.525 94.8315 189.91 95.2752 189.91 96.0472V96.5196H189.192V96.0011C189.192 95.6554 189.043 95.5229 188.802 95.5229C188.561 95.5229 188.412 95.6554 188.412 96.0011V98.6109C188.412 98.9566 188.561 99.0834 188.802 99.0834C189.043 99.0834 189.192 98.9566 189.192 98.6109V97.9196H189.91Z" fill="#263238"/>
<path d="M191.729 97.0378H192.653V97.5736H191.729V98.5242H191.19V97.5736H190.271V97.0378H191.19V96.1045H191.729V97.0378Z" fill="#263238"/>
<path d="M194.456 97.0378H195.357V97.5736H194.433V98.5242H193.9V97.5736H192.976V97.0378H193.9V96.1045H194.433L194.456 97.0378Z" fill="#263238"/>
<path d="M203.567 114.051V113.313L206.638 112.161V112.91L204.537 113.659L206.643 114.414V115.163L203.567 114.051Z" fill="#263238"/>
<path d="M209.659 110.375H210.548L207.983 116.989H207.088L209.659 110.375Z" fill="#263238"/>
<path d="M210.971 115.185V114.436L213.077 113.681L210.971 112.927V112.178L214.041 113.33V114.067L210.971 115.185Z" fill="#263238"/>
</g>
<defs>
<clipPath id="clip0">
<rect width="235" height="213" fill="white"/>
</clipPath>
</defs>
</svg>
