<svg width="265" height="198" viewBox="0 0 265 198" fill="none" xmlns="http://www.w3.org/2000/svg">
<path d="M265 174.003H0V174.136H265V174.003Z" fill="#EBEBEB"/>
<path d="M238.447 182.553H220.894V182.686H238.447V182.553Z" fill="#EBEBEB"/>
<path d="M175.547 183.998H170.941V184.131H175.547V183.998Z" fill="#EBEBEB"/>
<path d="M220.363 177.621H210.192V177.754H220.363V177.621Z" fill="#EBEBEB"/>
<path d="M50.6944 178.514H27.8037V178.647H50.6944V178.514Z" fill="#EBEBEB"/>
<path d="M58.7709 178.514H55.416V178.647H58.7709V178.514Z" fill="#EBEBEB"/>
<path d="M119.329 180.757H69.6787V180.89H119.329V180.757Z" fill="#EBEBEB"/>
<path d="M125.61 150.303H23.272C22.4703 150.301 21.7019 149.981 21.1355 149.412C20.5691 148.843 20.251 148.072 20.251 147.268V3.03402C20.258 2.23482 20.5791 1.47066 21.1448 0.907522C21.7104 0.34438 22.4748 0.0277362 23.272 0.0263672H125.61C126.412 0.0263672 127.182 0.346043 127.75 0.915069C128.317 1.4841 128.636 2.25586 128.636 3.06059V147.268C128.636 148.073 128.317 148.845 127.75 149.414C127.182 149.983 126.412 150.303 125.61 150.303ZM23.272 0.132645C22.5054 0.134053 21.7707 0.440352 21.2292 0.984312C20.6876 1.52827 20.3835 2.26544 20.3835 3.03402V147.268C20.3835 148.037 20.6876 148.774 21.2292 149.318C21.7707 149.862 22.5054 150.168 23.272 150.17H125.61C126.377 150.168 127.112 149.862 127.654 149.318C128.197 148.775 128.502 148.037 128.503 147.268V3.03402C128.502 2.26496 128.197 1.5278 127.654 0.983988C127.112 0.440179 126.377 0.13405 125.61 0.132645H23.272Z" fill="#EBEBEB"/>
<path d="M240.254 150.303H137.911C137.109 150.301 136.34 149.981 135.773 149.412C135.205 148.844 134.886 148.073 134.885 147.268V3.03402C134.893 2.23434 135.216 1.47019 135.782 0.90719C136.348 0.344194 137.113 0.0277213 137.911 0.0263672H240.254C241.05 0.0291328 241.813 0.346394 242.378 0.909387C242.942 1.47238 243.263 2.23574 243.27 3.03402V147.268C243.27 148.071 242.952 148.841 242.387 149.41C241.822 149.979 241.055 150.3 240.254 150.303ZM137.911 0.132645C137.144 0.13405 136.409 0.440179 135.866 0.983988C135.324 1.5278 135.019 2.26496 135.017 3.03402V147.268C135.019 148.037 135.324 148.775 135.866 149.318C136.409 149.862 137.144 150.168 137.911 150.17H240.254C241.021 150.168 241.756 149.862 242.299 149.318C242.841 148.775 243.146 148.037 243.148 147.268V3.03402C243.146 2.26496 242.841 1.5278 242.299 0.983988C241.756 0.440179 241.021 0.13405 240.254 0.132645H137.911Z" fill="#EBEBEB"/>
<path d="M187.583 22.9501C187.584 22.6069 187.517 22.2669 187.385 21.9499C187.254 21.6329 187.061 21.3453 186.818 21.1036C186.575 20.8618 186.287 20.6709 185.97 20.5418C185.652 20.4128 185.313 20.3481 184.97 20.3516C184.718 20.3515 184.466 20.3873 184.223 20.4579C184.261 20.1939 184.281 19.9276 184.281 19.6608C184.281 18.2058 183.706 16.8101 182.682 15.7793C181.658 14.7485 180.268 14.1666 178.817 14.161C178.478 14.1613 178.139 14.1915 177.805 14.2513C177.264 13.3599 176.448 12.6692 175.481 12.2833C174.514 11.8974 173.448 11.8373 172.444 12.1121C171.441 12.3868 170.553 12.9815 169.916 13.8064C169.278 14.6314 168.926 15.6417 168.911 16.6851H168.832C167.685 16.7249 166.599 17.2095 165.802 18.0367C165.005 18.864 164.56 19.9693 164.56 21.1195C164.56 22.2697 165.005 23.3749 165.802 24.2022C166.599 25.0295 167.685 25.5141 168.832 25.5539H185.061C185.736 25.5345 186.378 25.2517 186.849 24.7655C187.32 24.2792 187.584 23.628 187.583 22.9501Z" fill="#F0F0F0"/>
<path d="M178.053 26.8346V21.7705H173.935V26.8346H170.58L175.997 31.4258L181.413 26.8346H178.053Z" fill="#E0E0E0"/>
<path d="M106.36 30.6129C106.36 29.1495 105.781 27.746 104.749 26.7107C103.718 25.6755 102.318 25.0932 100.859 25.0918C100.32 25.0925 99.7848 25.1713 99.2688 25.3256C99.3543 24.7646 99.3968 24.1979 99.396 23.6305C99.396 20.5299 98.1675 17.5564 95.9809 15.364C93.7942 13.1716 90.8284 11.94 87.736 11.94C87.0158 11.9398 86.2971 12.0074 85.5895 12.1419C84.441 10.2483 82.7092 8.78063 80.6557 7.96046C78.6022 7.14028 76.3382 7.01209 74.2057 7.59523C72.0731 8.17837 70.1875 9.44118 68.8336 11.1931C67.4797 12.945 66.731 15.0909 66.7003 17.307H66.5307C65.279 17.2771 64.0339 17.4986 62.8688 17.9582C61.7036 18.4179 60.6419 19.1065 59.7461 19.9836C58.8503 20.8607 58.1384 21.9085 57.6524 23.0655C57.1664 24.2224 56.916 25.4651 56.916 26.7205C56.916 27.9759 57.1664 29.2186 57.6524 30.3755C58.1384 31.5324 58.8503 32.5803 59.7461 33.4573C60.6419 34.3344 61.7036 35.023 62.8688 35.4827C64.0339 35.9424 65.279 36.1638 66.5307 36.134H101.007C102.441 36.0952 103.804 35.4963 104.804 34.4649C105.804 33.4335 106.362 32.0513 106.36 30.6129Z" fill="#F0F0F0"/>
<path d="M77.3795 31.0376V41.7982H86.1298V31.0376H93.2583L81.752 21.292L70.251 31.0376H77.3795Z" fill="#E0E0E0"/>
<path d="M110.754 57.4853V43.0156H154.945V57.3365" stroke="#E6E6E6" stroke-miterlimit="10"/>
<path d="M133.501 29.3799V57.4424" stroke="#E6E6E6" stroke-miterlimit="10"/>
<path d="M141.023 23.8701H125.992C125.644 23.8701 125.361 24.1532 125.361 24.5025V33.467C125.361 33.8162 125.644 34.0993 125.992 34.0993H141.023C141.371 34.0993 141.654 33.8162 141.654 33.467V24.5025C141.654 24.1532 141.371 23.8701 141.023 23.8701Z" fill="#F0F0F0"/>
<path d="M140.864 25.0703H126.145C126.023 25.0703 125.923 25.1702 125.923 25.2935V33.4662C125.923 33.5895 126.023 33.6894 126.145 33.6894H140.864C140.986 33.6894 141.086 33.5895 141.086 33.4662V25.2935C141.086 25.1702 140.986 25.0703 140.864 25.0703Z" fill="#E0E0E0"/>
<path d="M118.27 56.1729H103.239C102.891 56.1729 102.608 56.456 102.608 56.8052V65.7697C102.608 66.1189 102.891 66.4021 103.239 66.4021H118.27C118.618 66.4021 118.901 66.1189 118.901 65.7697V56.8052C118.901 56.456 118.618 56.1729 118.27 56.1729Z" fill="#F0F0F0"/>
<path d="M118.111 57.374H103.393C103.27 57.374 103.17 57.4739 103.17 57.5972V65.7699C103.17 65.8932 103.27 65.9931 103.393 65.9931H118.111C118.234 65.9931 118.333 65.8932 118.333 65.7699V57.5972C118.333 57.4739 118.234 57.374 118.111 57.374Z" fill="#E0E0E0"/>
<path d="M141.023 56.1729H125.992C125.644 56.1729 125.361 56.456 125.361 56.8052V65.7697C125.361 66.1189 125.644 66.4021 125.992 66.4021H141.023C141.371 66.4021 141.654 66.1189 141.654 65.7697V56.8052C141.654 56.456 141.371 56.1729 141.023 56.1729Z" fill="#F0F0F0"/>
<path d="M140.864 57.374H126.145C126.023 57.374 125.923 57.4739 125.923 57.5972V65.7699C125.923 65.8932 126.023 65.9931 126.145 65.9931H140.864C140.986 65.9931 141.086 65.8932 141.086 65.7699V57.5972C141.086 57.4739 140.986 57.374 140.864 57.374Z" fill="#E0E0E0"/>
<path d="M162.497 56.1729H147.467C147.118 56.1729 146.836 56.456 146.836 56.8052V65.7697C146.836 66.1189 147.118 66.4021 147.467 66.4021H162.497C162.846 66.4021 163.128 66.1189 163.128 65.7697V56.8052C163.128 56.456 162.846 56.1729 162.497 56.1729Z" fill="#F0F0F0"/>
<path d="M162.339 57.374H147.621C147.498 57.374 147.398 57.4739 147.398 57.5972V65.7699C147.398 65.8932 147.498 65.9931 147.621 65.9931H162.339C162.462 65.9931 162.562 65.8932 162.562 65.7699V57.5972C162.562 57.4739 162.462 57.374 162.339 57.374Z" fill="#E0E0E0"/>
<path d="M133.198 38.6316L129.128 42.7122C128.96 42.8803 128.96 43.1529 129.128 43.321L133.198 47.4016C133.365 47.5697 133.637 47.5697 133.805 47.4016L137.875 43.321C138.042 43.1529 138.042 42.8803 137.875 42.7122L133.805 38.6316C133.637 38.4635 133.365 38.4635 133.198 38.6316Z" fill="#E0E0E0"/>
<path opacity="0.8" d="M47.2178 35.9746H36.6125C36.3578 35.9746 36.1514 36.1816 36.1514 36.4369V42.4363C36.1514 42.6916 36.3578 42.8986 36.6125 42.8986H47.2178C47.4724 42.8986 47.6789 42.6916 47.6789 42.4363V36.4369C47.6789 36.1816 47.4724 35.9746 47.2178 35.9746Z" fill="#E0E0E0"/>
<path d="M39.1243 50.8691H30.7238C30.4691 50.8691 30.2627 51.0761 30.2627 51.3314V55.6941C30.2627 55.9495 30.4691 56.1564 30.7238 56.1564H39.1243C39.379 56.1564 39.5854 55.9495 39.5854 55.6941V51.3314C39.5854 51.0761 39.379 50.8691 39.1243 50.8691Z" fill="#E0E0E0"/>
<path d="M53.2708 50.8691H44.8703C44.6156 50.8691 44.4092 51.0761 44.4092 51.3314V55.6941C44.4092 55.9495 44.6156 56.1564 44.8703 56.1564H53.2708C53.5254 56.1564 53.7319 55.9495 53.7319 55.6941V51.3314C53.7319 51.0761 53.5254 50.8691 53.2708 50.8691Z" fill="#E0E0E0"/>
<path d="M44.5724 62.0605H40.6027C40.348 62.0605 40.1416 62.2675 40.1416 62.5229V66.115C40.1416 66.3703 40.348 66.5773 40.6027 66.5773H44.5724C44.8271 66.5773 45.0335 66.3703 45.0335 66.115V62.5229C45.0335 62.2675 44.8271 62.0605 44.5724 62.0605Z" fill="#E0E0E0"/>
<path d="M50.7843 62.0605H46.8146C46.56 62.0605 46.3535 62.2675 46.3535 62.5229V66.115C46.3535 66.3703 46.56 66.5773 46.8146 66.5773H50.7843C51.039 66.5773 51.2454 66.3703 51.2454 66.115V62.5229C51.2454 62.2675 51.039 62.0605 50.7843 62.0605Z" fill="#E0E0E0"/>
<path d="M57.0021 62.0605H53.0324C52.7777 62.0605 52.5713 62.2675 52.5713 62.5229V66.115C52.5713 66.3703 52.7777 66.5773 53.0324 66.5773H57.0021C57.2567 66.5773 57.4632 66.3703 57.4632 66.115V62.5229C57.4632 62.2675 57.2567 62.0605 57.0021 62.0605Z" fill="#E0E0E0"/>
<path d="M30.1945 62.0605H26.2248C25.9701 62.0605 25.7637 62.2675 25.7637 62.5229V66.115C25.7637 66.3703 25.9701 66.5773 26.2248 66.5773H30.1945C30.4491 66.5773 30.6556 66.3703 30.6556 66.115V62.5229C30.6556 62.2675 30.4491 62.0605 30.1945 62.0605Z" fill="#E0E0E0"/>
<path d="M36.9357 62.0605H32.966C32.7113 62.0605 32.5049 62.2675 32.5049 62.5229V66.115C32.5049 66.3703 32.7113 66.5773 32.966 66.5773H36.9357C37.1903 66.5773 37.3968 66.3703 37.3968 66.115V62.5229C37.3968 62.2675 37.1903 62.0605 36.9357 62.0605Z" fill="#E0E0E0"/>
<path d="M48.5368 50.8692H49.0668V47.1495H42.1768V42.8984H41.6468V47.1495H34.7568V50.8692H35.2868V47.6809H48.5368V50.8692Z" fill="#E0E0E0"/>
<path d="M34.7572 59.3719H27.8672V62.0288H28.3972V59.9033H34.7572V62.0288H35.2872V56.1836H34.7572V59.3719Z" fill="#E0E0E0"/>
<path d="M49.0677 59.9033V56.1836H48.5377V59.9033H42.1777V62.0288H42.7077V60.4347H48.5377V62.0288H49.0677V60.4347H54.8977V62.0288H55.4277V59.9033H49.0677Z" fill="#E0E0E0"/>
<path d="M201.93 37.638V41.4746L203.891 41.6606C204.154 42.9182 204.65 44.115 205.353 45.189L204.092 46.7141L206.784 49.4135L208.306 48.1488C209.376 48.8564 210.57 49.354 211.825 49.6155L212 51.571H215.805L215.991 49.6048C217.246 49.3434 218.44 48.8457 219.51 48.1382L221.031 49.4029L223.723 46.7035L222.467 45.1943C223.171 44.1203 223.667 42.9235 223.93 41.6659L225.891 41.4799V37.6646L223.93 37.4786C223.668 36.2224 223.172 35.0271 222.467 33.9555L223.729 32.4304L221.036 29.731L219.515 30.9904C218.444 30.285 217.25 29.7875 215.996 29.5237L215.81 27.5576H212L211.814 29.5237C210.56 29.7875 209.366 30.285 208.295 30.9904L206.774 29.731L204.081 32.4304L205.343 33.9555C204.639 35.0271 204.142 36.2224 203.88 37.4786L201.93 37.638ZM213.913 34.3806C214.933 34.3806 215.93 34.684 216.779 35.2524C217.627 35.8207 218.288 36.6285 218.678 37.5736C219.068 38.5187 219.17 39.5586 218.97 40.5617C218.771 41.5648 218.279 42.486 217.558 43.2089C216.836 43.9318 215.916 44.4238 214.916 44.6227C213.915 44.8216 212.878 44.7185 211.936 44.3263C210.994 43.9342 210.189 43.2706 209.623 42.4197C209.057 41.5687 208.755 40.5685 208.756 39.5457C208.757 38.1763 209.301 36.8633 210.267 35.895C211.232 34.9267 212.542 34.382 213.908 34.3806H213.913Z" fill="#F5F5F5"/>
<path d="M204.384 65.4932C205.366 65.286 206.301 64.8948 207.14 64.3401L208.332 65.3338L210.452 63.2083L209.466 62.0127C210.017 61.1715 210.405 60.2342 210.611 59.2495L212.148 59.1007V56.109L210.611 55.9655C210.406 54.9804 210.018 54.0429 209.466 53.2023L210.452 52.0067L208.332 49.8811L207.14 50.8695C206.301 50.3165 205.366 49.927 204.384 49.7217L204.241 48.1807H201.257L201.114 49.7217C200.131 49.927 199.196 50.3165 198.358 50.8695L197.16 49.9024L195.04 52.0279L196.026 53.2235C195.474 54.0642 195.086 55.0017 194.881 55.9867L193.344 56.1302V59.1219L194.881 59.2707C195.087 60.2555 195.475 61.1928 196.026 62.0339L195.04 63.2189L197.16 65.3445L198.352 64.3508C199.19 64.9054 200.125 65.2966 201.108 65.5039L201.251 67.0396H204.235L204.384 65.4932ZM198.707 57.6181C198.706 56.816 198.943 56.0316 199.386 55.3641C199.83 54.6966 200.461 54.1761 201.2 53.8685C201.939 53.5608 202.752 53.4797 203.537 53.6356C204.322 53.7914 205.043 54.1771 205.609 54.744C206.175 55.3108 206.561 56.0332 206.717 56.8198C206.874 57.6065 206.794 58.422 206.488 59.1631C206.182 59.9043 205.664 60.5378 204.998 60.9836C204.333 61.4293 203.551 61.6673 202.751 61.6673C201.68 61.6673 200.652 61.2408 199.894 60.4816C199.135 59.7224 198.709 58.6925 198.707 57.6181Z" fill="#F5F5F5"/>
<path d="M197.727 49.3018L198.729 50.1307L200.504 48.3559L199.672 47.3516C200.137 46.6455 200.464 45.8575 200.637 45.0294L201.924 44.9072V42.3991L200.637 42.2768C200.464 41.4487 200.137 40.6608 199.672 39.9547L200.504 38.9504L198.75 37.1755L197.748 38.0045C197.045 37.5396 196.261 37.2115 195.437 37.0374L195.315 35.7461H192.808L192.687 37.0374C191.861 37.2104 191.075 37.5385 190.37 38.0045L189.369 37.1755L187.599 38.9504L188.425 39.9547C187.962 40.6611 187.637 41.449 187.466 42.2768L186.173 42.3991V44.9072L187.466 45.0294C187.637 45.8572 187.962 46.6451 188.425 47.3516L187.577 48.3825L189.348 50.1573L190.349 49.3283C191.053 49.7947 191.839 50.1213 192.665 50.2901L192.787 51.5867H195.294L195.416 50.2901C196.242 50.1121 197.027 49.7766 197.727 49.3018ZM190.646 43.6531C190.646 42.9805 190.845 42.323 191.218 41.7637C191.59 41.2044 192.12 40.7685 192.74 40.5111C193.36 40.2537 194.042 40.1864 194.7 40.3176C195.358 40.4488 195.962 40.7727 196.437 41.2483C196.911 41.724 197.234 42.3299 197.365 42.9897C197.496 43.6494 197.429 44.3332 197.172 44.9546C196.915 45.576 196.48 46.1072 195.923 46.4809C195.365 46.8545 194.709 47.054 194.038 47.054C193.138 47.054 192.276 46.6957 191.64 46.0579C191.003 45.4201 190.646 44.5551 190.646 43.6531Z" fill="#F5F5F5"/>
<path d="M232.877 142.985H197.287V166.191H232.877V142.985Z" fill="#F5F5F5"/>
<path d="M231.568 147.337H198.586V165.032H231.568V147.337Z" fill="#E0E0E0"/>
<path d="M225.674 149.979H201.272V150.738H225.674V149.979Z" fill="#F5F5F5"/>
<path d="M212.98 152.312H201.272V153.071H212.98V152.312Z" fill="#F5F5F5"/>
<path d="M216.017 154.644H201.272V155.403H216.017V154.644Z" fill="#F5F5F5"/>
<path d="M206.466 156.977H201.272V157.736H206.466V156.977Z" fill="#F5F5F5"/>
<path d="M204.638 159.304H201.272V160.064H204.638V159.304Z" fill="#F5F5F5"/>
<path d="M50.662 142.854L25.3389 142.969L25.4097 158.629L50.7329 158.513L50.662 142.854Z" fill="#EBEBEB"/>
<path d="M35.0545 154.691C34.9423 154.692 34.8328 154.656 34.7418 154.59L30.1255 151.206C30.0587 151.157 30.0043 151.093 29.9666 151.019C29.9288 150.945 29.9088 150.863 29.9082 150.78C29.9074 150.697 29.9262 150.615 29.963 150.54C29.9998 150.465 30.0537 150.4 30.1202 150.35L34.71 146.923C34.8232 146.839 34.9649 146.803 35.1041 146.824C35.2432 146.845 35.3684 146.921 35.452 147.034C35.5357 147.148 35.5709 147.29 35.5501 147.429C35.5292 147.569 35.4539 147.694 35.3407 147.778L31.3286 150.775L35.3672 153.73C35.4581 153.796 35.5257 153.889 35.5604 153.996C35.5951 154.103 35.5951 154.218 35.5603 154.325C35.5256 154.432 35.4579 154.525 35.367 154.591C35.2761 154.657 35.1667 154.692 35.0545 154.691Z" fill="#FAFAFA"/>
<path d="M41.0538 154.66C40.9707 154.661 40.8885 154.642 40.8139 154.605C40.7393 154.568 40.6744 154.514 40.6245 154.447C40.5831 154.391 40.553 154.327 40.5362 154.259C40.5193 154.192 40.516 154.121 40.5263 154.052C40.5366 153.983 40.5605 153.917 40.5964 153.857C40.6324 153.797 40.6798 153.745 40.7358 153.703L44.7479 150.706L40.7093 147.752C40.5962 147.668 40.5209 147.542 40.5 147.403C40.4791 147.263 40.5144 147.121 40.598 147.008C40.6817 146.894 40.8068 146.819 40.946 146.798C41.0851 146.777 41.2269 146.812 41.34 146.896L45.9563 150.276C46.0239 150.325 46.0787 150.39 46.1165 150.465C46.1543 150.54 46.1739 150.622 46.1736 150.706C46.1736 150.789 46.1545 150.87 46.1177 150.944C46.0809 151.018 46.0275 151.082 45.9616 151.131L41.3718 154.559C41.2794 154.626 41.1679 154.661 41.0538 154.66Z" fill="#FAFAFA"/>
<path d="M36.8458 154.686C36.7861 154.685 36.727 154.675 36.6709 154.654C36.5391 154.607 36.4312 154.51 36.3706 154.384C36.31 154.257 36.3018 154.112 36.3476 153.979L38.7273 147.156C38.7503 147.09 38.786 147.03 38.8324 146.978C38.8788 146.925 38.9349 146.883 38.9977 146.853C39.0604 146.822 39.1285 146.805 39.1981 146.801C39.2677 146.797 39.3373 146.807 39.4031 146.83C39.4688 146.853 39.5295 146.888 39.5814 146.935C39.6334 146.981 39.6757 147.038 39.706 147.101C39.7363 147.164 39.7539 147.232 39.7578 147.302C39.7618 147.371 39.752 147.441 39.729 147.507L37.3493 154.33C37.3129 154.435 37.2447 154.525 37.1545 154.589C37.0642 154.653 36.9563 154.687 36.8458 154.686Z" fill="#FAFAFA"/>
<path d="M132.5 198C189.254 198 235.262 195.307 235.262 191.985C235.262 188.663 189.254 185.97 132.5 185.97C75.7463 185.97 29.7383 188.663 29.7383 191.985C29.7383 195.307 75.7463 198 132.5 198Z" fill="#F5F5F5"/>
<path d="M177.222 191.984H181.117L186.417 162.63H182.522L177.222 191.984Z" fill="#263238"/>
<path opacity="0.2" d="M177.222 191.984H181.117L186.417 162.63H182.522L177.222 191.984Z" fill="white"/>
<path opacity="0.2" d="M177.222 191.984H180.057L185.357 162.63H182.522L177.222 191.984Z" fill="white"/>
<path d="M166.256 171.361H181.833C181.946 171.362 182.058 171.34 182.162 171.297C182.267 171.254 182.362 171.191 182.441 171.111C182.521 171.031 182.585 170.936 182.627 170.831C182.67 170.726 182.692 170.614 182.691 170.501C182.692 170.387 182.67 170.275 182.627 170.17C182.585 170.065 182.521 169.97 182.441 169.89C182.362 169.81 182.267 169.747 182.162 169.704C182.058 169.661 181.946 169.639 181.833 169.64H166.256C166.143 169.639 166.031 169.661 165.927 169.704C165.822 169.747 165.727 169.81 165.647 169.89C165.568 169.97 165.504 170.065 165.461 170.17C165.418 170.275 165.397 170.387 165.397 170.501C165.397 170.614 165.418 170.726 165.461 170.831C165.504 170.936 165.568 171.031 165.647 171.111C165.727 171.191 165.822 171.254 165.927 171.297C166.031 171.34 166.143 171.362 166.256 171.361Z" fill="#263238"/>
<path d="M164.523 181.192H180.105C180.333 181.19 180.551 181.099 180.712 180.936C180.873 180.774 180.963 180.554 180.963 180.326C180.962 180.098 180.871 179.88 180.71 179.719C180.55 179.557 180.332 179.466 180.105 179.465H164.523C164.295 179.466 164.078 179.557 163.917 179.719C163.756 179.88 163.665 180.098 163.664 180.326C163.664 180.554 163.754 180.774 163.915 180.936C164.076 181.099 164.294 181.19 164.523 181.192Z" fill="#263238"/>
<path d="M161.321 191.984H165.217L170.517 162.63H166.621L161.321 191.984Z" fill="#263238"/>
<path opacity="0.2" d="M161.321 191.984H165.217L170.517 162.63H166.621L161.321 191.984Z" fill="white"/>
<path opacity="0.2" d="M161.321 191.984H164.157L169.457 162.63H166.621L161.321 191.984Z" fill="white"/>
<path d="M197.547 191.984H193.652L188.352 162.63H192.247L197.547 191.984Z" fill="#263238"/>
<path opacity="0.4" d="M197.547 191.984H193.652L188.352 162.63H192.247L197.547 191.984Z" fill="white"/>
<path opacity="0.2" d="M196.487 191.984H193.652L188.352 162.63H191.187L196.487 191.984Z" fill="white"/>
<path d="M190.704 171.361H175.122C174.895 171.361 174.676 171.271 174.515 171.109C174.354 170.948 174.264 170.729 174.264 170.501C174.264 170.272 174.354 170.053 174.515 169.892C174.676 169.73 174.895 169.64 175.122 169.64H190.704C190.932 169.64 191.15 169.73 191.311 169.892C191.472 170.053 191.563 170.272 191.563 170.501C191.563 170.729 191.472 170.948 191.311 171.109C191.15 171.271 190.932 171.361 190.704 171.361Z" fill="#263238"/>
<path d="M192.432 181.192H176.856C176.742 181.192 176.63 181.169 176.526 181.126C176.421 181.082 176.326 181.018 176.247 180.938C176.167 180.857 176.104 180.762 176.061 180.657C176.018 180.552 175.996 180.439 175.997 180.326C175.997 180.097 176.088 179.878 176.249 179.717C176.41 179.556 176.628 179.465 176.856 179.465H192.432C192.66 179.465 192.878 179.556 193.039 179.717C193.201 179.878 193.291 180.097 193.291 180.326C193.292 180.439 193.27 180.552 193.227 180.657C193.184 180.762 193.121 180.857 193.041 180.938C192.962 181.018 192.867 181.082 192.762 181.126C192.658 181.169 192.546 181.192 192.432 181.192Z" fill="#263238"/>
<path opacity="0.2" d="M190.704 171.361H175.122C174.895 171.361 174.676 171.271 174.515 171.109C174.354 170.948 174.264 170.729 174.264 170.501C174.264 170.272 174.354 170.053 174.515 169.892C174.676 169.73 174.895 169.64 175.122 169.64H190.704C190.932 169.64 191.15 169.73 191.311 169.892C191.472 170.053 191.563 170.272 191.563 170.501C191.563 170.729 191.472 170.948 191.311 171.109C191.15 171.271 190.932 171.361 190.704 171.361Z" fill="white"/>
<path opacity="0.2" d="M192.432 181.192H176.856C176.742 181.192 176.63 181.169 176.526 181.126C176.421 181.082 176.326 181.018 176.247 180.938C176.167 180.857 176.104 180.762 176.061 180.657C176.018 180.552 175.996 180.439 175.997 180.326C175.997 180.097 176.088 179.878 176.249 179.717C176.41 179.556 176.628 179.465 176.856 179.465H192.432C192.66 179.465 192.878 179.556 193.039 179.717C193.201 179.878 193.291 180.097 193.291 180.326C193.292 180.439 193.27 180.552 193.227 180.657C193.184 180.762 193.121 180.857 193.041 180.938C192.962 181.018 192.867 181.082 192.762 181.126C192.658 181.169 192.546 181.192 192.432 181.192Z" fill="white"/>
<path d="M181.647 191.984H177.751L172.451 162.63H176.347L181.647 191.984Z" fill="#263238"/>
<path opacity="0.4" d="M181.647 191.984H177.751L172.451 162.63H176.347L181.647 191.984Z" fill="white"/>
<path opacity="0.2" d="M180.587 191.984H177.751L172.451 162.63H175.287L180.587 191.984Z" fill="white"/>
<path d="M193.763 161.228H165.625C165.277 161.228 164.994 161.511 164.994 161.86V163.396C164.994 163.745 165.277 164.028 165.625 164.028H193.763C194.111 164.028 194.393 163.745 194.393 163.396V161.86C194.393 161.511 194.111 161.228 193.763 161.228Z" fill="#263238"/>
<path opacity="0.2" d="M176.32 161.228H165.625C165.277 161.228 164.994 161.511 164.994 161.86V163.396C164.994 163.745 165.277 164.028 165.625 164.028H176.32C176.669 164.028 176.951 163.745 176.951 163.396V161.86C176.951 161.511 176.669 161.228 176.32 161.228Z" fill="white"/>
<path d="M103.006 168.391H67.416V191.596H103.006V168.391Z" fill="#407BFF"/>
<path opacity="0.6" d="M103.006 168.391H67.416V191.596H103.006V168.391Z" fill="white"/>
<path d="M101.707 172.743H68.7197V190.438H101.707V172.743Z" fill="#407BFF"/>
<path d="M95.8084 175.389H71.4072V176.149H95.8084V175.389Z" fill="white"/>
<path d="M83.1149 177.722H71.4072V178.482H83.1149V177.722Z" fill="white"/>
<path d="M86.1518 180.049H71.4072V180.809H86.1518V180.049Z" fill="white"/>
<path d="M76.6012 182.382H71.4072V183.142H76.6012V182.382Z" fill="white"/>
<path d="M74.7727 184.715H71.4072V185.475H74.7727V184.715Z" fill="white"/>
<path d="M146.984 191.984H118.015L122.917 153.368H142.082L146.984 191.984Z" fill="#407BFF"/>
<path opacity="0.6" d="M146.984 191.984H118.015L121.37 165.563L122.922 153.368H142.077L144.366 171.361L146.984 191.984Z" fill="white"/>
<path opacity="0.1" d="M144.366 171.361L121.369 165.564L122.922 153.368H142.076L144.366 171.361Z" fill="black"/>
<path d="M200.801 58.1494H64.1988C63.7396 58.1494 63.285 58.2402 62.8609 58.4165C62.4368 58.5928 62.0516 58.8512 61.7272 59.177C61.4028 59.5027 61.1456 59.8894 60.9704 60.3148C60.7952 60.7403 60.7054 61.1962 60.7061 61.6566V154.373C60.7061 155.302 61.074 156.192 61.729 156.849C62.3841 157.506 63.2724 157.875 64.1988 157.875H200.801C201.727 157.875 202.616 157.506 203.271 156.849C203.926 156.192 204.294 155.302 204.294 154.373V61.6672C204.296 61.206 204.207 60.7489 204.032 60.3222C203.858 59.8955 203.601 59.5076 203.276 59.1807C202.952 58.8538 202.566 58.5945 202.141 58.4175C201.716 58.2405 201.261 58.1494 200.801 58.1494Z" fill="#407BFF"/>
<path opacity="0.7" d="M200.801 58.1494H64.1988C63.7396 58.1494 63.285 58.2402 62.8609 58.4165C62.4368 58.5928 62.0516 58.8512 61.7272 59.177C61.4028 59.5027 61.1456 59.8894 60.9704 60.3148C60.7952 60.7403 60.7054 61.1962 60.7061 61.6566V154.373C60.7061 155.302 61.074 156.192 61.729 156.849C62.3841 157.506 63.2724 157.875 64.1988 157.875H200.801C201.727 157.875 202.616 157.506 203.271 156.849C203.926 156.192 204.294 155.302 204.294 154.373V61.6672C204.296 61.206 204.207 60.7489 204.032 60.3222C203.858 59.8955 203.601 59.5076 203.276 59.1807C202.952 58.8538 202.566 58.5945 202.141 58.4175C201.716 58.2405 201.261 58.1494 200.801 58.1494Z" fill="white"/>
<path d="M199.699 61.582H65.3066V150.988H199.699V61.582Z" fill="#407BFF"/>
<path d="M156.827 189.083H108.167C107.863 189.083 107.616 189.33 107.616 189.636V191.384C107.616 191.689 107.863 191.937 108.167 191.937H156.827C157.131 191.937 157.378 191.689 157.378 191.384V189.636C157.378 189.33 157.131 189.083 156.827 189.083Z" fill="#407BFF"/>
<path opacity="0.7" d="M156.827 189.083H108.167C107.863 189.083 107.616 189.33 107.616 189.636V191.384C107.616 191.689 107.863 191.937 108.167 191.937H156.827C157.131 191.937 157.378 191.689 157.378 191.384V189.636C157.378 189.33 157.131 189.083 156.827 189.083Z" fill="white"/>
<path opacity="0.2" d="M199.699 61.667H65.3066V74.9942H199.699V61.667Z" fill="black"/>
<path opacity="0.4" d="M122.896 75.1484H65.3066V150.983H122.896V75.1484Z" fill="white"/>
<path d="M179.013 94.4961V95.8246H177.688" stroke="white" stroke-miterlimit="10"/>
<path d="M174.889 95.8252H131.482" stroke="white" stroke-miterlimit="10" stroke-dasharray="5.28 5.28"/>
<path d="M130.083 95.8246H128.758V94.4961" stroke="white" stroke-miterlimit="10"/>
<path d="M128.758 92.0892V69.2236" stroke="white" stroke-miterlimit="10" stroke-dasharray="4.53 4.53"/>
<path d="M128.758 68.0169V66.6885H130.083" stroke="white" stroke-miterlimit="10"/>
<path d="M132.882 66.6943H176.289" stroke="white" stroke-miterlimit="10" stroke-dasharray="5.28 5.28"/>
<path d="M177.688 66.6885H179.013V68.0169" stroke="white" stroke-miterlimit="10"/>
<path d="M179.013 70.4248V93.2904" stroke="white" stroke-miterlimit="10" stroke-dasharray="4.53 4.53"/>
<path d="M179.855 65.8496H178.175V67.5341H179.855V65.8496Z" fill="#407BFF" stroke="white" stroke-miterlimit="10"/>
<path d="M179.855 94.9795H178.175V96.664H179.855V94.9795Z" fill="#407BFF" stroke="white" stroke-miterlimit="10"/>
<path d="M129.595 65.8496H127.915V67.5341H129.595V65.8496Z" fill="#407BFF" stroke="white" stroke-miterlimit="10"/>
<path d="M129.595 94.9795H127.915V96.664H129.595V94.9795Z" fill="#407BFF" stroke="white" stroke-miterlimit="10"/>
<path d="M154.728 65.8496H153.048V67.5341H154.728V65.8496Z" fill="#407BFF" stroke="white" stroke-miterlimit="10"/>
<path d="M154.728 94.9795H153.048V96.664H154.728V94.9795Z" fill="#407BFF" stroke="white" stroke-miterlimit="10"/>
<path d="M179.855 80.4141H178.175V82.0986H179.855V80.4141Z" fill="#407BFF" stroke="white" stroke-miterlimit="10"/>
<path d="M129.595 80.4141H127.915V82.0986H129.595V80.4141Z" fill="#407BFF" stroke="white" stroke-miterlimit="10"/>
<path opacity="0.7" d="M174.449 76.4766H162.148C161.595 76.4766 161.146 76.9262 161.146 77.4809V80.7808C161.146 81.3355 161.595 81.7851 162.148 81.7851H174.449C175.003 81.7851 175.451 81.3355 175.451 80.7808V77.4809C175.451 76.9262 175.003 76.4766 174.449 76.4766Z" fill="white"/>
<path opacity="0.7" d="M153.249 76.4766H140.948C140.395 76.4766 139.946 76.9262 139.946 77.4809V80.7808C139.946 81.3355 140.395 81.7851 140.948 81.7851H153.249C153.803 81.7851 154.251 81.3355 154.251 80.7808V77.4809C154.251 76.9262 153.803 76.4766 153.249 76.4766Z" fill="white"/>
<path opacity="0.7" d="M125.96 141.088H113.659C113.106 141.088 112.657 141.538 112.657 142.092V145.392C112.657 145.947 113.106 146.396 113.659 146.396H125.96C126.513 146.396 126.962 145.947 126.962 145.392V142.092C126.962 141.538 126.513 141.088 125.96 141.088Z" fill="white"/>
<path d="M190.826 66.4072H195.299" stroke="white" stroke-width="1.5" stroke-linecap="round" stroke-linejoin="round"/>
<path d="M190.826 68.5332H195.299" stroke="white" stroke-width="1.5" stroke-linecap="round" stroke-linejoin="round"/>
<path d="M190.826 70.6582H195.299" stroke="white" stroke-width="1.5" stroke-linecap="round" stroke-linejoin="round"/>
<path opacity="0.5" d="M119.493 86.9082H74.417V132.103H119.493V86.9082Z" fill="white"/>
<path d="M93.2852 90.6016V129.584" stroke="#407BFF" stroke-miterlimit="10"/>
<path d="M112.725 129.589C107.568 129.589 102.622 127.535 98.9748 123.879C95.328 120.223 93.2793 115.264 93.2793 110.093V110.093C93.2793 104.923 95.3275 99.9657 98.9733 96.3104C102.619 92.6551 107.564 90.6016 112.72 90.6016V90.6016" stroke="#407BFF" stroke-miterlimit="10"/>
<path d="M113.568 89.7617H111.888V91.4462H113.568V89.7617Z" fill="white" stroke="#407BFF" stroke-miterlimit="10"/>
<path d="M113.568 128.744H111.888V130.429H113.568V128.744Z" fill="white" stroke="#407BFF" stroke-miterlimit="10"/>
<path d="M94.1274 109.253H92.4473V110.937H94.1274V109.253Z" fill="white" stroke="#407BFF" stroke-miterlimit="10"/>
<path d="M93.7198 90.6008C93.7198 90.687 93.6943 90.7712 93.6465 90.8429C93.5988 90.9145 93.5309 90.9704 93.4515 91.0034C93.3721 91.0363 93.2847 91.045 93.2004 91.0281C93.1161 91.0113 93.0387 90.9698 92.9779 90.9089C92.9171 90.848 92.8757 90.7703 92.8589 90.6858C92.8422 90.6013 92.8508 90.5136 92.8837 90.434C92.9166 90.3544 92.9723 90.2863 93.0437 90.2385C93.1152 90.1906 93.1992 90.165 93.2852 90.165C93.4 90.1664 93.5098 90.2128 93.591 90.2942C93.6722 90.3756 93.7184 90.4856 93.7198 90.6008Z" fill="white" stroke="#407BFF" stroke-miterlimit="10"/>
<path d="M93.7198 129.589C93.7198 129.675 93.6944 129.759 93.6469 129.831C93.5994 129.902 93.5318 129.958 93.4527 129.991C93.3736 130.024 93.2865 130.033 93.2023 130.017C93.1182 130 93.0407 129.959 92.9797 129.899C92.9188 129.839 92.877 129.761 92.8596 129.677C92.8422 129.593 92.8501 129.506 92.8822 129.426C92.9142 129.346 92.9691 129.278 93.0399 129.229C93.1107 129.181 93.1942 129.154 93.2799 129.153C93.3374 129.153 93.3945 129.163 93.4478 129.185C93.5012 129.207 93.5497 129.239 93.5906 129.279C93.6315 129.32 93.664 129.368 93.6862 129.421C93.7084 129.474 93.7198 129.531 93.7198 129.589Z" fill="white" stroke="#407BFF" stroke-miterlimit="10"/>
<path opacity="0.7" d="M167.973 141.731H154.325C153.279 141.731 152.276 141.315 151.537 140.573C150.797 139.832 150.382 138.826 150.382 137.778C150.382 136.729 150.797 135.724 151.537 134.982C152.276 134.241 153.279 133.824 154.325 133.824H167.973C169.018 133.824 170.021 134.241 170.761 134.982C171.5 135.724 171.916 136.729 171.916 137.778C171.916 138.826 171.5 139.832 170.761 140.573C170.021 141.315 169.018 141.731 167.973 141.731Z" fill="white"/>
<path opacity="0.7" d="M179.961 108.015H137.799C137.57 108.015 137.351 107.924 137.189 107.761C137.027 107.599 136.936 107.378 136.936 107.149C136.94 106.922 137.033 106.706 137.194 106.548C137.356 106.39 137.574 106.302 137.799 106.304H179.956C180.069 106.303 180.181 106.325 180.286 106.368C180.391 106.411 180.486 106.474 180.566 106.554C180.646 106.634 180.71 106.729 180.754 106.834C180.797 106.939 180.82 107.051 180.82 107.165C180.815 107.391 180.723 107.606 180.563 107.765C180.402 107.924 180.186 108.013 179.961 108.015Z" fill="white"/>
<path opacity="0.7" d="M179.961 114.323H137.799C137.686 114.323 137.574 114.302 137.469 114.259C137.364 114.216 137.269 114.152 137.189 114.072C137.109 113.992 137.045 113.897 137.001 113.793C136.958 113.688 136.936 113.575 136.936 113.462C136.936 113.232 137.027 113.012 137.189 112.849C137.351 112.687 137.57 112.596 137.799 112.596H179.956C180.185 112.596 180.405 112.687 180.567 112.849C180.729 113.012 180.82 113.232 180.82 113.462C180.82 113.69 180.729 113.909 180.568 114.071C180.407 114.232 180.189 114.323 179.961 114.323Z" fill="white"/>
<path opacity="0.7" d="M179.961 120.651H153.7C153.472 120.651 153.253 120.56 153.091 120.399C152.929 120.238 152.837 120.019 152.836 119.79C152.836 119.56 152.927 119.34 153.089 119.178C153.251 119.015 153.471 118.924 153.7 118.924H179.956C180.185 118.924 180.405 119.015 180.567 119.178C180.729 119.34 180.82 119.56 180.82 119.79C180.819 120.018 180.728 120.236 180.567 120.397C180.406 120.558 180.189 120.649 179.961 120.651Z" fill="white"/>
<path opacity="0.4" d="M72.5303 65.3604H69.5518V68.3467H72.5303V65.3604Z" fill="black"/>
<path opacity="0.4" d="M77.5552 65.3604H76.103C75.6815 65.3604 75.3398 65.7029 75.3398 66.1255V67.5815C75.3398 68.0042 75.6815 68.3467 76.103 68.3467H77.5552C77.9768 68.3467 78.3185 68.0042 78.3185 67.5815V66.1255C78.3185 65.7029 77.9768 65.3604 77.5552 65.3604Z" fill="black"/>
<path opacity="0.4" d="M82.7493 65.3604H82.4949C81.7426 65.3604 81.1328 65.9718 81.1328 66.726V66.9811C81.1328 67.7353 81.7426 68.3467 82.4949 68.3467H82.7493C83.5016 68.3467 84.1114 67.7353 84.1114 66.9811V66.726C84.1114 65.9718 83.5016 65.3604 82.7493 65.3604Z" fill="black"/>
<path opacity="0.9" d="M78.6783 138.984V137.821L78.0847 137.767C77.9999 137.39 77.8492 137.03 77.6395 136.705L78.0211 136.242L77.1996 135.419L76.7385 135.801C76.4141 135.591 76.0553 135.44 75.6785 135.355L75.6255 134.76H74.4648L74.4065 135.355C74.0298 135.44 73.671 135.591 73.3465 135.801L72.8854 135.419L72.0639 136.242L72.4455 136.705C72.2315 137.028 72.0804 137.388 72.0003 137.767L71.4014 137.821V138.984L72.0003 139.043C72.0808 139.422 72.2318 139.782 72.4455 140.106L72.0639 140.573L72.8854 141.391L73.3465 141.009C73.6687 141.223 74.0283 141.374 74.4065 141.455L74.4648 142.056H75.6255L75.6785 141.455C76.0567 141.375 76.4164 141.223 76.7385 141.009L77.1996 141.391L78.0211 140.573L77.6395 140.106C77.851 139.781 78.0019 139.421 78.0847 139.043L78.6783 138.984ZM75.0266 139.978C74.7121 139.978 74.4047 139.884 74.1432 139.709C73.8817 139.534 73.6779 139.285 73.5576 138.994C73.4373 138.703 73.4058 138.382 73.4671 138.073C73.5285 137.764 73.6799 137.48 73.9023 137.257C74.1246 137.034 74.4079 136.882 74.7164 136.82C75.0248 136.759 75.3445 136.79 75.635 136.911C75.9256 137.032 76.1739 137.236 76.3486 137.498C76.5233 137.76 76.6166 138.069 76.6166 138.384C76.6166 138.807 76.4491 139.212 76.1509 139.511C75.8527 139.81 75.4483 139.978 75.0266 139.978Z" fill="white"/>
<path opacity="0.6" d="M83.3851 142.268V141.375L82.9187 141.327C82.8554 141.028 82.7368 140.743 82.5689 140.487L82.8657 140.121L82.2244 139.478L81.864 139.781C81.6073 139.612 81.3215 139.493 81.0213 139.43L80.9789 138.957H80.0673L80.0249 139.43C79.7247 139.493 79.439 139.612 79.1822 139.781L78.8218 139.478L78.1752 140.121L78.4773 140.487C78.3095 140.743 78.1908 141.028 78.1275 141.327L77.6611 141.375V142.283L78.1275 142.331C78.1908 142.631 78.3095 142.915 78.4773 143.171L78.1752 143.538L78.8218 144.181L79.1822 143.878C79.439 144.046 79.7247 144.165 80.0249 144.228L80.0673 144.696H80.9789L81.0213 144.228C81.3215 144.165 81.6073 144.046 81.864 143.878L82.2244 144.181L82.8657 143.538L82.5689 143.171C82.7368 142.915 82.8554 142.631 82.9187 142.331L83.3851 142.268ZM80.5231 143.049C80.2787 143.05 80.0394 142.978 79.8356 142.843C79.6318 142.707 79.4727 142.514 79.3785 142.288C79.2842 142.062 79.259 141.813 79.306 141.572C79.3531 141.332 79.4703 141.111 79.6428 140.937C79.8152 140.763 80.0353 140.645 80.275 140.597C80.5146 140.548 80.7632 140.573 80.9892 140.666C81.2151 140.76 81.4083 140.918 81.5442 141.122C81.6802 141.326 81.7527 141.565 81.7527 141.811C81.7534 141.973 81.7221 142.134 81.6607 142.284C81.5992 142.434 81.5087 142.571 81.3945 142.686C81.2802 142.801 81.1444 142.892 80.9949 142.954C80.8454 143.017 80.685 143.049 80.5231 143.049Z" fill="white"/>
<path opacity="0.4" d="M78.6783 144.855V144.09L78.2861 144.053C78.2336 143.801 78.1347 143.562 77.9946 143.346L78.249 143.043L77.719 142.512L77.4116 142.762C77.1968 142.621 76.9578 142.522 76.7067 142.469L76.6696 142.076H75.8958L75.8587 142.469C75.6077 142.522 75.3687 142.621 75.1538 142.762L74.8464 142.512L74.3164 143.043L74.5708 143.346C74.4308 143.562 74.3319 143.801 74.2793 144.053L73.8818 144.09V144.855L74.2793 144.893C74.3309 145.146 74.4298 145.388 74.5708 145.605L74.3164 145.907L74.8464 146.439L75.1538 146.184C75.3672 146.328 75.6067 146.429 75.8587 146.481L75.8958 146.875H76.659L76.6961 146.481C76.9482 146.429 77.1876 146.328 77.401 146.184L77.7084 146.439L78.2384 145.907L77.984 145.605C78.125 145.388 78.2239 145.146 78.2755 144.893L78.6783 144.855ZM76.2774 145.509C76.0742 145.504 75.8771 145.439 75.7107 145.322C75.5442 145.205 75.4159 145.041 75.3417 144.851C75.2675 144.661 75.2508 144.454 75.2936 144.255C75.3365 144.056 75.4369 143.873 75.5825 143.731C75.728 143.589 75.9121 143.493 76.1119 143.455C76.3116 143.417 76.518 143.439 76.7053 143.518C76.8926 143.597 77.0525 143.73 77.1649 143.9C77.2774 144.07 77.3374 144.269 77.3374 144.473C77.3375 144.611 77.3099 144.748 77.2563 144.875C77.2027 145.003 77.1242 145.118 77.0254 145.215C76.9266 145.312 76.8096 145.387 76.6811 145.438C76.5526 145.488 76.4154 145.512 76.2774 145.509Z" fill="white"/>
<path d="M178.705 66.3916L180.952 72.4175L184.71 68.6447L178.705 66.3916Z" fill="#407BFF"/>
<path d="M182.325 69.1779L181.485 70.0195L183.348 71.887L184.187 71.0453L182.325 69.1779Z" fill="#407BFF"/>
<path opacity="0.4" d="M184.71 68.6447L178.705 66.3916L180.952 72.4175L182.415 70.9509L183.343 71.8861L184.18 71.0465L183.252 70.1113L184.71 68.6447Z" fill="white"/>
<path d="M86.6338 87.9279L92.2889 90.0534L89.3262 87.083C89.2165 87.1462 89.0892 87.1716 88.9638 87.1553C88.8384 87.139 88.7218 87.0818 88.6319 86.9926C88.5222 86.8827 88.4606 86.7336 88.4606 86.5782C88.4606 86.4227 88.5222 86.2736 88.6319 86.1637C88.7415 86.0538 88.8902 85.992 89.0453 85.992C89.2003 85.992 89.349 86.0538 89.4587 86.1637C89.5476 86.2538 89.6046 86.3707 89.6209 86.4965C89.6372 86.6222 89.6118 86.7499 89.5488 86.8598L92.5115 89.8302L90.3915 84.1604L88.5153 84.5748L88.4464 83.9L88.0913 83.5439L86.0137 85.627L86.3688 85.983L87.0472 86.0521L86.6338 87.9279Z" fill="#263238"/>
<path opacity="0.2" d="M86.6338 87.9279L92.2889 90.0534L89.3262 87.083C89.2165 87.1462 89.0892 87.1716 88.9638 87.1553C88.8384 87.139 88.7218 87.0818 88.6319 86.9926C88.5222 86.8827 88.4606 86.7336 88.4606 86.5782C88.4606 86.4227 88.5222 86.2736 88.6319 86.1637C88.7415 86.0538 88.8902 85.992 89.0453 85.992C89.2003 85.992 89.349 86.0538 89.4587 86.1637C89.5476 86.2538 89.6046 86.3707 89.6209 86.4965C89.6372 86.6222 89.6118 86.7499 89.5488 86.8598L92.5115 89.8302L90.3915 84.1604L88.5153 84.5748L88.4464 83.9L88.0913 83.5439L86.0137 85.627L86.3688 85.983L87.0472 86.0521L86.6338 87.9279Z" fill="white"/>
<g opacity="0.1">
<path opacity="0.1" d="M84.9594 61.582L65.042 136.199V61.582H84.9594Z" fill="white"/>
<path opacity="0.1" d="M107.437 61.582L83.5715 150.988H67.1309L90.9914 61.582H107.437Z" fill="white"/>
<path opacity="0.1" d="M131.34 61.582L107.474 150.988H100.038L123.904 61.582H131.34Z" fill="white"/>
<path opacity="0.1" d="M153.351 61.582L129.485 150.988H126.824L150.69 61.582H153.351Z" fill="white"/>
</g>
<path d="M234.207 81.3291C236.088 83.5025 245.66 101.989 243.81 106.304C241.961 110.619 226.623 105.645 226.623 105.645L227.54 99.5504C227.54 99.5504 233.497 99.7629 234.069 99.1943C234.642 98.6257 226.008 89.9854 226.008 89.9854L234.207 81.3291Z" fill="#263238"/>
<g opacity="0.2">
<path opacity="0.2" d="M243.8 106.304C243.572 106.804 243.176 107.206 242.681 107.441L242.374 107.58H242.332C242.237 107.62 242.139 107.653 242.04 107.681C241.609 107.819 241.165 107.912 240.715 107.957L240.328 107.994C240.137 107.994 239.947 108.021 239.751 108.026H239.221C234.08 108.026 226.601 105.608 226.601 105.608L227.518 99.5131C227.518 99.5131 233.475 99.7257 234.048 99.1571C234.186 99.019 233.777 98.4026 233.083 97.563C231.398 95.4852 228.022 92.0259 226.628 90.6124L225.997 89.9748L234.207 81.3291C236.088 83.4812 245.66 101.968 243.8 106.304Z" fill="white"/>
</g>
<path opacity="0.2" d="M242.692 107.425L242.384 107.564H242.342C242.247 107.604 242.149 107.637 242.05 107.665C241.619 107.803 241.175 107.896 240.725 107.941L240.338 107.978C240.148 107.978 239.957 108.005 239.761 108.01H239.231C234.09 108.01 226.611 105.592 226.611 105.592L227.528 99.4972C227.528 99.4972 234.238 100.066 234.81 99.4972C234.916 99.274 234.174 98.5194 233.077 97.5576C231.392 95.4799 228.016 92.0206 226.622 90.6071L230.502 86.4516L233.454 86.1328C233.454 86.1328 239.989 96.7393 242.692 107.425Z" fill="black"/>
<path d="M214.867 80.7022C213.807 81.4727 213.277 82.5673 213.701 83.1465L241.706 121.858C242.125 122.437 243.328 122.278 244.388 121.507C245.448 120.737 245.978 119.637 245.554 119.063L217.549 80.3461C217.13 79.7722 215.932 79.9263 214.867 80.7022Z" fill="#263238"/>
<path opacity="0.7" d="M217.549 80.3459L245.554 119.057C245.973 119.631 245.448 120.726 244.388 121.502C243.328 122.278 242.125 122.426 241.712 121.853L213.707 83.1357C213.6 82.9339 213.552 82.7058 213.57 82.478C213.588 82.2502 213.67 82.0323 213.807 81.8497C213.95 81.5938 214.129 81.3594 214.337 81.1536C214.5 80.9854 214.677 80.8324 214.867 80.6966C215.933 79.9314 217.13 79.772 217.549 80.3459Z" fill="white"/>
<path opacity="0.3" d="M245.554 119.057C245.972 119.631 245.448 120.726 244.388 121.502C243.328 122.277 242.125 122.426 241.711 121.852C241.478 121.534 242.056 121.05 242.395 120.354L213.807 81.8602C213.95 81.6042 214.128 81.3699 214.337 81.1641L242.347 119.881C242.512 119.713 242.689 119.559 242.877 119.419C243.937 118.643 245.135 118.483 245.554 119.057Z" fill="black"/>
<path d="M211.401 79.6286C210.506 80.5851 210.198 81.7542 210.718 82.2484L245.539 114.934C246.069 115.423 247.208 115.04 248.104 114.078C248.999 113.117 249.307 111.953 248.787 111.453L213.966 78.7678C213.447 78.2842 212.297 78.6722 211.401 79.6286Z" fill="#407BFF"/>
<path opacity="0.7" d="M213.967 78.7728L248.788 111.458C249.318 111.942 249 113.116 248.104 114.078C247.208 115.04 246.058 115.417 245.539 114.934L210.718 82.248C210.576 82.0689 210.487 81.8532 210.462 81.6257C210.436 81.3983 210.475 81.1682 210.575 80.9621C210.67 80.6836 210.802 80.419 210.967 80.1756C211.098 79.9876 211.243 79.8099 211.401 79.6443C212.297 78.6718 213.447 78.2839 213.967 78.7728Z" fill="white"/>
<path opacity="0.3" d="M248.787 111.459C249.317 111.942 248.999 113.117 248.103 114.078C247.208 115.04 246.058 115.417 245.538 114.934C245.252 114.663 245.729 114.084 245.93 113.34L210.574 80.973C210.669 80.6944 210.801 80.4299 210.966 80.1865L245.793 112.877C245.921 112.689 246.064 112.511 246.222 112.346C247.118 111.352 248.268 110.97 248.787 111.459Z" fill="black"/>
<path d="M219.769 183.94L217.119 183.983C214.422 171.277 212.514 155.553 211.326 143.693C211.141 141.833 210.971 140.074 210.796 138.432C210.728 137.651 210.659 136.902 210.595 136.179C210.277 132.614 210.065 129.802 209.927 128.038C209.832 126.763 209.784 126.062 209.784 126.062H219.42L219.329 128.511L219.011 136.594L218.98 137.518L218.778 142.859L218.444 151.951C221.736 164.757 219.769 183.94 219.769 183.94Z" fill="#EBB376"/>
<path d="M241.287 183.259L238.674 183.754C233.443 170.644 228.53 153.858 225.334 142.13C224.841 140.313 224.386 138.612 223.978 137.071C223.978 136.992 223.94 136.917 223.919 136.843C223.114 133.782 222.494 131.343 222.107 129.797L221.646 127.921L231.079 126.284L231.609 130.27L232.399 136.115L232.553 137.263L233.083 141.253L234.519 151.955C239.968 164.018 241.287 183.259 241.287 183.259Z" fill="#EBB376"/>
<path opacity="0.2" d="M232.426 136.126L223.977 137.072C223.977 136.992 223.94 136.917 223.919 136.843C223.113 133.782 222.493 131.343 222.106 129.797L231.646 130.27L232.426 136.126Z" fill="black"/>
<path opacity="0.2" d="M219.308 128.51L219.011 136.593L218.979 137.517L210.817 138.426C210.749 137.645 210.68 136.896 210.616 136.173C210.298 132.607 210.086 129.796 209.948 128.032L219.308 128.51Z" fill="black"/>
<path d="M211.931 192.771C212.424 192.369 212.986 192.06 213.59 191.857C213.59 191.857 215.397 190.061 216.271 184.652L218.635 184.03C219.037 183.934 219.459 183.963 219.843 184.114C220.228 184.265 220.557 184.531 220.787 184.875C220.852 184.971 220.902 185.077 220.935 185.188C221.058 185.769 221.143 186.356 221.19 186.947C221.322 188.925 221.334 190.909 221.227 192.888H220.798L220.628 189.168C220.564 187.898 219.595 189.386 219.319 190.763C219.043 192.139 218.455 193.574 215.688 193.643C212.455 193.691 211.115 193.563 211.931 192.771Z" fill="#263238"/>
<path d="M220.872 184.95C221.025 183.685 221.073 181.485 221.073 181.485L215.815 182.07C215.815 182.07 216.451 184.573 215.927 186.454C218.577 185.726 220.872 184.95 220.872 184.95Z" fill="#263238"/>
<path d="M233.321 192.772C233.815 192.372 234.377 192.064 234.98 191.863C234.98 191.863 236.787 190.067 237.657 184.658L240.026 184.036C240.428 183.94 240.849 183.969 241.234 184.12C241.618 184.271 241.948 184.537 242.178 184.881C242.243 184.977 242.293 185.083 242.326 185.194C242.448 185.775 242.533 186.362 242.58 186.953C242.712 188.931 242.722 190.915 242.612 192.894H242.209L242.04 189.174C241.976 187.904 241.006 189.392 240.731 190.769C240.455 192.145 239.867 193.58 237.095 193.649C233.846 193.691 232.505 193.564 233.321 192.772Z" fill="#263238"/>
<path d="M242.257 184.95C242.416 183.685 242.464 181.485 242.464 181.485L237.206 182.07C237.206 182.07 237.842 184.573 237.317 186.454C239.967 185.726 242.257 184.95 242.257 184.95Z" fill="#263238"/>
<path d="M233.337 133.517L223.336 134.798L222.949 134.845L220.893 127.289L220.363 135.387L209.646 134.824C204.876 106.73 213.033 100.093 213.033 100.093L227.571 103.026C234.153 114.249 232.59 127.289 232.59 127.289L233.337 133.517Z" fill="#407BFF"/>
<path d="M219.568 65.0898C219.568 66.1951 219.08 67.0878 218.508 67.0878C217.935 67.0878 217.416 66.1951 217.416 65.0898C217.416 63.9845 217.904 63.0918 218.508 63.0918C219.112 63.0918 219.568 63.9845 219.568 65.0898Z" stroke="#263238" stroke-width="0.5" stroke-linecap="round" stroke-linejoin="round"/>
<path d="M226.75 71.764C226.711 71.8004 226.668 71.8325 226.623 71.8596C226.018 72.3219 225.328 72.6596 224.593 72.8533C222.446 73.3528 220.978 73.0553 220.019 72.0828C218.678 70.6215 218.344 68.0337 218.535 64.9091C218.568 63.6658 218.797 62.4355 219.213 61.2638C219.213 61.2638 219.213 61.216 219.213 61.2053C219.213 61.1947 219.245 61.115 219.266 61.0725C219.529 60.4116 219.953 59.8274 220.499 59.3734C221.046 58.9195 221.697 58.6102 222.393 58.474C222.997 58.3387 223.614 58.2692 224.232 58.2668C230.311 58.2189 231.403 68.3047 226.75 71.764Z" fill="#EBB376"/>
<path opacity="0.2" d="M226.622 71.8759C226.013 72.3113 225.323 72.6202 224.592 72.7845C222.446 73.284 220.978 72.9174 220.019 71.929C221.303 72.2475 222.656 72.1355 223.872 71.6102C224.321 71.4441 224.801 71.3818 225.277 71.4278C225.754 71.4738 226.213 71.6269 226.622 71.8759Z" fill="black"/>
<path d="M227.237 77.3761C227.613 79.1084 225.371 79.8151 225.371 79.8151C221.709 78.221 221.03 76.292 221.03 76.292C224.088 74.6979 223.203 70.1758 223.203 70.1758L223.823 70.484L228.185 71.3395C228.185 71.3395 226.977 73.667 226.818 74.1984C225.991 76.9882 227.237 77.3761 227.237 77.3761Z" fill="#EBB376"/>
<path d="M219.208 61.2374C219.208 61.2374 218.874 65.4885 222.918 67.3431C222.918 67.3431 224.651 71.7802 227.2 71.8386C230.682 71.9236 233.746 66.9658 232.543 61.9123C230.969 55.355 221.063 54.8236 219.208 61.2374Z" fill="#263238"/>
<path d="M220.861 66.1155C220.861 65.4512 221.391 64.33 222.451 64.4841C223.511 64.6382 224.116 67.2845 221.487 67.8743C221.089 67.9594 220.861 67.513 220.861 66.1155Z" fill="#EBB376"/>
<path d="M226.622 56.6993C226.622 56.6993 222.562 55.6685 220.315 57.3104C217.692 59.2234 216.695 61.2002 219.785 64.2716C219.785 64.2716 226.606 62.0557 228.875 62.5233C230.201 62.7915 231.502 63.1701 232.765 63.6552C233.258 59.1384 228.891 55.7747 226.622 56.6993Z" fill="#263238"/>
<path d="M220.861 65.0902C220.861 65.0902 221.921 70.0109 220.257 74.2088C220.257 74.2088 229.903 77.5619 233.258 75.7392C236.613 73.9166 233.539 67.8003 233.396 64.2719C233.252 60.7435 231.726 55.5306 226.622 56.6996C221.518 57.8687 220.861 65.0902 220.861 65.0902Z" fill="#263238"/>
<path d="M217.39 64.7715H221.465" stroke="#263238" stroke-width="0.5" stroke-linecap="round" stroke-linejoin="round"/>
<path opacity="0.2" d="M223.336 134.797L222.949 134.845L220.893 127.289C220.893 127.289 225.302 119.738 223.924 115.806C224.12 116.082 228.869 123.144 223.336 134.797Z" fill="black"/>
<path d="M215.079 76.9931C215.079 76.9931 219.929 75.2608 227.237 77.3757C234.546 79.4907 234.822 82.6099 234.822 82.6099C234.822 82.6099 230.189 93.1367 229.458 105.056L210.41 104.344C210.41 104.344 208.136 87.5199 215.079 76.9931Z" fill="#263238"/>
<path opacity="0.2" d="M234.821 82.6097C234.821 82.6097 230.189 93.1364 229.458 105.055L210.409 104.343C210.182 102.403 210.065 100.452 210.06 98.4981C210.022 95.6388 210.199 92.7808 210.59 89.9481C211.226 85.5376 212.535 80.8295 215.079 76.9717C215.079 76.9717 219.928 75.2393 227.237 77.3543C234.546 79.4692 234.821 82.6097 234.821 82.6097Z" fill="white"/>
<path opacity="0.2" d="M214.814 90.6871C214.814 90.6871 214.024 95.5334 210.044 98.5197C210.006 95.6604 210.184 92.8024 210.574 89.9697L214.814 90.6871Z" fill="black"/>
<path d="M193.768 76.6579L191.367 73.087C191.367 73.087 191.001 71.5353 190.535 71.1846C190.068 70.8339 185.457 68.8625 184.901 68.8731C184.344 68.8837 184.371 72.4759 184.901 73.087C185.431 73.6981 188.367 75.0053 189.141 75.1381C189.914 75.271 189.533 75.1381 189.533 75.1381L191.653 79.3892L193.768 76.6579Z" fill="#EBB376"/>
<path d="M215.079 76.9927C209.935 79.1524 204.973 81.7219 200.239 84.6766L192.485 74.0488C192.485 74.0488 190.397 74.6971 189.623 78.3424C189.623 78.3424 193.603 93.5454 198.776 95.0545C203.949 96.5637 214.825 90.66 214.825 90.66C214.825 90.66 217.973 82.7636 215.079 76.9927Z" fill="#263238"/>
<path opacity="0.2" d="M215.079 76.9927C209.935 79.1524 204.973 81.7219 200.239 84.6766L192.485 74.0488C192.485 74.0488 190.397 74.6971 189.623 78.3424C189.623 78.3424 193.603 93.5454 198.776 95.0545C203.949 96.5637 214.825 90.66 214.825 90.66C214.825 90.66 217.973 82.7636 215.079 76.9927Z" fill="white"/>
<path d="M219.981 76.3235C219.981 76.3235 221.672 88.4604 227.03 88.9493C232.389 89.4381 234.79 80.4471 233.883 79.3843C232.977 78.3215 226.071 76.2438 219.981 76.3235Z" fill="#263238"/>
<path opacity="0.3" d="M219.981 76.3235C219.981 76.3235 221.672 88.4604 227.03 88.9493C232.389 89.4381 234.79 80.4471 233.883 79.3843C232.977 78.3215 226.071 76.2438 219.981 76.3235Z" fill="white"/>
<path d="M29.3408 187.957H33.2681L33.5914 178.844H29.6641L29.3408 187.957Z" fill="#B97964"/>
<path d="M33.8091 187.505H29.0391C28.9605 187.504 28.884 187.53 28.8229 187.58C28.7618 187.629 28.7201 187.699 28.7052 187.776L27.9314 191.278C27.915 191.353 27.9136 191.43 27.9272 191.505C27.9408 191.58 27.9691 191.652 28.0104 191.716C28.0518 191.781 28.1055 191.836 28.1683 191.879C28.2312 191.923 28.3019 191.953 28.3766 191.969H28.5038C30.0461 191.942 31.1538 191.847 33.1042 191.847C34.302 191.847 37.8742 191.974 39.549 191.974C41.2238 191.974 41.4093 190.343 40.7362 190.194C37.7099 189.53 35.4362 188.6 34.4663 187.744C34.2853 187.584 34.0504 187.499 33.8091 187.505Z" fill="#263238"/>
<path d="M34.0802 188.053C34.0621 188.048 34.046 188.037 34.0338 188.023C34.0215 188.009 34.0137 187.991 34.0113 187.973C34.0079 187.955 34.0102 187.937 34.0178 187.921C34.0255 187.905 34.038 187.891 34.0537 187.883C34.1968 187.792 35.4635 187.011 35.8981 187.234C35.9472 187.257 35.9884 187.294 36.0167 187.34C36.045 187.387 36.059 187.44 36.0571 187.495C36.0715 187.588 36.061 187.683 36.0265 187.771C35.9921 187.859 35.9349 187.936 35.861 187.994C35.6416 188.148 35.3751 188.219 35.1084 188.196C34.7615 188.185 34.4168 188.137 34.0802 188.053ZM34.3505 187.92C34.8087 188.075 35.3089 188.051 35.7497 187.851C35.7955 187.809 35.8306 187.757 35.8519 187.698C35.8731 187.64 35.8799 187.577 35.8716 187.516C35.8716 187.441 35.8398 187.404 35.8133 187.404C35.7756 187.385 35.7336 187.376 35.6914 187.378C35.2142 187.472 34.7592 187.656 34.3505 187.92Z" fill="#407BFF"/>
<path d="M34.0523 188.068C34.0385 188.059 34.0273 188.046 34.0198 188.031C34.0124 188.016 34.009 188 34.0099 187.983C34.0099 187.93 34.1106 186.798 34.5399 186.426C34.5925 186.379 34.655 186.344 34.7229 186.324C34.7907 186.303 34.8622 186.298 34.9321 186.309C35.0026 186.31 35.0707 186.335 35.1256 186.379C35.1804 186.423 35.2187 186.485 35.2342 186.554C35.3137 186.968 34.5293 187.834 34.1212 188.058H34.0788L34.0523 188.068ZM34.683 186.543C34.408 186.898 34.2472 187.328 34.2219 187.776C34.6247 187.468 35.1229 186.814 35.0752 186.559C35.0752 186.559 35.0752 186.463 34.9374 186.463H34.895C34.8169 186.463 34.7413 186.491 34.683 186.543Z" fill="#407BFF"/>
<path opacity="0.2" d="M29.6647 178.849H33.592L33.4224 183.551H29.4951L29.6647 178.849Z" fill="black"/>
<path d="M49.5508 188.254L53.6053 188.685L54.3632 179.927L50.314 179.497L49.5508 188.254Z" fill="#B97964"/>
<path d="M54.0282 187.377H49.29C49.212 187.378 49.1364 187.405 49.0758 187.454C49.0151 187.503 48.9729 187.572 48.9561 187.648L48.1823 191.155C48.1633 191.229 48.1591 191.306 48.1699 191.381C48.1807 191.456 48.2063 191.528 48.2453 191.594C48.2843 191.659 48.3358 191.716 48.3968 191.761C48.4579 191.806 48.5273 191.839 48.601 191.857H48.7282C50.2705 191.83 51.3782 191.734 53.3339 191.734C54.5264 191.734 58.1039 191.857 59.7734 191.857C61.4429 191.857 61.6337 190.225 60.9606 190.076C57.9343 189.418 55.6606 188.482 54.6907 187.627C54.5086 187.464 54.2724 187.375 54.0282 187.377Z" fill="#263238"/>
<path d="M54.2991 187.925C54.2811 187.92 54.265 187.91 54.2528 187.896C54.2405 187.881 54.2327 187.864 54.2302 187.845C54.2264 187.827 54.229 187.808 54.2378 187.791C54.2465 187.775 54.2607 187.762 54.278 187.755C54.4158 187.665 55.6824 186.883 56.117 187.112C56.1662 187.133 56.2076 187.169 56.236 187.215C56.2644 187.26 56.2784 187.313 56.276 187.367C56.2889 187.461 56.2782 187.556 56.2449 187.644C56.2116 187.732 56.1567 187.811 56.0852 187.872C55.8619 188.021 55.5949 188.09 55.3273 188.069C54.9805 188.058 54.6358 188.01 54.2991 187.925ZM54.5694 187.798C55.0284 187.952 55.5285 187.925 55.9686 187.723C56.0149 187.682 56.0502 187.629 56.0715 187.571C56.0928 187.513 56.0993 187.45 56.0905 187.388C56.0905 187.314 56.0587 187.282 56.0322 187.282C55.9972 187.261 55.9564 187.252 55.9156 187.255C55.4431 187.348 54.993 187.532 54.5906 187.798H54.5694Z" fill="#407BFF"/>
<path d="M54.2782 187.946C54.2637 187.937 54.2517 187.925 54.2434 187.91C54.2351 187.895 54.2306 187.878 54.2305 187.861C54.2305 187.803 54.3312 186.676 54.787 186.304C54.8409 186.259 54.9034 186.225 54.9708 186.204C55.0381 186.183 55.109 186.175 55.1792 186.182C55.2499 186.182 55.3185 186.206 55.3736 186.251C55.4286 186.295 55.4666 186.357 55.4813 186.427C55.5608 186.846 54.7764 187.713 54.3683 187.93H54.3259L54.2782 187.946ZM54.9036 186.416C54.6287 186.768 54.4678 187.197 54.4425 187.643C54.8453 187.341 55.3435 186.682 55.2958 186.427C55.2958 186.427 55.2958 186.331 55.158 186.331H55.1209C55.0408 186.333 54.9639 186.363 54.9036 186.416Z" fill="#407BFF"/>
<path opacity="0.2" d="M50.3135 179.497L54.3627 179.927L53.9652 184.444L49.916 184.014L50.3135 179.497Z" fill="black"/>
<path d="M31.2707 98.8906H52.1156C54.0925 109.736 60.2935 148.108 55.8256 182.318L48.7713 181.442C48.7713 181.442 49.4232 136.056 43.201 119.269C42.4855 128.25 41.611 137.804 40.8955 142.889C39.0829 155.404 35.2033 182.743 35.2033 182.743H28.043C28.043 182.743 29.5111 156.567 30.1895 144.271C30.9315 130.907 31.2707 101.633 31.2707 98.8906Z" fill="#263238"/>
<path d="M56.6519 183.945L47.9229 182.643L48.1932 180.22L57.272 181.415L56.6519 183.945Z" fill="#407BFF"/>
<path d="M36.0885 182.792H27.6191V180.257L36.4065 180.087L36.0885 182.792Z" fill="#407BFF"/>
<path opacity="0.2" d="M43.2217 119.254C44.2445 122.196 45.0227 125.217 45.5484 128.287C46.1314 120.317 43.7994 111.814 43.7994 111.814L43.2217 119.254Z" fill="black"/>
<path d="M30.6928 102.525L30.2158 105.049C30.2158 105.049 44.7961 106.941 53.8644 106.888L53.5464 105.156L30.6928 102.525Z" fill="#407BFF"/>
<path d="M60.2832 80.6695C60.2832 80.6695 65.3235 96.6111 68.7632 97.6738C72.2029 98.7366 80.9532 85.5635 80.9532 85.5635C80.9532 85.5635 88.8131 85.4891 89.1629 84.9524C89.5127 84.4157 87.1224 78.8627 86.55 78.8574C85.9776 78.8521 79.13 81.4347 78.8703 81.8704C78.6106 82.3061 70.7507 89.8412 70.3903 89.618C70.0299 89.3948 67.0407 79.9202 67.0407 79.9202L60.2832 80.6695Z" fill="#B97964"/>
<path d="M81.9912 84.703C82.0538 84.6902 82.1157 84.6742 82.1767 84.6551L82.0866 84.5967C82.0576 84.6346 82.0257 84.6701 81.9912 84.703Z" fill="#B97964"/>
<path d="M57.4209 78.831L58.0357 79.9628L60.903 85.2767L61.5019 86.3767L69.5526 83.5709C69.5526 83.5709 66.203 71.0408 65.0423 69.7549L57.4209 78.831Z" fill="#407BFF"/>
<path opacity="0.4" d="M57.4209 78.831L58.0357 79.9628L60.903 85.2767L61.5019 86.3767L69.5526 83.5709C69.5526 83.5709 66.203 71.0408 65.0423 69.7549L57.4209 78.831Z" fill="white"/>
<path opacity="0.2" d="M58.0352 79.9627L60.9025 85.2766C62.678 81.7854 62.1639 77.0029 62.1639 77.0029L58.0352 79.9627Z" fill="black"/>
<path d="M65.0416 69.7599C63.5248 68.0038 61.6676 66.5753 59.5829 65.5613C57.4983 64.5473 55.2297 63.969 52.9152 63.8615C45.0288 63.4895 42.5484 64.276 39.6652 66.8585C35.4517 70.6314 30.21 103.115 30.21 103.115C37.8999 105.262 45.8883 106.132 53.8586 105.692C53.8586 105.692 53.954 96.6587 56.8001 90.5956C60.0054 83.8415 62.7587 76.8808 65.0416 69.7599Z" fill="#407BFF"/>
<path opacity="0.4" d="M30.21 103.115C37.8999 105.262 45.888 106.135 53.8586 105.698C53.8586 105.698 53.8586 104.582 54.0123 102.876C54.0759 102.069 54.1713 101.123 54.3038 100.102C54.4363 99.0822 54.6271 97.9184 54.8338 96.76C54.961 96.1383 55.1094 95.5112 55.2684 94.8895C55.638 93.4134 56.1419 91.9744 56.7736 90.5906C57.1234 89.8467 57.4626 89.108 57.7912 88.3854C58.3583 87.1207 58.8989 85.8932 59.3812 84.7188C60.4412 82.2478 61.3422 79.9894 62.0948 78.0127C62.6248 76.5939 63.1018 75.3239 63.4887 74.2345C63.918 73.0176 64.2572 72.0186 64.5063 71.2747C64.8296 70.2916 64.9886 69.7549 64.9886 69.7549C64.7252 69.4244 64.442 69.1103 64.1406 68.8144C61.1827 65.8912 57.272 64.1364 53.1272 63.8725H52.8622C46.852 63.5908 43.9847 63.9788 41.6845 65.3232C40.9428 65.7682 40.2484 66.2882 39.6122 66.8748C39.0139 67.5249 38.5428 68.282 38.2236 69.1066C37.244 71.3906 36.4396 73.7462 35.8174 76.1528L35.4676 77.4441C34.9376 79.4155 34.4394 81.5145 33.9624 83.6401C33.8246 84.2459 33.6921 84.8516 33.5596 85.4521C33.3635 86.3767 33.1674 87.296 32.9819 88.2047C32.5049 90.495 32.0756 92.7162 31.6993 94.7142C31.1693 97.5837 30.74 99.9855 30.4856 101.479C30.3107 102.531 30.21 103.115 30.21 103.115ZM53.371 64.1647C53.9027 64.1782 54.4334 64.219 54.961 64.287C57.081 64.5739 60.3405 66.2797 60.261 67.0874C60.1815 67.8951 58.9413 69.9569 55.7719 69.4574C54.6676 69.253 53.6195 68.8146 52.6979 68.1714C50.9489 67.013 49.6769 65.4454 49.5497 64.9353C49.3907 64.3242 51.4471 64.1169 53.3763 64.1754L53.371 64.1647Z" fill="white"/>
<path d="M46.577 74.9941C46.577 74.9941 42.4006 85.1277 41.542 93.5502L52.8363 94.9955C52.8363 94.9955 57.9031 81.3017 58.9525 77.0187C58.9525 77.0081 49.9319 76.1047 46.577 74.9941Z" fill="#407BFF"/>
<path opacity="0.4" d="M56.748 77.4014L58.3168 77.5608L57.1667 78.4535L56.748 77.4014Z" fill="white"/>
<path d="M50.5996 64.9614C51.4529 67.4058 54.6276 68.5217 56.2918 68.6811C56.9047 68.778 57.5323 68.6704 58.0782 68.3746C58.624 68.0789 59.0578 67.6115 59.3128 67.0445C59.3128 67.0445 57.4101 66.0933 57.6009 65.0252C57.7357 64.372 58.0027 63.7535 58.3853 63.2078C58.5834 62.8963 58.7993 62.5964 59.0319 62.3098L55.9844 55.7578C55.306 58.5954 53.2231 64.0474 50.5996 64.9614Z" fill="#B97964"/>
<path opacity="0.2" d="M55.8628 58.7822C54.4106 61.9705 56.4617 64.1652 57.6012 65.0048C57.736 64.3516 58.0029 63.7331 58.3856 63.1874L55.8628 58.7822Z" fill="black"/>
<path d="M66.0814 50.2744C66.0814 50.2744 67.0566 55.6733 64.2475 57.8361C61.4385 59.9988 61.1523 49.9131 61.1523 49.9131L66.0814 50.2744Z" fill="#B97964"/>
<path opacity="0.4" d="M66.0814 50.2744C66.0814 50.2744 67.0566 55.6733 64.2475 57.8361C61.4385 59.9988 61.1523 49.9131 61.1523 49.9131L66.0814 50.2744Z" fill="black"/>
<path d="M56.0374 62.379C56.6637 63.2544 57.5592 63.8996 58.5866 64.2154C59.6139 64.5312 60.7162 64.5002 61.7243 64.1273C63.041 63.6638 64.1312 62.7133 64.7718 61.4704C64.8619 61.3056 64.9414 61.125 65.0209 60.939C66.3353 57.5859 66.6109 49.4026 63.0705 49.7055C60.1449 49.9552 57.2829 49.0518 55.7883 51.5866C55.3614 52.3076 55.1107 53.1198 55.0569 53.9565C54.7389 57.8676 54.3679 60.1366 56.0374 62.379Z" fill="#B97964"/>
<path d="M60.7434 55.8914C60.6798 56.1996 60.8282 56.4813 61.0349 56.5131C61.2416 56.545 61.443 56.3059 61.4907 55.9818C61.5384 55.6576 61.4006 55.3919 61.1992 55.3653C60.9978 55.3388 60.7911 55.5726 60.7434 55.8914Z" fill="#263238"/>
<path d="M64.2899 56.3963C64.2263 56.7045 64.38 56.9861 64.5814 57.018C64.7828 57.0499 64.9895 56.8108 65.0319 56.4866C65.0743 56.1625 64.9471 55.8968 64.7404 55.8649C64.5337 55.833 64.3323 56.0987 64.2899 56.3963Z" fill="#263238"/>
<path d="M63.1393 56.3906C63.378 57.4044 63.7543 58.3806 64.2576 59.292C64.0201 59.4157 63.7587 59.4859 63.4914 59.4979C63.2241 59.5098 62.9574 59.4631 62.71 59.3611L63.1393 56.3906Z" fill="#A24E3F"/>
<path d="M59.811 54.5842C59.8434 54.5939 59.8777 54.5946 59.9104 54.5862C59.9431 54.5778 59.9729 54.5605 59.9965 54.5364C60.1588 54.3688 60.3577 54.2412 60.5775 54.1638C60.7973 54.0863 61.032 54.0611 61.2632 54.09C61.3116 54.0996 61.3619 54.09 61.4034 54.0633C61.4449 54.0365 61.4744 53.9947 61.4858 53.9466C61.4912 53.9228 61.4918 53.8982 61.4875 53.8742C61.4831 53.8502 61.474 53.8274 61.4606 53.807C61.4473 53.7867 61.4299 53.7692 61.4097 53.7558C61.3894 53.7423 61.3666 53.7331 61.3427 53.7287C61.0547 53.6864 60.7608 53.7124 60.4847 53.8047C60.2085 53.897 59.9578 54.053 59.7527 54.2601C59.7184 54.2957 59.6992 54.3434 59.6992 54.3929C59.6992 54.4425 59.7184 54.4901 59.7527 54.5258C59.7695 54.5477 59.7891 54.5674 59.811 54.5842Z" fill="#263238"/>
<path d="M65.9861 55.3865C66.0202 55.3996 66.058 55.3996 66.0921 55.3865C66.1157 55.3805 66.1378 55.3697 66.1569 55.3546C66.1761 55.3396 66.1919 55.3208 66.2034 55.2993C66.2148 55.2778 66.2217 55.2541 66.2235 55.2298C66.2254 55.2054 66.2221 55.181 66.214 55.158C66.13 54.8747 65.9792 54.6157 65.7744 54.403C65.5697 54.1903 65.3169 54.0301 65.0374 53.9358C65.0141 53.9286 64.9896 53.9262 64.9653 53.9287C64.941 53.9313 64.9175 53.9387 64.8962 53.9506C64.8749 53.9626 64.8562 53.9787 64.8413 53.9981C64.8264 54.0175 64.8156 54.0397 64.8095 54.0634C64.7964 54.1106 64.8024 54.1611 64.8263 54.2038C64.8501 54.2466 64.8898 54.2783 64.9367 54.2919C65.156 54.3727 65.3535 54.5037 65.5135 54.6743C65.6736 54.8449 65.7918 55.0506 65.8589 55.2749C65.8694 55.3025 65.8865 55.3272 65.9087 55.3466C65.9308 55.3661 65.9574 55.3798 65.9861 55.3865Z" fill="#263238"/>
<path d="M60.251 59.499C60.251 59.499 60.9029 60.9019 62.2332 60.8488" stroke="#263238" stroke-width="0.5" stroke-linecap="round" stroke-linejoin="round"/>
<path d="M58.5606 49.5674L58.6136 51.2997C58.3114 51.4097 58.062 51.6303 57.9155 51.9172C57.769 52.2041 57.7362 52.5359 57.8239 52.846C58.2373 54.3339 57.2144 56.4914 56.0325 57.2778C56.0325 57.2778 56.0325 56.6508 55.5025 56.7464C54.9725 56.8421 54.8082 60.1048 55.6827 61.7468C55.6827 61.7468 53.8118 60.0198 53.2553 56.5286C52.7253 53.303 52.826 51.2572 53.2553 49.7109L58.5606 49.5674Z" fill="#B97964"/>
<path opacity="0.4" d="M58.5606 49.5674L58.6136 51.2997C58.3114 51.4097 58.062 51.6303 57.9155 51.9172C57.769 52.2041 57.7362 52.5359 57.8239 52.846C58.2373 54.3339 57.2144 56.4914 56.0325 57.2778C56.0325 57.2778 56.0325 56.6508 55.5025 56.7464C54.9725 56.8421 54.8082 60.1048 55.6827 61.7468C55.6827 61.7468 53.8118 60.0198 53.2553 56.5286C52.7253 53.303 52.826 51.2572 53.2553 49.7109L58.5606 49.5674Z" fill="black"/>
<path d="M52.9579 51.6452C54.8493 51.8309 56.7581 51.7143 58.613 51.2998C63.9501 50.2371 66.2238 52.2032 66.2238 52.2032C66.5931 51.8702 66.8841 51.4591 67.0756 50.9996C67.2672 50.5401 67.3546 50.0437 67.3315 49.5463C67.1778 48.0052 65.0419 47.7449 65.0419 47.7449C65.0419 47.7449 64.4006 46.0072 62.9855 45.4812C61.5704 44.9551 60.15 46.2729 60.15 46.2729C60.15 46.2729 58.3851 44.5619 56.3287 45.0507C55.6365 45.1932 55.014 45.5696 54.5654 46.1171C54.1168 46.6645 53.8692 47.3499 53.8642 48.0584C53.8642 48.0584 51.4527 48.3028 51.5057 49.5463C51.5587 50.7897 52.9579 51.6452 52.9579 51.6452Z" fill="#263238"/>
<path d="M61.1569 58.1492C62.1141 58.1492 62.89 57.2523 62.89 56.1459C62.89 55.0395 62.1141 54.1426 61.1569 54.1426C60.1998 54.1426 59.4238 55.0395 59.4238 56.1459C59.4238 57.2523 60.1998 58.1492 61.1569 58.1492Z" stroke="#263238" stroke-width="0.5" stroke-linecap="round" stroke-linejoin="round"/>
<path d="M67.2468 56.4486C67.199 56.7813 67.057 57.0932 66.8375 57.3472C66.618 57.6012 66.3303 57.7866 66.0087 57.8813C65.6871 57.9761 65.3451 57.9762 65.0234 57.8816C64.7018 57.787 64.414 57.6018 64.1944 57.3479C63.9747 57.094 63.8325 56.7822 63.7846 56.4496C63.7366 56.1169 63.7851 55.7775 63.9241 55.4717C64.0631 55.1659 64.2868 54.9066 64.5686 54.7246C64.8504 54.5426 65.1785 54.4457 65.5137 54.4453C66.0074 54.4834 66.4661 54.7151 66.7906 55.0901C67.115 55.4651 67.2789 55.9533 67.2468 56.4486Z" stroke="#263238" stroke-width="0.5" stroke-linecap="round" stroke-linejoin="round"/>
<path d="M62.8857 56.3909C62.8857 56.3909 63.4475 56.0402 63.7814 56.4493" stroke="#263238" stroke-width="0.5" stroke-linecap="round" stroke-linejoin="round"/>
<path d="M59.4244 56.1511L56.3875 55.742C55.9895 55.6905 55.5873 55.7994 55.2692 56.0449L55.1367 56.1511" stroke="#263238" stroke-width="0.5" stroke-linecap="round" stroke-linejoin="round"/>
<path d="M52.9265 56.8846C53.2311 57.8192 53.8923 58.5949 54.7656 59.0421C55.9263 59.6213 56.7531 58.6435 56.6365 57.416C56.5305 56.3214 55.8044 54.6741 54.5165 54.6103C54.2416 54.6011 53.9688 54.6608 53.7227 54.7839C53.4766 54.9071 53.265 55.0899 53.1071 55.3157C52.9493 55.5415 52.8501 55.8033 52.8185 56.0772C52.787 56.3512 52.8241 56.6287 52.9265 56.8846Z" fill="#B97964"/>
<path opacity="0.2" d="M33.5605 85.4684C38.5637 83.3854 42.5175 74.7822 42.5175 74.7822L39.6767 73.0605L35.8183 76.1692L35.4685 77.4604C34.9385 79.4319 34.4403 81.5309 33.9633 83.6564C33.8255 84.2622 33.693 84.868 33.5605 85.4684Z" fill="black"/>
<path d="M61.1152 86.3822L69.7436 83.1992L69.9927 83.9378L61.359 87.0199L61.1152 86.3822Z" fill="#407BFF"/>
<path d="M38.759 108.25L13.748 104.273L11.302 119.74L36.3129 123.716L38.759 108.25Z" fill="#407BFF"/>
<path d="M22.5944 110.161L17.5117 112.802L21.5291 116.888" stroke="white" stroke-width="2" stroke-linecap="round" stroke-linejoin="round"/>
<path d="M27.4492 117.83L32.5266 115.189L28.5145 111.103" stroke="white" stroke-width="2" stroke-linecap="round" stroke-linejoin="round"/>
<path d="M23.2998 117.17L26.7448 110.82" stroke="white" stroke-width="2" stroke-linecap="round" stroke-linejoin="round"/>
<path d="M36.6818 68.2461C36.6818 68.2461 27.2531 77.7313 25.9705 79.5753C24.6879 81.4192 22.2287 101.862 22.2287 101.862C22.2287 101.862 21.6987 102.042 21.6669 102.483C21.6351 102.924 21.5821 108.663 21.6669 108.929C21.7517 109.195 26.0871 111.878 26.7284 111.241C27.3697 110.603 28.2601 104.104 28.2601 104.104L25.9705 101.862C25.9705 101.862 28.6205 86.8074 30.3006 84.3684C31.9807 81.9293 38.8283 76.7111 38.8283 76.7111L36.6818 68.2461Z" fill="#B97964"/>
<path d="M43.9265 64.4248C45.2992 67.3421 44.2551 73.4849 41.7217 75.653C39.0412 77.8817 36.2075 79.9184 33.2417 81.748L28.6201 75.6743C28.6201 75.6743 33.5385 70.8599 36.5171 68.0861C38.543 66.117 41.135 64.8362 43.9265 64.4248Z" fill="#407BFF"/>
<path opacity="0.4" d="M43.9265 64.4248C45.2992 67.3421 44.2551 73.4849 41.7217 75.653C39.0412 77.8817 36.2075 79.9184 33.2417 81.748L28.6201 75.6743C28.6201 75.6743 33.5385 70.8599 36.5171 68.0861C38.543 66.117 41.135 64.8362 43.9265 64.4248Z" fill="white"/>
<path d="M28.6203 75.2812L28.0479 76.0677L32.8762 82.3965L33.5599 81.9023L28.6203 75.2812Z" fill="#407BFF"/>
</svg>
