<svg width="233" height="228" viewBox="0 0 233 228" fill="none" xmlns="http://www.w3.org/2000/svg">
<path d="M226.107 88.4483C200.243 44.1608 130.085 59.9331 115.757 38.3941C108.418 27.3806 100.209 14.5792 88.301 7.93187C76.9503 1.56567 63.79 -0.667803 52.3172 0.170413C11.3454 3.16783 -6.02297 39.8159 1.84665 80.0609C12.3536 133.744 59.9534 188.583 116.5 188.965C146.079 189.188 174.341 178.578 196.47 163.654L196.963 163.32C219.092 148.259 245.858 122.258 226.107 88.4483Z" fill="#3CCFFE"/>
<path opacity="0.7" d="M226.107 88.4483C200.243 44.1608 130.085 59.9331 115.757 38.3941C108.418 27.3806 100.209 14.5792 88.301 7.93187C76.9503 1.56567 63.79 -0.667803 52.3172 0.170413C11.3454 3.16783 -6.02297 39.8159 1.84665 80.0609C12.3536 133.744 59.9534 188.583 116.5 188.965C146.079 189.188 174.341 178.578 196.47 163.654L196.963 163.32C219.092 148.259 245.858 122.258 226.107 88.4483Z" fill="white"/>
<path d="M25.3279 91.6675H22.4517C19.3653 91.6675 16.4053 92.8932 14.2229 95.0751C12.0405 97.2569 10.8145 100.216 10.8145 103.302V167.144C10.8145 170.23 12.0405 173.189 14.2229 175.371C16.4053 177.553 19.3653 178.778 22.4517 178.778H61.9112C64.9976 178.778 67.9576 177.553 70.14 175.371C72.3224 173.189 73.5485 170.23 73.5485 167.144" stroke="#263238" stroke-width="1.1" stroke-linecap="round" stroke-linejoin="round" stroke-dasharray="4.41 4.41"/>
<path d="M70.3325 31.4276V18.8172C70.3325 16.9303 71.0812 15.1205 72.4142 13.7848C73.7473 12.4491 75.5559 11.6966 77.4433 11.6924H128.758C130.648 11.6924 132.46 12.443 133.797 13.7792C135.133 15.1154 135.884 16.9276 135.884 18.8172" stroke="#263238" stroke-width="1.1" stroke-linecap="round" stroke-linejoin="round" stroke-dasharray="4.41 4.41"/>
<path d="M116.5 228C172.629 228 218.131 221.644 218.131 213.804C218.131 205.963 172.629 199.607 116.5 199.607C60.3709 199.607 14.8691 205.963 14.8691 213.804C14.8691 221.644 60.3709 228 116.5 228Z" fill="#3CCFFE"/>
<path opacity="0.5" d="M116.5 228C172.629 228 218.131 221.644 218.131 213.804C218.131 205.963 172.629 199.607 116.5 199.607C60.3709 199.607 14.8691 205.963 14.8691 213.804C14.8691 221.644 60.3709 228 116.5 228Z" fill="white"/>
<path d="M212.304 48.3458V143.871C212.304 146.993 211.064 149.988 208.856 152.197C206.648 154.405 203.652 155.647 200.529 155.648H32.4705C29.3471 155.647 26.352 154.405 24.1439 152.197C21.9357 149.988 20.6953 146.993 20.6953 143.871V48.3458C20.6953 48.0647 20.6953 47.8153 20.7325 47.5182C20.9393 44.5467 22.2658 41.7641 24.4443 39.732C26.6227 37.6998 29.491 36.5692 32.4705 36.5684H200.529C203.512 36.5696 206.383 37.7031 208.562 39.7397C210.741 41.7763 212.065 44.5641 212.267 47.5394C212.294 47.7941 212.304 48.07 212.304 48.3458Z" fill="white" stroke="#263238" stroke-width="1.1" stroke-linecap="round" stroke-linejoin="round"/>
<path d="M26.4258 51.9321H207.172V140.173C207.172 143.099 206.009 145.906 203.939 147.976C201.869 150.045 199.062 151.208 196.135 151.208H37.4634C34.536 151.208 31.7286 150.045 29.6586 147.976C27.5887 145.906 26.4258 143.099 26.4258 140.173V51.9321Z" fill="#263238"/>
<path opacity="0.2" d="M207.179 51.9321V140.173C207.194 143.083 206.053 145.88 204.006 147.95C201.959 150.019 199.174 151.191 196.263 151.208H37.3425C34.4315 151.191 31.6464 150.019 29.5995 147.95C27.5525 145.88 26.4114 143.083 26.4269 140.173V51.9321H207.179Z" fill="white"/>
<path d="M212.266 47.5387H20.7314C20.9383 44.5672 22.2648 41.7846 24.4432 39.7525C26.6217 37.7203 29.49 36.5897 32.4695 36.5889H200.528C203.508 36.5897 206.376 37.7203 208.554 39.7525C210.733 41.7846 212.059 44.5672 212.266 47.5387Z" fill="#3CCFFE" stroke="#263238" stroke-width="1.1" stroke-miterlimit="10"/>
<path d="M44.2667 42.0434C44.2667 42.4558 44.1443 42.8589 43.9152 43.2018C43.686 43.5446 43.3603 43.8118 42.9793 43.9696C42.5982 44.1274 42.1789 44.1687 41.7743 44.0883C41.3698 44.0078 40.9982 43.8093 40.7065 43.5177C40.4149 43.2261 40.2162 42.8546 40.1358 42.4502C40.0553 42.0457 40.0966 41.6265 40.2545 41.2456C40.4123 40.8646 40.6796 40.539 41.0226 40.3099C41.3655 40.0808 41.7687 39.9585 42.1812 39.9585C42.7343 39.9585 43.2647 40.1782 43.6558 40.5692C44.0469 40.9602 44.2667 41.4905 44.2667 42.0434Z" fill="#263238"/>
<path d="M53.0865 42.0434C53.0865 42.4558 52.9642 42.8589 52.735 43.2018C52.5059 43.5446 52.1801 43.8118 51.7991 43.9696C51.418 44.1274 50.9987 44.1687 50.5941 44.0883C50.1896 44.0078 49.818 43.8093 49.5263 43.5177C49.2347 43.2261 49.0361 42.8546 48.9556 42.4502C48.8751 42.0457 48.9164 41.6265 49.0743 41.2456C49.2321 40.8646 49.4994 40.539 49.8424 40.3099C50.1853 40.0808 50.5885 39.9585 51.001 39.9585C51.5541 39.9585 52.0845 40.1782 52.4757 40.5692C52.8668 40.9602 53.0865 41.4905 53.0865 42.0434Z" fill="#263238"/>
<path d="M59.8203 44.1284C60.9721 44.1284 61.9058 43.1949 61.9058 42.0434C61.9058 40.892 60.9721 39.9585 59.8203 39.9585C58.6686 39.9585 57.7349 40.892 57.7349 42.0434C57.7349 43.1949 58.6686 44.1284 59.8203 44.1284Z" fill="#263238"/>
<path d="M207.173 51.9321V140.173C207.173 143.099 206.01 145.906 203.94 147.976C201.87 150.045 199.063 151.208 196.135 151.208H37.4694C34.9145 151.207 32.4388 150.321 30.4647 148.699C28.4906 147.078 27.1403 144.822 26.644 142.316V142.284C26.5091 141.585 26.4416 140.874 26.4424 140.162V51.9321H207.173Z" stroke="#263238" stroke-width="1.1" stroke-miterlimit="10"/>
<path d="M207.003 65.5769C206.229 65.1425 205.406 64.8023 204.551 64.5636L203.559 60.1338H199.345L198.364 64.5636C197.504 64.798 196.677 65.1384 195.901 65.5769L192.097 63.1418L189.12 66.1074L191.513 69.9112C191.075 70.6868 190.734 71.5136 190.499 72.3728L186.068 73.3543V77.5666L190.499 78.5586C190.732 79.4221 191.072 80.2527 191.513 81.0308L189.077 84.8612L192.059 87.8373L195.885 85.4023C196.659 85.8415 197.485 86.1836 198.342 86.4209L199.329 90.8454H203.527L204.514 86.4209C205.369 86.1813 206.192 85.8393 206.966 85.4023L207.162 85.5296V65.4708L207.003 65.5769ZM201.463 80.9619C200.386 80.9619 199.333 80.6425 198.437 80.0442C197.542 79.4458 196.844 78.5954 196.432 77.6005C196.02 76.6056 195.913 75.5109 196.123 74.4549C196.334 73.3989 196.853 72.4291 197.615 71.668C198.377 70.907 199.347 70.389 200.404 70.1796C201.46 69.9702 202.555 70.0787 203.55 70.4915C204.545 70.9043 205.395 71.6028 205.992 72.4986C206.59 73.3944 206.908 74.4473 206.907 75.5241C206.907 76.2386 206.766 76.9462 206.493 77.6062C206.219 78.2663 205.818 78.866 205.312 79.371C204.807 79.8761 204.206 80.2765 203.546 80.5495C202.885 80.8224 202.177 80.9626 201.463 80.9619Z" fill="#263238"/>
<path d="M131.067 69.8477V60.9668L121.727 58.8925C121.223 57.0883 120.511 55.3489 119.605 53.7094L120.735 51.9321H76.6374L77.7253 53.6616C76.8079 55.2939 76.095 57.033 75.6026 58.8395L66.2578 60.9191V69.8211L75.6026 71.9061C76.095 73.7261 76.8078 75.4791 77.7253 77.1264L72.5938 85.1955L78.8821 91.4768L86.948 86.3414C88.5844 87.2617 90.3249 87.983 92.1325 88.49L94.2127 97.8006H103.075L105.165 88.4688C106.967 87.9593 108.702 87.2381 110.334 86.3202L118.405 91.4556L124.688 85.1743L119.589 77.1051C120.493 75.4682 121.205 73.7326 121.711 71.9326L131.067 69.8477ZM98.6967 76.8823C96.4266 76.8823 94.2074 76.2093 92.3199 74.9484C90.4323 73.6875 88.9611 71.8954 88.0924 69.7986C87.2236 67.7018 86.9963 65.3945 87.4392 63.1686C87.8821 60.9426 88.9753 58.898 90.5805 57.2931C92.1858 55.6883 94.231 54.5954 96.4575 54.1527C98.684 53.7099 100.992 53.9371 103.089 54.8057C105.187 55.6742 106.979 57.145 108.24 59.032C109.502 60.9191 110.175 63.1377 110.175 65.4072C110.176 66.9144 109.879 68.4069 109.303 69.7994C108.726 71.1919 107.88 72.4572 106.815 73.5229C105.749 74.5886 104.483 75.4338 103.09 76.0102C101.697 76.5867 100.204 76.883 98.6967 76.8823Z" fill="#263238"/>
<path d="M72.1258 130.83L72.5026 123.78L65.1954 121.722C64.8562 120.273 64.3542 118.867 63.699 117.53L68.1141 111.334L63.3806 106.087L56.7686 109.801C55.5048 109.006 54.1533 108.36 52.741 107.875L51.478 100.384L44.4309 100.061L42.3932 107.387C40.9413 107.712 39.5338 108.211 38.201 108.872L32.0083 104.464L26.7495 109.191L30.4959 115.806C29.6927 117.064 29.0442 118.414 28.5643 119.828L26.4417 120.178V129.727L27.9912 130.162C28.3127 131.616 28.8098 133.025 29.4717 134.358L26.4258 138.629L26.6274 142.284V142.316L29.7742 145.802L36.3968 142.062C37.6584 142.873 39.0146 143.527 40.4351 144.009L41.6768 151.202L41.7352 151.505L48.7823 151.876L48.968 151.202L50.82 144.555C52.2784 144.228 53.6928 143.73 55.0334 143.07L61.2155 147.473L66.469 142.751L62.7544 136.13C63.5501 134.874 64.1899 133.525 64.6595 132.114L72.1258 130.83ZM53.4096 119.822C52.2025 118.48 50.6242 117.526 48.8745 117.08C47.1248 116.635 45.2822 116.718 43.5799 117.32C41.8776 117.921 40.3921 119.014 39.3112 120.46C38.2302 121.906 37.6026 123.64 37.5075 125.443C37.4125 127.245 37.8543 129.035 38.7772 130.587C39.7 132.138 41.0624 133.381 42.692 134.159C44.3216 134.936 46.1452 135.212 47.932 134.953C49.7189 134.694 51.3887 133.911 52.7304 132.703C54.5217 131.085 55.5989 128.824 55.7262 126.414C55.8535 124.003 55.0205 121.641 53.4096 119.844V119.822Z" fill="#263238"/>
<path d="M128.492 120.321C128.765 119.229 128.909 118.109 128.922 116.984L133.99 114.332L132.589 109.191L126.869 109.456C126.289 108.495 125.6 107.605 124.815 106.804L126.508 101.334L121.891 98.6814L118.028 102.894C116.938 102.631 115.822 102.488 114.701 102.469L112.047 97.4028L106.911 98.7981L107.181 104.522C106.22 105.101 105.33 105.79 104.528 106.575L99.0516 104.883L96.3983 109.493L100.644 113.35C100.369 114.438 100.228 115.555 100.224 116.676L95.146 119.329L96.5469 124.464L102.278 124.194C102.846 125.16 103.532 126.051 104.321 126.846L102.618 132.29L107.24 134.942L111.082 130.762C112.173 131.036 113.294 131.177 114.419 131.181L117.073 136.253L122.209 134.857L121.981 129.966L121.944 129.128C122.919 128.554 123.82 127.865 124.629 127.075L130.1 128.772L132.361 124.825L132.743 124.157L128.492 120.321ZM116.356 123.441C115.039 123.804 113.643 123.768 112.347 123.337C111.05 122.906 109.91 122.1 109.073 121.021C108.235 119.942 107.736 118.638 107.641 117.275C107.545 115.912 107.856 114.552 108.535 113.366C109.214 112.181 110.229 111.223 111.453 110.615C112.677 110.008 114.054 109.777 115.409 109.953C116.764 110.128 118.036 110.702 119.065 111.602C120.093 112.501 120.831 113.686 121.185 115.005C121.657 116.764 121.414 118.638 120.51 120.218C119.605 121.798 118.112 122.957 116.356 123.441Z" fill="#263238"/>
<path d="M187.247 129.361L188.414 122.305L181.272 119.435C181.11 117.932 180.766 116.453 180.248 115.032L185.39 109.308L181.229 103.472L174.14 106.48C172.963 105.537 171.676 104.739 170.308 104.103L169.895 96.4162L162.837 95.249L159.945 102.358C158.447 102.534 156.975 102.881 155.556 103.392L149.815 98.2517L144.004 102.411L147.018 109.493C146.188 110.529 145.468 111.647 144.869 112.83C144.789 112.995 144.704 113.159 144.63 113.324L136.946 113.748L135.773 120.793L136.93 121.26L142.916 123.674C143.079 125.171 143.423 126.642 143.94 128.056L138.788 133.818L142.953 139.653L150.037 136.629C151.211 137.581 152.495 138.386 153.863 139.027L154.261 146.677L161.314 147.844L164.201 140.789C165.702 140.625 167.177 140.279 168.594 139.759L174.326 144.9L180.163 140.736L177.149 133.648C178.109 132.47 178.92 131.178 179.563 129.802L187.247 129.361ZM167.454 129.043C165.969 130.108 164.201 130.709 162.375 130.77C160.549 130.83 158.745 130.348 157.193 129.384C155.641 128.42 154.409 127.018 153.654 125.354C152.899 123.69 152.655 121.84 152.952 120.038C153.249 118.235 154.074 116.561 155.322 115.227C156.571 113.893 158.187 112.959 159.967 112.544C161.746 112.129 163.609 112.25 165.32 112.893C167.03 113.536 168.511 114.672 169.576 116.157C171.002 118.148 171.579 120.625 171.179 123.041C170.779 125.458 169.435 127.617 167.443 129.043H167.454Z" fill="#263238"/>
<path d="M91.6017 77.127H36.1058C32.2636 77.127 29.1489 80.2408 29.1489 84.082V160.895C29.1489 164.737 32.2636 167.851 36.1058 167.851H91.6017C95.4439 167.851 98.5586 164.737 98.5586 160.895V84.082C98.5586 80.2408 95.4439 77.127 91.6017 77.127Z" fill="#3CCFFE" stroke="#263238" stroke-width="1.1" stroke-miterlimit="10"/>
<path opacity="0.2" d="M91.6017 77.127H36.1058C32.2636 77.127 29.1489 80.2408 29.1489 84.082V160.895C29.1489 164.737 32.2636 167.851 36.1058 167.851H91.6017C95.4439 167.851 98.5586 164.737 98.5586 160.895V84.082C98.5586 80.2408 95.4439 77.127 91.6017 77.127Z" fill="black"/>
<path d="M105.017 90.936V167.749C105.017 168.663 104.838 169.568 104.489 170.413C104.139 171.257 103.627 172.024 102.981 172.671C102.335 173.317 101.568 173.83 100.723 174.18C99.8789 174.53 98.9738 174.71 98.0598 174.71H42.5639C41.6503 174.709 40.7458 174.529 39.902 174.178C39.0582 173.828 38.2917 173.315 37.6462 172.669C37.0007 172.023 36.4888 171.256 36.1398 170.411C35.7909 169.567 35.6116 168.663 35.6123 167.749V90.936C35.6123 89.0923 36.3445 87.3241 37.6481 86.0199C38.9516 84.7158 40.7197 83.9824 42.5639 83.981H98.0598C99.9049 83.981 101.674 84.7137 102.979 86.018C104.284 87.3224 105.017 89.0914 105.017 90.936Z" fill="white" stroke="#263238" stroke-width="1.1" stroke-linecap="round" stroke-linejoin="round"/>
<path d="M105.017 90.936V95.0475H35.6123V90.936C35.6123 89.0923 36.3445 87.3241 37.6481 86.0199C38.9516 84.7158 40.7197 83.9824 42.5639 83.981H98.0598C99.9049 83.981 101.674 84.7137 102.979 86.018C104.284 87.3224 105.017 89.0914 105.017 90.936Z" fill="#3CCFFE" stroke="#263238" stroke-width="1.1" stroke-miterlimit="10"/>
<path d="M59.2103 99.8115H42.1338V102.676H59.2103V99.8115Z" fill="#3CCFFE"/>
<path d="M59.2103 125.483H42.1338V128.348H59.2103V125.483Z" fill="#3CCFFE"/>
<path d="M59.2103 148.762H42.1338V151.627H59.2103V148.762Z" fill="#3CCFFE"/>
<path d="M90.6303 106.899H42.1338V109H90.6303V106.899Z" fill="#263238"/>
<path d="M81.8852 110.921H42.1338V112.969H81.8852V110.921Z" fill="#263238"/>
<path d="M87.0909 114.873H42.1338V116.921H87.0909V114.873Z" fill="#263238"/>
<path d="M87.0909 118.82H42.1338V120.868H87.0909V118.82Z" fill="#263238"/>
<path d="M90.6303 130.178H42.1338V132.279H90.6303V130.178Z" fill="#263238"/>
<path d="M81.8852 134.2H42.1338V136.247H81.8852V134.2Z" fill="#263238"/>
<path d="M87.0909 138.152H42.1338V140.2H87.0909V138.152Z" fill="#263238"/>
<path d="M90.6303 155.744H42.1338V157.845H90.6303V155.744Z" fill="#263238"/>
<path d="M81.8852 159.765H42.1338V161.813H81.8852V159.765Z" fill="#263238"/>
<path d="M87.0909 163.718H42.1338V165.766H87.0909V163.718Z" fill="#263238"/>
<path d="M183.24 30.7172V61.763C183.24 62.8524 183.025 63.9311 182.608 64.9374C182.191 65.9438 181.58 66.8581 180.809 67.6282C180.038 68.3982 179.123 69.0089 178.116 69.4253C177.109 69.8417 176.03 70.0557 174.941 70.055H103.419C102.329 70.0557 101.25 69.8417 100.243 69.4253C99.2365 69.0089 98.3215 68.3982 97.5508 67.6282C96.7801 66.8581 96.1686 65.9438 95.7515 64.9374C95.3343 63.9311 95.1196 62.8524 95.1196 61.763V30.7172C95.121 28.5171 95.9959 26.4074 97.552 24.8517C99.1082 23.296 101.218 22.4213 103.419 22.4199H174.941C177.142 22.4199 179.253 23.2941 180.809 24.8501C182.366 26.4062 183.24 28.5166 183.24 30.7172Z" fill="white" stroke="#222221" stroke-width="1.1" stroke-miterlimit="10"/>
<path d="M183.24 30.7172V31.4281H95.1196V30.7172C95.121 28.5171 95.9959 26.4074 97.552 24.8517C99.1082 23.296 101.218 22.4213 103.419 22.4199H174.941C177.142 22.4199 179.253 23.2941 180.809 24.8501C182.366 26.4062 183.24 28.5166 183.24 30.7172Z" fill="#3CCFFE" stroke="#263238" stroke-width="1.1" stroke-miterlimit="10"/>
<path d="M108.068 28.4098C107.89 28.5881 107.663 28.7097 107.416 28.7591C107.169 28.8085 106.912 28.7834 106.679 28.6872C106.447 28.5909 106.248 28.4277 106.107 28.2182C105.967 28.0088 105.893 27.7625 105.893 27.5105C105.893 27.2586 105.967 27.0123 106.107 26.8029C106.248 26.5934 106.447 26.4302 106.679 26.3339C106.912 26.2377 107.169 26.2126 107.416 26.262C107.663 26.3114 107.89 26.4329 108.068 26.6113C108.305 26.8507 108.438 27.1738 108.438 27.5105C108.438 27.8473 108.305 28.1704 108.068 28.4098Z" fill="#263238"/>
<path d="M113.969 28.4098C113.791 28.5881 113.564 28.7097 113.317 28.7591C113.07 28.8085 112.814 28.7834 112.581 28.6872C112.348 28.5909 112.149 28.4277 112.009 28.2182C111.869 28.0088 111.794 27.7625 111.794 27.5105C111.794 27.2586 111.869 27.0123 112.009 26.8029C112.149 26.5934 112.348 26.4302 112.581 26.3339C112.814 26.2377 113.07 26.2126 113.317 26.262C113.564 26.3114 113.791 26.4329 113.969 26.6113C114.206 26.8507 114.339 27.1738 114.339 27.5105C114.339 27.8473 114.206 28.1704 113.969 28.4098Z" fill="#263238"/>
<path d="M119.87 28.4098C119.692 28.5881 119.465 28.7097 119.218 28.7591C118.97 28.8085 118.714 28.7834 118.481 28.6872C118.248 28.5909 118.049 28.4277 117.909 28.2182C117.769 28.0088 117.694 27.7625 117.694 27.5105C117.694 27.2586 117.769 27.0123 117.909 26.8029C118.049 26.5934 118.248 26.4302 118.481 26.3339C118.714 26.2377 118.97 26.2126 119.218 26.262C119.465 26.3114 119.692 26.4329 119.87 26.6113C120.106 26.8507 120.239 27.1738 120.239 27.5105C120.239 27.8473 120.106 28.1704 119.87 28.4098Z" fill="#263238"/>
<path d="M129.544 37.1362H100.74V62.0281H129.544V37.1362Z" stroke="#263238" stroke-width="1.1" stroke-linecap="round" stroke-linejoin="round" stroke-dasharray="4.41 4.41"/>
<path d="M167.135 37.1362H133.985V38.8869H167.135V37.1362Z" fill="#263238"/>
<path d="M159.414 40.7598H133.985V42.5052H159.414V40.7598Z" fill="#263238"/>
<path d="M171.847 44.3672H133.985V46.1338H171.847V44.3672Z" fill="#263238"/>
<path d="M166.227 47.8848H133.985V49.6514H166.227V47.8848Z" fill="#263238"/>
<path d="M141.367 211.188C141.367 211.188 125.978 215.596 123.828 216.36C121.876 217.05 116.58 218.907 112.605 218.329C112.221 218.273 111.842 218.192 111.47 218.085C107.442 216.886 105.632 215.766 105.102 213.236C104.571 210.705 106.577 208.838 108.508 207.644C110.44 206.45 120.915 205.204 120.915 205.204L123.446 205.946L141.367 211.188Z" fill="#3CCFFE"/>
<path d="M112.605 218.329C112.221 218.273 111.842 218.192 111.47 218.085C107.442 216.886 105.632 215.766 105.102 213.236C104.571 210.705 106.577 208.838 108.508 207.644C110.44 206.45 120.915 205.204 120.915 205.204L123.446 205.946C121.154 207.007 112.621 207.586 110.758 208.657C108.896 209.729 107.999 211.745 109.097 214.493C109.687 215.925 111.257 217.331 112.605 218.329Z" fill="white"/>
<path d="M139.053 211.814C139.053 211.814 127.495 214.806 122.91 216.721C118.326 218.637 109.586 219.475 106.46 215.528C103.335 211.581 106.099 208.175 109.214 207.416C112.329 206.657 118.628 205.464 122.067 205.947" stroke="#263238" stroke-width="1.1" stroke-linecap="round" stroke-linejoin="round"/>
<path d="M112.833 218.122C112.833 218.122 106.954 214.896 108.907 210.376C110.35 207.044 118.193 207.766 122.078 205.946" stroke="#263238" stroke-width="1.1" stroke-linecap="round" stroke-linejoin="round"/>
<path d="M188.24 219.045C188.081 220.636 187.523 222.127 185.931 223.066C184.87 223.692 183.363 224.063 181.203 224.042C175.806 223.973 165.66 220.116 165.66 220.116L156.162 214.864L161.102 207.05L162.455 204.928L165.947 205.713C165.947 205.713 168.839 207.352 171.747 208.657C174.655 209.962 181.718 210.249 184.207 212.249C186.696 214.249 188.51 216.424 188.24 219.045Z" fill="#3CCFFE"/>
<path d="M188.239 219.045C188.08 220.636 187.523 222.127 185.931 223.066C186.39 221.502 186.296 219.827 185.666 218.323C184.604 215.941 181.15 213.84 176.607 213.49C172.065 213.14 168.589 211.018 166.769 210.068C165.347 209.331 162.349 207.718 161.102 207.05L162.455 204.928L165.946 205.713C165.946 205.713 168.839 207.352 171.747 208.657C174.654 209.962 181.718 210.249 184.206 212.249C186.695 214.249 188.51 216.424 188.239 219.045Z" fill="white"/>
<path d="M158.268 216.339C165.106 220.313 172.663 222.893 180.503 223.931C182.233 224.138 184.244 224.17 185.401 222.87C185.708 222.494 185.938 222.061 186.074 221.595C186.211 221.13 186.253 220.641 186.197 220.159C185.99 217.719 183.936 215.787 181.686 214.817C179.436 213.846 176.958 213.623 174.565 213.087C172.185 212.551 169.884 211.709 167.719 210.583C166 209.687 164.339 208.599 162.445 208.196C160.55 207.793 158.295 208.281 157.281 209.936" stroke="#263238" stroke-width="1.1" stroke-linecap="round" stroke-linejoin="round"/>
<path d="M184.764 223.533C185.653 223.107 186.43 222.48 187.034 221.701C187.637 220.921 188.05 220.012 188.24 219.045C188.585 216.748 187.274 214.435 185.432 213.023C183.591 211.612 181.283 210.944 179.006 210.472C176.73 209.999 174.4 209.681 172.219 208.816C168.892 207.511 165.607 204.944 162.137 205.861" stroke="#263238" stroke-width="1.1" stroke-linecap="round" stroke-linejoin="round"/>
<path d="M168.987 134.152L152.913 128.04L152.711 127.96C152.711 127.96 152.77 127.536 152.818 126.899C152.918 125.616 152.971 123.525 152.367 122.82C151.47 121.759 148.933 122.65 146.455 121.515C143.977 120.379 139.397 122.411 139.397 122.411C139.397 122.411 136.086 121.801 134.621 124.189C133.878 126.114 134.133 128.963 134.133 128.963L133.831 129.069C131.915 129.785 121.493 133.706 119.291 135.282C116.855 137.006 114.159 154.709 113.294 159.908C112.429 165.107 110.891 169.792 111.671 171.58C112.451 173.367 123.647 181.988 130.09 184.211C136.532 186.434 159.376 185.803 159.376 185.803C159.376 185.803 159.748 185.702 160.411 185.49C164.274 184.248 177.981 179.123 185.257 167.091C185.267 167.113 178.22 144.019 168.987 134.152ZM125.558 163.929C124.374 164.768 125.027 168.014 125.027 168.014L123.016 166.243L128.068 153.823L130.222 163.372C130.222 163.372 126.741 163.097 125.558 163.929ZM165.973 171.818C165.415 172.105 167.564 166.136 166.546 164.784C165.527 163.431 162.454 163.558 162.454 163.558L162.714 161.929L164.534 152.592L165.139 151.876C165.139 151.876 171.39 162.587 172.51 166.365C172.51 166.375 165.697 171.818 165.973 171.818Z" fill="#3CCFFE"/>
<path d="M138.639 95.4185L130.339 104.225C130.339 104.225 129.198 105.238 129.649 107.79C130.101 110.342 131.162 112.565 131.963 112.713C132.597 112.824 133.24 112.881 133.884 112.883C133.884 112.883 135.662 116.735 136.925 118.247C136.925 118.247 137.36 124.194 137.126 125.844C137.126 125.844 140.109 128.448 142.916 128.777C145.723 129.106 150.058 124.809 150.058 124.809L151.12 119.546C151.12 119.546 153.667 115.684 153.837 114.655C154.007 113.626 155.174 113.891 155.747 113.382C156.32 112.872 157.642 110.607 157.87 108.464C158.098 106.321 158.103 103.859 155.614 104.58C153.455 104.002 154.808 99.4398 154.808 99.4398L151.014 96.0975L138.639 95.4185Z" fill="white"/>
<path opacity="0.5" d="M152.914 128.04C152.789 128.368 152.645 128.688 152.484 129C151.115 131.579 145.151 136.496 145.151 136.496L143.346 130.953L142.359 136.496C140.369 135.626 134.299 130.369 134.299 130.369C134.299 130.369 134.092 129.876 133.842 129.106L134.145 129C134.145 129 133.89 126.13 134.633 124.226C136.087 121.838 139.409 122.448 139.409 122.448C139.409 122.448 143.988 120.417 146.467 121.552C148.945 122.687 151.481 121.806 152.378 122.857C153.275 123.907 152.723 127.982 152.723 127.982L152.914 128.04Z" fill="white"/>
<path opacity="0.2" d="M168.987 134.152L152.914 128.04L152.712 127.96C152.712 127.96 152.77 127.536 152.818 126.899L152.484 128.984L150.106 132.21C152.648 133.145 155.129 134.237 157.536 135.478C158.688 136.095 159.628 137.044 160.233 138.202C160.839 139.36 161.082 140.673 160.932 141.971L157.971 167.304L156.756 181.686L160.422 185.49C164.286 184.248 177.992 179.123 185.268 167.091C185.268 167.113 178.221 144.019 168.987 134.152ZM165.973 171.818C165.416 172.105 167.565 166.136 166.546 164.784C165.527 163.431 162.455 163.558 162.455 163.558L162.715 161.929L164.535 152.592L165.14 151.876C165.14 151.876 171.391 162.587 172.511 166.365C172.511 166.375 165.697 171.818 165.973 171.818Z" fill="black"/>
<path opacity="0.2" d="M131.29 164.783L128.79 156.433C128.79 156.433 124.306 141.149 121.234 137.382L122.04 148.131C122.04 148.131 119.387 160.969 116.962 164.783C114.537 168.598 113.996 169.558 116.962 169.558C119.928 169.558 127.151 175.309 127.151 175.309L126.593 170.534L131.29 164.783ZM124.991 168.014L122.98 166.242L128.031 153.823L130.186 163.372C130.186 163.372 126.726 163.112 125.543 163.945C124.359 164.778 124.991 168.014 124.991 168.014Z" fill="black"/>
<path d="M136.925 118.247C136.925 118.247 137.382 122.751 136.925 124.81" stroke="#263238" stroke-width="1.1" stroke-linecap="round" stroke-linejoin="round"/>
<path d="M150.52 124.204C150.525 122.756 150.692 121.313 151.019 119.902" stroke="#263238" stroke-width="1.1" stroke-linecap="round" stroke-linejoin="round"/>
<path d="M151.725 98.7769C151.725 98.7769 154.452 102.199 154.309 104.788C154.166 107.377 153.964 110.443 154.033 113.446C154.102 116.448 149.209 122.74 146.694 123.297C144.179 123.854 142.014 123.998 140.406 122.39C138.798 120.783 137.19 118.549 135.099 115.684C133.008 112.82 133.507 106.533 133.507 106.533" stroke="#263238" stroke-width="1.1" stroke-linecap="round" stroke-linejoin="round"/>
<path d="M145.156 108.926C144.99 109.866 144.919 110.82 144.944 111.775C144.889 112.579 145.139 113.374 145.644 114.003C145.947 114.311 146.382 114.56 146.44 114.984C146.439 115.175 146.386 115.362 146.287 115.526C146.188 115.689 146.046 115.823 145.878 115.913C145.537 116.084 145.209 116.279 144.896 116.496" stroke="#263238" stroke-width="1.1" stroke-linecap="round" stroke-linejoin="round"/>
<path d="M140.841 116.825C140.841 116.825 141.154 118.857 143.876 119.281" stroke="#263238" stroke-width="1.1" stroke-linecap="round" stroke-linejoin="round"/>
<path d="M141.123 110.475C141.123 111.063 140.868 111.536 140.555 111.536C140.242 111.536 139.987 111.063 139.987 110.475C139.987 109.886 140.242 109.414 140.555 109.414C140.868 109.414 141.123 109.891 141.123 110.475Z" fill="#263238"/>
<path d="M149.247 110.729C149.247 111.318 148.992 111.791 148.679 111.791C148.366 111.791 148.111 111.313 148.111 110.729C148.111 110.146 148.366 109.668 148.679 109.668C148.992 109.668 149.247 110.141 149.247 110.729Z" fill="#263238"/>
<path d="M147.607 108.156C147.607 108.156 150.26 105.504 152.484 108.464" stroke="#263238" stroke-width="2.21" stroke-linecap="round" stroke-linejoin="round"/>
<path d="M142.019 108.209C142.019 108.209 140.342 106.331 137.7 108.209" stroke="#263238" stroke-width="2.21" stroke-linecap="round" stroke-linejoin="round"/>
<path d="M137.127 120.751C137.127 120.751 138.745 125.207 142.359 126.475C145.973 127.743 150.77 121.17 150.77 121.17L150.521 120.316C150.521 120.316 147.374 124.401 143.877 123.706C140.38 123.011 136.925 118.268 136.925 118.268L137.127 120.751Z" fill="#263238"/>
<path d="M133.885 112.713C133.885 112.713 131.73 113.472 131.157 111.795C130.584 110.119 128.621 105.7 130.34 104.225C132.059 102.75 133.439 106.172 133.439 106.172" stroke="#263238" stroke-width="1.1" stroke-linecap="round" stroke-linejoin="round"/>
<path d="M154.028 113.626C154.028 113.626 156.028 114.029 156.602 112.353C157.175 110.676 159.138 106.257 157.419 104.782C155.699 103.307 154.32 106.729 154.32 106.729" stroke="#263238" stroke-width="1.1" stroke-linecap="round" stroke-linejoin="round"/>
<path d="M133.438 110.475C134.187 110.357 134.862 109.958 135.328 109.361C135.612 108.836 135.792 108.261 135.858 107.668C136.055 106.54 136.155 105.397 136.155 104.252C136.132 103.804 136.173 103.356 136.277 102.92C136.437 102.482 136.682 102.079 136.999 101.737C137.747 100.856 138.655 100.114 139.371 99.2012C139.755 98.7706 140.047 98.2662 140.23 97.7189C140.412 97.1717 140.481 96.5929 140.432 96.0181C142.074 97.3713 143.992 98.3486 146.052 98.8811C148.113 99.4136 150.264 99.4884 152.356 99.1004C156.15 98.3577 159.785 95.0313 159.345 90.8509C159.262 90.15 158.961 89.4927 158.485 88.9713C158.009 88.4499 157.382 88.0905 156.692 87.9436C154.818 87.4768 153.136 88.4741 151.438 89.1161C148.345 90.2832 145.314 88.2779 142.189 87.9436C139.536 87.6519 136.23 87.9861 134.839 90.644C134.839 90.644 130.063 91.2063 127.941 95.1533C125.818 99.1004 129.835 104.559 129.835 104.559C129.835 104.559 131.427 102.607 133.513 106.554L133.438 110.475Z" fill="#263238"/>
<path d="M152.054 97.7688C152.054 97.7688 150.812 104.241 154.054 107.376C154.054 107.376 154.766 105.429 155.482 104.952C155.998 103.803 156.217 102.543 156.118 101.288C156.019 100.032 155.605 98.8221 154.914 97.7688C152.516 94.0021 152.054 97.7688 152.054 97.7688Z" fill="#263238"/>
<path opacity="0.2" d="M157.965 90.4053C157.68 91.2884 157.198 92.0949 156.554 92.7633C155.91 93.4316 155.122 93.9443 154.25 94.2621C149.75 96.0977 145.383 94.0658 140.872 93.6679C137.195 93.339 133.136 96.6601 132.875 100.437" stroke="white" stroke-width="1.1" stroke-linecap="round" stroke-linejoin="round"/>
<path opacity="0.2" d="M130.101 99.4401C130.156 97.9496 130.634 96.5055 131.48 95.2767C132.326 94.0479 133.504 93.0851 134.876 92.501" stroke="white" stroke-width="1.1" stroke-linecap="round" stroke-linejoin="round"/>
<path d="M135.885 124.204C137.864 126.266 140.251 127.892 142.895 128.979C142.895 128.979 148.281 127.414 151.019 123.674" stroke="#263238" stroke-width="1.1" stroke-linecap="round" stroke-linejoin="round"/>
<path d="M141.384 114.789C143.777 113.692 144.826 110.864 143.729 108.473C142.632 106.081 139.803 105.032 137.411 106.129C135.019 107.225 133.969 110.053 135.066 112.445C136.164 114.837 138.992 115.886 141.384 114.789Z" stroke="#263238" stroke-width="1.1" stroke-linecap="round" stroke-linejoin="round"/>
<path d="M150.623 115.208C153.235 114.888 155.092 112.511 154.772 109.899C154.451 107.288 152.073 105.431 149.461 105.751C146.849 106.072 144.991 108.449 145.312 111.061C145.633 113.672 148.011 115.529 150.623 115.208Z" stroke="#263238" stroke-width="1.1" stroke-linecap="round" stroke-linejoin="round"/>
<path d="M136.925 122.427C136.442 122.554 135.99 122.777 135.595 123.082C135.2 123.387 134.871 123.769 134.627 124.204C133.783 125.69 134.293 130.364 134.293 130.364C134.293 130.364 138.649 134.672 142.359 136.491L143.452 130.343L145.15 136.491C145.15 136.491 150.891 132.433 152.483 129C152.483 129 153.014 124.995 152.483 123.695C152.363 123.334 152.133 123.019 151.826 122.794C151.519 122.569 151.15 122.445 150.769 122.438" stroke="#263238" stroke-width="1.1" stroke-linecap="round" stroke-linejoin="round"/>
<path d="M130.101 163.563C130.101 163.563 128.397 152.157 126.131 147.504" stroke="#263238" stroke-width="1.1" stroke-linecap="round" stroke-linejoin="round"/>
<path d="M121.234 137.382C122.553 139.257 123.731 141.227 124.757 143.276" stroke="#263238" stroke-width="1.1" stroke-linecap="round" stroke-linejoin="round"/>
<path d="M165.973 145.897C166.431 143.99 167.058 142.128 167.846 140.332" stroke="#263238" stroke-width="1.1" stroke-linecap="round" stroke-linejoin="round"/>
<path d="M162.455 163.564C162.455 163.564 163.681 155.744 165.145 149.303" stroke="#263238" stroke-width="1.1" stroke-linecap="round" stroke-linejoin="round"/>
<path d="M164.536 152.582C165.72 151.011 167.386 149.871 169.28 149.335" stroke="#263238" stroke-width="1.1" stroke-linecap="round" stroke-linejoin="round"/>
<path d="M152.718 127.96C152.718 127.96 162.604 131.913 168.988 134.157C168.988 134.157 176.841 141.536 185.263 167.113C185.263 167.113 177.547 180.089 162.869 184.248" stroke="#263238" stroke-width="1.1" stroke-linecap="round" stroke-linejoin="round"/>
<path d="M165.417 172.28L172.511 166.375C172.511 166.375 176.263 163.526 180.163 165.473" stroke="#263238" stroke-width="1.1" stroke-linecap="round" stroke-linejoin="round"/>
<path d="M165.146 151.876C165.146 151.876 171.009 160.539 172.511 166.375" stroke="#263238" stroke-width="1.1" stroke-linecap="round" stroke-linejoin="round"/>
<path d="M125.07 168.343L122.995 166.375C122.995 166.375 119.917 165.845 116.425 168.174" stroke="#263238" stroke-width="1.1" stroke-linecap="round" stroke-linejoin="round"/>
<path d="M122.996 166.375C122.996 166.375 125.575 157.887 128.116 153.542" stroke="#263238" stroke-width="1.1" stroke-linecap="round" stroke-linejoin="round"/>
<path d="M134.145 129C134.145 129 119.918 134.337 118.522 135.897C117.127 137.457 111.825 167.298 111.682 170.715C111.56 173.771 122.64 180.63 128.132 183.522" stroke="#263238" stroke-width="1.1" stroke-linecap="round" stroke-linejoin="round"/>
<path d="M185.65 107.764H169.438C167.525 107.764 165.973 109.315 165.973 111.228V120.74C165.973 122.653 167.525 124.204 169.438 124.204H185.65C187.564 124.204 189.115 122.653 189.115 120.74V111.228C189.115 109.315 187.564 107.764 185.65 107.764Z" fill="white" stroke="#263238" stroke-width="1.1" stroke-linecap="round" stroke-linejoin="round"/>
<path d="M173.439 112.708L168.987 115.504L173.116 119.164" stroke="#263238" stroke-width="1.1" stroke-linecap="round" stroke-linejoin="round"/>
<path d="M181.548 119.43L185.549 116.024L180.933 113" stroke="#263238" stroke-width="1.1" stroke-linecap="round" stroke-linejoin="round"/>
<path d="M175.599 121.531L178.889 111.228" stroke="#263238" stroke-width="1.1" stroke-linecap="round" stroke-linejoin="round"/>
<path d="M144.784 139.085C144.784 139.271 144.729 139.453 144.626 139.607C144.523 139.762 144.376 139.882 144.204 139.953C144.033 140.024 143.844 140.043 143.662 140.006C143.48 139.97 143.312 139.881 143.181 139.749C143.05 139.618 142.96 139.451 142.924 139.269C142.888 139.087 142.906 138.898 142.977 138.726C143.048 138.555 143.169 138.408 143.323 138.305C143.478 138.202 143.659 138.146 143.845 138.146C143.969 138.146 144.091 138.17 144.205 138.217C144.32 138.263 144.423 138.333 144.511 138.42C144.598 138.507 144.667 138.611 144.714 138.725C144.761 138.84 144.785 138.962 144.784 139.085Z" fill="#263238"/>
<path d="M161.245 189.07H128.875C128.674 189.07 128.481 188.991 128.338 188.848C128.196 188.706 128.116 188.513 128.116 188.312C128.116 188.111 128.196 187.918 128.338 187.775C128.481 187.633 128.674 187.553 128.875 187.553H161.245C161.446 187.553 161.639 187.633 161.782 187.775C161.924 187.918 162.004 188.111 162.004 188.312C162.004 188.513 161.924 188.706 161.782 188.848C161.639 188.991 161.446 189.07 161.245 189.07Z" fill="#263238"/>
<path d="M162.38 186.535L166.716 166.163C166.783 165.847 166.779 165.52 166.703 165.206C166.628 164.892 166.483 164.599 166.279 164.348C166.076 164.097 165.819 163.895 165.527 163.757C165.235 163.618 164.916 163.547 164.593 163.547H126.757C126.437 163.547 126.121 163.619 125.831 163.756C125.542 163.893 125.286 164.092 125.083 164.34C124.88 164.587 124.735 164.877 124.657 165.188C124.58 165.498 124.572 165.822 124.635 166.136L128.525 185.829C128.62 186.313 128.877 186.749 129.255 187.067C129.632 187.384 130.106 187.563 130.599 187.574L160.205 188.254C160.711 188.265 161.205 188.099 161.602 187.786C161.999 187.472 162.274 187.029 162.38 186.535Z" fill="white" stroke="#263238" stroke-width="1.1" stroke-linecap="round" stroke-linejoin="round"/>
<path d="M148.573 175.304C148.572 175.901 148.394 176.484 148.062 176.979C147.729 177.475 147.257 177.861 146.705 178.089C146.154 178.316 145.547 178.375 144.961 178.258C144.376 178.141 143.838 177.853 143.417 177.431C142.995 177.009 142.708 176.471 142.592 175.885C142.476 175.3 142.536 174.693 142.765 174.142C142.993 173.591 143.38 173.12 143.877 172.788C144.373 172.457 144.957 172.28 145.554 172.28C145.951 172.28 146.344 172.358 146.71 172.51C147.077 172.662 147.41 172.885 147.691 173.166C147.971 173.447 148.193 173.78 148.345 174.147C148.496 174.514 148.574 174.907 148.573 175.304Z" fill="#263238"/>
<path d="M154.505 165.495H159" stroke="#263238" stroke-width="1.1" stroke-linecap="round" stroke-linejoin="round"/>
<path d="M133.041 165.495H150.107" stroke="#263238" stroke-width="1.1" stroke-linecap="round" stroke-linejoin="round"/>
<path d="M162.455 208.164L159.005 217.214C159.005 217.214 150.207 214.997 138.941 212.689C127.156 210.275 114.85 207.15 108.466 195.951C107.691 194.588 107.171 192.975 107.537 191.447C108.455 187.58 113.491 186.529 116.808 186.142C118.893 185.916 120.988 185.8 123.085 185.792C124.147 185.792 127.676 185.213 128.53 185.845C129.814 186.781 131.184 187.593 132.621 188.269C134.505 189.07 162.004 187.553 162.004 187.553C162.482 186.51 162.775 185.392 162.869 184.248C167.193 182.052 177.196 180.195 181.442 181.017C188.091 182.306 191.97 186.184 191.232 190.248C190.495 194.312 175.806 205.209 162.455 208.164Z" fill="#263238"/>
<path d="M162.455 208.164C162.455 208.164 154.087 205.946 147.252 201.331C140.417 196.715 135.078 191.357 125.553 192.466" stroke="white" stroke-width="1.1" stroke-linecap="round" stroke-linejoin="round"/>
<path d="M145.687 200.243C150.006 199.002 153.174 196.206 156.639 193.527C160.294 190.594 164.219 188.015 168.361 185.824" stroke="white" stroke-width="1.1" stroke-linecap="round" stroke-linejoin="round"/>
<path d="M144.163 111.228H145.426" stroke="#263238" stroke-width="1.1" stroke-linecap="round" stroke-linejoin="round"/>
</svg>
