<svg width="292" height="292" viewBox="0 0 292 292" fill="none" xmlns="http://www.w3.org/2000/svg">
<g filter="url(#filter0_d)">
<rect x="52.5" y="52.5" width="187" height="187" rx="93.5" fill="#061E26" stroke="#26C9FF" stroke-width="13"/>
<path d="M105.093 170V119.893H121.328C127.48 119.893 131.491 120.143 133.359 120.645C136.23 121.396 138.634 123.037 140.571 125.566C142.508 128.073 143.477 131.32 143.477 135.308C143.477 138.384 142.918 140.97 141.802 143.066C140.685 145.163 139.261 146.815 137.529 148.022C135.82 149.207 134.077 149.993 132.3 150.381C129.884 150.859 126.387 151.099 121.807 151.099H115.21V170H105.093ZM115.21 128.369V142.588H120.747C124.735 142.588 127.401 142.326 128.745 141.802C130.09 141.278 131.138 140.457 131.89 139.341C132.664 138.224 133.052 136.925 133.052 135.444C133.052 133.621 132.516 132.118 131.445 130.933C130.374 129.748 129.019 129.007 127.378 128.711C126.17 128.483 123.743 128.369 120.098 128.369H115.21ZM152.18 159.644L161.819 158.174C162.229 160.042 163.061 161.466 164.314 162.446C165.567 163.403 167.322 163.882 169.578 163.882C172.061 163.882 173.93 163.426 175.183 162.515C176.026 161.877 176.448 161.022 176.448 159.951C176.448 159.222 176.22 158.618 175.764 158.14C175.286 157.684 174.215 157.262 172.551 156.875C164.804 155.166 159.893 153.605 157.82 152.192C154.949 150.233 153.513 147.51 153.513 144.023C153.513 140.879 154.755 138.236 157.239 136.094C159.722 133.952 163.573 132.881 168.791 132.881C173.759 132.881 177.45 133.69 179.866 135.308C182.281 136.925 183.944 139.318 184.856 142.485L175.798 144.16C175.411 142.747 174.67 141.665 173.577 140.913C172.506 140.161 170.968 139.785 168.962 139.785C166.433 139.785 164.621 140.138 163.528 140.845C162.799 141.346 162.434 141.995 162.434 142.793C162.434 143.477 162.753 144.058 163.391 144.536C164.257 145.174 167.242 146.074 172.346 147.236C177.473 148.398 181.051 149.823 183.079 151.509C185.084 153.218 186.086 155.599 186.086 158.652C186.086 161.979 184.696 164.839 181.916 167.231C179.136 169.624 175.024 170.82 169.578 170.82C164.633 170.82 160.714 169.818 157.82 167.812C154.949 165.807 153.069 163.084 152.18 159.644Z" fill="#D9F5FF"/>
</g>
<defs>
<filter id="filter0_d" x="0" y="0" width="292" height="292" filterUnits="userSpaceOnUse" color-interpolation-filters="sRGB">
<feFlood flood-opacity="0" result="BackgroundImageFix"/>
<feColorMatrix in="SourceAlpha" type="matrix" values="0 0 0 0 0 0 0 0 0 0 0 0 0 0 0 0 0 0 127 0"/>
<feOffset/>
<feGaussianBlur stdDeviation="23"/>
<feColorMatrix type="matrix" values="0 0 0 0 0.14902 0 0 0 0 0.788235 0 0 0 0 1 0 0 0 0.5 0"/>
<feBlend mode="normal" in2="BackgroundImageFix" result="effect1_dropShadow"/>
<feBlend mode="normal" in="SourceGraphic" in2="effect1_dropShadow" result="shape"/>
</filter>
</defs>
</svg>
