<svg width="292" height="292" viewBox="0 0 292 292" fill="none" xmlns="http://www.w3.org/2000/svg">
<g filter="url(#filter0_d)">
<rect x="52.5" y="52.5" width="187" height="187" rx="93.5" fill="#2A0034" stroke="#EA77FF" stroke-width="13"/>
<path d="M112.093 170V119.893H128.328C134.48 119.893 138.491 120.143 140.359 120.645C143.23 121.396 145.634 123.037 147.571 125.566C149.508 128.073 150.477 131.32 150.477 135.308C150.477 138.384 149.918 140.97 148.802 143.066C147.685 145.163 146.261 146.815 144.529 148.022C142.82 149.207 141.077 149.993 139.3 150.381C136.884 150.859 133.387 151.099 128.807 151.099H122.21V170H112.093ZM122.21 128.369V142.588H127.747C131.735 142.588 134.401 142.326 135.745 141.802C137.09 141.278 138.138 140.457 138.89 139.341C139.664 138.224 140.052 136.925 140.052 135.444C140.052 133.621 139.516 132.118 138.445 130.933C137.374 129.748 136.019 129.007 134.378 128.711C133.17 128.483 130.743 128.369 127.098 128.369H122.21ZM171.758 170H162.154V133.701H171.075V138.862C172.601 136.424 173.968 134.818 175.176 134.043C176.407 133.268 177.797 132.881 179.346 132.881C181.534 132.881 183.641 133.485 185.669 134.692L182.696 143.066C181.078 142.018 179.574 141.494 178.184 141.494C176.84 141.494 175.7 141.87 174.766 142.622C173.832 143.351 173.091 144.684 172.544 146.621C172.02 148.558 171.758 152.614 171.758 158.789V170Z" fill="#EA77FF"/>
</g>
<defs>
<filter id="filter0_d" x="0" y="0" width="292" height="292" filterUnits="userSpaceOnUse" color-interpolation-filters="sRGB">
<feFlood flood-opacity="0" result="BackgroundImageFix"/>
<feColorMatrix in="SourceAlpha" type="matrix" values="0 0 0 0 0 0 0 0 0 0 0 0 0 0 0 0 0 0 127 0"/>
<feOffset/>
<feGaussianBlur stdDeviation="23"/>
<feColorMatrix type="matrix" values="0 0 0 0 0.917647 0 0 0 0 0.466667 0 0 0 0 1 0 0 0 0.5 0"/>
<feBlend mode="normal" in2="BackgroundImageFix" result="effect1_dropShadow"/>
<feBlend mode="normal" in="SourceGraphic" in2="effect1_dropShadow" result="shape"/>
</filter>
</defs>
</svg>
