<svg width="114" height="85" viewBox="0 0 114 85" fill="none" xmlns="http://www.w3.org/2000/svg">
<path d="M52.0442 37.264C52.0442 37.264 42.5252 33.5637 39.299 36.108C36.0728 38.6523 26.3942 66.1583 28.184 70.7653C29.9738 75.3723 43.3175 73.0518 43.3175 73.0518C43.3175 73.0518 80.7893 75.2675 84.5969 73.8452C90.2598 71.7258 77.6856 38.5333 75.8103 36.771C73.935 35.0087 65.2653 38.0488 65.2653 38.0488" fill="#430099"/>
<path d="M44.1952 65.45C44.1666 65.4498 44.1388 65.4409 44.1154 65.4245C39.6523 62.3956 33.9238 63.172 33.8554 63.1805C33.818 63.1853 33.7802 63.1752 33.7503 63.1523C33.7204 63.1295 33.7008 63.0958 33.6958 63.0586C33.6909 63.0219 33.7007 62.9847 33.7231 62.955C33.7455 62.9253 33.7786 62.9056 33.8155 62.9C33.8754 62.9 39.7093 62.0981 44.2636 65.1893C44.2793 65.1998 44.2926 65.2133 44.303 65.229C44.3133 65.2447 44.3204 65.2623 44.3239 65.2808C44.3273 65.2992 44.327 65.3182 44.3231 65.3365C44.3191 65.3549 44.3115 65.3722 44.3007 65.3876C44.289 65.4053 44.2735 65.4201 44.2552 65.4309C44.2369 65.4417 44.2164 65.4482 44.1952 65.45V65.45Z" fill="#231F20"/>
<path d="M71.8204 65.4499C71.7891 65.4511 71.7584 65.4421 71.7328 65.4242C71.7073 65.4063 71.6884 65.3806 71.679 65.351C71.6696 65.3213 71.6702 65.2895 71.6808 65.2603C71.6915 65.231 71.7114 65.2061 71.7377 65.1893C76.2977 62.0981 82.1288 62.8914 82.1886 62.8999C82.2255 62.9056 82.2587 62.9253 82.2811 62.955C82.3035 62.9846 82.3132 63.0219 82.3083 63.0586C82.3027 63.096 82.2825 63.1297 82.2521 63.1525C82.2218 63.1753 82.1836 63.1853 82.1459 63.1804C82.0889 63.1804 76.3604 62.3956 71.9002 65.4244C71.8767 65.4406 71.8489 65.4494 71.8204 65.4499V65.4499Z" fill="#231F20"/>
<path d="M41.3029 61.3587C41.2842 61.3576 41.2659 61.3528 41.249 61.3447C41.2321 61.3366 41.217 61.3252 41.2046 61.3112C41.1921 61.2973 41.1826 61.281 41.1765 61.2634C41.1704 61.2458 41.1678 61.2271 41.169 61.2085L42.1693 44.3445C42.1704 44.3259 42.1752 44.3077 42.1834 44.2909C42.1916 44.2741 42.203 44.2591 42.217 44.2467C42.2311 44.2344 42.2474 44.2249 42.2652 44.2188C42.2829 44.2127 42.3017 44.2102 42.3204 44.2113C42.3392 44.212 42.3577 44.2165 42.3748 44.2245C42.3919 44.2326 42.4071 44.2439 42.4196 44.258C42.4322 44.272 42.4417 44.2884 42.4476 44.3062C42.4536 44.324 42.4559 44.3428 42.4543 44.3615L41.454 61.2255C41.4511 61.2628 41.4337 61.2976 41.4055 61.3224C41.3773 61.3473 41.3405 61.3602 41.3029 61.3587V61.3587Z" fill="#231F20"/>
<path d="M71.8202 61.3586C71.7824 61.3586 71.7462 61.3437 71.7195 61.3171C71.6927 61.2906 71.6777 61.2545 71.6777 61.217V45.067C71.6777 45.0294 71.6927 44.9934 71.7195 44.9668C71.7462 44.9402 71.7824 44.9253 71.8202 44.9253C71.858 44.9253 71.8943 44.9402 71.921 44.9668C71.9477 44.9934 71.9627 45.0294 71.9627 45.067V61.217C71.9627 61.2545 71.9477 61.2906 71.921 61.3171C71.8943 61.3437 71.858 61.3586 71.8202 61.3586Z" fill="#231F20"/>
<path d="M48.7495 36.1958C48.7495 36.1958 52.0156 53.1703 58.1545 61.217C58.1545 61.217 66.4708 46.4043 68.0896 37.1761C68.0896 37.1761 61.7797 38.3803 59.4456 38.403C57.1114 38.4256 48.7495 36.1958 48.7495 36.1958Z" fill="#231F20"/>
<path d="M58.1404 61.3586C58.1182 61.3591 58.0962 61.3541 58.0764 61.3443C58.0565 61.3344 58.0393 61.3199 58.0264 61.3019C51.9445 53.3204 48.6356 36.3941 48.6014 36.2241C48.5972 36.2005 48.5988 36.1763 48.6063 36.1536C48.6137 36.1308 48.6268 36.1103 48.6442 36.0938C48.6616 36.077 48.6832 36.0651 48.7066 36.0591C48.7301 36.0532 48.7548 36.0534 48.7781 36.0598C48.8608 36.0824 57.0431 38.2613 59.3915 38.2613H59.4286C61.7257 38.2386 67.9786 37.0514 68.0498 37.0373C68.0724 37.0331 68.0957 37.0346 68.1175 37.0415C68.1394 37.0484 68.1592 37.0606 68.1752 37.0769C68.1919 37.0927 68.2043 37.1124 68.2113 37.1342C68.2182 37.156 68.2196 37.1792 68.2151 37.2016C66.6106 46.3476 58.3456 61.1376 58.2629 61.2849C58.2518 61.3058 58.2355 61.3236 58.2156 61.3365C58.1956 61.3494 58.1727 61.357 58.1489 61.3586H58.1404ZM48.9349 36.3913C49.3424 38.4001 52.5487 53.4621 58.129 60.9563C59.0951 59.2053 66.3313 45.8971 67.9073 37.3546C66.7901 37.5643 61.5547 38.5219 59.44 38.5446H59.4029C57.2141 38.5333 50.2943 36.7483 48.9349 36.3913Z" fill="#231F20"/>
<path d="M56.1908 42.4744L57.5104 44.7495L54.1873 54.5302L58.1488 61.2169L61.7626 54.2185L59.1463 44.792L60.5228 42.4744L58.3397 40.321L56.1908 42.4744Z" fill="#D1D3D4"/>
<path d="M58.1403 61.3586C58.1149 61.3589 58.0899 61.3526 58.0679 61.3401C58.0458 61.3277 58.0275 61.3096 58.0149 61.2878L54.0562 54.6011C54.0472 54.5831 54.0425 54.5632 54.0425 54.543C54.0425 54.5229 54.0472 54.503 54.0562 54.4849L57.3565 44.7666L56.0683 42.5481C56.0529 42.5212 56.0468 42.49 56.0509 42.4593C56.055 42.4286 56.0691 42.4001 56.0911 42.3781L58.2372 40.2248C58.2488 40.2091 58.2645 40.1969 58.2826 40.1894C58.3006 40.1819 58.3204 40.1795 58.3398 40.1823C58.3585 40.182 58.377 40.1857 58.3942 40.193C58.4113 40.2003 58.4268 40.2112 58.4395 40.2248L60.6226 42.3781C60.6457 42.4 60.6606 42.4291 60.6647 42.4605C60.6689 42.492 60.662 42.5239 60.6454 42.5509L59.3002 44.8176L61.9023 54.1874C61.9136 54.2205 61.9136 54.2564 61.9023 54.2894L58.2856 61.2878C58.2737 61.31 58.2561 61.3288 58.2346 61.3423C58.2131 61.3557 58.1884 61.3633 58.1631 61.3643L58.1403 61.3586ZM54.3441 54.5133L58.1403 60.9166L61.6116 54.1988L59.0095 44.8233C59.0019 44.8058 58.998 44.787 58.998 44.768C58.998 44.749 59.0019 44.7302 59.0095 44.7128L60.3291 42.4914L58.3341 40.5081L56.3647 42.4914L57.6301 44.6731C57.6379 44.6915 57.6419 44.7112 57.6419 44.7312C57.6419 44.7511 57.6379 44.7709 57.6301 44.7893L54.3441 54.5133Z" fill="#231F20"/>
<path d="M51.5653 35.5781L64.0825 35.6178L63.863 40.3693H55.0223L50.7302 38.3265L51.5653 35.5781Z" fill="#231F20"/>
<path d="M63.8633 40.5166H55.0284C55.0086 40.5205 54.9883 40.5205 54.9685 40.5166L50.6736 38.4738C50.6431 38.4586 50.619 38.4332 50.6055 38.4022C50.5919 38.3711 50.5898 38.3363 50.5995 38.3038L51.4345 35.5583C51.4427 35.5286 51.4606 35.5025 51.4854 35.4841C51.5101 35.4656 51.5404 35.4558 51.5713 35.4563V35.4563L64.0913 35.496C64.1302 35.4971 64.1671 35.5134 64.1939 35.5413C64.2067 35.555 64.2165 35.571 64.2229 35.5886C64.2293 35.6061 64.232 35.6247 64.231 35.6433L64.0115 40.3948C64.0066 40.4298 63.9887 40.4618 63.9612 40.4843C63.9338 40.5069 63.8989 40.5184 63.8633 40.5166ZM55.0568 40.2333H63.7265L63.9346 35.7651L51.6796 35.7255L50.9016 38.25L55.0568 40.2333Z" fill="#231F20"/>
<path d="M67.3402 23.5166C68.01 22.0461 68.1952 20.0713 68.4489 18.4959C68.5629 17.7848 68.9305 16.8498 68.8308 16.1329C68.7595 15.6314 68.4147 15.2263 68.3833 14.6596C68.3577 14.1553 68.3605 13.6169 68.0784 13.1976C67.7962 12.7783 67.098 12.5998 66.793 13.0021C67.1976 11.7431 67.437 10.4375 67.5055 9.11758C66.4275 9.60897 65.2368 9.80463 64.057 9.68425C64.5351 9.30111 64.9388 8.83447 65.2483 8.30725C64.2166 9.08925 62.7717 8.82858 61.4835 8.66425C58.5451 8.29025 55.4415 8.66425 52.8765 10.1461C52.0528 10.6221 51.2235 11.3191 51.1294 12.2654C50.8032 12.2023 50.466 12.2262 50.1522 12.3347C49.8383 12.4432 49.5589 12.6324 49.3425 12.8831C48.9144 13.3914 48.6266 14.0016 48.5074 14.6539C47.6524 18.3996 49.0774 21.6183 49.4422 25.3129C52.2238 25.4829 55.0311 25.7181 57.8383 25.6756C60.0699 25.6303 66.1489 26.1176 67.3402 23.5166Z" fill="white"/>
<path d="M60.1357 25.8229C59.7082 25.8229 59.3035 25.8229 58.9302 25.8229C58.5141 25.8229 58.1464 25.8229 57.85 25.8229C55.57 25.8598 53.2644 25.7068 51.0357 25.5623L49.4425 25.4603C49.4085 25.4584 49.3764 25.4445 49.3518 25.4211C49.3272 25.3978 49.3119 25.3664 49.3086 25.3328C49.1889 24.1399 48.9552 22.9839 48.7386 21.8648C48.2512 19.4593 47.7924 17.1869 48.3852 14.6284C48.502 13.9529 48.797 13.3204 49.2402 12.7953C49.4571 12.5439 49.7316 12.3481 50.0406 12.2243C50.3497 12.1005 50.6841 12.0524 51.0157 12.0841C51.1554 11.3163 51.7596 10.6193 52.8112 10.0129C55.1938 8.63594 58.2832 8.10328 61.5094 8.51128L61.7944 8.54811C63.0085 8.70678 64.2654 8.87394 65.1745 8.18544C65.1997 8.16446 65.2314 8.15295 65.2643 8.15295C65.2971 8.15295 65.3289 8.16446 65.3541 8.18544C65.379 8.20724 65.3955 8.237 65.4007 8.26959C65.4059 8.30218 65.3995 8.33555 65.3826 8.36394C65.1201 8.80743 64.7926 9.20948 64.4107 9.55678C65.4545 9.61415 66.4969 9.41973 67.4488 8.99011C67.4711 8.97981 67.4957 8.97542 67.5202 8.97737C67.5447 8.97931 67.5683 8.98753 67.5887 9.00122C67.609 9.01491 67.6255 9.03361 67.6364 9.05549C67.6474 9.07737 67.6525 9.1017 67.6512 9.12611C67.5885 10.326 67.3858 11.5145 67.047 12.6678C67.1343 12.6445 67.2245 12.634 67.3149 12.6366C67.4899 12.6438 67.6609 12.691 67.8146 12.7745C67.9683 12.8581 68.1006 12.9757 68.2012 13.1183C68.4345 13.545 68.5459 14.0271 68.5233 14.5123V14.6511C68.5514 14.9229 68.6276 15.1877 68.7484 15.4331C68.8512 15.6492 68.925 15.8779 68.9679 16.1131C68.9981 16.6797 68.9247 17.2471 68.7513 17.7876C68.6857 18.0483 68.623 18.2948 68.586 18.5186C68.5404 18.8019 68.4948 19.1164 68.4492 19.4281C68.2497 20.8023 68.0217 22.3606 67.4659 23.5733C66.5425 25.5963 62.9002 25.8229 60.1357 25.8229ZM58.1151 25.5198H58.933C61.4809 25.5538 66.2262 25.6161 67.218 23.4373C67.7566 22.2586 67.9818 20.7229 68.1784 19.3686C68.224 19.0541 68.2696 18.7481 68.3181 18.4534C68.3551 18.2183 68.4178 17.9661 68.4834 17.6998C68.6421 17.199 68.7106 16.6744 68.6857 16.1499C68.6466 15.939 68.5795 15.7342 68.4862 15.5408C68.3511 15.2652 68.2671 14.9677 68.2383 14.6624V14.5236C68.2573 14.0893 68.1589 13.6578 67.9533 13.2741C67.8783 13.1691 67.7804 13.0825 67.6668 13.0206C67.5533 12.9588 67.4271 12.9234 67.2978 12.9171C67.223 12.9107 67.1478 12.9225 67.0787 12.9517C67.0097 12.9808 66.9489 13.0263 66.9016 13.0843C66.8816 13.1114 66.8526 13.1305 66.8197 13.1383C66.7868 13.1461 66.7522 13.142 66.7221 13.1268C66.6925 13.1107 66.6694 13.0851 66.6564 13.0542C66.6435 13.0233 66.6415 12.9889 66.6508 12.9568C67.0288 11.7832 67.2613 10.5682 67.3434 9.33861C66.2985 9.77273 65.1609 9.93932 64.0345 9.82311C64.0064 9.82046 63.9798 9.80924 63.9584 9.79098C63.937 9.77271 63.9217 9.74831 63.9148 9.72111C63.9063 9.69443 63.9061 9.66581 63.9142 9.63901C63.9224 9.61221 63.9385 9.58848 63.9604 9.57094C64.27 9.32242 64.5476 9.03694 64.7869 8.72094C63.8607 9.10911 62.7435 8.96178 61.7403 8.82861L61.4553 8.79461C58.2918 8.39228 55.2679 8.91078 52.9395 10.2566C51.8992 10.8573 51.3349 11.5344 51.2608 12.2683C51.259 12.2886 51.2527 12.3083 51.2423 12.3259C51.232 12.3435 51.2179 12.3587 51.201 12.3703C51.184 12.3817 51.1649 12.3894 51.1447 12.3928C51.1245 12.3963 51.1039 12.3953 51.0841 12.3901C50.7832 12.3318 50.4722 12.3535 50.1824 12.453C49.8927 12.5525 49.6345 12.7263 49.434 12.9568C49.0222 13.4442 48.7461 14.0303 48.6331 14.6568C48.0631 17.1586 48.5077 19.3998 48.9894 21.7741C49.2088 22.8621 49.434 23.9869 49.5594 25.1514L51.0328 25.2449C53.2587 25.3894 55.5586 25.5283 57.8244 25.5056L58.1151 25.5198Z" fill="#231F20"/>
<path d="M52.0442 39.0065C52.0442 39.0065 54.3612 40.1851 58.3398 40.3211C62.3184 40.4571 62.9853 39.3833 62.9853 39.3833L62.8884 37.2668L62.6718 32.3481L62.4552 27.7666L53.3751 27.455L52.9419 31.1666L52.808 32.3793L52.0442 39.0065Z" fill="white"/>
<path d="M59.0149 40.4741C58.7983 40.4741 58.5731 40.4741 58.3337 40.4741C54.3694 40.3381 52.0039 39.1566 51.9811 39.1453C51.9548 39.1329 51.9331 39.1125 51.9193 39.087C51.9054 39.0615 51.9001 39.0323 51.9041 39.0036L53.2322 27.4351C53.2337 27.4172 53.2387 27.3998 53.2469 27.3838C53.2551 27.3679 53.2665 27.3537 53.2802 27.3421C53.294 27.3305 53.31 27.3218 53.3272 27.3163C53.3444 27.3109 53.3625 27.3089 53.3804 27.3104L62.4605 27.6221C62.4964 27.6235 62.5304 27.6383 62.5557 27.6635C62.5811 27.6887 62.5959 27.7225 62.5973 27.7581L63.1217 39.3748C63.123 39.4039 63.115 39.4326 63.0989 39.4569C63.0733 39.5051 62.4149 40.4741 59.0149 40.4741ZM52.1977 38.9243C52.6565 39.1311 54.8738 40.0576 58.3451 40.1794C61.7651 40.2956 62.68 39.5051 62.8339 39.3294L62.3209 27.8828L53.5001 27.5768L52.1977 38.9243Z" fill="#231F20"/>
<path d="M52.8081 32.3906C53.4551 33.524 54.5609 34.4108 55.7009 35.0936C57.6161 36.227 60.5003 37.5473 62.8829 37.2696L62.6663 32.351C60.9204 32.5071 59.1621 32.4577 57.428 32.2036C55.9004 32.0195 54.3272 31.8126 52.9421 31.178L52.8081 32.3906Z" fill="#231F20"/>
<path d="M62.204 37.4482C59.7587 37.4482 57.074 36.0825 55.6262 35.2155C54.2554 34.3938 53.2636 33.4673 52.6822 32.4615C52.668 32.4355 52.6621 32.4059 52.6651 32.3765L52.799 31.1638C52.8017 31.1416 52.8095 31.1203 52.8219 31.1017C52.8343 31.083 52.8508 31.0674 52.8703 31.0562C52.8905 31.0457 52.913 31.0403 52.9358 31.0403C52.9586 31.0403 52.9811 31.0457 53.0014 31.0562C54.4064 31.6993 56.0195 31.9062 57.4445 32.0705C59.1674 32.323 60.9143 32.3715 62.6486 32.215C62.6679 32.213 62.6875 32.215 62.706 32.2207C62.7246 32.2263 62.7418 32.2357 62.7567 32.2481C62.7716 32.2605 62.7838 32.2757 62.7926 32.2929C62.8015 32.3101 62.8068 32.3289 62.8082 32.3482L63.0248 37.2697C63.0265 37.3051 63.0144 37.3398 62.991 37.3667C62.9677 37.3936 62.9349 37.4106 62.8994 37.4142C62.6685 37.4398 62.4363 37.4512 62.204 37.4482ZM52.9529 32.3482C53.5229 33.2973 54.4606 34.1757 55.7744 34.9605C57.3077 35.8757 60.2318 37.3575 62.7341 37.1308L62.5289 32.4955C60.8183 32.6348 59.0973 32.5807 57.3989 32.334C56.0167 32.164 54.4549 31.9742 53.0527 31.3763L52.9529 32.3482Z" fill="#231F20"/>
<path d="M65.1174 17.4278C65.5677 17.4731 65.448 18.7283 65.4509 19.3885V22.7375C65.4509 24.0493 65.4965 25.3696 65.4509 26.6786C65.4343 27.1475 65.3703 27.6136 65.2599 28.0698C64.8819 29.6181 63.9783 30.9893 62.7017 31.9525C61.4251 32.9156 59.8534 33.4116 58.2518 33.3568L57.4395 33.3256C55.5956 33.2599 53.8533 32.4692 52.5954 31.1273C51.3375 29.7853 50.6668 28.0019 50.7306 26.1686C50.7563 25.4065 50.7306 24.6358 50.7306 23.8708C50.7306 22.899 50.2148 20.5275 51.369 20.0883C51.751 19.9835 52.1443 19.9255 52.5404 19.9155C53.1041 19.8502 53.6487 19.6723 54.1415 19.3923C54.6342 19.1123 55.0648 18.7361 55.4075 18.2863L55.2222 19.3545C57.2043 19.5318 59.201 19.2596 61.0619 18.5583C61.9739 18.2126 62.9172 17.7083 63.2906 16.8016L63.2564 18.785C63.7295 18.717 64.0572 18.3005 64.3764 17.935C64.6956 17.5695 64.955 17.4108 65.1174 17.4278Z" fill="white"/>
<path d="M58.502 33.5013H58.2569L57.4447 33.4701C56.5121 33.439 55.5948 33.2254 54.7454 32.8414C53.8959 32.4575 53.131 31.9108 52.4943 31.2326C51.8577 30.5544 51.3618 29.758 51.0351 28.8891C50.7084 28.0201 50.5573 27.0957 50.5904 26.1686C50.6075 25.6614 50.5904 25.1429 50.5904 24.6414C50.5904 24.3836 50.5904 24.1286 50.5904 23.8736C50.5904 23.6781 50.5676 23.4231 50.542 23.1284C50.4422 21.9526 50.3054 20.3461 51.3229 19.9608C51.612 19.8659 51.9135 19.8134 52.2178 19.8049L52.5256 19.7766C53.069 19.7114 53.5937 19.5384 54.0686 19.2678C54.5435 18.9972 54.9589 18.6345 55.2901 18.2013C55.3094 18.1765 55.3364 18.1587 55.3669 18.1508C55.3975 18.1429 55.4298 18.1453 55.4588 18.1576C55.4878 18.1699 55.5119 18.1915 55.5272 18.2189C55.5426 18.2462 55.5484 18.2779 55.5437 18.3089L55.387 19.2269C57.2994 19.3717 59.2204 19.095 61.0129 18.4166C62.1842 17.9746 62.8682 17.4419 63.1618 16.7393C63.1734 16.7082 63.196 16.6824 63.2254 16.6668C63.2548 16.6511 63.2889 16.6467 63.3214 16.6543C63.3541 16.6609 63.3834 16.6787 63.4042 16.7046C63.425 16.7305 63.4361 16.7628 63.4354 16.7959L63.404 18.5838C63.7146 18.4304 63.9834 18.2049 64.1878 17.9264L64.2704 17.8329C64.6295 17.4306 64.8974 17.2663 65.1254 17.2663C65.6327 17.3201 65.6128 18.2183 65.5928 19.0116C65.5928 19.1419 65.5928 19.2638 65.5928 19.3686V22.7176C65.5928 23.1539 65.5928 23.5903 65.5928 24.0294C65.5928 24.8936 65.6156 25.7861 65.5928 26.6644C65.5321 28.4954 64.7568 30.231 63.431 31.5035C62.1053 32.776 60.3334 33.4854 58.4906 33.4814L58.502 33.5013ZM55.1818 18.7679C54.4808 19.4833 53.5544 19.9383 52.5569 20.0571L52.2406 20.0854C51.9627 20.0903 51.687 20.1361 51.4226 20.2214C50.6075 20.5303 50.7358 22.0178 50.827 23.1001C50.8526 23.4033 50.8754 23.6668 50.8754 23.8708C50.8754 24.1258 50.8754 24.3779 50.8754 24.6358C50.8754 25.1401 50.8754 25.6614 50.8754 26.1743C50.8438 27.064 50.989 27.9513 51.3025 28.7852C51.6161 29.6192 52.0919 30.3836 52.7028 31.0346C53.3137 31.6856 54.0477 32.2105 54.8628 32.5793C55.6779 32.9481 56.5582 33.1536 57.4532 33.1839L58.2683 33.2151C59.1636 33.2476 60.0566 33.1042 60.8959 32.7928C61.7353 32.4815 62.5046 32.0085 63.1597 31.401C63.8148 30.7934 64.3427 30.0633 64.7133 29.2524C65.0839 28.4416 65.2898 27.5659 65.3192 26.6758C65.3477 25.8031 65.3363 24.9134 65.3192 24.0521C65.3192 23.6129 65.3192 23.1766 65.3192 22.7374V19.3884C65.3192 19.2808 65.3192 19.1561 65.3192 19.0258C65.3192 18.5611 65.3534 17.5949 65.1083 17.5694C65.0513 17.5694 64.8775 17.5949 64.4899 18.0284L64.4101 18.1333C64.1108 18.4733 63.7745 18.8586 63.29 18.9266C63.2695 18.9302 63.2483 18.9293 63.2281 18.9239C63.2079 18.9186 63.1892 18.9088 63.1732 18.8954C63.1577 18.8814 63.1454 18.8644 63.1371 18.8453C63.1287 18.8263 63.1245 18.8057 63.1247 18.7849L63.1504 17.3683C62.7514 17.9066 62.093 18.3401 61.124 18.7056C59.2426 19.4122 57.225 19.6873 55.2217 19.5103C55.2021 19.5086 55.1831 19.5029 55.1658 19.4935C55.1486 19.4842 55.1335 19.4714 55.1214 19.456C55.1094 19.4405 55.1007 19.4228 55.0959 19.4039C55.091 19.3849 55.0902 19.3652 55.0934 19.3459L55.1818 18.7679Z" fill="#231F20"/>
<path d="M58.1742 21.8647C58.1742 21.8647 60.4542 26.8826 59.4481 26.9647C58.4421 27.0469 57 26.3131 57 26.3131" fill="white"/>
<path d="M59.2805 27.1235C58.263 27.1235 57.0005 26.469 56.9435 26.4407C56.9267 26.432 56.9119 26.4201 56.8998 26.4057C56.8877 26.3913 56.8786 26.3747 56.873 26.3568C56.8675 26.3388 56.8655 26.32 56.8674 26.3013C56.8692 26.2827 56.8747 26.2645 56.8836 26.248C56.9012 26.2151 56.9311 26.1905 56.9668 26.1793C57.0026 26.1682 57.0413 26.1715 57.0746 26.1885C57.0888 26.1885 58.4996 26.9167 59.4429 26.8317C59.4597 26.8313 59.4759 26.8263 59.49 26.8173C59.5041 26.8083 59.5154 26.7956 59.5227 26.7807C59.8277 26.2593 58.7817 23.5252 58.0521 21.9243C58.0393 21.8906 58.0399 21.8533 58.0538 21.82C58.0677 21.7867 58.0938 21.7599 58.1269 21.745C58.1599 21.7302 58.1975 21.7285 58.2318 21.7402C58.2661 21.752 58.2946 21.7763 58.3115 21.8082C58.511 22.2445 60.2466 26.1063 59.7678 26.9082C59.7383 26.9627 59.6954 27.009 59.643 27.0426C59.5907 27.0763 59.5307 27.0963 59.4686 27.1008C59.4002 27.1207 59.3346 27.1235 59.2805 27.1235Z" fill="#231F20"/>
<path d="M55.524 24.2816C55.7884 24.2816 56.0028 23.8719 56.0028 23.3665C56.0028 22.861 55.7884 22.4513 55.524 22.4513C55.2595 22.4513 55.0452 22.861 55.0452 23.3665C55.0452 23.8719 55.2595 24.2816 55.524 24.2816Z" fill="#231F20"/>
<path d="M61.5574 24.2816C61.8218 24.2816 62.0362 23.8719 62.0362 23.3665C62.0362 22.861 61.8218 22.4513 61.5574 22.4513C61.293 22.4513 61.0786 22.861 61.0786 23.3665C61.0786 23.8719 61.293 24.2816 61.5574 24.2816Z" fill="#231F20"/>
<path d="M64.0823 35.6178C63.9113 35.6178 58.2854 40.3211 58.2854 40.3211L61.7624 44.353L65.4674 37.3065L64.0823 35.6178Z" fill="white"/>
<path d="M61.7624 44.4832C61.7418 44.4825 61.7216 44.4776 61.703 44.4689C61.6844 44.4601 61.6677 44.4476 61.6541 44.4322L58.1771 40.4032C58.1525 40.374 58.1403 40.3364 58.1429 40.2984C58.1447 40.2798 58.1501 40.2617 58.1589 40.2451C58.1677 40.2286 58.1797 40.2139 58.1942 40.2021C63.8572 35.4647 64.0168 35.4647 64.0823 35.4647C64.1035 35.4649 64.1243 35.4695 64.1435 35.4783C64.1626 35.4871 64.1797 35.4998 64.1935 35.5157L65.59 37.2157C65.6075 37.2374 65.6182 37.2638 65.6207 37.2915C65.6233 37.3192 65.6175 37.3471 65.6042 37.3716L61.8992 44.4181C61.888 44.4383 61.872 44.4555 61.8527 44.4683C61.8333 44.4812 61.8112 44.4892 61.7881 44.4917L61.7624 44.4832ZM58.4878 40.3267L61.7339 44.0894L65.3078 37.3121L64.051 35.7906C63.4838 36.1901 60.5255 38.6352 58.4878 40.3381V40.3267Z" fill="#231F20"/>
<path d="M51.5659 35.5781C51.7512 35.5781 58.3404 40.3211 58.3404 40.3211L54.3219 44.353L50.3005 36.6576L51.5659 35.5781Z" fill="white"/>
<path d="M54.3211 44.4833H54.2983C54.2761 44.4801 54.255 44.4718 54.2367 44.459C54.2184 44.4462 54.2033 44.4293 54.1928 44.4096L50.1743 36.7143C50.1596 36.6859 50.1549 36.6534 50.1611 36.622C50.1673 36.5906 50.184 36.5622 50.2085 36.5415L51.4711 35.462C51.4973 35.4397 51.5307 35.4276 51.5651 35.428C51.6221 35.428 51.796 35.428 58.4222 40.1993C58.4394 40.2106 58.4538 40.2257 58.4641 40.2434C58.4745 40.2611 58.4807 40.2809 58.4821 40.3013C58.4838 40.3215 58.4811 40.3418 58.4742 40.3609C58.4673 40.3799 58.4564 40.3973 58.4422 40.4118L54.4351 44.4521C54.4193 44.465 54.4011 44.4744 54.3814 44.4798C54.3618 44.4851 54.3412 44.4864 54.3211 44.4833V44.4833ZM50.4793 36.6917L54.3553 44.115L58.1201 40.3381C55.6862 38.5871 52.1351 36.0712 51.5879 35.7453L50.4793 36.6917Z" fill="#231F20"/>
<path d="M58.2772 31.3196H58.072C55.3559 31.1298 54.7831 28.05 54.7774 28.0188C54.7733 27.999 54.7738 27.9785 54.7787 27.9589C54.7837 27.9393 54.7929 27.921 54.8059 27.9055C54.8192 27.8898 54.8358 27.8771 54.8545 27.8683C54.8731 27.8595 54.8935 27.8548 54.9142 27.8545L62.156 27.6108C62.1799 27.6092 62.2038 27.6138 62.2253 27.6243C62.2468 27.6347 62.2651 27.6506 62.2785 27.6703C62.2898 27.6907 62.2957 27.7136 62.2957 27.7369C62.2957 27.7601 62.2898 27.783 62.2785 27.8035C62.2358 27.9451 60.8535 31.3196 58.2772 31.3196ZM55.0937 28.1236C55.2505 28.7356 55.9487 30.8833 58.0919 31.0306C60.2351 31.1779 61.5888 28.6393 61.9394 27.897L55.0937 28.1236Z" fill="#231F20"/>
<path d="M49.371 18.3741H50.7305V27.4408H49.3739C48.6845 27.4408 48.0234 27.1686 47.536 26.684C47.0485 26.1994 46.7747 25.5421 46.7747 24.8568V20.9666C46.7735 20.6268 46.8399 20.2901 46.9698 19.9758C47.0997 19.6615 47.2908 19.3758 47.5319 19.135C47.7731 18.8942 48.0597 18.703 48.3752 18.5725C48.6908 18.4419 49.0292 18.3745 49.371 18.3741V18.3741Z" fill="white"/>
<path d="M50.7305 27.5824H49.3711C48.6439 27.5809 47.947 27.2928 47.4331 26.7814C46.9192 26.2699 46.6301 25.5768 46.6294 24.8539V20.9665C46.6301 20.2436 46.9192 19.5505 47.4331 19.039C47.947 18.5276 48.6439 18.2395 49.3711 18.238H50.7305C50.7681 18.2388 50.8039 18.2539 50.8305 18.2803C50.8571 18.3067 50.8723 18.3424 50.873 18.3797V27.4464C50.8709 27.4827 50.855 27.5169 50.8286 27.5421C50.8022 27.5674 50.7672 27.5817 50.7305 27.5824V27.5824ZM49.3711 18.5157C48.7185 18.5172 48.0932 18.7762 47.6326 19.2357C47.172 19.6952 46.9136 20.3178 46.9144 20.9665V24.8539C46.9151 25.5017 47.1741 26.1227 47.6346 26.581C48.0951 27.0394 48.7195 27.2975 49.3711 27.299H50.588V18.5157H49.3711Z" fill="#231F20"/>
<path d="M66.8385 27.2028H65.4819V18.1361H66.8385C67.1799 18.1361 67.5179 18.2029 67.8332 18.3328C68.1486 18.4626 68.4351 18.653 68.6765 18.8929C68.9178 19.1329 69.1093 19.4177 69.2399 19.7312C69.3705 20.0447 69.4377 20.3808 69.4377 20.7201V24.6159C69.4381 24.9555 69.3712 25.2918 69.2407 25.6056C69.1103 25.9195 68.9189 26.2047 68.6775 26.4449C68.4361 26.6852 68.1494 26.8758 67.8339 27.0058C67.5183 27.1358 67.1801 27.2028 66.8385 27.2028V27.2028Z" fill="white"/>
<path d="M66.8355 27.3416H65.4789C65.4411 27.3416 65.4049 27.3267 65.3782 27.3001C65.3514 27.2735 65.3364 27.2375 65.3364 27.1999V18.1332C65.3364 18.0957 65.3514 18.0596 65.3782 18.0331C65.4049 18.0065 65.4411 17.9916 65.4789 17.9916H66.8355C67.5629 17.9916 68.2606 18.2787 68.7752 18.7897C69.2898 19.3008 69.5793 19.9941 69.5801 20.7172V24.6159C69.5786 25.3388 69.2888 26.0317 68.7744 26.5426C68.2599 27.0535 67.5627 27.3408 66.8355 27.3416V27.3416ZM65.6214 27.0582H66.8355C67.4871 27.0575 68.1118 26.8 68.5729 26.3422C69.0339 25.8845 69.2936 25.2637 69.2951 24.6159V20.7201C69.2936 20.0723 69.0339 19.4515 68.5729 18.9937C68.1118 18.536 67.4871 18.2785 66.8355 18.2777H65.6214V27.0582Z" fill="#231F20"/>
<path d="M66.9153 20.6408C66.8397 20.6408 66.7672 20.6109 66.7138 20.5578C66.6603 20.5046 66.6303 20.4326 66.6303 20.3574C66.6303 15.6258 63.652 11.7781 59.9955 11.7781H56.2905C52.6339 11.7781 49.6557 15.6258 49.6557 20.3574C49.6557 20.4326 49.6257 20.5046 49.5722 20.5578C49.5188 20.6109 49.4463 20.6408 49.3707 20.6408C49.2951 20.6408 49.2226 20.6109 49.1692 20.5578C49.1157 20.5046 49.0857 20.4326 49.0857 20.3574C49.0857 15.3141 52.3176 11.2114 56.2905 11.2114H59.9955C63.9684 11.2114 67.2003 15.3141 67.2003 20.3574C67.2003 20.4326 67.1703 20.5046 67.1168 20.5578C67.0634 20.6109 66.9909 20.6408 66.9153 20.6408Z" fill="#231F20"/>
<path d="M52.3832 30.192C51.0124 30.192 49.9037 30.1211 49.7128 29.9086C49.2197 29.342 49.0658 26.7523 49.0487 26.4576C49.0471 26.4202 49.0602 26.3837 49.0852 26.3557C49.1102 26.3277 49.1451 26.3104 49.1827 26.3075C49.2017 26.3059 49.2209 26.3083 49.2389 26.3144C49.257 26.3205 49.2737 26.3302 49.2878 26.3429C49.302 26.3557 49.3134 26.3712 49.3213 26.3885C49.3291 26.4058 49.3334 26.4245 49.3337 26.4435C49.3765 27.217 49.5646 29.3165 49.9265 29.7216C50.2343 30.005 54.4124 29.9313 58.277 29.6735C58.3144 29.6726 58.3508 29.6858 58.3789 29.7105C58.4069 29.7352 58.4245 29.7696 58.4281 29.8066C58.4292 29.8252 58.4267 29.8439 58.4206 29.8615C58.4144 29.8792 58.4049 29.8954 58.3924 29.9094C58.38 29.9233 58.3649 29.9347 58.348 29.9428C58.3312 29.951 58.3128 29.9557 58.2941 29.9568C57.4648 30.0106 54.5863 30.192 52.3832 30.192Z" fill="#231F20"/>
<path d="M57.8866 29.2966H54.8114C54.4667 29.2966 54.1873 29.5744 54.1873 29.9171C54.1873 30.2598 54.4667 30.5376 54.8114 30.5376H57.8866C58.2313 30.5376 58.5107 30.2598 58.5107 29.9171C58.5107 29.5744 58.2313 29.2966 57.8866 29.2966Z" fill="#231F20"/>
<path d="M57.8867 30.6792H54.8116C54.6082 30.6792 54.4132 30.5989 54.2695 30.456C54.1257 30.3131 54.0449 30.1192 54.0449 29.9171C54.0449 29.7149 54.1257 29.5211 54.2695 29.3781C54.4132 29.2352 54.6082 29.1549 54.8116 29.1549H57.8867C58.09 29.1549 58.285 29.2352 58.4288 29.3781C58.5726 29.5211 58.6534 29.7149 58.6534 29.9171C58.6534 30.1192 58.5726 30.3131 58.4288 30.456C58.285 30.5989 58.09 30.6792 57.8867 30.6792V30.6792ZM54.8116 29.4382C54.6838 29.4382 54.5613 29.4887 54.471 29.5785C54.3807 29.6683 54.3299 29.7901 54.3299 29.9171C54.3299 30.0441 54.3807 30.1659 54.471 30.2557C54.5613 30.3455 54.6838 30.3959 54.8116 30.3959H57.8867C58.0145 30.3959 58.137 30.3455 58.2273 30.2557C58.3176 30.1659 58.3684 30.0441 58.3684 29.9171C58.3684 29.7901 58.3176 29.6683 58.2273 29.5785C58.137 29.4887 58.0145 29.4382 57.8867 29.4382H54.8116Z" fill="#231F20"/>
<path d="M56.4304 24.5649H53.3439C52.8538 24.5642 52.3841 24.3701 52.0378 24.0253C51.6916 23.6806 51.4971 23.2133 51.4971 22.7261V21.1196C51.4971 21.082 51.5121 21.046 51.5388 21.0194C51.5655 20.9928 51.6018 20.9779 51.6396 20.9779H58.1404C58.1782 20.9779 58.2144 20.9928 58.2412 21.0194C58.2679 21.046 58.2829 21.082 58.2829 21.1196V22.7261C58.2822 23.214 58.0866 23.6817 57.7393 24.0265C57.392 24.3713 56.9212 24.5649 56.4304 24.5649V24.5649ZM51.7821 21.2499V22.7147C51.7821 23.1268 51.9465 23.522 52.2393 23.8136C52.5321 24.1053 52.9294 24.2695 53.3439 24.2702H56.4304C56.8452 24.2695 57.2427 24.1054 57.536 23.8138C57.8292 23.5223 57.9943 23.1271 57.9951 22.7147V21.2499H51.7821Z" fill="#231F20"/>
<path d="M64.0057 24.5649H60.9078C60.4174 24.5642 59.9474 24.3702 59.6007 24.0255C59.254 23.6808 59.0589 23.2135 59.0581 22.7261V21.1196C59.0581 21.082 59.0731 21.046 59.0998 21.0194C59.1266 20.9928 59.1628 20.9779 59.2006 20.9779H65.71C65.7478 20.9779 65.784 20.9928 65.8108 21.0194C65.8375 21.046 65.8525 21.082 65.8525 21.1196V22.7261C65.8525 23.2133 65.658 23.6806 65.3118 24.0253C64.9655 24.3701 64.4958 24.5642 64.0057 24.5649ZM59.3431 21.2499V22.7147C59.3439 23.1271 59.5089 23.5223 59.8022 23.8138C60.0955 24.1054 60.493 24.2695 60.9078 24.2702H64.0057C64.4202 24.2695 64.8174 24.1053 65.1102 23.8136C65.4031 23.522 65.5675 23.1268 65.5675 22.7147V21.2499H59.3431Z" fill="#231F20"/>
<path d="M59.2002 22.0063C59.1728 22.0072 59.1458 21.9992 59.1233 21.9837C59.0326 21.905 58.9266 21.8458 58.8118 21.8097C58.6971 21.7736 58.5761 21.7615 58.4564 21.774C58.4233 21.7848 58.3929 21.8025 58.3674 21.826C58.3418 21.8494 58.3216 21.8781 58.3082 21.91C58.2959 21.9452 58.2701 21.9741 58.2365 21.9905C58.2029 22.007 58.1642 22.0096 58.1286 21.9978C58.111 21.9924 58.0946 21.9835 58.0804 21.9716C58.0662 21.9598 58.0546 21.9453 58.0461 21.929C58.0376 21.9126 58.0325 21.8948 58.031 21.8764C58.0295 21.8581 58.0317 21.8397 58.0374 21.8222C58.0637 21.7494 58.106 21.6834 58.1612 21.629C58.2164 21.5746 58.2832 21.5331 58.3566 21.5077C58.6017 21.4227 58.9266 21.5077 59.28 21.7485C59.3048 21.7657 59.3234 21.7902 59.3332 21.8186C59.343 21.8469 59.3435 21.8777 59.3347 21.9064C59.3258 21.935 59.308 21.9602 59.2838 21.9781C59.2597 21.9961 59.2304 22.006 59.2002 22.0063Z" fill="#231F20"/>
<path d="M51.6393 22.0064H50.7301C50.6924 22.0064 50.6561 21.9914 50.6294 21.9649C50.6027 21.9383 50.5876 21.9023 50.5876 21.8647C50.5876 21.8271 50.6027 21.7911 50.6294 21.7645C50.6561 21.7379 50.6924 21.723 50.7301 21.723H51.6393C51.6769 21.7237 51.7127 21.7389 51.7393 21.7653C51.7658 21.7917 51.7811 21.8273 51.7818 21.8647C51.7818 21.9023 51.7668 21.9383 51.7401 21.9649C51.7133 21.9914 51.6771 22.0064 51.6393 22.0064Z" fill="#231F20"/>
<path d="M75.4599 74.9332H38.8545L35.5542 51.1501H78.763L75.4599 74.9332Z" fill="#231F20"/>
<path d="M75.4602 75.0832H38.8548C38.8205 75.0835 38.7874 75.0712 38.7616 75.0488C38.7359 75.0263 38.7193 74.9952 38.7151 74.9614L35.412 51.1699C35.4084 51.1301 35.4207 51.0904 35.4462 51.0594C35.4598 51.044 35.4764 51.0316 35.495 51.0228C35.5137 51.014 35.5339 51.0091 35.5545 51.0084H78.7633C78.7836 51.0088 78.8035 51.0136 78.8217 51.0224C78.8399 51.0312 78.856 51.0438 78.8688 51.0594C78.8827 51.074 78.8929 51.0915 78.8989 51.1107C78.9048 51.1299 78.9062 51.1501 78.903 51.1699L75.6027 74.9529C75.5998 74.9885 75.5835 75.0217 75.5571 75.0458C75.5307 75.07 75.4961 75.0834 75.4602 75.0832V75.0832ZM38.9802 74.7999H75.3376L78.598 51.2833H35.7169L38.9802 74.7999Z" fill="#231F20"/>
<path d="M75.7934 74.9331H38.4441C37.953 74.9331 37.5549 75.3289 37.5549 75.8171V75.8199C37.5549 76.3082 37.953 76.7039 38.4441 76.7039H75.7934C76.2845 76.7039 76.6826 76.3082 76.6826 75.8199V75.8171C76.6826 75.3289 76.2845 74.9331 75.7934 74.9331Z" fill="#231F20"/>
<path d="M75.8103 76.8456H38.4753C38.3351 76.8529 38.1948 76.8318 38.063 76.7835C37.9313 76.7352 37.8108 76.6607 37.7089 76.5646C37.6071 76.4685 37.5259 76.3528 37.4705 76.2246C37.4151 76.0963 37.3865 75.9581 37.3865 75.8185C37.3865 75.6789 37.4151 75.5408 37.4705 75.4125C37.5259 75.2842 37.6071 75.1685 37.7089 75.0724C37.8108 74.9764 37.9313 74.9019 38.063 74.8536C38.1948 74.8053 38.3351 74.7841 38.4753 74.7915H75.8103C76.0749 74.8053 76.3241 74.9195 76.5065 75.1106C76.6889 75.3017 76.7906 75.5551 76.7906 75.8185C76.7906 76.082 76.6889 76.3354 76.5065 76.5265C76.3241 76.7176 76.0749 76.8318 75.8103 76.8456ZM38.4468 75.0833C38.3447 75.077 38.2423 75.0916 38.1461 75.1261C38.0499 75.1607 37.9617 75.2145 37.8872 75.2841C37.8126 75.3538 37.7532 75.4379 37.7126 75.5313C37.672 75.6247 37.6511 75.7253 37.6511 75.827C37.6511 75.9288 37.672 76.0294 37.7126 76.1228C37.7532 76.2161 37.8126 76.3003 37.8872 76.3699C37.9617 76.4396 38.0499 76.4934 38.1461 76.5279C38.2423 76.5625 38.3447 76.5771 38.4468 76.5708H75.8103C76.0007 76.5591 76.1795 76.4757 76.3102 76.3375C76.4409 76.1993 76.5136 76.0167 76.5136 75.827C76.5136 75.6374 76.4409 75.4548 76.3102 75.3166C76.1795 75.1784 76.0007 75.095 75.8103 75.0833H38.4468Z" fill="#231F20"/>
<path d="M74.1263 75.0834H38.4472C38.4094 75.0834 38.3732 75.0685 38.3464 75.0419C38.3197 75.0153 38.3047 74.9793 38.3047 74.9417C38.3047 74.9041 38.3197 74.8681 38.3464 74.8415C38.3732 74.815 38.4094 74.8 38.4472 74.8H74.1263C74.1641 74.8 74.2004 74.815 74.2271 74.8415C74.2538 74.8681 74.2688 74.9041 74.2688 74.9417C74.2688 74.9793 74.2538 75.0153 74.2271 75.0419C74.2004 75.0685 74.1641 75.0834 74.1263 75.0834Z" fill="white"/>
<path d="M48.2311 23.5166H47.131C47.0932 23.5166 47.057 23.5017 47.0303 23.4751C47.0035 23.4486 46.9885 23.4125 46.9885 23.3749C46.9885 23.3374 47.0035 23.3013 47.0303 23.2748C47.057 23.2482 47.0932 23.2333 47.131 23.2333H48.2311C48.2689 23.2333 48.3052 23.2482 48.3319 23.2748C48.3586 23.3013 48.3736 23.3374 48.3736 23.3749C48.3736 23.4125 48.3586 23.4486 48.3319 23.4751C48.3052 23.5017 48.2689 23.5166 48.2311 23.5166Z" fill="#D1D3D4"/>
<path d="M48.2311 24.5649H47.131C47.0932 24.5649 47.057 24.55 47.0303 24.5235C47.0035 24.4969 46.9885 24.4609 46.9885 24.4233C46.9885 24.3857 47.0035 24.3497 47.0303 24.3231C47.057 24.2965 47.0932 24.2816 47.131 24.2816H48.2311C48.2689 24.2816 48.3052 24.2965 48.3319 24.3231C48.3586 24.3497 48.3736 24.3857 48.3736 24.4233C48.3736 24.4609 48.3586 24.4969 48.3319 24.5235C48.3052 24.55 48.2689 24.5649 48.2311 24.5649Z" fill="#D1D3D4"/>
<path d="M57.0008 62.6563C56.9341 62.5668 56.8431 62.498 56.7386 62.458C56.6387 62.4185 56.5325 62.3974 56.4251 62.3957C56.3018 62.395 56.1797 62.4191 56.066 62.4665C55.9609 62.513 55.8663 62.5802 55.788 62.6639C55.7096 62.7477 55.6491 62.8463 55.61 62.9538C55.567 63.0709 55.5458 63.1947 55.5473 63.3193C55.5457 63.4474 55.5659 63.5748 55.6071 63.6961C55.6462 63.8008 55.7053 63.897 55.781 63.9795C55.857 64.0608 55.9492 64.1254 56.0517 64.1693C56.1635 64.216 56.2839 64.2392 56.4051 64.2373C56.5307 64.2394 56.6549 64.2112 56.7671 64.1551C56.8675 64.1068 56.9546 64.0348 57.0207 63.9455L57.3827 64.1976C57.2732 64.3365 57.1327 64.4481 56.9723 64.5235C56.7933 64.6038 56.5986 64.6435 56.4023 64.6396C56.2152 64.641 56.0296 64.6073 55.8551 64.5405C55.6943 64.4767 55.5487 64.3802 55.4276 64.2571C55.305 64.138 55.2081 63.9953 55.1426 63.8378C55.0748 63.6664 55.041 63.4836 55.0428 63.2995C55.0406 63.112 55.0765 62.926 55.1483 62.7527C55.2138 62.596 55.3108 62.4543 55.4333 62.3362C55.5596 62.2205 55.7078 62.1309 55.8693 62.0727C56.0441 62.0112 56.2283 61.9805 56.4137 61.982C56.4988 61.9815 56.5837 61.9891 56.6673 62.0047C56.7542 62.0192 56.8392 62.043 56.921 62.0755C57.0021 62.1066 57.0795 62.1465 57.1518 62.1945C57.2212 62.2413 57.2827 62.2987 57.3342 62.3645L57.0008 62.6563Z" fill="white"/>
<path d="M58.9554 62.5912C58.901 62.525 58.8317 62.4726 58.753 62.4382C58.6716 62.3976 58.5819 62.3762 58.4908 62.3758C58.437 62.3754 58.3833 62.3821 58.3312 62.3957C58.2805 62.4066 58.2321 62.4268 58.1887 62.4552C58.1461 62.4829 58.1101 62.5197 58.0833 62.5628C58.0546 62.6107 58.0407 62.6659 58.0434 62.7215C58.0417 62.7718 58.0535 62.8217 58.0776 62.866C58.1039 62.9069 58.1377 62.9425 58.1773 62.9708C58.2244 63.0015 58.2752 63.0263 58.3284 63.0445L58.525 63.1097C58.6077 63.1352 58.6903 63.1635 58.7787 63.1975C58.8637 63.2308 58.9441 63.2746 59.0181 63.3278C59.0918 63.3836 59.153 63.454 59.1976 63.5347C59.2462 63.6313 59.2697 63.7384 59.266 63.8463C59.2694 63.9685 59.244 64.0898 59.1919 64.2005C59.1441 64.2968 59.0761 64.3819 58.9924 64.4498C58.9077 64.5171 58.811 64.5681 58.7074 64.6C58.5919 64.6344 58.4718 64.6516 58.3512 64.651C58.1864 64.6506 58.0231 64.6198 57.8695 64.5603C57.7177 64.5011 57.5841 64.4035 57.4819 64.277L57.804 63.9767C57.8689 64.0635 57.954 64.1335 58.0519 64.1807C58.1478 64.2274 58.2529 64.2526 58.3597 64.2543C58.4136 64.2546 58.4672 64.2479 58.5193 64.2345C58.5722 64.2232 58.6222 64.2012 58.6663 64.17C58.7104 64.1389 58.7477 64.0991 58.7758 64.0532C58.8062 64.0007 58.8211 63.9408 58.8186 63.8803C58.8199 63.8219 58.803 63.7645 58.7701 63.716C58.7376 63.6692 58.6947 63.6304 58.6447 63.6027C58.5872 63.566 58.5249 63.5374 58.4595 63.5177L58.2343 63.444C58.1564 63.4176 58.0795 63.3892 58.0035 63.359C57.9284 63.3258 57.8591 63.2808 57.7983 63.2258C57.7358 63.1693 57.6854 63.1009 57.6501 63.0247C57.6096 62.9308 57.5902 62.8293 57.5931 62.7272C57.5896 62.6116 57.6172 62.4972 57.6729 62.3957C57.7268 62.3058 57.7986 62.2277 57.8838 62.1662C57.9713 62.1067 58.0674 62.0608 58.1688 62.0302C58.2796 62.0019 58.3935 61.9877 58.5079 61.9877C58.6419 61.9887 58.7748 62.0116 58.9012 62.0557C59.0292 62.0977 59.1468 62.1663 59.2461 62.2568L58.9554 62.5912Z" fill="white"/>
<path d="M57.157 66.5607C56.5137 66.559 55.8853 66.3678 55.3512 66.0112C54.8171 65.6547 54.4012 65.1488 54.1562 64.5574C53.9112 63.966 53.8479 63.3157 53.9745 62.6886C54.101 62.0615 54.4117 61.4857 54.8672 61.0341C55.3227 60.5824 55.9027 60.2751 56.5338 60.1509C57.1649 60.0267 57.8189 60.0913 58.4131 60.3365C59.0073 60.5816 59.5151 60.9963 59.8724 61.5283C60.2296 62.0602 60.4203 62.6854 60.4203 63.325C60.4199 63.7505 60.3352 64.1718 60.171 64.5648C60.0067 64.9577 59.7662 65.3147 59.4632 65.6152C59.1601 65.9156 58.8004 66.1538 58.4047 66.3161C58.009 66.4783 57.5851 66.5614 57.157 66.5607V66.5607ZM57.157 60.3727C56.5701 60.3744 55.9967 60.5489 55.5095 60.8744C55.0223 61.1998 54.643 61.6615 54.4195 62.2011C54.196 62.7407 54.1384 63.334 54.254 63.9062C54.3695 64.4783 54.6531 65.0036 55.0687 65.4156C55.4844 65.8277 56.0135 66.108 56.5894 66.2212C57.1652 66.3345 57.7619 66.2755 58.304 66.0518C58.8462 65.8281 59.3095 65.4497 59.6354 64.9644C59.9613 64.479 60.1353 63.9086 60.1353 63.325C60.1338 62.541 59.8192 61.7896 59.2608 61.2361C58.7023 60.6825 57.9457 60.3719 57.157 60.3727V60.3727Z" fill="white"/>
</svg>
