<svg width="238" height="221" viewBox="0 0 238 221" fill="none" xmlns="http://www.w3.org/2000/svg">
<path d="M119 221C184.722 221 238 190.288 238 152.402C238 114.517 184.722 83.8047 119 83.8047C53.2781 83.8047 0 114.517 0 152.402C0 190.288 53.2781 221 119 221Z" fill="#F0F0F0"/>
<path d="M187.213 194.765C196.967 194.765 204.873 190.207 204.873 184.585C204.873 178.962 196.967 174.405 187.213 174.405C177.46 174.405 169.553 178.962 169.553 184.585C169.553 190.207 177.46 194.765 187.213 194.765Z" fill="#E0E0E0"/>
<path d="M26.9268 173.245L7.16891 161.859C6.46974 161.458 6.46974 160.805 7.16891 160.403L116.028 97.636C116.419 97.4403 116.849 97.3384 117.286 97.3384C117.723 97.3384 118.153 97.4403 118.543 97.636L138.296 109.021C138.99 109.423 138.99 110.076 138.296 110.478L29.4418 173.245C29.0518 173.441 28.6211 173.543 28.1843 173.543C27.7475 173.543 27.3168 173.441 26.9268 173.245Z" fill="#E0E0E0"/>
<path d="M95.4305 155.416L111.335 146.235C112.975 145.286 113.795 144.051 113.795 142.81C113.795 141.57 113.795 140.6 113.795 140.6L94.666 129.778C94.2055 129.476 93.8223 129.071 93.5471 128.595C93.2719 128.119 93.1125 127.585 93.0815 127.036V107.449L65.3008 123.475V143.061C65.3325 143.609 65.4923 144.142 65.7675 144.618C66.0426 145.093 66.4254 145.497 66.8852 145.798L83.5597 155.411C86.8393 157.304 92.156 157.304 95.4305 155.416Z" fill="#9D3CFE"/>
<g opacity="0.5">
<path opacity="0.5" d="M95.4305 155.416L111.335 146.235C112.975 145.286 113.795 144.051 113.795 142.81C113.795 141.57 113.795 140.6 113.795 140.6L94.666 129.778C94.2055 129.476 93.8223 129.071 93.5471 128.595C93.2719 128.119 93.1125 127.585 93.0815 127.036V107.449L65.3008 123.475V143.061C65.3325 143.609 65.4923 144.142 65.7675 144.618C66.0426 145.093 66.4254 145.497 66.8852 145.798L83.5597 155.411C86.8393 157.304 92.156 157.304 95.4305 155.416Z" fill="black"/>
</g>
<path d="M71.9697 146.531V148.731L66.8794 145.803C66.4189 145.502 66.0357 145.097 65.7605 144.62C65.4853 144.144 65.3259 143.61 65.2949 143.061V123.475L70.5915 120.426C70.6972 121.767 70.8179 123.153 70.9285 124.504L67.2164 126.649V141.946C67.2448 142.494 67.4027 143.028 67.6772 143.504C67.9517 143.98 68.335 144.384 68.7958 144.683L71.9697 146.531Z" fill="#9D3CFE"/>
<path opacity="0.7" d="M71.9697 146.531V148.731L66.8794 145.803C66.4189 145.502 66.0357 145.097 65.7605 144.62C65.4853 144.144 65.3259 143.61 65.2949 143.061V123.475L70.5915 120.426C70.6972 121.767 70.8179 123.153 70.9285 124.504L67.2164 126.649V141.946C67.2448 142.494 67.4027 143.028 67.6772 143.504C67.9517 143.98 68.335 144.384 68.7958 144.683L71.9697 146.531Z" fill="black"/>
<path d="M67.2168 141.961C67.2461 142.51 67.405 143.044 67.6803 143.52C67.9557 143.995 68.3398 144.399 68.8012 144.698L83.5543 153.206C86.8338 155.099 92.1506 155.099 95.4301 153.206L111.345 144.025C114.625 142.137 114.625 139.074 111.345 137.185L96.582 128.673C96.1205 128.373 95.7364 127.97 95.4611 127.494C95.1857 127.018 95.0269 126.484 94.9975 125.936V110.638L67.2168 126.664V141.961Z" fill="#9D3CFE"/>
<path opacity="0.3" d="M67.2168 141.961C67.2461 142.51 67.405 143.044 67.6803 143.52C67.9557 143.995 68.3398 144.399 68.8012 144.698L83.5543 153.206C86.8338 155.099 92.1506 155.099 95.4301 153.206L111.345 144.025C114.625 142.137 114.625 139.074 111.345 137.185L96.582 128.673C96.1205 128.373 95.7364 127.97 95.4611 127.494C95.1857 127.018 95.0269 126.484 94.9975 125.936V110.638L67.2168 126.664V141.961Z" fill="black"/>
<path opacity="0.7" d="M99.8062 130.536L96.582 128.678C96.1205 128.379 95.7364 127.975 95.4611 127.499C95.1857 127.023 95.0269 126.489 94.9975 125.941V110.638L67.2168 126.664V141.961C67.2461 142.51 67.405 143.044 67.6803 143.52C67.9557 143.995 68.3398 144.399 68.8012 144.698L71.9702 146.527L99.8062 130.536Z" fill="#9D3CFE"/>
<path opacity="0.6" d="M99.8062 130.536L96.582 128.678C96.1205 128.379 95.7364 127.975 95.4611 127.499C95.1857 127.023 95.0269 126.489 94.9975 125.941V110.638L67.2168 126.664V141.961C67.2461 142.51 67.405 143.044 67.6803 143.52C67.9557 143.995 68.3398 144.399 68.8012 144.698L71.9702 146.527L99.8062 130.536Z" fill="black"/>
<path d="M113.799 140.605V142.835C113.799 144.076 112.974 145.306 111.339 146.255L95.4344 155.391C93.6914 156.323 91.743 156.806 89.7656 156.797V154.597C91.743 154.607 93.6914 154.123 95.4344 153.191L111.339 144.005C112.974 143.086 113.799 141.831 113.799 140.605Z" fill="#9D3CFE"/>
<path opacity="0.2" d="M113.799 140.605V142.835C113.799 144.076 112.974 145.306 111.339 146.255L95.4344 155.391C93.6914 156.323 91.743 156.806 89.7656 156.797V154.597C91.743 154.607 93.6914 154.123 95.4344 153.191L111.339 144.005C112.974 143.086 113.799 141.831 113.799 140.605Z" fill="black"/>
<path d="M22.6108 163.085C23.2112 163.374 23.8714 163.519 24.5382 163.507C25.2049 163.494 25.8594 163.326 26.4487 163.014L133.88 101.086C134.455 100.71 134.934 100.204 135.277 99.6089C135.621 99.0139 135.819 98.3466 135.856 97.661V3.77677C135.833 3.11192 135.653 2.46197 135.33 1.87986C135.008 1.29775 134.552 0.799943 134 0.426986C133.401 0.136163 132.742 -0.00906598 132.076 0.00315334C131.409 0.0153727 130.756 0.184696 130.168 0.497298L22.7366 62.4255C22.1607 62.8 21.6816 63.305 21.3381 63.8993C20.9946 64.4935 20.7964 65.1604 20.7598 65.8456V159.76C20.7887 160.419 20.9711 161.063 21.2923 161.64C21.6136 162.217 22.065 162.712 22.6108 163.085Z" fill="#9D3CFE"/>
<path opacity="0.3" d="M22.6108 163.085C23.2112 163.374 23.8714 163.519 24.5382 163.507C25.2049 163.494 25.8594 163.326 26.4487 163.014L133.88 101.086C134.455 100.71 134.934 100.204 135.277 99.6089C135.621 99.0139 135.819 98.3466 135.856 97.661V3.77677C135.833 3.11192 135.653 2.46197 135.33 1.87986C135.008 1.29775 134.552 0.799943 134 0.426986C133.401 0.136163 132.742 -0.00906598 132.076 0.00315334C131.409 0.0153727 130.756 0.184696 130.168 0.497298L22.7366 62.4255C22.1607 62.8 21.6816 63.305 21.3381 63.8993C20.9946 64.4935 20.7964 65.1604 20.7598 65.8456V159.76C20.7887 160.419 20.9711 161.063 21.2923 161.64C21.6136 162.217 22.065 162.712 22.6108 163.085Z" fill="black"/>
<path d="M26.4475 163.009L133.878 101.081C134.455 100.707 134.935 100.202 135.279 99.608C135.624 99.0137 135.823 98.3467 135.86 97.6612V3.77193C135.86 2.51137 134.97 2.00413 133.878 2.6319L26.4475 64.5601C25.8695 64.9383 25.3891 65.4475 25.0456 66.0462C24.702 66.6449 24.5051 67.3162 24.4707 68.0053V161.869C24.4707 163.13 25.356 163.642 26.4475 163.009Z" fill="#9D3CFE"/>
<path d="M26.4475 163.009L133.878 101.081C134.455 100.707 134.935 100.202 135.279 99.608C135.624 99.0137 135.823 98.3467 135.86 97.6612V3.77193C135.86 2.51137 134.97 2.00413 133.878 2.6319L26.4475 64.5601C25.8695 64.9383 25.3891 65.4475 25.0456 66.0462C24.702 66.6449 24.5051 67.3162 24.4707 68.0053V161.869C24.4707 163.13 25.356 163.642 26.4475 163.009Z" fill="#9D3CFE"/>
<path opacity="0.5" d="M26.4475 163.009L133.878 101.081C134.455 100.707 134.935 100.202 135.279 99.608C135.624 99.0137 135.823 98.3467 135.86 97.6612V3.77193C135.86 2.51137 134.97 2.00413 133.878 2.6319L26.4475 64.5601C25.8695 64.9383 25.3891 65.4475 25.0456 66.0462C24.702 66.6449 24.5051 67.3162 24.4707 68.0053V161.869C24.4707 163.13 25.356 163.642 26.4475 163.009Z" fill="black"/>
<path d="M26.1564 163.16C25.5979 163.398 24.9949 163.515 24.3877 163.502C23.7805 163.489 23.1831 163.347 22.6354 163.084C22.0835 162.71 21.6279 162.212 21.3053 161.629C20.9828 161.046 20.8026 160.395 20.7793 159.73V149.183L24.4914 151.328V161.874C24.4663 163.024 25.1956 163.541 26.1564 163.16Z" fill="#9D3CFE"/>
<path opacity="0.7" d="M26.1564 163.16C25.5979 163.398 24.9949 163.515 24.3877 163.502C23.7805 163.489 23.1831 163.347 22.6354 163.084C22.0835 162.71 21.6279 162.212 21.3053 161.629C20.9828 161.046 20.8026 160.395 20.7793 159.73V149.183L24.4914 151.328V161.874C24.4663 163.024 25.1956 163.541 26.1564 163.16Z" fill="black"/>
<path d="M24.4707 151.313V161.859C24.4707 163.12 25.356 163.632 26.4475 162.999L133.878 101.081C134.455 100.707 134.935 100.202 135.279 99.6078C135.624 99.0135 135.823 98.3465 135.86 97.661V87.0894L24.4707 151.313Z" fill="#9D3CFE"/>
<g opacity="0.5">
<path opacity="0.5" d="M24.4707 151.313V161.859C24.4707 163.12 25.356 163.632 26.4475 162.999L133.878 101.081C134.455 100.707 134.935 100.202 135.279 99.6078C135.624 99.0135 135.823 98.3465 135.86 97.661V87.0894L24.4707 151.313Z" fill="black"/>
</g>
<path d="M28.1836 143.523V69.1954C28.2047 68.7837 28.3233 68.3829 28.5296 68.0258C28.736 67.6687 29.0242 67.3656 29.3707 67.1414L130.977 8.578C131.631 8.20134 132.164 8.50769 132.164 9.26603V83.5739C132.142 83.9853 132.023 84.3857 131.816 84.7426C131.61 85.0995 131.323 85.4028 130.977 85.6279L29.3707 144.186C28.7117 144.583 28.1836 144.277 28.1836 143.523Z" fill="#FAFAFA"/>
<path d="M80.1627 123.49C79.622 123.841 79.1721 124.315 78.8496 124.872C78.527 125.43 78.341 126.056 78.3066 126.699C78.3066 127.879 79.1366 128.361 80.1627 127.769C80.7028 127.417 81.1523 126.943 81.4748 126.386C81.7973 125.828 81.9836 125.202 82.0188 124.56C82.0188 123.374 81.1888 122.897 80.1627 123.49Z" fill="#9D3CFE"/>
<path opacity="0.5" d="M80.1627 123.49C79.622 123.841 79.1721 124.315 78.8496 124.872C78.527 125.43 78.341 126.056 78.3066 126.699C78.3066 127.879 79.1366 128.361 80.1627 127.769C80.7028 127.417 81.1523 126.943 81.4748 126.386C81.7973 125.828 81.9836 125.202 82.0188 124.56C82.0188 123.374 81.1888 122.897 80.1627 123.49Z" fill="white"/>
<path d="M25.0495 66.0265C24.6939 66.6276 24.4934 67.3076 24.4661 68.0052V151.313L20.7539 149.168V65.8457C20.7828 65.1562 20.9834 64.4848 21.3374 63.8921L25.0495 66.0265Z" fill="#9D3CFE"/>
<path opacity="0.7" d="M25.0495 66.0265C24.6939 66.6276 24.4934 67.3076 24.4661 68.0052V151.313L20.7539 149.168V65.8457C20.7828 65.1562 20.9834 64.4848 21.3374 63.8921L25.0495 66.0265Z" fill="black"/>
<path d="M63.5951 184.489L90.4352 200.008C90.9025 200.246 91.4196 200.37 91.9442 200.37C92.4688 200.37 92.9859 200.246 93.4532 200.008L172.746 154.386C173.581 153.884 173.581 153.131 172.746 152.649L145.901 137.13C145.434 136.892 144.917 136.768 144.392 136.768C143.868 136.768 143.35 136.892 142.883 137.13L63.5951 182.757C62.7651 183.234 62.7601 184.017 63.5951 184.489Z" fill="#E0E0E0"/>
<path d="M171.123 149.867C171.105 149.68 171.038 149.501 170.928 149.348C170.819 149.195 170.671 149.074 170.499 148.998L145.283 134.469C144.816 134.231 144.299 134.106 143.774 134.106C143.25 134.106 142.733 134.231 142.265 134.469L65.3062 178.895C65.1357 178.972 64.9887 179.094 64.8801 179.246C64.7715 179.399 64.705 179.577 64.6875 179.763V182.405C64.7043 182.592 64.7711 182.77 64.8808 182.922C64.9906 183.074 65.1392 183.194 65.3112 183.269L90.5166 197.803C90.9842 198.04 91.5012 198.163 92.0256 198.163C92.55 198.163 93.067 198.04 93.5346 197.803L170.494 153.442C170.665 153.367 170.813 153.247 170.923 153.095C171.032 152.943 171.1 152.765 171.117 152.579L171.123 149.867Z" fill="#9D3CFE"/>
<path opacity="0.5" d="M171.123 149.867C171.105 149.68 171.038 149.501 170.928 149.348C170.819 149.195 170.671 149.074 170.499 148.998L145.283 134.469C144.816 134.231 144.299 134.106 143.774 134.106C143.25 134.106 142.733 134.231 142.265 134.469L65.3062 178.895C65.1357 178.972 64.9887 179.094 64.8801 179.246C64.7715 179.399 64.705 179.577 64.6875 179.763V182.405C64.7043 182.592 64.7711 182.77 64.8808 182.922C64.9906 183.074 65.1392 183.194 65.3112 183.269L90.5166 197.803C90.9842 198.04 91.5012 198.163 92.0256 198.163C92.55 198.163 93.067 198.04 93.5346 197.803L170.494 153.442C170.665 153.367 170.813 153.247 170.923 153.095C171.032 152.943 171.1 152.765 171.117 152.579L171.123 149.867Z" fill="black"/>
<path d="M90.5309 195.101L65.3255 180.632C64.4956 180.155 64.4905 179.382 65.3255 178.9L142.285 134.474C142.752 134.235 143.269 134.111 143.794 134.111C144.318 134.111 144.835 134.235 145.303 134.474L170.518 149.008C171.348 149.51 171.348 150.263 170.518 150.745L93.559 195.106C93.0897 195.344 92.5706 195.467 92.0443 195.466C91.518 195.466 90.9994 195.34 90.5309 195.101Z" fill="#9D3CFE"/>
<path opacity="0.3" d="M90.5309 195.101L65.3255 180.632C64.4956 180.155 64.4905 179.382 65.3255 178.9L142.285 134.474C142.752 134.235 143.269 134.111 143.794 134.111C144.318 134.111 144.835 134.235 145.303 134.474L170.518 149.008C171.348 149.51 171.348 150.263 170.518 150.745L93.559 195.106C93.0897 195.344 92.5706 195.467 92.0443 195.466C91.518 195.466 90.9994 195.34 90.5309 195.101Z" fill="black"/>
<path d="M91.9406 195.458V198.16C91.4491 198.154 90.9655 198.036 90.5272 197.813L65.3319 183.279C65.1592 183.203 65.0099 183.083 64.8994 182.93C64.7888 182.777 64.7211 182.598 64.7031 182.41V179.764C64.7226 179.951 64.7909 180.129 64.9013 180.282C65.0116 180.434 65.1601 180.555 65.3319 180.633L90.5272 195.106C90.9634 195.335 91.4481 195.455 91.9406 195.458Z" fill="#9D3CFE"/>
<path opacity="0.7" d="M91.9406 195.458V198.16C91.4491 198.154 90.9655 198.036 90.5272 197.813L65.3319 183.279C65.1592 183.203 65.0099 183.083 64.8994 182.93C64.7888 182.777 64.7211 182.598 64.7031 182.41V179.764C64.7226 179.951 64.7909 180.129 64.9013 180.282C65.0116 180.434 65.1601 180.555 65.3319 180.633L90.5272 195.106C90.9634 195.335 91.4481 195.455 91.9406 195.458Z" fill="black"/>
<path d="M124.127 153.181L126.999 154.838C127.056 154.868 127.12 154.884 127.185 154.883L129.831 153.412L126.743 151.674L124.127 153.181Z" fill="#FB7BD7"/>
<path d="M127.582 151.193L130.469 152.855C130.522 152.881 130.581 152.893 130.64 152.89H130.746L133.286 151.424L130.198 149.691L127.582 151.193Z" fill="#FB7BD7"/>
<path d="M118.307 156.541L121.189 158.203C121.242 158.229 121.301 158.241 121.36 158.239L125.645 155.823L122.557 154.09L118.307 156.541Z" fill="#FB7BD7"/>
<path d="M114.852 158.535L117.729 160.192C117.783 160.219 117.844 160.233 117.905 160.232L120.556 158.761L117.467 157.028L114.852 158.535Z" fill="#FB7BD7"/>
<path d="M99.0571 184.61L101.708 183.138L98.6195 181.406L96.0039 182.912L98.8861 184.58C98.9408 184.6 98.9987 184.611 99.0571 184.61Z" fill="#FB7BD7"/>
<path d="M111.391 160.524L114.263 162.181C114.32 162.213 114.384 162.228 114.449 162.226L117.095 160.755L114.006 159.017L111.391 160.524Z" fill="#FB7BD7"/>
<path d="M130.651 153.93L128.035 155.436L130.912 157.094C130.966 157.123 131.027 157.137 131.088 157.134L133.739 155.662L130.651 153.93Z" fill="#FB7BD7"/>
<path d="M120.988 167.444L123.639 165.972L120.545 164.24L117.93 165.746L120.812 167.409C120.867 167.434 120.927 167.446 120.988 167.444Z" fill="#FB7BD7"/>
<path d="M134.57 155.145L137.216 153.673L134.127 151.936L131.512 153.442L134.399 155.105C134.452 155.132 134.51 155.146 134.57 155.145Z" fill="#FB7BD7"/>
<path d="M117.533 169.453L120.179 167.981L117.09 166.244L114.475 167.75L117.347 169.408C117.403 169.439 117.468 169.455 117.533 169.453Z" fill="#FB7BD7"/>
<path d="M114.078 171.462L116.724 169.99L113.635 168.252L111.02 169.759L113.902 171.421C113.956 171.448 114.017 171.462 114.078 171.462Z" fill="#FB7BD7"/>
<path d="M127.9 163.477L133.458 160.328L126.467 156.34L123.504 158.058L127.161 160.162C127.19 160.176 127.216 160.197 127.234 160.223C127.253 160.25 127.264 160.281 127.266 160.313C127.265 160.341 127.255 160.369 127.24 160.393C127.224 160.417 127.202 160.436 127.176 160.448L124.867 161.779L127.734 163.432C127.785 163.46 127.842 163.475 127.9 163.477Z" fill="#FB7BD7"/>
<path d="M104.48 164.511L107.363 166.173C107.416 166.199 107.475 166.211 107.534 166.209L110.184 164.737L107.091 163.004L104.48 164.511Z" fill="#FB7BD7"/>
<path d="M124.444 165.47L127.095 163.999L124.006 162.266L121.391 163.773L124.253 165.42C124.311 165.454 124.377 165.471 124.444 165.47Z" fill="#FB7BD7"/>
<path d="M85.0583 183.671L87.7091 182.199L84.6156 180.461L82 181.968L84.8721 183.62C84.929 183.652 84.993 183.67 85.0583 183.671Z" fill="#FB7BD7"/>
<path d="M76.8242 180.452L79.7114 182.119C79.7638 182.142 79.8203 182.154 79.8774 182.154H79.9831L82.5282 180.688L79.4348 178.955L76.8242 180.452Z" fill="#FB7BD7"/>
<path d="M89.8783 185.398H89.9839L92.499 183.932L89.4105 182.199L86.7949 183.706L89.6821 185.368C89.7443 185.393 89.8115 185.404 89.8783 185.398Z" fill="#FB7BD7"/>
<path d="M92.1461 188.592L94.797 187.121L91.7035 185.388L89.0879 186.895L91.96 188.547C92.0164 188.58 92.081 188.596 92.1461 188.592Z" fill="#FB7BD7"/>
<path d="M80.2812 178.458L83.1634 180.125C83.2178 180.147 83.2758 180.159 83.3345 180.16L85.9853 178.689L82.8918 176.956L80.2812 178.458Z" fill="#FB7BD7"/>
<path d="M95.602 186.604L98.2478 185.127L95.1594 183.395L92.5488 184.901L95.431 186.563C95.484 186.59 95.5426 186.604 95.602 186.604Z" fill="#FB7BD7"/>
<path d="M90.6523 172.466L93.5295 174.129C93.5847 174.154 93.6449 174.166 93.7056 174.164L96.3564 172.697L93.2629 170.959L90.6523 172.466Z" fill="#FB7BD7"/>
<path d="M94.1074 170.488L96.9796 172.145C97.0348 172.176 97.0973 172.191 97.1606 172.19L99.8114 170.719L96.723 168.981L94.1074 170.488Z" fill="#FB7BD7"/>
<path d="M97.5625 168.494L100.43 170.151C100.487 170.182 100.551 170.197 100.616 170.196L103.267 168.725L100.178 166.992L97.5625 168.494Z" fill="#FB7BD7"/>
<path d="M87.1914 174.475L90.0635 176.127C90.1185 176.159 90.1809 176.177 90.2446 176.177L92.9005 174.701L89.802 172.968L87.1914 174.475Z" fill="#FB7BD7"/>
<path d="M101.023 166.505L103.906 168.168C103.959 168.191 104.018 168.203 104.077 168.203L106.727 166.731L103.634 164.999L101.023 166.505Z" fill="#FB7BD7"/>
<path d="M83.7363 176.484L86.6185 178.141C86.6733 178.168 86.7336 178.182 86.7946 178.181L89.4403 176.71L86.3519 174.977L83.7363 176.484Z" fill="#FB7BD7"/>
<path d="M107.936 162.517L110.823 164.185C110.875 164.208 110.932 164.219 110.989 164.22L113.64 162.748L110.551 161.011L107.936 162.517Z" fill="#FB7BD7"/>
<path d="M116.572 162.046L119.444 163.698C119.501 163.729 119.566 163.745 119.631 163.743H119.736L122.276 162.277L119.188 160.544L116.572 162.046Z" fill="#FB7BD7"/>
<path d="M135.229 146.788L138.101 148.44C138.156 148.47 138.219 148.486 138.282 148.485L140.933 147.014L137.839 145.281L135.229 146.788Z" fill="#FB7BD7"/>
<path d="M138.684 144.794L141.556 146.447C141.611 146.477 141.674 146.493 141.737 146.492L144.388 145.02L141.299 143.288L138.684 144.794Z" fill="#FB7BD7"/>
<path d="M113.117 164.034L115.989 165.691C116.045 165.721 116.107 165.737 116.17 165.737L118.821 164.265L115.733 162.527L113.117 164.034Z" fill="#FB7BD7"/>
<path d="M142.139 142.801L145.011 144.458C145.067 144.487 145.129 144.503 145.192 144.503L147.843 143.027L144.754 141.294L142.139 142.801Z" fill="#FB7BD7"/>
<path d="M123.086 161.749H123.191L125.731 160.282L122.643 158.55L120.027 160.056L122.899 161.709C122.957 161.738 123.021 161.751 123.086 161.749Z" fill="#FB7BD7"/>
<path d="M139.131 149.038L141.998 150.69C142.057 150.722 142.122 150.739 142.189 150.74L144.835 149.269L141.746 147.531L139.131 149.038Z" fill="#FB7BD7"/>
<path d="M146.047 145.05L148.914 146.703C148.97 146.736 149.035 146.753 149.1 146.753L151.751 145.281L148.652 143.549L146.047 145.05Z" fill="#FB7BD7"/>
<path d="M145.636 148.747L148.287 147.275L145.194 145.538L142.578 147.044L145.46 148.707C145.515 148.733 145.575 148.747 145.636 148.747Z" fill="#FB7BD7"/>
<path d="M156.304 146.979C156.355 147.001 156.41 147.013 156.465 147.014H156.576L159.116 145.553L152.12 141.565L149.504 143.072L156.304 146.979Z" fill="#FB7BD7"/>
<path d="M109.656 166.028L112.533 167.685C112.589 167.716 112.651 167.732 112.714 167.73H112.82L115.365 166.269L112.272 164.531L109.656 166.028Z" fill="#FB7BD7"/>
<path d="M149.554 150.996H149.66L152.2 149.53L149.112 147.797L146.496 149.304L149.368 150.956C149.426 150.985 149.49 150.999 149.554 150.996Z" fill="#FB7BD7"/>
<path d="M153.009 149.003L155.66 147.531L152.567 145.799L149.951 147.305L152.818 148.958C152.877 148.989 152.943 149.004 153.009 149.003Z" fill="#FB7BD7"/>
<path d="M92.373 175.982L95.2452 177.634C95.3019 177.666 95.366 177.684 95.4313 177.684L98.0771 176.213L94.9887 174.475L92.373 175.982Z" fill="#FB7BD7"/>
<path d="M85.4609 179.999L88.328 181.652C88.385 181.683 88.4492 181.698 88.5142 181.697H88.6198L91.165 180.23L88.0715 178.493L85.4609 179.999Z" fill="#FB7BD7"/>
<path d="M96.7887 181.416L99.4395 179.944L96.341 178.207L93.7305 179.713L96.6177 181.376C96.6702 181.404 96.7292 181.417 96.7887 181.416Z" fill="#FB7BD7"/>
<path d="M93.3239 183.404L95.9747 181.933L92.8812 180.2L90.2656 181.707L93.1529 183.369C93.2061 183.395 93.2648 183.407 93.3239 183.404Z" fill="#FB7BD7"/>
<path d="M100.245 179.422H100.355L102.895 177.96L99.807 176.223L97.1914 177.729L100.059 179.382C100.116 179.411 100.18 179.425 100.245 179.422Z" fill="#FB7BD7"/>
<path d="M106.199 168.022L109.076 169.679C109.133 169.707 109.195 169.721 109.257 169.719H109.363L111.903 168.253L108.815 166.52L106.199 168.022Z" fill="#FB7BD7"/>
<path d="M107.162 175.435L109.813 173.963L106.719 172.23L104.104 173.737L106.976 175.389C107.033 175.42 107.097 175.435 107.162 175.435Z" fill="#FB7BD7"/>
<path d="M103.705 177.428L106.351 175.982L103.262 174.249L100.646 175.756L103.534 177.423C103.59 177.436 103.648 177.437 103.705 177.428Z" fill="#FB7BD7"/>
<path d="M99.2891 172.009L102.156 173.661C102.213 173.693 102.277 173.708 102.342 173.707L104.993 172.235L101.905 170.502L99.2891 172.009Z" fill="#FB7BD7"/>
<path d="M88.918 177.991L91.7851 179.643C91.8438 179.674 91.9097 179.69 91.9762 179.688L94.622 178.217L91.5336 176.484L88.918 177.991Z" fill="#FB7BD7"/>
<path d="M102.744 170.015L105.616 171.668C105.673 171.699 105.737 171.715 105.802 171.713L108.448 170.241L105.36 168.509L102.744 170.015Z" fill="#FB7BD7"/>
<path d="M95.8379 173.998L98.705 175.655C98.7619 175.687 98.8262 175.702 98.8911 175.701H98.9967L101.542 174.239L98.4485 172.501L95.8379 173.998Z" fill="#FB7BD7"/>
<path d="M110.616 173.44L113.267 171.969L110.173 170.236L107.562 171.743L110.44 173.4C110.494 173.429 110.554 173.443 110.616 173.44Z" fill="#FB7BD7"/>
<path d="M131.049 149.199L133.931 150.861C133.985 150.885 134.043 150.897 134.102 150.896L136.753 149.425L133.659 147.692L131.049 149.199Z" fill="#FB7BD7"/>
<path d="M75.9789 180.938L73.3633 182.445L76.2505 184.107C76.3037 184.133 76.3625 184.145 76.4215 184.143H76.5272L79.0723 182.676L75.9789 180.938Z" fill="#FB7BD7"/>
<path d="M81.1616 182.456L77.2734 184.695L80.1607 186.363C80.213 186.386 80.2695 186.398 80.3267 186.398H80.4373L84.2501 184.198L81.1616 182.456Z" fill="#FB7BD7"/>
<path d="M71.785 177.89L68.6211 179.713L71.4983 181.365C71.5534 181.397 71.616 181.412 71.6793 181.411L74.8734 179.628L71.785 177.89Z" fill="#FB7BD7"/>
<path d="M88.2487 187.382L85.0898 189.205L87.957 190.858C88.0143 190.888 88.0782 190.903 88.1431 190.903L91.3371 189.115L88.2487 187.382Z" fill="#FB7BD7"/>
<path d="M85.9752 184.188L81.1816 186.95L84.0638 188.613C84.1174 188.637 84.1759 188.649 84.2348 188.648H84.3405L89.0687 185.926L85.9752 184.188Z" fill="#FB7BD7"/>
<path d="M77.1877 178.237L79.8335 176.765L76.725 175.033L74.1094 176.539L76.9815 178.197C77.0449 178.23 77.1165 178.244 77.1877 178.237Z" fill="#FB7BD7"/>
<path d="M88.9922 191.455L91.8643 193.113C91.9209 193.139 91.9828 193.153 92.0454 193.153L95.9688 190.948L92.8804 189.215L88.9922 191.455Z" fill="#FB7BD7"/>
<path d="M80.6431 176.243L83.2939 174.772L80.2004 173.039L77.5898 174.546L80.472 176.208C80.5256 176.233 80.5841 176.245 80.6431 176.243Z" fill="#FB7BD7"/>
<path d="M95.9751 167.409H96.0807L98.6259 165.943L95.5325 164.21L92.9219 165.717L95.794 167.374C95.8503 167.401 95.9127 167.413 95.9751 167.409Z" fill="#FB7BD7"/>
<path d="M99.4302 165.435L102.081 163.964L98.9926 162.226L96.377 163.733L99.2541 165.39C99.3077 165.42 99.3685 165.436 99.4302 165.435Z" fill="#FB7BD7"/>
<path d="M92.5189 169.398H92.6246L95.1396 167.931L92.0512 166.199L89.4355 167.705L92.3177 169.353C92.3794 169.386 92.449 169.401 92.5189 169.398Z" fill="#FB7BD7"/>
<path d="M87.5532 172.261H87.6639L90.204 170.799L87.1156 169.062L84.5 170.568L87.3772 172.225C87.4314 172.253 87.4924 172.266 87.5532 172.261Z" fill="#FB7BD7"/>
<path d="M84.0981 174.254L86.7489 172.783L83.6605 171.045L81.0449 172.552L83.9271 174.214C83.9799 174.241 84.0387 174.255 84.0981 174.254Z" fill="#FB7BD7"/>
<path d="M157.773 151.81L160.661 153.478C160.713 153.499 160.77 153.509 160.827 153.508H160.932L163.447 152.041L160.359 150.309L157.773 151.81Z" fill="#FB7BD7"/>
<path d="M139.756 162.191L142.623 163.843C142.679 163.877 142.743 163.895 142.809 163.893L145.46 162.422L142.371 160.684L139.756 162.191Z" fill="#FB7BD7"/>
<path d="M150.857 155.798L153.73 157.45C153.785 157.48 153.847 157.495 153.911 157.495H154.016L160.017 154.035L156.929 152.302L150.857 155.798Z" fill="#FB7BD7"/>
<path d="M143.211 160.202L146.078 161.849C146.136 161.884 146.202 161.901 146.269 161.899L148.92 160.428L145.827 158.695L143.211 160.202Z" fill="#FB7BD7"/>
<path d="M146.672 158.208L149.529 159.851C149.587 159.889 149.655 159.909 149.725 159.906L152.376 158.434L149.282 156.702L146.672 158.208Z" fill="#FB7BD7"/>
<path d="M102.879 163.426H102.99L105.53 161.96L102.442 160.222L99.8262 161.729L102.693 163.381C102.75 163.412 102.815 163.427 102.879 163.426Z" fill="#FB7BD7"/>
<path d="M159.936 146.055L157.32 147.561L164.116 151.479C164.168 151.501 164.225 151.513 164.282 151.514H164.387L166.928 150.047L159.936 146.055Z" fill="#FB7BD7"/>
<path d="M97.7285 186.423L100.596 188.075C100.653 188.105 100.717 188.121 100.782 188.12L103.976 186.332L100.867 184.6L97.7285 186.423Z" fill="#FB7BD7"/>
<path d="M101.729 184.112L104.596 185.765C104.654 185.798 104.72 185.815 104.787 185.815H104.892L124.54 174.475L121.446 172.737L101.729 184.112Z" fill="#FB7BD7"/>
<path d="M102.514 182.616L105.165 181.144L102.077 179.412L99.4609 180.918L102.343 182.576C102.396 182.602 102.455 182.616 102.514 182.616Z" fill="#FB7BD7"/>
<path d="M93.7266 188.728L96.5937 190.38C96.6506 190.412 96.7146 190.429 96.7798 190.43L99.9739 188.642L96.8854 186.905L93.7266 188.728Z" fill="#FB7BD7"/>
<path d="M122.291 172.26L125.163 173.918C125.219 173.946 125.281 173.962 125.344 173.963H125.455L128.538 172.185L125.45 170.458L122.291 172.26Z" fill="#FB7BD7"/>
<path d="M130.295 167.645L133.177 169.307C133.232 169.335 133.292 169.349 133.353 169.348H133.459L136.547 167.57L133.459 165.832L130.295 167.645Z" fill="#FB7BD7"/>
<path d="M126.291 169.955L129.178 171.617C129.232 171.642 129.29 171.654 129.349 171.652L132.543 169.864L129.455 168.132L126.291 169.955Z" fill="#FB7BD7"/>
<path d="M134.299 165.34L137.171 166.992C137.228 167.023 137.292 167.039 137.357 167.037H137.463L141.275 164.838L138.187 163.105L134.299 165.34Z" fill="#FB7BD7"/>
<path d="M138.006 153.151H138.111L140.657 151.69L137.588 149.942L134.973 151.449L137.855 153.111C137.902 153.135 137.953 153.148 138.006 153.151Z" fill="#FB7BD7"/>
<path d="M142.362 159.65H142.467L145.013 158.183L141.924 156.451L139.309 157.957L142.186 159.62C142.241 159.644 142.302 159.654 142.362 159.65Z" fill="#FB7BD7"/>
<path d="M130.173 166.676L137.371 162.578L134.278 160.845L127.115 164.973L130.002 166.636C130.055 166.664 130.114 166.677 130.173 166.676Z" fill="#FB7BD7"/>
<path d="M150.002 155.24H150.113L152.653 153.774L149.565 152.041L146.949 153.548L149.831 155.21C149.885 155.233 149.944 155.243 150.002 155.24Z" fill="#FB7BD7"/>
<path d="M153.463 153.251H153.568L156.108 151.79L153.02 150.052L150.404 151.559L153.281 153.221C153.339 153.245 153.401 153.256 153.463 153.251Z" fill="#FB7BD7"/>
<path d="M126.713 168.67L129.364 167.198L126.276 165.46L123.66 166.967L126.532 168.624C126.588 168.653 126.65 168.669 126.713 168.67Z" fill="#FB7BD7"/>
<path d="M146.098 152.99H146.204L148.744 151.524L145.635 149.786L143.02 151.293L145.887 152.94C145.95 152.979 146.024 152.997 146.098 152.99Z" fill="#FB7BD7"/>
<path d="M109.418 178.628L112.069 177.157L108.976 175.424L106.365 176.931L109.247 178.593C109.301 178.619 109.359 178.631 109.418 178.628Z" fill="#FB7BD7"/>
<path d="M123.256 170.658L125.907 169.187L122.814 167.444L120.203 168.95L123.09 170.618C123.143 170.642 123.199 170.655 123.256 170.658Z" fill="#FB7BD7"/>
<path d="M105.974 180.622H106.08L108.595 179.156L105.506 177.423L102.891 178.93L105.778 180.592C105.839 180.62 105.907 180.631 105.974 180.622Z" fill="#FB7BD7"/>
<path d="M112.886 176.64L115.536 175.168L112.438 173.431L109.822 174.937L112.715 176.605C112.768 176.63 112.827 176.642 112.886 176.64Z" fill="#FB7BD7"/>
<path d="M116.345 174.646H116.461L119.001 173.18L115.903 171.462L113.287 172.969L116.159 174.626C116.218 174.649 116.283 174.656 116.345 174.646Z" fill="#FB7BD7"/>
<path d="M119.8 172.652H119.906L122.451 171.186L119.358 169.453L116.742 170.96L119.629 172.622C119.684 172.644 119.742 172.654 119.8 172.652Z" fill="#FB7BD7"/>
<path d="M111.305 158.57L113.945 157.098L110.852 155.361L108.236 156.867L111.108 158.52C111.167 158.556 111.236 158.574 111.305 158.57Z" fill="#FB7BD7"/>
<path d="M156.918 151.258H157.023L159.568 149.796L156.475 148.059L153.859 149.565L156.747 151.233C156.801 151.252 156.86 151.261 156.918 151.258Z" fill="#FB7BD7"/>
<path d="M118.222 154.582L120.868 153.111L117.78 151.373L115.164 152.88L118.031 154.532C118.089 154.565 118.155 154.582 118.222 154.582Z" fill="#FB7BD7"/>
<path d="M125.897 150.158L128.548 148.686L125.454 146.949L122.844 148.455L125.716 150.113C125.771 150.144 125.834 150.159 125.897 150.158Z" fill="#FB7BD7"/>
<path d="M122.442 152.152L125.088 150.68L121.995 148.942L119.379 150.449L122.251 152.106C122.31 152.138 122.376 152.153 122.442 152.152Z" fill="#FB7BD7"/>
<path d="M107.85 160.564L110.501 159.087L107.407 157.354L104.797 158.861L107.669 160.518C107.725 160.547 107.787 160.563 107.85 160.564Z" fill="#FB7BD7"/>
<path d="M114.76 156.576H114.871L117.386 155.109L114.323 153.382L111.707 154.888L114.574 156.541C114.632 156.568 114.696 156.58 114.76 156.576Z" fill="#FB7BD7"/>
<path d="M129.354 148.164L132.005 146.693L128.916 144.96L126.301 146.467L129.173 148.119C129.228 148.15 129.291 148.166 129.354 148.164Z" fill="#FB7BD7"/>
<path d="M142.91 139.195L145.555 137.723L143.875 136.809L141.26 138.316L142.729 139.144C142.784 139.175 142.846 139.192 142.91 139.195Z" fill="#FB7BD7"/>
<path d="M148.654 142.509L151.305 141.037L148.211 139.32L145.596 140.826L148.468 142.484C148.527 142.507 148.591 142.516 148.654 142.509Z" fill="#FB7BD7"/>
<path d="M132.558 145.176H132.664L135.204 143.709L133.524 142.805L130.908 144.312L132.372 145.14C132.431 145.165 132.494 145.177 132.558 145.176Z" fill="#FB7BD7"/>
<path d="M135.992 143.182H136.098L138.613 141.721L136.963 140.827L134.348 142.333L135.821 143.162C135.876 143.181 135.935 143.188 135.992 143.182Z" fill="#FB7BD7"/>
<path d="M139.448 141.188L142.098 139.717L140.418 138.818L137.803 140.325L139.282 141.158C139.334 141.179 139.391 141.19 139.448 141.188Z" fill="#FB7BD7"/>
<g opacity="0.8">
<path opacity="0.8" d="M143.38 11.1336V85.6875C143.352 86.2247 143.196 86.7475 142.927 87.2135C142.658 87.6795 142.282 88.0755 141.831 88.3694L41.1857 146.496C41.0343 146.59 40.8608 146.642 40.6827 146.646C40.6175 146.654 40.5517 146.654 40.4865 146.646C40.4413 146.637 40.3973 146.622 40.3557 146.601L40.2702 146.551L40.1797 146.491C40.1489 146.468 40.1203 146.443 40.0942 146.415C39.9726 146.3 39.8751 146.162 39.8075 146.009C39.7001 145.761 39.6453 145.495 39.6465 145.225V71.0178C39.6767 70.4797 39.833 69.9562 40.103 69.4895C40.373 69.0228 40.749 68.6259 41.2008 68.331L141.831 10.2497C141.981 10.1456 142.154 10.0794 142.336 10.0567C142.517 10.0339 142.701 10.0554 142.872 10.1191C142.92 10.1404 142.965 10.1656 143.008 10.1945C143.048 10.2232 143.082 10.259 143.109 10.2999C143.127 10.316 143.142 10.3346 143.154 10.3552C143.175 10.3788 143.192 10.406 143.204 10.4355C143.245 10.4957 143.275 10.5618 143.295 10.6314C143.313 10.6766 143.324 10.7239 143.33 10.772C143.332 10.7767 143.334 10.7819 143.334 10.7871C143.334 10.7923 143.332 10.7974 143.33 10.8022C143.344 10.8479 143.352 10.8951 143.355 10.9428C143.375 10.998 143.38 11.0633 143.38 11.1336Z" fill="#455A64"/>
<path opacity="0.8" d="M142.522 10.5315C142.573 10.5318 142.625 10.542 142.673 10.5616H142.703L142.743 10.6169L142.783 10.6721C142.783 10.6721 142.783 10.6721 142.783 10.6972L142.829 10.8429C142.828 10.8546 142.828 10.8663 142.829 10.878C142.829 10.9283 142.829 10.9785 142.829 11.0337V85.6881C142.801 86.1377 142.669 86.5748 142.444 86.9651C142.219 87.3554 141.906 87.6884 141.531 87.938L40.9356 146.064C40.8575 146.115 40.767 146.143 40.674 146.145H40.5684H40.5332L40.4678 146.1V146.074C40.3957 146.009 40.339 145.928 40.3018 145.838C40.2204 145.655 40.1793 145.456 40.1811 145.256V71.0184C40.2086 70.5681 40.3406 70.1305 40.5667 69.74C40.7928 69.3495 41.1068 69.0169 41.4839 68.7684L142.079 10.6721C142.213 10.5904 142.365 10.5421 142.522 10.5315ZM142.522 10.0293C142.278 10.0368 142.04 10.1077 141.833 10.2352L41.1871 68.3365C40.736 68.631 40.3604 69.0271 40.0904 69.4929C39.8205 69.9586 39.6638 70.4811 39.6328 71.0184V145.196C39.6317 145.465 39.6865 145.732 39.7938 145.979C39.8615 146.132 39.9589 146.271 40.0805 146.386C40.1066 146.414 40.1352 146.439 40.166 146.461L40.2566 146.521L40.3421 146.572C40.3837 146.592 40.4276 146.607 40.4728 146.617C40.538 146.624 40.6038 146.624 40.669 146.617H40.6942C40.8722 146.612 41.0458 146.56 41.1972 146.466L141.833 88.3699C142.284 88.076 142.659 87.68 142.929 87.214C143.198 86.7481 143.353 86.2253 143.382 85.6881V11.1342C143.382 11.0639 143.382 10.9986 143.382 10.9383C143.379 10.8906 143.37 10.8435 143.357 10.7977C143.359 10.793 143.36 10.7878 143.36 10.7826C143.36 10.7774 143.359 10.7723 143.357 10.7676C143.351 10.7194 143.339 10.6721 143.321 10.6269C143.302 10.5573 143.271 10.4912 143.231 10.4311C143.219 10.4015 143.202 10.3743 143.181 10.3507C143.168 10.3302 143.153 10.3115 143.135 10.2955C143.109 10.2545 143.074 10.2187 143.035 10.19C142.992 10.1611 142.946 10.1359 142.899 10.1147C142.789 10.0638 142.668 10.0381 142.547 10.0393L142.522 10.0293Z" fill="#455A64"/>
<g opacity="0.7">
<path opacity="0.7" d="M143.38 11.1336V85.6875C143.352 86.2247 143.196 86.7475 142.927 87.2135C142.658 87.6795 142.282 88.0755 141.831 88.3694L41.1857 146.496C41.0343 146.59 40.8608 146.642 40.6827 146.646C40.6175 146.654 40.5517 146.654 40.4865 146.646C40.4413 146.637 40.3973 146.622 40.3557 146.601L40.2702 146.551L40.1797 146.491C40.1489 146.468 40.1203 146.443 40.0942 146.415C39.9726 146.3 39.8751 146.162 39.8075 146.009C39.7001 145.761 39.6453 145.495 39.6465 145.225V71.0178C39.6767 70.4797 39.833 69.9562 40.103 69.4895C40.373 69.0228 40.749 68.6259 41.2008 68.331L141.831 10.2497C141.981 10.1456 142.154 10.0794 142.336 10.0567C142.517 10.0339 142.701 10.0554 142.872 10.1191C142.92 10.1404 142.965 10.1656 143.008 10.1945C143.048 10.2232 143.082 10.259 143.109 10.2999C143.127 10.316 143.142 10.3346 143.154 10.3552C143.175 10.3788 143.192 10.406 143.204 10.4355C143.245 10.4957 143.275 10.5618 143.295 10.6314C143.313 10.6766 143.324 10.7239 143.33 10.772C143.332 10.7767 143.334 10.7819 143.334 10.7871C143.334 10.7923 143.332 10.7974 143.33 10.8022C143.344 10.8479 143.352 10.8951 143.355 10.9428C143.375 10.998 143.38 11.0633 143.38 11.1336Z" fill="#455A64"/>
</g>
</g>
<path d="M142.873 10.105C142.702 10.0412 142.518 10.0198 142.337 10.0425C142.155 10.0653 141.982 10.1315 141.832 10.2356L41.1865 68.3369C40.7354 68.6314 40.3598 69.0275 40.0898 69.4932C39.8199 69.959 39.6632 70.4815 39.6322 71.0188V76.0811L37.6504 74.921V69.8988C37.68 69.3625 37.8356 68.8407 38.1048 68.3757C38.3739 67.9106 38.749 67.5154 39.1996 67.222L139.85 9.12069C140.011 9.00225 140.202 8.93103 140.401 8.91506C140.6 8.89909 140.799 8.939 140.977 9.03029C141.254 9.19602 142.541 9.93427 142.873 10.105Z" fill="#9D3CFE"/>
<path d="M143.382 11.1187C143.382 10.1444 142.683 9.74766 141.833 10.2398L41.1821 68.3412C40.7314 68.6345 40.3564 69.0298 40.0872 69.4948C39.8181 69.9599 39.6624 70.4817 39.6328 71.018V76.0803L143.382 16.2011V11.1187Z" fill="#9D3CFE"/>
<g opacity="0.4">
<path opacity="0.4" d="M141.832 10.2501L41.1863 68.3414C40.7267 68.6299 40.3504 69.0333 40.0948 69.5116L38.123 68.3766C38.3797 67.9132 38.7501 67.5227 39.1995 67.2415L139.85 9.12012C140.011 9.00249 140.201 8.93136 140.4 8.91453C140.599 8.8977 140.798 8.93581 140.977 9.0247C141.253 9.19545 142.541 9.92869 142.868 10.1045C142.697 10.0406 142.512 10.0205 142.331 10.0459C142.15 10.0714 141.979 10.1415 141.832 10.2501Z" fill="white"/>
</g>
<path opacity="0.15" d="M37.6504 74.9303V69.9081C37.672 69.3605 37.8349 68.8277 38.1232 68.3613L40.1 69.4913C39.8109 69.9552 39.6495 70.487 39.6322 71.0331V76.0955L37.6504 74.9303Z" fill="black"/>
<path d="M134.065 16.8845C133.787 17.1056 133.563 17.3878 133.411 17.7092C133.259 18.0305 133.184 18.3824 133.19 18.7377C133.19 19.481 133.582 19.8576 134.065 19.5814C134.344 19.3603 134.567 19.0781 134.719 18.7567C134.871 18.4354 134.947 18.0835 134.94 17.7282C134.915 16.985 134.523 16.6083 134.065 16.8845Z" fill="#455A64"/>
<path d="M137.194 15.0662C136.915 15.286 136.691 15.5672 136.539 15.8878C136.388 16.2084 136.312 16.5597 136.319 16.9143C136.319 17.6576 136.711 18.0343 137.194 17.758C137.476 17.5389 137.704 17.2577 137.859 16.9362C138.015 16.6147 138.093 16.2618 138.089 15.9049C138.089 15.1616 137.677 14.7699 137.194 15.0662Z" fill="#455A64"/>
<path d="M140.348 13.2636C140.069 13.4839 139.845 13.7659 139.693 14.0875C139.541 14.409 139.466 14.7613 139.473 15.1167C139.473 15.86 139.866 16.2367 140.348 15.9554C140.628 15.7351 140.852 15.4531 141.004 15.1315C141.156 14.81 141.231 14.4577 141.224 14.1023C141.224 13.3389 140.831 12.9622 140.348 13.2636Z" fill="#455A64"/>
<path opacity="0.9" d="M40.2007 146.501L40.0095 146.391C39.8687 146.305 39.7027 146.215 39.5065 146.124L39.245 145.979L38.8375 145.748C38.7067 145.667 38.5911 145.602 38.4955 145.552C38.3999 145.502 38.3345 145.462 38.3043 145.446C38.2014 145.394 38.1106 145.32 38.0377 145.23C37.9526 145.138 37.883 145.033 37.8315 144.919C37.7103 144.663 37.6484 144.383 37.6504 144.1V74.9253L39.6323 76.0854V145.2C39.6402 145.469 39.6947 145.734 39.7932 145.984C39.8609 146.137 39.9584 146.275 40.0799 146.391C40.1023 146.422 40.1315 146.448 40.1654 146.466L40.2007 146.501Z" fill="#37474F"/>
<path d="M73.2773 101.89C73.2773 101.89 69.6154 99.5241 69.1426 99.5091L58.7305 99.1826L62.8702 101.382V101.563L73.2773 101.89Z" fill="#263238"/>
<path d="M55.4316 109.016V102.487L73.2781 80.334V88.9721L62.871 101.362V101.543L73.2781 101.869V110.507L55.4316 109.016Z" fill="#FAFAFA"/>
<path d="M73.283 80.3541L69.1434 77.9736L51.2969 100.126L55.4315 102.502L73.283 80.3541Z" fill="#455A64"/>
<path d="M51.2969 100.126V106.635L55.4315 109.011V102.502L51.2969 100.126Z" fill="#37474F"/>
<path d="M84.0818 106.249L78.5488 109.443L92.3612 58.895L97.7031 55.8164L84.0818 106.249Z" fill="#FAFAFA"/>
<path d="M97.6984 55.816L93.5587 53.4355L88.2168 56.5141L92.3565 58.8946L97.6984 55.816Z" fill="#455A64"/>
<path d="M88.2167 56.5142L92.3564 58.8947L78.544 109.438L74.4043 107.057L88.2167 56.5142Z" fill="#37474F"/>
<path d="M98.8262 82.3984L102.961 84.7789L113.368 72.2687L109.233 69.8882L98.8262 82.3984Z" fill="#263238"/>
<path d="M113.368 72.274L102.961 71.8822V63.2441L120.807 64.8211V71.3499L102.961 93.4474V84.7791L113.368 72.4548V72.274Z" fill="#FAFAFA"/>
<path d="M98.8262 60.8633L102.961 63.2438L120.812 64.8157L116.673 62.4352L98.8262 60.8633Z" fill="#455A64"/>
<path d="M102.961 63.2438V71.8819L98.8262 69.5014V60.8633" fill="#37474F"/>
<path d="M98.8262 82.3984L102.961 84.7789V93.417L98.8262 91.0365V82.3984Z" fill="#37474F"/>
<g opacity="0.8">
<path opacity="0.8" d="M175.879 23.9919V98.5458C175.85 99.0842 175.694 99.6082 175.424 100.075C175.154 100.542 174.778 100.939 174.325 101.233L131.424 125.942C131.274 126.038 131.099 126.09 130.921 126.092C130.855 126.091 130.789 126.083 130.725 126.067L130.589 126.022L130.509 125.972L130.418 125.912C130.387 125.889 130.359 125.864 130.332 125.836C130.209 125.722 130.112 125.584 130.046 125.429C129.938 125.182 129.884 124.915 129.885 124.646V50.4687C129.914 49.931 130.069 49.4076 130.339 48.9409C130.608 48.4741 130.983 48.0771 131.434 47.7819L174.305 23.098C174.455 22.9922 174.629 22.9246 174.811 22.901C174.993 22.8774 175.179 22.8984 175.351 22.9624C175.397 22.9843 175.441 23.0113 175.482 23.0427C175.52 23.0713 175.554 23.1051 175.582 23.1432C175.6 23.1592 175.615 23.1779 175.628 23.1984C175.649 23.222 175.666 23.2492 175.678 23.2788C175.721 23.34 175.753 23.4079 175.774 23.4797C175.791 23.5231 175.803 23.5687 175.809 23.6153C175.811 23.62 175.812 23.6251 175.812 23.6303C175.812 23.6355 175.811 23.6407 175.809 23.6454C175.822 23.6912 175.831 23.7383 175.834 23.786C175.874 23.8613 175.879 23.9266 175.879 23.9919Z" fill="#455A64"/>
<path opacity="0.8" d="M175.015 23.388C175.067 23.387 175.119 23.3991 175.166 23.4231H175.196L175.241 23.4784L175.276 23.5386L175.327 23.6843C175.329 23.6959 175.329 23.7078 175.327 23.7194C175.33 23.7696 175.33 23.8199 175.327 23.8701V98.5445C175.298 98.9945 175.166 99.4317 174.94 99.822C174.714 100.212 174.4 100.545 174.024 100.794L131.178 125.509C131.1 125.559 131.01 125.587 130.917 125.589H130.811H130.776L130.71 125.549C130.642 125.482 130.587 125.401 130.55 125.313C130.468 125.129 130.427 124.931 130.429 124.73V50.4674C130.457 50.0178 130.588 49.5808 130.813 49.1904C131.038 48.8001 131.351 48.4671 131.727 48.2175L174.628 23.5336C174.759 23.4486 174.909 23.3984 175.065 23.388H175.015ZM175.065 22.8857C174.821 22.8959 174.584 22.9685 174.376 23.0967L131.475 47.7806C131.024 48.0758 130.649 48.4728 130.38 48.9396C130.11 49.4063 129.955 49.9297 129.926 50.4674V124.645C129.925 124.914 129.979 125.181 130.087 125.428C130.153 125.582 130.25 125.721 130.373 125.835C130.4 125.863 130.428 125.888 130.459 125.91L130.55 125.971C130.575 125.991 130.604 126.008 130.635 126.021C130.677 126.041 130.721 126.056 130.766 126.066C130.83 126.082 130.896 126.09 130.962 126.091C131.14 126.088 131.315 126.036 131.465 125.94L174.306 101.231C174.758 100.937 175.135 100.541 175.405 100.074C175.675 99.6069 175.831 99.0829 175.86 98.5445V23.9906C175.86 23.9253 175.86 23.86 175.86 23.7948C175.857 23.7471 175.848 23.6999 175.835 23.6541C175.837 23.6494 175.838 23.6443 175.838 23.6391C175.838 23.6339 175.837 23.6287 175.835 23.624C175.829 23.5775 175.817 23.5319 175.799 23.4884C175.779 23.4166 175.747 23.3487 175.704 23.2875C175.692 23.258 175.675 23.2308 175.654 23.2072C175.641 23.1866 175.626 23.168 175.608 23.1519C175.58 23.1138 175.546 23.08 175.508 23.0515C175.467 23.02 175.423 22.9931 175.377 22.9711C175.265 22.9202 175.143 22.8945 175.02 22.8958L175.065 22.8857Z" fill="#455A64"/>
<g opacity="0.8">
<path opacity="0.8" d="M175.879 23.9919V98.5458C175.85 99.0842 175.694 99.6082 175.424 100.075C175.154 100.542 174.778 100.939 174.325 101.233L131.424 125.942C131.274 126.038 131.099 126.09 130.921 126.092C130.855 126.091 130.789 126.083 130.725 126.067L130.589 126.022L130.509 125.972L130.418 125.912C130.387 125.889 130.359 125.864 130.332 125.836C130.209 125.722 130.112 125.584 130.046 125.429C129.938 125.182 129.884 124.915 129.885 124.646V50.4687C129.914 49.931 130.069 49.4076 130.339 48.9409C130.608 48.4741 130.983 48.0771 131.434 47.7819L174.305 23.098C174.455 22.9922 174.629 22.9246 174.811 22.901C174.993 22.8774 175.179 22.8984 175.351 22.9624C175.397 22.9843 175.441 23.0113 175.482 23.0427C175.52 23.0713 175.554 23.1051 175.582 23.1432C175.6 23.1592 175.615 23.1779 175.628 23.1984C175.649 23.222 175.666 23.2492 175.678 23.2788C175.721 23.34 175.753 23.4079 175.774 23.4797C175.791 23.5231 175.803 23.5687 175.809 23.6153C175.811 23.62 175.812 23.6251 175.812 23.6303C175.812 23.6355 175.811 23.6407 175.809 23.6454C175.822 23.6912 175.831 23.7383 175.834 23.786C175.874 23.8613 175.879 23.9266 175.879 23.9919Z" fill="#455A64"/>
</g>
</g>
<path d="M175.373 22.9612C175.2 22.8973 175.015 22.8762 174.833 22.8998C174.651 22.9234 174.477 22.9911 174.327 23.0968L131.426 47.7807C130.974 48.0759 130.599 48.473 130.33 48.9397C130.061 49.4064 129.906 49.9298 129.876 50.4675V55.5299L127.895 54.3698V49.3476C127.924 48.8113 128.08 48.2895 128.349 47.8244C128.618 47.3594 128.993 46.9642 129.444 46.6708L172.35 21.9819C172.511 21.866 172.7 21.7963 172.898 21.7804C173.096 21.7644 173.294 21.8029 173.471 21.8915C173.753 22.0522 175.041 22.8055 175.373 22.9612Z" fill="#9D3CFE"/>
<path d="M175.874 23.9807C175.874 22.9763 175.18 22.6047 174.325 23.0968L131.424 47.7858C130.973 48.0796 130.597 48.4756 130.328 48.9416C130.059 49.4076 129.904 49.9304 129.875 50.4676V55.5299L175.874 29.0632V23.9807Z" fill="#9D3CFE"/>
<g opacity="0.4">
<path opacity="0.4" d="M174.305 23.0966L131.409 47.7855C130.952 48.0682 130.575 48.4622 130.312 48.9306L128.346 47.7956C128.601 47.3326 128.972 46.9434 129.422 46.6656L172.343 21.9767C172.505 21.8603 172.695 21.7904 172.894 21.7745C173.093 21.7586 173.292 21.7972 173.47 21.8863C173.752 22.057 175.034 22.7852 175.361 22.961C175.188 22.8935 175 22.8706 174.816 22.8943C174.631 22.918 174.456 22.9875 174.305 23.0966Z" fill="white"/>
</g>
<path opacity="0.15" d="M127.895 54.3747V49.3525C127.917 48.805 128.08 48.2723 128.367 47.8057L130.339 48.9356C130.054 49.4009 129.894 49.9322 129.876 50.4775V55.5398L127.895 54.3747Z" fill="black"/>
<path d="M166.534 29.7462C166.255 29.966 166.031 30.2472 165.879 30.5678C165.727 30.8884 165.652 31.2398 165.659 31.5943C165.659 32.3376 166.051 32.7143 166.534 32.4381C166.812 32.2169 167.036 31.9347 167.188 31.6134C167.34 31.292 167.415 30.9401 167.409 30.5849C167.409 29.8366 167.017 29.4649 166.534 29.7462Z" fill="#455A64"/>
<path d="M169.688 27.9233C169.409 28.1442 169.185 28.4263 169.034 28.7477C168.882 29.0691 168.806 29.4212 168.813 29.7765C168.813 30.5198 169.205 30.8964 169.688 30.6152C169.968 30.3956 170.194 30.1138 170.345 29.792C170.497 29.4703 170.572 29.1176 170.563 28.762C170.563 28.0187 170.176 27.6421 169.688 27.9233Z" fill="#455A64"/>
<path d="M172.842 26.0999C172.564 26.3211 172.34 26.6032 172.188 26.9246C172.037 27.2459 171.961 27.5979 171.967 27.9531C171.967 28.6964 172.36 29.073 172.842 28.7918C173.123 28.573 173.348 28.2921 173.501 27.9713C173.654 27.6506 173.73 27.2987 173.723 26.9436C173.723 26.2004 173.33 25.8187 172.842 26.0999Z" fill="#455A64"/>
<path opacity="0.9" d="M130.445 125.945L130.254 125.835L129.776 125.569L129.514 125.418L129.107 125.187C128.976 125.107 128.856 125.041 128.765 124.991C128.674 124.941 128.604 124.901 128.574 124.886C128.471 124.833 128.38 124.76 128.307 124.67C128.222 124.578 128.153 124.473 128.101 124.358C127.98 124.103 127.918 123.823 127.92 123.54V54.3696L129.902 55.5297V124.645C129.91 124.913 129.964 125.178 130.063 125.428C130.129 125.582 130.226 125.721 130.349 125.835C130.372 125.866 130.401 125.892 130.435 125.91C130.436 125.922 130.44 125.934 130.445 125.945Z" fill="#37474F"/>
<path d="M133.682 59.7335C133.687 59.6332 133.714 59.5352 133.763 59.4473L134.879 57.1421C134.89 57.1159 134.907 57.0933 134.93 57.0768V57.0517C134.943 57.0419 134.959 57.0366 134.975 57.0366C134.991 57.0366 135.007 57.0419 135.02 57.0517C135.034 57.0665 135.044 57.0841 135.05 57.1031C135.056 57.1222 135.058 57.1423 135.056 57.1622V57.9607C135.065 58.0408 135.065 58.1217 135.056 58.2018C135.034 58.274 135.007 58.3446 134.975 58.4127L134.387 59.6281L134.975 60.1704C135.009 60.203 135.037 60.2424 135.056 60.286C135.066 60.3576 135.066 60.4303 135.056 60.5019V61.2753C135.056 61.3292 135.044 61.3825 135.02 61.431C135.001 61.4743 134.97 61.5109 134.93 61.5365C134.922 61.5401 134.913 61.542 134.905 61.542C134.896 61.542 134.887 61.5401 134.879 61.5365L133.763 60.532C133.735 60.5079 133.713 60.4776 133.699 60.4436C133.685 60.4096 133.68 60.3728 133.682 60.3362V59.7335Z" fill="#9D3CFE"/>
<path d="M137.762 53.9428C137.781 53.8644 137.81 53.7886 137.847 53.7168C137.882 53.6416 137.94 53.5798 138.013 53.541L138.431 53.3C138.436 53.2943 138.443 53.2899 138.45 53.2868C138.458 53.2838 138.466 53.2822 138.474 53.2822C138.482 53.2822 138.489 53.2838 138.497 53.2868C138.504 53.2899 138.511 53.2943 138.516 53.3C138.531 53.3144 138.542 53.3317 138.549 53.3508C138.556 53.3699 138.558 53.3902 138.557 53.4104C138.561 53.4387 138.561 53.4675 138.557 53.4958L136.645 61.6317C136.628 61.7085 136.601 61.7828 136.565 61.8527C136.531 61.9308 136.473 61.996 136.399 62.0385L135.996 62.2695C135.984 62.2798 135.969 62.2854 135.954 62.2854C135.938 62.2854 135.923 62.2798 135.911 62.2695C135.883 62.2378 135.868 62.1963 135.871 62.154C135.869 62.1256 135.869 62.0971 135.871 62.0686L137.762 53.9428Z" fill="#9D3CFE"/>
<path d="M140.719 56.2532C140.717 56.3532 140.692 56.4514 140.644 56.5394L139.527 58.8446C139.514 58.8702 139.497 58.8938 139.477 58.9149H139.447C139.435 58.9243 139.42 58.9293 139.404 58.9293C139.389 58.9293 139.374 58.9243 139.361 58.9149C139.335 58.8824 139.322 58.841 139.326 58.7994V58.026C139.317 57.9459 139.317 57.865 139.326 57.7849C139.345 57.7119 139.372 57.6411 139.407 57.574L139.995 56.3586L139.407 55.8212C139.371 55.7874 139.344 55.7462 139.326 55.7007C139.316 55.6291 139.316 55.5564 139.326 55.4848V54.7113C139.326 54.6575 139.338 54.6043 139.361 54.5557C139.38 54.5138 139.41 54.4775 139.447 54.4502H139.477C139.477 54.4502 139.507 54.4502 139.527 54.4502L140.644 55.4546C140.671 55.48 140.692 55.5114 140.705 55.5462C140.718 55.5811 140.723 55.6185 140.719 55.6555V56.2532Z" fill="#9D3CFE"/>
<path d="M143.819 55.7156C143.835 55.7034 143.854 55.6968 143.874 55.6968C143.894 55.6968 143.914 55.7034 143.93 55.7156C143.946 55.7349 143.959 55.7572 143.966 55.7814C143.974 55.8055 143.977 55.831 143.975 55.8562V56.705C143.975 56.7712 143.959 56.8366 143.93 56.8958C143.908 56.9516 143.869 56.9991 143.819 57.0314L143.316 57.3328C143.302 57.3466 143.283 57.3543 143.263 57.3543C143.243 57.3543 143.224 57.3466 143.21 57.3328C143.193 57.3148 143.181 57.2933 143.173 57.2699C143.165 57.2465 143.162 57.2217 143.165 57.1972V56.3434C143.166 56.2772 143.181 56.212 143.21 56.1525C143.232 56.0995 143.269 56.054 143.316 56.022L143.819 55.7156Z" fill="#9D3CFE"/>
<path d="M145.58 54.7063C145.595 54.6932 145.615 54.686 145.635 54.686C145.655 54.686 145.675 54.6932 145.69 54.7063C145.707 54.7256 145.719 54.7479 145.727 54.7721C145.735 54.7962 145.738 54.8217 145.735 54.8469V55.6957C145.735 55.7619 145.72 55.8273 145.69 55.8865C145.669 55.9423 145.63 55.9898 145.58 56.0221L145.077 56.3235C145.061 56.3357 145.041 56.3423 145.021 56.3423C145.001 56.3423 144.982 56.3357 144.966 56.3235C144.949 56.3042 144.937 56.2818 144.929 56.2577C144.921 56.2335 144.918 56.2081 144.921 56.1828V55.3291C144.922 55.2629 144.937 55.1979 144.966 55.1382C144.987 55.0837 145.026 55.0378 145.077 55.0076L145.58 54.7063Z" fill="#9D3CFE"/>
<path d="M147.34 53.6919C147.354 53.6781 147.373 53.6704 147.393 53.6704C147.412 53.6704 147.431 53.6781 147.446 53.6919C147.462 53.7112 147.475 53.7336 147.482 53.7577C147.49 53.7818 147.493 53.8073 147.491 53.8326V54.6813C147.49 54.7491 147.475 54.816 147.446 54.8772C147.423 54.9294 147.386 54.9745 147.34 55.0077L146.812 55.3091C146.797 55.3218 146.778 55.3288 146.759 55.3288C146.74 55.3288 146.721 55.3218 146.706 55.3091C146.69 55.2898 146.677 55.2675 146.669 55.2433C146.662 55.2192 146.659 55.1937 146.661 55.1685V54.3147C146.662 54.2486 146.678 54.1835 146.706 54.1238C146.729 54.0716 146.765 54.0265 146.812 53.9933L147.34 53.6919Z" fill="#9D3CFE"/>
<path d="M134.157 65.9459L159.931 51.0903C160.237 50.9146 160.484 51.0401 160.484 51.3666C160.471 51.5517 160.413 51.7311 160.317 51.8899C160.221 52.0488 160.089 52.1827 159.931 52.2806L134.157 67.1411C133.85 67.3169 133.604 67.1914 133.604 66.8599C133.617 66.6748 133.675 66.4956 133.771 66.3368C133.867 66.178 133.999 66.0441 134.157 65.9459Z" fill="#9D3CFE"/>
<path d="M142.426 75.483L168.2 60.6224C168.507 60.4466 168.753 60.5722 168.753 60.9037C168.74 61.0887 168.682 61.2679 168.586 61.4267C168.49 61.5856 168.358 61.7195 168.2 61.8177L142.426 76.6732C142.12 76.849 141.873 76.7235 141.873 76.397C141.886 76.2119 141.944 76.0325 142.04 75.8736C142.136 75.7147 142.268 75.5809 142.426 75.483Z" fill="#E0E0E0"/>
<path d="M142.426 80.2488L154.765 73.1424C155.067 72.9667 155.313 73.0922 155.313 73.4237C155.3 73.6076 155.244 73.7858 155.148 73.9438C155.053 74.1018 154.922 74.235 154.765 74.3327L142.426 81.4441C142.12 81.6148 141.873 81.4943 141.873 81.1628C141.887 80.9778 141.944 80.7986 142.04 80.6397C142.136 80.4809 142.269 80.347 142.426 80.2488Z" fill="#E0E0E0"/>
<path d="M142.426 85.0151L154.765 77.9088C155.067 77.738 155.313 77.8586 155.313 78.19C155.299 78.3744 155.242 78.553 155.147 78.7117C155.052 78.8704 154.921 79.0047 154.765 79.104L142.426 86.2104C142.12 86.3862 141.873 86.2606 141.873 85.9292C141.887 85.7441 141.944 85.5649 142.04 85.4061C142.136 85.2473 142.269 85.1133 142.426 85.0151Z" fill="#E0E0E0"/>
<path d="M162.067 49.8597L172.333 43.8984C172.64 43.7227 172.887 43.8482 172.887 44.1747C172.873 44.3598 172.816 44.5392 172.72 44.6981C172.624 44.8569 172.491 44.9908 172.333 45.0887L162.067 51.0299C161.76 51.2057 161.514 51.0801 161.514 50.7537C161.53 50.572 161.589 50.3967 161.685 50.2415C161.781 50.0864 161.912 49.9557 162.067 49.8597Z" fill="#9D3CFE"/>
<path d="M134.157 118.382L159.931 103.526C160.237 103.351 160.484 103.476 160.484 103.803C160.471 103.988 160.413 104.167 160.317 104.326C160.221 104.485 160.089 104.619 159.931 104.717L134.157 119.577C133.85 119.748 133.604 119.627 133.604 119.296C133.617 119.111 133.675 118.932 133.771 118.773C133.867 118.614 133.999 118.48 134.157 118.382Z" fill="#9D3CFE"/>
<path d="M162.067 102.291L172.333 96.35C172.64 96.1742 172.887 96.2997 172.887 96.6312C172.873 96.8163 172.815 96.9955 172.719 97.1543C172.623 97.3131 172.491 97.447 172.333 97.5452L162.067 103.486C161.76 103.662 161.514 103.537 161.514 103.205C161.527 103.02 161.585 102.841 161.681 102.682C161.777 102.523 161.909 102.389 162.067 102.291Z" fill="#9D3CFE"/>
<path d="M162.067 88.0182L172.333 82.0669C172.64 81.8911 172.887 82.0167 172.887 82.3431C172.873 82.5283 172.816 82.7076 172.72 82.8665C172.624 83.0254 172.491 83.1593 172.333 83.2572L162.067 89.1984C161.76 89.3741 161.514 89.2486 161.514 88.9222C161.529 88.7387 161.586 88.5614 161.683 88.4044C161.779 88.2474 161.91 88.1151 162.067 88.0182Z" fill="#9D3CFE"/>
<path d="M162.067 92.784L172.333 86.8428C172.64 86.667 172.887 86.7926 172.887 87.119C172.873 87.3042 172.816 87.4835 172.72 87.6424C172.624 87.8013 172.491 87.9351 172.333 88.033L162.067 93.9743C161.76 94.15 161.514 94.0245 161.514 93.698C161.527 93.5129 161.584 93.3335 161.68 93.1746C161.776 93.0158 161.909 92.8819 162.067 92.784Z" fill="#9D3CFE"/>
<path d="M134.157 113.621L159.931 98.7603C160.237 98.5896 160.484 98.7101 160.484 99.0416C160.47 99.2266 160.413 99.4058 160.317 99.5647C160.221 99.7235 160.088 99.8574 159.931 99.9556L134.157 114.811C133.85 114.987 133.604 114.861 133.604 114.535C133.617 114.35 133.674 114.17 133.77 114.012C133.866 113.853 133.999 113.719 134.157 113.621Z" fill="#F5F5F5"/>
<path d="M153.311 93.0503L159.081 89.7256C159.382 89.5498 159.629 89.6754 159.629 90.0018C159.616 90.1864 159.559 90.3653 159.464 90.5241C159.369 90.6829 159.237 90.8171 159.081 90.9158L153.311 94.2405C153.004 94.4163 152.758 94.2958 152.758 93.9643C152.771 93.7791 152.828 93.5998 152.924 93.4409C153.021 93.282 153.153 93.1481 153.311 93.0503Z" fill="#9D3CFE"/>
<path d="M134.157 70.727L149.192 62.0537C149.493 61.8779 149.74 62.0035 149.74 62.3299C149.727 62.5145 149.67 62.6935 149.575 62.8522C149.48 63.011 149.348 63.1452 149.192 63.244L134.157 71.9172C133.85 72.093 133.604 71.9675 133.604 71.641C133.617 71.4559 133.674 71.2765 133.77 71.1176C133.866 70.9588 133.999 70.8249 134.157 70.727Z" fill="#9D3CFE"/>
<path opacity="0.6" d="M134.157 70.727L149.192 62.0537C149.493 61.8779 149.74 62.0035 149.74 62.3299C149.727 62.5145 149.67 62.6935 149.575 62.8522C149.48 63.011 149.348 63.1452 149.192 63.244L134.157 71.9172C133.85 72.093 133.604 71.9675 133.604 71.641C133.617 71.4559 133.674 71.2765 133.77 71.1176C133.866 70.9588 133.999 70.8249 134.157 70.727Z" fill="white"/>
<path d="M134.157 75.4828L139.257 72.5248C139.559 72.349 139.806 72.4745 139.806 72.806C139.792 72.9904 139.735 73.169 139.64 73.3277C139.544 73.4864 139.413 73.6207 139.257 73.72L134.157 76.663C133.85 76.8388 133.604 76.7132 133.604 76.3818C133.62 76.1993 133.678 76.0232 133.774 75.8671C133.87 75.7111 134.001 75.5795 134.157 75.4828Z" fill="#9D3CFE"/>
<path opacity="0.6" d="M134.157 75.4828L139.257 72.5248C139.559 72.349 139.806 72.4745 139.806 72.806C139.792 72.9904 139.735 73.169 139.64 73.3277C139.544 73.4864 139.413 73.6207 139.257 73.72L134.157 76.663C133.85 76.8388 133.604 76.7132 133.604 76.3818C133.62 76.1993 133.678 76.0232 133.774 75.8671C133.87 75.7111 134.001 75.5795 134.157 75.4828Z" fill="white"/>
<path d="M134.157 80.254L139.257 77.306C139.559 77.1302 139.806 77.2558 139.806 77.5873C139.792 77.7717 139.735 77.9503 139.64 78.1089C139.544 78.2676 139.413 78.4019 139.257 78.5013L134.157 81.4443C133.85 81.62 133.604 81.4945 133.604 81.163C133.617 80.9785 133.674 80.7999 133.77 80.6418C133.866 80.4837 133.999 80.3508 134.157 80.254Z" fill="#9D3CFE"/>
<path opacity="0.6" d="M134.157 80.254L139.257 77.306C139.559 77.1302 139.806 77.2558 139.806 77.5873C139.792 77.7717 139.735 77.9503 139.64 78.1089C139.544 78.2676 139.413 78.4019 139.257 78.5013L134.157 81.4443C133.85 81.62 133.604 81.4945 133.604 81.163C133.617 80.9785 133.674 80.7999 133.77 80.6418C133.866 80.4837 133.999 80.3508 134.157 80.254Z" fill="white"/>
<path d="M134.157 85.0199L139.257 82.0669C139.559 81.8911 139.806 82.0117 139.806 82.3431C139.792 82.5277 139.736 82.7067 139.641 82.8654C139.545 83.0242 139.414 83.1584 139.257 83.2572L134.157 86.2002C133.85 86.3759 133.604 86.2504 133.604 85.9239C133.618 85.7405 133.676 85.5632 133.772 85.4062C133.868 85.2491 134 85.1169 134.157 85.0199Z" fill="#9D3CFE"/>
<path opacity="0.6" d="M134.157 85.0199L139.257 82.0669C139.559 81.8911 139.806 82.0117 139.806 82.3431C139.792 82.5277 139.736 82.7067 139.641 82.8654C139.545 83.0242 139.414 83.1584 139.257 83.2572L134.157 86.2002C133.85 86.3759 133.604 86.2504 133.604 85.9239C133.618 85.7405 133.676 85.5632 133.772 85.4062C133.868 85.2491 134 85.1169 134.157 85.0199Z" fill="white"/>
<path d="M134.157 89.7858L139.257 86.8428C139.559 86.667 139.806 86.7926 139.806 87.119C139.792 87.3036 139.736 87.4825 139.641 87.6413C139.545 87.8001 139.414 87.9343 139.257 88.033L134.157 90.976C133.85 91.1518 133.604 91.0263 133.604 90.6998C133.617 90.5147 133.674 90.3353 133.77 90.1764C133.866 90.0175 133.999 89.8837 134.157 89.7858Z" fill="#9D3CFE"/>
<path opacity="0.6" d="M134.157 89.7858L139.257 86.8428C139.559 86.667 139.806 86.7926 139.806 87.119C139.792 87.3036 139.736 87.4825 139.641 87.6413C139.545 87.8001 139.414 87.9343 139.257 88.033L134.157 90.976C133.85 91.1518 133.604 91.0263 133.604 90.6998C133.617 90.5147 133.674 90.3353 133.77 90.1764C133.866 90.0175 133.999 89.8837 134.157 89.7858Z" fill="white"/>
<path d="M151.324 60.8235L157.863 57.0669C158.164 56.8911 158.416 57.0167 158.416 57.3431C158.402 57.5281 158.344 57.7071 158.248 57.8659C158.152 58.0246 158.02 58.1586 157.863 58.2571L151.324 62.0137C151.022 62.1895 150.775 62.0639 150.775 61.7375C150.789 61.5529 150.845 61.374 150.94 61.2152C151.036 61.0564 151.167 60.9222 151.324 60.8235Z" fill="#9D3CFE"/>
<path opacity="0.6" d="M151.324 60.8235L157.863 57.0669C158.164 56.8911 158.416 57.0167 158.416 57.3431C158.402 57.5281 158.344 57.7071 158.248 57.8659C158.152 58.0246 158.02 58.1586 157.863 58.2571L151.324 62.0137C151.022 62.1895 150.775 62.0639 150.775 61.7375C150.789 61.5529 150.845 61.374 150.94 61.2152C151.036 61.0564 151.167 60.9222 151.324 60.8235Z" fill="white"/>
<path d="M148.653 86.2004L163.662 77.5472C163.964 77.3714 164.211 77.497 164.211 77.8285C164.197 78.0129 164.14 78.1915 164.045 78.3502C163.95 78.5088 163.819 78.6431 163.662 78.7425L148.653 87.3957C148.351 87.5715 148.1 87.4459 148.1 87.1144C148.113 86.9294 148.171 86.7502 148.267 86.5914C148.363 86.4325 148.495 86.2986 148.653 86.2004Z" fill="#F5F5F5"/>
<path d="M157.3 85.9892L172.335 77.3159C172.642 77.1401 172.888 77.2657 172.888 77.5921C172.875 77.7773 172.818 77.9567 172.722 78.1155C172.625 78.2744 172.493 78.4083 172.335 78.5062L157.3 87.1794C156.998 87.3552 156.752 87.2296 156.752 86.9032C156.765 86.7186 156.822 86.5397 156.917 86.3809C157.012 86.2221 157.143 86.0879 157.3 85.9892Z" fill="#F5F5F5"/>
<path d="M165.799 76.2965L172.338 72.5399C172.645 72.3641 172.892 72.4897 172.892 72.8211C172.878 73.0062 172.821 73.1854 172.725 73.3442C172.628 73.503 172.496 73.637 172.338 73.7352L165.799 77.4918C165.493 77.6625 165.246 77.542 165.246 77.2105C165.26 77.0255 165.317 76.8462 165.413 76.6874C165.509 76.5286 165.642 76.3947 165.799 76.2965Z" fill="#F5F5F5"/>
<path d="M142.426 70.7171L157.461 62.0438C157.763 61.868 158.009 61.9936 158.009 62.325C157.995 62.5095 157.939 62.6881 157.843 62.8467C157.748 63.0054 157.617 63.1397 157.461 63.2391L142.426 71.9073C142.12 72.0831 141.873 71.9626 141.873 71.6311C141.887 71.446 141.944 71.2668 142.04 71.108C142.136 70.9492 142.269 70.8153 142.426 70.7171Z" fill="#9D3CFE"/>
<path opacity="0.6" d="M142.426 70.7171L157.461 62.0438C157.763 61.868 158.009 61.9936 158.009 62.325C157.995 62.5095 157.939 62.6881 157.843 62.8467C157.748 63.0054 157.617 63.1397 157.461 63.2391L142.426 71.9073C142.12 72.0831 141.873 71.9626 141.873 71.6311C141.887 71.446 141.944 71.2668 142.04 71.108C142.136 70.9492 142.269 70.8153 142.426 70.7171Z" fill="white"/>
<path d="M159.593 60.8132L166.132 57.0566C166.439 56.8809 166.686 57.0064 166.686 57.3329C166.672 57.518 166.615 57.6974 166.519 57.8563C166.423 58.0151 166.29 58.149 166.132 58.2469L159.593 62.0035C159.291 62.1792 159.045 62.0537 159.045 61.7273C159.058 61.5426 159.115 61.3637 159.21 61.205C159.305 61.0462 159.436 60.912 159.593 60.8132Z" fill="#9D3CFE"/>
<path opacity="0.6" d="M159.593 60.8132L166.132 57.0566C166.439 56.8809 166.686 57.0064 166.686 57.3329C166.672 57.518 166.615 57.6974 166.519 57.8563C166.423 58.0151 166.29 58.149 166.132 58.2469L159.593 62.0035C159.291 62.1792 159.045 62.0537 159.045 61.7273C159.058 61.5426 159.115 61.3637 159.21 61.205C159.305 61.0462 159.436 60.912 159.593 60.8132Z" fill="white"/>
<path d="M207.609 27.5416V21.8013L202.775 21.3844C202.706 21.3735 202.634 21.3878 202.574 21.4246C202.383 21.5251 197.806 24.1416 197.75 24.1768C197.705 24.2033 197.666 24.2398 197.637 24.2834C197.607 24.327 197.588 24.3766 197.58 24.4287C197.572 24.4807 197.576 24.5339 197.592 24.5841C197.607 24.6344 197.634 24.6806 197.67 24.7192L202.796 30.2686L207.609 27.5416Z" fill="#9D3CFE"/>
<path d="M202.796 30.2885L197.67 24.739C197.623 24.686 197.593 24.6203 197.583 24.55C197.574 24.4798 197.585 24.4084 197.617 24.3448C197.648 24.2812 197.698 24.2284 197.759 24.193C197.821 24.1577 197.891 24.1414 197.962 24.1464L202.796 24.5682V30.2885Z" fill="#9D3CFE"/>
<path d="M207.604 21.8015L202.795 24.5536L197.946 24.1468C197.89 24.1363 197.832 24.1363 197.775 24.1468C198.163 23.9208 202.383 21.5102 202.554 21.4198C202.616 21.3837 202.689 21.3696 202.76 21.3796L207.604 21.8015Z" fill="#9D3CFE"/>
<path opacity="0.5" d="M207.604 21.8015L202.795 24.5536L197.946 24.1468C197.89 24.1363 197.832 24.1363 197.775 24.1468C198.163 23.9208 202.383 21.5102 202.554 21.4198C202.616 21.3837 202.689 21.3696 202.76 21.3796L207.604 21.8015Z" fill="white"/>
<path d="M202.805 18.12C202.839 17.5168 203.014 16.93 203.316 16.4067C203.618 15.8833 204.039 15.4381 204.545 15.1067L205.964 14.268C206.503 13.9933 207.101 13.8501 207.706 13.8501C208.312 13.8501 208.91 13.9933 209.449 14.268L224.575 23.0066C225.083 23.3359 225.506 23.7805 225.809 24.3042C226.113 24.8279 226.288 25.4158 226.32 26.0199V43.4668C226.287 44.0708 226.112 44.6586 225.809 45.1822C225.505 45.7058 225.083 46.1505 224.575 46.4801L223.156 47.2987C222.616 47.5711 222.019 47.713 221.413 47.713C220.808 47.713 220.211 47.5711 219.67 47.2987L215.209 44.7224L209.404 41.3877L204.545 38.5853C204.038 38.2551 203.616 37.8102 203.314 37.2866C203.011 36.763 202.837 36.1756 202.805 35.572V18.12Z" fill="#9D3CFE"/>
<path opacity="0.2" d="M226.322 43.467C226.289 44.071 226.114 44.6587 225.81 45.1823C225.507 45.706 225.084 46.1507 224.576 46.4803L223.158 47.2989C222.666 47.5451 222.128 47.6849 221.578 47.7091C221.029 47.7333 220.48 47.6415 219.969 47.4395C220.794 47.7459 221.417 47.2838 221.417 46.2945V28.8324C221.399 28.2264 221.226 27.6351 220.914 27.1149L225.809 24.3125C226.12 24.8328 226.294 25.4241 226.312 26.0301L226.322 43.467Z" fill="black"/>
<path opacity="0.5" d="M202.861 17.6226C203.068 16.8844 203.742 16.6483 204.546 17.1204L219.677 25.8188C220.192 26.1385 220.615 26.5868 220.904 27.1195L225.803 24.3121C225.514 23.7809 225.091 23.3342 224.576 23.0164L209.456 14.2678C208.918 13.9995 208.326 13.8599 207.725 13.8599C207.125 13.8599 206.532 13.9995 205.995 14.2678L204.572 15.0864C204.128 15.3702 203.748 15.7417 203.454 16.1779C203.159 16.614 202.958 17.1057 202.861 17.6226Z" fill="white"/>
<path d="M212.111 24.4881L206.352 23.6846L207.156 34.2914L212.111 40.7197V24.4881Z" fill="#455A64"/>
<path d="M212.111 24.4883L217.871 30.324L217.066 40.0068L212.111 40.7199V24.4883Z" fill="#37474F"/>
<path d="M214.479 38.2938L215.802 39.0571L212.12 26.105L208.443 34.8134L209.761 35.5768L210.556 33.6884L213.685 35.4914L214.479 38.2938ZM211.024 32.5484L212.11 29.967L213.197 33.8039L211.024 32.5484Z" fill="#FAFAFA"/>
<path d="M207.609 60.1051V54.3899L202.776 53.968C202.706 53.9623 202.636 53.9763 202.574 54.0082C202.383 54.1087 197.806 56.7252 197.751 56.7604C197.705 56.7875 197.666 56.8244 197.636 56.8684C197.607 56.9125 197.588 56.9625 197.58 57.015C197.572 57.0674 197.576 57.1209 197.592 57.1715C197.608 57.2222 197.634 57.2687 197.67 57.3078L202.796 62.8321L207.609 60.1051Z" fill="#9D3CFE"/>
<path d="M202.796 62.8524L197.67 57.328C197.62 57.2759 197.587 57.2098 197.576 57.1386C197.565 57.0674 197.577 56.9945 197.608 56.9299C197.64 56.8652 197.691 56.8119 197.754 56.7771C197.818 56.7423 197.89 56.7277 197.962 56.7354L202.796 57.1572V62.8524Z" fill="#EBEBEB"/>
<path d="M207.605 54.3849L202.796 57.137L197.962 56.7151C197.906 56.7023 197.847 56.7023 197.791 56.7151C198.178 56.4841 202.399 54.0785 202.57 53.9831C202.633 53.9494 202.705 53.9354 202.776 53.9429L207.605 54.3849Z" fill="#9D3CFE"/>
<path d="M207.605 54.3849L202.796 57.137L197.962 56.7151C197.906 56.7023 197.847 56.7023 197.791 56.7151C198.178 56.4841 202.399 54.0785 202.57 53.9831C202.633 53.9494 202.705 53.9354 202.776 53.9429L207.605 54.3849Z" fill="#F5F5F5"/>
<path d="M202.805 50.6839C202.837 50.0804 203.011 49.4929 203.314 48.9693C203.616 48.4458 204.038 48.0008 204.545 47.6706L205.964 46.852C206.503 46.5773 207.101 46.4341 207.706 46.4341C208.312 46.4341 208.91 46.5773 209.449 46.852L224.575 55.5705C225.083 55.9001 225.505 56.3448 225.809 56.8684C226.112 57.392 226.287 57.9798 226.32 58.5838V76.0408C226.288 76.6449 226.113 77.2327 225.809 77.7564C225.506 78.2801 225.083 78.7248 224.575 79.0541L223.156 79.8727C222.616 80.1474 222.019 80.2906 221.413 80.2906C220.807 80.2906 220.21 80.1474 219.67 79.8727L215.209 77.3013L209.404 73.9516L204.545 71.1542C204.039 70.8235 203.617 70.3783 203.315 69.8549C203.012 69.3314 202.838 68.7443 202.805 68.1409V50.6839Z" fill="#EBEBEB"/>
<path d="M226.322 76.0407C226.289 76.6448 226.114 77.2326 225.811 77.7563C225.508 78.28 225.084 78.7246 224.576 79.054L223.158 79.8726C222.666 80.12 222.128 80.2605 221.578 80.2847C221.029 80.3089 220.48 80.2164 219.969 80.0132C220.794 80.3246 221.417 79.8625 221.417 78.8681V61.4111C221.4 60.8066 221.227 60.2167 220.914 59.6986L225.819 56.8711C226.131 57.3892 226.304 57.9791 226.322 58.5837V76.0407Z" fill="#E0E0E0"/>
<path d="M202.861 50.1863C203.068 49.4481 203.742 49.212 204.546 49.6841L219.677 58.4026C220.192 58.7223 220.615 59.1706 220.904 59.7033L225.803 56.8809C225.514 56.3482 225.091 55.8998 224.576 55.5801L209.456 46.8566C208.915 46.5843 208.318 46.4424 207.713 46.4424C207.107 46.4424 206.51 46.5843 205.97 46.8566L204.546 47.6753C204.11 47.9588 203.736 48.3274 203.447 48.7589C203.157 49.1904 202.958 49.676 202.861 50.1863Z" fill="#F5F5F5"/>
<path d="M212.111 61.3456L213.384 58.9601L217.87 61.5465L212.111 72.3642L206.352 54.9072L210.838 57.4936L212.111 61.3456Z" fill="#9D3CFE"/>
<path opacity="0.15" d="M212.111 61.3456L213.384 58.9601L217.87 61.5465L212.111 72.3642L206.352 54.9072L210.838 57.4936L212.111 61.3456Z" fill="black"/>
<path d="M212.111 61.3508L210.838 57.4988L208.826 56.3438C210.431 61.2102 212.101 66.2625 212.101 66.2625L215.37 60.1154L213.358 58.9603L212.111 61.3508Z" fill="#37474F"/>
<path d="M207.609 92.6741V86.9539L202.776 86.532C202.706 86.5263 202.636 86.5402 202.574 86.5722L197.751 89.3243C197.705 89.3514 197.666 89.3883 197.636 89.4324C197.607 89.4764 197.588 89.5265 197.58 89.5789C197.572 89.6313 197.576 89.6848 197.592 89.7355C197.608 89.7861 197.634 89.8327 197.67 89.8717L202.796 95.3961L207.609 92.6741Z" fill="#9D3CFE"/>
<path d="M202.796 95.4163L197.67 89.892C197.62 89.8399 197.587 89.7738 197.576 89.7026C197.565 89.6314 197.577 89.5585 197.608 89.4938C197.64 89.4292 197.691 89.3758 197.754 89.3411C197.818 89.3063 197.89 89.2917 197.962 89.2993L202.796 89.7212V95.4163Z" fill="#37474F"/>
<path d="M207.605 86.9535L202.796 89.7006L197.962 89.2787C197.906 89.2658 197.847 89.2658 197.791 89.2787L202.57 86.5467C202.633 86.515 202.705 86.5012 202.776 86.5065L207.605 86.9535Z" fill="#9D3CFE"/>
<path d="M207.605 86.9535L202.796 89.7006L197.962 89.2787C197.906 89.2658 197.847 89.2658 197.791 89.2787L202.57 86.5467C202.633 86.515 202.705 86.5012 202.776 86.5065L207.605 86.9535Z" fill="#455A64"/>
<path d="M202.805 83.2476C202.838 82.6443 203.012 82.0571 203.315 81.5337C203.617 81.0102 204.039 80.5651 204.545 80.2343L205.964 79.4157C206.504 79.1434 207.101 79.0015 207.706 79.0015C208.312 79.0015 208.909 79.1434 209.449 79.4157L224.575 88.1342C225.082 88.4644 225.504 88.9093 225.808 89.4328C226.111 89.9563 226.286 90.5437 226.32 91.1475V108.589C226.288 109.194 226.113 109.781 225.809 110.305C225.506 110.829 225.083 111.273 224.575 111.603L223.156 112.421C222.616 112.696 222.019 112.839 221.413 112.839C220.807 112.839 220.21 112.696 219.67 112.421L215.209 109.85L209.404 106.5L204.545 103.703C204.038 103.373 203.616 102.928 203.314 102.404C203.011 101.881 202.837 101.293 202.805 100.69V83.2476Z" fill="#37474F"/>
<path d="M226.322 108.594C226.289 109.198 226.114 109.786 225.811 110.31C225.508 110.833 225.084 111.278 224.576 111.607L223.158 112.426C222.666 112.673 222.128 112.814 221.578 112.838C221.029 112.862 220.48 112.77 219.969 112.567C220.794 112.878 221.417 112.416 221.417 111.422V93.9796C221.399 93.3736 221.226 92.7823 220.914 92.262L225.819 89.4346C226.13 89.9548 226.304 90.5461 226.322 91.1521V108.594Z" fill="#263238"/>
<path d="M202.861 82.7552C203.068 82.0169 203.742 81.7809 204.546 82.253L219.677 90.9765C220.192 91.2942 220.615 91.7409 220.904 92.2722L225.803 89.4497C225.514 88.917 225.091 88.4687 224.576 88.149L209.456 79.4255C208.915 79.1531 208.318 79.0112 207.713 79.0112C207.107 79.0112 206.51 79.1531 205.97 79.4255L204.546 80.2491C204.11 80.5314 203.736 80.899 203.447 81.3298C203.157 81.7605 202.958 82.2454 202.861 82.7552Z" fill="#455A64"/>
<path d="M215.475 96.5764C215.833 94.7684 215.687 93.1061 214.972 92.1619C214.82 91.9404 214.615 91.759 214.377 91.6331C214.139 91.5072 213.874 91.4405 213.604 91.4387H213.479C212.998 91.4857 212.538 91.659 212.146 91.941C211.14 90.0426 210.134 88.8774 209.414 88.8774H209.309C209.212 88.8961 209.121 88.9365 209.043 88.9957C208.964 89.0549 208.9 89.1313 208.856 89.219C208.509 89.7965 208.489 91.047 208.75 92.6893C208.127 92.5143 207.461 92.5623 206.869 92.8249C206.68 92.9353 206.525 93.0962 206.422 93.2896C206.319 93.4829 206.272 93.7011 206.286 93.9197C206.286 95.0095 207.246 96.5061 208.74 97.9374C208.383 99.7454 208.529 101.408 209.243 102.352C209.398 102.555 209.591 102.726 209.812 102.854C210.053 102.994 210.327 103.067 210.606 103.065C210.787 103.064 210.966 103.039 211.14 102.99C211.486 102.877 211.81 102.707 212.1 102.487C212.91 103.994 213.72 105.084 214.369 105.461C214.52 105.554 214.694 105.606 214.872 105.611C214.905 105.616 214.939 105.616 214.972 105.611C215.07 105.593 215.161 105.552 215.241 105.493C215.32 105.434 215.385 105.358 215.43 105.27C215.777 104.692 215.792 103.442 215.531 101.789C215.795 101.839 216.062 101.866 216.331 101.87C216.689 101.884 217.044 101.805 217.362 101.639C217.551 101.528 217.705 101.367 217.808 101.174C217.911 100.98 217.959 100.762 217.945 100.544C217.93 99.4993 216.969 98.0027 215.475 96.5764ZM213.75 99.4842C213.581 99.7868 213.397 100.08 213.197 100.363C212.865 100.202 212.513 100.022 212.141 99.8057C211.768 99.5897 211.411 99.3687 211.074 99.1377C210.878 98.6355 210.682 98.1031 210.496 97.5507C210.31 96.9983 210.149 96.486 209.993 95.9838C210.134 95.6724 210.285 95.361 210.456 95.0547C210.627 94.7483 210.818 94.447 211.004 94.1758C211.341 94.3365 211.693 94.5173 212.065 94.7333C212.437 94.9492 212.83 95.1953 213.187 95.4364C213.383 95.9386 213.574 96.4408 213.765 97.0184C213.956 97.5959 214.092 98.0228 214.228 98.4949C214.097 98.8213 213.931 99.1427 213.75 99.4842ZM214.253 96.9179C214.143 96.5865 214.027 96.26 213.911 95.9436C214.248 96.1947 214.565 96.4458 214.862 96.717C214.771 97.0636 214.666 97.4201 214.535 97.7767C214.434 97.4955 214.344 97.2092 214.243 96.9179H214.253ZM212.151 94.0854C211.892 93.9381 211.641 93.8025 211.396 93.6786C211.614 93.4088 211.853 93.1569 212.11 92.9253C212.347 93.4024 212.588 93.9297 212.83 94.4972C212.598 94.3566 212.372 94.216 212.141 94.0854H212.151ZM210.013 94.5274C209.922 94.6931 209.832 94.8588 209.751 95.0296C209.616 94.5023 209.5 94.0252 209.409 93.5481C209.751 93.6446 210.087 93.7602 210.415 93.8946C210.254 94.1206 210.124 94.3064 210.018 94.5274H210.013ZM210.013 97.6512C210.129 97.9876 210.244 98.3141 210.365 98.6556C210.008 98.3894 209.671 98.1132 209.359 97.837C209.457 97.4546 209.575 97.0774 209.711 96.707C209.812 97.0083 209.912 97.3247 210.018 97.6361L210.013 97.6512ZM212.065 100.454C212.322 100.599 212.568 100.73 212.815 100.855C212.608 101.115 212.38 101.359 212.136 101.584C211.904 101.121 211.673 100.619 211.446 100.077C211.658 100.202 211.864 100.333 212.075 100.454H212.065ZM214.203 100.012C214.309 99.8257 214.404 99.6399 214.495 99.4491C214.64 100.002 214.761 100.524 214.857 101.006C214.505 100.906 214.158 100.785 213.821 100.644C213.961 100.443 214.092 100.233 214.213 100.012H214.203ZM213.519 94.9894C213.182 94.1306 212.83 93.3421 212.478 92.634C212.731 92.4453 213.015 92.3025 213.318 92.2122C213.457 92.1732 213.601 92.1529 213.745 92.1519C213.948 92.1469 214.148 92.1973 214.324 92.2975C214.456 92.3771 214.572 92.4811 214.666 92.6039C215.143 93.2367 215.274 94.5675 214.972 96.1194C214.514 95.7153 214.036 95.3348 213.539 94.9794L213.519 94.9894ZM210.737 93.3873C210.26 93.1724 209.767 92.9928 209.263 92.85C209.012 91.2931 209.042 90.2234 209.294 89.8065C209.311 89.757 209.34 89.7123 209.379 89.6765C209.418 89.6406 209.464 89.6146 209.515 89.6006H209.56C209.657 89.606 209.751 89.6372 209.832 89.691C210.31 89.9672 210.999 90.8612 211.748 92.2574C211.375 92.5931 211.039 92.9686 210.747 93.3773L210.737 93.3873ZM209.419 95.7327C209.192 96.267 209.005 96.8176 208.861 97.38C207.573 96.1345 206.804 94.9291 206.804 94.1909C206.798 94.0543 206.831 93.9189 206.899 93.8C206.966 93.681 207.066 93.5834 207.186 93.5179C207.451 93.3862 207.745 93.324 208.041 93.3371C208.319 93.3408 208.595 93.3728 208.866 93.4325C209.012 94.1206 209.198 94.904 209.429 95.7226L209.419 95.7327ZM210.732 99.6098C211.064 100.433 211.406 101.202 211.738 101.905C211.39 102.18 210.972 102.354 210.531 102.407C210.339 102.426 210.145 102.395 209.969 102.317C209.792 102.238 209.639 102.115 209.525 101.96C209.047 101.322 208.916 99.9915 209.218 98.4447C209.704 98.8575 210.213 99.2431 210.742 99.5998L210.732 99.6098ZM213.458 101.172C213.946 101.395 214.451 101.579 214.967 101.724C215.224 103.286 215.194 104.361 214.942 104.783C214.92 104.827 214.888 104.867 214.849 104.898C214.81 104.929 214.764 104.951 214.716 104.963C214.258 105.044 213.398 104.024 212.457 102.251C212.834 101.924 213.174 101.555 213.468 101.152L213.458 101.172ZM214.806 98.7611C215.011 98.246 215.179 97.7174 215.309 97.1791C216.597 98.4246 217.367 99.6299 217.367 100.368C217.371 100.505 217.338 100.639 217.27 100.758C217.203 100.877 217.104 100.975 216.984 101.041C216.467 101.253 215.894 101.287 215.355 101.137C215.249 100.393 215.048 99.5947 214.817 98.751L214.806 98.7611Z" fill="#9D3CFE"/>
<path d="M213.131 97.8567C213.131 98.61 212.673 98.9566 212.125 98.6301C211.816 98.4056 211.564 98.112 211.39 97.7727C211.215 97.4334 211.122 97.058 211.119 96.6765C211.119 95.9282 211.577 95.5817 212.125 95.9081C212.433 96.1321 212.685 96.4249 212.86 96.7633C213.034 97.1016 213.127 97.4761 213.131 97.8567Z" fill="#9D3CFE"/>
<g opacity="0.65">
<path opacity="0.65" d="M215.475 96.5764C215.833 94.7684 215.687 93.1061 214.972 92.1619C214.82 91.9404 214.615 91.759 214.377 91.6331C214.139 91.5072 213.874 91.4405 213.604 91.4387H213.479C212.998 91.4857 212.538 91.659 212.146 91.941C211.14 90.0426 210.134 88.8774 209.414 88.8774H209.309C209.212 88.8961 209.121 88.9365 209.043 88.9957C208.964 89.0549 208.9 89.1313 208.856 89.219C208.509 89.7965 208.489 91.047 208.75 92.6893C208.127 92.5143 207.461 92.5623 206.869 92.8249C206.68 92.9353 206.525 93.0962 206.422 93.2896C206.319 93.4829 206.272 93.7011 206.286 93.9197C206.286 95.0095 207.246 96.5061 208.74 97.9374C208.383 99.7454 208.529 101.408 209.243 102.352C209.398 102.555 209.591 102.726 209.812 102.854C210.053 102.994 210.327 103.067 210.606 103.065C210.787 103.064 210.966 103.039 211.14 102.99C211.486 102.877 211.81 102.707 212.1 102.487C212.91 103.994 213.72 105.084 214.369 105.461C214.52 105.554 214.694 105.606 214.872 105.611C214.905 105.616 214.939 105.616 214.972 105.611C215.07 105.593 215.161 105.552 215.241 105.493C215.32 105.434 215.385 105.358 215.43 105.27C215.777 104.692 215.792 103.442 215.531 101.789C215.795 101.839 216.062 101.866 216.331 101.87C216.689 101.884 217.044 101.805 217.362 101.639C217.551 101.528 217.705 101.367 217.808 101.174C217.911 100.98 217.959 100.762 217.945 100.544C217.93 99.4993 216.969 98.0027 215.475 96.5764ZM213.75 99.4842C213.581 99.7868 213.397 100.08 213.197 100.363C212.865 100.202 212.513 100.022 212.141 99.8057C211.768 99.5897 211.411 99.3687 211.074 99.1377C210.878 98.6355 210.682 98.1031 210.496 97.5507C210.31 96.9983 210.149 96.486 209.993 95.9838C210.134 95.6724 210.285 95.361 210.456 95.0547C210.627 94.7483 210.818 94.447 211.004 94.1758C211.341 94.3365 211.693 94.5173 212.065 94.7333C212.437 94.9492 212.83 95.1953 213.187 95.4364C213.383 95.9386 213.574 96.4408 213.765 97.0184C213.956 97.5959 214.092 98.0228 214.228 98.4949C214.097 98.8213 213.931 99.1427 213.75 99.4842ZM214.253 96.9179C214.143 96.5865 214.027 96.26 213.911 95.9436C214.248 96.1947 214.565 96.4458 214.862 96.717C214.771 97.0636 214.666 97.4201 214.535 97.7767C214.434 97.4955 214.344 97.2092 214.243 96.9179H214.253ZM212.151 94.0854C211.892 93.9381 211.641 93.8025 211.396 93.6786C211.614 93.4088 211.853 93.1569 212.11 92.9253C212.347 93.4024 212.588 93.9297 212.83 94.4972C212.598 94.3566 212.372 94.216 212.141 94.0854H212.151ZM210.013 94.5274C209.922 94.6931 209.832 94.8588 209.751 95.0296C209.616 94.5023 209.5 94.0252 209.409 93.5481C209.751 93.6446 210.087 93.7602 210.415 93.8946C210.254 94.1206 210.124 94.3064 210.018 94.5274H210.013ZM210.013 97.6512C210.129 97.9876 210.244 98.3141 210.365 98.6556C210.008 98.3894 209.671 98.1132 209.359 97.837C209.457 97.4546 209.575 97.0774 209.711 96.707C209.812 97.0083 209.912 97.3247 210.018 97.6361L210.013 97.6512ZM212.065 100.454C212.322 100.599 212.568 100.73 212.815 100.855C212.608 101.115 212.38 101.359 212.136 101.584C211.904 101.121 211.673 100.619 211.446 100.077C211.658 100.202 211.864 100.333 212.075 100.454H212.065ZM214.203 100.012C214.309 99.8257 214.404 99.6399 214.495 99.4491C214.64 100.002 214.761 100.524 214.857 101.006C214.505 100.906 214.158 100.785 213.821 100.644C213.961 100.443 214.092 100.233 214.213 100.012H214.203ZM213.519 94.9894C213.182 94.1306 212.83 93.3421 212.478 92.634C212.731 92.4453 213.015 92.3025 213.318 92.2122C213.457 92.1732 213.601 92.1529 213.745 92.1519C213.948 92.1469 214.148 92.1973 214.324 92.2975C214.456 92.3771 214.572 92.4811 214.666 92.6039C215.143 93.2367 215.274 94.5675 214.972 96.1194C214.514 95.7153 214.036 95.3348 213.539 94.9794L213.519 94.9894ZM210.737 93.3873C210.26 93.1724 209.767 92.9928 209.263 92.85C209.012 91.2931 209.042 90.2234 209.294 89.8065C209.311 89.757 209.34 89.7123 209.379 89.6765C209.418 89.6406 209.464 89.6146 209.515 89.6006H209.56C209.657 89.606 209.751 89.6372 209.832 89.691C210.31 89.9672 210.999 90.8612 211.748 92.2574C211.375 92.5931 211.039 92.9686 210.747 93.3773L210.737 93.3873ZM209.419 95.7327C209.192 96.267 209.005 96.8176 208.861 97.38C207.573 96.1345 206.804 94.9291 206.804 94.1909C206.798 94.0543 206.831 93.9189 206.899 93.8C206.966 93.681 207.066 93.5834 207.186 93.5179C207.451 93.3862 207.745 93.324 208.041 93.3371C208.319 93.3408 208.595 93.3728 208.866 93.4325C209.012 94.1206 209.198 94.904 209.429 95.7226L209.419 95.7327ZM210.732 99.6098C211.064 100.433 211.406 101.202 211.738 101.905C211.39 102.18 210.972 102.354 210.531 102.407C210.339 102.426 210.145 102.395 209.969 102.317C209.792 102.238 209.639 102.115 209.525 101.96C209.047 101.322 208.916 99.9915 209.218 98.4447C209.704 98.8575 210.213 99.2431 210.742 99.5998L210.732 99.6098ZM213.458 101.172C213.946 101.395 214.451 101.579 214.967 101.724C215.224 103.286 215.194 104.361 214.942 104.783C214.92 104.827 214.888 104.867 214.849 104.898C214.81 104.929 214.764 104.951 214.716 104.963C214.258 105.044 213.398 104.024 212.457 102.251C212.834 101.924 213.174 101.555 213.468 101.152L213.458 101.172ZM214.806 98.7611C215.011 98.246 215.179 97.7174 215.309 97.1791C216.597 98.4246 217.367 99.6299 217.367 100.368C217.371 100.505 217.338 100.639 217.27 100.758C217.203 100.877 217.104 100.975 216.984 101.041C216.467 101.253 215.894 101.287 215.355 101.137C215.249 100.393 215.048 99.5947 214.817 98.751L214.806 98.7611Z" fill="white"/>
<path opacity="0.65" d="M213.131 97.8572C213.131 98.6105 212.673 98.9571 212.125 98.6306C211.816 98.4061 211.564 98.1125 211.39 97.7732C211.215 97.4339 211.122 97.0585 211.119 96.677C211.119 95.9287 211.577 95.5821 212.125 95.9086C212.433 96.1326 212.685 96.4254 212.86 96.7638C213.034 97.1021 213.127 97.4766 213.131 97.8572Z" fill="white"/>
</g>
<path d="M191.461 117.333C193.428 117.715 194.323 118.383 195.44 121.105C196.556 123.827 198.553 130.456 199.016 132.279C199.227 133.093 194.061 140.385 194.283 140.274C194.348 140.244 192.271 136.759 192.271 136.759L194.811 131.917L193.005 127.508L191.461 117.333Z" fill="#FFA8A7"/>
<path d="M190.798 117.373C190.798 117.373 192.589 117.052 193.776 118.036C194.963 119.02 195.144 119.678 195.949 121.697C196.753 123.716 198.071 127.924 198.071 127.924C198.071 127.924 197.689 130.184 194.002 130.631L190.843 123.525C190.843 123.525 189.742 119.231 190.798 117.373Z" fill="#9D3CFE"/>
<path d="M187.096 175.686C186.986 176.324 187.025 176.979 187.212 177.599C187.538 178.356 188.076 179.003 188.761 179.462C189.257 179.922 189.69 180.446 190.049 181.019C190.399 181.649 190.853 182.217 191.392 182.696C191.809 183.058 192.991 183.093 193.56 182.852C194.128 182.611 194.324 182.4 194.289 181.491C194.254 180.582 191.493 180.271 191.493 180.271L187.096 175.686Z" fill="#455A64"/>
<path d="M193.921 178.784C194.152 178.869 194.212 179.316 194.248 180.21C194.278 180.883 194.56 181.868 193.629 182.289C193.216 182.455 192.764 182.495 192.329 182.406C191.893 182.317 191.493 182.101 191.179 181.787C190.546 180.994 190.118 180.281 189.218 179.331C188.433 178.493 187.623 178.211 187.271 176.534C187.05 175.459 187.226 175.027 187.95 174.701C188.956 174.279 190.52 175.665 191.3 175.881C191.984 176.057 193.694 178.694 193.921 178.784Z" fill="#9D3CFE"/>
<path opacity="0.2" d="M193.921 178.784C194.152 178.869 194.212 179.316 194.248 180.21C194.278 180.883 194.56 181.868 193.629 182.289C193.216 182.455 192.764 182.495 192.329 182.406C191.893 182.317 191.493 182.101 191.179 181.787C190.546 180.994 190.118 180.281 189.218 179.331C188.433 178.493 187.623 178.211 187.271 176.534C187.05 175.459 187.226 175.027 187.95 174.701C188.956 174.279 190.52 175.665 191.3 175.881C191.984 176.057 193.694 178.694 193.921 178.784Z" fill="black"/>
<path d="M191.311 175.866L191.18 175.821C190.727 175.845 190.287 175.989 189.908 176.237C189.528 176.486 189.22 176.831 189.017 177.237C188.887 177.533 189.294 177.739 189.52 177.533C189.737 177.14 190.047 176.805 190.423 176.559C190.799 176.313 191.23 176.163 191.678 176.122C191.574 176.014 191.449 175.927 191.311 175.866Z" fill="#FAFAFA"/>
<path d="M191.955 176.374C191.529 176.421 191.121 176.574 190.769 176.82C190.418 177.066 190.134 177.396 189.943 177.78C189.813 178.071 190.22 178.282 190.446 178.071C190.63 177.73 190.886 177.432 191.197 177.201C191.509 176.969 191.867 176.808 192.247 176.73C192.167 176.605 192.061 176.484 191.955 176.374Z" fill="#FAFAFA"/>
<path d="M174.547 189.451C174.396 190.205 174.667 190.596 175.643 191.159C176.924 191.79 178.402 191.893 179.758 191.445C181.367 190.978 182.137 190.28 182.806 190.109C183.475 189.938 185.13 189.928 185.789 189.737C186.448 189.547 186.438 189.205 186.438 188.412L174.547 189.451Z" fill="#455A64"/>
<path d="M185.789 184.584C185.789 184.584 186.101 185.539 186.292 186.367C186.428 187.03 186.619 188.13 186.387 188.627C186.156 189.125 185.251 189.446 183.872 189.436C182.967 189.436 181.549 190.044 180.583 190.581C179.61 191.062 178.507 191.215 177.439 191.018C176.192 190.872 174.924 190.149 174.703 189.637C174.481 189.125 174.446 188.733 177.384 187.482C177.414 187.482 180.794 186.227 182.212 184.66L185.789 184.584Z" fill="#9D3CFE"/>
<g opacity="0.2">
<path opacity="0.2" d="M185.789 184.584C185.789 184.584 186.101 185.539 186.292 186.367C186.428 187.03 186.619 188.13 186.387 188.627C186.156 189.125 185.251 189.446 183.872 189.436C182.967 189.436 181.549 190.044 180.583 190.581C179.61 191.062 178.507 191.215 177.439 191.018C176.192 190.872 174.924 190.149 174.703 189.637C174.481 189.125 174.446 188.733 177.384 187.482C177.414 187.482 180.794 186.227 182.212 184.66L185.789 184.584Z" fill="black"/>
</g>
<path d="M180.14 190.777C180.14 190.777 179.888 188.266 177.841 187.538C175.985 186.885 174.37 188.256 174.546 189.451C174.667 190.25 176.926 192.053 180.14 190.777Z" fill="#FAFAFA"/>
<path d="M178.359 187.066C178.881 187.114 179.373 187.333 179.758 187.688C180.351 188.19 180.366 188.512 180.366 188.512C180.412 188.559 180.471 188.59 180.536 188.602C180.6 188.613 180.666 188.604 180.725 188.576C180.784 188.547 180.833 188.501 180.864 188.444C180.895 188.386 180.908 188.321 180.9 188.256C180.9 188.256 180.764 186.985 179.089 186.749C178.949 186.719 178.804 186.733 178.673 186.79C178.542 186.846 178.432 186.943 178.359 187.066Z" fill="#FAFAFA"/>
<path d="M179.531 186.528C180.056 186.532 180.561 186.733 180.945 187.091C181.533 187.593 181.538 187.98 181.538 187.98C181.584 188.027 181.643 188.058 181.707 188.069C181.772 188.081 181.838 188.072 181.897 188.043C181.956 188.015 182.005 187.969 182.036 187.912C182.067 187.854 182.08 187.788 182.071 187.724C182.071 187.724 181.936 186.453 180.261 186.192C180.119 186.163 179.972 186.18 179.841 186.241C179.71 186.301 179.601 186.402 179.531 186.528Z" fill="#FAFAFA"/>
<path d="M180.693 185.84C181.218 185.809 181.735 185.975 182.142 186.307C182.766 186.759 182.796 187.151 182.796 187.151C182.845 187.19 182.905 187.214 182.967 187.218C183.03 187.223 183.093 187.209 183.147 187.177C183.202 187.146 183.245 187.098 183.272 187.042C183.299 186.985 183.309 186.922 183.299 186.86C183.299 186.86 183.073 185.599 181.382 185.453C181.242 185.439 181.1 185.468 180.976 185.537C180.853 185.607 180.754 185.712 180.693 185.84Z" fill="#FAFAFA"/>
<path d="M193.921 177.343V179.05C193.511 179.313 193.036 179.459 192.549 179.472C192.061 179.485 191.579 179.365 191.155 179.126C191.105 179.02 190.969 177.343 190.969 177.343H193.921Z" fill="#FFA8A7"/>
<path d="M185.788 183.404C185.788 183.404 185.788 184.218 185.788 184.68C185.788 185.142 185.245 185.835 183.826 185.785C182.82 185.75 182.136 185.478 182.171 184.66V183.48L185.788 183.404Z" fill="#FFA8A7"/>
<path d="M195.772 162.849C195.681 159.243 194.942 157.661 194.942 157.661C194.942 157.661 195.214 153.211 195.817 147.762C196.728 139.471 196.32 137.864 194.67 134.127C194.67 134.127 180.682 132.716 180.259 138.517C179.726 145.744 179.666 160.443 179.857 162.995C180.048 165.546 180.043 163.19 180.667 168.358C181.17 172.446 182.176 183.48 182.176 183.48C182.739 183.764 183.363 183.906 183.993 183.893C184.624 183.88 185.242 183.712 185.792 183.405C185.792 183.405 186.934 169.905 186.798 166.957C186.784 165.444 186.668 163.934 186.451 162.437C186.451 162.437 188.086 150.791 188.338 148.918C188.338 148.918 188.564 152.272 188.76 154.824C188.956 157.375 188.936 159.434 189.474 164.712C189.897 168.855 190.918 177.8 190.918 177.8C191.41 177.999 191.941 178.083 192.471 178.044C193.001 178.004 193.514 177.844 193.971 177.574C193.971 177.574 195.847 165.762 195.772 162.849Z" fill="#455A64"/>
<path d="M187.744 177.76C187.744 177.76 187.819 175.751 190.52 175.49L190.676 175.575C190.372 175.089 189.9 174.731 189.348 174.57C188.983 174.438 188.586 174.424 188.212 174.532C187.839 174.639 187.51 174.862 187.271 175.168C186.798 175.756 187.276 177.373 187.744 177.76Z" fill="#FAFAFA"/>
<path d="M184.299 115.45L184.958 120.848L189.711 120.417L189.168 114.43L184.299 115.45Z" fill="#FFA8A7"/>
<path d="M194.344 119.939C193.841 118.523 192.624 117.036 190.823 117.373C190.32 117.463 189.927 117.529 189.48 117.619C189.44 118.864 187.091 119.507 184.757 118.754C184.052 118.955 183.409 119.161 182.825 119.367C181.15 119.964 180.481 122.737 180.441 127.402C180.401 132.068 179.727 141.329 179.727 141.329C179.727 141.329 183.248 143.192 189.822 142.002C196.396 140.811 196.29 138.576 196.29 138.576C196.29 138.576 196.16 135.854 193.192 131.284C195.712 124.6 195.118 122.049 194.344 119.939Z" fill="#37474F"/>
<path d="M180.768 108.599C180.482 107.954 180.366 107.247 180.429 106.544C180.492 105.841 180.734 105.166 181.131 104.582C182.725 102.071 185.798 101.654 189.44 102.633C190.711 103.022 191.831 103.793 192.646 104.841C193.462 105.889 193.934 107.163 193.997 108.489C194.173 111.156 186.724 113.124 186.89 114.952L180.768 108.599Z" fill="#263238"/>
<path d="M180.611 109.614C180.611 109.614 179.605 111.231 179.741 111.397C179.991 111.553 180.267 111.663 180.556 111.723L180.611 109.614Z" fill="#F28F8F"/>
<path d="M183.696 104.486C182.69 105.039 180.94 106.063 180.588 109.845C180.226 113.727 181.121 115.048 181.664 115.54C182.031 115.871 183.872 115.947 184.823 115.625C186.015 115.218 188.58 113.867 189.747 111.839C191.121 109.448 191.332 106.314 189.642 105.129C188.786 104.528 187.792 104.154 186.752 104.041C185.712 103.929 184.661 104.082 183.696 104.486Z" fill="#FFA8A7"/>
<path d="M183.746 109.051C183.091 108.807 182.515 108.39 182.08 107.844C181.645 107.298 181.367 106.644 181.276 105.953C180.899 103.487 183.977 102.437 183.977 102.437L183.746 109.051Z" fill="#263238"/>
<path d="M183.394 104.667C183.394 104.667 182.599 108.223 183.731 110.423C183.731 110.423 184.32 109.031 185.512 109.393C186.704 109.755 186.654 111.352 185.733 112.185C185.5 112.425 185.204 112.594 184.879 112.672C184.554 112.75 184.214 112.735 183.897 112.627C184.298 113.633 184.903 114.546 185.673 115.309C185.673 115.309 189.194 116.886 192.282 113.431C195.064 110.292 194.546 104.823 190.27 103.532C185.995 102.241 183.394 104.667 183.394 104.667Z" fill="#263238"/>
<path d="M198.071 118.573C196.789 118.573 195.559 118.065 194.651 117.16C193.744 116.255 193.234 115.027 193.232 113.747V105.671C194.515 105.671 195.745 106.18 196.652 107.085C197.56 107.99 198.07 109.217 198.071 110.498V118.573Z" fill="#263238"/>
<path d="M193.77 104.612C193.666 104.645 193.569 104.699 193.485 104.77C193.402 104.841 193.333 104.928 193.283 105.025C193.233 105.123 193.203 105.229 193.194 105.338C193.185 105.447 193.198 105.557 193.232 105.661L194.821 105.159C194.789 105.054 194.736 104.956 194.665 104.872C194.594 104.787 194.508 104.718 194.41 104.667C194.312 104.616 194.205 104.585 194.095 104.575C193.986 104.566 193.875 104.578 193.77 104.612Z" fill="#263238"/>
<path d="M170.784 127.915C170.095 127.126 169.979 125.403 169.064 124.193C168.148 122.983 168.309 121.793 167.736 122.33C167.162 122.867 167.59 124.841 167.59 124.841C167.59 124.841 166.519 126.825 166.428 127.854C166.337 128.884 169.024 131.415 169.024 131.415L170.784 127.915Z" fill="#FFA8A7"/>
<path d="M167.725 124.69C167.725 124.69 166.634 126.197 161.73 124.228C160.376 123.676 161.292 126.584 162.952 127.789C164.491 128.904 166.412 129.25 167.952 130.3C167.957 130.139 167.725 124.69 167.725 124.69Z" fill="#FFA8A7"/>
<path d="M183.213 119.231C181.819 119.734 180.597 120.276 179.289 122.722C177.614 125.866 174.571 132.023 174.571 132.023L170.784 127.915C170.784 127.915 170.23 127.136 169.204 128.834C168.178 130.531 168.631 130.998 168.631 130.998C168.631 130.998 173.047 136.904 173.857 137.653C174.667 138.401 176 137.823 176.875 136.648C177.75 135.473 182.237 127.342 182.237 127.342C182.237 127.342 185.19 122.195 183.213 119.231Z" fill="#FFA8A7"/>
<path d="M183.891 119.005C183.001 119.083 182.145 119.382 181.402 119.876C180.658 120.37 180.051 121.043 179.636 121.832C177.966 124.846 176.205 128.246 176.205 128.246C176.205 128.246 177.417 131.164 180.501 131.385C180.501 131.083 183.016 126.613 183.976 124.7C184.937 122.787 184.837 119.864 183.891 119.005Z" fill="#9D3CFE"/>
<path d="M188.348 148.927L188.614 146.105C190.135 145.879 191.59 145.329 192.88 144.493C192.88 144.493 191.969 145.944 189.479 146.607L188.916 149.364L188.77 154.838L188.348 148.927Z" fill="#37474F"/>
</svg>
