<svg width="267" height="209" viewBox="0 0 267 209" fill="none" xmlns="http://www.w3.org/2000/svg">
<path d="M267 174.714H0V174.847H267V174.714Z" fill="#EBEBEB"/>
<path d="M92.4992 178.118H80.1211V178.252H92.4992V178.118Z" fill="#EBEBEB"/>
<path d="M244.982 180.979H214.721V181.112H244.982V180.979Z" fill="#EBEBEB"/>
<path d="M53.0743 180.979H22.8125V181.112H53.0743V180.979Z" fill="#EBEBEB"/>
<path d="M126.558 150.913H23.4481C22.6403 150.912 21.8662 150.59 21.2955 150.019C20.7248 149.448 20.4043 148.673 20.4043 147.866V3.0204C20.4113 2.21782 20.7349 1.45042 21.3049 0.884891C21.8748 0.319361 22.6449 0.00137486 23.4481 0H126.558C127.367 0 128.142 0.321031 128.714 0.89247C129.286 1.46391 129.607 2.23895 129.607 3.04708V147.866C129.607 148.674 129.286 149.449 128.714 150.021C128.142 150.592 127.367 150.913 126.558 150.913ZM23.4481 0.106728C22.6757 0.108142 21.9355 0.41574 21.3899 0.962007C20.8442 1.50827 20.5378 2.24857 20.5378 3.0204V147.866C20.5378 148.638 20.8442 149.378 21.3899 149.925C21.9355 150.471 22.6757 150.778 23.4481 150.78H126.558C127.331 150.777 128.071 150.469 128.617 149.923C129.163 149.378 129.471 148.638 129.474 147.866V3.0204C129.471 2.24851 129.163 1.50904 128.617 0.96323C128.071 0.417419 127.331 0.10954 126.558 0.106728H23.4481Z" fill="#EBEBEB"/>
<path d="M242.067 150.913H138.951C138.144 150.91 137.37 150.589 136.799 150.018C136.227 149.447 135.905 148.674 135.902 147.866V3.0204C135.911 2.21733 136.236 1.44994 136.806 0.884557C137.377 0.319175 138.148 0.00135987 138.951 0H242.067C242.869 0.00277733 243.638 0.321384 244.207 0.886764C244.775 1.45214 245.098 2.21874 245.105 3.0204V147.866C245.106 148.266 245.028 148.661 244.876 149.031C244.723 149.4 244.5 149.736 244.218 150.019C243.935 150.302 243.6 150.526 243.231 150.68C242.862 150.833 242.467 150.913 242.067 150.913ZM138.951 0.106728C138.179 0.10954 137.439 0.417419 136.893 0.96323C136.347 1.50904 136.039 2.24851 136.036 3.0204V147.866C136.039 148.638 136.347 149.378 136.893 149.923C137.439 150.469 138.179 150.777 138.951 150.78H242.067C242.839 150.777 243.579 150.469 244.125 149.923C244.672 149.378 244.98 148.638 244.982 147.866V3.0204C244.98 2.24851 244.672 1.50904 244.125 0.96323C243.579 0.417419 242.839 0.10954 242.067 0.106728H138.951Z" fill="#EBEBEB"/>
<path d="M240.642 191.208H229.107V191.342H240.642V191.208Z" fill="#EBEBEB"/>
<path d="M249.987 127.161C248.871 123.959 240.066 128.314 236.515 133.613C234.138 137.14 232.686 140.913 232.013 145.972C232.093 140.187 232.184 133.992 232.275 128.138C232.996 126.681 234.64 123.308 235.831 120.667C239.783 111.766 249.181 108.457 252.428 102.832C256.7 95.4682 256.657 84.4272 253.037 80.4462C249.913 76.9616 239.462 100.378 238.287 102.993C235.09 109.995 233.075 117.478 232.323 125.139C232.403 119.637 232.488 114.589 232.558 110.672C232.777 97.9656 233.054 93.8779 233.177 92.6239C233.615 92.0049 234.128 91.2898 234.421 90.9056C236.942 87.661 242.538 83.7975 245.336 79.0801C249.421 72.1908 248.759 63.9461 245.897 60.899C242.901 57.6972 237.604 65.2749 234.795 72.7885C231.986 80.3022 233.193 87.501 232.397 93.7445C232.232 94.9879 232.061 99.6146 231.901 106.072C231.046 99.1343 229.348 94.481 226.203 90.1478C222.326 84.8114 218.983 78.3277 215.795 79.1655C212.607 80.0033 214.322 88.5949 216.863 94.6411C219.112 100.009 230.213 105.362 231.815 109.679C231.628 118.42 231.452 129.514 231.329 139.814C230.459 134.477 231.057 134.029 227.474 125.886C225.338 121.035 216.612 115.053 215.576 118.388C214.541 121.723 216.11 127.994 219.411 132.439C222.081 135.998 227.955 135.993 229.338 138.202C229.653 138.736 230.705 140.678 231.308 141.825C231.164 154.414 231.1 165.53 231.175 169.324L231.746 169.361C231.719 168.385 231.789 161.976 231.901 153.496C233.332 148.992 242.981 146.356 245.961 141.665C249.085 136.729 251.322 131.003 249.987 127.161Z" fill="#E6E6E6"/>
<path d="M240.914 175.002H222.405C221.918 174.996 221.448 174.824 221.072 174.515C220.696 174.205 220.437 173.776 220.339 173.3L219.02 166.821H244.331L243.018 173.3C242.918 173.783 242.653 174.216 242.27 174.526C241.886 174.837 241.407 175.005 240.914 175.002Z" fill="#E6E6E6"/>
<path d="M244.845 169.329H218.476C218.17 169.331 217.874 169.22 217.646 169.017C217.417 168.814 217.271 168.534 217.237 168.23L216.703 163.427C216.667 163.104 216.758 162.78 216.958 162.524C217.157 162.268 217.449 162.1 217.771 162.056H245.368C245.531 162.054 245.693 162.085 245.844 162.146C245.996 162.208 246.133 162.298 246.249 162.413C246.365 162.527 246.458 162.664 246.521 162.814C246.584 162.964 246.617 163.125 246.618 163.288C246.62 163.336 246.62 163.385 246.618 163.433L246.084 168.235C246.051 168.539 245.905 168.819 245.676 169.022C245.447 169.224 245.151 169.334 244.845 169.329Z" fill="#F0F0F0"/>
<path d="M65.5271 18.1489H28.2539V59.0471H65.5271V18.1489Z" fill="#E6E6E6"/>
<path d="M68.7146 18.1489H28.75V59.0471H68.7146V18.1489Z" fill="#F5F5F5"/>
<path d="M66.1671 20.6948H31.2969V56.4967H66.1671V20.6948Z" fill="white"/>
<path d="M43.5111 51.331C41.518 49.3377 40.3984 46.6352 40.3984 43.8174C40.3984 40.9995 41.518 38.297 43.5111 36.3037L53.9347 25.8657C55.9278 27.859 57.0473 30.5615 57.0473 33.3794C57.0473 36.1972 55.9278 38.8997 53.9347 40.893L43.5111 51.331Z" fill="#F5F5F5"/>
<path d="M54.175 80.6118H28.8047V109.226H54.175V80.6118Z" fill="#E6E6E6"/>
<path d="M57.8433 80.6118H29.4238V109.226H57.8433V80.6118Z" fill="#F5F5F5"/>
<path d="M54.9175 83.5415H32.3613V106.301H54.9175V83.5415Z" fill="white"/>
<path d="M41.5904 90.298L39.0039 92.8828C37.8777 94.0081 37.8777 95.8327 39.0039 96.958L41.5904 99.5428C42.7165 100.668 44.5423 100.668 45.6684 99.5428L48.2549 96.958C49.3811 95.8327 49.3811 94.0081 48.2549 92.8828L45.6684 90.298C44.5423 89.1726 42.7165 89.1726 41.5904 90.298Z" fill="#F5F5F5"/>
<path d="M109.93 116.355H98.3691V174.634H109.93V116.355Z" fill="#E6E6E6"/>
<path d="M98.3673 116.36H48.4863V174.639H98.3673V116.36Z" fill="#F0F0F0"/>
<path d="M93.8235 138.778H53.0312V152.21H93.8235V138.778Z" fill="#E6E6E6"/>
<path d="M93.8235 155.209H53.0312V168.641H93.8235V155.209Z" fill="#E6E6E6"/>
<path d="M68.8441 140.582H78.0075C78.3055 140.579 78.5904 140.46 78.8011 140.249C79.0118 140.039 79.1314 139.754 79.1342 139.456C79.1328 139.158 79.0137 138.872 78.8027 138.661C78.5917 138.451 78.3059 138.331 78.0075 138.33H68.8441C68.5462 138.331 68.2609 138.451 68.0508 138.662C67.8406 138.873 67.7227 139.158 67.7227 139.456C67.7227 139.754 67.8406 140.039 68.0508 140.25C68.2609 140.461 68.5462 140.581 68.8441 140.582Z" fill="#F0F0F0"/>
<path d="M93.8235 122.353H53.0312V135.785H93.8235V122.353Z" fill="#E6E6E6"/>
<path d="M68.8441 124.151H78.0075C78.3059 124.15 78.5917 124.031 78.8027 123.82C79.0137 123.609 79.1328 123.324 79.1342 123.025C79.1314 122.728 79.0118 122.443 78.8011 122.232C78.5904 122.022 78.3055 121.902 78.0075 121.899H68.8441C68.5462 121.901 68.2609 122.02 68.0508 122.231C67.8406 122.442 67.7227 122.728 67.7227 123.025C67.7227 123.323 67.8406 123.609 68.0508 123.82C68.2609 124.031 68.5462 124.15 68.8441 124.151Z" fill="#F0F0F0"/>
<path d="M68.8441 157.013H78.0075C78.3068 157.011 78.5934 156.891 78.8046 156.679C79.0157 156.467 79.1343 156.18 79.1342 155.881C79.1328 155.584 79.0135 155.299 78.8023 155.089C78.5912 154.879 78.3054 154.761 78.0075 154.761H68.8441C68.6968 154.761 68.551 154.79 68.4149 154.846C68.2789 154.902 68.1553 154.985 68.0511 155.089C67.947 155.193 67.8644 155.317 67.808 155.453C67.7517 155.588 67.7227 155.734 67.7227 155.881C67.722 156.029 67.7504 156.176 67.8064 156.313C67.8624 156.45 67.9448 156.574 68.0489 156.679C68.153 156.784 68.2769 156.868 68.4133 156.925C68.5497 156.982 68.6961 157.012 68.8441 157.013Z" fill="#F0F0F0"/>
<path d="M98.3676 113.292H46.9434V116.355H98.3676V113.292Z" fill="#E6E6E6"/>
<path d="M111.543 113.297H98.3691V116.36H111.543V113.297Z" fill="#E0E0E0"/>
<path d="M136.705 208.995C188.366 208.995 230.246 205.693 230.246 201.62C230.246 197.547 188.366 194.245 136.705 194.245C85.0437 194.245 43.1641 197.547 43.1641 201.62C43.1641 205.693 85.0437 208.995 136.705 208.995Z" fill="#F5F5F5"/>
<path d="M212.34 39.3987C211.571 36.8516 210.551 34.3867 209.296 32.0398L211.192 25.8389L198.942 13.5652L192.726 15.4756C190.386 14.2069 187.92 13.1839 185.368 12.4232L182.324 6.69727H165.007L161.957 12.4232C159.397 13.1846 156.922 14.2074 154.572 15.4756L148.362 13.5705L136.08 25.8443L137.981 32.0505C136.72 34.3944 135.7 36.8599 134.937 39.4094L129.229 42.4565V59.7677L134.958 62.8148C135.721 65.3635 136.743 67.8275 138.007 70.1684L136.106 76.3693L148.388 88.643L154.599 86.7486C156.943 88.0091 159.411 89.0265 161.963 89.785L165.007 95.5216H182.351L185.395 89.7956C187.944 89.0312 190.41 88.0102 192.753 86.7486L198.969 88.643L211.251 76.3693L209.329 70.179C210.582 67.8348 211.598 65.3714 212.362 62.8255L218.07 59.7677V42.4405L212.34 39.3987ZM173.647 82.5328C167.427 82.5318 161.348 80.6877 156.177 77.234C151.006 73.7802 146.976 68.8717 144.597 63.1293C142.218 57.3868 141.596 51.0683 142.81 44.9726C144.024 38.8769 147.019 33.2778 151.417 28.8833C155.815 24.4888 161.419 21.4963 167.519 20.2842C173.619 19.072 179.942 19.6947 185.688 22.0734C191.433 24.4521 196.345 28.4801 199.8 33.6479C203.255 38.8158 205.099 44.8915 205.099 51.1068C205.098 59.442 201.783 67.4353 195.885 73.3287C189.987 79.222 181.987 82.5328 173.647 82.5328Z" fill="#3CCFFE"/>
<path d="M173.646 24.0884C168.298 24.0905 163.071 25.6772 158.626 28.6479C154.18 31.6185 150.716 35.8398 148.671 40.7778C146.626 45.7159 146.092 51.1491 147.136 56.3905C148.181 61.6318 150.757 66.4459 154.539 70.2242C158.322 74.0024 163.14 76.5751 168.385 77.6169C173.631 78.6588 179.067 78.123 184.008 76.0773C188.949 74.0317 193.171 70.568 196.142 66.1243C199.113 61.6805 200.699 56.4562 200.699 51.1119C200.699 47.5622 199.999 44.0473 198.639 40.768C197.28 37.4886 195.287 34.5091 192.775 31.9996C190.262 29.4901 187.28 27.4998 183.998 26.1424C180.716 24.7849 177.198 24.087 173.646 24.0884ZM173.646 74.5387C169.01 74.5397 164.477 73.1668 160.621 70.5935C156.766 68.0202 153.76 64.3621 151.985 60.0819C150.21 55.8016 149.744 51.0913 150.648 46.5468C151.551 42.0022 153.783 37.8275 157.061 34.5504C160.339 31.2734 164.515 29.0413 169.062 28.1363C173.61 27.2313 178.323 27.6942 182.607 29.4663C186.891 31.2385 190.553 34.2403 193.13 38.0922C195.707 41.9442 197.083 46.4732 197.084 51.1066C197.071 57.3154 194.598 63.2665 190.206 67.6578C185.813 72.0491 179.859 74.5232 173.646 74.5387Z" fill="#3CCFFE"/>
<path opacity="0.4" d="M212.34 39.3987C211.571 36.8516 210.551 34.3867 209.296 32.0398L211.192 25.8389L198.942 13.5652L192.726 15.4756C190.386 14.2069 187.92 13.1839 185.368 12.4232L182.324 6.69727H165.007L161.957 12.4232C159.397 13.1846 156.922 14.2074 154.572 15.4756L148.362 13.5705L136.08 25.8443L137.981 32.0505C136.72 34.3944 135.7 36.8599 134.937 39.4094L129.229 42.4565V59.7677L134.958 62.8148C135.721 65.3635 136.743 67.8275 138.007 70.1684L136.106 76.3693L148.388 88.643L154.599 86.7486C156.943 88.0091 159.411 89.0265 161.963 89.785L165.007 95.5216H182.351L185.395 89.7956C187.944 89.0312 190.41 88.0102 192.753 86.7486L198.969 88.643L211.251 76.3693L209.329 70.179C210.582 67.8348 211.598 65.3714 212.362 62.8255L218.07 59.7677V42.4405L212.34 39.3987ZM173.647 82.5328C167.427 82.5318 161.348 80.6877 156.177 77.234C151.006 73.7802 146.976 68.8717 144.597 63.1293C142.218 57.3868 141.596 51.0683 142.81 44.9726C144.024 38.8769 147.019 33.2778 151.417 28.8833C155.815 24.4888 161.419 21.4963 167.519 20.2842C173.619 19.072 179.942 19.6947 185.688 22.0734C191.433 24.4521 196.345 28.4801 199.8 33.6479C203.255 38.8158 205.099 44.8915 205.099 51.1068C205.098 59.442 201.783 67.4353 195.885 73.3287C189.987 79.222 181.987 82.5328 173.647 82.5328Z" fill="white"/>
<path opacity="0.4" d="M173.646 24.0884C168.298 24.0905 163.071 25.6772 158.626 28.6479C154.18 31.6185 150.716 35.8398 148.671 40.7778C146.626 45.7159 146.092 51.1491 147.136 56.3905C148.181 61.6318 150.757 66.4459 154.539 70.2242C158.322 74.0024 163.14 76.5751 168.385 77.6169C173.631 78.6588 179.067 78.123 184.008 76.0773C188.949 74.0317 193.171 70.568 196.142 66.1243C199.113 61.6805 200.699 56.4562 200.699 51.1119C200.699 47.5622 199.999 44.0473 198.639 40.768C197.28 37.4886 195.287 34.5091 192.775 31.9996C190.262 29.4901 187.28 27.4998 183.998 26.1424C180.716 24.7849 177.198 24.087 173.646 24.0884ZM173.646 74.5387C169.01 74.5397 164.477 73.1668 160.621 70.5935C156.766 68.0202 153.76 64.3621 151.985 60.0819C150.21 55.8016 149.744 51.0913 150.648 46.5468C151.551 42.0022 153.783 37.8275 157.061 34.5504C160.339 31.2734 164.515 29.0413 169.062 28.1363C173.61 27.2313 178.323 27.6942 182.607 29.4663C186.891 31.2385 190.553 34.2403 193.13 38.0922C195.707 41.9442 197.083 46.4732 197.084 51.1066C197.071 57.3154 194.598 63.2665 190.206 67.6578C185.813 72.0491 179.859 74.5232 173.646 74.5387Z" fill="white"/>
<path d="M103.234 73.7063C102.831 72.3558 102.294 71.049 101.632 69.8054L102.641 66.5128L96.1207 60.0078L92.8259 61.0163C91.5814 60.3538 90.2737 59.8175 88.9223 59.4154L87.3203 56.395H78.0928L76.4908 59.4154C75.1394 59.8175 73.8317 60.3538 72.5873 61.0163L69.2925 60.0078L62.7884 66.5128L63.7923 69.8054C63.1314 71.05 62.5948 72.3566 62.1903 73.7063L59.1465 75.3072V84.5072L62.1903 86.1081C62.5925 87.4586 63.1292 88.7655 63.7923 90.009L62.7884 93.3016L69.2925 99.8066L72.5873 98.798C73.8327 99.4584 75.1402 99.9946 76.4908 100.399L78.0928 103.414H87.299L88.901 100.399C90.2516 99.9946 91.559 99.4584 92.8045 98.798L96.0993 99.8066L102.609 93.3016L101.599 90.009C102.262 88.7654 102.799 87.4585 103.201 86.1081L106.24 84.5072V75.3232L103.234 73.7063ZM82.6959 92.9867C80.1094 92.9867 77.5809 92.2202 75.4303 90.7842C73.2797 89.3482 71.6035 87.3071 70.6137 84.9191C69.6239 82.5311 69.3649 79.9034 69.8695 77.3683C70.3741 74.8332 71.6196 72.5045 73.4486 70.6768C75.2775 68.8491 77.6077 67.6044 80.1446 67.1001C82.6814 66.5959 85.3109 66.8547 87.7005 67.8438C90.0901 68.833 92.1326 70.508 93.5696 72.6572C95.0066 74.8064 95.7736 77.3331 95.7736 79.9179C95.7721 83.3835 94.3939 86.7068 91.9416 89.1574C89.4894 91.6079 86.1639 92.9853 82.6959 92.9867Z" fill="#263238"/>
<path d="M103.234 73.7063C102.831 72.3558 102.294 71.049 101.632 69.8054L102.641 66.5128L96.1207 60.0078L92.8259 61.0163C91.5814 60.3538 90.2737 59.8175 88.9223 59.4154L87.3203 56.395H78.0928L76.4908 59.4154C75.1394 59.8175 73.8317 60.3538 72.5873 61.0163L69.2925 60.0078L62.7884 66.5128L63.7923 69.8054C63.1314 71.05 62.5948 72.3566 62.1903 73.7063L59.1465 75.3072V84.5072L62.1903 86.1081C62.5925 87.4586 63.1292 88.7655 63.7923 90.009L62.7884 93.3016L69.2925 99.8066L72.5873 98.798C73.8327 99.4584 75.1402 99.9946 76.4908 100.399L78.0928 103.414H87.299L88.901 100.399C90.2516 99.9946 91.559 99.4584 92.8045 98.798L96.0993 99.8066L102.609 93.3016L101.599 90.009C102.262 88.7654 102.799 87.4585 103.201 86.1081L106.24 84.5072V75.3232L103.234 73.7063ZM82.6959 92.9867C80.1094 92.9867 77.5809 92.2202 75.4303 90.7842C73.2797 89.3482 71.6035 87.3071 70.6137 84.9191C69.6239 82.5311 69.3649 79.9034 69.8695 77.3683C70.3741 74.8332 71.6196 72.5045 73.4486 70.6768C75.2775 68.8491 77.6077 67.6044 80.1446 67.1001C82.6814 66.5959 85.3109 66.8547 87.7005 67.8438C90.0901 68.833 92.1326 70.508 93.5696 72.6572C95.0066 74.8064 95.7736 77.3331 95.7736 79.9179C95.7721 83.3835 94.3939 86.7068 91.9416 89.1574C89.4894 91.6079 86.1639 92.9853 82.6959 92.9867Z" fill="#3CCFFE"/>
<path d="M82.6955 75.5903C81.8379 75.5903 80.9995 75.8445 80.2865 76.3206C79.5734 76.7967 79.0176 77.4735 78.6894 78.2653C78.3613 79.057 78.2754 79.9283 78.4427 80.7688C78.61 81.6094 79.023 82.3815 79.6294 82.9875C80.2358 83.5935 81.0084 84.0062 81.8495 84.1734C82.6907 84.3406 83.5625 84.2548 84.3548 83.9268C85.1471 83.5988 85.8243 83.0434 86.3008 82.3309C86.7772 81.6183 87.0315 80.7805 87.0315 79.9235C87.0315 78.7743 86.5747 77.6721 85.7615 76.8595C84.9484 76.0469 83.8455 75.5903 82.6955 75.5903Z" fill="#263238"/>
<path opacity="0.4" d="M103.234 73.7063C102.831 72.3558 102.294 71.049 101.632 69.8054L102.641 66.5128L96.1207 60.0078L92.8259 61.0163C91.5814 60.3538 90.2737 59.8175 88.9223 59.4154L87.3203 56.395H78.0928L76.4908 59.4154C75.1394 59.8175 73.8317 60.3538 72.5873 61.0163L69.2925 60.0078L62.7884 66.5128L63.7923 69.8054C63.1314 71.05 62.5948 72.3566 62.1903 73.7063L59.1465 75.3072V84.5072L62.1903 86.1081C62.5925 87.4586 63.1292 88.7655 63.7923 90.009L62.7884 93.3016L69.2925 99.8066L72.5873 98.798C73.8327 99.4584 75.1402 99.9946 76.4908 100.399L78.0928 103.414H87.299L88.901 100.399C90.2516 99.9946 91.559 99.4584 92.8045 98.798L96.0993 99.8066L102.609 93.3016L101.599 90.009C102.262 88.7654 102.799 87.4585 103.201 86.1081L106.24 84.5072V75.3232L103.234 73.7063ZM82.6959 92.9867C80.1094 92.9867 77.5809 92.2202 75.4303 90.7842C73.2797 89.3482 71.6035 87.3071 70.6137 84.9191C69.6239 82.5311 69.3649 79.9034 69.8695 77.3683C70.3741 74.8332 71.6196 72.5045 73.4486 70.6768C75.2775 68.8491 77.6077 67.6044 80.1446 67.1001C82.6814 66.5959 85.3109 66.8547 87.7005 67.8438C90.0901 68.833 92.1326 70.508 93.5696 72.6572C95.0066 74.8064 95.7736 77.3331 95.7736 79.9179C95.7721 83.3835 94.3939 86.7068 91.9416 89.1574C89.4894 91.6079 86.1639 92.9853 82.6959 92.9867Z" fill="white"/>
<path opacity="0.2" d="M82.6955 75.5903C81.8379 75.5903 80.9995 75.8445 80.2865 76.3206C79.5734 76.7967 79.0176 77.4735 78.6894 78.2653C78.3613 79.057 78.2754 79.9283 78.4427 80.7688C78.61 81.6094 79.023 82.3815 79.6294 82.9875C80.2358 83.5935 81.0084 84.0062 81.8495 84.1734C82.6907 84.3406 83.5625 84.2548 84.3548 83.9268C85.1471 83.5988 85.8243 83.0434 86.3008 82.3309C86.7772 81.6183 87.0315 80.7805 87.0315 79.9235C87.0315 78.7743 86.5747 77.6721 85.7615 76.8595C84.9484 76.0469 83.8455 75.5903 82.6955 75.5903Z" fill="white"/>
<path d="M111.606 65.3656L108.082 63.9141L107.954 62.5906C107.624 62.3129 107.317 62.0095 107.035 61.6835L105.721 61.55L104.264 58.0334L105.113 57.0248C105.075 56.5933 105.075 56.1595 105.113 55.728L104.264 54.7248L105.732 51.2294L107.046 51.1014C107.331 50.7653 107.642 50.4513 107.975 50.1622L108.103 48.8441L111.628 47.3926L112.631 48.2357C113.063 48.2037 113.497 48.2037 113.929 48.2357L114.933 47.3926L118.457 48.8441L118.58 50.1622C118.907 50.4446 119.214 50.7495 119.499 51.0747L120.812 51.2028L122.265 54.7194L121.421 55.7227C121.458 56.1541 121.458 56.588 121.421 57.0194L122.265 58.028L120.812 61.5447L119.499 61.6781C119.217 62.0059 118.91 62.311 118.58 62.5906L118.457 63.9087L114.933 65.3602L113.929 64.5171C113.499 64.5491 113.067 64.5491 112.637 64.5171L111.606 65.3656ZM114.159 63.7647L115.072 64.5171L117.742 63.4124L117.849 62.2331L117.977 62.137C118.351 61.8339 118.696 61.4963 119.007 61.1285L119.104 61.0057L120.284 60.8937L121.389 58.2255L120.684 57.2863V57.1315C120.732 56.6471 120.732 56.1591 120.684 55.6747V55.4986L121.437 54.5807L120.332 51.9125L119.157 51.8058L119.055 51.6777C118.741 51.3172 118.393 50.9884 118.014 50.6958L117.886 50.5944L117.779 49.4151L115.109 48.3104L114.18 49.0949H114.025C113.541 49.0415 113.052 49.0415 112.567 49.0949H112.407L111.494 48.3371L108.824 49.4418L108.712 50.6211L108.594 50.7225C108.216 51.0208 107.869 51.357 107.558 51.7257L107.457 51.8538L106.277 51.9605L105.161 54.6287L105.919 55.5413V55.696C105.866 56.1802 105.866 56.6687 105.919 57.1529V57.3129L105.161 58.1668L106.272 60.835L107.446 60.947L107.548 61.0698C107.856 61.4469 108.201 61.7919 108.578 62.0997L108.701 62.1957L108.813 63.3804L111.483 64.4851L112.402 63.7326H112.557C113.041 63.7806 113.53 63.7806 114.015 63.7326L114.159 63.7647Z" fill="#263238"/>
<path d="M114.859 60.1521C114.112 60.4624 113.289 60.5442 112.495 60.387C111.701 60.2299 110.972 59.841 110.399 59.2695C109.826 58.698 109.436 57.9695 109.278 57.1763C109.12 56.3832 109.201 55.5609 109.51 54.8136C109.82 54.0664 110.344 53.4277 111.017 52.9783C111.69 52.529 112.481 52.2893 113.291 52.2896C114.1 52.2898 114.891 52.5299 115.564 52.9796C116.237 53.4292 116.761 54.0682 117.07 54.8157C117.276 55.3108 117.382 55.8415 117.383 56.3777C117.383 56.9138 117.278 57.4448 117.073 57.9403C116.868 58.4359 116.568 58.8863 116.189 59.2657C115.81 59.6452 115.36 59.9464 114.864 60.1521H114.859Z" fill="#263238"/>
<path d="M85.4404 57.0251C85.3739 57.0251 85.31 56.9986 85.263 56.9516C85.2159 56.9046 85.1895 56.8408 85.1895 56.7743V55.4989C85.1895 55.4323 85.2159 55.3685 85.263 55.3215C85.31 55.2745 85.3739 55.248 85.4404 55.248C85.507 55.248 85.5708 55.2745 85.6179 55.3215C85.665 55.3685 85.6914 55.4323 85.6914 55.4989V56.7529C85.6944 56.7876 85.6901 56.8225 85.6788 56.8555C85.6675 56.8884 85.6495 56.9186 85.6259 56.9442C85.6023 56.9698 85.5736 56.9902 85.5417 57.0042C85.5098 57.0181 85.4753 57.0252 85.4404 57.0251Z" fill="#3CCFFE"/>
<path d="M85.4404 53.2519C85.3739 53.2519 85.31 53.2255 85.263 53.1784C85.2159 53.1314 85.1895 53.0676 85.1895 53.0011V50.4823C85.1895 50.4158 85.2159 50.352 85.263 50.3049C85.31 50.2579 85.3739 50.2315 85.4404 50.2315C85.507 50.2315 85.5708 50.2579 85.6179 50.3049C85.665 50.352 85.6914 50.4158 85.6914 50.4823V53.0011C85.6914 53.0676 85.665 53.1314 85.6179 53.1784C85.5708 53.2255 85.507 53.2519 85.4404 53.2519ZM85.4404 48.2143C85.3739 48.2143 85.31 48.1879 85.263 48.1409C85.2159 48.0938 85.1895 48.03 85.1895 47.9635V45.4447C85.1895 45.3782 85.2159 45.3144 85.263 45.2674C85.31 45.2203 85.3739 45.1939 85.4404 45.1939C85.507 45.1939 85.5708 45.2203 85.6179 45.2674C85.665 45.3144 85.6914 45.3782 85.6914 45.4447V47.9635C85.6914 48.03 85.665 48.0938 85.6179 48.1409C85.5708 48.1879 85.507 48.2143 85.4404 48.2143ZM85.4404 43.1821C85.3734 43.1807 85.3096 43.1531 85.2626 43.1052C85.2157 43.0573 85.1894 42.993 85.1895 42.926V40.4125C85.1895 40.346 85.2159 40.2822 85.263 40.2352C85.31 40.1881 85.3739 40.1617 85.4404 40.1617C85.507 40.1617 85.5708 40.1881 85.6179 40.2352C85.665 40.2822 85.6914 40.346 85.6914 40.4125V42.926C85.6914 42.993 85.6652 43.0573 85.6182 43.1052C85.5713 43.1531 85.5075 43.1807 85.4404 43.1821ZM85.4404 38.1285C85.4083 38.1307 85.376 38.1263 85.3456 38.1155C85.3152 38.1047 85.2874 38.0877 85.2638 38.0657C85.2403 38.0437 85.2215 38.017 85.2087 37.9874C85.1959 37.9579 85.1894 37.926 85.1895 37.8937V37.8564C85.1893 36.9992 85.3319 36.148 85.6113 35.3376C85.6343 35.2754 85.6805 35.2245 85.7403 35.1956C85.8 35.1667 85.8686 35.1622 85.9317 35.1828C85.9634 35.193 85.9927 35.2095 86.0178 35.2313C86.0429 35.2531 86.0634 35.2798 86.0778 35.3098C86.0923 35.3397 86.1006 35.3723 86.1021 35.4055C86.1036 35.4387 86.0983 35.4719 86.0866 35.503C85.8242 36.2599 85.6906 37.0554 85.6914 37.8564C85.6916 37.925 85.6659 37.9912 85.6193 38.0416C85.5728 38.0921 85.5089 38.1231 85.4404 38.1285ZM87.0424 33.4752C86.9862 33.4761 86.9314 33.4572 86.8876 33.4218C86.8616 33.4015 86.8399 33.3763 86.8237 33.3476C86.8075 33.3189 86.7972 33.2873 86.7932 33.2546C86.7892 33.2219 86.7917 33.1887 86.8006 33.157C86.8095 33.1252 86.8245 33.0956 86.8449 33.0696C87.3876 32.3905 88.0412 31.8078 88.7779 31.346C88.806 31.3285 88.8372 31.3166 88.8698 31.3112C88.9025 31.3057 88.9358 31.3067 88.9681 31.3142C89.0003 31.3216 89.0308 31.3353 89.0577 31.3545C89.0846 31.3737 89.1075 31.398 89.125 31.426C89.1426 31.454 89.1544 31.4853 89.1599 31.5179C89.1653 31.5505 89.1643 31.5838 89.1569 31.616C89.1494 31.6482 89.1357 31.6787 89.1165 31.7056C89.0973 31.7325 89.073 31.7554 89.0449 31.7729C88.3565 32.2 87.7461 32.7414 87.24 33.3738C87.2021 33.425 87.1472 33.4609 87.0852 33.4752H87.0424ZM91.2343 30.8604C91.1721 30.8608 91.1119 30.8382 91.0654 30.7968C91.0189 30.7554 90.9895 30.6982 90.9829 30.6364C90.9762 30.5745 90.9928 30.5124 91.0294 30.4621C91.066 30.4118 91.12 30.3768 91.1809 30.3641C91.7279 30.2423 92.2866 30.1814 92.847 30.1826H93.7388C93.7718 30.1826 93.8044 30.1891 93.8348 30.2017C93.8653 30.2143 93.893 30.2328 93.9163 30.2561C93.9396 30.2794 93.9581 30.307 93.9707 30.3375C93.9833 30.3679 93.9898 30.4005 93.9898 30.4334C93.9898 30.4664 93.9833 30.499 93.9707 30.5294C93.9581 30.5599 93.9396 30.5875 93.9163 30.6108C93.893 30.6341 93.8653 30.6526 93.8348 30.6652C93.8044 30.6778 93.7718 30.6843 93.7388 30.6843H92.9164C92.392 30.6848 91.8692 30.7421 91.3572 30.855L91.2343 30.8604ZM134.056 30.6843H131.578C131.511 30.6843 131.448 30.6578 131.401 30.6108C131.353 30.5638 131.327 30.5 131.327 30.4334C131.327 30.3669 131.353 30.3031 131.401 30.2561C131.448 30.2091 131.511 30.1826 131.578 30.1826H134.099C134.131 30.1826 134.164 30.1891 134.195 30.2017C134.225 30.2143 134.253 30.2328 134.276 30.2561C134.299 30.2794 134.318 30.307 134.33 30.3375C134.343 30.3679 134.349 30.4005 134.349 30.4334C134.349 30.4664 134.343 30.499 134.33 30.5294C134.318 30.5599 134.299 30.5875 134.276 30.6108C134.253 30.6341 134.225 30.6526 134.195 30.6652C134.164 30.6778 134.131 30.6843 134.099 30.6843H134.056ZM129.015 30.6843H126.558C126.525 30.6843 126.493 30.6778 126.462 30.6652C126.432 30.6526 126.404 30.6341 126.381 30.6108C126.358 30.5875 126.339 30.5599 126.327 30.5294C126.314 30.499 126.307 30.4664 126.307 30.4334C126.307 30.4005 126.314 30.3679 126.327 30.3375C126.339 30.307 126.358 30.2794 126.381 30.2561C126.404 30.2328 126.432 30.2143 126.462 30.2017C126.493 30.1891 126.525 30.1826 126.558 30.1826H129.074C129.107 30.1826 129.139 30.1891 129.17 30.2017C129.2 30.2143 129.228 30.2328 129.251 30.2561C129.274 30.2794 129.293 30.307 129.305 30.3375C129.318 30.3679 129.325 30.4005 129.325 30.4334C129.325 30.4664 129.318 30.499 129.305 30.5294C129.293 30.5599 129.274 30.5875 129.251 30.6108C129.228 30.6341 129.2 30.6526 129.17 30.6652C129.139 30.6778 129.107 30.6843 129.074 30.6843H129.015ZM123.979 30.6843H121.459C121.392 30.6843 121.328 30.6578 121.281 30.6108C121.234 30.5638 121.208 30.5 121.208 30.4334C121.208 30.3669 121.234 30.3031 121.281 30.2561C121.328 30.2091 121.392 30.1826 121.459 30.1826H123.979C124.012 30.1826 124.045 30.1891 124.075 30.2017C124.106 30.2143 124.133 30.2328 124.157 30.2561C124.18 30.2794 124.198 30.307 124.211 30.3375C124.224 30.3679 124.23 30.4005 124.23 30.4334C124.23 30.4664 124.224 30.499 124.211 30.5294C124.198 30.5599 124.18 30.5875 124.157 30.6108C124.133 30.6341 124.106 30.6526 124.075 30.6652C124.045 30.6778 124.012 30.6843 123.979 30.6843ZM118.938 30.6843H116.418C116.351 30.6843 116.287 30.6578 116.24 30.6108C116.193 30.5638 116.167 30.5 116.167 30.4334C116.167 30.3669 116.193 30.3031 116.24 30.2561C116.287 30.2091 116.351 30.1826 116.418 30.1826H118.938C118.971 30.1826 119.004 30.1891 119.034 30.2017C119.065 30.2143 119.092 30.2328 119.116 30.2561C119.139 30.2794 119.158 30.307 119.17 30.3375C119.183 30.3679 119.189 30.4005 119.189 30.4334C119.189 30.4664 119.183 30.499 119.17 30.5294C119.158 30.5599 119.139 30.5875 119.116 30.6108C119.092 30.6341 119.065 30.6526 119.034 30.6652C119.004 30.6778 118.971 30.6843 118.938 30.6843ZM113.897 30.6843H111.377C111.31 30.6843 111.246 30.6578 111.199 30.6108C111.152 30.5638 111.126 30.5 111.126 30.4334C111.126 30.3669 111.152 30.3031 111.199 30.2561C111.246 30.2091 111.31 30.1826 111.377 30.1826H113.897C113.93 30.1826 113.963 30.1891 113.993 30.2017C114.024 30.2143 114.051 30.2328 114.075 30.2561C114.098 30.2794 114.117 30.307 114.129 30.3375C114.142 30.3679 114.148 30.4005 114.148 30.4334C114.148 30.4664 114.142 30.499 114.129 30.5294C114.117 30.5599 114.098 30.5875 114.075 30.6108C114.051 30.6341 114.024 30.6526 113.993 30.6652C113.963 30.6778 113.93 30.6843 113.897 30.6843ZM108.856 30.6843H106.341C106.308 30.6843 106.276 30.6778 106.245 30.6652C106.215 30.6526 106.187 30.6341 106.164 30.6108C106.14 30.5875 106.122 30.5599 106.109 30.5294C106.097 30.499 106.09 30.4664 106.09 30.4334C106.09 30.4005 106.097 30.3679 106.109 30.3375C106.122 30.307 106.14 30.2794 106.164 30.2561C106.187 30.2328 106.215 30.2143 106.245 30.2017C106.276 30.1891 106.308 30.1826 106.341 30.1826H108.856C108.889 30.1826 108.922 30.1891 108.952 30.2017C108.983 30.2143 109.01 30.2328 109.034 30.2561C109.057 30.2794 109.076 30.307 109.088 30.3375C109.101 30.3679 109.107 30.4005 109.107 30.4334C109.107 30.4664 109.101 30.499 109.088 30.5294C109.076 30.5599 109.057 30.5875 109.034 30.6108C109.01 30.6341 108.983 30.6526 108.952 30.6652C108.922 30.6778 108.889 30.6843 108.856 30.6843ZM103.821 30.6843H101.3C101.234 30.6843 101.17 30.6578 101.123 30.6108C101.076 30.5638 101.049 30.5 101.049 30.4334C101.049 30.3669 101.076 30.3031 101.123 30.2561C101.17 30.2091 101.234 30.1826 101.3 30.1826H103.821C103.854 30.1826 103.886 30.1891 103.917 30.2017C103.947 30.2143 103.975 30.2328 103.998 30.2561C104.021 30.2794 104.04 30.307 104.053 30.3375C104.065 30.3679 104.072 30.4005 104.072 30.4334C104.072 30.4664 104.065 30.499 104.053 30.5294C104.04 30.5599 104.021 30.5875 103.998 30.6108C103.975 30.6341 103.947 30.6526 103.917 30.6652C103.886 30.6778 103.854 30.6843 103.821 30.6843ZM98.7798 30.6843H96.2593C96.1927 30.6843 96.1289 30.6578 96.0818 30.6108C96.0347 30.5638 96.0083 30.5 96.0083 30.4334C96.0083 30.3669 96.0347 30.3031 96.0818 30.2561C96.1289 30.2091 96.1927 30.1826 96.2593 30.1826H98.7798C98.8127 30.1826 98.8454 30.1891 98.8758 30.2017C98.9063 30.2143 98.9339 30.2328 98.9572 30.2561C98.9805 30.2794 98.999 30.307 99.0116 30.3375C99.0242 30.3679 99.0307 30.4005 99.0307 30.4334C99.0307 30.4664 99.0242 30.499 99.0116 30.5294C98.999 30.5599 98.9805 30.5875 98.9572 30.6108C98.9339 30.6341 98.9063 30.6526 98.8758 30.6652C98.8454 30.6778 98.8127 30.6843 98.7798 30.6843Z" fill="#3CCFFE"/>
<path d="M137.884 30.6842H136.624C136.557 30.6842 136.494 30.6578 136.447 30.6108C136.399 30.5637 136.373 30.4999 136.373 30.4334C136.373 30.3669 136.399 30.3031 136.447 30.2561C136.494 30.209 136.557 30.1826 136.624 30.1826H137.884C137.951 30.1826 138.015 30.209 138.062 30.2561C138.109 30.3031 138.135 30.3669 138.135 30.4334C138.135 30.4999 138.109 30.5637 138.062 30.6108C138.015 30.6578 137.951 30.6842 137.884 30.6842Z" fill="#3CCFFE"/>
<path d="M85.3127 201.06H87.9453L87.9453 118.842H85.3127L85.3127 201.06Z" fill="#263238"/>
<path d="M193.773 155.716H150.294V149.691H193.773C194.298 149.691 194.802 149.9 195.174 150.271C195.545 150.643 195.754 151.146 195.754 151.671V153.736C195.754 153.996 195.703 154.254 195.603 154.494C195.504 154.734 195.358 154.953 195.174 155.136C194.99 155.32 194.771 155.466 194.531 155.566C194.291 155.665 194.033 155.716 193.773 155.716Z" fill="#3CCFFE"/>
<path d="M192.102 201.513L188.951 151.751" stroke="#3CCFFE" stroke-width="2.83" stroke-linecap="round" stroke-linejoin="round"/>
<path d="M180.039 203.979L176.889 154.217" stroke="#3CCFFE" stroke-width="2.83" stroke-linecap="round" stroke-linejoin="round"/>
<path d="M148.42 201.513L151.571 151.751" stroke="#3CCFFE" stroke-width="2.83" stroke-linecap="round" stroke-linejoin="round"/>
<path d="M160.482 203.979L163.633 154.217" stroke="#3CCFFE" stroke-width="2.83" stroke-linecap="round" stroke-linejoin="round"/>
<path d="M197.634 151.751H154.156V145.727H197.634C198.16 145.727 198.663 145.935 199.035 146.307C199.407 146.678 199.615 147.181 199.615 147.706V149.772C199.615 150.297 199.407 150.8 199.035 151.172C198.663 151.543 198.16 151.751 197.634 151.751Z" fill="#3CCFFE"/>
<path opacity="0.2" d="M197.634 151.751H154.156V145.727H197.634C198.16 145.727 198.663 145.935 199.035 146.307C199.407 146.678 199.615 147.181 199.615 147.706V149.772C199.615 150.297 199.407 150.8 199.035 151.172C198.663 151.543 198.16 151.751 197.634 151.751Z" fill="black"/>
<path d="M153.846 203.023H156.479V120.806H153.846V203.023Z" fill="#263238"/>
<path d="M162.818 127.06C162.818 127.06 132.727 128.191 127.729 140.262C127.729 140.262 128.423 176.213 132.449 188.012L141.062 187.035L139.685 152.087L170.812 127.07L162.818 127.06Z" fill="#263238"/>
<path opacity="0.2" d="M162.818 127.06C162.818 127.06 132.727 128.191 127.729 140.262C127.729 140.262 128.423 176.213 132.449 188.012L141.062 187.035L139.685 152.087L170.812 127.07L162.818 127.06Z" fill="black"/>
<path d="M139.636 196.033H134.259L134.184 192.452L134.131 189.645L139.385 189.965L139.487 192.452L139.636 196.033Z" fill="#B55B52"/>
<path opacity="0.2" d="M139.487 192.452H134.184L134.131 189.645L139.385 189.965L139.487 192.452Z" fill="black"/>
<path d="M142.039 190.787L130.526 191.134L128.428 186.865L141.719 186.742L142.039 190.787Z" fill="#3CCFFE"/>
<path d="M132.881 196.844C132.881 196.844 133.159 193.69 132.059 194.128C130.959 194.565 132.187 196.177 132.881 196.844Z" stroke="#3CCFFE" stroke-width="0.94" stroke-miterlimit="10"/>
<path d="M132.881 196.844C132.881 196.844 130.516 195.19 129.912 196.033C129.309 196.876 132.881 196.844 132.881 196.844Z" stroke="#3CCFFE" stroke-width="0.94" stroke-miterlimit="10"/>
<path d="M134.755 195.312L139.027 195.355C139.328 195.362 139.616 195.481 139.835 195.688C140.054 195.895 140.188 196.176 140.212 196.476L140.511 200.249C140.525 200.412 140.505 200.577 140.451 200.732C140.398 200.887 140.312 201.03 140.199 201.149C140.087 201.269 139.951 201.364 139.799 201.428C139.648 201.491 139.485 201.522 139.32 201.519C137.008 201.449 132.25 201.327 130.563 201.375C128.304 201.439 125.094 201.476 124.635 200.617C124.505 200.386 124.46 200.117 124.51 199.857C124.56 199.597 124.701 199.363 124.908 199.197C124.908 199.197 131.065 198.626 133.895 195.702C134.005 195.583 134.138 195.487 134.285 195.42C134.433 195.353 134.592 195.317 134.755 195.312Z" fill="#263238"/>
<path d="M189.816 127.06C189.816 127.06 190.387 134.066 190.174 139.483C189.928 145.726 176.476 151.223 156.895 148.021C156.895 148.021 155.367 158.571 149.953 168.299C144.538 178.027 136.069 192.452 136.069 192.452L127.738 187.035C127.738 187.035 138.707 156.618 140.795 148.176C142.883 139.734 143.71 135.683 149.68 133.047C155.65 130.411 168.707 127.06 168.707 127.06H189.816Z" fill="#263238"/>
<path d="M132.881 190.862L131.893 192.377L129.719 195.723L125.549 193.295L127.733 189.901L128.582 188.588L132.881 190.862Z" fill="#B55B52"/>
<path opacity="0.2" d="M132.88 190.862L131.892 192.377L127.732 189.901L128.581 188.588L132.88 190.862Z" fill="black"/>
<path d="M138.237 189.645L127.316 183.113L125.549 187.473L135.914 193.455L138.237 189.645Z" fill="#3CCFFE"/>
<path d="M122.692 193.455C122.692 193.455 123.487 190.723 122.596 190.67C121.704 190.616 122.692 193.455 122.692 193.455Z" stroke="#3CCFFE" stroke-width="0.94" stroke-miterlimit="10"/>
<path d="M122.483 193.354C122.483 193.354 121.25 190.387 120.257 191.048C119.263 191.71 122.483 193.354 122.483 193.354Z" stroke="#3CCFFE" stroke-width="0.94" stroke-miterlimit="10"/>
<path d="M126.088 192.996L129.729 195.131C129.985 195.281 130.175 195.523 130.259 195.807C130.343 196.091 130.316 196.397 130.183 196.662L128.533 200.008C128.46 200.155 128.358 200.284 128.232 200.389C128.106 200.493 127.96 200.57 127.803 200.616C127.646 200.661 127.481 200.673 127.319 200.651C127.157 200.629 127.001 200.574 126.862 200.489C124.902 199.283 120.86 196.812 119.386 196.017C117.399 194.949 114.617 193.391 114.655 192.436C114.662 192.174 114.762 191.923 114.937 191.728C115.112 191.532 115.351 191.405 115.611 191.369C115.611 191.369 121.207 193.941 125.132 192.874C125.291 192.829 125.458 192.818 125.622 192.839C125.786 192.86 125.944 192.913 126.088 192.996Z" fill="#263238"/>
<path d="M156.013 96.4398C156.013 96.4398 154.892 108.682 155.341 111.83C155.341 111.83 143.635 113.543 137.719 112.732L133.756 111.739L128.801 112.951L130.152 116.873H134.114C134.114 116.873 136.998 117.684 138.258 116.873C138.258 116.873 148.164 118.853 154.016 118.223C159.869 117.593 161.684 115.368 161.946 110.933C162.192 106.664 165.006 97.1549 162.758 94.9937L156.013 96.4398Z" fill="#B55B52"/>
<path d="M196.213 97.8165C196.213 97.8165 191.722 86.418 187.354 83.8458C182.986 81.2737 162.758 86.1939 162.758 86.1939C162.758 86.1939 154.081 88.9848 153.584 102.534L161.557 105.912L162.817 127.06H189.816L189.672 99.6683L196.213 97.8165Z" fill="#3CCFFE"/>
<path d="M163.127 63.8555C163.127 63.8555 160.457 63.5193 159.73 61.5182C159.004 59.517 161.792 60.5256 161.557 56.9076C161.322 53.2895 165.482 52.425 168.499 54.0152C171.516 55.6055 176.306 53.8711 178.111 56.0431C179.916 58.215 179.125 60.2375 179.125 60.2375C179.125 60.2375 184.316 66.1075 177.737 70.1151C171.158 74.1228 163.127 63.8555 163.127 63.8555Z" fill="#263238"/>
<path d="M178.827 83.3599C175.943 87.7517 173.348 88.2053 169.871 88.2C165.968 88.2 167.276 85.4304 167.276 85.4304C168.91 84.6139 170.101 83.7387 170.288 81.7269C170.326 81.3368 170.335 80.9444 170.315 80.5529C170.276 79.6471 170.12 78.7502 169.85 77.8847C164.323 78.3863 162.374 75.6915 161.685 70.6059C161.301 67.4778 161.87 64.3066 163.319 61.5073C166.523 65.2748 172.552 62.3238 172.552 62.3238C170.859 67.2173 175.003 68.9729 175.003 68.9729C176.605 67.9697 177.887 68.8449 177.764 70.7927C177.74 71.336 177.554 71.8598 177.229 72.2964C176.905 72.733 176.457 73.0624 175.943 73.2421C175.628 81.9137 178.827 83.3599 178.827 83.3599Z" fill="#B55B52"/>
<path d="M164.841 72.607C164.798 72.6071 164.756 72.5906 164.724 72.5608C164.692 72.531 164.673 72.4903 164.67 72.4469C164.669 72.4245 164.672 72.402 164.679 72.3807C164.686 72.3594 164.698 72.3398 164.713 72.3229C164.728 72.3061 164.746 72.2923 164.766 72.2825C164.786 72.2726 164.808 72.2668 164.83 72.2655C166.764 72.1641 167.5 71.2355 167.527 71.2249C167.541 71.2075 167.558 71.193 167.577 71.1823C167.596 71.1715 167.617 71.1647 167.639 71.1622C167.661 71.1597 167.683 71.1616 167.704 71.1678C167.725 71.174 167.745 71.1843 167.762 71.1982C167.78 71.2118 167.795 71.2288 167.806 71.2483C167.818 71.2678 167.825 71.2893 167.828 71.3116C167.831 71.3339 167.83 71.3566 167.824 71.3783C167.818 71.4001 167.808 71.4205 167.794 71.4383C167.762 71.481 166.95 72.5056 164.852 72.607H164.841Z" fill="#263238"/>
<path d="M164.841 70.5048L164.526 67.2656L163.127 70.2113C163.362 70.4052 163.644 70.5342 163.945 70.5857C164.246 70.6372 164.555 70.6093 164.841 70.5048Z" fill="#A02724"/>
<path d="M166.998 67.2657C166.998 67.6713 167.185 68.0021 167.42 68.0021C167.655 68.0021 167.842 67.6713 167.842 67.2657C167.842 66.8602 167.655 66.5293 167.42 66.5293C167.185 66.5293 166.998 66.8602 166.998 67.2657Z" fill="#263238"/>
<path d="M162.283 67.2657C162.283 67.6713 162.47 68.0021 162.705 68.0021C162.94 68.0021 163.127 67.6713 163.127 67.2657C163.127 66.8602 162.94 66.5293 162.705 66.5293C162.47 66.5293 162.283 66.8602 162.283 67.2657Z" fill="#263238"/>
<path d="M169.812 65.6377C169.776 65.6386 169.739 65.6303 169.707 65.6135C169.674 65.5967 169.646 65.572 169.625 65.5416C169.599 65.4989 168.899 64.5597 167.276 64.8585C167.246 64.8647 167.216 64.8649 167.186 64.859C167.157 64.8532 167.129 64.8414 167.104 64.8245C167.079 64.8076 167.058 64.7858 167.041 64.7605C167.025 64.7351 167.014 64.7068 167.009 64.6771C166.999 64.6179 167.013 64.5572 167.047 64.5076C167.08 64.458 167.132 64.4231 167.19 64.4103C169.113 64.0581 169.962 65.2268 169.999 65.2801C170.022 65.3144 170.036 65.3543 170.038 65.3955C170.04 65.4367 170.031 65.4778 170.012 65.5145C169.993 65.5511 169.964 65.5819 169.929 65.6035C169.894 65.6252 169.854 65.637 169.812 65.6377Z" fill="#263238"/>
<path d="M161.989 65.3392C161.951 65.3385 161.915 65.3293 161.882 65.3125C161.855 65.299 161.832 65.2803 161.813 65.2577C161.794 65.235 161.779 65.2088 161.77 65.1805C161.761 65.1522 161.758 65.1224 161.761 65.0928C161.763 65.0633 161.772 65.0345 161.786 65.0083C161.966 64.7084 162.231 64.4687 162.548 64.3196C162.864 64.1704 163.218 64.1185 163.564 64.1705C163.594 64.1744 163.622 64.1842 163.648 64.1992C163.674 64.2143 163.696 64.2343 163.714 64.2582C163.732 64.2821 163.745 64.3092 163.752 64.3382C163.759 64.3671 163.761 64.3972 163.756 64.4266C163.753 64.456 163.744 64.4843 163.729 64.51C163.715 64.5358 163.695 64.5583 163.672 64.5762C163.648 64.5942 163.621 64.6072 163.593 64.6145C163.564 64.6218 163.534 64.6232 163.505 64.6187C163.252 64.5807 162.993 64.6169 162.76 64.723C162.527 64.8291 162.329 65.0005 162.192 65.2164C162.171 65.2527 162.142 65.283 162.106 65.3046C162.071 65.3261 162.03 65.338 161.989 65.3392Z" fill="#263238"/>
<path d="M161.626 69.7894C161.127 69.7884 160.639 69.6394 160.224 69.3615C159.809 69.0835 159.487 68.6889 159.296 68.2276C159.106 67.7663 159.057 67.2589 159.155 66.7696C159.253 66.2803 159.494 65.8311 159.847 65.4786C160.201 65.1261 160.651 64.8863 161.14 64.7893C161.63 64.6924 162.138 64.7427 162.599 64.9339C163.06 65.1251 163.454 65.4486 163.732 65.8636C164.009 66.2785 164.157 66.7663 164.157 67.2653C164.157 67.5972 164.092 67.9259 163.964 68.2325C163.837 68.5391 163.651 68.8176 163.415 69.052C163.18 69.2865 162.901 69.4723 162.594 69.5988C162.287 69.7254 161.958 69.7901 161.626 69.7894ZM161.626 65.0774C161.193 65.0774 160.77 65.2057 160.41 65.4461C160.05 65.6865 159.769 66.0282 159.603 66.428C159.437 66.8278 159.394 67.2677 159.479 67.6922C159.563 68.1166 159.772 68.5064 160.078 68.8124C160.384 69.1184 160.774 69.3268 161.199 69.4112C161.624 69.4956 162.064 69.4523 162.464 69.2867C162.864 69.1211 163.206 68.8407 163.446 68.4809C163.687 68.1211 163.815 67.698 163.815 67.2653C163.808 66.6897 163.575 66.14 163.165 65.7354C162.755 65.3309 162.202 65.104 161.626 65.1041V65.0774Z" fill="white"/>
<path d="M167.676 69.7894C167.177 69.7894 166.688 69.6414 166.273 69.364C165.858 69.0867 165.534 68.6925 165.343 68.2313C165.151 67.77 165.101 67.2625 165.199 66.7729C165.296 66.2833 165.537 65.8335 165.89 65.4805C166.243 65.1275 166.693 64.8871 167.183 64.7897C167.673 64.6923 168.181 64.7423 168.643 64.9333C169.104 65.1244 169.499 65.4479 169.776 65.863C170.054 66.2781 170.202 66.7661 170.202 67.2653C170.201 67.9343 169.934 68.5755 169.461 69.0486C168.987 69.5216 168.346 69.788 167.676 69.7894ZM167.676 65.0774C167.243 65.0763 166.819 65.2038 166.458 65.4435C166.098 65.6833 165.816 66.0246 165.65 66.4243C165.483 66.824 165.439 67.2641 165.523 67.6889C165.607 68.1136 165.815 68.504 166.121 68.8105C166.427 69.117 166.817 69.3259 167.242 69.4108C167.667 69.4957 168.107 69.4526 168.507 69.2872C168.908 69.1218 169.25 68.8413 169.491 68.4814C169.732 68.1215 169.86 67.6983 169.86 67.2653C169.852 66.691 169.618 66.143 169.21 65.7388C168.802 65.3347 168.251 65.1068 167.676 65.1041V65.0774Z" fill="white"/>
<path d="M164.156 67.2656H165.128" stroke="white" stroke-width="0.94" stroke-miterlimit="10"/>
<path d="M170.021 67.73L174.758 68.8666" stroke="white" stroke-width="0.94" stroke-linecap="round" stroke-linejoin="round"/>
<path opacity="0.2" d="M171.681 77.3779C171.379 78.489 170.918 79.5511 170.314 80.5317C170.276 79.6259 170.12 78.729 169.85 77.8635L171.681 77.3779Z" fill="black"/>
<path opacity="0.2" d="M161.557 105.912V102.534L160.189 105.335L161.557 105.912Z" fill="black"/>
<path opacity="0.2" d="M183.841 101.402L182.8 95.3242L182.506 101.941L183.841 101.402Z" fill="black"/>
<path d="M191.289 114.157C191.225 118.602 189.222 120.816 183.364 121.446C177.506 122.076 167.606 120.096 167.606 120.096C166.346 120.907 163.462 120.096 163.462 120.096H159.5L158.154 116.174L163.104 114.968L167.067 115.955C173.01 116.766 184.715 115.058 184.715 115.058C184.379 112.7 184 104.999 183.84 101.403L190.824 99.3374C191.513 104.06 191.348 110.325 191.289 114.157Z" fill="#B55B52"/>
<path d="M87.9876 90.9431L92.7135 115.016C92.8183 115.537 93.1005 116.007 93.5122 116.344C93.9239 116.682 94.4398 116.867 94.9723 116.867H134.985C135.321 116.867 135.652 116.793 135.957 116.651C136.261 116.509 136.53 116.302 136.745 116.044C136.961 115.787 137.117 115.485 137.203 115.161C137.289 114.837 137.303 114.497 137.244 114.167L132.972 90.0946C132.878 89.5641 132.6 89.0835 132.187 88.7372C131.774 88.3908 131.252 88.2007 130.713 88.2002H90.2464C89.9063 88.1992 89.5701 88.2737 89.2623 88.4184C88.9545 88.563 88.6827 88.7742 88.4666 89.0367C88.2504 89.2992 88.0953 89.6064 88.0125 89.9361C87.9296 90.2658 87.9212 90.6097 87.9876 90.9431Z" fill="#3CCFFE"/>
<path opacity="0.2" d="M131.295 88.2002L136.293 116.867C136.469 116.868 136.642 116.83 136.801 116.756C136.96 116.682 137.101 116.574 137.214 116.439C137.326 116.305 137.408 116.147 137.453 115.978C137.498 115.808 137.505 115.631 137.473 115.459L132.79 89.1874C132.741 88.9104 132.596 88.6595 132.38 88.479C132.164 88.2984 131.891 88.1997 131.61 88.2002H131.295Z" fill="black"/>
<path d="M93.1836 119.167H154.722C154.722 118.865 154.663 118.566 154.548 118.286C154.433 118.007 154.263 117.753 154.049 117.539C153.835 117.326 153.581 117.156 153.302 117.041C153.022 116.925 152.723 116.866 152.42 116.867H95.4958C95.1929 116.866 94.8928 116.925 94.6126 117.041C94.3324 117.156 94.0777 117.325 93.863 117.539C93.6483 117.752 93.4778 118.006 93.3612 118.285C93.2447 118.565 93.1843 118.864 93.1836 119.167Z" fill="#3CCFFE"/>
<path opacity="0.2" d="M134.393 119.167H154.722C154.723 118.865 154.664 118.566 154.548 118.286C154.433 118.007 154.263 117.753 154.049 117.539C153.836 117.326 153.582 117.156 153.302 117.041C153.022 116.925 152.723 116.866 152.42 116.867H136.705C136.402 116.866 136.102 116.925 135.822 117.041C135.541 117.156 135.287 117.325 135.072 117.539C134.857 117.752 134.687 118.006 134.57 118.285C134.454 118.565 134.393 118.864 134.393 119.167Z" fill="black"/>
<path opacity="0.4" d="M107.724 103.43C108.156 106.424 110.228 108.607 112.354 108.303C114.479 107.998 115.851 105.319 115.424 102.326C114.997 99.332 112.92 97.1494 110.794 97.4536C108.669 97.7578 107.291 100.431 107.724 103.43Z" fill="white"/>
<path opacity="0.2" d="M93.1836 119.167H154.722C154.722 118.865 154.663 118.566 154.548 118.286C154.433 118.007 154.263 117.753 154.049 117.539C153.835 117.326 153.581 117.156 153.302 117.041C153.022 116.925 152.723 116.866 152.42 116.867H95.4958C95.1929 116.866 94.8928 116.925 94.6126 117.041C94.3324 117.156 94.0777 117.325 93.863 117.539C93.6483 117.752 93.4778 118.006 93.3612 118.285C93.2447 118.565 93.1843 118.864 93.1836 119.167Z" fill="black"/>
<path d="M67.9785 122.145H174.245C174.245 121.138 173.844 120.171 173.131 119.459C172.418 118.746 171.451 118.346 170.442 118.346H71.7859C70.7771 118.346 69.8094 118.746 69.0956 119.458C68.3817 120.171 67.9799 121.137 67.9785 122.145Z" fill="#263238"/>
</svg>
