<svg width="321" height="311" viewBox="0 0 321 311" fill="none" xmlns="http://www.w3.org/2000/svg">
<path d="M131.813 263.32C86.9826 221.491 31.1042 134.239 59.5459 86.5982C87.9876 38.957 129.639 49.1001 224.565 72.6273C276.343 85.4598 311.602 138.809 283.16 186.45C254.719 234.091 183.739 311.769 131.813 263.32Z" fill="#4A6EE2" fill-opacity="0.15"/>
<g opacity="0.2">
<path opacity="0.2" d="M86.373 222.45L152.899 261.094C157.103 263.528 165.552 263.106 169.797 260.712C199.187 243.733 285.809 193.201 285.809 193.201C290.054 190.726 290.074 186.763 285.809 184.329L218.579 145.263L86.373 222.45Z" fill="black"/>
</g>
<path d="M94.0399 215.832C94.9653 219.292 154.51 250.975 154.51 250.975C158.353 253.229 166.077 252.866 169.96 250.613C196.876 235.083 275.512 189.197 275.512 189.197C279.374 186.964 280.541 181.151 276.719 178.918L214.739 144.941C214.739 144.941 85.3294 183.404 94.0399 215.832Z" fill="#41C0FD"/>
<path d="M93.6973 213.095L154.59 248.501C158.432 250.713 166.157 250.392 170.04 248.138C196.956 232.588 276.255 186.32 276.255 186.32C280.138 184.047 280.178 180.446 276.255 178.274L214.739 142.426L93.6973 213.095Z" fill="#8FEDFF"/>
<path d="M77.6239 128.324C77.6767 127.857 77.7574 127.394 77.8653 126.936C77.8653 126.816 77.8653 126.675 77.8653 126.534C77.9853 126.063 78.1331 125.599 78.3079 125.146V124.925C78.4889 124.542 78.67 124.14 78.8712 123.778C79.0723 123.416 79.0522 123.436 79.1729 123.255C79.3577 122.951 79.5662 122.661 79.7965 122.39L79.9575 122.148C80.2276 121.792 80.5307 121.462 80.8627 121.163L81.1242 120.941C81.4675 120.64 81.8379 120.37 82.2306 120.137L189.331 58.4392C189.726 58.2128 190.144 58.0306 190.579 57.8961L191.001 57.7955C191.184 57.7361 191.373 57.6956 191.564 57.6748H192.449C192.715 57.6839 192.978 57.7244 193.234 57.7955L190.176 57.0512C190.003 57.0207 189.826 57.0207 189.653 57.0512H188.587H188.044H187.762C187.737 57.0401 187.71 57.0344 187.682 57.0344C187.654 57.0344 187.627 57.0401 187.601 57.0512C187.156 57.1535 186.728 57.3231 186.334 57.5541L79.3942 119.312C78.9977 119.53 78.6323 119.801 78.3079 120.117L78.0866 120.278C77.7509 120.6 77.4351 120.943 77.1411 121.304C77.0876 121.366 77.0404 121.433 77.0003 121.505C76.8796 121.646 76.7388 121.786 76.6181 121.947C76.5431 122.115 76.4557 122.276 76.3566 122.43L76.0548 122.933L75.914 123.174C75.7626 123.496 75.6283 123.825 75.5117 124.16V124.261C75.352 124.616 75.2306 124.986 75.1496 125.367C75.1496 125.488 75.1496 125.629 75.1496 125.729C75.1404 125.836 75.1404 125.944 75.1496 126.051C75.1066 126.189 75.073 126.331 75.049 126.474C74.981 126.799 74.934 127.128 74.9082 127.459C74.9172 127.512 74.9172 127.567 74.9082 127.62C74.9082 128.083 74.9082 128.566 74.9082 129.048C74.9102 129.082 74.9102 129.116 74.9082 129.149C74.9391 129.751 75.0198 130.35 75.1496 130.939L94.0391 215.831L96.614 217.32L77.7245 131.865C77.5989 131.262 77.5249 130.65 77.5032 130.034C77.5032 129.531 77.5032 128.988 77.5032 128.465C77.5557 128.43 77.5974 128.381 77.6239 128.324Z" fill="#41C0FD"/>
<path d="M189.331 58.4401C192.791 56.4284 196.453 58.4401 197.378 62.8255L214.739 142.427L96.0508 214.505L77.805 131.866C77.3284 129.676 77.5096 127.395 78.3256 125.308C79.1417 123.222 80.5563 121.423 82.3916 120.138L189.331 58.4401Z" fill="#C5F9FF"/>
<path d="M81.9883 134.198L195.064 69.6641L210.071 138.06L98.4839 206.517L81.9883 134.198Z" fill="url(#paint0_linear)"/>
<path d="M254.97 174.532L147.125 236.773L111.156 215.852L218.961 153.591L254.97 174.532ZM172.753 218.789L223.045 189.821L218.197 187.004L167.905 215.972L172.733 218.789H172.753ZM204.678 179.139L200.233 181.714L205.081 184.53L209.526 181.955L204.678 179.139ZM220.329 175.719L224.795 173.104L219.947 170.267L215.501 172.842L220.349 175.659L220.329 175.719ZM159.315 210.943L163.761 208.368L158.913 205.552L154.467 208.127L159.315 210.943ZM174.161 196.741L169.756 199.255L174.604 202.092L179.05 199.497L174.202 196.681L174.161 196.741ZM144.127 219.754L148.553 217.179L143.705 214.363L139.279 216.938L144.127 219.754ZM194.318 190.766L189.45 187.95L185.024 190.525L189.893 193.341L194.318 190.766ZM194.56 185.013L190.094 187.588L194.942 190.384L199.388 187.809L194.56 185.013ZM133.948 225.608L138.394 223.053L133.526 220.237L129.08 222.812L133.948 225.608ZM225.479 172.802L229.884 170.207L225.036 167.391L220.611 169.986L225.479 172.802ZM179.211 193.824L174.785 196.399L179.613 199.195L184.079 196.62L179.211 193.824ZM210.15 181.573L214.576 179.018L209.728 176.202L205.282 178.777L210.15 181.573ZM163.882 202.635L159.456 205.19L164.304 208.006L168.75 205.431L163.882 202.635ZM149.056 216.717L153.502 214.162L148.633 211.366L144.329 214.001L149.197 216.797L149.056 216.717ZM157.424 227.479L161.85 224.924L157.042 222.108L152.576 224.683L157.424 227.479ZM226.947 179.541L231.413 176.966L226.565 174.15L222.119 176.745L226.947 179.541ZM180.961 200.664L176.515 203.279L181.343 206.075L185.789 203.52L180.981 200.704L180.961 200.664ZM198 175.236L193.554 177.811L198.382 180.607L202.828 178.032L198 175.236ZM213.63 171.776L218.076 169.221L213.248 166.425L208.802 169.081L213.63 171.877V171.776ZM191.743 194.428L196.632 197.244L201.098 194.669L196.249 191.873L191.784 194.428H191.743ZM187.559 186.844L182.731 184.027L178.285 186.602L183.133 189.418L187.559 186.844ZM211.458 183.042L207.012 185.616L211.84 188.433L216.306 185.858L211.458 183.042ZM233.807 183.544L238.273 180.97L233.425 178.173L228.979 180.728L233.807 183.544ZM167.422 192.838L162.977 195.413L167.845 198.23L172.27 195.634L167.422 192.838ZM150.806 223.657L155.232 221.102L150.404 218.266L145.958 220.861L150.806 223.657ZM166.034 214.846L170.5 212.291L165.652 209.475L161.206 212.05L166.034 214.846ZM152.576 207.02L157.022 204.466L152.174 201.649L147.768 204.204L152.576 207.02ZM137.328 215.832L141.754 213.257L136.946 210.46L132.48 213.035L137.328 215.832ZM187.821 181.151L183.375 183.725L188.203 186.542L192.649 183.987L187.821 181.151ZM155.916 220.8L160.361 218.205L155.533 215.409L151.068 217.964L155.916 220.8ZM142.458 212.975L146.903 210.4L142.055 207.584L137.61 210.159L142.458 212.975ZM186.03 197.807L181.564 200.362L186.412 203.178L190.858 200.583L186.03 197.807ZM203.451 177.69L207.917 175.136L203.069 172.339L198.643 174.854L203.471 177.67L203.451 177.69ZM172.492 189.901L168.046 192.496L172.874 195.293L177.32 192.718L172.492 189.901ZM216.849 185.496L221.295 182.941L216.467 180.125L212.001 182.7L216.849 185.496ZM201.218 188.936L196.752 191.511L201.58 194.307L206.046 191.732L201.218 188.936ZM223.548 189.418L228.014 186.844L223.206 184.027L218.76 186.602L223.568 189.418H223.548ZM170.701 206.538L166.235 209.113L171.084 211.909L175.529 209.334L170.701 206.538ZM157.223 198.712L152.858 201.267L157.686 204.104L162.152 201.529L157.304 198.712H157.223ZM147.366 233.454L151.832 230.859L147.024 228.062L142.538 230.617L147.366 233.454ZM238.877 180.607L243.342 178.053L238.494 175.236L234.049 177.811L238.877 180.607ZM232.158 176.685L236.603 174.13L231.775 171.293L227.309 173.888L232.158 176.685ZM140.647 229.531L145.093 226.956L140.245 224.14L135.819 226.715L140.647 229.531ZM218.76 168.879L223.226 166.304L218.378 163.488L213.932 166.043L218.76 168.879ZM162.635 224.643L167.121 222.048L162.252 219.251L157.807 221.826L162.635 224.643ZM127.189 221.706L131.655 219.151L126.827 216.334L122.361 218.909L127.189 221.706ZM230.548 169.845L234.974 167.27L230.146 164.454L225.68 167.069L230.548 169.885V169.845ZM169.112 199.698L164.707 202.253L169.535 205.049L173.96 202.514L169.112 199.698ZM154.286 213.78L158.712 211.225L153.864 208.409L149.418 210.963L154.286 213.78ZM215.3 178.556L219.725 176.001L214.877 173.184L210.432 175.759L215.3 178.556ZM199.629 181.995L195.183 184.55L200.051 187.387L204.477 184.812L199.629 181.995ZM139.038 222.571L143.464 220.036L138.636 217.22L134.27 219.855L139.118 222.651L139.038 222.571ZM189.229 193.643L184.361 190.807L179.955 193.361L184.783 196.178L189.229 193.643ZM132.259 218.748L136.664 216.194L131.896 213.337L127.451 215.872L132.299 218.688L132.259 218.748ZM237.227 173.748L241.653 171.193L236.825 168.397L232.379 170.951L237.227 173.748ZM145.696 226.594L150.142 224.039L145.314 221.223L140.868 223.778L145.696 226.594ZM206.328 185.979L201.882 188.574L206.71 191.39L211.176 188.815L206.328 185.979ZM208.5 174.733L212.946 172.158L208.098 169.362L203.693 171.937L208.5 174.733ZM192.85 178.173L188.424 180.728L193.232 183.544L197.678 180.99L192.85 178.173ZM167.684 221.706L172.13 219.151L167.302 216.334L162.876 218.909L167.684 221.706ZM243.946 177.67L248.392 175.116L243.544 172.319L239.138 174.854L243.946 177.67ZM160.945 217.783L165.411 215.228L160.563 212.412L156.137 214.967L160.945 217.783ZM221.958 182.579L226.424 180.004L221.576 177.188L217.13 179.742L221.958 182.579ZM147.527 209.958L151.973 207.403L147.105 204.586L142.679 207.161L147.527 209.958ZM152.375 230.497L156.841 227.922L152.013 225.105L147.587 227.68L152.375 230.497ZM162.433 195.775L158.028 198.35L162.856 201.146L167.282 198.572L162.433 195.775ZM228.818 186.461L233.244 183.927L228.396 181.11L223.97 183.665L228.818 186.461ZM182.55 189.781L177.722 186.964L173.296 189.539L178.124 192.355L182.55 189.781ZM186.754 197.344L191.582 200.181L196.008 197.606L191.2 194.81L186.754 197.344ZM223.87 165.942L228.335 163.347L223.487 160.571L219.062 163.126L223.87 165.942ZM175.932 203.601L171.486 206.155L176.334 208.992L180.76 206.417L175.932 203.601ZM180.538 178.777L176.113 181.372L179.452 183.383L183.898 180.809L180.538 178.797V178.777ZM148.352 197.344L143.886 199.919L147.245 201.931L151.711 199.376L148.352 197.365V197.344ZM211.035 161.135L206.61 163.689L209.969 165.701L214.415 163.126L211.035 161.114V161.135ZM192.407 171.897L187.961 174.472L191.361 176.483L195.767 173.929L192.407 171.917V171.897ZM199.186 167.974L194.62 170.609L198 172.621L202.445 170.046L199.086 168.035L199.186 167.974ZM129.704 208.087L125.278 210.662L128.617 212.673L133.083 210.098L129.704 208.087ZM122.945 212.11L118.479 214.665L121.838 216.676L126.264 214.102L122.945 212.09V212.11ZM140.486 205.854L144.912 203.299L141.552 201.287L137.127 203.862L140.486 205.874V205.854ZM216.748 161.778L221.174 159.203L217.794 157.192L213.389 159.746L216.748 161.758V161.778ZM173.759 182.7L169.333 185.254L172.673 187.266L177.119 184.691L173.759 182.679V182.7Z" fill="#41C0FD"/>
<path d="M183.377 183.665L188.205 186.481L192.651 183.927L187.823 181.11L183.377 183.665Z" fill="#8FEDFF"/>
<path d="M218.982 163.126L223.79 165.942L228.256 163.347L223.408 160.571L218.982 163.126Z" fill="#8FEDFF"/>
<path d="M198.625 174.854L203.453 177.67L207.919 175.115L203.071 172.319L198.625 174.854Z" fill="#8FEDFF"/>
<path d="M212.082 182.7L216.93 185.497L221.376 182.942L216.548 180.125L212.082 182.7Z" fill="#8FEDFF"/>
<path d="M213.289 159.826L216.649 161.778L221.074 159.203L217.695 157.271L213.289 159.826Z" fill="#8FEDFF"/>
<path d="M206.512 163.729L209.851 165.701L214.317 163.126L210.937 161.154L206.512 163.729Z" fill="#8FEDFF"/>
<path d="M213.871 166.044L218.699 168.88L223.165 166.305L218.317 163.489L213.871 166.044Z" fill="#8FEDFF"/>
<path d="M225.682 167.029L230.55 169.845L234.975 167.27L230.148 164.454L225.682 167.029Z" fill="#8FEDFF"/>
<path d="M208.801 168.98L213.629 171.776L218.075 169.222L213.247 166.425L208.801 168.98Z" fill="#8FEDFF"/>
<path d="M194.621 170.61L198.001 172.561L202.446 169.987L199.087 168.015L194.621 170.61Z" fill="#8FEDFF"/>
<path d="M220.613 169.986L225.481 172.802L229.887 170.207L225.039 167.391L220.613 169.986Z" fill="#8FEDFF"/>
<path d="M232.42 170.952L237.268 173.748L241.694 171.193L236.866 168.397L232.42 170.952Z" fill="#8FEDFF"/>
<path d="M203.732 171.938L208.54 174.734L212.986 172.159L208.138 169.363L203.732 171.938Z" fill="#8FEDFF"/>
<path d="M215.521 172.903L220.37 175.719L224.815 173.165L219.967 170.328L215.521 172.903Z" fill="#8FEDFF"/>
<path d="M187.861 174.512L191.261 176.443L195.667 173.888L192.307 171.937L187.861 174.512Z" fill="#8FEDFF"/>
<path d="M227.33 173.889L232.178 176.685L236.624 174.13L231.796 171.294L227.33 173.889Z" fill="#8FEDFF"/>
<path d="M239.178 174.854L243.986 177.67L248.431 175.115L243.583 172.319L239.178 174.854Z" fill="#8FEDFF"/>
<path d="M210.432 175.84L215.3 178.636L219.725 176.081L214.877 173.265L210.432 175.84Z" fill="#8FEDFF"/>
<path d="M222.264 176.826L227.092 179.622L231.537 177.047L226.709 174.23L222.264 176.826Z" fill="#8FEDFF"/>
<path d="M193.555 177.811L198.383 180.607L202.808 178.032L198 175.236L193.555 177.811Z" fill="#8FEDFF"/>
<path d="M205.344 178.777L210.212 181.573L214.638 179.018L209.789 176.202L205.344 178.777Z" fill="#8FEDFF"/>
<path d="M217.193 179.742L222.001 182.578L226.467 180.003L221.619 177.187L217.193 179.742Z" fill="#8FEDFF"/>
<path d="M176.014 181.351L179.353 183.302L183.799 180.727L180.439 178.776L176.014 181.351Z" fill="#8FEDFF"/>
<path d="M188.465 180.728L193.273 183.544L197.718 180.99L192.89 178.173L188.465 180.728Z" fill="#8FEDFF"/>
<path d="M200.273 181.714L205.122 184.53L209.567 181.955L204.719 179.139L200.273 181.714Z" fill="#8FEDFF"/>
<path d="M223.91 183.665L228.758 186.461L233.184 183.927L228.336 181.11L223.91 183.665Z" fill="#8FEDFF"/>
<path d="M169.232 185.254L172.572 187.225L177.018 184.651L173.658 182.699L169.232 185.254Z" fill="#8FEDFF"/>
<path d="M195.184 184.63L200.052 187.467L204.477 184.892L199.629 182.076L195.184 184.63Z" fill="#8FEDFF"/>
<path d="M207.014 185.616L211.842 188.432L216.308 185.857L211.459 183.041L207.014 185.616Z" fill="#8FEDFF"/>
<path d="M178.285 186.602L183.133 189.418L187.559 186.843L182.731 184.047L178.285 186.602Z" fill="#8FEDFF"/>
<path d="M218.82 186.602L223.628 189.418L228.094 186.843L223.286 184.047L218.82 186.602Z" fill="#8FEDFF"/>
<path d="M201.922 188.573L206.75 191.389L211.216 188.814L206.368 185.978L201.922 188.573Z" fill="#8FEDFF"/>
<path d="M173.217 189.539L178.045 192.356L182.491 189.781L177.642 186.964L173.217 189.539Z" fill="#8FEDFF"/>
<path d="M185.025 190.525L189.894 193.341L194.319 190.766L189.451 187.95L185.025 190.525Z" fill="#8FEDFF"/>
<path d="M196.834 191.511L201.662 194.307L206.128 191.732L201.3 188.936L196.834 191.511Z" fill="#8FEDFF"/>
<path d="M168.129 192.496L172.957 195.293L177.403 192.718L172.575 189.901L168.129 192.496Z" fill="#8FEDFF"/>
<path d="M179.953 193.441L184.781 196.257L189.227 193.723L184.359 190.886L179.953 193.441Z" fill="#8FEDFF"/>
<path d="M191.744 194.427L196.592 197.243L201.058 194.668L196.21 191.852L191.744 194.427Z" fill="#8FEDFF"/>
<path d="M163.018 195.413L167.886 198.23L172.311 195.635L167.463 192.838L163.018 195.413Z" fill="#8FEDFF"/>
<path d="M174.846 196.378L179.674 199.194L184.119 196.619L179.271 193.823L174.846 196.378Z" fill="#8FEDFF"/>
<path d="M186.674 197.343L191.502 200.2L195.927 197.605L191.12 194.789L186.674 197.343Z" fill="#8FEDFF"/>
<path d="M157.969 198.35L162.797 201.146L167.222 198.571L162.374 195.775L157.969 198.35Z" fill="#8FEDFF"/>
<path d="M143.785 199.919L147.145 201.89L151.611 199.315L148.251 197.344L143.785 199.919Z" fill="#8FEDFF"/>
<path d="M169.758 199.315L174.606 202.152L179.052 199.557L174.204 196.74L169.758 199.315Z" fill="#8FEDFF"/>
<path d="M181.566 200.301L186.415 203.118L190.86 200.523L186.032 197.747L181.566 200.301Z" fill="#8FEDFF"/>
<path d="M152.859 201.267L157.687 204.104L162.153 201.529L157.305 198.712L152.859 201.267Z" fill="#8FEDFF"/>
<path d="M164.705 202.254L169.533 205.05L173.959 202.515L169.111 199.699L164.705 202.254Z" fill="#8FEDFF"/>
<path d="M137.027 203.842L140.387 205.793L144.812 203.238L141.453 201.267L137.027 203.842Z" fill="#8FEDFF"/>
<path d="M176.496 203.239L181.324 206.035L185.77 203.48L180.962 200.664L176.496 203.239Z" fill="#8FEDFF"/>
<path d="M147.811 204.204L152.618 207.02L157.064 204.465L152.216 201.649L147.811 204.204Z" fill="#8FEDFF"/>
<path d="M159.598 205.19L164.446 208.006L168.892 205.431L164.023 202.635L159.598 205.19Z" fill="#8FEDFF"/>
<path d="M171.404 206.176L176.252 208.992L180.678 206.417L175.85 203.601L171.404 206.176Z" fill="#8FEDFF"/>
<path d="M142.699 207.161L147.547 209.957L151.993 207.402L147.125 204.586L142.699 207.161Z" fill="#8FEDFF"/>
<path d="M154.508 208.126L159.356 210.943L163.802 208.368L158.954 205.551L154.508 208.126Z" fill="#8FEDFF"/>
<path d="M166.336 209.113L171.164 211.909L175.61 209.334L170.782 206.538L166.336 209.113Z" fill="#8FEDFF"/>
<path d="M125.178 210.702L128.517 212.654L132.983 210.079L129.603 208.127L125.178 210.702Z" fill="#8FEDFF"/>
<path d="M137.611 210.098L142.459 212.914L146.905 210.339L142.057 207.503L137.611 210.098Z" fill="#8FEDFF"/>
<path d="M149.418 211.044L154.286 213.86L158.712 211.305L153.864 208.489L149.418 211.044Z" fill="#8FEDFF"/>
<path d="M132.52 213.035L137.368 215.832L141.793 213.257L136.985 210.44L132.52 213.035Z" fill="#8FEDFF"/>
<path d="M118.379 214.604L121.738 216.576L126.164 214.001L122.845 212.049L118.379 214.604Z" fill="#8FEDFF"/>
<path d="M144.33 214.001L149.198 216.797L153.644 214.242L148.776 211.446L144.33 214.001Z" fill="#8FEDFF"/>
<path d="M156.178 214.966L160.986 217.783L165.451 215.228L160.603 212.412L156.178 214.966Z" fill="#8FEDFF"/>
<path d="M127.451 215.931L132.299 218.748L136.705 216.193L131.897 213.396L127.451 215.931Z" fill="#8FEDFF"/>
<path d="M167.986 215.932L172.814 218.749L223.025 189.781L218.177 186.964L167.986 215.932Z" fill="#8FEDFF"/>
<path d="M139.281 216.938L144.129 219.754L148.555 217.179L143.707 214.363L139.281 216.938Z" fill="#8FEDFF"/>
<path d="M151.068 217.903L155.916 220.739L160.362 218.144L155.534 215.348L151.068 217.903Z" fill="#8FEDFF"/>
<path d="M122.363 218.909L127.191 221.706L131.657 219.151L126.829 216.334L122.363 218.909Z" fill="#8FEDFF"/>
<path d="M162.918 218.909L167.726 221.706L172.172 219.151L167.344 216.334L162.918 218.909Z" fill="#8FEDFF"/>
<path d="M134.211 219.855L139.039 222.651L143.465 220.117L138.637 217.3L134.211 219.855Z" fill="#8FEDFF"/>
<path d="M146 220.861L150.848 223.657L155.274 221.102L150.446 218.266L146 220.861Z" fill="#8FEDFF"/>
<path d="M157.807 221.826L162.635 224.643L167.101 222.048L162.252 219.251L157.807 221.826Z" fill="#8FEDFF"/>
<path d="M129.082 222.813L133.95 225.609L138.396 223.054L133.528 220.238L129.082 222.813Z" fill="#8FEDFF"/>
<path d="M140.908 223.777L145.736 226.594L150.182 224.039L145.354 221.223L140.908 223.777Z" fill="#8FEDFF"/>
<path d="M152.738 224.763L157.566 227.559L161.992 225.004L157.184 222.188L152.738 224.763Z" fill="#8FEDFF"/>
<path d="M135.84 226.715L140.668 229.531L145.114 226.956L140.265 224.14L135.84 226.715Z" fill="#8FEDFF"/>
<path d="M147.67 227.68L152.458 230.497L156.924 227.922L152.096 225.105L147.67 227.68Z" fill="#8FEDFF"/>
<path d="M142.537 230.617L147.365 233.453L151.831 230.858L147.023 228.062L142.537 230.617Z" fill="#8FEDFF"/>
<path d="M190.096 187.587L194.944 190.383L199.39 187.808L194.562 185.012L190.096 187.587Z" fill="#8FEDFF"/>
<path d="M161.248 212.05L166.076 214.846L170.542 212.291L165.694 209.475L161.248 212.05Z" fill="#8FEDFF"/>
<path d="M228.959 180.728L233.807 183.544L238.273 180.97L233.425 178.173L228.959 180.728Z" fill="#8FEDFF"/>
<path d="M234.068 177.811L238.896 180.607L243.362 178.052L238.514 175.236L234.068 177.811Z" fill="#8FEDFF"/>
<path d="M197.336 210.34C195.807 211.245 195.767 212.714 197.336 213.599L207.394 219.453C208.266 219.899 209.231 220.132 210.21 220.132C211.19 220.132 212.155 219.899 213.027 219.453L226.766 211.406C227.105 211.291 227.399 211.074 227.607 210.783C227.815 210.493 227.927 210.144 227.927 209.787C227.927 209.429 227.815 209.081 227.607 208.791C227.399 208.5 227.105 208.282 226.766 208.167L216.708 202.273C215.83 201.846 214.867 201.625 213.892 201.625C212.916 201.625 211.953 201.846 211.075 202.273L197.336 210.34Z" fill="#1D8FBC"/>
<path d="M197.336 210.843C195.807 211.728 195.767 213.196 197.336 214.061L207.394 219.935C208.262 220.393 209.229 220.633 210.21 220.633C211.192 220.633 212.158 220.393 213.027 219.935L226.766 212.009C227.1 211.885 227.388 211.661 227.592 211.368C227.795 211.075 227.904 210.727 227.904 210.37C227.904 210.013 227.795 209.665 227.592 209.372C227.388 209.079 227.1 208.855 226.766 208.73L216.708 202.856C215.833 202.419 214.869 202.191 213.892 202.191C212.914 202.191 211.95 202.419 211.075 202.856L197.336 210.843Z" fill="#41C0FD"/>
<path d="M85.7693 148.381L85.8095 159.948L83.1139 161.497L83.0938 149.93L85.7693 148.381Z" fill="#D66767"/>
<path d="M75.07 154.576L75.0901 166.123L72.4146 167.672L72.3945 156.105L75.07 154.576Z" fill="#D66767"/>
<path d="M100.054 140.132L100.095 151.699L97.399 153.248L97.3789 141.681L100.054 140.132Z" fill="#D66767"/>
<path d="M94.6632 136.068L94.7437 161.697L92.0682 163.246L92.0078 137.597L94.6632 136.068Z" fill="#D66767"/>
<path d="M80.3982 144.297L80.4585 169.946L77.783 171.475L77.7227 145.846L80.3982 144.297Z" fill="#D66767"/>
<path d="M90.1964 132.992L90.3171 170.932L87.6416 172.481L87.541 134.521L90.1964 132.992Z" fill="#D66767"/>
<path d="M186.635 89.6396L186.675 101.207L183.98 102.756L183.939 91.1886L186.635 89.6396Z" fill="#D66767"/>
<path d="M175.912 95.8359L175.952 107.403L173.256 108.952L173.236 97.3648L175.912 95.8359Z" fill="#D66767"/>
<path d="M200.916 81.3921L200.936 92.9591L198.261 94.5282L198.221 82.941L200.916 81.3921Z" fill="#D66767"/>
<path d="M195.525 77.3081L195.585 102.957L192.93 104.486L192.85 78.8571L195.525 77.3081Z" fill="#D66767"/>
<path d="M181.244 85.5566L181.324 111.205L178.649 112.734L178.568 87.1056L181.244 85.5566Z" fill="#D66767"/>
<path d="M191.04 74.2505L191.141 112.19L188.505 113.719L188.385 75.7995L191.04 74.2505Z" fill="#D66767"/>
<path d="M206.268 78.8169L206.308 96.7609L203.633 98.3099L203.572 80.3658L206.268 78.8169Z" fill="#D66767"/>
<path d="M220.551 70.5688L220.571 82.1359L217.895 83.6849L217.875 72.1178L220.551 70.5688Z" fill="#D66767"/>
<path d="M215.158 66.4854L215.218 92.134L212.563 93.683L212.482 68.0343L215.158 66.4854Z" fill="#D66767"/>
<path d="M210.694 63.4087L210.795 101.369L208.14 102.898L208.039 64.9577L210.694 63.4087Z" fill="#D66767"/>
<path d="M110.714 123.698L110.794 145.524L108.119 147.053L108.059 125.247L110.714 123.698Z" fill="#D66767"/>
<path d="M125.039 125.709L125.099 147.757L122.424 149.306L122.363 127.258L125.039 125.709Z" fill="#D66767"/>
<path d="M119.668 121.625L119.748 147.274L117.053 148.823L116.992 123.174L119.668 121.625Z" fill="#D66767"/>
<path d="M135.719 106.7L135.779 131.081L133.104 132.63L133.023 108.249L135.719 106.7Z" fill="#D66767"/>
<path d="M130.389 115.429L130.449 141.078L127.774 142.627L127.693 116.978L130.389 115.429Z" fill="#D66767"/>
<path d="M105.384 129.873L105.465 155.502L102.769 157.071L102.709 131.422L105.384 129.873Z" fill="#D66767"/>
<path d="M115.18 118.547L115.301 156.507L112.646 158.036L112.545 120.096L115.18 118.547Z" fill="#D66767"/>
<path d="M146.461 113.337L146.501 124.904L143.825 126.453L143.785 114.886L146.461 113.337Z" fill="#D66767"/>
<path d="M160.746 105.09L160.806 127.138L158.131 128.687L158.07 106.659L160.746 105.09Z" fill="#D66767"/>
<path d="M155.355 101.026L155.435 126.654L152.78 128.203L152.699 102.555L155.355 101.026Z" fill="#D66767"/>
<path d="M171.447 98.9136L171.487 110.481L168.812 112.009L168.771 100.463L171.447 98.9136Z" fill="#D66767"/>
<path d="M166.115 107.644L166.155 120.478L163.46 122.027L163.439 109.193L166.115 107.644Z" fill="#D66767"/>
<path d="M141.092 109.253L141.152 134.902L138.496 136.451L138.416 110.802L141.092 109.253Z" fill="#D66767"/>
<path d="M150.888 97.9482L150.988 135.888L148.333 137.437L148.232 99.4771L150.888 97.9482Z" fill="#D66767"/>
<path d="M204.036 145.846C203.497 146.169 202.998 146.554 202.548 146.993C199.188 150.131 197.378 160.109 192.731 162.785C188.084 165.46 188.305 154.476 186.817 146.188C186.032 141.803 183.176 141.159 180.359 142.789C177.33 144.845 175.177 147.959 174.324 151.519C172.071 159.988 172.936 173.969 163.381 179.683L211.661 151.982C209.388 146.269 206.994 144.137 204.036 145.846Z" fill="url(#paint1_linear)"/>
<path d="M153.242 140.516C152.733 140.018 152.073 139.705 151.366 139.625C150.66 139.545 149.946 139.702 149.339 140.073C143.526 143.433 138.537 163.71 137.269 180.025C136.304 191.873 132.683 197.325 129.223 199.276L162.797 180.045C155.515 183.706 160.544 146.571 153.242 140.516Z" fill="url(#paint2_linear)"/>
<path d="M128.719 154.516C128.195 154.003 127.515 153.679 126.787 153.595C126.058 153.511 125.322 153.672 124.696 154.053C118.661 157.534 113.491 178.555 112.123 195.453C111.117 207.725 107.375 213.377 103.875 215.389L138.657 195.474C131.073 199.255 136.283 160.793 128.719 154.516Z" fill="url(#paint3_linear)"/>
<path d="M219.485 148.964C211.921 152.766 217.131 114.283 209.567 108.007C209.047 107.487 208.367 107.159 207.636 107.075C206.906 106.991 206.168 107.156 205.544 107.544C199.509 111.024 194.339 132.046 192.971 148.924C192.347 156.689 190.617 161.798 188.545 165.017C186.534 160.189 184.14 158.499 181.364 160.109C180.808 160.442 180.288 160.833 179.815 161.275C176.355 164.534 174.464 174.874 169.757 177.65C165.049 180.426 165.17 169.04 163.621 160.451C162.796 155.904 159.859 155.24 156.922 156.93C153.758 159.042 151.504 162.266 150.606 165.963C148.252 174.754 149.157 189.238 139.26 195.252L189.27 166.566C189.281 166.506 189.281 166.445 189.27 166.385L219.485 148.964Z" fill="url(#paint4_linear)"/>
<g style="mix-blend-mode:overlay" opacity="0.8">
<g style="mix-blend-mode:overlay" opacity="0.07">
<path d="M111.156 124.985C111.152 130.26 109.584 135.415 106.651 139.799C103.717 144.183 99.5497 147.599 94.6753 149.615C89.8008 151.63 84.438 152.156 79.265 151.124C74.0919 150.093 69.3408 147.551 65.6124 143.819C61.8839 140.088 59.3453 135.335 58.3177 130.161C57.2901 124.987 57.8195 119.625 59.8391 114.752C61.8586 109.879 65.2775 105.714 69.6637 102.784C74.0499 99.854 79.2064 98.29 84.4812 98.29C87.9859 98.29 91.4562 98.9807 94.6938 100.322C97.9314 101.664 100.873 103.631 103.35 106.11C105.827 108.589 107.792 111.532 109.131 114.771C110.47 118.009 111.158 121.48 111.156 124.985Z" fill="white"/>
</g>
<g style="mix-blend-mode:overlay" opacity="0.13">
<path d="M106.428 125.086C106.428 129.423 105.142 133.664 102.732 137.27C100.321 140.876 96.8956 143.687 92.8878 145.346C88.88 147.005 84.4701 147.438 80.2162 146.59C75.9622 145.742 72.0552 143.652 68.9894 140.583C65.9236 137.515 63.8369 133.606 62.9931 129.351C62.1493 125.096 62.5864 120.687 64.2491 116.681C65.9118 112.674 68.7254 109.251 72.3339 106.844C75.9425 104.437 80.1838 103.155 84.5214 103.159C87.4 103.159 90.2503 103.726 92.9095 104.828C95.5687 105.93 97.9846 107.546 100.019 109.582C102.054 111.619 103.667 114.036 104.767 116.696C105.866 119.356 106.431 122.207 106.428 125.086Z" fill="white"/>
</g>
<g style="mix-blend-mode:overlay" opacity="0.2">
<path d="M101.72 125.186C101.72 128.584 100.713 131.905 98.8252 134.73C96.9375 137.556 94.2544 139.757 91.1152 141.058C87.9761 142.358 84.5218 142.698 81.1893 142.035C77.8568 141.373 74.7957 139.736 72.3931 137.334C69.9905 134.931 68.3543 131.87 67.6914 128.537C67.0286 125.205 67.3688 121.751 68.6691 118.612C69.9693 115.472 72.1713 112.789 74.9965 110.902C77.8216 109.014 81.1431 108.006 84.5409 108.006C86.7977 108.004 89.0328 108.446 91.1184 109.309C93.2039 110.171 95.0988 111.436 96.6946 113.032C98.2904 114.628 99.5557 116.523 100.418 118.608C101.281 120.694 101.723 122.929 101.72 125.186Z" fill="white"/>
</g>
<g style="mix-blend-mode:overlay" opacity="0.27">
<path d="M96.995 125.287C96.9989 127.747 96.2727 130.154 94.9081 132.201C93.5436 134.249 91.6022 135.845 89.3297 136.789C87.0573 137.732 84.5559 137.98 82.1425 137.501C79.729 137.022 77.512 135.838 75.7721 134.098C74.0323 132.358 72.8478 130.141 72.3688 127.728C71.8897 125.314 72.1376 122.813 73.0811 120.54C74.0245 118.268 75.6211 116.326 77.6686 114.962C79.7161 113.597 82.1225 112.871 84.583 112.875C87.8749 112.875 91.0319 114.183 93.3596 116.51C95.6873 118.838 96.995 121.995 96.995 125.287Z" fill="white"/>
</g>
<g style="mix-blend-mode:overlay" opacity="0.33">
<path d="M92.287 125.387C92.291 126.908 91.8437 128.396 91.0017 129.662C90.1598 130.928 88.961 131.916 87.5572 132.501C86.1534 133.086 84.6077 133.241 83.1157 132.947C81.6237 132.652 80.2526 131.922 79.1759 130.848C78.0991 129.774 77.3653 128.405 77.0671 126.914C76.769 125.423 76.92 123.876 77.501 122.471C78.082 121.066 79.067 119.864 80.3311 119.019C81.5953 118.174 83.0818 117.723 84.6025 117.723C85.6107 117.72 86.6095 117.916 87.5417 118.3C88.4739 118.684 89.3212 119.248 90.0351 119.96C90.7489 120.672 91.3152 121.518 91.7017 122.449C92.0881 123.381 92.287 124.379 92.287 125.387Z" fill="white"/>
</g>
<g style="mix-blend-mode:overlay" opacity="0.4">
<path d="M87.5604 125.488C87.5604 126.065 87.3893 126.629 87.0688 127.108C86.7483 127.588 86.2927 127.962 85.7597 128.183C85.2267 128.403 84.6402 128.461 84.0744 128.349C83.5086 128.236 82.9888 127.958 82.5809 127.55C82.173 127.142 81.8952 126.623 81.7826 126.057C81.6701 125.491 81.7278 124.904 81.9486 124.371C82.1694 123.838 82.5432 123.383 83.0229 123.062C83.5026 122.742 84.0666 122.571 84.6435 122.571C85.4171 122.571 86.159 122.878 86.706 123.425C87.253 123.972 87.5604 124.714 87.5604 125.488Z" fill="white"/>
</g>
</g>
<g style="mix-blend-mode:overlay" opacity="0.8">
<g style="mix-blend-mode:overlay" opacity="0.07">
<path d="M215.242 72.6743C218.609 58.3321 209.711 43.9764 195.369 40.6098C181.027 37.2433 166.671 46.1407 163.305 60.4829C159.938 74.8251 168.836 89.1808 183.178 92.5474C197.52 95.9139 211.876 87.0165 215.242 72.6743Z" fill="white"/>
</g>
<g style="mix-blend-mode:overlay" opacity="0.13">
<path d="M211.217 66.6463C211.217 70.9831 209.931 75.2225 207.522 78.8284C205.113 82.4343 201.688 85.2447 197.682 86.9043C193.675 88.5639 189.266 88.9981 185.013 88.1521C180.759 87.306 176.852 85.2177 173.786 82.1511C170.719 79.0846 168.631 75.1775 167.785 70.9241C166.939 66.6707 167.373 62.2619 169.032 58.2552C170.692 54.2486 173.502 50.824 177.108 48.4146C180.714 46.0053 184.954 44.7192 189.29 44.7192C195.106 44.7192 200.683 47.0294 204.795 51.1416C208.907 55.2537 211.217 60.8309 211.217 66.6463Z" fill="white"/>
</g>
<g style="mix-blend-mode:overlay" opacity="0.2">
<path d="M206.488 66.747C206.488 70.1448 205.48 73.4663 203.593 76.2914C201.705 79.1166 199.022 81.3185 195.883 82.6188C192.744 83.9191 189.289 84.2593 185.957 83.5964C182.624 82.9336 179.563 81.2973 177.161 78.8947C174.758 76.4921 173.122 73.431 172.459 70.0985C171.796 66.766 172.136 63.3118 173.437 60.1726C174.737 57.0335 176.939 54.3504 179.764 52.4627C182.589 50.575 185.911 49.5674 189.308 49.5674C193.865 49.5674 198.234 51.3774 201.456 54.5992C204.678 57.821 206.488 62.1907 206.488 66.747Z" fill="white"/>
</g>
<g style="mix-blend-mode:overlay" opacity="0.27">
<path d="M201.761 66.8475C201.761 69.3023 201.033 71.7021 199.67 73.7432C198.306 75.7843 196.367 77.3752 194.099 78.3146C191.831 79.2541 189.336 79.4999 186.928 79.0209C184.52 78.542 182.309 77.3599 180.573 75.6241C178.837 73.8882 177.655 71.6766 177.176 69.269C176.697 66.8613 176.943 64.3656 177.882 62.0977C178.822 59.8297 180.413 57.8912 182.454 56.5274C184.495 55.1635 186.895 54.4355 189.349 54.4355C192.64 54.4409 195.794 55.7503 198.12 58.0768C200.447 60.4033 201.756 63.5573 201.761 66.8475Z" fill="white"/>
</g>
<g style="mix-blend-mode:overlay" opacity="0.33">
<path d="M197.055 66.9481C197.055 68.464 196.606 69.9458 195.764 71.2062C194.922 72.4667 193.725 73.449 192.324 74.0291C190.924 74.6092 189.382 74.761 187.896 74.4653C186.409 74.1695 185.043 73.4396 183.971 72.3677C182.9 71.2958 182.17 69.9301 181.874 68.4434C181.578 66.9566 181.73 65.4156 182.31 64.0151C182.89 62.6146 183.872 61.4176 185.133 60.5754C186.393 59.7332 187.875 59.2837 189.391 59.2837C191.424 59.2837 193.373 60.0912 194.811 61.5285C196.248 62.9659 197.055 64.9154 197.055 66.9481Z" fill="white"/>
</g>
<g style="mix-blend-mode:overlay" opacity="0.4">
<path d="M192.326 67.0491C192.33 67.6269 192.162 68.1928 191.844 68.6751C191.526 69.1575 191.072 69.5345 190.539 69.7583C190.007 69.9822 189.42 70.0428 188.852 69.9325C188.285 69.8223 187.764 69.5461 187.354 69.1389C186.944 68.7318 186.664 68.2121 186.55 67.6458C186.436 67.0794 186.492 66.4919 186.712 65.9577C186.932 65.4235 187.306 64.9668 187.786 64.6454C188.267 64.324 188.831 64.1524 189.409 64.1523C190.179 64.1523 190.918 64.4569 191.465 64.9996C192.011 65.5423 192.321 66.279 192.326 67.0491Z" fill="white"/>
</g>
</g>
<g opacity="0.2">
<path opacity="0.2" d="M218.298 192.698C227.371 197.928 227.431 206.437 218.419 211.668C209.407 216.898 194.722 216.918 185.649 211.668C176.576 206.417 176.516 197.928 185.528 192.698C194.541 187.467 209.226 187.467 218.298 192.698Z" fill="black"/>
</g>
<path d="M195.364 107.805C195.085 106.502 194.68 105.229 194.157 104.003C193.649 103.177 192.972 102.468 192.172 101.92C191.371 101.372 190.465 100.999 189.51 100.825C188.183 100.825 189.108 102.052 190.496 103.44C190.903 103.703 191.234 104.068 191.457 104.498C191.679 104.929 191.785 105.41 191.764 105.894C191.842 107.081 192.127 108.246 192.608 109.334C192.97 110.058 195.364 107.805 195.364 107.805Z" fill="#EFB185"/>
<path d="M192.61 109.194C192.288 108.09 191.807 107.04 191.182 106.076C190.297 105.11 191.182 104.064 190.579 103.44C189.492 102.354 188.708 101.308 189.05 100.946C189.814 101.831 191.323 101.328 192.51 104.104C193.057 105.695 193.382 107.353 193.475 109.033C192.812 109.334 192.61 109.495 192.61 109.194Z" fill="#E6A376"/>
<path d="M217.776 119.895C217.776 119.895 218.038 124.059 212.646 123.295C207.255 122.53 197.418 119.895 195.889 117.541C194.439 114.673 193.241 111.685 192.309 108.61C192.309 108.61 194.924 109.133 195.628 106.94L200.798 114.785C200.798 114.785 217.676 116.998 217.776 119.895Z" fill="#471BCE"/>
<path d="M193.514 108.931C193.514 108.931 190.859 106.296 190.175 105.371C189.491 104.445 189.391 103.52 189.672 103.58C189.954 103.641 192.126 106.216 192.81 105.21C193.173 104.707 193.213 108.469 193.514 108.931Z" fill="#EFB185"/>
<path d="M203.371 201.77C203.371 201.77 205.141 204.606 202.667 205.29C200.192 205.974 200.937 204.425 195.546 205.793C190.154 207.161 190.798 204.123 190.919 203.5C191.039 202.876 193.393 202.011 194.56 201.709C195.727 201.408 200.434 200.301 200.434 200.301L203.331 200.844L203.371 201.77Z" fill="#111114"/>
<path d="M206.69 193.844C206.69 193.844 204.679 194.166 205.141 195.352C205.604 196.539 207.998 198.33 208.32 199.094C209.01 200.375 209.996 201.471 211.196 202.293C212.303 202.474 213.45 202.413 213.208 199.336C212.921 197.809 212.115 196.429 210.928 195.428C209.74 194.428 208.243 193.868 206.69 193.844Z" fill="#111114"/>
<path d="M215.502 141.521C215.502 141.521 219.526 147.555 216.89 157.493C216.89 157.493 212.404 172.641 213.209 175.598C214.014 178.555 217.132 182.257 214.959 191.832C214.225 194.205 213.62 196.615 213.149 199.054C213.008 200.663 210.332 200.804 209.95 199.054C209.105 195.212 209.729 189.519 209.145 186.682C207.254 177.409 206.269 172.601 206.872 166.244C207.476 159.887 206.751 145.624 206.751 145.624C206.751 145.624 213.893 146.348 215.502 141.521Z" fill="#EFB185"/>
<path d="M211.017 145.121C211.017 145.121 214.457 151.418 211.017 161.214C211.017 161.214 205.143 175.859 205.666 178.897C206.189 181.934 208.664 183.906 205.867 195.232C204.883 197.51 204.062 199.856 203.413 202.252C203.132 204.747 200.617 205.048 200.335 203.218C199.792 199.496 200.899 192.395 200.597 189.518C199.571 180.104 199.028 175.195 200.215 168.959C201.402 162.723 202.005 148.42 202.005 148.42C202.005 148.42 208.965 149.788 211.017 145.121Z" fill="#EFB185"/>
<path d="M201.077 124.422C201.077 124.422 212.302 113.398 216.124 116.596C216.124 116.596 219.524 119.211 218.136 128.224C216.748 137.236 214.515 138.865 216.728 144.317C216.728 144.317 212.302 153.148 201.077 149.125C201.077 149.125 202.807 140.193 201.48 137.538C198.18 130.919 197.959 127.479 200.635 124.985L201.077 124.422Z" fill="#632BEE"/>
<path d="M216.751 144.277C216.751 144.277 221.459 148.3 219.286 162.221C217.797 171.656 219.286 190.384 219.286 190.384C219.286 190.384 207.417 197.747 197.781 193.341C197.781 193.341 197.399 175.116 198.465 163.468C199.532 151.821 201.141 149.085 201.141 149.085C203.911 150.099 206.937 150.178 209.756 149.31C212.575 148.442 215.032 146.674 216.751 144.277Z" fill="#FF61CB"/>
<path d="M199.45 201.126C199.577 201.529 199.812 201.888 200.13 202.166C200.448 202.443 200.837 202.627 201.253 202.697C201.668 202.768 202.096 202.723 202.488 202.566C202.879 202.41 203.22 202.148 203.473 201.81C203.473 201.81 203.875 205.11 201.461 204.687C199.047 204.265 198.122 201.81 199.45 201.126Z" fill="#111114"/>
<path d="M180.641 132.73C180.641 132.73 177.946 132.73 177 131.523C175.961 130.539 175.091 129.39 174.425 128.123C174.123 127.057 174.325 126.675 175.169 126.876C176.746 127.537 178.207 128.447 179.495 129.572C179.97 130.12 180.614 130.495 181.325 130.638C181.727 130.859 182.049 132.147 180.641 132.73Z" fill="#EFB185"/>
<path d="M181.323 130.637C180.612 130.494 179.968 130.119 179.493 129.571C178.205 128.447 176.744 127.536 175.168 126.875H174.846L177.722 129.792C178.87 130.765 180.261 131.405 181.746 131.643C181.726 131.14 181.545 130.718 181.323 130.637Z" fill="#EFB185"/>
<path d="M204.317 126.031C203.553 124.985 201.602 124.019 199.107 126.313C196.613 128.606 189.713 135.405 189.713 135.405C189.713 135.405 181.767 130.597 180.761 130.195C180.878 130.417 180.948 130.661 180.969 130.911C180.989 131.161 180.959 131.413 180.88 131.652C180.802 131.89 180.676 132.11 180.51 132.299C180.344 132.488 180.142 132.641 179.916 132.75C179.916 132.75 186.474 140.796 189.552 140.475C192.63 140.153 207.436 130.356 204.317 126.031Z" fill="#471BCE"/>
<path d="M181.003 130.859C181.003 130.859 179.434 128.425 178.83 127.761C178.227 127.097 177.583 126.876 177.563 127.097C177.543 127.318 179.172 129.37 178.307 129.732C177.844 129.873 180.701 130.517 181.003 130.859Z" fill="#EFB185"/>
<path d="M204.478 117.662L204.035 122.792C205.346 123.497 206.857 123.733 208.32 123.462C209.783 123.192 211.11 122.43 212.082 121.304L211.519 115.771C209.426 117.12 206.964 117.781 204.478 117.662Z" fill="#EFB185"/>
<path d="M206.35 102.112C205.258 102.15 204.189 102.436 203.223 102.948C202.258 103.46 201.421 104.186 200.778 105.069C198.364 107.946 198.183 110.983 200.295 115.127C202.407 119.272 199.873 125.447 198.907 126.312C197.942 127.177 210.695 126.896 215.624 119.533C215.624 119.473 217.958 101.026 206.35 102.112Z" fill="#231202"/>
<path d="M198.1 201.126C198.1 201.126 199.448 200.684 199.669 198.29C200.383 198.678 201.166 198.921 201.974 199.003C202.783 199.086 203.599 199.008 204.377 198.773C204.479 200.703 204.282 202.637 203.793 204.506C203.793 204.506 197.416 203.561 198.1 201.126Z" fill="#111114"/>
<path d="M209.606 196.62C209.606 196.62 211.618 199.135 213.288 198.089C213.288 198.089 213.288 200.261 213.187 200.623C212.813 200.951 212.34 201.142 211.843 201.168C211.347 201.194 210.857 201.051 210.451 200.764C209.646 199.543 209.343 198.059 209.606 196.62Z" fill="#111114"/>
<g style="mix-blend-mode:overlay" opacity="0.8">
<g style="mix-blend-mode:overlay" opacity="0.8">
<path d="M178.528 214.606C191.262 221.948 211.861 221.948 224.515 214.606C237.168 207.263 237.108 195.314 224.374 187.971C211.64 180.629 191.041 180.609 178.367 187.971C165.694 195.334 165.774 207.263 178.528 214.626" fill="#FCFDFD"/>
</g>
<g style="mix-blend-mode:overlay" opacity="0.67">
<path d="M174.506 203.059C189.493 211.327 213.713 211.327 228.6 203.059C243.486 194.791 243.405 181.333 228.419 173.045C213.432 164.757 189.231 164.757 174.325 173.045C159.419 181.333 159.539 194.771 174.506 203.079" fill="#FCFDFD"/>
</g>
<g style="mix-blend-mode:overlay" opacity="0.53">
<path d="M170.484 191.512C187.704 200.725 215.545 200.725 232.644 191.512C249.743 182.299 249.663 167.372 232.443 158.119C215.223 148.865 187.402 148.905 170.283 158.119C153.163 167.332 153.264 182.258 170.484 191.512Z" fill="#FCFDFD"/>
</g>
<g style="mix-blend-mode:overlay" opacity="0.4">
<path d="M166.46 179.965C185.933 190.023 217.375 190.023 236.687 179.965C255.999 169.907 255.918 153.351 236.466 143.192C217.013 133.033 185.571 133.134 166.239 143.192C146.907 153.25 147.007 169.806 166.46 179.965Z" fill="#FCFDFD"/>
</g>
<g style="mix-blend-mode:overlay" opacity="0.27">
<path d="M162.436 168.417C184.142 179.481 219.205 179.481 240.75 168.417C262.295 157.353 262.194 139.349 240.488 128.285C218.783 117.221 183.74 117.2 162.175 128.285C140.61 139.369 140.75 157.333 162.436 168.417Z" fill="#FCFDFD"/>
</g>
<g style="mix-blend-mode:overlay" opacity="0.13">
<path d="M158.412 156.871C182.351 168.941 221.035 168.941 244.793 156.871C268.55 144.801 268.45 125.368 244.511 113.358C220.572 101.349 181.908 101.289 158.13 113.358C134.353 125.428 134.493 144.941 158.412 156.871Z" fill="#FCFDFD"/>
</g>
</g>
<defs>
<linearGradient id="paint0_linear" x1="81.9883" y1="138.081" x2="210.071" y2="138.081" gradientUnits="userSpaceOnUse">
<stop stop-color="#2F95E4"/>
<stop offset="1" stop-color="#7133DE"/>
</linearGradient>
<linearGradient id="paint1_linear" x1="163.3" y1="160.874" x2="211.58" y2="160.874" gradientUnits="userSpaceOnUse">
<stop stop-color="#4845E8"/>
<stop offset="0.4" stop-color="#4137CB"/>
<stop offset="1" stop-color="#351F98"/>
</linearGradient>
<linearGradient id="paint2_linear" x1="5381.96" y1="12503" x2="5944" y2="12503" gradientUnits="userSpaceOnUse">
<stop stop-color="#4845E8"/>
<stop offset="0.4" stop-color="#4137CB"/>
<stop offset="1" stop-color="#351F98"/>
</linearGradient>
<linearGradient id="paint3_linear" x1="5106.51" y1="13423.6" x2="5709.62" y2="13423.6" gradientUnits="userSpaceOnUse">
<stop stop-color="#E3D969"/>
<stop offset="0.15" stop-color="#E4BE71"/>
<stop offset="0.4" stop-color="#E6997C"/>
<stop offset="0.64" stop-color="#E87E84"/>
<stop offset="0.84" stop-color="#E96E88"/>
<stop offset="1" stop-color="#E9688A"/>
</linearGradient>
<linearGradient id="paint4_linear" x1="13089.2" y1="17575.8" x2="16293.4" y2="17575.8" gradientUnits="userSpaceOnUse">
<stop stop-color="#E3D969"/>
<stop offset="0.15" stop-color="#E4BE71"/>
<stop offset="0.4" stop-color="#E6997C"/>
<stop offset="0.64" stop-color="#E87E84"/>
<stop offset="0.84" stop-color="#E96E88"/>
<stop offset="1" stop-color="#E9688A"/>
</linearGradient>
</defs>
</svg>
