<svg width="21" height="22" viewBox="0 0 21 22" fill="none" xmlns="http://www.w3.org/2000/svg">
<path d="M20.4135 8.92988C20.4107 8.92088 20.4075 8.91201 20.4038 8.90331C20.4038 8.89961 20.4017 8.89524 20.3999 8.89154C20.3833 8.86118 20.3619 8.83339 20.3363 8.80914C20.3306 8.80342 20.3235 8.79938 20.3174 8.794C20.2927 8.77336 20.2652 8.75595 20.2356 8.74221C20.2249 8.7375 20.2149 8.73279 20.2038 8.72909C20.1644 8.71433 20.1226 8.70634 20.0802 8.70555H5.39497L5.30104 8.59523L9.90888 7.23275L9.96495 7.21627L10.0474 7.19205L14.476 5.88237L15.4156 5.60456L16.8063 5.19356L20.1874 4.19432C20.3756 4.13862 20.4801 3.94981 20.421 3.7726V3.77256L19.5653 1.20534C19.5631 1.19928 19.5581 1.19525 19.5556 1.18919C19.5438 1.1596 19.5276 1.13172 19.5074 1.10646C19.501 1.09838 19.496 1.08964 19.4888 1.08224C19.4865 1.07896 19.484 1.07581 19.4813 1.07282C19.4563 1.04856 19.4274 1.02813 19.3956 1.01228C19.3874 1.00791 19.3781 1.00589 19.3695 1.00219C19.3404 0.989832 19.3097 0.981129 19.2781 0.976295C19.266 0.974613 19.2549 0.973268 19.2424 0.972595C19.2001 0.96961 19.1577 0.97394 19.117 0.985376L9.13709 3.93568L8.21353 4.20878L6.62782 4.67763L2.10463 6.01489H0.794641C0.59741 6.01489 0.4375 6.16548 0.4375 6.35122V20.1408C0.4375 20.6981 0.917185 21.1498 1.50892 21.1498H19.366C19.9577 21.1498 20.4374 20.6981 20.4374 20.1408V9.04188C20.4374 9.03549 20.4338 9.03011 20.4335 9.02372C20.4316 8.99168 20.4248 8.96007 20.4135 8.92988ZM19.366 9.37821L17.7588 11.3962H15.7946L17.4017 9.37821H19.366ZM16.5088 9.37821L14.9017 11.3962H12.9374L14.5446 9.37821H16.5088ZM13.6517 9.37821L12.0446 11.3962H10.0803L11.6874 9.37821H13.6517ZM10.7946 9.37821L9.18745 11.3962H7.22318L8.83031 9.37821H10.7946ZM7.93746 9.37821L6.33032 11.3962H6.15175V9.71454C6.1518 9.63815 6.12421 9.56399 6.07354 9.50434L5.96997 9.38258L7.93746 9.37821ZM19.2045 2.37073L19.6331 3.65451L18.6103 3.95653L19.2045 2.37073ZM17.3488 2.21366L18.6517 1.8289L17.7588 4.2071L16.5699 4.55857L15.8846 4.76037L16.7774 2.38183L17.3488 2.21366ZM14.2803 3.12109L15.9238 2.63475L15.031 5.01329L13.1571 5.56723L14.0499 3.18835L14.2803 3.12109ZM13.1992 3.4406L12.3064 5.81881L10.4328 6.37275L11.3257 3.99454L13.1992 3.4406ZM8.59924 4.8014L10.4732 4.24645L9.58031 6.626L7.70639 7.17994L8.59924 4.8014ZM7.74925 5.0513L6.85639 7.4295L5.70211 7.77122L4.98248 7.98378L5.87533 5.60524L7.74925 5.0513ZM5.01997 5.85816L4.39426 7.52838L3.38641 6.34113L5.01997 5.85816ZM1.15178 6.68755H2.76606L4.41712 8.63155L4.94355 9.25074L5.19355 9.54604L5.23676 9.59683L5.43533 9.83024V11.3962H1.15178V6.68755ZM19.7231 20.1408C19.7231 20.3266 19.5632 20.4772 19.366 20.4772H1.50892C1.31169 20.4772 1.15178 20.3266 1.15178 20.1408V12.0689H19.7231V20.1408ZM19.7231 11.3962H18.6517L19.7231 10.0509V11.3962Z" fill="white"/>
<path d="M13.0587 15.9387C13.0068 15.8407 12.9224 15.7612 12.8182 15.7123L8.53293 13.6944C8.26828 13.5699 7.94657 13.671 7.81431 13.9202C7.77712 13.9903 7.75778 14.0676 7.75781 14.1459V18.1816C7.75769 18.4602 7.99739 18.6862 8.29323 18.6863C8.37644 18.6863 8.45851 18.6681 8.53293 18.6331L12.8182 16.6153C13.083 16.491 13.1907 16.1881 13.0587 15.9387ZM8.82916 17.3654V14.9621L11.3811 16.1638L8.82916 17.3654Z" fill="white"/>
</svg>
