<svg width="386" height="351" viewBox="0 0 386 351" fill="none" xmlns="http://www.w3.org/2000/svg">
<circle cx="197.917" cy="175.679" r="128.109" fill="#5552FF"/>
<path d="M132.946 286.625C162.37 303.614 197.338 308.217 230.157 299.423C262.976 290.63 290.957 269.159 307.946 239.734C324.934 210.31 329.537 175.342 320.744 142.523C311.95 109.704 290.479 81.7224 261.054 64.7341L197 175.68L132.946 286.625Z" fill="#4441F6"/>
<circle cx="197.917" cy="175.679" r="137.925" fill="#377BD3" fill-opacity="0.35"/>
<g clip-path="url(#clip0)">
<path d="M243.099 140.251H230.687V133.159C230.687 131.322 229.451 129.694 227.68 129.203L196.998 120.68L166.316 129.203C164.545 129.694 163.309 131.322 163.309 133.159C163.309 134.996 164.545 136.623 166.316 137.115L170.401 138.249V140.251H150.897C146.009 140.251 142.031 144.228 142.031 149.117V211.176C142.031 216.064 146.009 220.041 150.897 220.041H172.174V227.133H165.082V230.68H228.914V227.133H221.821V220.041H243.099C247.987 220.041 251.964 216.064 251.964 211.176V149.117C251.964 144.228 247.987 140.251 243.099 140.251ZM228.914 159.755C229.892 159.755 230.687 160.552 230.687 161.529V170.394H227.141V161.529C227.141 160.552 227.935 159.755 228.914 159.755ZM167.265 133.698C167.025 133.63 166.855 133.409 166.855 133.159C166.855 132.909 167.025 132.687 167.265 132.62L196.998 124.361L226.731 132.62C226.97 132.687 227.141 132.909 227.141 133.159C227.141 133.409 226.97 133.63 226.731 133.698L196.998 141.957L167.265 133.698ZM220.048 139.233V146.005L196.998 152.592L173.947 146.007V139.235L196.998 145.638L220.048 139.233ZM218.275 227.133H175.721V220.041H218.275V227.133ZM248.418 211.176C248.418 214.108 246.031 216.495 243.099 216.495H150.897C147.964 216.495 145.578 214.108 145.578 211.176V205.856H248.418V211.176ZM248.418 202.31H145.578V149.117C145.578 146.184 147.964 143.797 150.897 143.797H170.401V148.681L196.998 156.28L223.594 148.681V138.249L227.141 137.264V156.535C225.082 157.27 223.594 159.22 223.594 161.529V173.94H234.233V161.529C234.233 159.22 232.745 157.27 230.687 156.535V143.797H243.099C246.031 143.797 248.418 146.184 248.418 149.117V202.31Z" fill="white"/>
<path d="M191.678 168.853V189.664L207.287 179.26L191.678 168.853ZM195.225 175.481L200.893 179.26L195.225 183.04V175.481V175.481Z" fill="white"/>
<path d="M196.998 159.755C186.244 159.755 177.494 168.505 177.494 179.259C177.494 190.013 186.244 198.763 196.998 198.763C207.752 198.763 216.502 190.013 216.502 179.259C216.502 168.505 207.752 159.755 196.998 159.755ZM196.998 195.217C188.198 195.217 181.04 188.059 181.04 179.259C181.04 170.461 188.198 163.301 196.998 163.301C205.798 163.301 212.956 170.461 212.956 179.259C212.956 188.059 205.798 195.217 196.998 195.217Z" fill="white"/>
<path d="M207.636 209.402H186.359V212.948H207.636V209.402Z" fill="white"/>
<path d="M230.687 177.486H227.141V181.032H230.687V177.486Z" fill="white"/>
<path d="M223.594 177.486H220.048V181.032H223.594V177.486Z" fill="white"/>
<path d="M173.947 177.486H170.401V181.032H173.947V177.486Z" fill="white"/>
<path d="M166.855 177.486H163.309V181.032H166.855V177.486Z" fill="white"/>
<path d="M159.763 177.486H156.216V181.032H159.763V177.486Z" fill="white"/>
<path d="M237.779 177.486H234.233V181.032H237.779V177.486Z" fill="white"/>
</g>
<g opacity="0.45">
<path opacity="0.8" d="M326.901 93.7422C328.777 96.7129 330.56 99.7468 332.25 102.844" stroke="#5552FF" stroke-opacity="0.4" stroke-width="2" stroke-linecap="round" stroke-linejoin="round"/>
<path opacity="0.8" d="M48.2142 93.7422C46.338 96.7129 44.5549 99.7468 42.8651 102.844" stroke="#5552FF" stroke-opacity="0.4" stroke-width="2" stroke-linecap="round" stroke-linejoin="round"/>
<path opacity="0.8" d="M194.625 20.9375C218.813 20.921 242.675 26.5202 264.331 37.2942C285.987 48.0682 304.846 63.7229 319.423 83.0252" stroke="#5552FF" stroke-opacity="0.4" stroke-width="2" stroke-linecap="round" stroke-linejoin="round"/>
<path opacity="0.8" d="M42.3162 218.395C46.509 236.019 54.0109 252.603 64.2311 266.839C74.4514 281.076 87.1109 292.578 101.213 300.438" stroke="#5552FF" stroke-opacity="0.4" stroke-width="2" stroke-linecap="round" stroke-linejoin="round"/>
<path opacity="0.2" d="M163.225 333.082C172.436 333.082 179.904 325.615 179.904 316.403C179.904 307.192 172.436 299.725 163.225 299.725C154.014 299.725 146.546 307.192 146.546 316.403C146.546 325.615 154.014 333.082 163.225 333.082Z" fill="#5552FF" fill-opacity="0.4"/>
<path opacity="0.2" d="M19.8811 89.34C19.8811 90.1392 19.6441 90.9206 19.2001 91.5851C18.756 92.2497 18.1249 92.7677 17.3865 93.0735C16.648 93.3794 15.8355 93.4594 15.0516 93.3035C14.2677 93.1476 13.5476 92.7627 12.9825 92.1975C12.4173 91.6323 12.0324 90.9123 11.8765 90.1284C11.7206 89.3445 11.8006 88.5319 12.1064 87.7935C12.4123 87.0551 12.9303 86.4239 13.5948 85.9799C14.2594 85.5358 15.0407 85.2988 15.84 85.2988C16.3707 85.2988 16.8962 85.4034 17.3865 85.6064C17.8768 85.8095 18.3223 86.1072 18.6975 86.4825C19.0728 86.8577 19.3704 87.3032 19.5735 87.7935C19.7766 88.2838 19.8811 88.8093 19.8811 89.34V89.34Z" fill="#5552FF" fill-opacity="0.4"/>
<path opacity="0.2" d="M110.059 64.1101C110.059 66.7976 109.263 69.4248 107.769 71.6595C106.276 73.8941 104.154 75.6358 101.671 76.6643C99.188 77.6927 96.4558 77.9619 93.8199 77.4375C91.184 76.9132 88.7627 75.619 86.8623 73.7186C84.9619 71.8182 83.6678 69.397 83.1434 66.7611C82.6191 64.1251 82.8882 61.3929 83.9167 58.9099C84.9452 56.427 86.6869 54.3047 88.9215 52.8115C91.1561 51.3184 93.7833 50.5215 96.4709 50.5215C98.2554 50.5215 100.022 50.873 101.671 51.5559C103.32 52.2387 104.818 53.2397 106.079 54.5015C107.341 55.7633 108.342 57.2613 109.025 58.9099C109.708 60.5586 110.059 62.3256 110.059 64.1101Z" fill="#5552FF" fill-opacity="0.4"/>
<path opacity="0.2" d="M280.244 310.63C280.244 313.318 279.447 315.945 277.954 318.18C276.461 320.414 274.338 322.156 271.855 323.184C269.372 324.213 266.64 324.482 264.004 323.958C261.368 323.433 258.947 322.139 257.047 320.239C255.146 318.338 253.852 315.917 253.328 313.281C252.803 310.645 253.073 307.913 254.101 305.43C255.13 302.947 256.871 300.825 259.106 299.332C261.34 297.839 263.968 297.042 266.655 297.042C268.44 297.042 270.207 297.393 271.855 298.076C273.504 298.759 275.002 299.76 276.264 301.022C277.526 302.283 278.527 303.781 279.209 305.43C279.892 307.079 280.244 308.846 280.244 310.63Z" fill="#5552FF" fill-opacity="0.4"/>
<path opacity="0.2" d="M361.16 162.091C361.16 164.778 360.363 167.405 358.869 169.64C357.376 171.875 355.254 173.616 352.771 174.645C350.288 175.673 347.556 175.942 344.92 175.418C342.284 174.894 339.863 173.599 337.962 171.699C336.062 169.799 334.768 167.377 334.244 164.742C333.719 162.106 333.988 159.373 335.017 156.89C336.045 154.407 337.787 152.285 340.022 150.792C342.256 149.299 344.883 148.502 347.571 148.502C349.355 148.502 351.122 148.853 352.771 149.536C354.42 150.219 355.918 151.22 357.18 152.482C358.441 153.744 359.442 155.242 360.125 156.89C360.808 158.539 361.16 160.306 361.16 162.091Z" fill="#5552FF" fill-opacity="0.4"/>
<path opacity="0.2" d="M78.4485 250.516C78.4485 254.167 77.366 257.735 75.338 260.77C73.3099 263.805 70.4274 266.171 67.0549 267.568C63.6824 268.965 59.9714 269.33 56.3912 268.618C52.8109 267.906 49.5223 266.148 46.9411 263.567C44.3599 260.986 42.6021 257.697 41.8899 254.117C41.1778 250.537 41.5433 246.826 42.9402 243.453C44.3371 240.081 46.7028 237.198 49.7379 235.17C52.7731 233.142 56.3415 232.06 59.9919 232.06C62.4156 232.06 64.8156 232.537 67.0549 233.465C69.2942 234.392 71.3288 235.752 73.0427 237.466C74.7565 239.179 76.116 241.214 77.0435 243.453C77.9711 245.693 78.4485 248.093 78.4485 250.516Z" fill="#5552FF" fill-opacity="0.4"/>
<path opacity="0.2" d="M311.61 277.63C311.61 282.075 310.292 286.421 307.822 290.117C305.352 293.814 301.842 296.695 297.735 298.396C293.627 300.097 289.108 300.542 284.748 299.675C280.388 298.808 276.383 296.667 273.239 293.523C270.096 290.38 267.955 286.375 267.088 282.015C266.22 277.655 266.665 273.135 268.367 269.028C270.068 264.921 272.949 261.41 276.645 258.94C280.342 256.471 284.687 255.152 289.133 255.152C292.085 255.152 295.008 255.734 297.735 256.863C300.462 257.993 302.94 259.649 305.027 261.736C307.114 263.823 308.77 266.301 309.899 269.028C311.029 271.755 311.61 274.678 311.61 277.63Z" fill="#5552FF" fill-opacity="0.4"/>
<path d="M109.896 13.3521C109.893 13.6 109.816 13.8414 109.675 14.0455C109.534 14.2497 109.336 14.4075 109.106 14.4991C108.875 14.5907 108.623 14.6119 108.38 14.56C108.138 14.5081 107.916 14.3855 107.743 14.2077C107.571 14.0298 107.455 13.8047 107.41 13.5608C107.365 13.317 107.393 13.0653 107.491 12.8375C107.59 12.6098 107.753 12.4163 107.961 12.2815C108.169 12.1467 108.413 12.0767 108.661 12.0802C108.825 12.0826 108.988 12.1173 109.139 12.1825C109.29 12.2477 109.427 12.3421 109.542 12.4602C109.657 12.5783 109.747 12.7178 109.808 12.8709C109.869 13.0239 109.899 13.1874 109.896 13.3521Z" fill="#5552FF" fill-opacity="0.4"/>
<path d="M42.8652 240.884C42.8634 241.132 42.7884 241.373 42.6495 241.578C42.5107 241.783 42.3142 241.943 42.085 242.036C41.8557 242.13 41.6039 242.153 41.3613 242.104C41.1186 242.055 40.8961 241.934 40.7216 241.759C40.5472 241.583 40.4286 241.36 40.381 241.117C40.3333 240.874 40.3587 240.622 40.4538 240.393C40.549 240.165 40.7097 239.97 40.9157 239.832C41.1217 239.695 41.3637 239.621 41.6114 239.621C41.7768 239.621 41.9406 239.654 42.0933 239.718C42.246 239.781 42.3846 239.874 42.5012 239.992C42.6177 240.109 42.7099 240.249 42.7724 240.402C42.8348 240.555 42.8664 240.719 42.8652 240.884Z" fill="#5552FF" fill-opacity="0.4"/>
<path opacity="0.4" d="M149.135 330.854C150.918 330.854 152.364 329.408 152.364 327.625C152.364 325.841 150.918 324.396 149.135 324.396C147.351 324.396 145.905 325.841 145.905 327.625C145.905 329.408 147.351 330.854 149.135 330.854Z" fill="#5552FF" fill-opacity="0.4"/>
<g opacity="0.4">
<path opacity="0.4" d="M116.409 312.219V327.626" stroke="#5552FF" stroke-opacity="0.4" stroke-width="2" stroke-linecap="round" stroke-linejoin="round"/>
<path opacity="0.4" d="M108.697 319.921H124.112" stroke="#5552FF" stroke-opacity="0.4" stroke-width="2" stroke-linecap="round" stroke-linejoin="round"/>
</g>
</g>
<g clip-path="url(#clip1)">
<path d="M0.91748 169.932L34.7345 173.454L38.3608 138.643L4.54376 135.12L0.91748 169.932ZM36.1668 140.476L32.9655 171.208L3.11142 168.098L6.31275 137.366L36.1668 140.476Z" fill="#B9D1F0"/>
<path d="M14.4216 156.692L13.9099 161.604L25.1646 162.776L25.3992 160.524L21.6265 160.131L21.9121 157.39C22.1212 155.382 20.5894 153.607 18.5467 153.394C16.8136 153.213 14.6557 154.444 14.4216 156.692ZM19.9804 157.321L19.7084 159.931L16.0625 159.552L16.3243 157.039C16.4239 156.083 17.3576 155.579 18.3087 155.678C19.4157 155.794 20.0627 156.531 19.9804 157.321Z" fill="#B9D1F0"/>
<path d="M21.5757 148.926C21.469 149.234 21.1107 150.576 20.3544 150.498C19.7484 150.435 19.4725 149.888 19.5551 149.095C19.6673 148.018 20.3705 147.112 20.7329 146.71L19.5407 145.695C19.0905 146.121 18.2463 147.046 18.0509 148.922C17.8648 150.709 18.6856 152.386 20.4431 152.569C22.2687 152.759 22.8697 150.298 23.0753 149.758C23.3243 149.114 23.682 147.925 24.3963 147.999C24.9782 148.06 25.2558 148.669 25.1695 149.498C25.0363 150.777 24.1767 151.902 23.763 152.387L25.0095 153.341C25.4727 152.895 26.4908 151.581 26.6964 149.608C26.8074 148.542 26.7331 146.115 24.4253 145.874C22.4729 145.671 21.785 148.354 21.5757 148.926Z" fill="#B9D1F0"/>
</g>
<path d="M293.082 298.036L297.215 295.333L291.022 285.863L289.127 287.102L291.203 290.277L288.896 291.785C287.207 292.89 286.796 295.199 287.921 296.918C288.874 298.376 291.191 299.273 293.082 298.036ZM290.062 293.327L292.259 291.891L294.265 294.959L292.15 296.341C291.346 296.867 290.366 296.461 289.843 295.661C289.234 294.729 289.397 293.762 290.062 293.327Z" fill="#B9D1F0"/>
<path d="M282.542 297.388C282.849 297.276 284.116 296.707 284.532 297.343C284.866 297.853 284.616 298.412 283.949 298.848C283.043 299.441 281.896 299.467 281.356 299.44L281.321 301.005C281.935 301.085 283.185 301.157 284.764 300.125C286.267 299.141 287.05 297.446 286.083 295.967C285.078 294.431 282.79 295.518 282.242 295.699C281.585 295.913 280.436 296.386 280.043 295.785C279.723 295.295 280.021 294.695 280.718 294.239C281.794 293.535 283.209 293.492 283.847 293.507L283.8 291.938C283.162 291.86 281.5 291.899 279.84 292.985C278.943 293.572 277.107 295.161 278.377 297.103C279.451 298.746 281.967 297.586 282.542 297.388Z" fill="#B9D1F0"/>
<path d="M120.257 37.3879L115.728 39.3555L120.236 49.7341L122.313 48.832L120.802 45.353L123.33 44.2548C125.181 43.4504 125.975 41.244 125.156 39.3603C124.462 37.7621 122.33 36.4873 120.257 37.3879ZM122.441 42.5383L120.033 43.5843L118.573 40.2222L120.89 39.2155C121.771 38.8326 122.669 39.3984 123.05 40.2755C123.493 41.2963 123.169 42.2219 122.441 42.5383Z" fill="#B9D1F0"/>
<path d="M130.537 39.8035C130.216 39.8618 128.871 40.2094 128.568 39.512C128.325 38.9532 128.665 38.4445 129.397 38.1266C130.389 37.6954 131.524 37.8628 132.052 37.9808L132.351 36.4438C131.758 36.261 130.539 35.9799 128.809 36.7314C127.161 37.4473 126.103 38.9861 126.807 40.6069C127.539 42.2904 129.978 41.6045 130.548 41.5187C131.232 41.4188 132.444 41.1461 132.73 41.8048C132.963 42.3414 132.568 42.8827 131.804 43.2148C130.625 43.7271 129.223 43.5312 128.597 43.409L128.378 44.9637C128.995 45.1476 130.639 45.3891 132.459 44.5985C133.442 44.1714 135.519 42.9142 134.595 40.7861C133.813 38.9857 131.138 39.7047 130.537 39.8035Z" fill="#B9D1F0"/>
<g clip-path="url(#clip2)">
<path d="M370.025 122.744L355.33 125.148L357.805 140.276L372.5 137.872L370.025 122.744ZM358.521 139.248L356.336 125.894L369.309 123.771L371.494 137.126L358.521 139.248Z" fill="#B9D1F0"/>
<path d="M365.843 129.893L365.494 127.758L360.603 128.558L360.763 129.537L362.403 129.269L362.597 130.46C362.74 131.332 363.592 131.906 364.479 131.761C365.233 131.638 366.003 130.869 365.843 129.893ZM363.422 130.267L363.236 129.132L364.82 128.873L364.999 129.965C365.067 130.38 364.73 130.701 364.317 130.768C363.836 130.847 363.478 130.61 363.422 130.267Z" fill="#B9D1F0"/>
<path d="M363.714 133.999C363.723 133.856 363.72 133.248 364.049 133.194C364.312 133.151 364.492 133.35 364.548 133.695C364.625 134.162 364.432 134.626 364.325 134.838L364.945 135.129C365.087 134.898 365.337 134.41 365.204 133.595C365.077 132.818 364.537 132.204 363.773 132.329C362.98 132.459 363.009 133.568 362.984 133.819C362.953 134.12 362.939 134.664 362.628 134.715C362.376 134.756 362.188 134.531 362.129 134.17C362.038 133.615 362.272 133.04 362.391 132.788L361.754 132.528C361.61 132.77 361.331 133.442 361.471 134.3C361.547 134.763 361.858 135.78 362.861 135.616C363.709 135.477 363.691 134.264 363.714 133.999Z" fill="#B9D1F0"/>
</g>
<g clip-path="url(#clip3)">
<path d="M294.206 10.4727L284.979 20.6112L295.118 29.8379L304.345 19.6994L294.206 10.4727ZM295.064 28.7032L286.114 20.5578L294.259 11.6073L303.21 19.7528L295.064 28.7032Z" fill="#B9D1F0"/>
<path d="M294.937 17.7124L294.357 17.1847L289.999 19.3869L290.673 20.001L291.748 19.441L292.926 20.5136L292.475 21.6402L293.149 22.2544L294.937 17.7124ZM292.277 19.0795L293.968 18.1947L293.227 19.9445L292.277 19.0795Z" fill="#B9D1F0"/>
<path d="M296.991 23.4564C297.772 22.5972 297.49 21.5734 296.857 20.9973C295.97 20.1903 294.918 20.4833 294.355 21.1014C293.728 21.7902 293.708 22.8497 294.503 23.5735C295.26 24.2621 295.991 24.0842 296.255 23.9778L295.847 23.3283C295.714 23.3922 295.304 23.451 294.951 23.1294C294.405 22.6325 294.777 22.0126 294.857 21.9057L296.782 23.6573C296.811 23.6377 296.953 23.4976 296.991 23.4564ZM295.224 21.4836C295.585 21.1451 296.092 21.1446 296.428 21.4496C296.753 21.7461 296.84 22.2279 296.516 22.66L295.224 21.4836Z" fill="#B9D1F0"/>
</g>
<g clip-path="url(#clip4)">
<path d="M229.838 336.569L230.367 339.279L231.002 339.154L230.364 335.888L228.063 336.338L228.172 336.895L229.838 336.569Z" fill="#B9D1F0"/>
<path d="M234.781 342.029L232.862 332.215L223.048 334.134L224.967 343.948L234.781 342.029ZM223.735 334.597L232.399 332.903L234.094 341.567L225.43 343.261L223.735 334.597Z" fill="#B9D1F0"/>
<path d="M226.669 338.559L226.779 339.121C227.347 339.07 227.515 338.499 227.542 338.408L227.643 338.923L228.209 338.812L227.737 336.402L227.121 336.522L227.406 337.981C227.368 338.131 227.211 338.453 226.669 338.559Z" fill="#B9D1F0"/>
</g>
<g clip-path="url(#clip5)">
<path d="M166.187 21.0015L165.277 17.8591L164.54 18.0724L165.638 21.8605L168.306 21.0874L168.119 20.4418L166.187 21.0015Z" fill="#B9D1F0"/>
<path d="M159.777 15.0762L163.076 26.458L174.458 23.1596L171.159 11.7778L159.777 15.0762ZM173.597 22.686L163.549 25.5978L160.638 15.5498L170.686 12.638L173.597 22.686Z" fill="#B9D1F0"/>
<path d="M169.718 18.3176L169.529 17.6667C168.864 17.786 168.725 18.478 168.703 18.5885L168.53 17.991L167.874 18.1811L168.684 20.9768L169.399 20.7696L168.909 19.0783C168.937 18.8966 169.089 18.4999 169.718 18.3176Z" fill="#B9D1F0"/>
</g>
<path d="M339.66 189.851L342.913 190.197L342.994 189.435L339.072 189.017L338.778 191.779L339.447 191.85L339.66 189.851Z" fill="#B9D1F0"/>
<path d="M340.808 194.134L341.482 194.206C341.623 193.545 341.035 193.155 340.941 193.093L341.56 193.158L341.632 192.479L338.738 192.171L338.659 192.911L340.41 193.097C340.567 193.192 340.877 193.483 340.808 194.134Z" fill="#B9D1F0"/>
<g clip-path="url(#clip6)">
<path d="M118.295 333.437L119.663 334.303L122.815 332.901L122.906 336.355L124.284 337.227L124.053 332.45L128.338 330.659L126.96 329.787L123.931 331.138L123.865 327.828L122.496 326.961L122.712 331.601L118.295 333.437Z" fill="#B5CCF0"/>
<path d="M124.112 346.854L136.515 327.258L116.919 314.855L104.516 334.451L124.112 346.854ZM117.341 316.73L134.64 327.679L123.691 344.979L106.391 334.029L117.341 316.73Z" fill="#B5CCF0"/>
<path d="M116.558 325.184L113.209 330.475L114.44 331.254L116.173 328.517C116.158 328.893 116.244 329.862 117.211 330.474C118.353 331.196 119.989 330.842 120.936 329.345C121.772 328.024 121.644 326.293 120.23 325.399C119.266 324.788 118.343 325.074 117.972 325.268C117.972 325.268 118.622 324.419 117.733 323.856C117.598 323.771 117.41 323.682 117.169 323.589L116.506 324.636C116.606 324.708 116.64 325.056 116.558 325.184ZM117.568 326.312C117.685 326.223 118.474 325.753 119.246 326.242C120.062 326.759 120.121 327.808 119.677 328.509C119.273 329.147 118.327 329.713 117.488 329.182C116.738 328.707 116.805 327.626 116.841 327.46L117.568 326.312Z" fill="#B5CCF0"/>
</g>
<g clip-path="url(#clip7)">
<path d="M353.973 271.65L356.127 267.95C356.194 267.835 356.155 267.688 356.04 267.621C355.926 267.554 355.778 267.593 355.711 267.708L353.557 271.408C353.439 271.611 353.177 271.68 352.973 271.562L340.351 264.213C340.148 264.095 340.079 263.833 340.197 263.629L347.185 251.626C347.304 251.423 347.566 251.354 347.77 251.472L360.391 258.821C360.595 258.939 360.664 259.201 360.546 259.405L356.279 266.733C356.212 266.847 356.251 266.995 356.366 267.062C356.481 267.128 356.628 267.09 356.695 266.975L360.961 259.647C361.213 259.214 361.066 258.657 360.633 258.405L348.012 251.056C347.579 250.804 347.022 250.951 346.77 251.384L339.781 263.387C339.529 263.82 339.676 264.377 340.109 264.629L352.731 271.978C353.164 272.23 353.721 272.083 353.973 271.65V271.65Z" fill="#B9D1F0"/>
<path d="M358.671 258.875L348.571 252.994C348.139 252.742 347.581 252.889 347.329 253.322L341.743 262.917C341.491 263.349 341.638 263.907 342.071 264.159L352.171 270.039C352.604 270.291 353.161 270.144 353.413 269.711L358.999 260.117C359.251 259.684 359.104 259.127 358.671 258.875V258.875ZM352.413 269.623L342.313 263.743C342.11 263.624 342.041 263.362 342.159 263.159L347.745 253.564C347.864 253.361 348.126 253.292 348.329 253.41L358.429 259.291C358.633 259.409 358.702 259.671 358.583 259.875L352.997 269.469C352.879 269.672 352.617 269.742 352.413 269.623V269.623Z" fill="#B9D1F0"/>
<path d="M348.731 256.372C348.486 256.793 348.629 257.335 349.05 257.58L349.484 257.833C349.599 257.9 349.746 257.861 349.813 257.746C349.88 257.631 349.841 257.484 349.726 257.417L349.292 257.165C349.1 257.053 349.035 256.806 349.147 256.614C349.258 256.422 349.505 256.357 349.697 256.469L355.094 259.611C355.191 259.668 355.252 259.747 355.281 259.855C355.309 259.963 355.295 260.066 355.24 260.162L354.365 261.664C354.074 262.164 353.604 262.526 353.043 262.682C352.475 262.84 351.887 262.767 351.387 262.476C350.887 262.185 350.533 261.71 350.391 261.138C350.249 260.572 350.332 259.986 350.623 259.486C350.753 259.262 350.993 258.845 351.171 258.536C351.237 258.421 351.198 258.274 351.084 258.208L350.692 257.98C350.577 257.913 350.43 257.952 350.363 258.067C350.296 258.181 350.335 258.329 350.45 258.396L350.635 258.503C350.48 258.772 350.309 259.068 350.207 259.244C349.852 259.852 349.752 260.567 349.924 261.254C350.098 261.953 350.532 262.535 351.145 262.892C351.758 263.249 352.478 263.339 353.172 263.146C353.855 262.955 354.426 262.515 354.781 261.907L355.656 260.404C355.776 260.197 355.807 259.965 355.746 259.732C355.685 259.501 355.543 259.315 355.337 259.195L349.939 256.053C349.518 255.808 348.976 255.951 348.731 256.372V256.372Z" fill="#B9D1F0"/>
<path d="M352.008 258.838C351.947 258.854 351.894 258.894 351.863 258.949L351.862 258.95C351.604 259.399 351.421 259.715 351.319 259.891C350.939 260.544 351.156 261.409 351.793 261.78C352.43 262.151 353.289 261.913 353.669 261.259L354.22 260.314C354.252 260.259 354.261 260.193 354.244 260.131C354.228 260.069 354.188 260.017 354.132 259.985C353.777 259.779 353.351 259.532 353.164 259.424C352.986 259.32 352.667 259.136 352.19 258.862C352.135 258.83 352.069 258.821 352.008 258.838V258.838ZM353.254 261.017C353.004 261.445 352.446 261.604 352.035 261.364C351.623 261.125 351.486 260.561 351.735 260.133C351.821 259.986 351.963 259.739 352.159 259.399C352.521 259.607 353.382 260.107 353.683 260.28L353.254 261.017L353.254 261.017Z" fill="#B9D1F0"/>
<path d="M345.795 261.415C345.549 261.836 345.693 262.379 346.114 262.624L347.955 263.696C347.982 263.735 348.055 263.861 348.143 264.161C348.198 264.35 348.217 264.741 348.212 264.945C348.202 265.432 348.589 265.837 349.076 265.848C349.563 265.86 349.968 265.472 349.98 264.985C349.981 264.944 349.983 264.77 349.971 264.544C350.183 264.48 350.366 264.338 350.48 264.143C350.725 263.722 350.582 263.18 350.161 262.935L347.003 261.096C346.582 260.851 346.04 260.994 345.795 261.415V261.415ZM349.919 263.351C350.111 263.462 350.176 263.709 350.064 263.901C349.992 264.024 349.859 264.101 349.715 264.101C349.647 264.101 349.583 264.129 349.537 264.179C349.491 264.229 349.469 264.296 349.475 264.364C349.504 264.667 349.5 264.925 349.498 264.974C349.493 265.196 349.309 265.372 349.087 265.367L349.087 265.367C348.865 265.362 348.689 265.177 348.694 264.956C348.697 264.794 348.688 264.312 348.605 264.027C348.474 263.578 348.351 263.399 348.271 263.328C348.259 263.318 348.246 263.309 348.233 263.301L346.356 262.208C346.164 262.096 346.099 261.849 346.21 261.657C346.322 261.466 346.569 261.4 346.761 261.512L349.919 263.351Z" fill="#B9D1F0"/>
</g>
<g clip-path="url(#clip8)">
<path d="M65.624 74.1885L65.1111 74.9349L68.9512 77.5737L69.4641 76.8273L65.624 74.1885Z" fill="#B9D1F0"/>
<path d="M58.4751 75.8242L70.0135 83.753L77.9423 72.2145L66.4038 64.2858L58.4751 75.8242ZM76.8016 72.426L69.802 82.6123L59.6158 75.6127L66.6153 65.4264L76.8016 72.426Z" fill="#B9D1F0"/>
<path d="M71.0175 72.7827L67.9021 70.642L67.4041 71.3667L69.0159 72.4743C68.7892 72.4566 68.203 72.4869 67.8118 73.0562C67.35 73.7283 67.5262 74.7232 68.4078 75.329C69.1854 75.8634 70.2327 75.8252 70.8044 74.9932C71.1947 74.4252 71.043 73.862 70.9345 73.6335C70.9345 73.6335 71.432 74.0451 71.7916 73.5218C71.8461 73.4425 71.9041 73.331 71.9656 73.1874L71.349 72.7637C71.3033 72.8226 71.0932 72.8348 71.0175 72.7827ZM70.3139 73.3663C70.3651 73.4386 70.6304 73.9254 70.3179 74.3802C69.9877 74.8607 69.3537 74.8722 68.9407 74.5884C68.5649 74.3302 68.2453 73.7463 68.5845 73.2527C68.8879 72.8111 69.5387 72.8761 69.6379 72.9017L70.3139 73.3663Z" fill="#B9D1F0"/>
</g>
<g clip-path="url(#clip9)">
<path d="M377.486 197.954L377.457 196.515L370.053 196.664L370.082 198.103L377.486 197.954Z" fill="#B9D1F0"/>
<path d="M385.204 189.219L362.956 189.668L363.405 211.915L385.653 211.466L385.204 189.219ZM364.682 210.585L364.286 190.945L383.927 190.549L384.323 210.189L364.682 210.585Z" fill="#B9D1F0"/>
<path d="M371.822 204.766L377.829 204.645L377.801 203.247L374.693 203.31C375.003 203.123 375.732 202.54 375.71 201.443C375.683 200.147 374.534 199.025 372.834 199.06C371.335 199.09 370.018 200.109 370.05 201.713C370.072 202.809 370.79 203.396 371.142 203.59C371.142 203.59 370.118 203.519 370.138 204.528C370.141 204.681 370.17 204.879 370.223 205.121L371.412 205.097C371.416 204.979 371.676 204.769 371.822 204.766ZM372.191 203.36C372.057 203.314 371.264 202.931 371.246 202.054C371.227 201.128 372.036 200.526 372.832 200.51C373.557 200.495 374.51 200.953 374.529 201.905C374.547 202.756 373.646 203.275 373.494 203.334L372.191 203.36Z" fill="#B9D1F0"/>
</g>
<g clip-path="url(#clip10)">
<path d="M189.272 328.873L190.177 328.914L190.392 324.26L189.487 324.218L189.272 328.873Z" fill="#B9D1F0"/>
<path d="M194.434 334.082L195.08 320.097L181.095 319.451L180.449 333.436L194.434 334.082ZM181.877 320.308L194.223 320.879L193.652 333.225L181.306 332.654L181.877 320.308Z" fill="#B9D1F0"/>
<path d="M185.232 325.033L185.057 328.809L185.936 328.849L186.026 326.896C186.13 327.098 186.466 327.58 187.156 327.612C187.97 327.649 188.722 326.975 188.772 325.906C188.815 324.964 188.23 324.094 187.222 324.047C186.533 324.016 186.135 324.442 185.998 324.654C185.998 324.654 186.085 324.015 185.451 323.985C185.355 323.981 185.23 323.99 185.075 324.014L185.041 324.761C185.115 324.769 185.236 324.941 185.232 325.033ZM186.099 325.323C186.133 325.241 186.407 324.759 186.958 324.784C187.54 324.811 187.885 325.344 187.861 325.844C187.84 326.3 187.513 326.879 186.915 326.852C186.379 326.827 186.091 326.24 186.061 326.142L186.099 325.323Z" fill="#B9D1F0"/>
</g>
<defs>
<clipPath id="clip0">
<rect width="110" height="110" fill="white" transform="translate(141.998 120.68)"/>
</clipPath>
<clipPath id="clip1">
<rect width="35" height="34" fill="white" transform="translate(0.91748 169.932) rotate(-84.053)"/>
</clipPath>
<clipPath id="clip2">
<rect width="15.3286" height="14.8906" fill="white" transform="translate(370.025 122.744) rotate(80.7098)"/>
</clipPath>
<clipPath id="clip3">
<rect width="13.7085" height="13.7085" fill="white" transform="translate(294.206 10.4727) rotate(42.3043)"/>
</clipPath>
<clipPath id="clip4">
<rect width="10" height="10" fill="white" transform="translate(234.781 342.029) rotate(168.935)"/>
</clipPath>
<clipPath id="clip5">
<rect width="11.8501" height="11.8501" fill="white" transform="translate(159.777 15.0762) rotate(-16.1612)"/>
</clipPath>
<clipPath id="clip6">
<rect width="23.1913" height="23.1913" fill="white" transform="translate(124.112 346.854) rotate(-147.669)"/>
</clipPath>
<clipPath id="clip7">
<rect width="16.4219" height="16.4219" fill="white" transform="translate(361.599 258.553) rotate(120.209)"/>
</clipPath>
<clipPath id="clip8">
<rect width="14" height="14" fill="white" transform="translate(58.4751 75.8242) rotate(-55.5047)"/>
</clipPath>
<clipPath id="clip9">
<rect width="22.2522" height="22.2522" fill="white" transform="translate(385.204 189.219) rotate(88.8444)"/>
</clipPath>
<clipPath id="clip10">
<rect width="14" height="14" fill="white" transform="translate(194.434 334.082) rotate(-177.353)"/>
</clipPath>
</defs>
</svg>
