<svg width="24" height="24" viewBox="0 0 24 24" fill="none" xmlns="http://www.w3.org/2000/svg">
<path d="M11.9375 23.9717C11.3802 23.9717 10.9268 23.5182 10.9268 22.9609C10.9268 22.943 10.9273 22.9252 10.9282 22.9075L5.27145 20.5645C5.08633 20.7701 4.81824 20.8995 4.52045 20.8995C3.96315 20.8995 3.50971 20.446 3.50971 19.8887C3.50971 19.3314 3.96315 18.878 4.52045 18.878C5.07775 18.878 5.53119 19.3314 5.53119 19.8887C5.53119 19.9067 5.5307 19.9244 5.5298 19.9421L11.1865 22.2852C11.3716 22.0796 11.6397 21.9502 11.9375 21.9502C12.2353 21.9502 12.5034 22.0796 12.6885 22.2852L18.3452 19.9421C18.3443 19.9244 18.3438 19.9067 18.3438 19.8887C18.3438 19.3314 18.7972 18.878 19.3546 18.878C19.9119 18.878 20.3653 19.3314 20.3653 19.8887C20.3653 20.446 19.9119 20.8995 19.3546 20.8995C19.0568 20.8995 18.7887 20.7701 18.6035 20.5645L12.9468 22.9075C12.9478 22.9253 12.9482 22.943 12.9482 22.9609C12.9482 23.5182 12.4948 23.9717 11.9375 23.9717V23.9717ZM11.9375 22.624C11.7517 22.624 11.6006 22.7751 11.6006 22.9609C11.6006 23.1467 11.7517 23.2979 11.9375 23.2979C12.1233 23.2979 12.2744 23.1467 12.2744 22.9609C12.2744 22.7751 12.1233 22.624 11.9375 22.624ZM19.3545 19.5518C19.1687 19.5518 19.0176 19.7029 19.0176 19.8887C19.0176 20.0745 19.1687 20.2256 19.3545 20.2256C19.5403 20.2256 19.6914 20.0745 19.6914 19.8887C19.6914 19.7029 19.5403 19.5518 19.3545 19.5518ZM4.52049 19.5518C4.3347 19.5518 4.18358 19.7029 4.18358 19.8887C4.18358 20.0745 4.3347 20.2256 4.52049 20.2256C4.70629 20.2256 4.85741 20.0745 4.85741 19.8887C4.85741 19.7029 4.70625 19.5518 4.52049 19.5518ZM11.9375 19.9287C7.82567 19.9287 4.48047 16.5835 4.48047 12.4717C4.48047 8.35985 7.82567 5.01465 11.9375 5.01465C13.3952 5.01465 14.8072 5.4353 16.0211 6.23118C16.1767 6.3332 16.2201 6.54208 16.1181 6.69769C16.0161 6.85335 15.8071 6.8967 15.6516 6.79472C15.2709 6.54514 14.8688 6.33616 14.451 6.16941C14.7532 6.47645 15.0348 6.84176 15.2905 7.26178C15.4497 7.52322 15.5956 7.80075 15.7275 8.0918H17.1187C16.9516 7.89522 16.7722 7.70668 16.5809 7.5269C16.4452 7.39951 16.4386 7.18631 16.566 7.05069C16.6934 6.91498 16.9067 6.90837 17.0422 7.03582C18.5372 8.44012 19.3945 10.4214 19.3945 12.4717C19.3945 16.5835 16.0493 19.9287 11.9375 19.9287ZM12.2744 16.8516V19.2307C13.1857 19.0992 14.0421 18.4364 14.715 17.3311C14.8088 17.1772 14.8974 17.0173 14.981 16.8516H12.2744ZM8.89404 16.8516C8.97755 17.0172 9.06623 17.1772 9.15998 17.3311C9.83287 18.4364 10.6893 19.0992 11.6006 19.2307V16.8516H8.89404ZM15.7275 16.8516C15.5956 17.1426 15.4498 17.4201 15.2906 17.6816C15.0356 18.1003 14.755 18.4647 14.4538 18.7711C15.4905 18.3554 16.4021 17.6906 17.1132 16.8516H15.7275V16.8516ZM6.76174 16.8516C7.47289 17.6906 8.38445 18.3554 9.42116 18.771C9.12 18.4646 8.83933 18.1002 8.5844 17.6815C8.42519 17.4201 8.27933 17.1426 8.14744 16.8515H6.76174V16.8516ZM15.9993 16.1777H17.6165C18.2568 15.1999 18.6515 14.0473 18.7124 12.8086H16.6048C16.5719 14.0081 16.3632 15.1578 15.9993 16.1777ZM12.2744 16.1777H15.2806C15.6711 15.1765 15.8956 14.0222 15.9307 12.8086H12.2744V16.1777ZM8.59437 16.1777H11.6006V12.8086H7.94426C7.97939 14.0222 8.20391 15.1765 8.59437 16.1777ZM6.25852 16.1777H7.87571C7.51171 15.1578 7.30313 14.0081 7.27021 12.8086H5.16256C5.22348 14.0473 5.61825 15.1999 6.25852 16.1777ZM16.6048 12.1348H18.7126C18.654 10.9164 18.2782 9.76383 17.6234 8.76562H15.9993C16.3632 9.78553 16.5719 10.9353 16.6048 12.1348V12.1348ZM12.2744 12.1348H15.9307C15.8957 10.9211 15.6711 9.76689 15.2806 8.76562H12.2744V9.55176C12.2744 9.73787 12.1236 9.88867 11.9375 9.88867C11.7514 9.88867 11.6006 9.73787 11.6006 9.55176V8.76562H8.59437C8.20391 9.76689 7.97939 10.9211 7.94426 12.1348H11.6006V10.8994C11.6006 10.7133 11.7514 10.5625 11.9375 10.5625C12.1236 10.5625 12.2744 10.7133 12.2744 10.8994V12.1348ZM5.16256 12.1348H7.27021C7.30313 10.9353 7.51175 9.78553 7.87571 8.76562H6.25852C5.61825 9.74348 5.22348 10.8961 5.16256 12.1348V12.1348ZM12.2744 8.0918H14.981C14.8974 7.92613 14.8088 7.76616 14.715 7.61221C14.0421 6.50695 13.1857 5.84413 12.2744 5.71269V8.0918ZM8.89404 8.0918H11.6006V5.71269C10.6893 5.84413 9.83287 6.507 9.15998 7.61221C9.06623 7.76616 8.97755 7.92613 8.89404 8.0918V8.0918ZM6.76174 8.0918H8.14749C8.27938 7.80075 8.42524 7.52327 8.58444 7.26178C8.83937 6.8431 9.12004 6.4787 9.4212 6.17229C8.38445 6.58795 7.47289 7.25275 6.76174 8.0918V8.0918ZM20.0808 18.472C20.0378 18.472 19.9941 18.4637 19.952 18.4462C19.7801 18.375 19.6984 18.178 19.7697 18.0061L21.751 13.2227C21.5454 13.0376 21.416 12.7695 21.416 12.4717C21.416 12.1739 21.5454 11.9058 21.751 11.7207L19.408 6.06398C19.3902 6.06492 19.3725 6.06537 19.3546 6.06537C18.7972 6.06537 18.3438 5.61193 18.3438 5.05463C18.3438 4.49733 18.7972 4.04389 19.3546 4.04389C19.9119 4.04389 20.3653 4.49733 20.3653 5.05463C20.3653 5.35242 20.2359 5.62051 20.0303 5.80563L22.3733 11.4623C22.3911 11.4614 22.4088 11.4609 22.4268 11.4609C22.9841 11.4609 23.4375 11.9144 23.4375 12.4717C23.4375 13.029 22.9841 13.4824 22.4268 13.4824C22.4088 13.4824 22.391 13.4819 22.3733 13.481L20.3922 18.2639C20.3385 18.3936 20.213 18.472 20.0808 18.472V18.472ZM22.4268 12.1348C22.241 12.1348 22.0898 12.2859 22.0898 12.4717C22.0898 12.6575 22.241 12.8086 22.4268 12.8086C22.6126 12.8086 22.7637 12.6575 22.7637 12.4717C22.7637 12.2859 22.6126 12.1348 22.4268 12.1348ZM19.3545 4.71776C19.1687 4.71776 19.0176 4.86888 19.0176 5.05467C19.0176 5.24047 19.1687 5.39159 19.3545 5.39159C19.5403 5.39159 19.6914 5.24047 19.6914 5.05467C19.6914 4.86888 19.5403 4.71776 19.3545 4.71776ZM3.7942 18.472C3.66199 18.472 3.53657 18.3937 3.4828 18.2639L1.50165 13.481C1.48391 13.482 1.46617 13.4824 1.44824 13.4824C0.890941 13.4824 0.4375 13.029 0.4375 12.4717C0.4375 11.9144 0.890941 11.4609 1.44824 11.4609C1.46617 11.4609 1.48396 11.4614 1.50165 11.4623L3.84469 5.80563C3.63913 5.62051 3.50971 5.35242 3.50971 5.05463C3.50971 4.49733 3.96315 4.04389 4.52045 4.04389C4.81824 4.04389 5.08633 4.17331 5.27145 4.37887L10.9282 2.03583C10.9272 2.01809 10.9268 2.00035 10.9268 1.98242C10.9268 1.42512 11.3802 0.97168 11.9375 0.97168C12.4948 0.97168 12.9482 1.42512 12.9482 1.98242C12.9482 2.00035 12.9477 2.01813 12.9468 2.03583L17.7364 4.01972C17.9083 4.09092 17.99 4.28799 17.9187 4.45991C17.8475 4.63182 17.6504 4.71358 17.4785 4.64225L12.6885 2.65818C12.5034 2.8637 12.2352 2.99316 11.9375 2.99316C11.6397 2.99316 11.3716 2.86374 11.1865 2.65818L5.5298 5.00122C5.53074 5.01896 5.53119 5.03671 5.53119 5.05463C5.53119 5.61193 5.07775 6.06537 4.52045 6.06537C4.50253 6.06537 4.48474 6.06488 4.46704 6.06398L2.124 11.7207C2.32956 11.9058 2.45898 12.1739 2.45898 12.4717C2.45898 12.7695 2.32956 13.0376 2.124 13.2227L4.10528 18.0061C4.17653 18.178 4.0949 18.375 3.92294 18.4462C3.88081 18.4637 3.83714 18.472 3.7942 18.472V18.472ZM1.44824 12.1348C1.26245 12.1348 1.11133 12.2859 1.11133 12.4717C1.11133 12.6575 1.26245 12.8086 1.44824 12.8086C1.63404 12.8086 1.78516 12.6575 1.78516 12.4717C1.78516 12.2859 1.63404 12.1348 1.44824 12.1348ZM4.52049 4.71776C4.3347 4.71776 4.18358 4.86888 4.18358 5.05467C4.18358 5.24047 4.3347 5.39159 4.52049 5.39159C4.70629 5.39159 4.85741 5.24047 4.85741 5.05467C4.85741 4.86888 4.70625 4.71776 4.52049 4.71776ZM11.9375 1.64551C11.7517 1.64551 11.6006 1.79662 11.6006 1.98242C11.6006 2.16822 11.7517 2.31934 11.9375 2.31934C12.1233 2.31934 12.2744 2.16822 12.2744 1.98242C12.2744 1.79662 12.1233 1.64551 11.9375 1.64551Z" fill="white"/>
</svg>
