<svg width="58" height="93" viewBox="0 0 58 93" fill="none" xmlns="http://www.w3.org/2000/svg">
<g filter="url(#filter0_d)">
<path d="M51.1611 6.89697H53.1611V4.89697H51.1611V6.89697ZM51.1611 86.98V88.98H53.1611V86.98H51.1611ZM29.0322 86.98H27.0322V88.98H29.0322V86.98ZM29.0322 34.5044H31.0322V30.4723L27.8221 32.9121L29.0322 34.5044ZM18.6123 41.1108L17.7179 39.322L17.7102 39.3258L18.6123 41.1108ZM6.04395 45.9448H4.04395V48.6457L6.62735 47.8578L6.04395 45.9448ZM6.04395 28.0054L5.43074 26.1017L4.04395 26.5484V28.0054H6.04395ZM33.0605 6.89697V4.89697H31.7918L31.2512 6.04475L33.0605 6.89697ZM49.1611 6.89697V86.98H53.1611V6.89697H49.1611ZM51.1611 84.98H29.0322V88.98H51.1611V84.98ZM31.0322 86.98V34.5044H27.0322V86.98H31.0322ZM27.8221 32.9121C24.3218 35.5723 20.9536 37.7041 17.7179 39.322L19.5067 42.8997C23.0027 41.1517 26.5812 38.8792 30.2424 36.0967L27.8221 32.9121ZM17.7102 39.3258C14.5148 40.9407 10.4408 42.513 5.46054 44.0318L6.62735 47.8578C11.7447 46.2972 16.0496 44.6468 19.5144 42.8958L17.7102 39.3258ZM8.04395 45.9448V28.0054H4.04395V45.9448H8.04395ZM6.65715 29.909C14.2409 27.4662 20.2786 24.4864 24.6583 20.9064L22.1268 17.8094C18.2709 20.9612 12.7428 23.7464 5.43074 26.1017L6.65715 29.909ZM24.6583 20.9064C29.0133 17.3467 32.4189 12.9528 34.8699 7.7492L31.2512 6.04475C29.0472 10.724 26.0075 14.6374 22.1268 17.8094L24.6583 20.9064ZM33.0605 8.89697H51.1611V4.89697H33.0605V8.89697Z" fill="#AE179F"/>
</g>
<defs>
<filter id="filter0_d" x="0.0429688" y="0.896973" width="57.1172" height="92.083" filterUnits="userSpaceOnUse" color-interpolation-filters="sRGB">
<feFlood flood-opacity="0" result="BackgroundImageFix"/>
<feColorMatrix in="SourceAlpha" type="matrix" values="0 0 0 0 0 0 0 0 0 0 0 0 0 0 0 0 0 0 127 0"/>
<feOffset/>
<feGaussianBlur stdDeviation="2"/>
<feColorMatrix type="matrix" values="0 0 0 0 0.682353 0 0 0 0 0.0901961 0 0 0 0 0.623529 0 0 0 0.25 0"/>
<feBlend mode="normal" in2="BackgroundImageFix" result="effect1_dropShadow"/>
<feBlend mode="normal" in="SourceGraphic" in2="effect1_dropShadow" result="shape"/>
</filter>
</defs>
</svg>
