<svg width="79" height="93" viewBox="0 0 79 93" fill="none" xmlns="http://www.w3.org/2000/svg">
<g filter="url(#filter0_d)">
<path d="M72.6094 86.98V88.98H74.6094V86.98H72.6094ZM6.97461 86.98L4.98794 86.7495L4.72915 88.98H6.97461V86.98ZM13.7959 68.7183L12.1334 67.6065L12.1318 67.6089L13.7959 68.7183ZM35.2803 48.4692L36.4706 50.0765L36.4731 50.0746L35.2803 48.4692ZM47.5801 24.4604L46.1805 25.8892L46.1952 25.9036L46.2103 25.9177L47.5801 24.4604ZM34.0449 24.5142L32.6451 23.0857L32.6378 23.0928L32.6307 23.0999L34.0449 24.5142ZM30.5 33.8062L30.3388 35.7996L32.2245 35.9522L32.4815 34.0778L30.5 33.8062ZM8.58594 32.0337L6.60513 31.7573L6.31224 33.8563L8.4247 34.0272L8.58594 32.0337ZM13.3125 17.6392L14.9766 18.7486L14.9819 18.7406L13.3125 17.6392ZM22.9805 9.68994L23.7854 11.5208L23.7927 11.5176L22.9805 9.68994ZM58.2686 9.52881L57.5071 11.3782L57.5125 11.3804L58.2686 9.52881ZM68.3662 17.6392L66.7021 18.7486L66.7084 18.758L66.7148 18.7674L68.3662 17.6392ZM67.8291 43.5815L66.1503 42.4945L66.1441 42.5042L67.8291 43.5815ZM52.5215 57.9761L53.6585 59.6214L53.6664 59.616L53.6742 59.6105L52.5215 57.9761ZM43.6592 64.3677L42.4008 62.8132L42.3916 62.8206L42.3825 62.8282L43.6592 64.3677ZM38.4492 69.1479L37.0478 67.7211L33.5586 71.1479H38.4492V69.1479ZM72.6094 69.1479H74.6094V67.1479H72.6094V69.1479ZM72.6094 84.98H6.97461V88.98H72.6094V84.98ZM8.96128 87.2105C9.67497 81.0591 11.8312 75.2709 15.46 69.8277L12.1318 67.6089C8.16949 73.5523 5.77815 79.9386 4.98794 86.7495L8.96128 87.2105ZM15.4584 69.8301C19.0939 64.3939 26.0292 57.8095 36.4706 50.0764L34.0899 46.862C23.5483 54.6694 16.1607 61.5843 12.1334 67.6065L15.4584 69.8301ZM36.4731 50.0746C42.8645 45.3256 47.2056 41.5449 49.1996 38.7932L45.9606 36.4461C44.3738 38.6358 40.515 42.0881 34.0875 46.8639L36.4731 50.0746ZM49.1996 38.7932C51.1467 36.1062 52.2656 33.3569 52.2656 30.5835H48.2656C48.2656 32.2502 47.5942 34.1917 45.9606 36.4461L49.1996 38.7932ZM52.2656 30.5835C52.2656 27.6176 51.1314 25.0538 48.9499 23.0032L46.2103 25.9177C47.6095 27.233 48.2656 28.7512 48.2656 30.5835H52.2656ZM48.9796 23.0317C46.8146 20.9109 44.0751 19.8823 40.9199 19.8823V23.8823C43.1358 23.8823 44.8364 24.5725 46.1805 25.8892L48.9796 23.0317ZM40.9199 19.8823C37.6687 19.8823 34.8534 20.9216 32.6451 23.0857L35.4448 25.9426C36.8172 24.5976 38.5852 23.8823 40.9199 23.8823V19.8823ZM32.6307 23.0999C30.4034 25.3272 29.1445 28.9685 28.5185 33.5345L32.4815 34.0778C33.0729 29.7636 34.1773 27.2102 35.4591 25.9284L32.6307 23.0999ZM30.6612 31.8127L8.74718 30.0402L8.4247 34.0272L30.3388 35.7996L30.6612 31.8127ZM10.5667 32.3101C11.4037 26.3119 12.9146 21.8415 14.9766 18.7486L11.6484 16.5298C9.12704 20.3118 7.48692 25.4378 6.60513 31.7573L10.5667 32.3101ZM14.9819 18.7406C17.0425 15.6175 19.951 13.2066 23.7854 11.5208L22.1755 7.85908C17.7027 9.82558 14.1658 12.7142 11.6431 16.5377L14.9819 18.7406ZM23.7927 11.5176C27.6176 9.81762 33.082 8.89697 40.3291 8.89697V4.89697C32.8236 4.89697 26.7222 5.8383 22.1682 7.86232L23.7927 11.5176ZM40.3291 8.89697C47.9182 8.89697 53.5966 9.76798 57.5071 11.3782L59.0301 7.67945C54.4184 5.78052 48.1371 4.89697 40.3291 4.89697V8.89697ZM57.5125 11.3804C61.4617 12.993 64.502 15.4483 66.7021 18.7486L70.0303 16.5298C67.3607 12.5253 63.6692 9.57374 59.0246 7.67722L57.5125 11.3804ZM66.7148 18.7674C68.9512 22.041 70.0723 25.7095 70.0723 29.8315H74.0723C74.0723 24.9301 72.7226 20.4704 70.0176 16.511L66.7148 18.7674ZM70.0723 29.8315C70.0723 34.2113 68.7879 38.4212 66.1503 42.4945L69.5079 44.6686C72.5278 40.0049 74.0723 35.0482 74.0723 29.8315H70.0723ZM66.1441 42.5042C63.5583 46.5486 58.7038 51.1682 51.3687 56.3417L53.6742 59.6105C61.1634 54.3282 66.514 49.3514 69.5141 44.6589L66.1441 42.5042ZM51.3845 56.3307C46.9868 59.3698 43.9722 61.5411 42.4008 62.8132L44.9176 65.9222C46.3539 64.7594 49.2476 62.6696 53.6585 59.6214L51.3845 56.3307ZM42.3825 62.8282C40.8563 64.0938 39.0762 65.7289 37.0478 67.7211L39.8506 70.5748C41.8327 68.6282 43.5259 67.0765 44.9359 65.9072L42.3825 62.8282ZM38.4492 71.1479H72.6094V67.1479H38.4492V71.1479ZM70.6094 69.1479V86.98H74.6094V69.1479H70.6094Z" fill="#F23865"/>
</g>
<defs>
<filter id="filter0_d" x="0.728516" y="0.896973" width="77.8802" height="92.083" filterUnits="userSpaceOnUse" color-interpolation-filters="sRGB">
<feFlood flood-opacity="0" result="BackgroundImageFix"/>
<feColorMatrix in="SourceAlpha" type="matrix" values="0 0 0 0 0 0 0 0 0 0 0 0 0 0 0 0 0 0 127 0"/>
<feOffset/>
<feGaussianBlur stdDeviation="2"/>
<feColorMatrix type="matrix" values="0 0 0 0 0.94902 0 0 0 0 0.34902 0 0 0 0 0.219608 0 0 0 0.25 0"/>
<feBlend mode="normal" in2="BackgroundImageFix" result="effect1_dropShadow"/>
<feBlend mode="normal" in="SourceGraphic" in2="effect1_dropShadow" result="shape"/>
</filter>
</defs>
</svg>
