<svg width="78" height="95" viewBox="0 0 78 95" fill="none" xmlns="http://www.w3.org/2000/svg">
<g filter="url(#filter0_d)">
<path d="M28.8018 31.0151L28.4489 32.9838L30.4808 33.3479L30.7806 31.3056L28.8018 31.0151ZM8.12305 27.3091L6.18781 26.8042L5.64206 28.8963L7.77023 29.2777L8.12305 27.3091ZM18.0059 12.1626L16.8423 10.5359L16.8366 10.54L18.0059 12.1626ZM61.082 12.646L62.3648 11.1115L61.082 12.646ZM56.7314 43.5835L55.7644 41.8328L51.2964 44.3009L56.2518 45.5251L56.7314 43.5835ZM63.7139 46.2153L62.6573 47.9135L62.6644 47.9178L63.7139 46.2153ZM69.7832 52.6069L68.0238 53.558L68.0315 53.5722L68.0394 53.5863L69.7832 52.6069ZM68.3867 75.2192L70.1223 76.2131L70.1259 76.2067L68.3867 75.2192ZM58.0205 84.9409L58.915 86.7298L58.9262 86.7241L58.0205 84.9409ZM23.2695 85.8003L22.5129 87.6516L22.5185 87.6539L23.2695 85.8003ZM13.0645 78.4419L11.5127 79.7037L11.5203 79.713L11.528 79.7223L13.0645 78.4419ZM6.94141 66.1958L6.67836 64.2132L4.36851 64.5196L5.02156 66.7563L6.94141 66.1958ZM28.8018 63.2954L30.7647 62.9124L30.4043 61.0653L28.5387 61.3128L28.8018 63.2954ZM32.7764 72.48L31.3913 73.9228L31.406 73.9369L31.421 73.9507L32.7764 72.48ZM47.0098 71.7817L45.5355 70.4303L45.5293 70.437L45.5232 70.4438L47.0098 71.7817ZM47.1172 54.7017L45.6516 56.0626L45.6581 56.0695L45.6646 56.0764L47.1172 54.7017ZM32.4004 52.9829L30.4056 52.839L30.1997 55.6917L32.9498 54.906L32.4004 52.9829ZM33.5283 37.353L33.8193 35.3743L31.6885 35.061L31.5335 37.2091L33.5283 37.353ZM43.5186 34.8823L42.1453 33.4283L42.1385 33.4347L42.1318 33.4412L43.5186 34.8823ZM32.0781 22.8511L33.4598 24.2971L33.4681 24.2891L33.4764 24.2811L32.0781 22.8511ZM29.1546 29.0465L8.47587 25.3405L7.77023 29.2777L28.4489 32.9838L29.1546 29.0465ZM10.0583 27.8139C11.6763 21.6116 14.7334 16.9859 19.1751 13.7852L16.8366 10.54C11.5387 14.3576 8.00733 19.8294 6.18781 26.8042L10.0583 27.8139ZM19.1695 13.7893C23.6073 10.6147 30.0657 8.89893 38.792 8.89893V4.89893C29.6147 4.89893 22.2156 6.69223 16.8423 10.5359L19.1695 13.7893ZM38.792 8.89893C48.907 8.89893 55.7564 10.8009 59.7993 14.1805L62.3648 11.1115C57.2409 6.82834 49.2304 4.89893 38.792 4.89893V8.89893ZM59.7993 14.1805C63.9437 17.6449 65.957 21.906 65.957 27.0942H69.957C69.957 20.6809 67.387 15.3098 62.3648 11.1115L59.7993 14.1805ZM65.957 27.0942C65.957 30.1065 65.1401 32.7944 63.5066 35.2132L66.8215 37.4518C68.912 34.3563 69.957 30.8853 69.957 27.0942H65.957ZM63.5066 35.2132C61.8655 37.6433 59.3253 39.8658 55.7644 41.8328L57.6985 45.3342C61.6571 43.1475 64.7386 40.5361 66.8215 37.4518L63.5066 35.2132ZM56.2518 45.5251C59.2061 46.255 61.3026 47.0705 62.6573 47.9134L64.7705 44.5172C62.9025 43.3549 60.3441 42.4159 57.2111 41.6419L56.2518 45.5251ZM62.6644 47.9178C64.986 49.349 66.7616 51.2228 68.0238 53.558L71.5426 51.6559C69.9403 48.6916 67.6696 46.3043 64.7634 44.5128L62.6644 47.9178ZM68.0394 53.5863C69.3065 55.8424 69.9854 58.6226 69.9854 62.0063H73.9854C73.9854 58.0854 73.1961 54.5994 71.527 51.6275L68.0394 53.5863ZM69.9854 62.0063C69.9854 66.2225 68.8863 70.2888 66.6475 74.2317L70.1259 76.2067C72.6853 71.6992 73.9854 66.9568 73.9854 62.0063H69.9854ZM66.6511 74.2254C64.4554 78.0597 61.2965 81.0337 57.1148 83.1578L58.9262 86.7241C63.7679 84.2648 67.5198 80.7577 70.1223 76.2131L66.6511 74.2254ZM57.1261 83.1521C52.9893 85.2205 47.4031 86.3247 40.2422 86.3247V90.3247C47.7623 90.3247 54.0283 89.1731 58.9149 86.7298L57.1261 83.1521ZM40.2422 86.3247C33.2024 86.3247 27.8358 85.4925 24.0206 83.9467L22.5185 87.6539C27.0106 89.474 32.959 90.3247 40.2422 90.3247V86.3247ZM24.0262 83.9489C20.1922 82.382 17.0644 80.1178 14.6009 77.1615L11.528 79.7223C14.4356 83.2113 18.1112 85.8527 22.5129 87.6516L24.0262 83.9489ZM14.6162 77.1801C12.1669 74.1681 10.2346 70.339 8.86125 65.6353L5.02156 66.7563C6.51279 71.8638 8.66252 76.1987 11.5127 79.7037L14.6162 77.1801ZM7.20446 68.1784L29.0648 65.278L28.5387 61.3128L6.67836 64.2132L7.20446 68.1784ZM26.8388 63.6784C27.7215 68.2023 29.147 71.7682 31.3913 73.9228L34.1614 71.0372C32.825 69.7542 31.6008 67.1971 30.7647 62.9124L26.8388 63.6784ZM31.421 73.9507C33.6633 76.0171 36.4774 77.0044 39.7051 77.0044V73.0044C37.3468 73.0044 35.5418 72.3087 34.1317 71.0093L31.421 73.9507ZM39.7051 77.0044C43.198 77.0044 46.1767 75.6971 48.4964 73.1197L45.5232 70.4438C43.9757 72.1633 42.0846 73.0044 39.7051 73.0044V77.0044ZM48.4841 73.1332C50.8647 70.5361 51.9639 67.1492 51.9639 63.188H47.9639C47.9639 66.3883 47.0936 68.7305 45.5355 70.4303L48.4841 73.1332ZM51.9639 63.188C51.9639 59.1939 50.9205 55.8107 48.5698 53.3269L45.6646 56.0764C47.1094 57.603 47.9639 59.8774 47.9639 63.188H51.9639ZM48.5828 53.3408C46.2748 50.8553 43.1614 49.6938 39.4902 49.6938V53.6938C42.2644 53.6938 44.2356 54.5376 45.6516 56.0626L48.5828 53.3408ZM39.4902 49.6938C37.492 49.6938 34.9168 50.1839 31.8509 51.0599L32.9498 54.906C35.8996 54.0632 38.051 53.6938 39.4902 53.6938V49.6938ZM34.3952 53.1269L35.5231 37.497L31.5335 37.2091L30.4056 52.839L34.3952 53.1269ZM33.2373 39.3317C34.4874 39.5156 35.5491 39.6216 36.375 39.6216V35.6216C35.8402 35.6216 35.0041 35.5485 33.8193 35.3743L33.2373 39.3317ZM36.375 39.6216C39.707 39.6216 42.6006 38.5412 44.9053 36.3235L42.1318 33.4412C40.6409 34.8758 38.7721 35.6216 36.375 35.6216V39.6216ZM44.8918 36.3363C47.1981 34.1582 48.4189 31.4766 48.4189 28.3833H44.4189C44.4189 30.303 43.7062 31.9541 42.1453 33.4283L44.8918 36.3363ZM48.4189 28.3833C48.4189 25.5589 47.5604 23.0977 45.6847 21.222L42.8563 24.0504C43.8452 25.0393 44.4189 26.4095 44.4189 28.3833H48.4189ZM45.6847 21.222C43.7925 19.3298 41.2658 18.4878 38.3623 18.4878V22.4878C40.4719 22.4878 41.8839 23.0781 42.8563 24.0504L45.6847 21.222ZM38.3623 18.4878C35.343 18.4878 32.7194 19.4269 30.6799 21.4211L33.4764 24.2811C34.6595 23.1242 36.2254 22.4878 38.3623 22.4878V18.4878ZM30.6964 21.4051C28.5958 23.4124 27.4162 26.683 26.823 30.7247L30.7806 31.3056C31.3331 27.5413 32.3378 25.3692 33.4598 24.2971L30.6964 21.4051Z" fill="#DE5285"/>
</g>
<defs>
<filter id="filter0_d" x="0.369141" y="0.898926" width="77.6168" height="93.4258" filterUnits="userSpaceOnUse" color-interpolation-filters="sRGB">
<feFlood flood-opacity="0" result="BackgroundImageFix"/>
<feColorMatrix in="SourceAlpha" type="matrix" values="0 0 0 0 0 0 0 0 0 0 0 0 0 0 0 0 0 0 127 0"/>
<feOffset/>
<feGaussianBlur stdDeviation="2"/>
<feColorMatrix type="matrix" values="0 0 0 0 0.870588 0 0 0 0 0.321569 0 0 0 0 0.521569 0 0 0 0.25 0"/>
<feBlend mode="normal" in2="BackgroundImageFix" result="effect1_dropShadow"/>
<feBlend mode="normal" in="SourceGraphic" in2="effect1_dropShadow" result="shape"/>
</filter>
</defs>
</svg>
