<svg width="82" height="93" viewBox="0 0 82 93" fill="none" xmlns="http://www.w3.org/2000/svg">
<g filter="url(#filter0_d)">
<path d="M46.1836 72.2651H48.1836V70.2651H46.1836V72.2651ZM6.33008 72.2651H4.33008V74.2651H6.33008V72.2651ZM6.33008 54.272L4.79963 52.9845L4.33008 53.5426V54.272H6.33008ZM46.1836 6.89893V4.89893H45.2525L44.6531 5.6114L46.1836 6.89893ZM65.251 6.89893H67.251V4.89893H65.251V6.89893ZM65.251 55.2925H63.251V57.2925H65.251V55.2925ZM75.1338 55.2925H77.1338V53.2925H75.1338V55.2925ZM75.1338 72.2651V74.2651H77.1338V72.2651H75.1338ZM65.251 72.2651V70.2651H63.251V72.2651H65.251ZM65.251 86.9819V88.9819H67.251V86.9819H65.251ZM46.1836 86.9819H44.1836V88.9819H46.1836V86.9819ZM46.1836 55.2925V57.2925H48.1836V55.2925H46.1836ZM46.1836 30.5317H48.1836V25.0923L44.66 29.2362L46.1836 30.5317ZM25.1289 55.2925L23.6053 53.9969L20.803 57.2925H25.1289V55.2925ZM46.1836 70.2651H6.33008V74.2651H46.1836V70.2651ZM8.33008 72.2651V54.272H4.33008V72.2651H8.33008ZM7.86053 55.5595L47.714 8.18645L44.6531 5.6114L4.79963 52.9845L7.86053 55.5595ZM46.1836 8.89893H65.251V4.89893H46.1836V8.89893ZM63.251 6.89893V55.2925H67.251V6.89893H63.251ZM65.251 57.2925H75.1338V53.2925H65.251V57.2925ZM73.1338 55.2925V72.2651H77.1338V55.2925H73.1338ZM75.1338 70.2651H65.251V74.2651H75.1338V70.2651ZM63.251 72.2651V86.9819H67.251V72.2651H63.251ZM65.251 84.9819H46.1836V88.9819H65.251V84.9819ZM48.1836 86.9819V72.2651H44.1836V86.9819H48.1836ZM48.1836 55.2925V30.5317H44.1836V55.2925H48.1836ZM44.66 29.2362L23.6053 53.9969L26.6525 56.5881L47.7072 31.8273L44.66 29.2362ZM25.1289 57.2925H46.1836V53.2925H25.1289V57.2925Z" fill="#F55A2D"/>
</g>
<defs>
<filter id="filter0_d" x="0.330078" y="0.898926" width="80.8037" height="92.083" filterUnits="userSpaceOnUse" color-interpolation-filters="sRGB">
<feFlood flood-opacity="0" result="BackgroundImageFix"/>
<feColorMatrix in="SourceAlpha" type="matrix" values="0 0 0 0 0 0 0 0 0 0 0 0 0 0 0 0 0 0 127 0"/>
<feOffset/>
<feGaussianBlur stdDeviation="2"/>
<feColorMatrix type="matrix" values="0 0 0 0 0.870588 0 0 0 0 0.321569 0 0 0 0 0.521569 0 0 0 0.25 0"/>
<feBlend mode="normal" in2="BackgroundImageFix" result="effect1_dropShadow"/>
<feBlend mode="normal" in="SourceGraphic" in2="effect1_dropShadow" result="shape"/>
</filter>
</defs>
</svg>
