<svg width="22" height="18" viewBox="0 0 22 18" fill="none" xmlns="http://www.w3.org/2000/svg">
<path fill-rule="evenodd" clip-rule="evenodd" d="M16.5 0.5C17.67 0.5 18.89 0.65 20 1C20.75 1.25 21.4 1.55 22 2V16.6C22 16.85 21.75 17.1 21.5 17.1C21.4 17.1 21.35 17.1 21.25 17.05C19.85 16.3 18.15 16 16.5 16C14.8 16 12.35 16.65 11 17.5C9.55 16.4 7.45 16 5.5 16C4.05 16 2.1 16.45 0.75 17.1C0.7 17.1 0.6625 17.1125 0.625 17.125C0.5875 17.1375 0.55 17.15 0.5 17.15C0.25 17.15 0 16.9 0 16.65V2C1.45 0.9 3.55 0.5 5.5 0.5C7.45 0.5 9.55 0.9 11 2C12.45 0.9 14.55 0.5 16.5 0.5ZM16.5 14C17.7 14 18.9 14.15 20 14.5V3C18.9 2.65 17.7 2.5 16.5 2.5C14.8 2.5 12.35 3.15 11 4V15.5C12.35 14.65 14.8 14 16.5 14Z" fill="#301862" fill-opacity="0.7"/>
</svg>
