<svg width="41" height="40" viewBox="0 0 41 40" fill="none" xmlns="http://www.w3.org/2000/svg">
<g clip-path="url(#clip0)">
<path d="M12.1445 18.4017C12.1445 22.8265 15.7444 26.4264 20.1692 26.4264C24.5941 26.4264 28.1939 22.8265 28.1939 18.4017C28.1939 13.9768 24.5941 10.377 20.1692 10.377C15.7444 10.377 12.1445 13.9768 12.1445 18.4017ZM27.0152 18.4017C27.0152 22.1765 23.9441 25.2477 20.1692 25.2477C16.3944 25.2477 13.3232 22.1765 13.3232 18.4017C13.3232 14.6267 16.3944 11.5556 20.1692 11.5556C23.9441 11.5556 27.0152 14.6267 27.0152 18.4017Z" fill="black"/>
<path d="M15.7109 18.4016C15.7109 20.8602 17.7111 22.8604 20.1697 22.8604C22.6283 22.8604 24.6285 20.8602 24.6285 18.4016C24.6285 15.9431 22.6283 13.9429 20.1697 13.9429C17.7111 13.9429 15.7109 15.943 15.7109 18.4016ZM23.4498 18.4016C23.4498 20.2103 21.9783 21.6817 20.1697 21.6817C18.3611 21.6817 16.8896 20.2102 16.8896 18.4016C16.8896 16.593 18.3611 15.1216 20.1697 15.1216C21.9783 15.1216 23.4498 16.593 23.4498 18.4016Z" fill="black"/>
<path d="M31.1707 36.3444H28.4821L27.8768 31.5176C32.3672 28.869 35.3868 23.9818 35.3868 18.4018C35.3868 14.9271 34.2464 11.6556 32.0891 8.9411C31.8867 8.68627 31.5158 8.64391 31.2611 8.84641C31.0063 9.04891 30.9639 9.41965 31.1664 9.67448C33.1563 12.1783 34.2081 15.1961 34.2081 18.4018C34.2081 26.1424 27.9105 32.4399 20.17 32.4399C12.4294 32.4399 6.13182 26.1425 6.13182 18.4018C6.13182 15.1824 7.24891 12.0372 9.27736 9.54554C11.1692 7.22162 13.7725 5.55361 16.6513 4.80891V6.9671C16.6513 7.96334 17.4618 8.77388 18.4581 8.77388H21.8817C22.8779 8.77388 23.6884 7.96334 23.6884 6.9671V4.80923C25.8554 5.36927 27.8724 6.45013 29.5486 7.95611C29.6613 8.05724 29.802 8.10706 29.9423 8.10706C30.1038 8.10706 30.2646 8.04113 30.3809 7.91155C30.5985 7.66945 30.5786 7.29682 30.3365 7.07931C28.4439 5.37901 26.1498 4.17933 23.6884 3.59604V3.51856C23.6885 1.57843 22.11 0 20.17 0C18.2299 0 16.6514 1.57843 16.6514 3.51856V3.59462C13.4133 4.36227 10.4778 6.20402 8.36332 8.80139C6.16427 11.5026 4.95312 14.9121 4.95312 18.4018C4.95312 23.9819 7.9727 28.869 12.4631 31.5177L11.8578 36.3445H9.31838C8.19414 36.3445 7.27955 37.2591 7.27955 38.3834V39.4107C7.27955 39.7361 7.54334 40 7.8689 40H8.66758C8.99314 40 9.25693 39.7361 9.25693 39.4107C9.25693 39.0852 8.99314 38.8213 8.66758 38.8213H8.45825V38.3834C8.45825 37.9091 8.84407 37.5232 9.31838 37.5232H31.1707C31.645 37.5232 32.0308 37.9091 32.0308 38.3834V38.8213H11.025C10.6994 38.8213 10.4356 39.0852 10.4356 39.4107C10.4356 39.7361 10.6994 40 11.025 40H32.6201C32.9457 40 33.2095 39.7361 33.2095 39.4107V38.3834C33.2095 37.2591 32.2949 36.3444 31.1707 36.3444ZM17.8301 3.51856C17.8301 2.22836 18.8798 1.17869 20.17 1.17869C21.4602 1.17869 22.5098 2.22836 22.5098 3.51856V6.9671C22.5098 7.3134 22.2281 7.59519 21.8818 7.59519H18.4582C18.1119 7.59519 17.8301 7.3134 17.8301 6.9671V3.51856ZM13.5761 32.1145C15.5721 33.0782 17.8091 33.6186 20.17 33.6186C22.5308 33.6186 24.7678 33.0782 26.7638 32.1145L27.2942 36.3444H13.0457L13.5761 32.1145Z" fill="black"/>
</g>
<defs>
<clipPath id="clip0">
<rect width="40" height="40" fill="white" transform="translate(0.169922)"/>
</clipPath>
</defs>
</svg>
