<svg width="43" height="44" viewBox="0 0 43 44" fill="none" xmlns="http://www.w3.org/2000/svg">
<g clip-path="url(#clip0)">
<path d="M6.18691 16.6759C6.40315 16.1641 6.64268 15.6689 6.90075 15.1928C7.22863 14.5833 7.58907 14.0048 7.97733 13.4549C8.17502 13.1739 8.56098 13.1121 8.83537 13.3145C9.10977 13.5191 9.17023 13.912 8.97261 14.1928C8.6052 14.7119 8.27272 15.2475 7.97273 15.8022C7.81704 16.0879 7.67045 16.3807 7.53329 16.6759H9.77488C10.1167 16.6759 10.3911 16.9569 10.3911 17.3044V20.2873V22.818C10.3911 23.4012 10.2679 23.9559 10.047 24.4583C10.6935 24.7344 11.2446 25.0867 11.6655 25.4939C12.27 26.0747 12.6165 26.7723 12.6165 27.5293V30.6027C12.6165 30.9503 12.3397 31.2336 12.0002 31.2336H8.1797C8.38199 31.5883 8.59822 31.9359 8.82611 32.2716C9.25168 32.8977 9.71664 33.4857 10.2189 34.0309C10.4515 34.2832 10.4398 34.6807 10.191 34.9188C9.94452 35.1569 9.55627 35.1449 9.32371 34.8926C8.7773 34.2951 8.27272 33.6594 7.81696 32.9905C7.43559 32.4286 7.0868 31.843 6.77278 31.2335H0.950203C0.610758 31.2335 0.333984 30.9502 0.333984 30.6026V27.5292C0.333984 26.777 0.675809 26.0865 1.27111 25.5057C1.69431 25.0938 2.25237 24.7367 2.90345 24.4582C2.68254 23.9559 2.55933 23.4011 2.55933 22.8179V20.2873V19.197C2.55933 18.5018 2.83602 17.8709 3.28252 17.4139C3.72893 16.9592 4.34523 16.6758 5.02191 16.6758H6.18691V16.6759ZM38.8786 21.8682L35.6324 20.7421L33.5094 21.8086V22.818C33.5094 23.5727 33.8118 24.2607 34.2976 24.7583C34.7837 25.2559 35.4557 25.5653 36.1928 25.5653C36.9323 25.5653 37.6019 25.2559 38.0903 24.7583C38.5763 24.2608 38.8786 23.5727 38.8786 22.818V21.8682ZM33.5094 20.4112L35.2859 19.5208C35.4324 19.4327 35.6138 19.4089 35.7881 19.4684L38.8786 20.5397V19.1971C38.8786 18.8494 38.7413 18.5353 38.5158 18.3067C38.2925 18.0758 37.9856 17.9353 37.6461 17.9353H34.7394C34.4022 17.9353 34.0953 18.0757 33.8697 18.3067C33.6465 18.5352 33.5092 18.8494 33.5092 19.1971V20.4112H33.5094ZM3.78939 19.6565H9.16087V17.9354H5.02182C4.68468 17.9354 4.37542 18.0758 4.15213 18.3067C3.92892 18.5353 3.7893 18.8495 3.7893 19.1971V19.6565H3.78939ZM9.16087 20.9159H3.78939V22.818C3.78939 23.5727 4.09175 24.2607 4.58009 24.7583C5.06612 25.2559 5.73812 25.5653 6.47525 25.5653C7.2123 25.5653 7.88439 25.2559 8.37034 24.7583C8.85867 24.2608 9.16096 23.5727 9.16096 22.818V20.9159H9.16087ZM24.0197 33.374C23.1407 33.5049 21.7083 33.4906 20.5202 32.417C20.1039 32.6645 19.4458 32.9407 18.6483 32.8741V34.4001C18.6483 35.1548 18.9506 35.8428 19.4389 36.3427C19.9249 36.8402 20.5969 37.1497 21.334 37.1497C22.0734 37.1497 22.7431 36.8402 23.2315 36.3427C23.7174 35.8428 24.0197 35.1548 24.0197 34.4001V33.374ZM18.6483 31.6122C19.5436 31.7408 20.1737 31.1408 20.1737 31.1385L20.176 31.1408L20.19 31.1265C20.4457 30.9004 20.8317 30.9289 21.055 31.1909C22.0176 32.3241 23.3524 32.2407 24.0198 32.1074V30.779C24.0198 30.4338 23.8802 30.1172 23.657 29.8886C23.4337 29.6601 23.1269 29.5172 22.7873 29.5172H19.8806C19.5436 29.5172 19.2342 29.6601 19.0109 29.8886C18.7877 30.1172 18.6482 30.4338 18.6482 30.779V31.6122H18.6483ZM9.35389 25.5273C8.61209 26.3534 7.57275 26.8271 6.47517 26.8271C5.37759 26.8271 4.33818 26.3534 3.59637 25.5296C2.98482 25.763 2.47787 26.0653 2.11751 26.4153C1.76641 26.7581 1.56404 27.139 1.56404 27.5294V29.9743H11.3863V27.5294C11.3863 27.1366 11.1816 26.7533 10.8236 26.4081C10.4631 26.0605 9.96076 25.7606 9.35389 25.5273ZM40.1086 22.818C40.1086 23.4013 39.9854 23.956 39.7645 24.4583C40.4157 24.7368 40.9714 25.0939 41.3946 25.5034C41.9922 26.0844 42.334 26.7747 42.334 27.5294V30.6028C42.334 30.9504 42.0596 31.2337 41.7201 31.2337H35.8742C35.558 31.8217 35.2022 32.3978 34.8139 32.9573C34.3511 33.6215 33.8442 34.2548 33.2977 34.85C33.0652 35.1023 32.6769 35.1143 32.4304 34.8762C32.1839 34.6381 32.1723 34.2406 32.4025 33.9882C32.914 33.4336 33.3861 32.8432 33.814 32.2289C34.0395 31.9051 34.2534 31.5742 34.4557 31.2338H30.6677C30.3282 31.2338 30.0515 30.9505 30.0515 30.6029V27.5295C30.0515 26.7724 30.3979 26.0797 31.0001 25.4965C31.421 25.0893 31.9745 24.7346 32.6233 24.4585C32.4 23.9562 32.2768 23.4015 32.2768 22.8182V19.1972C32.2768 18.5021 32.5558 17.8712 32.9999 17.4142C33.4463 16.9595 34.0625 16.6761 34.7392 16.6761H35.1415C35.0089 16.3857 34.8648 16.1 34.7113 15.819C34.4066 15.2572 34.0649 14.7096 33.6905 14.1859C33.4905 13.9049 33.5488 13.5122 33.8231 13.3075C34.0951 13.1027 34.4788 13.1622 34.6811 13.4431C35.081 14.005 35.4508 14.5954 35.7833 15.2096C36.0414 15.6833 36.2763 16.1737 36.4879 16.676H37.6459C38.3248 16.676 38.9412 16.9594 39.3876 17.4141C39.8317 17.8711 40.1084 18.502 40.1084 19.1971V22.818H40.1086ZM39.0715 25.5296C38.3297 26.3534 37.2926 26.8271 36.1927 26.8271C35.0951 26.8271 34.0581 26.3534 33.314 25.5296C32.7071 25.7606 32.2025 26.0629 31.8421 26.4105C31.4863 26.7556 31.284 27.139 31.284 27.5294V29.9743H41.1038V27.5294C41.1038 27.139 40.9015 26.7581 40.5481 26.4153C40.19 26.0653 39.6831 25.763 39.0715 25.5296ZM25.2498 34.4C25.2498 34.9833 25.1266 35.5403 24.9057 36.0403C25.5568 36.3212 26.1125 36.6759 26.5357 37.0877C26.7659 37.3116 26.9589 37.552 27.1078 37.8067C27.6008 37.5925 28.0798 37.352 28.5472 37.0854C29.1936 36.7164 29.8168 36.295 30.412 35.8307C30.6818 35.6189 31.0654 35.6713 31.2723 35.9474C31.477 36.2235 31.4258 36.6188 31.1561 36.8282C30.5189 37.3258 29.8469 37.7805 29.1424 38.1828C28.6006 38.4923 28.0425 38.7709 27.4728 39.0113C27.4751 39.0446 27.4751 39.0804 27.4751 39.1137V42.1871C27.4751 42.5347 27.2006 42.8156 26.8612 42.8156H15.809C15.4695 42.8156 15.1928 42.5346 15.1928 42.1871V39.1137C15.1928 39.0804 15.1951 39.047 15.1951 39.0138C14.6091 38.7685 14.0394 38.4924 13.4884 38.1852C12.7861 37.7948 12.1164 37.352 11.4792 36.864C11.2072 36.6569 11.1537 36.2641 11.356 35.9855C11.5584 35.7093 11.9444 35.6522 12.2141 35.8617C12.8024 36.3116 13.4232 36.7188 14.0743 37.083C14.5534 37.352 15.0487 37.5925 15.5579 37.8092C15.7067 37.5569 15.8974 37.3188 16.1252 37.095C16.5484 36.6808 17.1065 36.3237 17.7646 36.0427C17.5413 35.5404 17.4181 34.9857 17.4181 34.4001V30.7791C17.4181 30.0863 17.6947 29.4555 18.1412 28.9984C18.5877 28.5413 19.204 28.258 19.8806 28.258H22.7873C23.4662 28.258 24.0824 28.5413 24.5266 28.9984C24.9731 29.4555 25.2497 30.0863 25.2497 30.7791V34.4H25.2498ZM24.2127 37.1116C23.471 37.9377 22.4316 38.4091 21.334 38.4091C20.2365 38.4091 19.197 37.9377 18.4553 37.1116C17.8414 37.3449 17.3344 37.652 16.9716 38.0043C16.6228 38.3447 16.4229 38.7257 16.4229 39.1138V41.5563H26.245V39.1138C26.245 38.7233 26.0427 38.34 25.6916 37.9996C25.3312 37.6496 24.8243 37.3448 24.2127 37.1116ZM10.7259 12.1241C10.4817 12.3646 10.0933 12.3575 9.85855 12.1074C9.6237 11.8575 9.63067 11.4599 9.87479 11.2195C10.3631 10.7386 10.8748 10.291 11.4119 9.87916C11.856 9.53877 12.3257 9.21736 12.8164 8.91737C12.9745 6.76762 13.8906 4.83455 15.2952 3.39893C16.8391 1.81582 18.9762 0.837402 21.334 0.837402C23.6942 0.837402 25.8289 1.81582 27.3753 3.39893C28.768 4.8249 29.6819 6.74377 29.8493 8.87445C30.3306 9.1768 30.7957 9.50534 31.2421 9.85287C31.7794 10.2719 32.2956 10.7266 32.7839 11.2146C33.0281 11.455 33.0327 11.8526 32.7979 12.1026C32.5606 12.3501 32.1724 12.3549 31.9305 12.1145C31.4771 11.6645 30.998 11.2431 30.498 10.8527C30.2842 10.6836 30.0656 10.5242 29.8469 10.3695C29.6563 12.762 28.6122 14.388 27.6099 15.945C26.7031 17.3567 25.8335 18.7089 25.8195 20.5254L25.8218 23.4369C25.8218 24.2749 25.487 25.0344 24.9475 25.5867C24.4102 26.1366 23.6662 26.4794 22.8501 26.4794H19.8203C19.0017 26.4794 18.2576 26.1366 17.7203 25.5867C17.1832 25.0343 16.8484 24.2749 16.8484 23.4369L16.8506 20.5254C16.8344 18.709 15.9671 17.3567 15.0602 15.945C14.0604 14.3928 13.0209 12.7764 12.8256 10.3981C12.5954 10.5552 12.3699 10.7195 12.1489 10.8885C11.6421 11.2743 11.1677 11.6885 10.7259 12.1241ZM18.0785 22.4824H24.5894V21.2064H18.0785V22.4824ZM24.5638 23.7418H18.1042C18.167 24.1107 18.3413 24.4417 18.5901 24.6964C18.9064 25.0202 19.3412 25.2202 19.8203 25.2202H22.8501C23.3268 25.2202 23.7615 25.0202 24.0778 24.6964C24.3266 24.4417 24.501 24.1107 24.5638 23.7418ZM20.741 14.3882C20.641 14.012 20.4666 13.4978 20.269 12.9097C19.7132 11.2647 18.9738 9.0745 18.9738 7.41993C18.9738 5.83204 19.5668 4.69884 21.3339 4.69884C23.101 4.69884 23.6964 5.83204 23.6964 7.41993C23.6964 9.0745 22.957 11.2647 22.4012 12.9097C22.2012 13.5001 22.0269 14.0192 21.9245 14.3953C21.8362 14.731 21.4989 14.9262 21.1734 14.8357C20.9527 14.7738 20.7945 14.5977 20.741 14.3882ZM20.2039 7.41993C20.2039 8.79593 20.8247 10.7124 21.334 12.2289C21.8455 10.7124 22.4664 8.79593 22.4664 7.41993C22.4664 6.56766 22.1805 5.95818 21.334 5.95818C20.4876 5.95826 20.2039 6.56774 20.2039 7.41993ZM20.7201 16.6117C20.7201 16.2641 20.9945 15.9832 21.334 15.9832C21.6734 15.9832 21.9502 16.2642 21.9502 16.6117V17.2663C21.9502 17.6139 21.6735 17.8949 21.334 17.8949C20.9945 17.8949 20.7201 17.6139 20.7201 17.2663V16.6117ZM18.0483 19.947H24.6196C24.7824 18.0639 25.6661 16.6879 26.5869 15.2571C27.5936 13.6906 28.647 12.0503 28.647 9.58404C28.647 7.51525 27.8286 5.644 26.5055 4.28941C25.1824 2.93483 23.3547 2.09683 21.334 2.09683C19.3156 2.09683 17.4879 2.93483 16.1648 4.28941C14.8416 5.644 14.0232 7.51525 14.0232 9.58404C14.0232 12.0504 15.0766 13.6906 16.0834 15.2571C17.0018 16.6879 17.8879 18.0639 18.0483 19.947Z" fill="black"/>
</g>
<defs>
<clipPath id="clip0">
<rect width="42" height="43" fill="white" transform="translate(0.333984 0.32666)"/>
</clipPath>
</defs>
</svg>
