<svg width="45" height="45" viewBox="0 0 45 45" fill="none" xmlns="http://www.w3.org/2000/svg">
<g clip-path="url(#clip0)">
<path d="M7.63672 38.6392H20.0117C20.3919 38.6392 20.6992 38.3312 20.6992 37.9517V35.2017C20.6992 32.8635 19.0217 30.911 16.808 30.4799C17.204 30.064 17.5127 29.5662 17.7086 29.0142H20.0117C20.3919 29.0142 20.6992 28.7062 20.6992 28.3267V25.5767C20.6992 25.1972 20.3919 24.8892 20.0117 24.8892H19.3242C19.3242 22.8218 18.1761 21.0185 16.4855 20.0794C16.5433 19.8546 16.5742 19.6229 16.5742 19.3892C16.5742 17.8725 15.3408 16.6392 13.8242 16.6392C12.3076 16.6392 11.0742 17.8725 11.0742 19.3892C11.0742 19.6229 11.1052 19.8546 11.1636 20.0794C9.47234 21.0185 8.32422 22.8212 8.32422 24.8892V25.0157C7.52603 25.3003 6.94922 26.0565 6.94922 26.9517C6.94922 28.0888 7.87459 29.0142 9.01172 29.0142H9.93984C10.1358 29.5662 10.4445 30.064 10.8405 30.4799C8.62672 30.911 6.94922 32.8635 6.94922 35.2017V37.9517C6.94922 38.3312 7.25653 38.6392 7.63672 38.6392ZM13.8242 31.7642H15.8867L15.125 32.7803L14.3103 31.9656C14.1762 31.8315 14.0002 31.7642 13.8242 31.7642C13.6482 31.7642 13.4722 31.8315 13.3382 31.9656L12.5235 32.7803L11.7617 31.7642H13.8242ZM13.8242 30.3892C12.3076 30.3892 11.0742 29.1558 11.0742 27.6392V26.2642H13.1367C14.2601 26.2642 15.259 25.7224 15.8867 24.8871C16.0813 25.1463 16.3157 25.3732 16.5742 25.5684V27.6392H15.1992V29.0142H16.192C15.7148 29.8323 14.8376 30.3892 13.8242 30.3892ZM19.3242 27.6392H17.9492V26.2642H19.3242V27.6392ZM12.4492 19.3892C12.4492 18.6308 13.0659 18.0142 13.8242 18.0142C14.5825 18.0142 15.1992 18.6308 15.1992 19.3892C15.1992 19.4483 15.1841 19.506 15.1765 19.5645C14.7427 19.4538 14.2917 19.3892 13.8242 19.3892C13.3567 19.3892 12.9057 19.4538 12.4719 19.5645C12.4643 19.506 12.4492 19.449 12.4492 19.3892ZM13.8242 20.7642C16.0593 20.7642 17.8846 22.551 17.9478 24.7709C17.1483 24.487 16.5742 23.7225 16.5742 22.8267C16.5742 22.4472 16.2669 22.1392 15.8867 22.1392C15.5065 22.1392 15.1992 22.4472 15.1992 22.8267C15.1992 23.9638 14.2738 24.8892 13.1367 24.8892H9.69922C9.69922 22.6142 11.5493 20.7642 13.8242 20.7642ZM9.01172 27.6392C8.63222 27.6392 8.32422 27.3305 8.32422 26.9517C8.32422 26.5728 8.63222 26.2642 9.01172 26.2642H9.69922V27.6392H9.01172ZM8.32422 35.2017C8.32422 33.8315 9.13547 32.6558 10.298 32.1038L11.8992 34.2392C12.0188 34.3987 12.201 34.4983 12.4004 34.5121C12.6073 34.5252 12.7943 34.4537 12.9353 34.312L13.8242 33.4238L14.7132 34.3127C14.8424 34.4427 15.017 34.5142 15.1992 34.5142C15.215 34.5142 15.2315 34.5135 15.248 34.5128C15.4467 34.4983 15.6296 34.3987 15.7492 34.2398L17.3504 32.1045C18.513 32.6558 19.3242 33.8315 19.3242 35.2017V37.2642H17.9492V34.5142H16.5742V37.2642H11.0742V34.5142H9.69922V37.2642H8.32422V35.2017Z" fill="black"/>
<path d="M26.1992 26.2642H22.0742V27.6392H25.5117V40.0142H2.13672V27.6392H5.57422V26.2642H1.44922C1.06903 26.2642 0.761719 26.5722 0.761719 26.9517V40.7017C0.761719 41.0812 1.06903 41.3892 1.44922 41.3892H11.7617V42.7642H9.01172V44.1392H18.6367V42.7642H15.8867V41.3892H26.1992C26.5794 41.3892 26.8867 41.0812 26.8867 40.7017V26.9517C26.8867 26.5722 26.5794 26.2642 26.1992 26.2642ZM14.5117 42.7642H13.1367V41.3892H14.5117V42.7642Z" fill="black"/>
<path d="M43.3058 10.1272C43.1862 9.90372 42.9531 9.76416 42.6994 9.76416C41.5623 9.76416 40.6369 8.83879 40.6369 7.70166V7.01416C40.6369 3.9816 38.1695 1.51416 35.1369 1.51416C32.1044 1.51416 29.6369 3.9816 29.6369 7.01416V7.70166C29.6369 8.83879 28.7116 9.76416 27.5744 9.76416C27.3207 9.76416 27.0877 9.90372 26.9681 10.1272C26.8484 10.3506 26.8615 10.6215 27.0024 10.8325C27.8536 12.1099 29.2011 12.9404 30.6971 13.1473C29.2451 13.9772 28.2619 15.5378 28.2619 17.3267V20.0767C28.2619 20.4562 28.5692 20.7642 28.9494 20.7642H41.3244C41.7046 20.7642 42.0119 20.4562 42.0119 20.0767V17.3267C42.0119 15.5378 41.0288 13.9772 39.5768 13.1473C41.0728 12.9411 42.4203 12.1106 43.2714 10.8325C43.4124 10.6222 43.4254 10.3506 43.3058 10.1272ZM35.1369 13.8892H37.1994L36.4377 14.9053L35.623 14.0906C35.4889 13.9565 35.3129 13.8892 35.1369 13.8892C34.9609 13.8892 34.7849 13.9565 34.6509 14.0906L33.8362 14.9053L33.0744 13.8892H35.1369ZM37.8869 9.76416C37.8869 11.2808 36.6536 12.5142 35.1369 12.5142C33.6203 12.5142 32.3869 11.2808 32.3869 9.76416V8.38916C33.5103 8.38916 34.5092 7.84741 35.1369 7.0121C35.7646 7.84741 36.7636 8.38916 37.8869 8.38916V9.76416ZM40.6369 17.3267V19.3892H39.2619V16.6392H37.8869V19.3892H32.3869V16.6392H31.0119V19.3892H29.6369V17.3267C29.6369 15.9565 30.4482 14.7808 31.6107 14.2288L33.2119 16.3642C33.3316 16.5237 33.5137 16.6233 33.7131 16.6371C33.9201 16.6502 34.1071 16.5787 34.248 16.437L35.1369 15.5488L36.0259 16.4377C36.1551 16.5677 36.3297 16.6392 36.5119 16.6392C36.5277 16.6392 36.5442 16.6385 36.5607 16.6378C36.7594 16.6233 36.9423 16.5237 37.0619 16.3648L38.6631 14.2295C39.8257 14.7808 40.6369 15.9565 40.6369 17.3267ZM38.846 11.8267H38.7044C39.0564 11.2189 39.2619 10.5156 39.2619 9.76416V7.70166C39.2619 7.32216 38.9546 7.01416 38.5744 7.01416H37.8869C36.7498 7.01416 35.8244 6.08879 35.8244 4.95166C35.8244 4.57216 35.5171 4.26416 35.1369 4.26416C34.7567 4.26416 34.4494 4.57216 34.4494 4.95166C34.4494 6.08879 33.5241 7.01416 32.3869 7.01416H31.6994C31.3192 7.01416 31.0119 7.32216 31.0119 7.70166V9.76416C31.0119 10.5156 31.2175 11.2189 31.5702 11.8267H31.4286C30.4771 11.8267 29.5751 11.4863 28.8704 10.8855C30.1251 10.3733 31.0119 9.13922 31.0119 7.70166V7.01416C31.0119 4.73922 32.862 2.88916 35.1369 2.88916C37.4119 2.88916 39.2619 4.73922 39.2619 7.01416V7.70166C39.2619 9.13922 40.1488 10.3733 41.4035 10.8855C40.6995 11.4863 39.7968 11.8267 38.846 11.8267Z" fill="black"/>
<path d="M21.3867 8.38916H28.2617V7.01416H21.3867C16.8375 7.01416 13.1367 10.715 13.1367 15.2642H14.5117C14.5117 11.4733 17.5958 8.38916 21.3867 8.38916Z" fill="black"/>
<path d="M35.1367 26.2642C35.1367 30.055 32.0526 33.1392 28.2617 33.1392V34.5142C32.8109 34.5142 36.5117 30.8133 36.5117 26.2642V22.1392H35.1367V26.2642Z" fill="black"/>
</g>
<defs>
<clipPath id="clip0">
<rect width="44" height="44" fill="white" transform="translate(0.0742188 0.82666)"/>
</clipPath>
</defs>
</svg>
