<svg width="34" height="35" viewBox="0 0 34 35" fill="none" xmlns="http://www.w3.org/2000/svg">
<g clip-path="url(#clip0)">
<path d="M28.1699 3.76318H0.669922V32.0965H33.6699V3.76318H28.1699ZM5.06992 30.9632H1.76992V27.5632H5.06992V30.9632ZM5.06992 26.4298H1.76992V23.0299H5.06992V26.4298ZM5.06992 21.8965H1.76992V18.4965H5.06992V21.8965ZM5.06992 17.3632H1.76992V13.9632H5.06992V17.3632ZM5.06992 12.8299H1.76992V9.42985H5.06992V12.8299ZM5.06992 8.29652H1.76992V4.89652H5.06992V8.29652ZM28.1699 30.9632H6.16992V4.89652H28.1699V30.9632ZM32.5699 30.9632H29.2699V27.5632H32.5699V30.9632ZM32.5699 26.4298H29.2699V23.0299H32.5699V26.4298ZM32.5699 21.8965H29.2699V18.4965H32.5699V21.8965ZM32.5699 17.3632H29.2699V13.9632H32.5699V17.3632ZM32.5699 12.8299H29.2699V9.42985H32.5699V12.8299ZM32.5699 8.29652H29.2699V4.89652H32.5699V8.29652Z" fill="black"/>
<path d="M21.4988 17.6464C21.4501 17.5588 21.3796 17.4862 21.2945 17.436L13.5945 12.9027C13.3315 12.7462 12.9951 12.8391 12.8432 13.1101C12.7945 13.1971 12.7691 13.2958 12.7695 13.3962V22.4629C12.7697 22.6651 12.8745 22.8519 13.0445 22.9531C13.2147 23.0543 13.4244 23.0543 13.5945 22.9531L21.2945 18.4197C21.5582 18.2643 21.6496 17.9182 21.4988 17.6464ZM13.8695 21.486V14.3732L19.9107 17.9296L13.8695 21.486Z" fill="black"/>
</g>
<defs>
<clipPath id="clip0">
<rect width="33" height="34" fill="white" transform="translate(0.669922 0.929688)"/>
</clipPath>
</defs>
</svg>
