<svg width="35" height="35" viewBox="0 0 35 35" fill="none" xmlns="http://www.w3.org/2000/svg">
<path d="M33.3594 28.3882H29.5312V2.35693C29.5312 2.06355 29.2866 1.82568 28.9844 1.82568H1.64062C1.33835 1.82568 1.09375 2.06355 1.09375 2.35693V31.0444C1.09375 32.509 2.32048 33.7007 3.82812 33.7007H31.1719C32.6795 33.7007 33.9062 32.509 33.9062 31.0444V28.9194C33.9062 28.6261 33.6616 28.3882 33.3594 28.3882ZM5.46875 28.9194V31.0444C5.46875 31.9233 4.73282 32.6382 3.82812 32.6382C2.92343 32.6382 2.1875 31.9233 2.1875 31.0444V2.88818H28.4375V28.3882H6.01562C5.71335 28.3882 5.46875 28.6261 5.46875 28.9194ZM32.8125 31.0444C32.8125 31.9233 32.0766 32.6382 31.1719 32.6382H6.01456C6.35849 32.1938 6.5625 31.6418 6.5625 31.0444V29.4507H32.8125V31.0444Z" fill="black"/>
<path d="M12.5781 15.6382C12.5781 17.1028 13.8049 18.2944 15.3125 18.2944C16.8201 18.2944 18.0469 17.1028 18.0469 15.6382C18.0469 14.1736 16.8201 12.9819 15.3125 12.9819C13.8049 12.9819 12.5781 14.1736 12.5781 15.6382ZM16.9531 15.6382C16.9531 16.517 16.2172 17.2319 15.3125 17.2319C14.4078 17.2319 13.6719 16.517 13.6719 15.6382C13.6719 14.7593 14.4078 14.0444 15.3125 14.0444C16.2172 14.0444 16.9531 14.7593 16.9531 15.6382Z" fill="black"/>
<path d="M10.9375 8.20068H14.7656V9.82452C14.6945 9.83143 14.6274 9.83633 14.5504 9.84579C14.3549 9.86992 14.1883 9.99417 14.1135 10.1713L13.713 11.1192C13.5207 11.1833 13.3338 11.2582 13.1533 11.3433L12.1819 10.9488C12.0008 10.8754 11.7915 10.9013 11.636 11.0191C11.2328 11.3226 10.8702 11.6748 10.5578 12.0665C10.4371 12.2177 10.4093 12.4203 10.4852 12.597L10.8916 13.5404C10.804 13.7155 10.7265 13.8974 10.6603 14.0846L9.6846 14.4735C9.50248 14.5461 9.37484 14.7085 9.34975 14.8981C9.31343 15.1752 9.29688 15.4102 9.29688 15.6382C9.29688 15.8662 9.31343 16.1012 9.34975 16.3783C9.37485 16.5679 9.50249 16.7303 9.6846 16.8029L10.6603 17.1917C10.7265 17.3788 10.8034 17.5606 10.891 17.7357L10.4852 18.6791C10.4093 18.8558 10.4371 19.0581 10.5578 19.2093C10.8702 19.6016 11.2328 19.9541 11.636 20.2573C11.7915 20.3743 12.0008 20.4008 12.1819 20.3276L13.1533 19.9331C13.3338 20.0181 13.5207 20.0931 13.713 20.1572L14.1135 21.105C14.1883 21.2822 14.3549 21.4065 14.5504 21.4306C14.6271 21.44 14.6944 21.4447 14.7656 21.4515V23.0757H10.9375C10.6352 23.0757 10.3906 23.3136 10.3906 23.6069V26.2632C10.3906 26.5566 10.6352 26.7944 10.9375 26.7944H19.6875C19.9898 26.7944 20.2344 26.5566 20.2344 26.2632V23.6069C20.2344 23.3136 19.9898 23.0757 19.6875 23.0757H15.8594V21.4515C15.9306 21.4447 15.9979 21.44 16.0746 21.4306C16.2701 21.4064 16.4367 21.2822 16.5115 21.105L16.912 20.1572C17.1048 20.0931 17.2917 20.0181 17.4717 19.9331L18.4431 20.3276C18.6237 20.4008 18.833 20.3743 18.989 20.2573C19.3922 19.9541 19.7548 19.6015 20.0672 19.2093C20.1879 19.0581 20.2157 18.8555 20.1398 18.6791L19.7334 17.7357C19.821 17.5609 19.8985 17.379 19.9647 17.1917L20.9404 16.8029C21.1225 16.7303 21.2502 16.5679 21.2753 16.3782C21.3116 16.1012 21.3281 15.8662 21.3281 15.6382C21.3281 15.4102 21.3116 15.1752 21.2753 14.8981C21.2502 14.7085 21.1225 14.5461 20.9404 14.4735L19.9647 14.0846C19.8985 13.8976 19.8216 13.7158 19.734 13.5407L20.1398 12.5972C20.2157 12.4206 20.1879 12.2183 20.0672 12.067C19.7548 11.6748 19.3922 11.3223 18.989 11.0191C18.833 10.9013 18.6237 10.8753 18.4431 10.9488L17.4717 11.3433C17.2912 11.2582 17.1043 11.1833 16.912 11.1192L16.5115 10.1713C16.4367 9.99416 16.2701 9.86991 16.0746 9.84579C15.9976 9.83633 15.9305 9.83143 15.8594 9.82452V8.20068H19.6875C19.9898 8.20068 20.2344 7.96282 20.2344 7.66943V5.01318C20.2344 4.7198 19.9898 4.48193 19.6875 4.48193H10.9375C10.6352 4.48193 10.3906 4.7198 10.3906 5.01318V7.66943C10.3906 7.96282 10.6352 8.20068 10.9375 8.20068ZM19.1406 25.7319H11.4844V24.1382H19.1406V25.7319ZM16.3544 12.0626C16.646 12.143 16.9232 12.2543 17.179 12.3931C17.3259 12.4727 17.5016 12.4821 17.657 12.4198L18.5606 12.0528C18.7171 12.1869 18.865 12.3308 19.0034 12.4831L18.6258 13.3607C18.5612 13.5114 18.5713 13.6826 18.653 13.825C18.7961 14.0727 18.9104 14.3422 18.9932 14.6263C19.0386 14.7832 19.1561 14.9111 19.3115 14.9731L20.2221 15.336C20.2306 15.4423 20.2344 15.5417 20.2344 15.6382C20.2344 15.7347 20.2306 15.834 20.2221 15.9404L19.3115 16.3033C19.1561 16.3653 19.0386 16.4932 18.9932 16.6501C18.9099 16.9344 18.7956 17.2039 18.653 17.4506C18.5708 17.5933 18.5606 17.765 18.6253 17.9157L19.0034 18.7933C18.8651 18.9458 18.7171 19.0895 18.5606 19.2236L17.657 18.8566C17.5016 18.794 17.3254 18.8036 17.1785 18.8835C16.9243 19.0221 16.6471 19.1331 16.3544 19.2138C16.1926 19.2581 16.0613 19.3722 15.9977 19.5232L15.6239 20.4078C15.4049 20.4233 15.2201 20.4233 15.0012 20.4078L14.6273 19.5232C14.5638 19.3722 14.4324 19.2581 14.2706 19.2138C13.979 19.1333 13.7018 19.0221 13.446 18.8833C13.2991 18.8036 13.1234 18.794 12.968 18.8566L12.0644 19.2236C11.9079 19.0895 11.76 18.9455 11.6216 18.7933L11.9992 17.9157C12.0638 17.765 12.0537 17.5938 11.972 17.4514C11.8289 17.2037 11.7146 16.9342 11.6318 16.6501C11.5864 16.4932 11.4689 16.3653 11.3135 16.3033L10.4029 15.9404C10.3944 15.834 10.3906 15.7347 10.3906 15.6382C10.3906 15.5417 10.3944 15.4423 10.4029 15.336L11.3135 14.9731C11.4689 14.9111 11.5864 14.7832 11.6318 14.6263C11.7151 14.342 11.8294 14.0724 11.972 13.8258C12.0542 13.6831 12.0644 13.5116 11.9997 13.3607L11.6216 12.4828C11.7599 12.3306 11.9079 12.1869 12.0644 12.0528L12.968 12.4198C13.1234 12.4821 13.2991 12.4727 13.446 12.3931C13.7018 12.2543 13.979 12.143 14.2705 12.0626C14.4324 12.0183 14.5637 11.9041 14.6273 11.7532L15.0011 10.8686C15.2201 10.853 15.4049 10.853 15.6238 10.8686L15.9977 11.7532C16.0612 11.9041 16.1926 12.0183 16.3544 12.0626ZM11.4844 5.54443H19.1406V7.13818H11.4844V5.54443Z" fill="black"/>
<path d="M21.6602 11.4788C22.5104 12.6977 22.9691 14.1333 22.9691 15.6381C22.9691 17.6246 22.1729 19.4922 20.7266 20.8972L21.4999 21.6484C23.1528 20.043 24.0629 17.9084 24.0629 15.6381C24.0629 13.7704 23.4381 11.9996 22.2993 10.5347H23.4338V9.47217H21.1133C20.811 9.47217 20.5664 9.71004 20.5664 10.0034V12.2573H21.6602V11.4788Z" fill="black"/>
<path d="M7.19162 20.7416V21.8041H9.5121C9.81437 21.8041 10.059 21.5663 10.059 21.2729V19.019H8.96522V19.7975C8.11501 18.5786 7.65625 17.143 7.65625 15.6382C7.65625 13.6517 8.45253 11.7841 9.89876 10.3791L9.12545 9.62793C7.47253 11.2334 6.5625 13.3679 6.5625 15.6382C6.5625 17.5059 7.18725 19.2767 8.32606 20.7416H7.19162Z" fill="black"/>
</svg>
