<svg width="44" height="45" viewBox="0 0 44 45" fill="none" xmlns="http://www.w3.org/2000/svg">
<path d="M41.25 5.09131H2.75C2.20321 5.09204 1.67903 5.30957 1.2924 5.6962C0.90576 6.08284 0.688228 6.60702 0.6875 7.15381V30.5288C0.688228 31.0756 0.90576 31.5998 1.2924 31.9864C1.67903 32.373 2.20321 32.5906 2.75 32.5913H16.9632L15.9818 36.0288H13.0625C12.8802 36.0288 12.7053 36.1012 12.5764 36.2302C12.4474 36.3591 12.375 36.534 12.375 36.7163V38.0913H6.875C6.69266 38.0913 6.5178 38.1637 6.38886 38.2927C6.25993 38.4216 6.1875 38.5965 6.1875 38.7788C6.1875 38.9611 6.25993 39.136 6.38886 39.2649C6.5178 39.3939 6.69266 39.4663 6.875 39.4663H37.125C37.3073 39.4663 37.4822 39.3939 37.6111 39.2649C37.7401 39.136 37.8125 38.9611 37.8125 38.7788C37.8125 38.5965 37.7401 38.4216 37.6111 38.2927C37.4822 38.1637 37.3073 38.0913 37.125 38.0913H31.625V36.7163C31.625 36.534 31.5526 36.3591 31.4236 36.2302C31.2947 36.1012 31.1198 36.0288 30.9375 36.0288H28.0182L27.0368 32.5913H41.25C41.7968 32.5906 42.321 32.373 42.7076 31.9864C43.0942 31.5998 43.3118 31.0756 43.3125 30.5288V7.15381C43.3118 6.60702 43.0942 6.08284 42.7076 5.6962C42.321 5.30957 41.7968 5.09204 41.25 5.09131ZM30.25 37.4038V38.0913H13.75V37.4038H30.25ZM17.4118 36.0288L18.3932 32.5913H25.6068L26.5882 36.0288H17.4118ZM41.9375 30.5288C41.9372 30.7111 41.8647 30.8858 41.7359 31.0147C41.607 31.1435 41.4323 31.2161 41.25 31.2163H2.75C2.56774 31.2161 2.39302 31.1435 2.26414 31.0147C2.13526 30.8858 2.06275 30.7111 2.0625 30.5288V29.1538H41.9375V30.5288ZM41.9375 27.7788H2.0625V7.15381C2.06275 6.97155 2.13526 6.79683 2.26414 6.66795C2.39302 6.53907 2.56774 6.46656 2.75 6.46631H41.25C41.4323 6.46656 41.607 6.53907 41.7359 6.66795C41.8647 6.79683 41.9372 6.97155 41.9375 7.15381V27.7788Z" fill="black"/>
<path d="M32.9998 17.5849V14.0288C32.9998 13.8979 32.9624 13.7698 32.8921 13.6594C32.8218 13.5491 32.7214 13.4611 32.6028 13.4058L22.2903 8.59326C22.1994 8.55081 22.1002 8.52881 21.9998 8.52881C21.8995 8.52881 21.8003 8.55081 21.7094 8.59326L11.3969 13.4058C11.2783 13.4611 11.1779 13.5491 11.1076 13.6595C11.0373 13.7698 11 13.898 11 14.0288C11 14.1597 11.0373 14.2878 11.1076 14.3982C11.1779 14.5085 11.2783 14.5965 11.3969 14.6519L15.1248 16.3912V24.3413C15.1248 24.5236 15.1973 24.6985 15.3262 24.8274C15.4551 24.9564 15.63 25.0288 15.8123 25.0288H28.1873C28.3697 25.0288 28.5445 24.9564 28.6735 24.8274C28.8024 24.6985 28.8748 24.5236 28.8748 24.3413V16.3912L31.6248 15.1082V17.5849C31.1661 17.7471 30.7795 18.0662 30.5333 18.4859C30.2872 18.9055 30.1973 19.3987 30.2795 19.8782C30.3618 20.3577 30.611 20.7928 30.9829 21.1064C31.3549 21.42 31.8258 21.5919 32.3123 21.5919C32.7989 21.5919 33.2697 21.42 33.6417 21.1064C34.0137 20.7928 34.2629 20.3577 34.3451 19.8782C34.4274 19.3987 34.3375 18.9055 34.0913 18.4859C33.8451 18.0662 33.4585 17.7471 32.9998 17.5849ZM27.4998 23.6538H16.4998V17.0332L21.7094 19.4644C21.8003 19.5068 21.8995 19.5288 21.9998 19.5288C22.1002 19.5288 22.1994 19.5068 22.2903 19.4644L27.4998 17.0332V23.6538ZM21.9998 18.0825L13.3133 14.0288L21.9998 9.97514L30.6864 14.0288L21.9998 18.0825ZM32.3123 20.2163C32.1764 20.2163 32.0434 20.176 31.9304 20.1004C31.8173 20.0249 31.7292 19.9175 31.6772 19.7919C31.6251 19.6663 31.6115 19.528 31.638 19.3947C31.6646 19.2613 31.73 19.1388 31.8262 19.0427C31.9223 18.9465 32.0448 18.881 32.1782 18.8545C32.3116 18.828 32.4498 18.8416 32.5754 18.8936C32.701 18.9457 32.8084 19.0338 32.884 19.1469C32.9595 19.2599 32.9998 19.3928 32.9998 19.5288C32.9996 19.7111 32.9271 19.8858 32.7982 20.0147C32.6693 20.1435 32.4946 20.2161 32.3123 20.2163Z" fill="black"/>
</svg>
