<svg width="120" height="120" viewBox="0 0 120 120" fill="none" xmlns="http://www.w3.org/2000/svg">
<g clip-path="url(#clip0)">
<path d="M60 119.5C93.1371 119.5 120 92.8609 120 60C120 27.1391 93.1371 0.5 60 0.5C26.8629 0.5 0 27.1391 0 60C0 92.8609 26.8629 119.5 60 119.5Z" fill="#5C4F5E"/>
<path d="M119.868 63.8716L74.0572 18.4421L38.2995 44.0362L69.5809 75.0569L46.9728 82.1367C46.9728 82.1367 14.843 76.3419 14.6445 76.1941L58.2891 119.475C58.857 119.491 59.4266 119.5 59.9982 119.5C91.8233 119.5 117.856 94.9278 119.868 63.8716Z" fill="#403842"/>
<path d="M68.1115 14.2916C65.276 13.3275 62.2135 13.3926 59.4879 14.4752C57.0042 15.4616 54.8578 17.2524 53.201 19.7035C51.5442 17.2524 49.3978 15.4616 46.9144 14.4752C44.1888 13.3926 41.126 13.3277 38.2908 14.2916C32.899 16.1252 27.9218 21.9929 29.7356 30.5432C30.4195 33.7669 32.0724 37.0048 34.6479 40.1664C36.6774 42.6577 39.2845 45.1112 42.397 47.4589C47.6698 51.4358 52.5178 53.7122 52.7215 53.8073L53.201 54.0306L53.6806 53.8073C53.8845 53.7122 58.7323 51.4361 64.005 47.4589C67.1175 45.1112 69.7247 42.6577 71.7544 40.1664C74.3299 37.0048 75.9827 33.7671 76.6667 30.5432C78.4805 21.9931 73.5033 16.1254 68.1115 14.2916Z" fill="#FF735C"/>
<path d="M76.6688 30.5429C75.9844 33.7666 74.332 37.0042 71.7563 40.1651C69.7266 42.6567 67.1203 45.1111 64.0078 47.4585C58.7344 51.4353 53.8875 53.713 53.6836 53.806L53.2031 54.0314V19.7027C54.8602 17.253 57.007 15.461 59.4891 14.4755C62.2148 13.3925 65.2781 13.3274 68.1141 14.2919C73.5047 16.1257 78.4828 21.9921 76.6688 30.5429Z" fill="#FC435F"/>
<path d="M40.6887 75.4249L24.4208 63.2978C20.8309 60.6217 15.733 61.3371 13.033 64.8961C10.3313 68.4573 11.0537 73.5162 14.6459 76.1937L28.5109 86.5274C33.2553 90.067 39.0312 91.9809 44.9684 91.9809H88.385V75.8097L40.6887 75.4249Z" fill="#FCC78D"/>
<path d="M88.3835 77.0789V68.4916L80.382 68.4258C77.5069 68.4021 74.6749 67.7274 72.1029 66.4528C70.6615 65.7386 69.0722 65.3667 67.4609 65.3667H43.9561C40.6948 65.3667 38.0508 67.9887 38.0508 71.2228C38.0508 74.457 40.6948 77.0789 43.9561 77.0789H88.3835Z" fill="#FFDBA9"/>
<path d="M76.0664 61.6787H99.9045V96.393H76.0664V61.6787Z" fill="#14C4A2"/>
<path d="M76.0664 77.0786H99.9047V96.3929H76.0664V77.0786Z" fill="#02A082"/>
</g>
<defs>
<clipPath id="clip0">
<rect width="120" height="119" fill="white" transform="translate(0 0.5)"/>
</clipPath>
</defs>
</svg>
